<svg width="20" height="20" viewBox="0 0 20 20" fill="none" xmlns="http://www.w3.org/2000/svg">
  <path d="M15.6221 15.6218L11.4138 11.4136" stroke="#717A84" stroke-width="1.5" stroke-linecap="round" stroke-linejoin="round"/>
  <path d="M4.5 14L4.71399 10.1785L8 10" stroke="#717A84" stroke-width="1.5" stroke-linecap="round" stroke-linejoin="round"/>
  <path d="M12.2756 3.209L12.2756 6.81086H8.88379" stroke="#717A84" stroke-width="1.5" stroke-linecap="round" stroke-linejoin="round"/>
  <path d="M12.2733 6.81077C11.9028 5.97642 11.2655 5.28888 10.4616 4.85629C9.65766 4.4237 8.73276 4.27059 7.83233 4.42105C6.9319 4.57151 6.10702 5.01699 5.48742 5.68745C4.86782 6.3579 4.48865 7.21529 4.40955 8.12477" stroke="#717A84" stroke-width="1.5" stroke-linecap="round" stroke-linejoin="round"/>
  <path d="M4.73584 10.1785C5.10568 11.0123 5.742 11.6996 6.54488 12.1326C7.34775 12.5655 8.27168 12.7194 9.17155 12.5702C10.0714 12.421 10.8962 11.9772 11.5164 11.3083C12.1367 10.6395 12.5171 9.78355 12.5981 8.875" stroke="#717A84" stroke-width="1.5" stroke-linecap="round" stroke-linejoin="round"/>
</svg>
