<svg width="20" height="20" viewBox="0 0 20 20" fill="none" xmlns="http://www.w3.org/2000/svg">
<path fill-rule="evenodd" clip-rule="evenodd" d="M10 3C8.56407 3 7.40001 4.16406 7.40001 5.6C7.40001 7.03594 8.56407 8.2 10 8.2C11.436 8.2 12.6 7.03594 12.6 5.6C12.6 4.16406 11.436 3 10 3Z" fill="#2359FB" fill-opacity="0.16"/>
<path d="M8.15001 5.6C8.15001 4.57827 8.97829 3.75 10 3.75V2.25C8.14986 2.25 6.65001 3.74985 6.65001 5.6H8.15001ZM10 7.45C8.97829 7.45 8.15001 6.62173 8.15001 5.6H6.65001C6.65001 7.45015 8.14986 8.95 10 8.95V7.45ZM11.85 5.6C11.85 6.62173 11.0217 7.45 10 7.45V8.95C11.8502 8.95 13.35 7.45015 13.35 5.6H11.85ZM10 3.75C11.0217 3.75 11.85 4.57827 11.85 5.6H13.35C13.35 3.74985 11.8502 2.25 10 2.25V3.75ZM13.9665 15.1504H6.03327V16.6504H13.9665V15.1504ZM8.26665 11.9502H9.5V10.4502H8.26665V11.9502ZM5.54999 14.6669C5.54999 13.1665 6.76628 11.9502 8.26665 11.9502V10.4502C5.93785 10.4502 4.04999 12.3381 4.04999 14.6669H5.54999ZM14.45 14.6669C14.45 14.9339 14.2335 15.1504 13.9665 15.1504V16.6504C15.0619 16.6504 15.95 15.7623 15.95 14.6669H14.45ZM4.04999 14.6667C4.04977 15.7622 4.93778 16.6504 6.03327 16.6504V15.1504C5.76632 15.1504 5.54993 14.934 5.54999 14.667L4.04999 14.6667Z" fill="#2359FB"/>
<path fill-rule="evenodd" clip-rule="evenodd" d="M13.2857 13.3214C13.2857 13.7356 13.6215 14.0714 14.0357 14.0714C14.4499 14.0714 14.7857 13.7356 14.7857 13.3214V11.7857H16.3214C16.7356 11.7857 17.0714 11.45 17.0714 11.0357C17.0714 10.6215 16.7356 10.2857 16.3214 10.2857H14.7857V8.75C14.7857 8.33579 14.4499 8 14.0357 8C13.6215 8 13.2857 8.33579 13.2857 8.75V10.2857H11.75C11.3358 10.2857 11 10.6215 11 11.0357C11 11.45 11.3358 11.7857 11.75 11.7857H13.2857V13.3214Z" fill="#2359FB"/>
</svg>
