<svg width="20" height="20" viewBox="0 0 20 20" fill="none" xmlns="http://www.w3.org/2000/svg">
<path d="M3.91806 15.5942L4.57584 12.963C4.61585 12.803 4.63585 12.723 4.66802 12.6484C4.69658 12.5822 4.73222 12.5192 4.77432 12.4607C4.82174 12.3947 4.88006 12.3364 4.9967 12.2197L10.8054 6.41098L11.9699 7.5754C12.3659 7.97142 12.5639 8.16943 12.6381 8.39776C12.7033 8.5986 12.7033 8.81495 12.6381 9.01579C12.5639 9.24412 12.3659 9.44213 11.9699 9.83814L7.29249 14.5155C7.17585 14.6322 7.11753 14.6905 7.05156 14.7379C6.993 14.78 6.93005 14.8156 6.86382 14.8442C6.78922 14.8764 6.70921 14.8964 6.54918 14.9364L3.91806 15.5942Z" fill="#2359FB" fill-opacity="0.16"/>
<path d="M3.91806 15.5942L3.19045 15.4123C3.12656 15.6678 3.20144 15.9382 3.38773 16.1245C3.57402 16.3108 3.84438 16.3857 4.09996 16.3218L3.91806 15.5942ZM10.8054 6.41098L11.3358 5.88065C11.0429 5.58776 10.568 5.58776 10.2751 5.88065L10.8054 6.41098ZM7.29249 14.5155L7.82282 15.0458L7.29249 14.5155ZM7.05156 14.7379L7.48934 15.3469L7.05156 14.7379ZM6.54918 14.9364L6.73108 15.664L6.54918 14.9364ZM6.86382 14.8442L6.56686 14.1555L6.86382 14.8442ZM12.6381 8.39776L13.3514 8.16599L12.6381 8.39776ZM11.9699 9.83814L11.4395 9.30781L11.9699 9.83814ZM12.6381 9.01579L11.9248 8.78403L12.6381 9.01579ZM4.66802 12.6484L5.35672 12.9454L4.66802 12.6484ZM4.9967 12.2197L4.46637 11.6894L4.9967 12.2197ZM4.77432 12.4607L5.3833 12.8984L4.77432 12.4607ZM4.64567 15.7761L5.30345 13.1449L3.84823 12.7811L3.19045 15.4123L4.64567 15.7761ZM5.52703 12.7501L11.3358 6.94131L10.2751 5.88065L4.46637 11.6894L5.52703 12.7501ZM10.2751 6.94131L11.4395 8.10573L12.5002 7.04507L11.3358 5.88065L10.2751 6.94131ZM11.4395 9.30781L6.76216 13.9852L7.82282 15.0458L12.5002 10.3685L11.4395 9.30781ZM6.36727 14.2088L3.73616 14.8665L4.09996 16.3218L6.73108 15.664L6.36727 14.2088ZM6.76216 13.9852C6.70064 14.0467 6.66659 14.0806 6.63992 14.1057C6.61683 14.1273 6.6116 14.1305 6.61379 14.1289L7.48934 15.3469C7.61613 15.2557 7.72284 15.1458 7.82282 15.0458L6.76216 13.9852ZM6.73108 15.664C6.86825 15.6297 7.0174 15.5947 7.16079 15.5329L6.56686 14.1555C6.56933 14.1544 6.56391 14.1573 6.53347 14.1659C6.49829 14.1759 6.45167 14.1877 6.36727 14.2088L6.73108 15.664ZM6.61379 14.1289C6.59915 14.1394 6.58342 14.1484 6.56686 14.1555L7.16079 15.5329C7.27669 15.4829 7.38685 15.4206 7.48934 15.3469L6.61379 14.1289ZM11.4395 8.10573C11.6463 8.31249 11.7691 8.43608 11.8529 8.53485C11.9311 8.62692 11.9305 8.64702 11.9248 8.62952L13.3514 8.16599C13.2715 7.92017 13.1348 7.7271 12.9964 7.56408C12.8637 7.40776 12.6895 7.23433 12.5002 7.04507L11.4395 8.10573ZM12.5002 10.3685C12.6895 10.1792 12.8637 10.0058 12.9964 9.84947C13.1348 9.68645 13.2715 9.49338 13.3514 9.24755L11.9248 8.78403C11.9305 8.76653 11.9311 8.78663 11.8529 8.8787C11.7691 8.97747 11.6463 9.10106 11.4395 9.30781L12.5002 10.3685ZM11.9248 8.62952C11.9411 8.67973 11.9411 8.73382 11.9248 8.78403L13.3514 9.24755C13.4656 8.89608 13.4656 8.51747 13.3514 8.16599L11.9248 8.62952ZM5.30345 13.1449C5.32455 13.0605 5.33629 13.0139 5.34629 12.9787C5.35494 12.9483 5.35779 12.9429 5.35672 12.9454L3.97931 12.3514C3.91749 12.4948 3.88252 12.644 3.84823 12.7811L5.30345 13.1449ZM4.46637 11.6894C4.36639 11.7894 4.25648 11.8961 4.16534 12.0229L5.3833 12.8984C5.38172 12.9006 5.3849 12.8954 5.40656 12.8723C5.43158 12.8456 5.46551 12.8116 5.52703 12.7501L4.46637 11.6894ZM5.35672 12.9454C5.36386 12.9288 5.37277 12.9131 5.3833 12.8984L4.16534 12.0229C4.09166 12.1254 4.02929 12.2355 3.97931 12.3514L5.35672 12.9454Z" fill="#2359FB"/>
<path d="M11.9534 7.55887L13.5004 9.10592C13.8964 9.50194 14.0945 9.69995 14.1686 9.92828C14.2339 10.1291 14.2339 10.3455 14.1686 10.5463C14.0945 10.7746 13.8964 10.9726 13.5004 11.3687L11.5707 13.2984" stroke="#2359FB" stroke-width="1.5" stroke-linecap="round" stroke-linejoin="round"/>
<path d="M12.5737 4.87936C13.1706 4.28256 14.1382 4.28256 14.735 4.87936C15.3318 5.47617 15.3318 6.44378 14.735 7.04059L14.7228 7.0528L12.5615 4.89158L12.5737 4.87936Z" fill="#2359FB" stroke="#2359FB" stroke-width="1.5" stroke-linecap="round"/>
</svg>
