<svg width="20" height="20" viewBox="0 0 20 20" fill="none" xmlns="http://www.w3.org/2000/svg">
<path d="M5 7.2C5 6.07989 5 5.51984 5.21799 5.09202C5.40973 4.71569 5.71569 4.40973 6.09202 4.21799C6.51984 4 7.07989 4 8.2 4H9.75319C10.166 4 10.3723 4 10.5699 4.04023C10.7451 4.07592 10.9148 4.13497 11.0744 4.21578C11.2542 4.30686 11.416 4.43497 11.7396 4.6912L13.7864 6.31184C14.232 6.66462 14.4548 6.84101 14.6152 7.06066C14.7573 7.25524 14.863 7.47389 14.9274 7.70608C15 7.96819 15 8.25234 15 8.82064V12.8C15 13.9201 15 14.4802 14.782 14.908C14.5903 15.2843 14.2843 15.5903 13.908 15.782C13.4802 16 12.9201 16 11.8 16H8.2C7.07989 16 6.51984 16 6.09202 15.782C5.71569 15.5903 5.40973 15.2843 5.21799 14.908C5 14.4802 5 13.9201 5 12.8V7.2Z" fill="#2359FB" fill-opacity="0.16" stroke="#2359FB" stroke-width="1.5"/>
<path d="M10 4V7.4C10 7.96005 10 8.24008 10.109 8.45399C10.2049 8.64215 10.3578 8.79513 10.546 8.89101C10.7599 9 11.0399 9 11.6 9H15" stroke="#2359FB" stroke-width="1.5"/>
</svg>
