<svg width="20" height="20" viewBox="0 0 20 20" fill="none" xmlns="http://www.w3.org/2000/svg">
<path d="M17.5 11V9L15.323 8.637C15.192 8.125 14.991 7.643 14.728 7.2L16.011 5.404L14.596 3.99L12.8 5.272C12.357 5.009 11.875 4.808 11.363 4.677L11 2.5H9L8.637 4.677C8.125 4.808 7.643 5.009 7.2 5.272L5.404 3.99L3.99 5.404L5.272 7.2C5.009 7.643 4.808 8.125 4.677 8.637L2.5 9V11L4.677 11.363C4.808 11.875 5.009 12.357 5.272 12.8L3.99 14.596L5.404 16.01L7.2 14.728C7.643 14.991 8.125 15.192 8.637 15.323L9 17.5H11L11.363 15.323C11.875 15.192 12.357 14.991 12.8 14.728L14.596 16.011L16.01 14.597L14.728 12.8C14.991 12.357 15.192 11.875 15.323 11.363L17.5 11Z" fill="#2359FB" fill-opacity="0.16" stroke="#2359FB" stroke-width="1.5" stroke-linecap="round" stroke-linejoin="round"/>
<path d="M10 12.5C11.3807 12.5 12.5 11.3807 12.5 10C12.5 8.61929 11.3807 7.5 10 7.5C8.61929 7.5 7.5 8.61929 7.5 10C7.5 11.3807 8.61929 12.5 10 12.5Z" stroke="#2359FB" stroke-width="1.5" stroke-linecap="round" stroke-linejoin="round"/>
</svg>
