<svg width="20" height="20" viewBox="0 0 20 20" fill="none" xmlns="http://www.w3.org/2000/svg">
<path d="M10.9882 3.75H13.8C14.3724 3.75 14.7566 3.75058 15.0525 3.77476C15.3396 3.79822 15.4769 3.8401 15.5675 3.88624C15.8027 4.00608 15.9939 4.19731 16.1138 4.43251C16.1599 4.52307 16.2018 4.66035 16.2252 4.94748C16.2494 5.24336 16.25 5.62757 16.25 6.2V9.01178C16.25 9.78125 16.2452 10.0437 16.1878 10.2826C16.1327 10.5122 16.0418 10.7317 15.9184 10.933C15.7901 11.1424 15.6079 11.3315 15.0638 11.8756L11.8638 15.0756C11.261 15.6783 10.8404 16.0981 10.4865 16.3985C10.1394 16.6932 9.90612 16.8287 9.69529 16.8972C9.24339 17.0441 8.75661 17.0441 8.30471 16.8972C8.09388 16.8287 7.86061 16.6932 7.51345 16.3985C7.15959 16.0981 6.73899 15.6783 6.13622 15.0756L4.92444 13.8638C4.32167 13.261 3.90189 12.8404 3.60149 12.4865C3.30677 12.1394 3.17127 11.9061 3.10276 11.6953C2.95593 11.2434 2.95593 10.7566 3.10276 10.3047C3.17127 10.0939 3.30677 9.86061 3.60149 9.51345C3.90189 9.15959 4.32167 8.73899 4.92444 8.13622L8.12444 4.93622C8.66854 4.39212 8.85756 4.20992 9.06702 4.08156C9.26833 3.9582 9.48781 3.86729 9.71739 3.81217C9.95626 3.75482 10.2188 3.75 10.9882 3.75Z" fill="#2359FB" fill-opacity="0.16" stroke="#2359FB" stroke-width="1.5"/>
<circle cx="12.5" cy="7.5" r="1.5" fill="#2359FB"/>
</svg>
