<svg width="20" height="20" viewBox="0 0 20 20" fill="none" xmlns="http://www.w3.org/2000/svg">
<path d="M14.7493 3.89162L12.3731 6.37256L14.2493 8.24696L16.6209 5.77254C16.97 6.51129 17.0817 7.34002 16.9407 8.14484C16.7997 8.94966 16.413 9.69107 15.8336 10.2672C15.2542 10.8433 14.5106 11.2259 13.705 11.3623C12.8994 11.4987 12.0713 11.3823 11.3346 11.0291L5.74951 16.6141C5.50267 16.861 5.16789 16.9996 4.81882 16.9996C4.46974 16.9996 4.13496 16.861 3.88813 16.6141C3.64129 16.3673 3.50262 16.0325 3.50262 15.6834C3.50262 15.3344 3.64129 14.9996 3.88813 14.7528L9.47226 9.16863C9.11803 8.4301 9.00181 7.59981 9.13965 6.79241C9.27749 5.985 9.66258 5.2403 10.2418 4.66112C10.8209 4.08193 11.5656 3.69684 12.3731 3.559C13.1805 3.42117 14.0107 3.53739 14.7493 3.89162Z" fill="black" fill-opacity="0.08" stroke="#5E656E" stroke-width="1.5"/>
</svg>
