<svg width="20" height="20" viewBox="0 0 20 20" fill="none" xmlns="http://www.w3.org/2000/svg">
  <rect x="4" y="4.00003" width="12" height="12" rx="2" fill="black" fill-opacity="0.08" stroke="#717A84" stroke-width="1.5"/>
  <path d="M11.0863 9.31685L9.37883 10.807C9.07187 11.0749 8.91839 11.2089 8.74436 11.2726C8.57368 11.3351 8.38918 11.3499 8.21071 11.3154C8.02875 11.2802 7.85588 11.1725 7.51013 10.957C7.12573 10.7173 6.93353 10.5975 6.73415 10.5656C6.53878 10.5342 6.33851 10.5616 6.15868 10.6441C5.97517 10.7284 5.82213 10.8953 5.51604 11.2292L4.34293 12.509L4.34293 12.509C4.26405 12.595 4.22462 12.6381 4.19133 12.6838C4.08961 12.8237 4.02589 12.9875 4.00638 13.1593C4 13.2155 4 13.2739 4 13.3906C4 13.9572 4 14.2404 4.05699 14.474C4.234 15.1995 4.80045 15.766 5.52595 15.943C5.75955 16 6.04283 16 6.60938 16H12.8C13.9201 16 14.4802 16 14.908 15.782C15.2843 15.5903 15.5903 15.2843 15.782 14.908C16 14.4801 16 13.9201 16 12.8V12.0027C16 11.6865 16 11.5285 15.9561 11.3853C15.9173 11.2585 15.8536 11.1407 15.7688 11.0388C15.673 10.9236 15.5407 10.837 15.2763 10.6639L13.0147 9.1836L13.0146 9.1836C12.6511 8.94562 12.4693 8.82663 12.2758 8.78933C12.105 8.75641 11.9286 8.7686 11.764 8.8247C11.5774 8.88826 11.4137 9.03112 11.0863 9.31685Z" fill="black" fill-opacity="0.08" stroke="#717A84" stroke-width="1.5"/>
</svg>
