<svg width="20" height="20" viewBox="0 0 20 20" fill="none" xmlns="http://www.w3.org/2000/svg">
<path d="M6.68994 15.2412C6.68994 15.2412 6.68994 17.9998 10.0002 17.9998C13.3105 17.9998 13.3105 15.2412 13.3105 15.2412" stroke="#5E656E" stroke-width="1.5" stroke-linecap="round" stroke-linejoin="round"/>
<path d="M15.7931 8.5V9.33087C15.7931 9.41842 15.7931 9.46219 15.7981 9.50534C15.8026 9.54368 15.81 9.58161 15.8203 9.6188C15.8319 9.66067 15.8483 9.70123 15.8813 9.78235L17.3294 13.3485C17.5539 13.9014 17.6661 14.1778 17.6208 14.3999C17.5812 14.5941 17.4664 14.7647 17.3013 14.8745C17.1126 15 16.8143 15 16.2176 15H3.78244C3.18573 15 2.88737 15 2.69866 14.8745C2.53364 14.7647 2.41877 14.5941 2.37916 14.3999C2.33386 14.1778 2.44611 13.9014 2.67061 13.3485L4.11873 9.78235C4.15167 9.70123 4.16813 9.66067 4.17972 9.6188C4.19002 9.58161 4.19742 9.54368 4.20188 9.50534C4.2069 9.46219 4.2069 9.41842 4.2069 9.33087V7.47826C4.2069 6.02534 4.81724 4.63192 5.90366 3.60455C6.99007 2.57717 8.46357 2 10 2H11" stroke="#5E656E" stroke-width="1.5" stroke-linecap="round" stroke-linejoin="round"/>
<rect x="12" y="1" width="6" height="6" rx="3" fill="#EB7E1E"/>
</svg>
