<svg width="20" height="20" viewBox="0 0 20 20" fill="none" xmlns="http://www.w3.org/2000/svg">
  <path fill-rule="evenodd" clip-rule="evenodd" d="M10.0001 3C8.56413 3 7.40007 4.16406 7.40007 5.6C7.40007 7.03594 8.56413 8.2 10.0001 8.2C11.436 8.2 12.6001 7.03594 12.6001 5.6C12.6001 4.16406 11.436 3 10.0001 3ZM8.26672 11.2002C6.35213 11.2002 4.80005 12.7523 4.80005 14.6669C4.79991 15.3481 5.35211 15.9004 6.03333 15.9004H13.9665C14.6478 15.9004 15.2 15.3481 15.2 14.6669C15.2 12.7523 13.648 11.2002 11.7334 11.2002H8.26672Z" fill="black" fill-opacity="0.08"/>
  <path d="M8.15007 5.6C8.15007 4.57827 8.97835 3.75 10.0001 3.75V2.25C8.14992 2.25 6.65007 3.74985 6.65007 5.6H8.15007ZM10.0001 7.45C8.97835 7.45 8.15007 6.62173 8.15007 5.6H6.65007C6.65007 7.45015 8.14992 8.95 10.0001 8.95V7.45ZM11.8501 5.6C11.8501 6.62173 11.0218 7.45 10.0001 7.45V8.95C11.8502 8.95 13.3501 7.45015 13.3501 5.6H11.8501ZM10.0001 3.75C11.0218 3.75 11.8501 4.57827 11.8501 5.6H13.3501C13.3501 3.74985 11.8502 2.25 10.0001 2.25V3.75ZM5.55005 14.6669C5.55005 13.1665 6.76634 11.9502 8.26672 11.9502V10.4502C5.93791 10.4502 4.05005 12.3381 4.05005 14.6669H5.55005ZM13.9665 15.1504H6.03333V16.6504H13.9665V15.1504ZM11.7334 11.9502C13.2338 11.9502 14.45 13.1665 14.45 14.6669H15.95C15.95 12.3381 14.0622 10.4502 11.7334 10.4502V11.9502ZM8.26672 11.9502H11.7334V10.4502H8.26672V11.9502ZM13.9665 16.6504C15.062 16.6504 15.95 15.7623 15.95 14.6669H14.45C14.45 14.9339 14.2336 15.1504 13.9665 15.1504V16.6504ZM4.05005 14.6667C4.04983 15.7622 4.93784 16.6504 6.03333 16.6504V15.1504C5.76639 15.1504 5.55 14.934 5.55005 14.667L4.05005 14.6667Z" fill="#717A84"/>
</svg>
