<svg width="20" height="20" viewBox="0 0 20 20" fill="none" xmlns="http://www.w3.org/2000/svg">
<path fill-rule="evenodd" clip-rule="evenodd" d="M12.873 11.8048L12.873 11.8048H15.0818L15.0818 11.8048H12.873ZM16.0026 13.3048H12.6202V14.9714H11.1202V13.3048H8.62024V14.9714H7.12024V13.3048H4.00165C3.20841 13.3048 2.73095 12.4254 3.16296 11.7602L4.75742 9.30478H4.28571L3.41802 9.56869C2.57571 9.82488 2 10.6017 2 11.4821V15C2 16.1046 2.89543 17 4 17H16C17.1046 17 18 16.1046 18 15V11.4581C18 10.5892 17.439 9.81974 16.6118 9.55395L15.8364 9.30478H15.2469L16.8413 11.7602C17.2733 12.4254 16.7959 13.3048 16.0026 13.3048Z" fill="#717A84" fill-opacity="0.16"/>
<mask id="path-2-inside-1_491_308" fill="white">
<path fill-rule="evenodd" clip-rule="evenodd" d="M8.81176 2.4101C8.41229 1.8633 7.59626 1.8633 7.1968 2.4101L3.32142 7.71489C2.83873 8.37562 3.31063 9.30479 4.1289 9.30479H4.75742L3.16296 11.7602C2.73095 12.4254 3.20841 13.3048 4.00165 13.3048H12.0069C12.8002 13.3048 13.2776 12.4255 12.8456 11.7602L11.2511 9.30479H11.8797C12.6979 9.30479 13.1698 8.37562 12.6871 7.71489L8.81176 2.4101Z"/>
</mask>
<path fill-rule="evenodd" clip-rule="evenodd" d="M8.81176 2.4101C8.41229 1.8633 7.59626 1.8633 7.1968 2.4101L3.32142 7.71489C2.83873 8.37562 3.31063 9.30479 4.1289 9.30479H4.75742L3.16296 11.7602C2.73095 12.4254 3.20841 13.3048 4.00165 13.3048H12.0069C12.8002 13.3048 13.2776 12.4255 12.8456 11.7602L11.2511 9.30479H11.8797C12.6979 9.30479 13.1698 8.37562 12.6871 7.71489L8.81176 2.4101Z" fill="#717A84" fill-opacity="0.16"/>
<path d="M7.1968 2.4101L8.40802 3.29495L8.40802 3.29495L7.1968 2.4101ZM8.81176 2.4101L7.60054 3.29495L7.60054 3.29495L8.81176 2.4101ZM3.32142 7.71489L2.1102 6.83005L2.1102 6.83005L3.32142 7.71489ZM4.75742 9.30479L6.01545 10.1217L7.51999 7.80479H4.75742V9.30479ZM3.16296 11.7602L1.90494 10.9432L1.90494 10.9432L3.16296 11.7602ZM12.8456 11.7602L11.5876 12.5771L11.5876 12.5771L12.8456 11.7602ZM11.2511 9.30479V7.80479H8.48857L9.99311 10.1217L11.2511 9.30479ZM12.6871 7.71489L13.8984 6.83004L12.6871 7.71489ZM8.40802 3.29495C8.20829 3.56835 7.80028 3.56835 7.60054 3.29495L10.023 1.52526C9.02431 0.158244 6.98424 0.158252 5.98558 1.52526L8.40802 3.29495ZM4.53264 8.59974L8.40802 3.29495L5.98558 1.52526L2.1102 6.83005L4.53264 8.59974ZM4.1289 7.80479C4.53803 7.80479 4.77399 8.26937 4.53264 8.59974L2.1102 6.83005C0.90347 8.48188 2.08324 10.8048 4.1289 10.8048V7.80479ZM4.75742 7.80479H4.1289V10.8048H4.75742V7.80479ZM4.42099 12.5771L6.01545 10.1217L3.49939 8.48786L1.90494 10.9432L4.42099 12.5771ZM4.00165 11.8048C4.39827 11.8048 4.637 12.2445 4.42099 12.5771L1.90494 10.9432C0.824907 12.6064 2.01855 14.8048 4.00165 14.8048V11.8048ZM12.0069 11.8048H4.00165V14.8048H12.0069V11.8048ZM11.5876 12.5771C11.3716 12.2445 11.6103 11.8048 12.0069 11.8048V14.8048C13.99 14.8048 15.1837 12.6064 14.1036 10.9432L11.5876 12.5771ZM9.99311 10.1217L11.5876 12.5771L14.1036 10.9432L12.5092 8.48786L9.99311 10.1217ZM11.8797 7.80479H11.2511V10.8048H11.8797V7.80479ZM11.4759 8.59974C11.2346 8.26938 11.4705 7.80479 11.8797 7.80479V10.8048C13.9253 10.8048 15.1051 8.48187 13.8984 6.83004L11.4759 8.59974ZM7.60054 3.29495L11.4759 8.59974L13.8984 6.83004L10.023 1.52525L7.60054 3.29495Z" fill="#5E656E" mask="url(#path-2-inside-1_491_308)"/>
<path fill-rule="evenodd" clip-rule="evenodd" d="M12.0026 13.3048H16.0026C16.7959 13.3048 17.2733 12.4255 16.8413 11.7602L15.2469 9.30479H15.8754C16.2527 9.30479 16.5564 9.10723 16.7267 8.82952C16.9259 8.50497 16.943 8.07095 16.6829 7.71489L12.8075 2.4101C12.408 1.8633 11.592 1.8633 11.1925 2.4101L9.99999 4.04248L10.9288 5.31388L12 3.8476L14.8909 7.80479H12.7418C12.8534 7.99572 12.8923 8.20349 12.872 8.40185L15.0818 11.8048H12.8687C13.252 12.4641 12.7783 13.3048 12.0026 13.3048Z" fill="#5E656E"/>
<path fill-rule="evenodd" clip-rule="evenodd" d="M12.8688 11.8048H15.0818L12.872 8.40184C12.8229 8.88072 12.4282 9.30478 11.8754 9.30478H11.2469L12.8413 11.7602C12.8509 11.7749 12.8601 11.7898 12.8688 11.8048ZM12.7418 7.80478C12.724 7.77435 12.7044 7.74435 12.6829 7.71488L10.9288 5.31388L12 3.8476L14.8909 7.80478H12.7418Z" fill="#717A84" fill-opacity="0.16"/>
<path d="M7.87024 12.4714V14.9714" stroke="#5E656E" stroke-width="1.5"/>
<path d="M11.8702 12.4714V14.9714" stroke="#5E656E" stroke-width="1.5"/>
</svg>
