<svg width="12" height="12" viewBox="0 0 12 12" fill="none" xmlns="http://www.w3.org/2000/svg">
<g opacity="0.4">
<rect x="2" y="3.99997" width="8" height="6" rx="1.5" stroke="#5E656E" stroke-width="1.5" stroke-linecap="round" stroke-linejoin="round"/>
<path fill-rule="evenodd" clip-rule="evenodd" d="M2.10899 2.54598C2 2.75989 2 3.03992 2 3.59997V5.39997C2 5.56532 2 5.70625 2.0028 5.82829C2.01088 5.34982 2.04217 5.0571 2.16349 4.81898C2.3073 4.53674 2.53677 4.30727 2.81901 4.16346C3.13988 3.99997 3.55992 3.99997 4.4 3.99997H7.38462L6.76078 2.84141L6.76077 2.84141C6.596 2.5354 6.51362 2.3824 6.39481 2.27088C6.28972 2.17222 6.16455 2.09746 6.02786 2.0517C5.87335 1.99997 5.69957 1.99997 5.35202 1.99997H3.6C3.03995 1.99997 2.75992 1.99997 2.54601 2.10896C2.35785 2.20484 2.20487 2.35782 2.10899 2.54598Z" fill="#5E656E"/>
<path d="M2.10899 2.54598L1.44074 2.20549L1.44074 2.20549L2.10899 2.54598ZM2.0028 5.82829L1.253 5.84552C1.26239 6.25381 1.59671 6.57953 2.0051 6.57829C2.41349 6.57704 2.74581 6.24927 2.7527 5.84094L2.0028 5.82829ZM2.16349 4.81898L2.83175 5.15948L2.83175 5.15948L2.16349 4.81898ZM2.81901 4.16346L3.15951 4.83171H3.15951L2.81901 4.16346ZM7.38462 3.99997V4.74997C7.6486 4.74997 7.89314 4.61119 8.0285 4.38456C8.16387 4.15793 8.17012 3.87682 8.04497 3.64439L7.38462 3.99997ZM6.76078 2.84141L6.06605 3.12401C6.07619 3.14893 6.08767 3.17329 6.10042 3.19698L6.76078 2.84141ZM6.76077 2.84141L7.4555 2.55881C7.44536 2.53388 7.43388 2.50952 7.42113 2.48583L6.76077 2.84141ZM6.39481 2.27088L5.8815 2.8177L5.8815 2.8177L6.39481 2.27088ZM6.02786 2.0517L5.78976 2.7629L5.78976 2.7629L6.02786 2.0517ZM2.54601 2.10896L2.20552 1.44071L2.20552 1.44071L2.54601 2.10896ZM2.75 3.59997C2.75 3.30757 2.75058 3.13337 2.76113 3.00425C2.77097 2.88387 2.7856 2.87008 2.77725 2.88647L1.44074 2.20549C1.32339 2.43579 1.28353 2.66896 1.26612 2.8821C1.24942 3.08647 1.25 3.33232 1.25 3.59997H2.75ZM2.75 5.39997V3.59997H1.25V5.39997H2.75ZM2.75261 5.81106C2.75004 5.69945 2.75 5.56801 2.75 5.39997H1.25C1.25 5.56262 1.24996 5.71306 1.253 5.84552L2.75261 5.81106ZM2.7527 5.84094C2.76089 5.35532 2.79804 5.22562 2.83175 5.15948L1.49524 4.47849C1.28629 4.88857 1.26086 5.34432 1.25291 5.81564L2.7527 5.84094ZM2.83175 5.15948C2.90365 5.01836 3.01839 4.90362 3.15951 4.83171L2.47852 3.4952C2.05516 3.71092 1.71095 4.05513 1.49524 4.47849L2.83175 5.15948ZM3.15951 4.83171C3.19659 4.81282 3.27213 4.78456 3.47588 4.76792C3.68838 4.75055 3.96758 4.74997 4.4 4.74997V3.24997C3.99234 3.24997 3.64148 3.24939 3.35373 3.2729C3.05722 3.29712 2.76231 3.35061 2.47852 3.4952L3.15951 4.83171ZM4.4 4.74997H7.38462V3.24997H4.4V4.74997ZM6.10042 3.19698L6.72426 4.35554L8.04497 3.64439L7.42113 2.48583L6.10042 3.19698ZM6.06605 3.124L6.06605 3.12401L7.4555 2.55881L7.4555 2.55881L6.06605 3.124ZM5.8815 2.8177C5.87577 2.81232 5.88636 2.81909 5.92303 2.87826C5.96429 2.94485 6.01384 3.03619 6.10042 3.19698L7.42113 2.48583C7.28122 2.226 7.13724 1.93913 6.90812 1.72405L5.8815 2.8177ZM5.78976 2.7629C5.82394 2.77434 5.85523 2.79303 5.8815 2.8177L6.90812 1.72405C6.72421 1.55142 6.50516 1.42058 6.26596 1.3405L5.78976 2.7629ZM5.35202 2.74997C5.53464 2.74997 5.63856 2.75029 5.71675 2.75505C5.78623 2.75928 5.79722 2.7654 5.78976 2.7629L6.26596 1.3405C5.96797 1.24073 5.64713 1.24997 5.35202 1.24997V2.74997ZM3.6 2.74997H5.35202V1.24997H3.6V2.74997ZM2.8865 2.77722C2.87011 2.78557 2.8839 2.77094 3.00428 2.7611C3.1334 2.75055 3.3076 2.74997 3.6 2.74997V1.24997C3.33235 1.24997 3.08651 1.24939 2.88213 1.26608C2.669 1.2835 2.43582 1.32336 2.20552 1.44071L2.8865 2.77722ZM2.77725 2.88647C2.80122 2.83943 2.83946 2.80119 2.8865 2.77722L2.20552 1.44071C1.87623 1.60849 1.60852 1.8762 1.44074 2.20549L2.77725 2.88647Z" fill="#5E656E"/>
</g>
</svg>
