<svg width="12" height="12" viewBox="0 0 12 12" fill="none" xmlns="http://www.w3.org/2000/svg">
<g opacity="0.4">
<rect x="2.3999" y="2.40002" width="7.2" height="7.2" rx="1.2" stroke="#717A84" stroke-width="1.5"/>
<path d="M6.65171 5.59006L5.6272 6.48417C5.44302 6.64491 5.35094 6.72528 5.24652 6.76352C5.14411 6.80102 5.03341 6.8099 4.92633 6.7892C4.81715 6.7681 4.71343 6.70344 4.50598 6.57412C4.27534 6.43035 4.16002 6.35846 4.04039 6.33928C3.92317 6.32049 3.80301 6.3369 3.69511 6.38643C3.585 6.43698 3.49318 6.53715 3.30953 6.7375L2.60566 7.50535C2.55834 7.55698 2.53467 7.58279 2.5147 7.61025C2.45367 7.69415 2.41543 7.79244 2.40373 7.89553C2.3999 7.92926 2.3999 7.96428 2.3999 8.03432C2.3999 8.37425 2.3999 8.54422 2.4341 8.68438C2.5403 9.11968 2.88017 9.45955 3.31547 9.56575C3.45563 9.59995 3.6256 9.59995 3.96553 9.59995H7.6799C8.35197 9.59995 8.688 9.59995 8.94469 9.46915C9.17049 9.35411 9.35406 9.17053 9.46911 8.94473C9.5999 8.68804 9.5999 8.35201 9.5999 7.67995V7.20154C9.5999 7.01188 9.5999 6.91704 9.57357 6.83111C9.55026 6.75505 9.51205 6.68437 9.46117 6.62321C9.4037 6.55412 9.32435 6.50218 9.16566 6.39831L7.80869 5.51011C7.59054 5.36733 7.48147 5.29593 7.36537 5.27355C7.2629 5.2538 7.15706 5.26111 7.05828 5.29477C6.94636 5.33291 6.84814 5.41862 6.65171 5.59006Z" stroke="#717A84" stroke-width="1.5"/>
</g>
</svg>
