<svg width="20" height="20" viewBox="0 0 20 20" fill="none" xmlns="http://www.w3.org/2000/svg">
  <path d="M4.70211 7.11301C4.6516 6.79439 4.62634 6.63509 4.67319 6.51106C4.71431 6.4022 4.79211 6.3111 4.89318 6.25344C5.00835 6.18774 5.16965 6.18774 5.49224 6.18774H14.5075C14.8301 6.18774 14.9914 6.18774 15.1065 6.25344C15.2076 6.3111 15.2854 6.4022 15.3265 6.51106C15.3734 6.63509 15.3481 6.79439 15.2976 7.11301L13.9957 15.325C13.9577 15.5645 13.9388 15.6843 13.8797 15.7743C13.8276 15.8536 13.754 15.9164 13.6675 15.9554C13.5694 15.9997 13.4481 15.9997 13.2056 15.9997H6.79414C6.55159 15.9997 6.43032 15.9997 6.33221 15.9554C6.24575 15.9164 6.17217 15.8536 6.12008 15.7743C6.06097 15.6843 6.04198 15.5645 6.00401 15.325L4.70211 7.11301Z" fill="#DC1818" fill-opacity="0.24" stroke="#DC1818" stroke-width="1.5"/>
  <path d="M3 6.18774H17" stroke="#DC1818" stroke-width="1.5" stroke-linecap="round"/>
  <path d="M6.59009 6.18802V5.4769C6.59009 4.63683 6.59009 4.21679 6.75358 3.89592C6.89739 3.61368 7.12686 3.3842 7.4091 3.24039C7.72997 3.0769 8.15001 3.0769 8.99009 3.0769H11.0106C11.8507 3.0769 12.2707 3.0769 12.5916 3.24039C12.8738 3.3842 13.1033 3.61368 13.2471 3.89592C13.4106 4.21679 13.4106 4.63683 13.4106 5.4769V6.18802" stroke="#DC1818" stroke-width="1.5"/>
</svg>
