<svg width="12" height="12" viewBox="0 0 12 12" fill="none" xmlns="http://www.w3.org/2000/svg">
  <g clip-path="url(#clip0_2380_252819)">
    <path d="M0 6C0 2.68629 2.68629 0 6 0C9.31371 0 12 2.68629 12 6C12 9.31371 9.31371 12 6 12C2.68629 12 0 9.31371 0 6Z" fill="white"/>
    <path d="M6.95089 8.76476C6.6273 9.18511 6.46551 9.39529 6.26834 9.47083C6.09557 9.53703 5.90443 9.53703 5.73166 9.47083C5.53449 9.39529 5.3727 9.18511 5.04911 8.76476L2.2911 5.18199C1.81344 4.5615 1.57461 4.25125 1.57774 3.991C1.58046 3.76457 1.68533 3.5515 1.86309 3.41123C2.06741 3.25 2.45894 3.25 3.24198 3.25L8.75802 3.25C9.54107 3.25 9.93259 3.25 10.1369 3.41123C10.3147 3.5515 10.4195 3.76457 10.4223 3.991C10.4254 4.25125 10.1866 4.5615 9.7089 5.18199L6.95089 8.76476Z" fill="#BDC1C7"/>
  </g>
  <defs>
    <clipPath id="clip0_2380_252819">
      <path d="M0 6C0 2.68629 2.68629 0 6 0C9.31371 0 12 2.68629 12 6C12 9.31371 9.31371 12 6 12C2.68629 12 0 9.31371 0 6Z" fill="white"/>
    </clipPath>
  </defs>
</svg>
