<svg width="20" height="20" viewBox="0 0 20 20" fill="none" xmlns="http://www.w3.org/2000/svg">
  <path d="M14.9813 8.65673C14.69 8.57194 14.5 8.30337 14.5 8V8C14.5 5.515 12.485 3.5 10 3.5C8.03855 3.5 6.38614 4.75895 5.77453 6.51058C5.60042 7.00921 5.51337 7.25852 5.4581 7.34917C5.37131 7.49154 5.40247 7.45368 5.27948 7.56626C5.20116 7.63795 4.96014 7.77907 4.4781 8.06131C3.29588 8.75353 2.5 10.0307 2.5 11.5C2.5 13.709 4.291 15.5 6.5 15.5H14C15.933 15.5 17.5 13.933 17.5 12C17.5 10.409 16.4347 9.07982 14.9813 8.65673Z" stroke="#717A84" stroke-width="1.5" stroke-linecap="round" stroke-linejoin="round"/>
  <path d="M7.65625 9.50008L10 7.19238L12.3438 9.50008" stroke="#717A84" stroke-width="1.5" stroke-linecap="round" stroke-linejoin="round"/>
  <path d="M10 7.19238V12.7308" stroke="#717A84" stroke-width="1.5" stroke-linecap="round" stroke-linejoin="round"/>
</svg>
