<svg width="20" height="20" viewBox="0 0 20 20" fill="none" xmlns="http://www.w3.org/2000/svg">
  <path d="M3.75 13.6665C3.75 13.0941 3.75058 12.7099 3.77476 12.414C3.79822 12.1269 3.8401 11.9896 3.88624 11.8991C4.00608 11.6639 4.19731 11.4726 4.43251 11.3528C4.52307 11.3067 4.66035 11.2648 4.94748 11.2413C5.24336 11.2171 5.62757 11.2166 6.2 11.2166H8.78333V13.7999C8.78333 14.3723 8.78275 14.7565 8.75858 15.0524C8.73512 15.3395 8.69323 15.4768 8.64709 15.5674C8.52725 15.8026 8.33602 15.9938 8.10082 16.1136C8.01026 16.1598 7.87298 16.2017 7.58586 16.2251C7.28998 16.2493 6.90576 16.2499 6.33333 16.2499H6.2C5.62757 16.2499 5.24336 16.2493 4.94748 16.2251C4.66035 16.2017 4.52307 16.1598 4.43251 16.1136C4.19731 15.9938 4.00608 15.8026 3.88624 15.5674C3.8401 15.4768 3.79822 15.3395 3.77476 15.0524C3.75058 14.7565 3.75 14.3723 3.75 13.7999V13.6665Z" fill="black" fill-opacity="0.08" stroke="#717A84" stroke-width="1.5"/>
  <path d="M11.2168 11.2166H13.8001C14.3725 11.2166 14.7567 11.2171 15.0526 11.2413C15.3397 11.2648 15.477 11.3067 15.5676 11.3528C15.8028 11.4726 15.994 11.6639 16.1139 11.8991C16.16 11.9896 16.2019 12.1269 16.2253 12.414C16.2495 12.7099 16.2501 13.0941 16.2501 13.6666V13.7999C16.2501 14.3723 16.2495 14.7565 16.2253 15.0524C16.2019 15.3395 16.16 15.4768 16.1139 15.5674C15.994 15.8026 15.8028 15.9938 15.5676 16.1136C15.477 16.1598 15.3397 16.2017 15.0526 16.2251C14.7567 16.2493 14.3725 16.2499 13.8001 16.2499H13.6668C13.0943 16.2499 12.7101 16.2493 12.4142 16.2251C12.1271 16.2017 11.9898 16.1598 11.8993 16.1136C11.6641 15.9938 11.4728 15.8026 11.353 15.5674C11.3069 15.4768 11.265 15.3395 11.2415 15.0524C11.2173 14.7565 11.2168 14.3723 11.2168 13.7999V11.2166Z" fill="black" fill-opacity="0.08" stroke="#717A84" stroke-width="1.5"/>
  <path d="M3.75 6.2C3.75 5.62757 3.75058 5.24336 3.77476 4.94748C3.79822 4.66035 3.8401 4.52307 3.88624 4.43251C4.00608 4.19731 4.19731 4.00608 4.43251 3.88624C4.52307 3.8401 4.66035 3.79822 4.94748 3.77476C5.24336 3.75058 5.62757 3.75 6.2 3.75H6.33334C6.90576 3.75 7.28998 3.75058 7.58586 3.77476C7.87298 3.79822 8.01026 3.8401 8.10082 3.88624C8.33602 4.00608 8.52725 4.19731 8.64709 4.43251C8.69323 4.52307 8.73512 4.66035 8.75858 4.94748C8.78275 5.24336 8.78333 5.62757 8.78333 6.2V8.78333H6.2C5.62757 8.78333 5.24336 8.78275 4.94748 8.75858C4.66035 8.73512 4.52307 8.69323 4.43251 8.64709C4.19731 8.52725 4.00608 8.33602 3.88624 8.10082C3.8401 8.01026 3.79822 7.87298 3.77476 7.58586C3.75058 7.28998 3.75 6.90576 3.75 6.33333V6.2Z" fill="black" fill-opacity="0.08" stroke="#717A84" stroke-width="1.5"/>
  <path d="M11.2168 6.2C11.2168 5.62757 11.2173 5.24336 11.2415 4.94748C11.265 4.66035 11.3069 4.52307 11.353 4.43251C11.4728 4.19731 11.6641 4.00608 11.8993 3.88624C11.9898 3.8401 12.1271 3.79822 12.4142 3.77476C12.7101 3.75058 13.0943 3.75 13.6668 3.75H13.8001C14.3725 3.75 14.7567 3.75058 15.0526 3.77476C15.3397 3.79822 15.477 3.8401 15.5676 3.88624C15.8028 4.00608 15.994 4.19731 16.1139 4.43251C16.16 4.52307 16.2019 4.66035 16.2253 4.94748C16.2495 5.24336 16.2501 5.62757 16.2501 6.2V6.33334C16.2501 6.90576 16.2495 7.28998 16.2253 7.58586C16.2019 7.87298 16.16 8.01026 16.1139 8.10082C15.994 8.33602 15.8028 8.52725 15.5676 8.64709C15.477 8.69323 15.3397 8.73512 15.0526 8.75858C14.7567 8.78275 14.3725 8.78333 13.8001 8.78333H11.2168V6.2Z" fill="black" fill-opacity="0.08" stroke="#717A84" stroke-width="1.5"/>
</svg>
