<svg width="20" height="20" viewBox="0 0 20 20" fill="none" xmlns="http://www.w3.org/2000/svg">
  <path d="M3.91797 15.5943L4.57575 12.9632C4.61576 12.8032 4.63576 12.7231 4.66793 12.6485C4.69648 12.5823 4.73212 12.5194 4.77422 12.4608C4.82164 12.3948 4.87996 12.3365 4.9966 12.2199L10.8053 6.41113L11.9698 7.57556C12.3658 7.97157 12.5638 8.16958 12.638 8.39791C12.7032 8.59875 12.7032 8.8151 12.638 9.01594C12.5638 9.24427 12.3658 9.44228 11.9698 9.8383L7.2924 14.5157C7.17576 14.6323 7.11744 14.6906 7.05147 14.7381C6.99291 14.7802 6.92996 14.8158 6.86373 14.8444C6.78913 14.8765 6.70911 14.8965 6.54908 14.9365L3.91797 15.5943Z" fill="#8AA1E5" fill-opacity="0.24"/>
  <path d="M3.91797 15.5943L3.19036 15.4124C3.12647 15.668 3.20135 15.9384 3.38764 16.1246C3.57392 16.3109 3.84429 16.3858 4.09987 16.3219L3.91797 15.5943ZM10.8053 6.41113L11.3357 5.8808C11.0428 5.58791 10.5679 5.58791 10.275 5.8808L10.8053 6.41113ZM7.2924 14.5157L7.82273 15.046L7.2924 14.5157ZM7.05147 14.7381L7.48924 15.347L7.05147 14.7381ZM6.54908 14.9365L6.73099 15.6641L6.54908 14.9365ZM6.86373 14.8444L6.56677 14.1556L6.86373 14.8444ZM12.638 8.39791L13.3513 8.16615L12.638 8.39791ZM11.9698 9.8383L11.4394 9.30797L11.9698 9.8383ZM12.638 9.01594L11.9247 8.78418L12.638 9.01594ZM4.66793 12.6485L5.35663 12.9455L4.66793 12.6485ZM4.9966 12.2199L4.46627 11.6895L4.9966 12.2199ZM4.77422 12.4608L5.3832 12.8986L4.77422 12.4608ZM4.64558 15.7762L5.30335 13.1451L3.84814 12.7813L3.19036 15.4124L4.64558 15.7762ZM5.52694 12.7502L11.3357 6.94146L10.275 5.8808L4.46627 11.6895L5.52694 12.7502ZM10.275 6.94146L11.4394 8.10589L12.5001 7.04523L11.3357 5.8808L10.275 6.94146ZM11.4394 9.30797L6.76207 13.9853L7.82273 15.046L12.5001 10.3686L11.4394 9.30797ZM6.36718 14.2089L3.73607 14.8667L4.09987 16.3219L6.73099 15.6641L6.36718 14.2089ZM6.76207 13.9853C6.70055 14.0469 6.6665 14.0808 6.63982 14.1058C6.61674 14.1275 6.61151 14.1306 6.6137 14.1291L7.48924 15.347C7.61604 15.2559 7.72275 15.146 7.82273 15.046L6.76207 13.9853ZM6.73099 15.6641C6.86815 15.6298 7.0173 15.5949 7.16069 15.5331L6.56677 14.1556C6.56924 14.1546 6.56382 14.1574 6.53338 14.1661C6.4982 14.1761 6.45158 14.1878 6.36718 14.2089L6.73099 15.6641ZM6.6137 14.1291C6.59906 14.1396 6.58332 14.1485 6.56677 14.1556L7.16069 15.5331C7.2766 15.4831 7.38676 15.4207 7.48924 15.347L6.6137 14.1291ZM11.4394 8.10589C11.6462 8.31265 11.769 8.43623 11.8528 8.535C11.931 8.62707 11.9304 8.64717 11.9247 8.62967L13.3513 8.16615C13.2714 7.92032 13.1347 7.72725 12.9963 7.56423C12.8636 7.40791 12.6894 7.23448 12.5001 7.04523L11.4394 8.10589ZM12.5001 10.3686C12.6894 10.1794 12.8636 10.0059 12.9963 9.84962C13.1347 9.6866 13.2714 9.49353 13.3513 9.24771L11.9247 8.78418C11.9304 8.76668 11.931 8.78678 11.8528 8.87885C11.769 8.97762 11.6462 9.10121 11.4394 9.30797L12.5001 10.3686ZM11.9247 8.62967C11.941 8.67988 11.941 8.73397 11.9247 8.78418L13.3513 9.24771C13.4655 8.89623 13.4655 8.51762 13.3513 8.16615L11.9247 8.62967ZM5.30335 13.1451C5.32445 13.0607 5.3362 13.0141 5.3462 12.9789C5.35485 12.9485 5.3577 12.943 5.35663 12.9455L3.97922 12.3516C3.91739 12.495 3.88243 12.6441 3.84814 12.7813L5.30335 13.1451ZM4.46627 11.6895C4.3663 11.7895 4.25639 11.8962 4.16524 12.023L5.3832 12.8986C5.38163 12.9008 5.38481 12.8955 5.40647 12.8725C5.43149 12.8458 5.46542 12.8117 5.52694 12.7502L4.46627 11.6895ZM5.35663 12.9455C5.36377 12.929 5.37268 12.9132 5.3832 12.8986L4.16524 12.023C4.09157 12.1255 4.0292 12.2357 3.97922 12.3516L5.35663 12.9455Z" fill="#476BD7"/>
  <path d="M11.9534 7.55859L13.5005 9.10565C13.8965 9.50167 14.0945 9.69967 14.1687 9.928C14.234 10.1288 14.234 10.3452 14.1687 10.546C14.0945 10.7744 13.8965 10.9724 13.5005 11.3684L11.5708 13.2981" stroke="#476BD7" stroke-width="1.5" stroke-linecap="round" stroke-linejoin="round"/>
  <path d="M12.5737 4.87944C13.1705 4.28264 14.1381 4.28264 14.7349 4.87944C15.3317 5.47625 15.3317 6.44386 14.7349 7.04067L14.7227 7.05288L12.5615 4.89165L12.5737 4.87944Z" fill="#476BD7" stroke="#476BD7" stroke-width="1.5" stroke-linecap="round"/>
</svg>
