<svg width="20" height="20" viewBox="0 0 20 20" fill="none" xmlns="http://www.w3.org/2000/svg">
<circle cx="10" cy="10" r="10" fill="#EB5353"/>
<path d="M6.70711 5.29289C6.31658 4.90237 5.68342 4.90237 5.29289 5.29289C4.90237 5.68342 4.90237 6.31658 5.29289 6.70711L6.70711 5.29289ZM13.7929 15.2071C14.1834 15.5976 14.8166 15.5976 15.2071 15.2071C15.5976 14.8166 15.5976 14.1834 15.2071 13.7929L13.7929 15.2071ZM6.70711 5.29289C6.31658 4.90237 5.68342 4.90237 5.29289 5.29289C4.90237 5.68342 4.90237 6.31658 5.29289 6.70711L6.70711 5.29289ZM13.7929 15.2071C14.1834 15.5976 14.8166 15.5976 15.2071 15.2071C15.5976 14.8166 15.5976 14.1834 15.2071 13.7929L13.7929 15.2071ZM5.29289 6.70711L13.7929 15.2071L15.2071 13.7929L6.70711 5.29289L5.29289 6.70711ZM5.29289 6.70711L13.7929 15.2071L15.2071 13.7929L6.70711 5.29289L5.29289 6.70711Z" fill="#F1F5F9"/>
<path d="M15.2071 6.70711C15.5976 6.31658 15.5976 5.68342 15.2071 5.29289C14.8166 4.90237 14.1834 4.90237 13.7929 5.29289L15.2071 6.70711ZM5.29289 13.7929C4.90237 14.1834 4.90237 14.8166 5.29289 15.2071C5.68342 15.5976 6.31658 15.5976 6.70711 15.2071L5.29289 13.7929ZM15.2071 6.70711C15.5976 6.31658 15.5976 5.68342 15.2071 5.29289C14.8166 4.90237 14.1834 4.90237 13.7929 5.29289L15.2071 6.70711ZM5.29289 13.7929C4.90237 14.1834 4.90237 14.8166 5.29289 15.2071C5.68342 15.5976 6.31658 15.5976 6.70711 15.2071L5.29289 13.7929ZM13.7929 5.29289L5.29289 13.7929L6.70711 15.2071L15.2071 6.70711L13.7929 5.29289ZM13.7929 5.29289L5.29289 13.7929L6.70711 15.2071L15.2071 6.70711L13.7929 5.29289Z" fill="#F1F5F9"/>
</svg>
