<svg width="32" height="32" viewBox="0 0 32 32" fill="none" xmlns="http://www.w3.org/2000/svg">
  <path d="M2 16C2 8.26801 8.26801 2 16 2C23.732 2 30 8.26801 30 16C30 23.732 23.732 30 16 30C8.26801 30 2 23.732 2 16Z" fill="#AAAAAA"/>
  <path d="M16 28.5C9.09644 28.5 3.5 22.9036 3.5 16H0.5C0.5 24.5604 7.43959 31.5 16 31.5V28.5ZM28.5 16C28.5 22.9036 22.9036 28.5 16 28.5V31.5C24.5604 31.5 31.5 24.5604 31.5 16H28.5ZM16 3.5C22.9036 3.5 28.5 9.09644 28.5 16H31.5C31.5 7.43959 24.5604 0.5 16 0.5V3.5ZM16 0.5C7.43959 0.5 0.5 7.43959 0.5 16H3.5C3.5 9.09644 9.09644 3.5 16 3.5V0.5Z" fill="#AAAAAA"/>
  <path opacity="0.12" d="M16 19C18.7614 19 21 16.7614 21 14C21 11.2386 18.7614 9 16 9C13.2386 9 11 11.2386 11 14C11 16.7614 13.2386 19 16 19Z" fill="white"/>
  <path d="M18.0229 13.9L18.7727 13.9161C18.7729 13.9054 18.7729 13.8946 18.7727 13.8839L18.0229 13.9ZM13.9784 13.9L13.2286 13.8839C13.2284 13.8946 13.2284 13.9054 13.2286 13.9161L13.9784 13.9ZM9.5 20.85C9.08579 20.85 8.75 21.1858 8.75 21.6C8.75 22.0142 9.08579 22.35 9.5 22.35V20.85ZM22.5 22.35C22.9142 22.35 23.25 22.0142 23.25 21.6C23.25 21.1858 22.9142 20.85 22.5 20.85V22.35ZM20.3056 13.9C20.3056 16.1701 18.4002 18.05 16 18.05V19.55C19.1841 19.55 21.8056 17.0423 21.8056 13.9H20.3056ZM16 18.05C13.5998 18.05 11.6944 16.1701 11.6944 13.9H10.1944C10.1944 17.0423 12.8159 19.55 16 19.55V18.05ZM11.6944 13.9C11.6944 11.6299 13.5998 9.75 16 9.75V8.25C12.8159 8.25 10.1944 10.7577 10.1944 13.9H11.6944ZM16 9.75C18.4002 9.75 20.3056 11.6299 20.3056 13.9H21.8056C21.8056 10.7577 19.1841 8.25 16 8.25V9.75ZM10.9444 14.65H21.0556V13.15H10.9444V14.65ZM15.4542 9.51438C16.5936 10.7234 17.2381 12.288 17.2731 13.9161L18.7727 13.8839C18.7296 11.8782 17.9355 9.96021 16.5458 8.48562L15.4542 9.51438ZM17.2731 13.8839C17.2381 15.512 16.5936 17.0766 15.4542 18.2856L16.5458 19.3144C17.9355 17.8398 18.7296 15.9218 18.7727 13.9161L17.2731 13.8839ZM16.5458 18.2856C15.4067 17.0769 14.7633 15.5124 14.7283 13.8839L13.2286 13.9161C13.2717 15.9214 14.0642 17.8395 15.4542 19.3144L16.5458 18.2856ZM14.7283 13.9161C14.7633 12.2876 15.4067 10.7231 16.5458 9.51438L15.4542 8.48562C14.0642 9.96048 13.2717 11.8786 13.2286 13.8839L14.7283 13.9161ZM16.6944 21.6C16.6944 21.9371 16.4058 22.25 16 22.25V23.75C17.1897 23.75 18.1944 22.8093 18.1944 21.6H16.6944ZM16 22.25C15.5942 22.25 15.3056 21.9371 15.3056 21.6H13.8056C13.8056 22.8093 14.8103 23.75 16 23.75V22.25ZM15.3056 21.6C15.3056 21.2629 15.5942 20.95 16 20.95V19.45C14.8103 19.45 13.8056 20.3907 13.8056 21.6H15.3056ZM16 20.95C16.4058 20.95 16.6944 21.2629 16.6944 21.6H18.1944C18.1944 20.3907 17.1897 19.45 16 19.45V20.95ZM14.5556 20.85H9.5V22.35H14.5556V20.85ZM22.5 20.85H17.4444V22.35H22.5V20.85ZM15.25 18.8V20.2H16.75V18.8H15.25Z" fill="white"/>
</svg>
