<svg width="37" height="51" viewBox="0 0 37 51" fill="none" xmlns="http://www.w3.org/2000/svg">
<mask id="path-1-inside-1" fill="white">
<path fill-rule="evenodd" clip-rule="evenodd" d="M20 4.27761C20 6.0314 19.6081 8.33111 18.5039 9.4025C18.8631 9.88684 19.215 10.5435 19.6042 11.4212C20.8179 14.1583 23.1641 19.1612 23.1641 19.1612C23.1641 19.1612 29.7816 22.4498 30.7844 22.9011C31.6972 23.3223 32.4684 24.6153 31.8571 25.6886C31.2547 26.772 29.7407 26.5611 28.5175 26.0197C27.1445 25.3978 22.6221 23.3424 21.6898 22.8306C20.8978 22.4 20.5963 22.2199 20.3061 21.7781C19.7043 20.8357 18.5315 19.1612 18.5315 19.1612L16.8374 26.4806C16.8374 26.4806 26.9343 42.9023 27.786 44.3571C28.6378 45.8118 28.8984 47.7766 27.3548 48.639C25.5204 49.662 24.3162 48.8102 22.9935 47.0948C22.0501 45.8643 16.6241 37.3842 13.354 32.27C13.08 33.0428 12.7017 34.1185 12.3357 35.159C11.7777 36.7454 11.2486 38.2497 11.1627 38.4724C10.8914 39.1346 10.5509 39.7957 9.92891 40.5876C9.54643 41.069 8.76403 42.1308 7.91813 43.2788C6.70203 44.9292 5.35468 46.7578 4.87574 47.2957C4.84528 47.3304 4.81423 47.3658 4.7826 47.4019C3.89846 48.4114 2.56092 49.9385 0.905359 48.6901C-0.619296 47.5368 0.0529971 45.9523 0.945045 44.6492C2.12852 42.9249 6.39981 36.7481 6.39981 36.7481L9.72968 26.3824C9.36981 25.5085 9.17426 24.5137 9.39716 23.3726C9.63824 22.1086 10.3804 18.3994 11.1119 15.0101L6.68962 18.4089C6.68962 18.4089 5.3166 26.3905 5.13594 27.2927C4.90552 28.3861 3.77299 28.767 3.02073 28.6064C2.0884 28.4163 1.26625 27.7547 1.47653 26.1998L2.9307 16.4441C3.16052 15.7221 3.54139 15.2109 4.13372 14.8703L11.1119 9.5C11.378 9.35041 11.5866 9.15419 11.7944 8.95869C12.2137 8.56432 12.63 8.17285 13.5079 8.17285H13.841C12.7805 7.01629 12 5.51177 12 4.27761C12 1.91322 13.7889 0 16 0C18.2107 0 20 1.91322 20 4.27761Z"/>
</mask>
<path d="M18.5039 9.4025L17.8075 8.68482L17.179 9.29469L17.7007 9.99815L18.5039 9.4025ZM19.6042 11.4212L18.69 11.8265L18.69 11.8265L19.6042 11.4212ZM23.1641 19.1612L22.2587 19.5858L22.4068 19.9015L22.719 20.0567L23.1641 19.1612ZM30.7844 22.9011L31.2034 21.9931L31.1948 21.9892L30.7844 22.9011ZM31.8571 25.6886L30.9881 25.1937L30.9831 25.2027L31.8571 25.6886ZM28.5175 26.0197L28.1049 26.9307L28.1128 26.9342L28.5175 26.0197ZM21.6898 22.8306L22.171 21.954L22.1675 21.9521L21.6898 22.8306ZM20.3061 21.7781L19.4632 22.3163L19.4703 22.3271L20.3061 21.7781ZM18.5315 19.1612L19.3505 18.5875L18.0632 16.7495L17.5572 18.9357L18.5315 19.1612ZM16.8374 26.4806L15.8632 26.2551L15.7706 26.6548L15.9855 27.0043L16.8374 26.4806ZM27.3548 48.639L27.8418 49.5124L27.8426 49.512L27.3548 48.639ZM22.9935 47.0948L22.1999 47.7033L22.2016 47.7054L22.9935 47.0948ZM13.354 32.27L14.1965 31.7313L13.0947 30.0083L12.4114 31.9359L13.354 32.27ZM12.3357 35.159L13.2791 35.4908H13.2791L12.3357 35.159ZM11.1627 38.4724L12.0881 38.8515L12.092 38.8419L12.0957 38.8323L11.1627 38.4724ZM9.92891 40.5876L10.7119 41.2097L10.7154 41.2052L9.92891 40.5876ZM7.91813 43.2788L7.11308 42.6856H7.11308L7.91813 43.2788ZM4.87574 47.2957L4.12883 46.6308L4.12486 46.6353L4.87574 47.2957ZM4.7826 47.4019L4.03035 46.7431L4.03034 46.7431L4.7826 47.4019ZM0.905359 48.6901L0.302093 49.4876L0.303288 49.4885L0.905359 48.6901ZM0.945045 44.6492L0.120565 44.0833L0.119866 44.0843L0.945045 44.6492ZM6.39981 36.7481L7.22231 37.3169L7.30658 37.195L7.35189 37.054L6.39981 36.7481ZM9.72968 26.3824L10.6818 26.6882L10.7937 26.3399L10.6543 26.0016L9.72968 26.3824ZM9.39716 23.3726L10.3786 23.5643L10.3795 23.56L9.39716 23.3726ZM11.1119 15.0101L12.0894 15.2211L12.6648 12.5555L10.5026 14.2172L11.1119 15.0101ZM6.68962 18.4089L6.08025 17.616L5.77035 17.8542L5.70409 18.2394L6.68962 18.4089ZM5.13594 27.2927L6.1145 27.4989L6.11647 27.489L5.13594 27.2927ZM3.02073 28.6064L3.22943 27.6284L3.22056 27.6266L3.02073 28.6064ZM1.47653 26.1998L0.487364 26.0524L0.485548 26.0658L1.47653 26.1998ZM2.9307 16.4441L1.9778 16.1408L1.95346 16.2173L1.94162 16.2967L2.9307 16.4441ZM4.13372 14.8703L4.63219 15.7372L4.69039 15.7038L4.7436 15.6628L4.13372 14.8703ZM11.1119 9.5L10.6218 8.62837L10.5591 8.66364L10.5021 8.70751L11.1119 9.5ZM11.7944 8.95869L11.1093 8.23026L11.1093 8.23026L11.7944 8.95869ZM13.841 8.17285V9.17285H16.1149L14.5781 7.49699L13.841 8.17285ZM19.2003 10.1202C19.9468 9.39586 20.3808 8.34266 20.6352 7.3424C20.8955 6.3186 21 5.22035 21 4.27761H19C19 5.08865 18.9085 6.01715 18.6969 6.84951C18.4792 7.7054 18.1652 8.33776 17.8075 8.68482L19.2003 10.1202ZM20.5184 11.0159C20.1181 10.1132 19.7311 9.3786 19.3072 8.80686L17.7007 9.99815C17.995 10.3951 18.3119 10.9738 18.69 11.8265L20.5184 11.0159ZM23.1641 19.1612C24.0695 18.7365 24.0694 18.7365 24.0694 18.7365C24.0694 18.7365 24.0694 18.7364 24.0694 18.7363C24.0693 18.7362 24.0692 18.736 24.069 18.7357C24.0688 18.7351 24.0683 18.7342 24.0678 18.733C24.0667 18.7306 24.065 18.727 24.0628 18.7223C24.0583 18.7128 24.0517 18.6986 24.043 18.68C24.0255 18.6428 23.9998 18.5879 23.9666 18.517C23.9002 18.3751 23.8039 18.1692 23.6846 17.9137C23.446 17.4025 23.1152 16.6925 22.7465 15.8971C22.0084 14.3044 21.1215 12.3761 20.5183 11.0158L18.69 11.8265C19.3006 13.2034 20.1936 15.1451 20.932 16.7381C21.3016 17.5356 21.6332 18.2473 21.8724 18.7597C21.992 19.0159 22.0885 19.2223 22.1552 19.3647C22.1885 19.4359 22.2144 19.4911 22.2319 19.5286C22.2407 19.5473 22.2473 19.5616 22.2519 19.5712C22.2541 19.576 22.2558 19.5796 22.257 19.582C22.2575 19.5833 22.258 19.5842 22.2582 19.5848C22.2584 19.5851 22.2585 19.5853 22.2586 19.5855C22.2586 19.5856 22.2586 19.5856 22.2587 19.5857C22.2587 19.5857 22.2587 19.5858 23.1641 19.1612ZM31.1948 21.9892C30.7144 21.773 28.8321 20.8495 27.0408 19.9652C26.1517 19.5262 25.2937 19.1013 24.6579 18.7861C24.3401 18.6285 24.0778 18.4984 23.8951 18.4076C23.8037 18.3623 23.7322 18.3268 23.6835 18.3026C23.6592 18.2905 23.6406 18.2813 23.628 18.275C23.6218 18.2719 23.617 18.2696 23.6139 18.268C23.6123 18.2672 23.6111 18.2666 23.6103 18.2662C23.6099 18.266 23.6096 18.2659 23.6094 18.2658C23.6093 18.2657 23.6092 18.2657 23.6092 18.2657C23.6091 18.2656 23.6091 18.2656 23.1641 19.1612C22.719 20.0567 22.7191 20.0567 22.7191 20.0567C22.7192 20.0567 22.7193 20.0568 22.7194 20.0568C22.7196 20.0569 22.7199 20.0571 22.7203 20.0573C22.7211 20.0577 22.7223 20.0583 22.7239 20.0591C22.7271 20.0607 22.7318 20.063 22.7381 20.0662C22.7507 20.0724 22.7694 20.0817 22.7938 20.0938C22.8425 20.118 22.9142 20.1536 23.0057 20.199C23.1887 20.2899 23.4513 20.4202 23.7695 20.578C24.4059 20.8935 25.265 21.3189 26.1555 21.7586C27.9237 22.6314 29.8515 23.5779 30.374 23.813L31.1948 21.9892ZM32.7261 26.1835C33.2244 25.3084 33.1343 24.3705 32.8036 23.6385C32.481 22.9247 31.8932 22.3114 31.2033 21.9931L30.3654 23.8091C30.5884 23.912 30.8426 24.1557 30.981 24.4621C31.1112 24.7503 31.101 24.9955 30.9881 25.1937L32.7261 26.1835ZM28.1128 26.9342C28.7998 27.2382 29.6367 27.4832 30.4449 27.4632C31.2807 27.4425 32.2046 27.1214 32.7311 26.1746L30.9831 25.2027C30.9072 25.3392 30.7729 25.4544 30.3953 25.4638C29.9901 25.4738 29.4585 25.3426 28.9223 25.1053L28.1128 26.9342ZM21.2086 23.7072C22.1849 24.2432 26.7611 26.3219 28.1049 26.9306L28.9302 25.1088C27.5279 24.4736 23.0593 22.4417 22.171 21.954L21.2086 23.7072ZM19.4703 22.3271C19.9165 23.0065 20.4411 23.2899 21.2121 23.7092L22.1675 21.9521C21.758 21.7294 21.5468 21.6087 21.4002 21.5014C21.2867 21.4184 21.2217 21.3505 21.1419 21.2291L19.4703 22.3271ZM18.5315 19.1612C17.7124 19.7348 17.7124 19.7348 17.7124 19.7348C17.7124 19.7348 17.7124 19.7348 17.7124 19.7349C17.7124 19.7349 17.7125 19.735 17.7125 19.7351C17.7127 19.7352 17.7129 19.7355 17.7131 19.7359C17.7137 19.7367 17.7145 19.7378 17.7156 19.7394C17.7177 19.7424 17.721 19.7471 17.7253 19.7532C17.7339 19.7655 17.7466 19.7837 17.763 19.8073C17.7959 19.8545 17.8437 19.923 17.903 20.0083C18.0216 20.1789 18.1859 20.416 18.3688 20.6824C18.737 21.2184 19.1722 21.8605 19.4633 22.3163L21.1489 21.2399C20.8381 20.7532 20.3861 20.0869 20.0174 19.5501C19.8319 19.2799 19.6654 19.0396 19.5452 18.8668C19.4852 18.7803 19.4366 18.7107 19.403 18.6626C19.3862 18.6385 19.3732 18.6199 19.3643 18.6071C19.3599 18.6008 19.3565 18.5959 19.3541 18.5926C19.353 18.591 19.3521 18.5897 19.3515 18.5888C19.3512 18.5884 19.351 18.5881 19.3508 18.5879C19.3507 18.5877 19.3507 18.5877 19.3506 18.5876C19.3506 18.5876 19.3506 18.5875 19.3506 18.5875C19.3506 18.5875 19.3505 18.5875 18.5315 19.1612ZM17.8117 26.7061L19.5057 19.3866L17.5572 18.9357L15.8632 26.2551L17.8117 26.7061ZM28.649 43.8518C28.2162 43.1127 25.4703 38.6293 22.8446 34.3503C21.5292 32.2064 20.2403 30.1081 19.2804 28.5457C18.8004 27.7645 18.4026 27.1173 18.1248 26.6654C17.986 26.4394 17.8771 26.2623 17.8029 26.1416C17.7658 26.0813 17.7374 26.0351 17.7183 26.004C17.7087 25.9884 17.7015 25.9766 17.6966 25.9687C17.6942 25.9648 17.6923 25.9618 17.6911 25.9598C17.6905 25.9588 17.69 25.9581 17.6897 25.9576C17.6896 25.9573 17.6895 25.9571 17.6894 25.957C17.6893 25.9569 17.6893 25.9568 16.8374 26.4806C15.9855 27.0043 15.9856 27.0044 15.9857 27.0045C15.9857 27.0046 15.9858 27.0048 15.986 27.0051C15.9863 27.0056 15.9868 27.0063 15.9874 27.0073C15.9886 27.0093 15.9904 27.0123 15.9929 27.0162C15.9977 27.0241 16.005 27.0359 16.0145 27.0515C16.0336 27.0826 16.062 27.1288 16.0991 27.1891C16.1733 27.3097 16.2821 27.4868 16.421 27.7127C16.6987 28.1645 17.0964 28.8116 17.5763 29.5927C18.5361 31.1549 19.8248 33.2529 21.14 35.3963C23.7757 39.6918 26.5041 44.1467 26.9231 44.8623L28.649 43.8518ZM27.8426 49.512C28.979 48.877 29.4393 47.8103 29.4683 46.7475C29.4961 45.7295 29.1402 44.6907 28.649 43.8518L26.9231 44.8623C27.2837 45.4782 27.4839 46.1491 27.4691 46.6929C27.4554 47.1917 27.2742 47.5386 26.8671 47.766L27.8426 49.512ZM22.2016 47.7054C22.8784 48.5832 23.6412 49.4052 24.5868 49.8123C25.6246 50.2591 26.7126 50.1421 27.8418 49.5124L26.8678 47.7656C26.1626 48.1589 25.7312 48.1275 25.3776 47.9753C24.9318 47.7834 24.4313 47.3218 23.7854 46.4842L22.2016 47.7054ZM12.5115 32.8087C15.7579 37.8859 21.2221 46.4279 22.1999 47.7033L23.7871 46.4864C22.878 45.3006 17.4902 36.8825 14.1965 31.7313L12.5115 32.8087ZM13.2791 35.4908C13.6452 34.4499 14.0231 33.3755 14.2965 32.6041L12.4114 31.9359C12.137 32.7101 11.7582 33.7872 11.3924 34.8272L13.2791 35.4908ZM12.0957 38.8323C12.1888 38.591 12.7265 37.0618 13.2791 35.4908L11.3924 34.8272C10.829 36.429 10.3085 37.9083 10.2297 38.1125L12.0957 38.8323ZM10.7154 41.2052C11.4035 40.329 11.7878 39.5845 12.0881 38.8515L10.2374 38.0933C9.99508 38.6848 9.6982 39.2623 9.14245 39.97L10.7154 41.2052ZM8.72319 43.872C9.57641 42.7141 10.3439 41.6727 10.7119 41.2097L9.14596 39.9655C8.74892 40.4652 7.95165 41.5475 7.11308 42.6856L8.72319 43.872ZM5.62264 47.9607C6.14177 47.3776 7.52997 45.4914 8.72319 43.872L7.11308 42.6856C5.87409 44.3671 4.5676 46.138 4.12884 46.6308L5.62264 47.9607ZM5.53484 48.0608C5.56662 48.0245 5.59697 47.9899 5.62663 47.9562L4.12486 46.6353C4.09359 46.6709 4.06183 46.7071 4.03035 46.7431L5.53484 48.0608ZM0.303288 49.4885C0.852907 49.903 1.43705 50.1295 2.04066 50.1564C2.63713 50.1831 3.16654 50.0111 3.60832 49.7726C4.44751 49.3196 5.11955 48.535 5.53485 48.0608L4.03034 46.7431C3.56151 47.2783 3.12271 47.762 2.65821 48.0127C2.44814 48.1261 2.27749 48.165 2.12991 48.1584C1.98948 48.1521 1.78559 48.1014 1.50743 47.8916L0.303288 49.4885ZM0.119866 44.0843C-0.346977 44.7663 -0.853083 45.6517 -0.973147 46.6003C-1.0356 47.0937 -0.995861 47.6205 -0.780682 48.1388C-0.565188 48.6579 -0.198472 49.109 0.302093 49.4876L1.50863 47.8925C1.24686 47.6945 1.12587 47.5151 1.06649 47.372C1.00679 47.2282 0.984481 47.0611 1.01102 46.8514C1.06895 46.3937 1.34502 45.8352 1.77022 45.2141L0.119866 44.0843ZM6.39981 36.7481C5.57731 36.1794 5.57729 36.1794 5.57726 36.1794C5.57722 36.1795 5.57717 36.1796 5.57711 36.1796C5.57698 36.1798 5.57678 36.1801 5.57653 36.1805C5.57601 36.1812 5.57523 36.1824 5.5742 36.1838C5.57214 36.1868 5.56907 36.1913 5.56501 36.1971C5.55689 36.2089 5.54482 36.2263 5.52903 36.2492C5.49745 36.2948 5.45098 36.3621 5.39142 36.4482C5.27231 36.6205 5.10082 36.8685 4.89134 37.1716C4.47238 37.7776 3.90143 38.6037 3.29349 39.4837C2.07807 41.2429 0.713368 43.2196 0.120566 44.0833L1.76952 45.2151C2.3602 44.3545 3.72288 42.3807 4.93897 40.6205C5.54678 39.7407 6.11763 38.9148 6.53652 38.3088C6.74596 38.0058 6.91741 37.7579 7.0365 37.5856C7.09605 37.4995 7.1425 37.4323 7.17407 37.3867C7.18985 37.3638 7.20191 37.3464 7.21003 37.3346C7.21409 37.3288 7.21716 37.3243 7.21921 37.3214C7.22024 37.3199 7.22102 37.3188 7.22153 37.318C7.22179 37.3176 7.22199 37.3174 7.22212 37.3172C7.22218 37.3171 7.22223 37.317 7.22226 37.317C7.22229 37.3169 7.22231 37.3169 6.39981 36.7481ZM8.77759 26.0766L5.44773 36.4423L7.35189 37.054L10.6818 26.6882L8.77759 26.0766ZM8.4157 23.1809C8.14711 24.556 8.38856 25.7519 8.80501 26.7632L10.6543 26.0016C10.3511 25.2651 10.2014 24.4715 10.3786 23.5643L8.4157 23.1809ZM10.1345 14.7991C9.40131 18.1959 8.65751 21.913 8.41486 23.1853L10.3795 23.56C10.619 22.3042 11.3595 18.6029 12.0894 15.2211L10.1345 14.7991ZM7.29899 19.2018L11.7213 15.803L10.5026 14.2172L6.08025 17.616L7.29899 19.2018ZM6.11647 27.489C6.21012 27.0214 6.60182 24.7809 6.9658 22.6835C7.14879 21.629 7.32612 20.6027 7.4577 19.8402C7.52349 19.4589 7.57785 19.1435 7.61576 18.9234C7.63471 18.8133 7.64955 18.7271 7.65966 18.6684C7.66471 18.639 7.66858 18.6165 7.67119 18.6014C7.67249 18.5938 7.67348 18.5881 7.67414 18.5842C7.67447 18.5823 7.67472 18.5809 7.67489 18.5799C7.67497 18.5794 7.67504 18.579 7.67508 18.5788C7.6751 18.5787 7.67512 18.5786 7.67513 18.5785C7.67514 18.5785 7.67514 18.5784 6.68962 18.4089C5.70409 18.2394 5.70409 18.2394 5.70408 18.2395C5.70407 18.2395 5.70405 18.2396 5.70403 18.2397C5.70399 18.24 5.70393 18.2403 5.70385 18.2408C5.70368 18.2418 5.70343 18.2432 5.7031 18.2451C5.70244 18.249 5.70146 18.2547 5.70016 18.2622C5.69756 18.2773 5.69369 18.2998 5.68865 18.3291C5.67855 18.3878 5.66372 18.4739 5.64478 18.5839C5.6069 18.8038 5.55258 19.119 5.48682 19.5001C5.35531 20.2623 5.1781 21.2878 4.99525 22.3415C4.62756 24.4604 4.24242 26.6618 4.15541 27.0963L6.11647 27.489ZM2.81204 29.5844C3.42117 29.7144 4.12931 29.6232 4.73663 29.3063C5.36932 28.9762 5.92922 28.3779 6.11445 27.4988L4.15743 27.0865C4.11224 27.3009 3.99067 27.4397 3.81142 27.5332C3.6068 27.64 3.37255 27.659 3.22942 27.6285L2.81204 29.5844ZM0.485548 26.0658C0.353946 27.0389 0.531062 27.8809 1.0283 28.5256C1.51369 29.155 2.19906 29.4595 2.8209 29.5863L3.22056 27.6266C2.91007 27.5633 2.7182 27.4419 2.61201 27.3042C2.51765 27.1818 2.38883 26.9156 2.46751 26.3338L0.485548 26.0658ZM1.94162 16.2967L0.487455 26.0524L2.4656 26.3472L3.91977 16.5916L1.94162 16.2967ZM3.63525 14.0034C2.79186 14.4884 2.27038 15.2216 1.9778 16.1408L3.88359 16.7474C4.05065 16.2226 4.29091 15.9335 4.63219 15.7372L3.63525 14.0034ZM10.5021 8.70751L3.52383 14.0778L4.7436 15.6628L11.7218 10.2925L10.5021 8.70751ZM11.1093 8.23026C10.8904 8.43615 10.7656 8.54747 10.6218 8.62837L11.6021 10.3716C11.9903 10.1533 12.2827 9.87223 12.4796 9.68712L11.1093 8.23026ZM13.5079 7.17285C12.9055 7.17285 12.4147 7.31092 11.9954 7.5427C11.6026 7.75984 11.3071 8.04428 11.1093 8.23026L12.4796 9.68712C12.7011 9.47873 12.8234 9.37024 12.963 9.29306C13.0761 9.23052 13.2324 9.17285 13.5079 9.17285V7.17285ZM13.841 7.17285H13.5079V9.17285H13.841V7.17285ZM11 4.27761C11 5.86562 11.9606 7.60178 13.104 8.84872L14.5781 7.49699C13.6003 6.4308 13 5.15793 13 4.27761H11ZM16 -1C13.1744 -1 11 1.42524 11 4.27761H13C13 2.40121 14.4033 1 16 1V-1ZM21 4.27761C21 1.42516 18.8251 -1 16 -1V1C17.5963 1 19 2.40129 19 4.27761H21Z" fill="#00D9C9" mask="url(#path-1-inside-1)"/>
<mask id="path-3-inside-2" fill="white">
<path fill-rule="evenodd" clip-rule="evenodd" d="M18.5039 9.4025C19.6081 8.33111 20 6.0314 20 4.27761C20 1.91322 18.2107 0 16 0C13.7889 0 12 1.91322 12 4.27761C12 5.51177 12.7805 7.01629 13.841 8.17285H13.5079C12.63 8.17285 12.2137 8.56432 11.7944 8.95869C11.5866 9.15419 11.378 9.35041 11.1119 9.5L4.13372 14.8703C3.54139 15.2109 3.16052 15.7221 2.9307 16.4441L1.47653 26.1998C1.26625 27.7547 2.0884 28.4163 3.02073 28.6064C3.77299 28.767 4.90552 28.3861 5.13594 27.2927C5.3166 26.3905 6.68962 18.4089 6.68962 18.4089L11.1119 15.0101C10.3804 18.3994 9.63824 22.1086 9.39716 23.3726C8.97601 25.5287 10.0487 27.1623 10.9011 28.4453C11.0066 28.6044 11.1732 28.8388 11.4082 29.1694C12.1618 30.2297 13.6183 32.2789 16.0147 36C17.2804 37.9655 16.4699 40.0182 15.6051 42.2085C14.8844 44.0338 14.126 45.9545 14.5 48C14.9571 50.5 16.8374 50.5 19.6042 49C19.6042 47.3537 20.0798 46.0462 20.635 44.5197C20.7543 44.1917 20.8773 43.8537 21 43.5C21 43.5 24.2964 39.2482 21.6898 35C19.0313 30.6673 16.8374 26.4806 16.8374 26.4806L18.5 18.4089C18.5 18.4089 18.3982 17.4665 19 18.4089C19 18.4089 20.8978 17.6472 21.6898 18.0778C22.1322 18.3207 24.3927 18.2675 26.7928 18.2111C29.4501 18.1486 32.2786 18.0821 33 18.4089C34.2232 18.9503 35.7372 19.1612 36.3396 18.0778C36.9508 17.0045 36.1796 15.7114 35.2668 15.2903C34.264 14.8389 27.5 14 27.5 14C27.5 14 20.8179 14.1583 19.6042 11.4212C19.215 10.5435 18.8631 9.88684 18.5039 9.4025Z"/>
</mask>
<path d="M18.5039 9.4025L17.8075 8.68482L17.179 9.29469L17.7007 9.99815L18.5039 9.4025ZM13.841 8.17285V9.17285H16.1149L14.5781 7.49699L13.841 8.17285ZM11.7944 8.95869L11.1093 8.23026L11.1093 8.23026L11.7944 8.95869ZM11.1119 9.5L10.6218 8.62837L10.5591 8.66364L10.5021 8.70751L11.1119 9.5ZM4.13372 14.8703L4.63219 15.7372L4.69039 15.7038L4.7436 15.6628L4.13372 14.8703ZM2.9307 16.4441L1.9778 16.1408L1.95346 16.2173L1.94162 16.2967L2.9307 16.4441ZM1.47653 26.1998L0.487364 26.0524L0.485548 26.0658L1.47653 26.1998ZM3.02073 28.6064L3.22943 27.6284L3.22056 27.6266L3.02073 28.6064ZM5.13594 27.2927L6.1145 27.4989L6.11647 27.489L5.13594 27.2927ZM6.68962 18.4089L6.08025 17.616L5.77035 17.8542L5.70409 18.2394L6.68962 18.4089ZM11.1119 15.0101L12.0894 15.2211L12.6648 12.5555L10.5026 14.2172L11.1119 15.0101ZM9.39716 23.3726L10.3786 23.5643L10.3795 23.56L9.39716 23.3726ZM10.9011 28.4453L11.7344 27.8925L11.734 27.892L10.9011 28.4453ZM11.4082 29.1694L10.5931 29.7487V29.7487L11.4082 29.1694ZM16.0147 36L15.1739 36.5414H15.1739L16.0147 36ZM15.6051 42.2085L16.5352 42.5758L15.6051 42.2085ZM14.5 48L15.4837 47.8201L14.5 48ZM19.6042 49L20.0808 49.8791L20.6042 49.5954V49H19.6042ZM20.635 44.5197L21.5748 44.8615L21.5748 44.8615L20.635 44.5197ZM21 43.5L20.2097 42.8873L20.1091 43.0171L20.0552 43.1722L21 43.5ZM21.6898 35L22.5421 34.477L21.6898 35ZM16.8374 26.4806L15.858 26.2788L15.7859 26.6285L15.9516 26.9447L16.8374 26.4806ZM18.5 18.4089L19.4794 18.6106L19.511 18.4572L19.4942 18.3015L18.5 18.4089ZM19 18.4089L18.1572 18.9471L18.6033 19.6457L19.3725 19.3369L19 18.4089ZM21.6898 18.0778L22.171 17.2012L22.1675 17.1993L21.6898 18.0778ZM26.7928 18.2111L26.8163 19.2108L26.7928 18.2111ZM33 18.4089L32.5874 19.3198L32.5953 19.3233L33 18.4089ZM36.3396 18.0778L35.4706 17.5829L35.4656 17.5918L36.3396 18.0778ZM35.2668 15.2903L35.6858 14.3822L35.6773 14.3784L35.2668 15.2903ZM27.5 14L27.6231 13.0076L27.55 12.9985L27.4763 13.0003L27.5 14ZM19.6042 11.4212L18.69 11.8265L18.69 11.8265L19.6042 11.4212ZM19 4.27761C19 5.08865 18.9085 6.01715 18.6969 6.84951C18.4792 7.7054 18.1652 8.33776 17.8075 8.68482L19.2003 10.1202C19.9468 9.39586 20.3808 8.34266 20.6352 7.3424C20.8955 6.3186 21 5.22035 21 4.27761H19ZM16 1C17.5963 1 19 2.40129 19 4.27761H21C21 1.42516 18.8251 -1 16 -1V1ZM13 4.27761C13 2.40121 14.4033 1 16 1V-1C13.1744 -1 11 1.42524 11 4.27761H13ZM14.5781 7.49699C13.6003 6.4308 13 5.15793 13 4.27761H11C11 5.86562 11.9606 7.60178 13.104 8.84872L14.5781 7.49699ZM13.841 7.17285H13.5079V9.17285H13.841V7.17285ZM13.5079 7.17285C12.9055 7.17285 12.4147 7.31092 11.9954 7.5427C11.6026 7.75984 11.3071 8.04428 11.1093 8.23026L12.4796 9.68712C12.7011 9.47873 12.8234 9.37024 12.963 9.29306C13.0761 9.23052 13.2324 9.17285 13.5079 9.17285V7.17285ZM11.1093 8.23026C10.8904 8.43615 10.7656 8.54747 10.6218 8.62837L11.6021 10.3716C11.9903 10.1533 12.2827 9.87223 12.4796 9.68712L11.1093 8.23026ZM10.5021 8.70751L3.52383 14.0778L4.7436 15.6628L11.7218 10.2925L10.5021 8.70751ZM3.63525 14.0034C2.79186 14.4884 2.27038 15.2216 1.9778 16.1408L3.88359 16.7474C4.05065 16.2226 4.29091 15.9335 4.63219 15.7372L3.63525 14.0034ZM1.94162 16.2967L0.487455 26.0524L2.4656 26.3472L3.91977 16.5916L1.94162 16.2967ZM0.485548 26.0658C0.353945 27.0389 0.531062 27.8809 1.0283 28.5256C1.51369 29.155 2.19906 29.4595 2.8209 29.5863L3.22056 27.6266C2.91007 27.5633 2.7182 27.4419 2.61201 27.3042C2.51765 27.1818 2.38883 26.9156 2.46751 26.3338L0.485548 26.0658ZM2.81204 29.5844C3.42117 29.7144 4.12931 29.6232 4.73663 29.3063C5.36932 28.9762 5.92922 28.3779 6.11445 27.4988L4.15743 27.0865C4.11224 27.3009 3.99067 27.4397 3.81142 27.5332C3.6068 27.64 3.37255 27.659 3.22942 27.6285L2.81204 29.5844ZM6.11647 27.489C6.21012 27.0214 6.60182 24.7809 6.9658 22.6835C7.14879 21.629 7.32612 20.6027 7.4577 19.8402C7.52349 19.4589 7.57785 19.1435 7.61576 18.9234C7.63471 18.8133 7.64955 18.7271 7.65966 18.6684C7.66471 18.639 7.66858 18.6165 7.67119 18.6014C7.67249 18.5938 7.67348 18.5881 7.67414 18.5842C7.67447 18.5823 7.67472 18.5809 7.67489 18.5799C7.67497 18.5794 7.67504 18.579 7.67508 18.5788C7.6751 18.5787 7.67512 18.5786 7.67513 18.5785C7.67514 18.5785 7.67514 18.5784 6.68962 18.4089C5.70409 18.2394 5.70409 18.2394 5.70408 18.2395C5.70407 18.2395 5.70405 18.2396 5.70403 18.2397C5.70399 18.24 5.70393 18.2403 5.70385 18.2408C5.70368 18.2418 5.70343 18.2432 5.7031 18.2451C5.70244 18.249 5.70146 18.2547 5.70016 18.2622C5.69756 18.2773 5.69369 18.2998 5.68865 18.3291C5.67855 18.3878 5.66372 18.4739 5.64478 18.5839C5.6069 18.8038 5.55258 19.119 5.48682 19.5001C5.35531 20.2623 5.1781 21.2878 4.99525 22.3415C4.62756 24.4604 4.24242 26.6618 4.15541 27.0963L6.11647 27.489ZM7.29899 19.2018L11.7213 15.803L10.5026 14.2172L6.08025 17.616L7.29899 19.2018ZM10.1345 14.7991C9.40131 18.1959 8.65751 21.913 8.41486 23.1853L10.3795 23.56C10.619 22.3042 11.3595 18.6029 12.0894 15.2211L10.1345 14.7991ZM8.4157 23.1809C7.90706 25.7849 9.2332 27.7419 10.0681 28.9987L11.734 27.892C10.8642 26.5827 10.045 25.2724 10.3786 23.5643L8.4157 23.1809ZM10.0678 28.9982C10.1845 29.1741 10.3631 29.4252 10.5931 29.7487L12.2233 28.59C11.9833 28.2525 11.8287 28.0346 11.7344 27.8925L10.0678 28.9982ZM10.5931 29.7487C11.3413 30.8014 12.7885 32.8373 15.1739 36.5414L16.8554 35.4586C14.4481 31.7205 12.9823 29.658 12.2233 28.59L10.5931 29.7487ZM15.1739 36.5414C16.1158 38.004 15.5868 39.532 14.675 41.8413L16.5352 42.5758C17.3531 40.5044 18.445 37.9269 16.8554 35.4586L15.1739 36.5414ZM14.675 41.8413C13.9738 43.6172 13.0825 45.8073 13.5163 48.1799L15.4837 47.8201C15.1695 46.1018 15.7951 44.4504 16.5352 42.5758L14.675 41.8413ZM13.5163 48.1799C13.6507 48.9148 13.9074 49.5701 14.3449 50.076C14.7991 50.6012 15.389 50.8961 16.0442 50.9899C17.2611 51.1641 18.6738 50.6419 20.0808 49.8791L19.1276 48.1209C17.7678 48.8581 16.8569 49.0859 16.3277 49.0101C16.1099 48.9789 15.971 48.8988 15.8576 48.7677C15.7276 48.6174 15.5779 48.3352 15.4837 47.8201L13.5163 48.1799ZM20.6042 49C20.6042 47.554 21.0139 46.4036 21.5748 44.8615L19.6953 44.1779C19.1457 45.6888 18.6042 47.1533 18.6042 49H20.6042ZM21.5748 44.8615C21.6937 44.5345 21.8192 44.1896 21.9448 43.8278L20.0552 43.1722C19.9354 43.5178 19.8149 43.849 19.6953 44.1779L21.5748 44.8615ZM21 43.5C21.7903 44.1127 21.7906 44.1124 21.7909 44.112C21.791 44.1119 21.7913 44.1115 21.7915 44.1112C21.7919 44.1106 21.7924 44.11 21.793 44.1092C21.7941 44.1078 21.7954 44.1061 21.7969 44.1042C21.7998 44.1003 21.8036 44.0953 21.8081 44.0893C21.8171 44.0774 21.8292 44.0612 21.8439 44.0411C21.8733 44.0008 21.9136 43.9444 21.9624 43.8729C22.06 43.73 22.1923 43.5259 22.3405 43.2691C22.6357 42.7575 23.0006 42.0252 23.2768 41.1414C23.8304 39.3707 24.0433 36.9237 22.5421 34.477L20.8374 35.523C21.9428 37.3246 21.8109 39.1275 21.3679 40.5447C21.1459 41.2549 20.8496 41.8511 20.6082 42.2695C20.4881 42.4776 20.3832 42.6389 20.3107 42.7451C20.2745 42.7982 20.2465 42.8372 20.2289 42.8613C20.2201 42.8734 20.2139 42.8816 20.2106 42.886C20.209 42.8882 20.2081 42.8894 20.2079 42.8896C20.2078 42.8897 20.2079 42.8896 20.2082 42.8892C20.2084 42.889 20.2086 42.8888 20.2088 42.8884C20.2089 42.8883 20.2092 42.888 20.2092 42.8879C20.2095 42.8876 20.2097 42.8873 21 43.5ZM22.5421 34.477C21.223 32.3272 20.0176 30.2109 19.1412 28.6305C18.7033 27.8408 18.3481 27.1861 18.1027 26.7292C17.98 26.5008 17.8848 26.3219 17.8204 26.2005C17.7882 26.1398 17.7637 26.0934 17.7474 26.0624C17.7392 26.0469 17.7331 26.0352 17.729 26.0275C17.727 26.0237 17.7255 26.0208 17.7245 26.019C17.724 26.018 17.7237 26.0174 17.7234 26.0169C17.7233 26.0167 17.7232 26.0166 17.7232 26.0165C17.7232 26.0164 17.7232 26.0164 17.7232 26.0164C17.7232 26.0164 17.7232 26.0164 16.8374 26.4806C15.9516 26.9447 15.9517 26.9448 15.9517 26.9448C15.9517 26.9449 15.9518 26.945 15.9518 26.945C15.9519 26.9452 15.952 26.9454 15.9522 26.9457C15.9525 26.9463 15.9529 26.9472 15.9535 26.9483C15.9547 26.9505 15.9564 26.9537 15.9586 26.9579C15.963 26.9663 15.9695 26.9786 15.978 26.9949C15.9951 27.0273 16.0204 27.0751 16.0534 27.1373C16.1193 27.2618 16.2163 27.4439 16.3408 27.6757C16.5898 28.1392 16.9493 28.8019 17.3921 29.6005C18.2773 31.1966 19.498 33.3401 20.8374 35.523L22.5421 34.477ZM17.8168 26.6823L19.4794 18.6106L17.5206 18.2071L15.858 26.2788L17.8168 26.6823ZM18.5 18.4089C19.4942 18.3015 19.4942 18.3017 19.4943 18.302C19.4943 18.3021 19.4943 18.3023 19.4943 18.3025C19.4944 18.3028 19.4944 18.3031 19.4944 18.3034C19.4945 18.304 19.4945 18.3045 19.4946 18.305C19.4947 18.306 19.4948 18.3068 19.4948 18.3074C19.495 18.3086 19.495 18.3092 19.495 18.3092C19.495 18.3091 19.4948 18.3069 19.4945 18.3032C19.494 18.2948 19.4935 18.2842 19.4935 18.2745C19.4935 18.2627 19.4941 18.2649 19.4925 18.2789C19.492 18.2832 19.4851 18.351 19.4455 18.4447C19.4128 18.5219 19.2837 18.7916 18.9431 18.9255C18.5701 19.072 18.2658 18.9349 18.1609 18.8732C18.0594 18.8135 18.0202 18.7583 18.0441 18.7863C18.0596 18.8045 18.0967 18.8524 18.1572 18.9471L19.8428 17.8707C19.7528 17.7298 19.6615 17.601 19.5674 17.4903C19.4816 17.3895 19.3517 17.2533 19.1751 17.1494C18.9951 17.0435 18.6314 16.8991 18.2116 17.064C17.8241 17.2163 17.6607 17.5302 17.6032 17.6663C17.4919 17.9295 17.4933 18.2007 17.4935 18.2783C17.4936 18.3422 17.4964 18.3978 17.4991 18.4373C17.5004 18.4575 17.5018 18.4747 17.503 18.4879C17.5036 18.4946 17.5042 18.5003 17.5046 18.5051C17.5049 18.5074 17.5051 18.5096 17.5053 18.5114C17.5054 18.5124 17.5055 18.5133 17.5055 18.5141C17.5056 18.5145 17.5056 18.5149 17.5057 18.5152C17.5057 18.5154 17.5057 18.5157 17.5057 18.5158C17.5058 18.516 17.5058 18.5163 18.5 18.4089ZM19 18.4089C19.3725 19.3369 19.3723 19.337 19.3722 19.337C19.3722 19.3371 19.372 19.3371 19.372 19.3371C19.3718 19.3372 19.3717 19.3373 19.3716 19.3373C19.3714 19.3374 19.3713 19.3374 19.3714 19.3374C19.3714 19.3374 19.372 19.3371 19.3729 19.3368C19.3748 19.336 19.3784 19.3346 19.3836 19.3326C19.394 19.3286 19.4108 19.3221 19.4334 19.3136C19.4786 19.2967 19.5463 19.2721 19.6307 19.2434C19.8013 19.1854 20.032 19.1136 20.2796 19.0546C20.5322 18.9945 20.7737 18.9546 20.9729 18.9471C21.1951 18.9388 21.2477 18.9757 21.2121 18.9563L22.1675 17.1993C21.7358 16.9646 21.2543 16.9352 20.8979 16.9486C20.5185 16.9628 20.137 17.0326 19.8162 17.1091C19.4904 17.1867 19.1972 17.2784 18.9871 17.3498C18.8812 17.3858 18.7944 17.4173 18.7328 17.4404C18.7019 17.4519 18.6772 17.4614 18.6595 17.4683C18.6506 17.4717 18.6434 17.4746 18.638 17.4767C18.6354 17.4777 18.6331 17.4786 18.6314 17.4793C18.6305 17.4797 18.6297 17.48 18.6291 17.4802C18.6288 17.4804 18.6285 17.4805 18.6282 17.4806C18.6281 17.4806 18.6279 17.4807 18.6278 17.4807C18.6277 17.4808 18.6275 17.4809 19 18.4089ZM21.2086 18.9544C21.4002 19.0596 21.6046 19.1089 21.7423 19.1363C21.8986 19.1674 22.0708 19.189 22.2459 19.2049C22.5968 19.2368 23.0266 19.2515 23.4963 19.2566C24.4377 19.2669 25.6222 19.2389 26.8163 19.2108L26.7693 17.2114C25.5633 17.2397 24.4175 17.2665 23.5181 17.2567C23.0673 17.2518 22.6991 17.2378 22.4267 17.2131C22.2901 17.2007 22.1943 17.187 22.133 17.1748C22.053 17.1589 22.09 17.1567 22.171 17.2012L21.2086 18.9544ZM26.8163 19.2108C28.1507 19.1794 29.5014 19.1478 30.6078 19.1639C31.1615 19.172 31.6354 19.1918 32.005 19.2269C32.1896 19.2444 32.3355 19.2646 32.4451 19.2858C32.5639 19.3088 32.6 19.3255 32.5874 19.3198L33.4126 17.498C33.0644 17.3403 32.6005 17.2744 32.194 17.2358C31.7473 17.1934 31.2127 17.1725 30.6369 17.1641C29.4845 17.1474 28.0922 17.1803 26.7693 17.2114L26.8163 19.2108ZM32.5953 19.3233C33.2822 19.6274 34.1192 19.8723 34.9273 19.8523C35.7631 19.8316 36.6871 19.5105 37.2135 18.5637L35.4656 17.5918C35.3896 17.7284 35.2554 17.8436 34.8778 17.8529C34.4725 17.863 33.9409 17.7318 33.4047 17.4945L32.5953 19.3233ZM37.2085 18.5727C37.7069 17.6976 37.6168 16.7596 37.286 16.0277C36.9635 15.3139 36.3756 14.7006 35.6858 14.3823L34.8479 16.1983C35.0708 16.3011 35.325 16.5449 35.4634 16.8513C35.5937 17.1395 35.5835 17.3847 35.4706 17.5829L37.2085 18.5727ZM35.6773 14.3784C35.4552 14.2784 35.1553 14.198 34.8744 14.1319C34.5707 14.0604 34.2061 13.9872 33.8106 13.9147C33.0181 13.7694 32.065 13.6202 31.1523 13.4864C30.2379 13.3525 29.356 13.2328 28.7033 13.1467C28.3768 13.1037 28.1072 13.0689 27.919 13.045C27.8249 13.033 27.7512 13.0237 27.7009 13.0173C27.6757 13.0142 27.6564 13.0118 27.6433 13.0101C27.6367 13.0093 27.6317 13.0087 27.6284 13.0083C27.6267 13.008 27.6254 13.0079 27.6245 13.0078C27.6241 13.0077 27.6237 13.0077 27.6235 13.0077C27.6234 13.0076 27.6233 13.0076 27.6232 13.0076C27.6231 13.0076 27.6231 13.0076 27.5 14C27.3769 14.9924 27.3769 14.9924 27.3769 14.9924C27.377 14.9924 27.377 14.9924 27.3771 14.9924C27.3773 14.9924 27.3776 14.9925 27.378 14.9925C27.3787 14.9926 27.3799 14.9928 27.3814 14.993C27.3846 14.9933 27.3893 14.9939 27.3956 14.9947C27.4082 14.9963 27.4269 14.9986 27.4516 15.0017C27.5008 15.0079 27.5733 15.0171 27.6662 15.0289C27.8519 15.0526 28.1185 15.0869 28.4418 15.1295C29.0887 15.2149 29.9605 15.3332 30.8624 15.4653C31.7661 15.5977 32.692 15.7429 33.4499 15.8819C33.8294 15.9515 34.1579 16.0179 34.416 16.0786C34.5451 16.109 34.6498 16.1364 34.7308 16.1604C34.771 16.1722 34.802 16.1823 34.825 16.1904C34.8488 16.1987 34.858 16.2029 34.8564 16.2022L35.6773 14.3784ZM27.5 14C27.4763 13.0003 27.4765 13.0003 27.4766 13.0003C27.4767 13.0003 27.4768 13.0003 27.4768 13.0003C27.4769 13.0003 27.4769 13.0003 27.4767 13.0003C27.4765 13.0003 27.4758 13.0003 27.4747 13.0003C27.4726 13.0004 27.469 13.0004 27.4638 13.0005C27.4534 13.0007 27.4369 13.0009 27.4147 13.0012C27.3703 13.0016 27.3031 13.002 27.216 13.0015C27.0417 13.0005 26.7887 12.9963 26.4802 12.9829C25.8606 12.9561 25.03 12.8932 24.171 12.7505C23.304 12.6066 22.4534 12.3886 21.771 12.0718C21.0752 11.7488 20.6812 11.3831 20.5183 11.0158L18.69 11.8265C19.134 12.8279 20.0304 13.4688 20.9288 13.8859C21.8407 14.3092 22.8882 14.5649 23.8434 14.7235C24.8066 14.8834 25.7225 14.952 26.3937 14.981C26.7307 14.9956 27.0091 15.0004 27.205 15.0014C27.303 15.002 27.3806 15.0016 27.4346 15.0011C27.4617 15.0008 27.4829 15.0005 27.4978 15.0002C27.5053 15.0001 27.5112 15 27.5156 14.9999C27.5177 14.9999 27.5195 14.9998 27.5208 14.9998C27.5215 14.9998 27.5221 14.9998 27.5226 14.9997C27.5228 14.9997 27.5231 14.9997 27.5232 14.9997C27.5235 14.9997 27.5237 14.9997 27.5 14ZM20.5184 11.0159C20.1181 10.1132 19.7311 9.3786 19.3072 8.80686L17.7007 9.99815C17.995 10.3951 18.3119 10.9738 18.69 11.8265L20.5184 11.0159Z" fill="#57A8F1" mask="url(#path-3-inside-2)"/>
<path opacity="0.6" fill-rule="evenodd" clip-rule="evenodd" d="M18.5039 9.4025C19.6081 8.33111 20 6.0314 20 4.27761C20 1.91322 18.2107 0 16 0C13.7889 0 12 1.91322 12 4.27761C12 5.51177 12.7805 7.01629 13.841 8.17285H13.5079C12.63 8.17285 12.2137 8.56432 11.7944 8.95869C11.5866 9.15419 11.378 9.35041 11.1119 9.5L4.13372 14.8703C3.54139 15.2109 3.16052 15.7221 2.9307 16.4441L1.47653 26.1998C1.26625 27.7547 2.0884 28.4163 3.02073 28.6064C3.77299 28.767 4.90552 28.3861 5.13594 27.2927C5.3166 26.3905 6.68962 18.4089 6.68962 18.4089L11.1119 15.0101C10.3804 18.3994 9.63824 22.1086 9.39716 23.3726C9.17426 24.5137 9.36981 25.5085 9.72968 26.3824C10.0498 27.1597 10.4998 27.8414 10.9011 28.4453C11.0066 28.6044 11.1732 28.8388 11.4081 29.1693L11.4082 29.1694C12.1618 30.2297 13.6183 32.2789 16.0147 36C16.2874 36.4235 16.4637 36.851 16.5639 37.283C18.0828 39.6498 19.6371 42.0611 20.8525 43.9185C20.9015 43.7812 20.9508 43.6419 21 43.5C21 43.5 24.2964 39.2482 21.6898 35C19.0313 30.6673 16.8374 26.4806 16.8374 26.4806L18.5 18.4089C18.5 18.4089 18.3982 17.4665 19 18.4089C19 18.4089 20.8978 17.6472 21.6898 18.0778C21.8427 18.1618 22.2131 18.2103 22.7313 18.2356C21.9958 16.6594 20.4949 13.4301 19.6042 11.4212C19.215 10.5435 18.8631 9.88684 18.5039 9.4025Z" fill="#57A8F1"/>
</svg>
