<svg width="20" height="20" viewBox="0 0 20 20" fill="none" xmlns="http://www.w3.org/2000/svg">
  <path fill-rule="evenodd" clip-rule="evenodd" d="M3.21799 4.09202C3 4.51984 3 5.0799 3 6.2V9.8C3 10.9201 3 11.4802 3.21799 11.908C3.40973 12.2843 3.71569 12.5903 4.09202 12.782C4.51984 13 5.0799 13 6.2 13H7V10.2C7 9.0799 7 8.51984 7.21799 8.09202C7.40973 7.71569 7.71569 7.40973 8.09202 7.21799C8.51984 7 9.0799 7 10.2 7H13V6.2C13 5.0799 13 4.51984 12.782 4.09202C12.5903 3.71569 12.2843 3.40973 11.908 3.21799C11.4802 3 10.9201 3 9.8 3H6.2C5.0799 3 4.51984 3 4.09202 3.21799C3.71569 3.40973 3.40973 3.71569 3.21799 4.09202Z" fill="#2359FB" fill-opacity="0.16"/>
  <path d="M13 7V6.2C13 5.07989 13 4.51984 12.782 4.09202C12.5903 3.71569 12.2843 3.40973 11.908 3.21799C11.4802 3 10.9201 3 9.8 3H6.2C5.07989 3 4.51984 3 4.09202 3.21799C3.71569 3.40973 3.40973 3.71569 3.21799 4.09202C3 4.51984 3 5.07989 3 6.2V9.8C3 10.9201 3 11.4802 3.21799 11.908C3.40973 12.2843 3.71569 12.5903 4.09202 12.782C4.51984 13 5.07989 13 6.2 13H7" stroke="#2359FB" stroke-width="1.5" stroke-linecap="round"/>
  <rect x="7" y="7" width="10" height="10" rx="2" stroke="#2359FB" stroke-width="1.5" stroke-linecap="round"/>
</svg>
