<svg width="20" height="20" viewBox="0 0 20 20" fill="none" xmlns="http://www.w3.org/2000/svg">
  <g clip-path="url(#clip0_3667_9284)">
    <path d="M9.304 1.696C9.49577 1.50423 9.59166 1.40834 9.70277 1.37094C9.80055 1.33801 9.90612 1.33615 10.005 1.36559C10.1174 1.39905 10.2166 1.49149 10.415 1.67636L13.934 4.95487C14.0459 5.05912 14.1018 5.11124 14.1387 5.1739C14.1714 5.22938 14.193 5.29065 14.2024 5.35433C14.2131 5.42625 14.2022 5.50195 14.1806 5.65334L13.8857 7.71778C13.836 8.06581 13.8111 8.23983 13.8664 8.36872C13.9148 8.48168 14.0031 8.57284 14.1145 8.62481C14.2416 8.68411 14.4163 8.66476 14.7657 8.62606L16.8317 8.39722C16.9811 8.38068 17.0557 8.3724 17.1262 8.3848C17.1887 8.39577 17.2484 8.41852 17.3023 8.45181C17.3632 8.48942 17.4135 8.54525 17.5141 8.65692L18.4335 9.67745C18.6122 9.87591 18.7016 9.97514 18.7334 10.0866C18.7614 10.1847 18.7586 10.2891 18.7256 10.3856C18.6881 10.4953 18.5936 10.5897 18.4047 10.7786L11.6921 17.4912C11.4941 17.6892 11.3951 17.7882 11.2809 17.8253C11.1805 17.858 11.0723 17.858 10.9719 17.8253C10.8577 17.7882 10.7587 17.6892 10.5607 17.4912L2.60043 9.53094C2.40242 9.33293 2.30342 9.23393 2.26633 9.11976C2.2337 9.01934 2.2337 8.91117 2.26633 8.81074C2.30342 8.69658 2.40242 8.59758 2.60043 8.39957L9.304 1.696Z" fill="white" stroke="#717A84" stroke-width="1.5" stroke-linecap="round" stroke-linejoin="round"/>
    <path d="M2.61028 9.54074L10.5509 17.4814C10.752 17.6825 10.8526 17.783 10.9682 17.82C11.0699 17.8524 11.1794 17.8515 11.2805 17.8173C11.3955 17.7784 11.4943 17.6761 11.6919 17.4716L13.1933 15.9176L13.1933 15.9175C13.3849 15.7193 13.4807 15.6201 13.516 15.5068C13.5471 15.4071 13.5462 15.3002 13.5134 15.2011C13.4761 15.0884 13.3786 14.9909 13.1837 14.796L5.29556 6.90805C5.1006 6.7131 5.00313 6.61563 4.89045 6.57837C4.79132 6.54559 4.68441 6.54468 4.58473 6.57574C4.47143 6.61105 4.37229 6.70683 4.17401 6.8984L2.6201 8.39971C2.41556 8.59733 2.31329 8.69614 2.27438 8.81114C2.24017 8.91228 2.23923 9.02171 2.2717 9.12342C2.30862 9.23908 2.40917 9.33963 2.61028 9.54074Z" fill="black" fill-opacity="0.08" stroke="#717A84" stroke-width="1.5" stroke-linecap="round" stroke-linejoin="round"/>
    <path fill-rule="evenodd" clip-rule="evenodd" d="M5.28174 12.2124L7.87936 14.81L5.67973 17.0096C4.96242 17.727 3.79943 17.727 3.08211 17.0096C2.3648 16.2923 2.3648 15.1293 3.08211 14.412L5.28174 12.2124Z" fill="black" fill-opacity="0.08"/>
    <path d="M5.28174 12.2124L5.81207 11.6821C5.51918 11.3892 5.0443 11.3892 4.75141 11.6821L5.28174 12.2124ZM7.87936 14.81L8.40969 15.3403C8.70258 15.0475 8.70258 14.5726 8.40969 14.2797L7.87936 14.81ZM4.75141 12.7427L7.34903 15.3403L8.40969 14.2797L5.81207 11.6821L4.75141 12.7427ZM7.34903 14.2797L5.1494 16.4793L6.21006 17.54L8.40969 15.3403L7.34903 14.2797ZM5.1494 16.4793C4.72498 16.9037 4.03686 16.9037 3.61244 16.4793L2.55178 17.54C3.56199 18.5502 5.19986 18.5502 6.21006 17.54L5.1494 16.4793ZM3.61244 16.4793C3.18803 16.0549 3.18803 15.3668 3.61244 14.9424L2.55178 13.8817C1.54158 14.8919 1.54158 16.5298 2.55178 17.54L3.61244 16.4793ZM3.61244 14.9424L5.81207 12.7427L4.75141 11.6821L2.55178 13.8817L3.61244 14.9424Z" fill="#717A84"/>
  </g>
  <defs>
    <clipPath id="clip0_3667_9284">
      <rect width="20" height="20" fill="white"/>
    </clipPath>
  </defs>
</svg>
