<svg width="20" height="20" viewBox="0 0 20 20" fill="none" xmlns="http://www.w3.org/2000/svg">
  <path d="M4 6.79744C4 5.81825 4 5.32865 4.19056 4.95464C4.35819 4.62566 4.62566 4.35819 4.95464 4.19056C5.32865 4 5.81825 4 6.79744 4H14.2026C15.1818 4 15.6714 4 16.0454 4.19056C16.3743 4.35819 16.6418 4.62566 16.8094 4.95464C17 5.32865 17 5.81825 17 6.79744V10.2026C17 11.1818 17 11.6714 16.8094 12.0454C16.6418 12.3743 16.3743 12.6418 16.0454 12.8094C15.6714 13 15.1818 13 14.2026 13H12.0965C11.7636 13 11.5972 13 11.4368 13.0302C11.2946 13.057 11.1562 13.1013 11.0248 13.1622C10.8768 13.2308 10.7414 13.3276 10.4705 13.5211L7 16V13H6.79744C5.81825 13 5.32865 13 4.95464 12.8094C4.62566 12.6418 4.35819 12.3743 4.19056 12.0454C4 11.6714 4 11.1818 4 10.2026V6.79744Z" fill="#2359FB" fill-opacity="0.16" stroke="#2359FB" stroke-width="1.5" stroke-linecap="round" stroke-linejoin="round"/>
</svg>
