<svg width="20" height="20" viewBox="0 0 20 20" fill="none" xmlns="http://www.w3.org/2000/svg">
  <rect x="10.2573" y="16.6211" width="9" height="3" rx="1.5" transform="rotate(-45 10.2573 16.6211)" fill="black" fill-opacity="0.08" stroke="#717A84" stroke-width="1.5" stroke-linecap="round"/>
  <path d="M3.20673 4.13705L3.94463 4.00289L3.20673 4.13705ZM3.16048 3.42688L3.85148 3.71846L3.85148 3.71846L3.16048 3.42688ZM4.8922 13.4072L4.1543 13.5413L4.8922 13.4072ZM5.00287 13.8087L5.63542 13.4058L5.63541 13.4058L5.00287 13.8087ZM5.19056 13.982L4.83954 14.6447H4.83954L5.19056 13.982ZM5.59969 14.0601L5.52506 14.8064L5.56228 14.8101H5.59969V14.0601ZM5.5997 14.0601L5.67433 13.3138L5.63711 13.3101H5.5997V14.0601ZM12.1624 14.7164L12.0878 15.4627L12.4414 15.498L12.6927 15.2467L12.1624 14.7164ZM14.7163 12.1625L15.2466 12.6929L15.4979 12.4415L15.4625 12.0879L14.7163 12.1625ZM14.5 10.0001L15.2463 9.92551L14.5 10.0001ZM14.06 5.59982L13.3137 5.67445V5.67445L14.06 5.59982ZM13.9818 5.19068L13.319 5.54169L13.319 5.5417L13.9818 5.19068ZM13.8086 5.003L13.4056 5.63554L13.4057 5.63554L13.8086 5.003ZM13.4071 4.89233L13.5412 4.15442L13.4071 4.89233ZM4.13693 3.20685L4.00277 3.94475L4.13693 3.20685ZM3.42676 3.1606L3.13518 2.4696H3.13518L3.42676 3.1606ZM3.94463 4.00289C3.92693 3.90555 3.91301 3.82884 3.90214 3.76269C3.89123 3.69627 3.88551 3.65287 3.88283 3.62309C3.8767 3.5549 3.89348 3.61891 3.85148 3.71846L2.46948 3.1353C2.36955 3.37211 2.37473 3.60023 2.38885 3.75733C2.40272 3.91173 2.43666 4.09429 2.46882 4.27122L3.94463 4.00289ZM5.63011 13.273L3.94463 4.00289L2.46882 4.27122L4.1543 13.5413L5.63011 13.273ZM5.63541 13.4058C5.66791 13.4568 5.67466 13.4934 5.66885 13.4707C5.66578 13.4587 5.66122 13.4386 5.65437 13.4036C5.6475 13.3686 5.64004 13.3276 5.63011 13.273L4.1543 13.5413C4.18095 13.6879 4.21936 13.9747 4.37033 14.2117L5.63541 13.4058ZM5.54157 13.3192C5.57982 13.3394 5.61216 13.3693 5.63542 13.4058L4.37033 14.2117C4.48661 14.3942 4.64829 14.5435 4.83954 14.6447L5.54157 13.3192ZM5.67432 13.3138C5.61909 13.3083 5.57765 13.3041 5.54219 13.3001C5.50681 13.2961 5.48638 13.2931 5.4742 13.291C5.45111 13.2871 5.48812 13.2909 5.54157 13.3192L4.83954 14.6447C5.08785 14.7762 5.3768 14.7916 5.52506 14.8064L5.67432 13.3138ZM5.5997 13.3101H5.59969V14.8101H5.5997V13.3101ZM12.237 13.9701L5.67433 13.3138L5.52507 14.8064L12.0878 15.4627L12.237 13.9701ZM12.6927 15.2467L15.2466 12.6929L14.1859 11.6322L11.6321 14.186L12.6927 15.2467ZM13.7537 10.0748L13.97 12.2372L15.4625 12.0879L15.2463 9.92551L13.7537 10.0748ZM13.3137 5.67445L13.7537 10.0748L15.2463 9.92551L14.8063 5.52519L13.3137 5.67445ZM13.319 5.5417C13.2907 5.48824 13.287 5.45123 13.2909 5.47432C13.293 5.4865 13.2959 5.50693 13.3 5.54231C13.304 5.57778 13.3082 5.61922 13.3137 5.67445L14.8063 5.52519C14.7914 5.37694 14.7761 5.08798 14.6446 4.83966L13.319 5.5417ZM13.4057 5.63554C13.3691 5.61228 13.3393 5.57995 13.319 5.54169L14.6446 4.83966C14.5433 4.64841 14.3941 4.48673 14.2116 4.37045L13.4057 5.63554ZM13.2729 5.63023C13.3275 5.64016 13.3685 5.64762 13.4035 5.65449C13.4385 5.66135 13.4586 5.6659 13.4706 5.66897C13.4933 5.67478 13.4567 5.66804 13.4056 5.63554L14.2116 4.37045C13.9746 4.21948 13.6878 4.18108 13.5412 4.15442L13.2729 5.63023ZM4.00277 3.94475L13.2729 5.63023L13.5412 4.15442L4.27109 2.46895L4.00277 3.94475ZM3.71834 3.8516C3.61879 3.89361 3.55478 3.87683 3.62297 3.88295C3.65275 3.88563 3.69615 3.89135 3.76257 3.90226C3.82872 3.91313 3.90543 3.92705 4.00277 3.94475L4.27109 2.46895C4.09417 2.43678 3.91161 2.40285 3.75721 2.38897C3.60011 2.37486 3.37198 2.36968 3.13518 2.4696L3.71834 3.8516ZM3.85148 3.71846C3.82614 3.77849 3.77837 3.82627 3.71834 3.8516L3.13518 2.4696C2.835 2.59626 2.59614 2.83512 2.46948 3.1353L3.85148 3.71846Z" fill="#717A84"/>
  <path d="M3.5 3.5L8 8" stroke="#717A84" stroke-width="1.5" stroke-linecap="round"/>
  <path d="M9 9V9.00001" stroke="#717A84" stroke-width="3" stroke-linecap="round"/>
</svg>
