<svg width="20" height="20" viewBox="0 0 20 20" fill="none" xmlns="http://www.w3.org/2000/svg">
  <rect x="10.2573" y="16.6213" width="9" height="3" rx="1.5" transform="rotate(-45 10.2573 16.6213)" fill="#2359FB" fill-opacity="0.16" stroke="#2359FB" stroke-width="1.5" stroke-linecap="round"/>
  <path fill-rule="evenodd" clip-rule="evenodd" d="M3.16036 3.42676C3.10244 3.56401 3.13716 3.75499 3.2066 4.13693L4.89208 13.4071C4.93073 13.6196 4.95006 13.7259 5.00275 13.8086C5.04926 13.8816 5.11393 13.9413 5.19044 13.9818C5.27711 14.0277 5.3846 14.0385 5.59958 14.06L12.1623 14.7163L14.7161 12.1624L14.4999 10L14.0599 5.5997C14.0384 5.38472 14.0276 5.27723 13.9817 5.19056C13.9412 5.11406 13.8815 5.04939 13.8085 5.00287C13.7258 4.95018 13.6195 4.93085 13.4069 4.8922L4.13681 3.20673C3.75486 3.13728 3.56389 3.10256 3.42664 3.16048C3.30657 3.21114 3.21102 3.30669 3.16036 3.42676Z" fill="#2359FB" fill-opacity="0.16"/>
  <path d="M3.2066 4.13693L3.94451 4.00277L3.2066 4.13693ZM3.16036 3.42676L2.46935 3.13518L2.46935 3.13518L3.16036 3.42676ZM4.89208 13.4071L4.15418 13.5412L4.15418 13.5412L4.89208 13.4071ZM5.00275 13.8086L5.63529 13.4056L5.63529 13.4056L5.00275 13.8086ZM5.19044 13.9818L5.54145 13.319L5.54145 13.319L5.19044 13.9818ZM5.59958 14.06L5.6742 13.3137L5.6742 13.3137L5.59958 14.06ZM12.1623 14.7163L12.0877 15.4625L12.4413 15.4979L12.6926 15.2466L12.1623 14.7163ZM14.7161 12.1624L15.2465 12.6927L15.4978 12.4414L15.4624 12.0878L14.7161 12.1624ZM14.4999 10L15.2462 9.92539L15.2462 9.92539L14.4999 10ZM14.0599 5.5997L13.3136 5.67432L13.3136 5.67433L14.0599 5.5997ZM13.9817 5.19056L13.3189 5.54157L13.3189 5.54157L13.9817 5.19056ZM13.8085 5.00287L13.4055 5.63541L13.4055 5.63542L13.8085 5.00287ZM13.4069 4.8922L13.5411 4.1543L13.4069 4.8922ZM4.13681 3.20673L4.00264 3.94463L4.00264 3.94463L4.13681 3.20673ZM3.42664 3.16048L3.13506 2.46948L3.13506 2.46948L3.42664 3.16048ZM3.94451 4.00277C3.92681 3.90543 3.91289 3.82872 3.90202 3.76257C3.89111 3.69615 3.88539 3.65275 3.88271 3.62297C3.87658 3.55478 3.89336 3.61879 3.85136 3.71834L2.46935 3.13518C2.36943 3.37198 2.37461 3.60011 2.38873 3.75721C2.4026 3.91161 2.43653 4.09417 2.4687 4.2711L3.94451 4.00277ZM5.62999 13.2729L3.94451 4.00277L2.4687 4.2711L4.15418 13.5412L5.62999 13.2729ZM5.63529 13.4056C5.66779 13.4567 5.67453 13.4933 5.66872 13.4706C5.66566 13.4586 5.6611 13.4385 5.65425 13.4035C5.64738 13.3685 5.63991 13.3275 5.62999 13.2729L4.15418 13.5412C4.18083 13.6878 4.21923 13.9746 4.37021 14.2116L5.63529 13.4056ZM5.54145 13.319C5.5797 13.3393 5.61204 13.3691 5.63529 13.4056L4.37021 14.2116C4.48649 14.3941 4.64817 14.5433 4.83942 14.6446L5.54145 13.319ZM5.6742 13.3137C5.61897 13.3082 5.57753 13.304 5.54206 13.3C5.50669 13.2959 5.48626 13.293 5.47407 13.2909C5.45099 13.2869 5.488 13.2907 5.54145 13.319L4.83942 14.6446C5.08773 14.7761 5.3767 14.7914 5.52495 14.8063L5.6742 13.3137ZM12.2369 13.97L5.6742 13.3137L5.52495 14.8063L12.0877 15.4625L12.2369 13.97ZM12.6926 15.2466L15.2465 12.6927L14.1858 11.6321L11.632 14.1859L12.6926 15.2466ZM13.7536 10.0746L13.9699 12.237L15.4624 12.0878L15.2462 9.92539L13.7536 10.0746ZM13.3136 5.67433L13.7536 10.0746L15.2462 9.92539L14.8061 5.52507L13.3136 5.67433ZM13.3189 5.54157C13.2906 5.48812 13.2868 5.45111 13.2908 5.4742C13.2929 5.48638 13.2958 5.50681 13.2999 5.54219C13.3039 5.57765 13.3081 5.61909 13.3136 5.67432L14.8061 5.52507C14.7913 5.37682 14.776 5.08785 14.6445 4.83954L13.3189 5.54157ZM13.4055 5.63542C13.369 5.61216 13.3392 5.57982 13.3189 5.54157L14.6445 4.83954C14.5432 4.64829 14.394 4.48661 14.2115 4.37033L13.4055 5.63542ZM13.2728 5.63011C13.3274 5.64004 13.3684 5.6475 13.4034 5.65437C13.4383 5.66122 13.4585 5.66578 13.4704 5.66885C13.4931 5.67466 13.4565 5.66791 13.4055 5.63541L14.2115 4.37033C13.9745 4.21936 13.6877 4.18095 13.5411 4.1543L13.2728 5.63011ZM4.00264 3.94463L13.2728 5.63011L13.5411 4.1543L4.27097 2.46882L4.00264 3.94463ZM3.71822 3.85148C3.61867 3.89348 3.55466 3.8767 3.62284 3.88283C3.65263 3.88551 3.69603 3.89123 3.76245 3.90214C3.8286 3.91301 3.90531 3.92693 4.00264 3.94463L4.27097 2.46882C4.09404 2.43666 3.91149 2.40272 3.75708 2.38885C3.59999 2.37473 3.37186 2.36955 3.13506 2.46948L3.71822 3.85148ZM3.85136 3.71834C3.82602 3.77837 3.77825 3.82615 3.71822 3.85148L3.13506 2.46948C2.83488 2.59614 2.59602 2.835 2.46935 3.13518L3.85136 3.71834Z" fill="#2359FB"/>
  <path d="M3.5 3.5L8 8" stroke="#2359FB" stroke-width="1.5" stroke-linecap="round"/>
  <path d="M9 9V9.00001" stroke="#2359FB" stroke-width="3" stroke-linecap="round"/>
</svg>
