<svg width="15" height="15" viewBox="0 0 15 15" fill="none" xmlns="http://www.w3.org/2000/svg">
  <path fill-rule="evenodd" clip-rule="evenodd" d="M6.36666 5.73981L10.9336 1.17285C10.9543 1.15222 10.9818 1.14003 11.011 1.13868L12.2054 1.0833C12.8262 1.05451 13.1366 1.04012 13.3682 1.15478C13.5717 1.25547 13.7348 1.42238 13.8308 1.62808C13.9402 1.86231 13.9187 2.17228 13.8757 2.79223L13.8355 3.37187C13.8202 3.59293 13.8125 3.70346 13.7823 3.80698C13.7555 3.8988 13.7157 3.9863 13.664 4.06681C13.6058 4.15757 13.5274 4.23591 13.3707 4.39259L13.3707 4.3926L12.4961 5.26727L10.8129 5.29722L10.6743 7.08899L8.94253 8.8208C8.98031 9.04163 9 9.26865 9 9.50026C9 11.7094 7.20914 13.5003 5 13.5003C2.79086 13.5003 1 11.7094 1 9.50026C1 7.29112 2.79086 5.50026 5 5.50026C5.47999 5.50026 5.94024 5.5848 6.36666 5.73981Z" fill="#2359FB" fill-opacity="0.16"/>
  <path d="M6.36666 5.73981L6.11043 6.44469L6.55928 6.60785L6.89699 6.27014L6.36666 5.73981ZM10.9336 1.17285L10.4033 0.642516L10.4033 0.64252L10.9336 1.17285ZM11.011 1.13868L11.0457 1.88787L11.0457 1.88787L11.011 1.13868ZM12.2054 1.0833L12.1707 0.334102L12.1707 0.334102L12.2054 1.0833ZM13.3682 1.15478L13.0356 1.82696L13.0356 1.82696L13.3682 1.15478ZM13.8308 1.62808L14.5105 1.31087L14.5105 1.31087L13.8308 1.62808ZM13.8757 2.79223L14.6239 2.84409L14.6239 2.84409L13.8757 2.79223ZM13.8355 3.37187L14.5837 3.42374L13.8355 3.37187ZM13.7823 3.80698L14.5023 4.01718L14.5023 4.01717L13.7823 3.80698ZM13.664 4.06681L13.0328 3.66174L13.0328 3.66174L13.664 4.06681ZM13.3707 4.39259L12.8404 3.86226L12.8404 3.86226L13.3707 4.39259ZM12.4961 5.26727L12.5094 6.01715L12.8122 6.01176L13.0264 5.7976L12.4961 5.26727ZM10.8129 5.29722L10.7996 4.54734L10.1177 4.55947L10.0652 5.23938L10.8129 5.29722ZM10.6743 7.08899L11.2047 7.61932L11.4007 7.42327L11.4221 7.14683L10.6743 7.08899ZM8.94253 8.8208L8.4122 8.29047L8.13783 8.56484L8.20327 8.9473L8.94253 8.8208ZM6.89699 6.27014L11.464 1.70318L10.4033 0.64252L5.83633 5.20948L6.89699 6.27014ZM11.4639 1.70318C11.3524 1.8147 11.2033 1.88057 11.0457 1.88787L10.9763 0.389484C10.7604 0.399492 10.5561 0.489729 10.4033 0.642516L11.4639 1.70318ZM11.0457 1.88787L12.2402 1.83249L12.1707 0.334102L10.9763 0.389484L11.0457 1.88787ZM12.2402 1.83249C12.5636 1.81749 12.759 1.80908 12.9037 1.81468C13.0408 1.82 13.0556 1.83686 13.0356 1.82696L13.7009 0.482594C13.4492 0.358034 13.193 0.324771 12.9618 0.31581C12.7382 0.307147 12.468 0.320316 12.1707 0.334102L12.2402 1.83249ZM13.0356 1.82696C13.0864 1.85213 13.1272 1.89386 13.1512 1.94529L14.5105 1.31087C14.3424 0.950895 14.057 0.658799 13.7009 0.482594L13.0356 1.82696ZM13.1512 1.94528C13.1418 1.92505 13.1583 1.94026 13.1605 2.0774C13.1628 2.22224 13.1499 2.41735 13.1275 2.74036L14.6239 2.84409C14.6445 2.54716 14.6638 2.27731 14.6603 2.05361C14.6566 1.82223 14.6292 1.56533 14.5105 1.31087L13.1512 1.94528ZM13.1275 2.74036L13.0873 3.32001L14.5837 3.42374L14.6239 2.84409L13.1275 2.74036ZM13.0873 3.32001C13.0792 3.43649 13.0746 3.50132 13.0691 3.55035C13.0644 3.59305 13.0613 3.6006 13.0624 3.59679L14.5023 4.01717C14.5604 3.81803 14.5706 3.61275 14.5837 3.42374L13.0873 3.32001ZM13.0624 3.59678C13.0557 3.61974 13.0457 3.64161 13.0328 3.66174L14.2952 4.47187C14.3856 4.33099 14.4553 4.17787 14.5023 4.01718L13.0624 3.59678ZM13.0328 3.66174C13.0349 3.6584 13.0313 3.6657 13.0022 3.69733C12.9688 3.73364 12.923 3.7797 12.8404 3.86226L13.9011 4.92292C14.035 4.78895 14.1832 4.64647 14.2952 4.47187L13.0328 3.66174ZM12.8404 3.86226L12.8404 3.86227L13.9011 4.92293L13.9011 4.92292L12.8404 3.86226ZM12.8404 3.86227L11.9657 4.73694L13.0264 5.7976L13.9011 4.92293L12.8404 3.86227ZM12.4827 4.51739L10.7996 4.54734L10.8263 6.0471L12.5094 6.01715L12.4827 4.51739ZM10.0652 5.23938L9.92657 7.03116L11.4221 7.14683L11.5607 5.35506L10.0652 5.23938ZM10.144 6.55866L8.4122 8.29047L9.47286 9.35113L11.2047 7.61932L10.144 6.55866ZM8.20327 8.9473C8.23394 9.12652 8.25 9.31122 8.25 9.50026H9.75C9.75 9.22608 9.72669 8.95675 9.68178 8.6943L8.20327 8.9473ZM8.25 9.50026C8.25 11.2952 6.79493 12.7503 5 12.7503V14.2503C7.62335 14.2503 9.75 12.1236 9.75 9.50026H8.25ZM5 12.7503C3.20507 12.7503 1.75 11.2952 1.75 9.50026H0.25C0.25 12.1236 2.37665 14.2503 5 14.2503V12.7503ZM1.75 9.50026C1.75 7.70534 3.20507 6.25026 5 6.25026V4.75026C2.37665 4.75026 0.25 6.87691 0.25 9.50026H1.75ZM5 6.25026C5.39135 6.25026 5.76494 6.3191 6.11043 6.44469L6.62289 5.03494C6.11553 4.85051 5.56864 4.75026 5 4.75026V6.25026Z" fill="#2359FB"/>
</svg>
