<svg width="20" height="20" viewBox="0 0 20 20" fill="none" xmlns="http://www.w3.org/2000/svg">
	<path fill-rule="evenodd" clip-rule="evenodd" d="M15 9C17.2091 9 19 7.20914 19 5C19 2.79086 17.2091 1 15 1C12.7909 1 11 2.79086 11 5C11 5.47214 11.0818 5.92518 11.232 6.34571L13.4095 5.56804C13.9176 5.38655 14.1717 5.29581 14.338 5.35353C14.4826 5.40371 14.5963 5.51736 14.6465 5.66197C14.7042 5.82828 14.6134 6.08235 14.432 6.5905L13.6543 8.76799C14.0748 8.9182 14.5279 9 15 9Z" fill="black" fill-opacity="0.08"/>
	<path d="M13.4095 5.56803L3.3466 9.16193L3.34659 9.16193C2.63528 9.41597 2.27962 9.54299 2.18939 9.71988C2.11139 9.8728 2.11729 10.055 2.20502 10.2026C2.3065 10.3733 2.66963 10.477 3.39589 10.6845L7.57266 11.8779C7.72863 11.9225 7.80662 11.9447 7.87063 11.9869C7.92729 12.0242 7.97575 12.0727 8.01308 12.1294C8.05525 12.1934 8.07753 12.2714 8.1221 12.4273L9.31546 16.6041L9.31546 16.6041C9.52296 17.3304 9.62671 17.6935 9.79739 17.795C9.94495 17.8827 10.1272 17.8886 10.2801 17.8106C10.457 17.7204 10.584 17.3647 10.8381 16.6534L10.8381 16.6534L14.432 6.5905C14.6134 6.08235 14.7042 5.82828 14.6465 5.66197C14.5963 5.51736 14.4826 5.40371 14.338 5.35353C14.1717 5.29581 13.9176 5.38655 13.4095 5.56803Z" fill="black" fill-opacity="0.08" stroke="#717A84" stroke-width="1.5" stroke-linecap="round"/>
</svg>
