<svg width="15" height="15" viewBox="0 0 15 15" fill="none" xmlns="http://www.w3.org/2000/svg">
<path d="M13.9986 5.76923C13.9986 5.76923 13.2708 6.45347 12.0909 7.13586M0.952148 5.76923C0.952148 5.76923 1.69235 6.45347 2.88462 7.13586M2.88462 7.13586L2.30769 7.91445M2.88462 7.13586C3.36468 7.41062 3.91804 7.68508 4.52587 7.91445M4.52587 7.91445L4.03846 9.06829M4.52587 7.91445C5.09063 8.12756 5.70242 8.30174 6.34615 8.40108M6.34615 8.40108C6.72093 8.45891 7.10654 8.49137 7.5 8.49137C7.89346 8.49137 8.27848 8.45891 8.65221 8.40108M6.34615 8.40108V9.64522M8.65221 8.40108V9.64522M8.65221 8.40108C9.21584 8.31386 9.7538 8.16894 10.2563 7.99064M10.2563 7.99064L10.9615 9.06829M10.2563 7.99064C10.9421 7.74729 11.5619 7.44176 12.0909 7.13586M12.0909 7.13586L12.6923 7.91445" stroke="currentColor" stroke-miterlimit="10" stroke-linecap="round" stroke-linejoin="round"/>
</svg>
