<svg width="15" height="16" viewBox="0 0 15 16" fill="none" xmlns="http://www.w3.org/2000/svg">
<path fill-rule="evenodd" clip-rule="evenodd" d="M14.8439 8.06005C15.0013 7.88554 15.0013 7.62911 14.8439 7.4546C13.9689 6.48478 11.004 3.51788 7.4805 3.51788C3.95696 3.51788 0.992131 6.48478 0.11711 7.4546C-0.0403387 7.62911 -0.0403389 7.88554 0.11711 8.06005C0.99213 9.02987 3.95696 11.9968 7.4805 11.9968C11.004 11.9968 13.9689 9.02987 14.8439 8.06005ZM10.1604 7.8257C10.1604 9.26829 8.99177 10.4377 7.55021 10.4377C6.10865 10.4377 4.94003 9.26829 4.94003 7.8257C4.94003 6.3831 6.10865 5.21365 7.55021 5.21365C8.99177 5.21365 10.1604 6.3831 10.1604 7.8257Z" fill="currentColor"/>
</svg>
