<svg width="14" height="14" viewBox="0 0 14 14" fill="none" xmlns="http://www.w3.org/2000/svg">
<path d="M7 0C3.14031 0 0 3.14031 0 7C0 10.8597 3.14031 14 7 14C10.8597 14 14 10.8597 14 7C14 3.14031 10.8597 0 7 0ZM7 6.384C8.12323 6.384 9.03646 7.29723 9.03646 8.42262C9.03646 9.35846 8.39892 10.1392 7.53846 10.3772V10.9178C7.53846 11.2162 7.29723 11.4563 7 11.4563C6.70277 11.4563 6.46154 11.2162 6.46154 10.9178V10.3772C5.60108 10.1392 4.96354 9.35954 4.96354 8.42262C4.96354 8.12538 5.20477 7.88415 5.502 7.88415C5.79923 7.88415 6.04046 8.12538 6.04046 8.42262C6.04046 8.95138 6.47015 9.38215 7 9.38215C7.52985 9.38215 7.95954 8.95246 7.95954 8.42262C7.95954 7.89277 7.52985 7.46092 7 7.46092C5.87677 7.46092 4.96354 6.54769 4.96354 5.42446C4.96354 4.48862 5.60108 3.70785 6.46154 3.47092V2.92815C6.46154 2.62985 6.70277 2.38969 7 2.38969C7.29723 2.38969 7.53846 2.62985 7.53846 2.92815V3.47092C8.39892 3.70892 9.03646 4.48862 9.03646 5.42446C9.03646 5.72277 8.79523 5.96292 8.498 5.96292C8.20077 5.96292 7.95954 5.72277 7.95954 5.42446C7.95954 4.89569 7.52985 4.46492 7 4.46492C6.47015 4.46492 6.04046 4.89462 6.04046 5.42446C6.04046 5.95215 6.47123 6.384 7 6.384Z" fill="#F1F5F9"/>
</svg>
