<svg width="14" height="14" viewBox="0 0 14 14" fill="none" xmlns="http://www.w3.org/2000/svg">
  <path d="M6.005 7.001a1.101 1.109 0 0 0 1.1 1.108c.426 0 .792-.247.974-.604l.003.003 2.007-3.649-3.524 2.178.003.003c-.335.19-.564.547-.564.962zm5.53-5.28C10.408.728 8.952.095 7.289 0v1.684c1.386.089 2.203.533 3.023 1.225zm.785 4.755h1.669c-.112-1.676-.763-3.054-1.773-4.182l-1.181 1.183c.711.821 1.179 1.882 1.285 3zm.008.838c-.177 2.794-2.474 5.01-5.28 5.01-2.921 0-5.385-2.387-5.385-5.33 0-2.802 2.298-5.094 4.794-5.309V0C2.853.218 0 3.274 0 7.001 0 10.868 3.166 14 7.004 14c3.724 0 6.818-3.054 6.996-6.686z" fill="#F1F5F9"/>
</svg>
