<svg width="14" height="14" viewBox="0 0 14 14" fill="none" xmlns="http://www.w3.org/2000/svg">
<path fill-rule="evenodd" clip-rule="evenodd" d="M7 14C10.866 14 14 10.866 14 7C14 3.13401 10.866 0 7 0C3.13401 0 0 3.13401 0 7C0 10.866 3.13401 14 7 14ZM6.07955 4.49796C6.13258 4.54862 6.20076 4.57395 6.28409 4.57395H7.70455C7.78788 4.57395 7.85606 4.54862 7.90909 4.49796C7.9697 4.44007 8 4.37133 8 4.29172V3.28223C8 3.20262 7.9697 3.13749 7.90909 3.08684C7.85606 3.02895 7.78788 3 7.70455 3H6.28409C6.20833 3 6.14015 3.02895 6.07955 3.08684C6.02652 3.13749 6 3.20262 6 3.28223V4.29172C6 4.37133 6.02652 4.44007 6.07955 4.49796ZM6.07955 10.924C6.14015 10.9747 6.20833 11 6.28409 11H7.70455C7.78788 11 7.85606 10.9747 7.90909 10.924C7.9697 10.8734 8 10.8082 8 10.7286V5.62687C8 5.54726 7.9697 5.48213 7.90909 5.43148C7.85606 5.38082 7.78788 5.3555 7.70455 5.3555H6.28409C6.20833 5.3555 6.14015 5.38082 6.07955 5.43148C6.02652 5.48213 6 5.54726 6 5.62687V10.7286C6 10.801 6.02652 10.8661 6.07955 10.924Z" fill="#F1F5F9"/>
</svg>
