<svg width="20" height="19" viewBox="0 0 20 19" fill="none" xmlns="http://www.w3.org/2000/svg">
<path fill-rule="evenodd" clip-rule="evenodd" d="M10.4656 9.00531C12.0514 10.5911 14.6224 10.5911 16.2082 9.00531C17.794 7.41955 17.794 4.84852 16.2082 3.26276C14.6224 1.67699 12.0514 1.67699 10.4656 3.26276C8.87987 4.84852 8.87987 7.41955 10.4656 9.00531ZM14.5 6.5C15.3284 6.5 16 5.82843 16 5C16 4.17157 15.3284 3.5 14.5 3.5C13.6716 3.5 13 4.17157 13 5C13 5.82843 13.6716 6.5 14.5 6.5Z" fill="#F1F5F9"/>
<path d="M3.49274 13.5173L10.0557 6.95435L12.5168 9.41544L10.876 11.0562H9.2353V12.6969L7.59457 12.6969L7.59457 14.3376L5.95384 14.3376L5.95384 15.9784L3.49274 15.9784L3.49274 13.5173Z" fill="#F1F5F9"/>
</svg>
