<svg width="12" height="18" viewBox="0 0 12 18" fill="none" xmlns="http://www.w3.org/2000/svg">
<path d="M10.9048 6.12318C10.9048 3.29352 8.68771 1 5.95238 1C3.21705 1 1 3.29352 1 6.12318C1 7.5529 1.74382 8.95284 2.34847 10.0599C2.73237 10.7747 3.06349 11.3903 3.09229 11.7875V14.0413C3.09229 15.6745 4.37357 17 5.95238 17C7.53119 17 8.81248 15.6745 8.81248 14.0413V11.8073C8.84127 11.3903 9.17239 10.7797 9.55629 10.0599C10.1561 8.94291 10.9048 7.54794 10.9048 6.12318Z" fill="white" stroke="#91A9C0" stroke-opacity="0.5" stroke-miterlimit="10" stroke-linecap="round" stroke-linejoin="round"/>
<path d="M3.28613 13.5714C4.93925 14.5873 6.97177 14.5873 8.61947 13.5714" stroke="#91A9C0" stroke-opacity="0.5" stroke-miterlimit="10" stroke-linecap="round" stroke-linejoin="round"/>
<path d="M3.28613 11.6666C4.93925 12.6825 6.97177 12.6825 8.61947 11.6666" stroke="#91A9C0" stroke-opacity="0.5" stroke-miterlimit="10" stroke-linecap="round" stroke-linejoin="round"/>
</svg>
