<svg width="15" height="15" viewBox="0 0 15 15" fill="none" xmlns="http://www.w3.org/2000/svg">
<path d="M0 1C0 0.447715 0.447715 0 1 0H8C8.55229 0 9 0.447715 9 1V2C9 2.55228 8.55228 3 8 3H4C3.44772 3 3 3.44772 3 4V11C3 11.5523 3.44772 12 4 12H8C8.55228 12 9 12.4477 9 13V14C9 14.5523 8.55229 15 8 15H1C0.447715 15 0 14.5523 0 14V1Z" fill="#F1F5F9"/>
<rect x="5" y="6" width="5" height="3" rx="0.5" fill="#F1F5F9"/>
<path d="M14.3544 7.08069C14.658 7.27783 14.658 7.72217 14.3544 7.91931L9.77235 10.8955C9.43972 11.1115 9 10.8728 9 10.4761L9 4.52386C9 4.12721 9.43972 3.88849 9.77235 4.10454L14.3544 7.08069Z" fill="#F1F5F9"/>
</svg>
