<svg width="17" height="14" viewBox="0 0 17 14" fill="none" xmlns="http://www.w3.org/2000/svg">
<path d="M8.035 7.425C9.206 6.727 10 5.46 10 4C10 1.794 8.206 0 6 0C3.794 0 2 1.794 2 4C2 5.46 2.794 6.727 3.965 7.425C1.703 8.372 0 10.804 0 13.5C0 13.776 0.224 14 0.5 14H11.5C11.776 14 12 13.776 12 13.5C12 10.804 10.297 8.372 8.035 7.425Z" fill="#F1F5F9"/>
<path d="M11.0002 4C11.0002 5.25317 10.5342 6.38867 9.77539 7.25879C11.3091 8.35132 12.4507 10.0615 12.8477 12L15.6353 11.999C15.8108 11.999 15.9653 11.9082 16.0544 11.7715C16.1055 11.6934 16.1353 11.5996 16.1353 11.499C16.1353 9.66016 15.0232 8.08008 13.4382 7.38281C14.1602 6.83496 14.6353 5.97461 14.6353 5C14.6353 3.3457 13.2893 2 11.6353 2C11.291 2 10.9602 2.05884 10.6523 2.16602C10.877 2.73413 11.0002 3.35278 11.0002 4Z" fill="#F1F5F9"/>
</svg>
