<svg width="14" height="14" viewBox="0 0 14 14" fill="currentColor" xmlns="http://www.w3.org/2000/svg">
<path fill-rule="evenodd" clip-rule="evenodd" d="M1.5 0C0.671573 0 0 0.671573 0 1.5V4.5C0 5.32843 0.671573 6 1.5 6H12.5C13.3284 6 14 5.32843 14 4.5V1.5C14 0.671573 13.3284 0 12.5 0H1.5ZM11 3C11 3.55228 10.5523 4 10 4C9.44772 4 9 3.55228 9 3C9 2.44772 9.44772 2 10 2C10.5523 2 11 2.44772 11 3ZM12 3C12 4.10457 11.1046 5 10 5C8.89543 5 8 4.10457 8 3C8 1.89543 8.89543 1 10 1C11.1046 1 12 1.89543 12 3Z" fill="currentColor"/>
<path fill-rule="evenodd" clip-rule="evenodd" d="M1.5 8C0.671573 8 0 8.67157 0 9.5V12.5C0 13.3284 0.671573 14 1.5 14H12.5C13.3284 14 14 13.3284 14 12.5V9.5C14 8.67157 13.3284 8 12.5 8H1.5ZM11 11C11 11.5523 10.5523 12 10 12C9.44772 12 9 11.5523 9 11C9 10.4477 9.44772 10 10 10C10.5523 10 11 10.4477 11 11ZM12 11C12 12.1046 11.1046 13 10 13C8.89543 13 8 12.1046 8 11C8 9.89543 8.89543 9 10 9C11.1046 9 12 9.89543 12 11Z" fill="currentColor"/>
</svg>
