<svg width="17" height="20" viewBox="0 0 17 20" fill="none" xmlns="http://www.w3.org/2000/svg">
<path d="M8.45207 18H11.4617C11.0057 19.1818 9.86566 20 8.49767 20C7.17528 20 5.98969 19.1818 5.53369 18H8.45207ZM16.1584 13.8182C12.8752 11.9545 15.1552 6.40909 13.1032 3.54545C12.2824 2.40909 11.1425 1.72727 9.86566 1.5V1.36364C9.86566 0.636364 9.27287 0 8.49767 0C7.76808 0 7.12968 0.590909 7.12968 1.36364V1.5C5.85289 1.77273 4.6673 2.45455 3.8921 3.54545C1.84011 6.40909 4.1201 11.9545 0.836919 13.8182C-0.348673 14.4545 -0.303073 16.5909 1.15612 16.7273H8.49767H8.54327H15.8848C17.2984 16.5909 17.344 14.5 16.1584 13.8182Z" fill="#91A9C0"/>
</svg>
