<svg width="32" height="32" viewBox="0 0 32 32" fill="none" xmlns="http://www.w3.org/2000/svg">
  <rect width="32" height="32" rx="16" fill="#090A0B"/>
  <path fill-rule="evenodd" clip-rule="evenodd" d="M7 11.0352C7 11.1485 11.6339 20.4808 11.7517 20.6046C12.2177 21.0947 12.9553 21.1248 13.4463 20.6737C13.6599 20.4775 13.8623 20.093 15.3471 17.0644C16.2611 15.2 17.0445 13.6208 17.0881 13.5549V13.5549C17.1374 13.4803 17.2211 13.4356 17.3107 13.4361L19.4792 13.449C21.5679 13.4615 21.7899 13.471 21.7773 13.5479C21.7696 13.5947 20.9572 15.2725 19.9718 17.2762C18.9865 19.28 18.1804 20.9403 18.1804 20.9658C18.1804 20.9913 18.7837 21.0057 19.5269 20.9979V20.9979C20.3528 20.9892 21.1037 20.5167 21.4689 19.7759L22.9362 16.7996L24.8078 13.0032C24.9335 12.7481 24.9993 12.4675 25 12.183V12.183C25.0008 11.7868 24.9874 11.7316 24.8395 11.5233C24.7388 11.3813 24.5707 11.2403 24.3921 11.1479V11.1479C24.2042 11.0507 23.9956 11 23.784 11L20.1402 11.0003C17.6323 11.0005 16.1027 11.0203 15.9796 11.0541C15.5222 11.1799 15.4441 11.3048 14.0602 14.1249C13.3525 15.5668 12.7401 16.7798 12.6991 16.8203C12.6354 16.8834 12.6105 16.871 12.5272 16.7353C12.4736 16.648 11.8158 15.3228 11.0656 13.7906L10.2955 12.2177C9.93183 11.4751 9.17764 11.0037 8.35074 11.0023V11.0023C7.60781 11.0011 7 11.0158 7 11.0352Z" fill="#FAFAFA"/>
</svg>
