<svg width="20" height="20" viewBox="0 0 20 20" fill="none" xmlns="http://www.w3.org/2000/svg">
  <path d="M13.8314 12.5054H8.04881C6.25259 12.5054 4.7961 11.0489 4.7961 9.25272C4.7961 7.45649 6.25259 6 8.04881 6H12.0244" stroke="#717A84" stroke-width="1.5" stroke-linecap="round" stroke-linejoin="round"/>
  <path d="M11.663 14.1076V10.8029C11.663 10.3019 11.663 10.0514 11.767 9.91648C11.8575 9.79903 11.9955 9.72781 12.1436 9.72205C12.3138 9.71544 12.518 9.86053 12.9264 10.1507L15.1296 11.7161C15.4249 11.9259 15.5725 12.0308 15.6276 12.1626C15.6759 12.278 15.6792 12.4074 15.6368 12.5251C15.5884 12.6595 15.4462 12.7718 15.162 12.9962L12.9588 14.7356C12.5435 15.0634 12.3359 15.2273 12.1613 15.2267C12.0095 15.2262 11.8662 15.1567 11.7717 15.0379C11.663 14.9013 11.663 14.6367 11.663 14.1076Z" fill="#717A84"/>
</svg>
