<svg width="20" height="20" viewBox="0 0 20 20" fill="none" xmlns="http://www.w3.org/2000/svg">
  <path d="M6.43616 12.4193H12.1422C13.9147 12.4193 15.3519 10.9821 15.3519 9.20966C15.3519 7.43722 13.9147 6 12.1422 6H8.2193" stroke="#717A84" stroke-width="1.5" stroke-linecap="round" stroke-linejoin="round"/>
  <path d="M8.57587 13.9781V10.7594C8.57587 10.2584 8.57587 10.0079 8.47192 9.87305C8.38141 9.7556 8.24344 9.68438 8.09527 9.67863C7.9251 9.67202 7.7209 9.81711 7.31251 10.1073L5.16672 11.6319C4.87147 11.8417 4.72385 11.9466 4.66869 12.0784C4.62038 12.1938 4.61711 12.3232 4.65953 12.4409C4.70796 12.5753 4.8501 12.6875 5.13437 12.912L7.28016 14.606C7.69542 14.9339 7.90305 15.0978 8.07759 15.0972C8.22941 15.0966 8.37277 15.0272 8.46725 14.9083C8.57587 14.7717 8.57587 14.5072 8.57587 13.9781Z" fill="#717A84"/>
</svg>
