<svg width="26" height="27" viewBox="0 0 26 27" fill="none" xmlns="http://www.w3.org/2000/svg">
<path d="M6.41376 15.938L6.50008 16L11.4167 11.1979L16.0001 6.50003L11.4245 6.14805C10.2086 6.05451 9.01641 6.52079 8.18657 7.41446L5.81601 9.96737C4.17758 11.7318 4.45805 14.5334 6.41376 15.938Z" fill="#ccf7f3" stroke="#00d9c9" stroke-linecap="round" stroke-linejoin="round"/>
<path d="M21.1786 1.57978C21.7644 0.993992 22.7141 0.993992 23.2999 1.57978L24.9779 3.25775C25.5637 3.84353 25.5637 4.79328 24.9779 5.37907L23.2415 7.11543C23.0463 7.3107 22.7297 7.3107 22.5344 7.11543L19.4422 4.02325C19.247 3.82799 19.247 3.51141 19.4422 3.31614L21.1786 1.57978Z" fill="#ccf7f3" stroke="#00d9c9" stroke-linecap="round" stroke-linejoin="round"/>
<path d="M21.1884 7.87666L18.6824 5.37068C18.2919 4.98016 17.6588 4.98016 17.2682 5.37068L3.83012 18.8088C3.68364 18.9553 3.56081 19.1236 3.46601 19.3078L0.915297 24.264C0.471787 25.1258 1.39073 26.0514 2.25567 25.6141L7.20018 23.1141C7.41672 23.0046 7.61152 22.8566 7.77508 22.6774L12.4998 17.4999L10.5977 16.7391C9.13126 16.1525 8.74231 14.2576 9.85909 13.1408L10.1175 12.8824C10.6575 12.3424 11.4579 12.157 12.1803 12.4047L16.5849 13.9147L21.19 9.28931C21.579 8.89853 21.5783 8.26657 21.1884 7.87666Z" fill="#ccf7f3" stroke="#00d9c9" stroke-linecap="round" stroke-linejoin="round"/>
<path d="M21.9664 10.2731L21 9.5L16.5 14L12.4264 12.4421C11.071 11.9237 9.57155 12.7301 9.25676 14.1467C9.00143 15.2956 9.62538 16.4585 10.7239 16.881L19.1952 20.1392C20.8926 20.792 22.7844 19.8484 23.284 18.0999C23.3582 17.84 23.3981 17.5715 23.4027 17.3012L23.4671 13.4637C23.4878 12.2252 22.9336 11.0469 21.9664 10.2731Z" fill="#ccf7f3" stroke="#00d9c9" stroke-linecap="round" stroke-linejoin="round"/>
</svg>
