<svg width="24" height="24" viewBox="0 0 24 24" fill="none" xmlns="http://www.w3.org/2000/svg">
<path d="M5.5643 16.5418C5.14157 15.7013 5.21135 14.8745 5.56721 14.1046C6.15278 14.4555 6.86553 14.7626 7.26998 14.5C12.5013 11.9809 8.72725 11.6982 7.5675 11.754C9.09741 10.5101 10.8218 9.70436 10.8218 9.70436C10.8218 9.70436 11.5446 9.23423 12.6054 8.63633C12.4962 8.49325 12.3974 8.33994 12.3038 8.17641C17.5 12 16.5 9 16.5 9C16.5 9 15.4158 7.30341 15.2887 7.27745C15.7482 7.0698 16.2126 6.88232 16.6668 6.72001C16.6668 6.72001 19.0798 6.35718 20.021 6.15277C20.9623 5.94837 23.5312 5.1154 22.902 4.06781C22.2727 3.01511 22.0647 1.77844 17.7641 2.03395C13.4687 2.28946 14.2539 2.18726 12.2102 2.28946C10.1665 2.39166 9.06927 2.49898 7.33759 3.37282C5.6059 4.24667 1.83052 6.35718 0.993275 11.9784C0.150833 17.5945 1.67451 18.775 2.45975 19.7561C3.24499 20.7322 9.90131 24.2378 14.9352 18.0033C19.969 11.774 18.6585 11.309 17.6393 12.2135C15.892 13.7568 15.5228 14.2524 13.8275 15.622C12.5638 16.644 10.6866 17.6661 9.06927 17.9113C7.77961 18.1055 6.07913 17.5587 5.5643 16.5418Z" fill="#5EEBDC" fill-opacity="0.5"/>
<path d="M4.61265 13.4348C4.97147 13.6597 5.30429 13.8385 5.6319 13.9714C5.22108 14.7788 5.11708 15.6526 5.5643 16.5418C6.07913 17.5587 7.77961 18.1055 9.06927 17.9113C10.6866 17.6661 12.5638 16.644 13.8275 15.622C15.5228 14.2524 15.892 13.7568 17.6393 12.2135C18.6585 11.309 19.969 11.774 14.9352 18.0033C9.90131 24.2378 3.24499 20.7322 2.45975 19.7561C1.67451 18.775 0.150833 17.5945 0.993274 11.9784C1.83052 6.35718 5.6059 4.24667 7.33759 3.37282C9.06927 2.49898 10.1665 2.39166 12.2102 2.28946C14.2539 2.18726 13.4687 2.28946 17.7641 2.03395C22.0647 1.77844 22.2727 3.01511 22.902 4.06781C23.5312 5.1154 20.9623 5.94837 20.021 6.15277C19.0798 6.35718 16.6668 6.72001 16.6668 6.72001C16.2092 6.88353 15.7412 7.07261 15.2784 7.28213C15.3304 7.1697 15.424 7.05728 15.5748 6.93463M13.5987 5.48334C13.5987 5.48334 11.6278 6.9653 12.3038 8.17641C12.3974 8.33994 12.4962 8.49325 12.6054 8.63633C11.5446 9.23423 10.8218 9.70436 10.8218 9.70436C10.8218 9.70436 9.01727 10.5475 7.46239 11.8404C7.37399 11.8353 7.30639 11.8251 7.26998 11.8098C6.95797 11.6718 6.99437 10.9564 6.48995 10.057C5.98552 9.15757 4.37864 10.057 4.37864 10.057" stroke="#00D9C9" stroke-miterlimit="10" stroke-linecap="round" stroke-linejoin="round"/>
<path d="M15.2733 7.2821C15.0445 7.77269 15.6634 8.19172 16.3394 8.78451C17.1714 9.51016 16.6722 10.4198 15.4918 10.246C14.3425 10.0774 13.3025 9.56126 12.6056 8.64142" stroke="#00D9C9" stroke-miterlimit="10" stroke-linecap="round" stroke-linejoin="round"/>
<path d="M15.5693 6.93469C15.4185 7.05734 15.3249 7.16977 15.2729 7.2822" stroke="#00D9C9" stroke-miterlimit="10" stroke-linecap="round" stroke-linejoin="round"/>
<path d="M12.6108 8.63639C12.5016 8.49331 12.4027 8.34 12.3091 8.17647C11.6331 6.96536 13.604 5.4834 13.604 5.4834" stroke="#00D9C9" stroke-miterlimit="10" stroke-linecap="round" stroke-linejoin="round"/>
<path d="M7.46208 11.8405C8.09132 11.8813 9.8178 11.7025 10.0206 12.2186C10.2494 12.8063 9.66179 13.3786 8.48133 13.8896C7.40488 14.3547 6.55204 14.3496 5.62639 13.9714" stroke="#00D9C9" stroke-miterlimit="10" stroke-linecap="round" stroke-linejoin="round"/>
<path d="M4.38402 10.057C4.38402 10.057 5.9909 9.15756 6.49533 10.057C6.99975 10.9563 6.96335 11.6718 7.27536 11.8098C7.31177 11.8251 7.37937 11.8353 7.46777 11.8404" stroke="#00D9C9" stroke-miterlimit="10" stroke-linecap="round" stroke-linejoin="round"/>
<path d="M5.63184 13.9714C5.30422 13.8385 4.9714 13.6597 4.61259 13.4348" stroke="#00D9C9" stroke-miterlimit="10" stroke-linecap="round" stroke-linejoin="round"/>
<path fill-rule="evenodd" clip-rule="evenodd" d="M18.8445 4.70842C19.3005 4.70842 19.6699 4.33707 19.6699 3.87868C19.6699 3.4203 19.3005 3.04895 18.8445 3.04895C18.3885 3.04895 18.0191 3.4203 18.0191 3.87868C18.0191 4.33707 18.3885 4.70842 18.8445 4.70842Z" fill="white" stroke="#00D9C9" stroke-miterlimit="10" stroke-linecap="round" stroke-linejoin="round"/>
</svg>
