<svg width="26" height="26" viewBox="0 0 26 26" fill="none" xmlns="http://www.w3.org/2000/svg">
<path d="M4.5 19.5C2.45745 19.5 1.17021 18 1 17.5L4.57447 14C5.25532 13 8.04681 11.2 13.766 12C14.3494 12 14.7395 12.5768 15.5 12.5C14.683 11.2125 18.1915 4.76042 19.8936 2L25 7C23.9956 10.2784 18.9551 12.1509 15.5 12.5C14.7395 12.5768 14.3494 12 13.766 12V16.5C10.5 19 6.54255 19.5 4.5 19.5Z" fill="#5EEBDC" fill-opacity="0.5"/>
<path d="M18.5195 1L16.071 3.44852C14.5707 4.94881 13.7279 6.98364 13.7279 9.10537V16.3738C13.7279 18.4955 12.885 20.5304 11.3847 22.0306L8.45703 24.9583" stroke="#00D9C9" stroke-linecap="round" stroke-linejoin="round"/>
<path d="M24.9585 7.22921L22.5305 9.77286C21.0209 11.3543 18.9299 12.249 16.7436 12.249L9.6942 12.249C7.50793 12.249 5.41692 13.1438 3.90736 14.7252L1.00016 17.7709" stroke="#00D9C9" stroke-linecap="round" stroke-linejoin="round"/>
<path d="M2.56282 16.9203C2.35772 16.7354 2.04156 16.7518 1.85666 16.9569C1.67176 17.162 1.68813 17.4781 1.89324 17.663L2.56282 16.9203ZM4.0193 19.5797C4.22441 19.7646 4.54056 19.7482 4.72546 19.5431C4.91036 19.338 4.89399 19.0219 4.68889 18.837L4.0193 19.5797ZM4.00645 15.4884C3.80445 15.3001 3.48806 15.3112 3.29978 15.5132C3.11149 15.7152 3.12261 16.0316 3.32461 16.2199L4.00645 15.4884ZM6.40901 19.0949C6.61101 19.2832 6.92739 19.2721 7.11568 19.0701C7.30396 18.8681 7.29285 18.5517 7.09085 18.3634L6.40901 19.0949ZM5.44706 14.0538C5.24668 13.8638 4.93021 13.8723 4.7402 14.0726C4.5502 14.273 4.55861 14.5895 4.759 14.7795L5.44706 14.0538ZM8.80173 18.6128C9.00211 18.8028 9.31858 18.7944 9.50859 18.594C9.69859 18.3936 9.69018 18.0772 9.48979 17.8872L8.80173 18.6128ZM6.88642 12.6187C6.68702 12.4277 6.37051 12.4344 6.17948 12.6338C5.98844 12.8333 5.99523 13.1498 6.19464 13.3408L6.88642 12.6187ZM11.1957 18.1319C11.3951 18.3229 11.7116 18.3161 11.9026 18.1167C12.0937 17.9173 12.0869 17.6008 11.8875 17.4098L11.1957 18.1319ZM9.27728 12.1342C9.07528 11.946 8.75889 11.9571 8.57061 12.1591C8.38233 12.3611 8.39344 12.6775 8.59544 12.8658L9.27728 12.1342ZM13.1046 17.1666C13.2999 17.3619 13.6164 17.3619 13.8117 17.1667C14.007 16.9715 14.0071 16.6549 13.8119 16.4596L13.1046 17.1666ZM12.0208 15.375L12.3744 15.0215L12.3681 15.0153L12.3617 15.0092L12.0208 15.375ZM1.89324 17.663L4.0193 19.5797L4.68889 18.837L2.56282 16.9203L1.89324 17.663ZM3.32461 16.2199L6.40901 19.0949L7.09085 18.3634L4.00645 15.4884L3.32461 16.2199ZM4.759 14.7795L8.80173 18.6128L9.48979 17.8872L5.44706 14.0538L4.759 14.7795ZM6.19464 13.3408L11.1957 18.1319L11.8875 17.4098L6.88642 12.6187L6.19464 13.3408ZM8.59544 12.8658L11.6798 15.7408L12.3617 15.0092L9.27728 12.1342L8.59544 12.8658ZM11.6671 15.7285L13.1046 17.1666L13.8119 16.4596L12.3744 15.0215L11.6671 15.7285Z" fill="#00D9C9"/>
<path d="M24.3969 7.81256C24.593 8.00702 24.9096 8.00573 25.104 7.80967C25.2985 7.61361 25.2972 7.29703 25.1011 7.10257L24.3969 7.81256ZM20.0397 2.0823C19.8436 1.88784 19.5271 1.88913 19.3326 2.08519C19.1381 2.28125 19.1394 2.59783 19.3355 2.79229L20.0397 2.0823ZM22.8837 9.18142C23.0797 9.37594 23.3962 9.37474 23.5908 9.17874C23.7853 8.98274 23.7841 8.66616 23.5881 8.47164L22.8837 9.18142ZM19.0815 3.99907C18.8855 3.80455 18.5689 3.80575 18.3744 4.00175C18.1798 4.19775 18.181 4.51433 18.377 4.70885L19.0815 3.99907ZM21.3704 10.5503C21.5663 10.7449 21.8829 10.7438 22.0775 10.5478C22.2721 10.3519 22.271 10.0353 22.0751 9.84074L21.3704 10.5503ZM18.1233 5.91587C17.9273 5.72128 17.6108 5.72236 17.4162 5.91829C17.2216 6.11421 17.2227 6.43079 17.4186 6.62539L18.1233 5.91587ZM19.334 11.4158C19.5293 11.6111 19.8459 11.6111 20.0411 11.4158C20.2364 11.2206 20.2364 10.904 20.0411 10.7087L19.334 11.4158ZM17.1661 7.83374C16.9709 7.63848 16.6543 7.63848 16.459 7.83374C16.2638 8.02901 16.2638 8.34559 16.459 8.54085L17.1661 7.83374ZM17.4174 12.3742C17.6126 12.5694 17.9292 12.5694 18.1245 12.3742C18.3197 12.1789 18.3197 11.8623 18.1245 11.6671L17.4174 12.3742ZM16.2078 9.75041C16.0125 9.55515 15.696 9.55515 15.5007 9.75041C15.3054 9.94567 15.3054 10.2623 15.5007 10.4575L16.2078 9.75041ZM25.1011 7.10257L20.0397 2.0823L19.3355 2.79229L24.3969 7.81256L25.1011 7.10257ZM23.5881 8.47164L19.0815 3.99907L18.377 4.70885L22.8837 9.18142L23.5881 8.47164ZM22.0751 9.84074L18.1233 5.91587L17.4186 6.62539L21.3704 10.5503L22.0751 9.84074ZM20.0411 10.7087L17.1661 7.83374L16.459 8.54085L19.334 11.4158L20.0411 10.7087ZM18.1245 11.6671L16.2078 9.75041L15.5007 10.4575L17.4174 12.3742L18.1245 11.6671Z" fill="#00D9C9"/>
</svg>
