<svg width="25" height="25" viewBox="0 0 25 25" fill="none" xmlns="http://www.w3.org/2000/svg">
<path d="M7.9798 24C2.99423 24 1 16.5 1 14L1 12L1 10.4129C1 7.97876 2.25398 5.71626 4.31818 4.42614L4.46815 4.33241C4.82158 4.11152 5.14878 3.85122 5.44349 3.55652L7.30952 1.69048C8.00839 0.991614 9.09432 0.86076 9.9392 1.37361C10.5799 1.76252 10.9711 2.45679 10.9711 3.2063L10.9711 16C10.9711 22 11.5051 24 7.9798 24Z" fill="#CCF7F3" stroke="#00D9C9"/>
<path d="M17.0202 24C22.0058 24 24 16.5 24 14L24 12L24 10.4129C24 7.97876 22.746 5.71626 20.6818 4.42614L20.5319 4.3324C20.1784 4.11151 19.8512 3.85122 19.5565 3.55651L17.6905 1.69048C16.9916 0.991613 15.9057 0.860759 15.0608 1.3736C14.4201 1.76252 14.0289 2.45679 14.0289 3.20629L14.0289 16C14.0289 22 13.4949 24 17.0202 24Z" fill="#CCF7F3" stroke="#00D9C9"/>
<path d="M10.6194 6.5C10.8955 6.5 11.1194 6.27614 11.1194 6C11.1194 5.72386 10.8955 5.5 10.6194 5.5V6.5ZM7 5.5C6.72386 5.5 6.5 5.72386 6.5 6C6.5 6.27614 6.72386 6.5 7 6.5V5.5ZM5.11936 9L5.47291 8.64645C5.37914 8.55268 5.25197 8.5 5.11936 8.5V9ZM1.5 8.5C1.22386 8.5 1 8.72386 1 9C1 9.27614 1.22386 9.5 1.5 9.5V8.5ZM4.11936 16.3806V16.8806C4.25197 16.8806 4.37914 16.828 4.47291 16.7342L4.11936 16.3806ZM1.5 15.8806C1.22386 15.8806 1 16.1045 1 16.3806C1 16.6568 1.22386 16.8806 1.5 16.8806V15.8806ZM7 21.5C7.27615 21.5 7.5 21.2761 7.5 21C7.5 20.7239 7.27615 20.5 7 20.5V21.5ZM3.38064 20.5C3.1045 20.5 2.88064 20.7239 2.88064 21C2.88064 21.2761 3.1045 21.5 3.38064 21.5V20.5ZM6 14.5V14C5.86739 14 5.74021 14.0527 5.64645 14.1464L6 14.5ZM8 15C8.27614 15 8.5 14.7761 8.5 14.5C8.5 14.2239 8.27614 14 8 14V15ZM6.26581 10.8536C6.46107 11.0488 6.77765 11.0488 6.97291 10.8536C7.16818 10.6583 7.16818 10.3417 6.97291 10.1464L6.26581 10.8536ZM17.6194 19.5C17.8955 19.5 18.1194 19.2761 18.1194 19C18.1194 18.7239 17.8955 18.5 17.6194 18.5V19.5ZM14.5 18.5C14.2239 18.5 14 18.7239 14 19C14 19.2761 14.2239 19.5 14.5 19.5V18.5ZM23.5 16.5C23.7761 16.5 24 16.2761 24 16C24 15.7239 23.7761 15.5 23.5 15.5V16.5ZM20.5 16L20.1464 16.3536C20.2402 16.4473 20.3674 16.5 20.5 16.5V16ZM19 14.5L19.3536 14.1464C19.2598 14.0527 19.1326 14 19 14V14.5ZM17 14C16.7239 14 16.5 14.2239 16.5 14.5C16.5 14.7761 16.7239 15 17 15V14ZM14.5 11C14.2239 11 14 11.2239 14 11.5C14 11.7761 14.2239 12 14.5 12V11ZM17 11.5V12C17.1326 12 17.2598 11.9473 17.3536 11.8536L17 11.5ZM19 9.5V9C18.8674 9 18.7402 9.05268 18.6464 9.14645L19 9.5ZM21 10C21.2761 10 21.5 9.77614 21.5 9.5C21.5 9.22386 21.2761 9 21 9V10ZM20.3536 4.35355C20.5488 4.15829 20.5488 3.84171 20.3536 3.64645C20.1583 3.45118 19.8417 3.45118 19.6464 3.64645L20.3536 4.35355ZM18 6V6.5C18.1326 6.5 18.2598 6.44732 18.3536 6.35355L18 6ZM16 5.5C15.7239 5.5 15.5 5.72386 15.5 6C15.5 6.27614 15.7239 6.5 16 6.5V5.5ZM10.6194 5.5H7V6.5H10.6194V5.5ZM5.11936 8.5H1.5V9.5H5.11936V8.5ZM4.11936 15.8806H1.5V16.8806H4.11936V15.8806ZM7 20.5H3.38064V21.5H7V20.5ZM4.47291 16.7342L6.35355 14.8536L5.64645 14.1464L3.76581 16.0271L4.47291 16.7342ZM6 15H8V14H6V15ZM4.76581 9.35355L6.26581 10.8536L6.97291 10.1464L5.47291 8.64645L4.76581 9.35355ZM17.6194 18.5H14.5V19.5H17.6194V18.5ZM23.5 15.5H20.5V16.5H23.5V15.5ZM20.8536 15.6464L19.3536 14.1464L18.6464 14.8536L20.1464 16.3536L20.8536 15.6464ZM19 14H17V15H19V14ZM14.5 12H17V11H14.5V12ZM17.3536 11.8536L19.3536 9.85355L18.6464 9.14645L16.6464 11.1464L17.3536 11.8536ZM19 10H21V9H19V10ZM19.6464 3.64645L17.6464 5.64645L18.3536 6.35355L20.3536 4.35355L19.6464 3.64645ZM18 5.5H16V6.5H18V5.5Z" fill="#00D9C9"/>
</svg>
