<svg width="24" height="24" viewBox="0 0 24 24" fill="none" xmlns="http://www.w3.org/2000/svg">
<path fill-rule="evenodd" clip-rule="evenodd" d="M8.6216 20.4998C5.32509 19.1518 3 15.8902 3 12.0806C3 7.06552 7.02944 3 12 3C16.9706 3 21 7.06552 21 12.0806C21 15.8904 18.6746 19.1522 15.3778 20.5L13.413 15.8143C14.9026 15.2404 15.9605 13.7851 15.9605 12.0805C15.9605 9.87386 14.1876 8.08503 12.0005 8.08503C9.81348 8.08503 8.04053 9.87386 8.04053 12.0805C8.04053 13.7845 9.09778 15.2394 10.5865 15.8137L8.6216 20.4998Z" fill="#5EEBDC" fill-opacity="0.5"/>
<path d="M8.6216 20.4998L8.43236 20.9626L8.89107 21.1501L9.0827 20.6931L8.6216 20.4998ZM15.3778 20.5L14.9167 20.6933L15.1083 21.1503L15.567 20.9628L15.3778 20.5ZM13.413 15.8143L13.2332 15.3478L12.7528 15.5329L12.9519 16.0077L13.413 15.8143ZM10.5865 15.8137L11.0477 16.0071L11.2467 15.5325L10.7665 15.3472L10.5865 15.8137ZM2.5 12.0806C2.5 16.0981 4.95243 19.5396 8.43236 20.9626L8.81084 20.0369C5.69775 18.764 3.5 15.6823 3.5 12.0806L2.5 12.0806ZM12 2.5C6.7491 2.5 2.5 6.79359 2.5 12.0806L3.5 12.0806C3.5 7.33745 7.30977 3.5 12 3.5L12 2.5ZM21.5 12.0806C21.5 6.79359 17.2509 2.5 12 2.5L12 3.5C16.6902 3.5 20.5 7.33745 20.5 12.0806L21.5 12.0806ZM15.567 20.9628C19.0473 19.54 21.5 16.0983 21.5 12.0806L20.5 12.0806C20.5 15.6825 18.302 18.7644 15.1886 20.0372L15.567 20.9628ZM12.9519 16.0077L14.9167 20.6933L15.8389 20.3066L13.8741 15.621L12.9519 16.0077ZM13.5928 16.2809C15.2709 15.6342 16.4605 13.9965 16.4605 12.0805L15.4605 12.0805C15.4605 13.5737 14.5342 14.8465 13.2332 15.3478L13.5928 16.2809ZM16.4605 12.0805C16.4605 9.60193 14.4679 7.58503 12.0005 7.58503L12.0005 8.58503C13.9072 8.58503 15.4605 10.1458 15.4605 12.0805L16.4605 12.0805ZM12.0005 7.58503C9.53314 7.58503 7.54053 9.60193 7.54053 12.0805L8.54053 12.0805C8.54053 10.1458 10.0938 8.58503 12.0005 8.58503L12.0005 7.58503ZM7.54053 12.0805C7.54053 13.9958 8.72932 15.6331 10.4066 16.2802L10.7665 15.3472C9.46624 14.8456 8.54053 13.5732 8.54053 12.0805L7.54053 12.0805ZM9.0827 20.6931L11.0477 16.0071L10.1254 15.6204L8.1605 20.3064L9.0827 20.6931Z" fill="#00D9C9"/>
</svg>
