<svg width="24" height="24" viewBox="0 0 24 24" fill="none" xmlns="http://www.w3.org/2000/svg">
<g clip-path="url(#clip0)">
<path d="M14.6464 5.64645C14.4512 5.84171 14.4512 6.15829 14.6464 6.35355C14.8417 6.54882 15.1583 6.54882 15.3536 6.35355L14.6464 5.64645ZM17.3536 4.35355C17.5488 4.15829 17.5488 3.84171 17.3536 3.64645C17.1583 3.45118 16.8417 3.45118 16.6464 3.64645L17.3536 4.35355ZM17.1464 8.14645C16.9512 8.34171 16.9512 8.65829 17.1464 8.85355C17.3417 9.04882 17.6583 9.04882 17.8536 8.85355L17.1464 8.14645ZM19.8536 6.85355C20.0488 6.65829 20.0488 6.34171 19.8536 6.14645C19.6583 5.95118 19.3417 5.95118 19.1464 6.14645L19.8536 6.85355ZM15.3536 6.35355L17.3536 4.35355L16.6464 3.64645L14.6464 5.64645L15.3536 6.35355ZM17.8536 8.85355L19.8536 6.85355L19.1464 6.14645L17.1464 8.14645L17.8536 8.85355Z" fill="#00D9C9"/>
<path d="M11.2649 12.924C11.4991 12.7776 11.5703 12.4692 11.4239 12.235C11.2776 12.0008 10.9691 11.9296 10.7349 12.076L11.2649 12.924ZM10 17L10.4596 16.803L10 17ZM3.99976 20C3.72361 20 3.49976 20.2239 3.49976 20.5C3.49976 20.7761 3.72361 21 3.99976 21V20ZM10.7349 12.076C10.0844 12.4826 9.36589 12.9514 9.05796 13.7859C8.74849 14.6245 8.8962 15.6938 9.54043 17.197L10.4596 16.803C9.84264 15.3635 9.82365 14.5995 9.99612 14.1321C10.1701 13.6606 10.5822 13.3507 11.2649 12.924L10.7349 12.076ZM9.54043 17.197C9.87567 17.9792 9.80566 18.4552 9.6187 18.7652C9.4144 19.1039 8.99103 19.3815 8.34828 19.586C7.06202 19.9953 5.2718 20 3.99976 20V21C5.22771 21 7.18762 21.0047 8.65147 20.539C9.38379 20.306 10.0855 19.9274 10.475 19.2817C10.8818 18.6073 10.8743 17.7708 10.4596 16.803L9.54043 17.197Z" fill="#00D9C9"/>
</g>
<path d="M11.0857 7.58573L13.4644 5.20711L18.2216 9.96436L15.843 12.343C14.5293 13.6567 12.3994 13.6567 11.0857 12.343C9.77205 11.0293 9.77205 8.89941 11.0857 7.58573Z" stroke="#00D9C9" fill="rgba(94, 235, 220, 0.5)"/>
<defs>
<clipPath id="clip0">
<rect width="19" height="19" fill="rgba(94, 235, 220, 0.5)" transform="translate(2 2.5)"/>
</clipPath>
</defs>
</svg>
