<svg width="20" height="20" viewBox="0 0 20 20" fill="none" xmlns="http://www.w3.org/2000/svg">
  <path d="M9.5 4.5C9.5 5.60457 10.3954 6.5 11.5 6.5C12.6046 6.5 13.5 5.60457 13.5 4.5C13.5 3.39543 12.6046 2.5 11.5 2.5C10.3954 2.5 9.5 3.39543 9.5 4.5Z" fill="#00D9C9" fill-opacity="0.2" stroke="#00D9C9" stroke-width="1.5" stroke-linecap="round"/>
  <path d="M13.5 10C13.5 11.1046 14.3954 12 15.5 12C16.6046 12 17.5 11.1046 17.5 10C17.5 8.89543 16.6046 8 15.5 8C14.3954 8 13.5 8.89543 13.5 10Z" fill="#00D9C9" fill-opacity="0.2" stroke="#00D9C9" stroke-width="1.5" stroke-linecap="round"/>
  <path d="M9.5 4.5H6.5L4.5 7.5" stroke="#00D9C9" stroke-width="1.5" stroke-linecap="round"/>
  <path d="M9.5 15.5C9.5 16.6046 10.3954 17.5 11.5 17.5C12.6046 17.5 13.5 16.6046 13.5 15.5C13.5 14.3954 12.6046 13.5 11.5 13.5C10.3954 13.5 9.5 14.3954 9.5 15.5Z" fill="#00D9C9" fill-opacity="0.2" stroke="#00D9C9" stroke-width="1.5" stroke-linecap="round"/>
  <path d="M9.5 15.5H6.5L4.5 12.5" stroke="#00D9C9" stroke-width="1.5" stroke-linecap="round"/>
  <path d="M13.5 10H2.5" stroke="#00D9C9" stroke-width="1.5" stroke-linecap="round"/>
</svg>
