<svg
  width="20"
  height="20"
  viewBox="-4 -10 80 70"
  fill="none"
  xmlns="http://www.w3.org/2000/svg"
>
  <path
    opacity="0.2"
    fill-rule="evenodd"
    clip-rule="evenodd"
    d="M8.87677 0L17.2332 3.86872C18.3008 4.36296 18.2395 5.95625 17.1374 6.36069L10.0385 8.96576C9.44605 9.18317 8.7976 9.1695 8.21415 8.92729L0.813343 5.855C-0.270246 5.40517 -0.271386 3.81407 0.811556 3.36257L8.87677 0Z"
    transform="translate(0 19.5215) scale(4)"
    fill="#19D9BD"
    stroke="#19D9BD"
  />
  <path
    opacity="0.5"
    fill-rule="evenodd"
    clip-rule="evenodd"
    d="M8.87677 0L17.2332 3.86872C18.3008 4.36296 18.2395 5.95625 17.1374 6.36069L10.0385 8.96576C9.44605 9.18317 8.7976 9.1695 8.21415 8.92729L0.813343 5.855C-0.270246 5.40517 -0.271386 3.81407 0.811556 3.36257L8.87677 0Z"
    transform="translate(0 7.8564) scale(4)"
    fill="#19D9BD"
    stroke="#19D9BD"
  />
  <path
    fill-rule="evenodd"
    clip-rule="evenodd"
    d="M7.85896 0.193632C8.5095 -0.0775893 9.23825 -0.0633684 9.87849 0.233041L17.2332 3.63801C18.3008 4.13225 18.2395 5.72553 17.1374 6.12997L10.0385 8.73505C9.44605 8.95246 8.7976 8.93878 8.21415 8.69658L0.813343 5.62428C-0.270246 5.17445 -0.271386 3.58335 0.811556 3.13185L7.85896 0.193632Z"
    transform="translate(0 -4) scale(4)"
    fill="#19D9BD"
    stroke="#19D9BD"
  />
</svg>
