<svg width="20" height="20" viewBox="0 0 20 20" fill="none" xmlns="http://www.w3.org/2000/svg">
<path d="M16.878 8.50046L16.5084 7.84787C16.2208 8.01075 16.0738 8.3427 16.1463 8.66515L16.878 8.50046ZM19 7.29862L19.3696 7.95121C19.5445 7.85214 19.6724 7.68699 19.7244 7.49282C19.7765 7.29865 19.7484 7.0917 19.6465 6.91842L19 7.29862ZM16.878 11.4982L16.1467 11.3319C16.0733 11.6548 16.2203 11.9876 16.5084 12.1507L16.878 11.4982ZM19 12.7L19.6465 13.0802C19.7484 12.9069 19.7765 12.7 19.7244 12.5058C19.6724 12.3116 19.5445 12.1465 19.3696 12.0474L19 12.7ZM16.8837 16.2986L16.5141 16.9512C16.8704 17.153 17.3226 17.0317 17.5302 16.6788L16.8837 16.2986ZM14.749 15.0898L15.1186 14.4372C14.8382 14.2784 14.4877 14.3165 14.2479 14.5318L14.749 15.0898ZM12.1163 16.5714L11.8931 15.8554C11.5797 15.9531 11.3663 16.2432 11.3663 16.5714H12.1163ZM12.1163 19V19.75C12.5305 19.75 12.8663 19.4142 12.8663 19H12.1163ZM7.88368 19H7.13368C7.13368 19.4142 7.46947 19.75 7.88368 19.75V19ZM7.88368 16.5714H8.63368C8.63368 16.2428 8.4198 15.9525 8.10599 15.8551L7.88368 16.5714ZM5.25098 15.0898L5.75211 14.5318C5.51235 14.3165 5.16184 14.2784 4.88142 14.4372L5.25098 15.0898ZM3.11632 16.2986L2.46983 16.6788C2.67738 17.0317 3.12961 17.153 3.48588 16.9512L3.11632 16.2986ZM1 12.7L0.63038 12.0474C0.455459 12.1465 0.327633 12.3116 0.275579 12.5058C0.223525 12.7 0.251602 12.9069 0.353509 13.0802L1 12.7ZM3.12196 11.4982L3.49158 12.1507C3.77969 11.9876 3.9267 11.6548 3.8533 11.3319L3.12196 11.4982ZM3.12196 8.50046L3.85366 8.66515C3.92623 8.3427 3.77917 8.01075 3.49158 7.84787L3.12196 8.50046ZM1 7.29862L0.353509 6.91842C0.251602 7.0917 0.223525 7.29865 0.275579 7.49282C0.327633 7.68699 0.455459 7.85214 0.63038 7.95121L1 7.29862ZM3.11632 3.7L3.48601 3.04745C3.12973 2.8456 2.67741 2.96683 2.46983 3.3198L3.11632 3.7ZM5.25239 4.91015L4.8827 5.56271C5.16336 5.72171 5.51425 5.68345 5.75404 5.46769L5.25239 4.91015ZM7.88368 3.42862L8.1069 4.14463C8.42025 4.04694 8.63368 3.75684 8.63368 3.42862H7.88368ZM7.88368 1V0.25C7.46947 0.25 7.13368 0.585786 7.13368 1L7.88368 1ZM12.1163 1H12.8663C12.8663 0.585786 12.5305 0.25 12.1163 0.25V1ZM12.1163 3.42862H11.3663C11.3663 3.75684 11.5797 4.04694 11.8931 4.14463L12.1163 3.42862ZM14.7476 4.91015L14.246 5.46769C14.4858 5.68345 14.8366 5.72171 15.1173 5.56271L14.7476 4.91015ZM16.8837 3.7L17.5302 3.3198C17.3226 2.96683 16.8703 2.8456 16.514 3.04745L16.8837 3.7ZM17.2477 9.15306L19.3696 7.95121L18.6304 6.64602L16.5084 7.84787L17.2477 9.15306ZM17.6094 11.6644C17.8717 10.5107 17.8666 9.47688 17.6097 8.33578L16.1463 8.66515C16.3551 9.59266 16.3585 10.4003 16.1467 11.3319L17.6094 11.6644ZM19.3696 12.0474L17.2477 10.8456L16.5084 12.1507L18.6304 13.3526L19.3696 12.0474ZM17.5302 16.6788L19.6465 13.0802L18.3535 12.3198L16.2372 15.9184L17.5302 16.6788ZM14.3795 15.7425L16.5141 16.9512L17.2532 15.646L15.1186 14.4372L14.3795 15.7425ZM12.3395 17.2874C13.4281 16.948 14.4185 16.3947 15.2501 15.6479L14.2479 14.5318C13.584 15.1281 12.7854 15.5772 11.8931 15.8554L12.3395 17.2874ZM12.8663 19V16.5714H11.3663V19H12.8663ZM7.88368 19.75H12.1163V18.25H7.88368V19.75ZM7.13368 16.5714V19H8.63368V16.5714H7.13368ZM4.74985 15.6479C5.58103 16.3943 6.57155 16.9495 7.66138 17.2877L8.10599 15.8551C7.21494 15.5786 6.41647 15.1285 5.75211 14.5318L4.74985 15.6479ZM3.48588 16.9512L5.62054 15.7425L4.88142 14.4372L2.74676 15.646L3.48588 16.9512ZM0.353509 13.0802L2.46983 16.6788L3.76281 15.9184L1.64649 12.3198L0.353509 13.0802ZM2.75234 10.8456L0.63038 12.0474L1.36962 13.3526L3.49158 12.1507L2.75234 10.8456ZM2.39027 8.33578C2.13343 9.47688 2.12835 10.5107 2.39062 11.6644L3.8533 11.3319C3.64152 10.4003 3.6449 9.59266 3.85366 8.66515L2.39027 8.33578ZM0.63038 7.95121L2.75234 9.15306L3.49158 7.84787L1.36962 6.64602L0.63038 7.95121ZM2.46983 3.3198L0.353509 6.91842L1.64649 7.67881L3.76281 4.0802L2.46983 3.3198ZM5.62208 4.2576L3.48601 3.04745L2.74663 4.35255L4.8827 5.56271L5.62208 4.2576ZM7.66046 2.7126C6.57198 3.05194 5.58129 3.60533 4.75074 4.35262L5.75404 5.46769C6.4162 4.87191 7.2145 4.42283 8.1069 4.14463L7.66046 2.7126ZM7.13368 1V3.42862H8.63368V1H7.13368ZM12.1163 0.25H7.88368V1.75H12.1163V0.25ZM12.8663 3.42862V1H11.3663V3.42862H12.8663ZM15.2493 4.35262C14.4187 3.60533 13.428 3.05194 12.3395 2.7126L11.8931 4.14463C12.7855 4.42283 13.5838 4.87191 14.246 5.46769L15.2493 4.35262ZM16.514 3.04745L14.3779 4.2576L15.1173 5.56271L17.2534 4.35255L16.514 3.04745ZM19.6465 6.91842L17.5302 3.3198L16.2372 4.0802L18.3535 7.67881L19.6465 6.91842ZM10 13.5195C11.9593 13.5195 13.5718 11.9571 13.5718 10.0002H12.0718C12.0718 11.1022 11.1576 12.0195 10 12.0195V13.5195ZM6.42827 10.0002C6.42827 11.9571 8.04075 13.5195 10 13.5195V12.0195C8.84248 12.0195 7.92827 11.1022 7.92827 10.0002H6.42827ZM10 6.48101C8.04075 6.48101 6.42827 8.0434 6.42827 10.0002H7.92827C7.92827 8.89827 8.84248 7.98101 10 7.98101V6.48101ZM13.5718 10.0002C13.5718 8.0434 11.9593 6.48101 10 6.48101V7.98101C11.1576 7.98101 12.0718 8.89827 12.0718 10.0002H13.5718Z" fill="currentColor"/>
</svg>
