<svg width="20" height="20" viewBox="0 0 20 20" fill="none" xmlns="http://www.w3.org/2000/svg">
<path d="M17.6423 8.33385L20 6.99846L17.6485 3L15.2751 4.34462C14.4458 3.59846 13.452 3.04154 12.3515 2.69846V0H7.64853V2.69846C6.54805 3.04154 5.55416 3.59846 4.72488 4.34462L2.35147 3L0 6.99846L2.35774 8.33385C2.09908 9.48308 2.09437 10.5062 2.35774 11.6646L0 13L2.35147 16.9985L4.72331 15.6554C5.55416 16.4015 6.54805 16.96 7.64853 17.3015V20H12.3515V17.3015C13.452 16.9585 14.4458 16.4015 15.2767 15.6554L17.6485 16.9985L20 13L17.6423 11.6646C17.9056 10.5062 17.9009 9.48308 17.6423 8.33385Z M10 13.0772C11.7316 13.0772 13.1353 11.6996 13.1353 10.0003C13.1353 8.30096 11.7316 6.92337 10 6.92337C8.26846 6.92337 6.86475 8.30096 6.86475 10.0003C6.86475 11.6996 8.26846 13.0772 10 13.0772Z" fill="currentColor" fill-rule="evenodd"/>
</svg>
