<svg width="7" height="6" viewBox="0 0 7 6" fill="none" xmlns="http://www.w3.org/2000/svg">
<path d="M1.37165 3.49885C1.18692 3.2936 0.870773 3.27696 0.665518 3.46169C0.460263 3.64642 0.443623 3.96256 0.628353 4.16782L1.37165 3.49885ZM2.5 5.5L2.12835 5.83448C2.22736 5.94449 2.37003 6.00499 2.51794 5.99968C2.66585 5.99437 2.80381 5.9238 2.89468 5.80697L2.5 5.5ZM6.39468 1.30697C6.56421 1.089 6.52494 0.774859 6.30697 0.605324C6.089 0.435789 5.77486 0.475056 5.60532 0.69303L6.39468 1.30697ZM0.628353 4.16782L2.12835 5.83448L2.87165 5.16552L1.37165 3.49885L0.628353 4.16782ZM2.89468 5.80697L6.39468 1.30697L5.60532 0.69303L2.10532 5.19303L2.89468 5.80697Z" fill="#FFFFFF"/>
</svg>
