<svg width="20" height="20" viewBox="0 0 20 20" fill="none" xmlns="http://www.w3.org/2000/svg">
  <path d="M11.4095 7.56803L3.3466 10.4476C2.63528 10.7017 2.27962 10.8287 2.18939 11.0056C2.11139 11.1585 2.11729 11.3408 2.20502 11.4883C2.3065 11.659 2.66963 11.7628 3.39589 11.9703L3.39589 11.9703L6.57266 12.8779C6.72863 12.9225 6.80662 12.9447 6.87063 12.9869C6.92729 13.0242 6.97575 13.0727 7.01308 13.1294C7.05525 13.1934 7.07753 13.2714 7.1221 13.4273L8.02975 16.6041C8.23725 17.3304 8.341 17.6935 8.51168 17.795C8.65924 17.8827 8.84148 17.8886 8.99441 17.8106C9.17129 17.7204 9.29832 17.3647 9.55236 16.6534L12.432 8.5905C12.6134 8.08235 12.7042 7.82828 12.6465 7.66197C12.5963 7.51736 12.4826 7.40371 12.338 7.35353C12.1717 7.29581 11.9177 7.38655 11.4095 7.56803Z" fill="#7A18DC" fill-opacity="0.24" stroke="#7A18DC" stroke-width="1.5" stroke-linecap="round"/>
  <path d="M17.5 11C17.4005 11 17.3052 10.9605 17.2348 10.8902C17.1645 10.8198 17.125 10.7245 17.125 10.625C17.125 10.4261 17.046 10.2353 16.9053 10.0947C16.7647 9.95402 16.5739 9.875 16.375 9.875C16.2755 9.875 16.1802 9.83549 16.1098 9.76516C16.0395 9.69484 16 9.59946 16 9.5C16 9.40054 16.0395 9.30516 16.1098 9.23484C16.1802 9.16451 16.2755 9.125 16.375 9.125C16.5739 9.125 16.7647 9.04598 16.9053 8.90533C17.046 8.76468 17.125 8.57391 17.125 8.375C17.125 8.27554 17.1645 8.18016 17.2348 8.10984C17.3052 8.03951 17.4005 8 17.5 8C17.5995 8 17.6948 8.03951 17.7652 8.10984C17.8355 8.18016 17.875 8.27554 17.875 8.375C17.875 8.57391 17.954 8.76468 18.0947 8.90533C18.2353 9.04598 18.4261 9.125 18.625 9.125C18.7245 9.125 18.8198 9.16451 18.8902 9.23484C18.9605 9.30516 19 9.40054 19 9.5C19 9.59946 18.9605 9.69484 18.8902 9.76516C18.8198 9.83549 18.7245 9.875 18.625 9.875C18.4261 9.875 18.2353 9.95402 18.0947 10.0947C17.954 10.2353 17.875 10.4261 17.875 10.625C17.875 10.7245 17.8355 10.8198 17.7652 10.8902C17.6948 10.9605 17.5995 11 17.5 11Z" fill="#7A18DC"/>
  <path d="M10.5 4C10.4005 4 10.3052 3.96049 10.2348 3.89016C10.1645 3.81984 10.125 3.72446 10.125 3.625C10.125 3.42609 10.046 3.23532 9.90533 3.09467C9.76468 2.95402 9.57391 2.875 9.375 2.875C9.27554 2.875 9.18016 2.83549 9.10983 2.76516C9.03951 2.69484 9 2.59946 9 2.5C9 2.40054 9.03951 2.30516 9.10983 2.23484C9.18016 2.16451 9.27554 2.125 9.375 2.125C9.57391 2.125 9.76468 2.04598 9.90533 1.90533C10.046 1.76468 10.125 1.57391 10.125 1.375C10.125 1.27554 10.1645 1.18016 10.2348 1.10984C10.3052 1.03951 10.4005 1 10.5 1C10.5995 1 10.6948 1.03951 10.7652 1.10984C10.8355 1.18016 10.875 1.27554 10.875 1.375C10.875 1.57391 10.954 1.76468 11.0947 1.90533C11.2353 2.04598 11.4261 2.125 11.625 2.125C11.7245 2.125 11.8198 2.16451 11.8902 2.23484C11.9605 2.30516 12 2.40054 12 2.5C12 2.59946 11.9605 2.69484 11.8902 2.76516C11.8198 2.83549 11.7245 2.875 11.625 2.875C11.4261 2.875 11.2353 2.95402 11.0947 3.09467C10.954 3.23532 10.875 3.42609 10.875 3.625C10.875 3.72446 10.8355 3.81984 10.7652 3.89016C10.6948 3.96049 10.5995 4 10.5 4Z" fill="#7A18DC"/>
  <path d="M16 6C15.8674 6 15.7402 5.94732 15.6464 5.85355C15.5527 5.75979 15.5 5.63261 15.5 5.5C15.5 5.23478 15.3946 4.98043 15.2071 4.79289C15.0196 4.60536 14.7652 4.5 14.5 4.5C14.3674 4.5 14.2402 4.44732 14.1464 4.35355C14.0527 4.25979 14 4.13261 14 4C14 3.86739 14.0527 3.74021 14.1464 3.64645C14.2402 3.55268 14.3674 3.5 14.5 3.5C14.7652 3.5 15.0196 3.39464 15.2071 3.20711C15.3946 3.01957 15.5 2.76522 15.5 2.5C15.5 2.36739 15.5527 2.24021 15.6464 2.14645C15.7402 2.05268 15.8674 2 16 2C16.1326 2 16.2598 2.05268 16.3536 2.14645C16.4473 2.24021 16.5 2.36739 16.5 2.5C16.5 2.76522 16.6054 3.01957 16.7929 3.20711C16.9804 3.39464 17.2348 3.5 17.5 3.5C17.6326 3.5 17.7598 3.55268 17.8536 3.64645C17.9473 3.74021 18 3.86739 18 4C18 4.13261 17.9473 4.25979 17.8536 4.35355C17.7598 4.44732 17.6326 4.5 17.5 4.5C17.2348 4.5 16.9804 4.60536 16.7929 4.79289C16.6054 4.98043 16.5 5.23478 16.5 5.5C16.5 5.63261 16.4473 5.75979 16.3536 5.85355C16.2598 5.94732 16.1326 6 16 6Z" fill="#7A18DC"/>
</svg>
