<svg width="20" height="20" viewBox="0 0 20 20" fill="none" xmlns="http://www.w3.org/2000/svg">
  <rect x="4.75" y="4.75" width="10.5" height="10.5" rx="1.25" fill="#7A18DC" fill-opacity="0.24" stroke="#7A18DC" stroke-width="1.5" stroke-linecap="round"/>
  <path d="M4.5 6.25C3.5335 6.25 2.75 5.4665 2.75 4.5C2.75 3.5335 3.5335 2.75 4.5 2.75C5.4665 2.75 6.25 3.5335 6.25 4.5C6.25 5.4665 5.4665 6.25 4.5 6.25Z" fill="#DFC8F7" stroke="#7A18DC" stroke-width="1.5" stroke-linecap="round"/>
  <path d="M15.5 6.25C14.5335 6.25 13.75 5.4665 13.75 4.5C13.75 3.5335 14.5335 2.75 15.5 2.75C16.4665 2.75 17.25 3.5335 17.25 4.5C17.25 5.4665 16.4665 6.25 15.5 6.25Z" fill="#DFC8F7" stroke="#7A18DC" stroke-width="1.5" stroke-linecap="round"/>
  <path d="M4.5 17.25C3.5335 17.25 2.75 16.4665 2.75 15.5C2.75 14.5335 3.5335 13.75 4.5 13.75C5.4665 13.75 6.25 14.5335 6.25 15.5C6.25 16.4665 5.4665 17.25 4.5 17.25Z" fill="#DFC8F7" stroke="#7A18DC" stroke-width="1.5" stroke-linecap="round"/>
  <path d="M15.5 17.25C14.5335 17.25 13.75 16.4665 13.75 15.5C13.75 14.5335 14.5335 13.75 15.5 13.75C16.4665 13.75 17.25 14.5335 17.25 15.5C17.25 16.4665 16.4665 17.25 15.5 17.25Z" fill="#DFC8F7" stroke="#7A18DC" stroke-width="1.5" stroke-linecap="round"/>
</svg>
