<svg viewBox="0 0 11 11" fill="none" xmlns="http://www.w3.org/2000/svg">
<path d="M8.32196 11C8.12588 11 7.94791 10.8854 7.86677 10.7069L5.68809 5.9138C5.56858 5.65088 5.56858 5.34912 5.68809 5.0862L7.86677 0.293099C7.94791 0.114601 8.12588 -1.14781e-07 8.32196 -1.23352e-07L9.7235 -1.84615e-07C10.0871 -2.0051e-07 10.3292 0.375852 10.1787 0.706901L8.18809 5.0862C8.06858 5.34912 8.06858 5.65088 8.18809 5.9138L10.1787 10.2931C10.3292 10.6241 10.0871 11 9.7235 11L8.32196 11Z" fill="#91A9C0"/>
<path d="M2.82196 11C2.62588 11 2.44791 10.8854 2.36677 10.7069L0.188092 5.9138C0.0685808 5.65088 0.0685806 5.34912 0.188092 5.0862L2.36677 0.293099C2.44791 0.114601 2.62588 -1.14781e-07 2.82196 -1.23352e-07L4.2235 -1.84615e-07C4.58714 -2.0051e-07 4.82916 0.375852 4.67868 0.706901L2.68809 5.0862C2.56858 5.34912 2.56858 5.65088 2.68809 5.9138L4.67868 10.2931C4.82916 10.6241 4.58714 11 4.2235 11L2.82196 11Z" fill="#91A9C0"/>
</svg>
