<svg width="150" height="90" viewBox="0 0 150 90" fill="none" xmlns="http://www.w3.org/2000/svg">
<path fill-rule="evenodd" clip-rule="evenodd" d="M0 3C0 1.34315 1.34315 0 3 0H147C148.657 0 150 1.34315 150 3V21H0V3ZM7 7C7 5.89543 7.89543 5 9 5H20C21.1046 5 22 5.89543 22 7V14C22 15.1046 21.1046 16 20 16H9C7.89543 16 7 15.1046 7 14V7ZM105 5C103.895 5 103 5.89543 103 7V14C103 15.1046 103.895 16 105 16H116C117.105 16 118 15.1046 118 14V7C118 5.89543 117.105 5 116 5H105ZM55 7C55 5.89543 55.8954 5 57 5H68C69.1046 5 70 5.89543 70 7V14C70 15.1046 69.1046 16 68 16H57C55.8954 16 55 15.1046 55 14V7ZM33 5C31.8954 5 31 5.89543 31 7V14C31 15.1046 31.8954 16 33 16H44C45.1046 16 46 15.1046 46 14V7C46 5.89543 45.1046 5 44 5H33ZM127 7C127 5.89543 127.895 5 129 5H140C141.105 5 142 5.89543 142 7V14C142 15.1046 141.105 16 140 16H129C127.895 16 127 15.1046 127 14V7ZM81 5C79.8954 5 79 5.89543 79 7V14C79 15.1046 79.8954 16 81 16H92C93.1046 16 94 15.1046 94 14V7C94 5.89543 93.1046 5 92 5H81Z" fill="#91A9C0" fill-opacity="0.8"/>
<path fill-rule="evenodd" clip-rule="evenodd" d="M150 87C150 88.6569 148.657 90 147 90L3 90C1.34314 90 1.17422e-07 88.6568 2.62268e-07 87L1.83588e-06 69L150 69L150 87ZM143 83C143 84.1046 142.105 85 141 85L130 85C128.895 85 128 84.1046 128 83L128 76C128 74.8954 128.895 74 130 74L141 74C142.105 74 143 74.8954 143 76L143 83ZM45 85C46.1046 85 47 84.1046 47 83L47 76C47 74.8954 46.1046 74 45 74L34 74C32.8954 74 32 74.8954 32 76L32 83C32 84.1046 32.8954 85 34 85L45 85ZM95 83C95 84.1046 94.1046 85 93 85L82 85C80.8954 85 80 84.1046 80 83L80 76C80 74.8954 80.8954 74 82 74L93 74C94.1046 74 95 74.8954 95 76L95 83ZM117 85C118.105 85 119 84.1046 119 83L119 76C119 74.8954 118.105 74 117 74L106 74C104.895 74 104 74.8954 104 76L104 83C104 84.1046 104.895 85 106 85L117 85ZM23 83C23 84.1046 22.1046 85 21 85L10 85C8.89543 85 8 84.1046 8 83L8 76C8 74.8954 8.89543 74 10 74L21 74C22.1046 74 23 74.8954 23 76L23 83ZM69 85C70.1046 85 71 84.1046 71 83L71 76C71 74.8954 70.1046 74 69 74L58 74C56.8954 74 56 74.8954 56 76L56 83C56 84.1046 56.8954 85 58 85L69 85Z" fill="#91A9C0" fill-opacity="0.8"/>
<rect x="54" y="24" width="30" height="30" rx="3" fill="#F1F5F9" fill-opacity="0.5"/>
<rect x="60" y="30" width="30" height="30" rx="3" fill="#F1F5F9" fill-opacity="0.5"/>
<rect x="66" y="36" width="30" height="30" rx="3" fill="#F1F5F9" fill-opacity="0.5"/>
</svg>
