<svg width="12" height="12" viewBox="0 0 12 12" fill="none" xmlns="http://www.w3.org/2000/svg">
  <path
    d="M9.70449 4.33325C9.95496 4.58582 10.176 4.83377 10.3614 5.05504C10.5619 5.29445 10.6622 5.41416 10.7206 5.61824C10.7636 5.76833 10.7636 6.01876 10.7206 6.16886C10.6622 6.37294 10.5621 6.49239 10.362 6.73128C9.50909 7.74953 7.89966 9.33352 6.14106 9.33352C5.80934 9.33352 5.48345 9.2771 5.16663 9.17872"
    fill="#5E656E" stroke-width="0" />
  <path
    d="M3.52509 8.50015C2.77644 8.00221 2.1425 7.37578 1.69703 6.87574C1.48116 6.63342 1.37322 6.51226 1.30963 6.29893C1.26312 6.14287 1.26375 5.87894 1.311 5.72311C1.37559 5.51008 1.4841 5.38944 1.7011 5.14816C2.59198 4.15763 4.22988 2.6665 6.01697 2.6665C6.90402 2.6665 7.75962 3.03625 8.50016 3.52768"
    fill="#5E656E" stroke-width="0" />
  <path d="M1.83313 10.1669L10.1669 1.83313" stroke="#5E656E" stroke-width="1.5" stroke-linecap="round"
    stroke-linejoin="round" />
</svg>
