<svg width="12" height="12" viewBox="0 0 12 12" fill="none" xmlns="http://www.w3.org/2000/svg">
  <g clip-path="url(#clip0_1_3005)">
    <path
      d="M2.78855 9.27963L2.34424 4.32336H9.65561L9.2113 9.27963V9.27963C9.16519 9.79394 9.14214 10.0511 9.02717 10.2456C8.92593 10.4169 8.77589 10.5541 8.59624 10.6396C8.39225 10.7368 8.13406 10.7368 7.61769 10.7368H4.38216C3.86579 10.7368 3.6076 10.7368 3.40361 10.6396C3.22396 10.5541 3.07392 10.4169 2.97267 10.2456C2.85771 10.0511 2.83466 9.79394 2.78855 9.27963Z"
      fill="#5E656E" stroke-width="0" />
    <path d="M1.67932 2.99405H10.32" stroke="#5E656E" stroke-width="1.5" stroke-linecap="round"
      stroke-linejoin="round" />
    <path
      d="M3.67322 2.6V2.99401H8.32591V2.6C8.32591 2.03995 8.32591 1.75992 8.21691 1.54601C8.12104 1.35785 7.96806 1.20487 7.7799 1.10899C7.56599 1 7.28596 1 6.72591 1H5.27322C4.71317 1 4.43314 1 4.21923 1.10899C4.03107 1.20487 3.87808 1.35785 3.78221 1.54601C3.67322 1.75992 3.67322 2.03995 3.67322 2.6Z"
      fill="#5E656E" stroke-width="0" />
  </g>
  <defs>
    <clipPath id="clip0_1_3005">
      <rect width="12" height="12" fill="white" />
    </clipPath>
  </defs>
</svg>
