<svg width="20" height="20" viewBox="0 0 20 20" fill="none" xmlns="http://www.w3.org/2000/svg">
  <path d="M0 10C0 4.47715 4.47715 0 10 0C15.5228 0 20 4.47715 20 10C20 15.5228 15.5228 20 10 20C4.47715 20 0 15.5228 0 10Z" fill="#EFF0F0"/>
  <path d="M10.75 12.627C10.75 12.174 10.5512 11.7427 10.1965 11.4615C9.65425 11.031 8.71375 10.5 7.375 10.5C6.03625 10.5 5.09575 11.031 4.5535 11.4615C4.19875 11.7427 4 12.174 4 12.627C4 13.1091 4.39086 13.5 4.873 13.5H10.75V12.627Z" fill="#808689"/>
  <path d="M7.375 9.75C8.41053 9.75 9.25 8.91053 9.25 7.875C9.25 6.83947 8.41053 6 7.375 6C6.33947 6 5.5 6.83947 5.5 7.875C5.5 8.91053 6.33947 9.75 7.375 9.75Z" fill="#808689"/>
  <path d="M12.625 9.75C13.6605 9.75 14.5 8.91053 14.5 7.875C14.5 6.83947 13.6605 6 12.625 6C11.5895 6 10.75 6.83947 10.75 7.875C10.75 8.91053 11.5895 9.75 12.625 9.75Z" fill="#808689"/>
  <path d="M15.4465 11.4615C14.9042 11.031 13.9637 10.5 12.625 10.5C12.2042 10.5 11.8277 10.5562 11.4857 10.6417C11.9687 11.1817 12.25 11.877 12.25 12.627V13.5H15.127C15.6091 13.5 16 13.1091 16 12.627C16 12.174 15.8012 11.7427 15.4465 11.4615Z" fill="#808689"/>
</svg>
