<svg width="19" height="19" viewBox="0 0 19 19" fill="none" xmlns="http://www.w3.org/2000/svg">
  <circle
    cx="9.50018"
    cy="9.50003"
    r="7.5"
    transform="rotate(6.12863 9.50018 9.50003)"
    stroke="#91A9C0"
    stroke-width="1.5"
    stroke-linecap="round"
    stroke-linejoin="round"
    stroke-dasharray="2.6 2.6"
  />
  <path
    d="M16.2498 9.5C16.2498 9.91421 16.5855 10.25 16.9998 10.25C17.414 10.25 17.7498 9.91421 17.7498 9.5H16.2498ZM9.49975 2.75C13.2277 2.75 16.2498 5.77208 16.2498 9.5H17.7498C17.7498 4.94365 14.0561 1.25 9.49975 1.25V2.75ZM5.44953 4.09962C6.57771 3.25199 7.97903 2.75 9.49975 2.75V1.25C7.64301 1.25 5.92756 1.86428 4.54852 2.90038L5.44953 4.09962Z"
    fill="#91A9C0"
  />
  <path
    d="M10.25 6C10.25 5.58579 9.91421 5.25 9.5 5.25C9.08579 5.25 8.75 5.58579 8.75 6H10.25ZM9.5 10L10.0303 10.5303C10.171 10.3897 10.25 10.1989 10.25 10H9.5ZM6.96967 11.4697C6.67678 11.7626 6.67678 12.2374 6.96967 12.5303C7.26256 12.8232 7.73744 12.8232 8.03033 12.5303L6.96967 11.4697ZM8.75 6V10H10.25V6H8.75ZM8.96967 9.46967L6.96967 11.4697L8.03033 12.5303L10.0303 10.5303L8.96967 9.46967Z"
    fill="#91A9C0"
  />
  <path
    d="M14.5996 8.88196L16.4815 11.8329L19.4325 9.95101"
    stroke="#91A9C0"
    stroke-width="1.5"
    stroke-linecap="round"
    stroke-linejoin="round"
  />
</svg>
