<svg width="15" height="15" viewBox="0 0 15 15" fill="none" xmlns="http://www.w3.org/2000/svg">
<path opacity="0.12" d="M1 4.38034C1 3.19711 1 2.60549 1.23615 2.15356C1.44388 1.75603 1.77534 1.43282 2.18302 1.23027C2.6465 1 3.25322 1 4.46667 1H10.5333C11.7468 1 12.3535 1 12.817 1.23027C13.2247 1.43282 13.5561 1.75603 13.7638 2.15356C14 2.60549 14 3.19711 14 4.38034V8.18322C14 9.36645 14 9.95806 13.7638 10.41C13.5561 10.8075 13.2247 11.1307 12.817 11.3333C12.3535 11.5636 11.7468 11.5636 10.5333 11.5636H8.71604C8.26534 11.5636 8.03998 11.5636 7.82443 11.6067C7.6332 11.645 7.44814 11.7083 7.2743 11.7949C7.07834 11.8925 6.90237 12.0298 6.55043 12.3043L4.8276 13.6482C4.5271 13.8827 4.37684 13.9999 4.25039 14C4.14042 14.0001 4.03638 13.9514 3.96778 13.8676C3.88889 13.7712 3.88889 13.5836 3.88889 13.2083V11.5636C3.21724 11.5636 2.88142 11.5636 2.60589 11.4916C1.85819 11.2962 1.27417 10.7267 1.07383 9.99766C1 9.72899 1 9.40153 1 8.74661V4.38034Z" fill="#EBEBEB"/>
<path d="M1 4.38034C1 3.19711 1 2.60549 1.23615 2.15356C1.44388 1.75603 1.77534 1.43282 2.18302 1.23027C2.6465 1 3.25322 1 4.46667 1H10.5333C11.7468 1 12.3535 1 12.817 1.23027C13.2247 1.43282 13.5561 1.75603 13.7638 2.15356C14 2.60549 14 3.19711 14 4.38034V8.18322C14 9.36645 14 9.95806 13.7638 10.41C13.5561 10.8075 13.2247 11.1307 12.817 11.3333C12.3535 11.5636 11.7468 11.5636 10.5333 11.5636H8.71604C8.26534 11.5636 8.03998 11.5636 7.82443 11.6067C7.6332 11.645 7.44814 11.7083 7.2743 11.7949C7.07834 11.8925 6.90237 12.0298 6.55043 12.3043L4.8276 13.6482C4.5271 13.8827 4.37684 13.9999 4.25039 14C4.14042 14.0001 4.03638 13.9514 3.96778 13.8676C3.88889 13.7712 3.88889 13.5836 3.88889 13.2083V11.5636C3.21724 11.5636 2.88142 11.5636 2.60589 11.4916C1.85819 11.2962 1.27417 10.7267 1.07383 9.99766C1 9.72899 1 9.40153 1 8.74661V4.38034Z" fill="#EBEBEB"/>
<path d="M6.05556 4.52276C6.18281 4.17003 6.43398 3.87259 6.76459 3.68313C7.09519 3.49367 7.48389 3.42441 7.86185 3.48762C8.2398 3.55084 8.58261 3.74244 8.82957 4.02851C9.07653 4.31457 9.21169 4.67662 9.21112 5.05055C9.21112 6.10611 7.58733 6.6339 7.58733 6.6339" fill="#EBEBEB"/>
<path d="M6.05556 4.52276C6.18281 4.17003 6.43398 3.87259 6.76459 3.68313C7.09519 3.49367 7.48389 3.42441 7.86185 3.48762C8.2398 3.55084 8.58261 3.74244 8.82957 4.02851C9.07653 4.31457 9.21169 4.67662 9.21112 5.05055C9.21112 6.10611 7.58733 6.6339 7.58733 6.6339M7.60826 8.74661H7.61549M3.88889 11.5636V13.2083C3.88889 13.5836 3.88889 13.7712 3.96778 13.8676C4.03638 13.9514 4.14042 14.0001 4.25039 14C4.37684 13.9999 4.5271 13.8827 4.8276 13.6482L6.55043 12.3043C6.90237 12.0298 7.07834 11.8925 7.2743 11.7949C7.44814 11.7083 7.6332 11.645 7.82443 11.6067C8.03998 11.5636 8.26534 11.5636 8.71604 11.5636H10.5333C11.7468 11.5636 12.3535 11.5636 12.817 11.3333C13.2247 11.1307 13.5561 10.8075 13.7638 10.41C14 9.95806 14 9.36645 14 8.18322V4.38034C14 3.19711 14 2.60549 13.7638 2.15356C13.5561 1.75603 13.2247 1.43282 12.817 1.23027C12.3535 1 11.7468 1 10.5333 1H4.46667C3.25322 1 2.6465 1 2.18302 1.23027C1.77534 1.43282 1.44388 1.75603 1.23615 2.15356C1 2.60549 1 3.19711 1 4.38034V8.74661C1 9.40153 1 9.72899 1.07383 9.99766C1.27417 10.7267 1.85819 11.2962 2.60589 11.4916C2.88142 11.5636 3.21724 11.5636 3.88889 11.5636Z" stroke="#5E656E" stroke-width="1.5" stroke-linecap="round" stroke-linejoin="round"/>
</svg>
