<svg width="23" height="24" viewBox="0 0 23 24" fill="none" xmlns="http://www.w3.org/2000/svg">
<path d="M8.50017 5.99998C7.50017 5.49998 5.10018 4.89998 3.50018 6.49998C1.50018 8.49998 4.00018 12.5 5.50018 14.5C7.00018 16.5 7 20 4 21.5" stroke="#DAE4ED" stroke-width="4" stroke-linecap="round" stroke-linejoin="round"/>
<path d="M10.3756 5.15941C11.0107 5.99446 10.8339 7.24914 9.90865 7.9529C8.98336 8.65666 7.72703 8.49199 7.09191 7.65694C7.01309 7.55331 6.90769 7.34543 6.78775 7.0231C6.6719 6.71176 6.55574 6.33078 6.44287 5.91047C6.21732 5.07049 6.01279 4.10308 5.85448 3.28213C5.78213 2.90691 6.14784 2.62876 6.49011 2.79868C7.23898 3.17046 8.11664 3.6259 8.86588 4.06757C9.24079 4.28858 9.57692 4.50226 9.84601 4.69705C10.1246 4.8987 10.2968 5.05578 10.3756 5.15941Z" stroke="#1F1F1F" stroke-linecap="round"/>
<path d="M11.3132 8.65643L9.84356 9.8001C9.38704 10.1554 9.32627 10.8227 9.71111 11.2546L18.3789 20.9819C18.7291 21.3749 19.3242 21.4291 19.7396 21.1058L19.8414 21.0266C20.2568 20.7033 20.3505 20.1132 20.0555 19.6772L12.7557 8.88534C12.4316 8.4062 11.7697 8.30117 11.3132 8.65643Z" stroke="#1F1F1F"/>
<path d="M10.8428 12.8242L13.9996 10.3676" stroke="#1F1F1F"/>
<path d="M18.5 3C18.5 2.72386 18.2761 2.5 18 2.5C17.7239 2.5 17.5 2.72386 17.5 3H18.5ZM17.5 9C17.5 9.27614 17.7239 9.5 18 9.5C18.2761 9.5 18.5 9.27614 18.5 9H17.5ZM15 5.5C14.7239 5.5 14.5 5.72386 14.5 6C14.5 6.27614 14.7239 6.5 15 6.5V5.5ZM21 6.5C21.2761 6.5 21.5 6.27614 21.5 6C21.5 5.72386 21.2761 5.5 21 5.5V6.5ZM17.5 3V9H18.5V3H17.5ZM15 6.5H21V5.5H15V6.5Z" fill="black"/>
</svg>
