<svg width="21" height="20" viewBox="0 0 21 20" fill="none" xmlns="http://www.w3.org/2000/svg">
<path d="M14 0.5C13.7239 0.5 13.5 0.723858 13.5 1C13.5 1.27614 13.7239 1.5 14 1.5V0.5ZM20 1.5C20.2761 1.5 20.5 1.27614 20.5 1C20.5 0.723858 20.2761 0.5 20 0.5V1.5ZM14 1.5H20V0.5H14V1.5Z" fill="black"/>
<path d="M9.90252 3.30504C10.0819 3.09508 10.3975 3.07027 10.6075 3.24963L15.0403 7.03644C15.2503 7.2158 15.2751 7.53141 15.0957 7.74137L7.52213 16.6071C6.62533 17.657 5.04728 17.781 3.99747 16.8842L1.08527 14.3964C0.875305 14.2171 0.850498 13.9015 1.02986 13.6915L9.90252 3.30504Z" stroke="#1F1F1F"/>
<path d="M4 9.99994L9.29206 14.5207" stroke="black"/>
<path d="M6.5 17C6.22386 17 6 17.2239 6 17.5C6 17.7761 6.22386 18 6.5 18V17ZM12 18C12.2761 18 12.5 17.7761 12.5 17.5C12.5 17.2239 12.2761 17 12 17V18ZM14 17C13.7239 17 13.5 17.2239 13.5 17.5C13.5 17.7761 13.7239 18 14 18V17ZM16.5 18C16.7761 18 17 17.7761 17 17.5C17 17.2239 16.7761 17 16.5 17V18ZM6.5 18H12V17H6.5V18ZM14 18H16.5V17H14V18Z" fill="#1F1F1F"/>
</svg>
