<svg width="20" height="20" viewBox="0 0 20 20" fill="none" xmlns="http://www.w3.org/2000/svg">
<rect x="11" y="1.99994" width="4" height="4" rx="2" stroke="#1F1F1F" stroke-linecap="round" stroke-linejoin="round"/>
<path d="M12.5 6.99997C12.5 7.27611 12.7239 7.49997 13 7.49997C13.2761 7.49997 13.5 7.27611 13.5 6.99997H12.5ZM12.5 5.99988V6.99997H13.5V5.99988H12.5Z" fill="#1F1F1F"/>
<path d="M11 3.99994H10M16 3.99994H15M13 1.99994V0.999939" stroke="#1F1F1F" stroke-linecap="round"/>
<rect x="0.25" y="-0.25" width="0.5" height="0.5" rx="0.25" transform="matrix(1 0 0 -1 12.5 3.99994)" fill="#1F1F1F" stroke="#1F1F1F" stroke-width="0.5" stroke-linecap="round" stroke-linejoin="round"/>
<rect x="2" y="4.99994" width="4" height="4" rx="2" stroke="#1F1F1F" stroke-linecap="round" stroke-linejoin="round"/>
<path d="M3.5 9.99997C3.5 10.2761 3.72386 10.5 4 10.5C4.27614 10.5 4.5 10.2761 4.5 9.99997H3.5ZM3.5 8.99988V9.99997H4.5V8.99988H3.5Z" fill="#1F1F1F"/>
<path d="M2 6.99994H1M7 6.99994H6M4 4.99994V3.99994" stroke="#1F1F1F" stroke-linecap="round"/>
<rect x="0.25" y="-0.25" width="0.5" height="0.5" rx="0.25" transform="matrix(1 0 0 -1 3.5 6.99994)" fill="#1F1F1F" stroke="#1F1F1F" stroke-width="0.5" stroke-linecap="round" stroke-linejoin="round"/>
<rect x="10" y="10.9999" width="4" height="4" rx="2" stroke="#1F1F1F" stroke-linecap="round" stroke-linejoin="round"/>
<path d="M11.5 16C11.5 16.2761 11.7239 16.5 12 16.5C12.2761 16.5 12.5 16.2761 12.5 16H11.5ZM11.5 14.9999V16H12.5V14.9999H11.5Z" fill="#1F1F1F"/>
<path d="M10 12.9999H9M15 12.9999H14M12 10.9999V9.99994" stroke="#1F1F1F" stroke-linecap="round"/>
<rect x="0.25" y="-0.25" width="0.5" height="0.5" rx="0.25" transform="matrix(1 0 0 -1 11.5 12.9999)" fill="#1F1F1F" stroke="#1F1F1F" stroke-width="0.5" stroke-linecap="round" stroke-linejoin="round"/>
<path fill-rule="evenodd" clip-rule="evenodd" d="M17.2266 15C17.2266 15 17.2266 16.1251 16.6699 16.6876C16.1132 17.2502 14.9998 17.2502 14.9998 17.2502C14.9998 17.2502 16.1132 17.2502 16.6699 17.8127C17.2266 18.3753 17.2266 19.5003 17.2266 19.5003C17.2266 19.5003 17.2266 18.3753 17.7832 17.8127C18.3399 17.2502 19.4533 17.2502 19.4533 17.2502C19.4533 17.2502 18.3399 17.2502 17.7832 16.6876C17.2266 16.1251 17.2266 15 17.2266 15Z" fill="#1F1F1F"/>
<path fill-rule="evenodd" clip-rule="evenodd" d="M5.32031 12C5.32031 12 5.32031 13.6777 4.49019 14.5166C3.66007 15.3554 1.99984 15.3554 1.99984 15.3554C1.99984 15.3554 3.66007 15.3554 4.49019 16.1943C5.32031 17.0332 5.32031 18.7109 5.32031 18.7109C5.32031 18.7109 5.32031 17.0332 6.15043 16.1943C6.98056 15.3554 8.64079 15.3554 8.64079 15.3554C8.64079 15.3554 6.98056 15.3554 6.15044 14.5166C5.32031 13.6777 5.32031 12 5.32031 12Z" fill="#1F1F1F"/>
<path fill-rule="evenodd" clip-rule="evenodd" d="M17.3818 8C17.3818 8 17.3818 9.20338 16.7864 9.80506C16.191 10.4068 15.0002 10.4068 15.0002 10.4068C15.0002 10.4068 16.191 10.4068 16.7864 11.0084C17.3818 11.6101 17.3818 12.8135 17.3818 12.8135C17.3818 12.8135 17.3818 11.6101 17.9773 11.0084C18.5727 10.4068 19.7635 10.4068 19.7635 10.4068C19.7635 10.4068 18.5727 10.4068 17.9773 9.80506C17.3818 9.20338 17.3818 8 17.3818 8Z" fill="#1F1F1F"/>
<path d="M6 6L11 5M5.5 8.5L10.5 12" stroke="black"/>
</svg>
