<svg width="121" height="97" viewBox="0 0 121 97" fill="none" xmlns="http://www.w3.org/2000/svg">
<path d="M18.5 18.125L8.5 18.125L8.5 14C8.5 10.6863 11.1863 8 14.5 8L18.5 8L18.5 18.125Z" stroke="#C8EBF7"/>
<rect x="18.5" y="8" width="10" height="10.125" stroke="#C8EBF7"/>
<rect x="28.5" y="8" width="10" height="10.125" stroke="#C8EBF7"/>
<rect x="38.5" y="8" width="10" height="10.125" stroke="#C8EBF7"/>
<path d="M48.5 18.125L48.5 8L56.5 8C57.6046 8 58.5 8.89543 58.5 10L58.5 18.125L48.5 18.125Z" stroke="#C8EBF7"/>
<rect x="8.5" y="18.125" width="10" height="10.125" stroke="#C8EBF7"/>
<rect x="18.5" y="18.125" width="10" height="10.125" stroke="#C8EBF7"/>
<rect x="28.5" y="18.125" width="10" height="10.125" stroke="#C8EBF7"/>
<rect x="38.5" y="18.125" width="10" height="10.125" stroke="#C8EBF7"/>
<rect x="48.5" y="18.125" width="10" height="10.125" stroke="#C8EBF7"/>
<rect x="8.5" y="28.25" width="10" height="10.125" stroke="#C8EBF7"/>
<rect x="18.5" y="28.25" width="10" height="10.125" stroke="#C8EBF7"/>
<rect x="28.5" y="28.25" width="10" height="10.125" stroke="#C8EBF7"/>
<rect x="38.5" y="28.25" width="10" height="10.125" stroke="#C8EBF7"/>
<rect x="48.5" y="28.25" width="10" height="10.125" stroke="#C8EBF7"/>
<rect x="8.5" y="38.375" width="10" height="10.125" stroke="#C8EBF7"/>
<rect x="18.5" y="38.375" width="10" height="10.125" stroke="#C8EBF7"/>
<rect x="28.5" y="38.375" width="10" height="10.125" stroke="#C8EBF7"/>
<rect x="38.5" y="38.375" width="10" height="10.125" stroke="#C8EBF7"/>
<rect x="48.5" y="38.375" width="10" height="10.125" stroke="#C8EBF7"/>
<rect x="8.5" y="48.5" width="10" height="10.125" stroke="#C8EBF7"/>
<rect x="18.5" y="48.5" width="10" height="10.125" stroke="#C8EBF7"/>
<rect x="28.5" y="48.5" width="10" height="10.125" stroke="#C8EBF7"/>
<rect x="38.5" y="48.5" width="10" height="10.125" stroke="#C8EBF7"/>
<rect x="48.5" y="48.5" width="10" height="10.125" stroke="#C8EBF7"/>
<rect x="8.5" y="58.625" width="10" height="10.125" stroke="#C8EBF7"/>
<rect x="18.5" y="58.625" width="10" height="10.125" stroke="#C8EBF7"/>
<rect x="28.5" y="58.625" width="10" height="10.125" stroke="#C8EBF7"/>
<rect x="38.5" y="58.625" width="10" height="10.125" stroke="#C8EBF7"/>
<rect x="48.5" y="58.625" width="10" height="10.125" stroke="#C8EBF7"/>
<rect x="8.5" y="68.75" width="10" height="10.125" stroke="#C8EBF7"/>
<rect x="18.5" y="68.75" width="10" height="10.125" stroke="#C8EBF7"/>
<rect x="28.5" y="68.75" width="10" height="10.125" stroke="#C8EBF7"/>
<rect x="38.5" y="68.75" width="10" height="10.125" stroke="#C8EBF7"/>
<rect x="48.5" y="68.75" width="10" height="10.125" stroke="#C8EBF7"/>
<path d="M18.5 78.875L18.5 89L14.5 89C11.1863 89 8.5 86.3137 8.5 83L8.5 78.875L18.5 78.875Z" stroke="#C8EBF7"/>
<rect x="18.5" y="78.875" width="10" height="10.125" stroke="#C8EBF7"/>
<rect x="28.5" y="78.875" width="10" height="10.125" stroke="#C8EBF7"/>
<rect x="38.5" y="78.875" width="10" height="10.125" stroke="#C8EBF7"/>
<path d="M48.5 78.875H58.5V87C58.5 88.1046 57.6046 89 56.5 89H48.5V78.875Z" stroke="#C8EBF7"/>
<path d="M8.5 78.25C8.08579 78.25 7.75 78.5858 7.75 79C7.75 79.4142 8.08579 79.75 8.5 79.75V78.25ZM58.5 18.75C58.9142 18.75 59.25 18.4142 59.25 18C59.25 17.5858 58.9142 17.25 58.5 17.25V18.75ZM8.5 79C8.5 79.75 8.50054 79.75 8.50118 79.75C8.50152 79.75 8.50226 79.75 8.50294 79.75C8.5043 79.75 8.50604 79.75 8.50816 79.75C8.51239 79.75 8.51814 79.7499 8.52538 79.7498C8.53986 79.7497 8.56028 79.7494 8.58647 79.7489C8.63885 79.7479 8.71428 79.7459 8.81124 79.7419C9.00513 79.7341 9.28526 79.7185 9.63933 79.6876C10.3472 79.6259 11.3523 79.5031 12.5557 79.2584C14.96 78.7695 18.1724 77.7908 21.3906 75.8278C27.8749 71.8724 34.25 63.9983 34.25 48.5H32.75C32.75 63.5017 26.6251 70.8776 20.6094 74.5472C17.5776 76.3967 14.54 77.3242 12.2568 77.7885C11.1165 78.0203 10.1684 78.1358 9.50911 78.1933C9.17959 78.222 8.92261 78.2362 8.75029 78.2432C8.66414 78.2467 8.59919 78.2484 8.55696 78.2492C8.53585 78.2496 8.52042 78.2498 8.51086 78.2499C8.50608 78.25 8.50277 78.25 8.50095 78.25C8.50004 78.25 8.49951 78.25 8.49935 78.25C8.49927 78.25 8.49943 78.25 8.49939 78.25C8.49965 78.25 8.5 78.25 8.5 79ZM34.25 48.5C34.25 33.4983 40.3749 26.1224 46.3906 22.4528C49.4224 20.6033 52.46 19.6758 54.7432 19.2115C55.8835 18.9797 56.8316 18.8642 57.4909 18.8067C57.8204 18.778 58.0774 18.7638 58.2497 18.7568C58.3359 18.7533 58.4008 18.7516 58.443 18.7508C58.4642 18.7504 58.4796 18.7502 58.4891 18.7501C58.4939 18.75 58.4972 18.75 58.499 18.75C58.5 18.75 58.5005 18.75 58.5007 18.75C58.5007 18.75 58.5006 18.75 58.5006 18.75C58.5004 18.75 58.5 18.75 58.5 18C58.5 17.25 58.4995 17.25 58.4988 17.25C58.4985 17.25 58.4977 17.25 58.4971 17.25C58.4957 17.25 58.494 17.25 58.4918 17.25C58.4876 17.25 58.4819 17.2501 58.4746 17.2502C58.4601 17.2503 58.4397 17.2506 58.4135 17.2511C58.3612 17.2521 58.2857 17.2541 58.1888 17.2581C57.9949 17.266 57.7147 17.2815 57.3607 17.3124C56.6528 17.3741 55.6477 17.4969 54.4443 17.7416C52.04 18.2305 48.8276 19.2092 45.6094 21.1722C39.1251 25.1276 32.75 33.0017 32.75 48.5H34.25Z" fill="#18ABDC"/>
<path d="M62.5 11.2C62.5 10.0799 62.5 9.51984 62.718 9.09202C62.9097 8.71569 63.2157 8.40973 63.592 8.21799C64.0198 8 64.5799 8 65.7 8H102.9C106.26 8 107.94 8 109.224 8.65396C110.353 9.2292 111.271 10.1471 111.846 11.2761C112.5 12.5595 112.5 14.2397 112.5 17.6V30.4667C112.5 31.5868 112.5 32.1468 112.282 32.5746C112.09 32.951 111.784 33.2569 111.408 33.4487C110.98 33.6667 110.42 33.6667 109.3 33.6667H65.7C64.5799 33.6667 64.0198 33.6667 63.592 33.4487C63.2157 33.2569 62.9097 32.951 62.718 32.5746C62.5 32.1468 62.5 31.5868 62.5 30.4667V11.2Z" fill="#18ABDC" fill-opacity="0.24"/>
<rect x="78.166" y="12.5" width="1.66667" height="17.6667" rx="0.5" fill="#18ABDC" fill-opacity="0.24" stroke="#18ABDC"/>
<rect x="76.3887" y="19.6111" width="5.22223" height="5.22223" rx="0.5" fill="white" stroke="#18ABDC"/>
<rect x="94.166" y="12.5" width="1.66667" height="17.6667" rx="0.5" fill="#18ABDC" fill-opacity="0.24" stroke="#18ABDC"/>
<rect x="92.3887" y="19.6111" width="5.22223" height="5.22223" rx="0.5" fill="white" stroke="#18ABDC"/>
<rect x="86.166" y="12.5" width="1.66667" height="17.6667" rx="0.5" fill="#18ABDC" fill-opacity="0.24" stroke="#18ABDC"/>
<rect x="84.3887" y="16.9445" width="5.22223" height="5.22223" rx="0.5" fill="white" stroke="#18ABDC"/>
<path d="M65.7 8.5H102.9C104.588 8.5 105.825 8.50039 106.8 8.58008C107.77 8.6593 108.437 8.81438 108.997 9.09946C110.032 9.62677 110.873 10.4682 111.401 11.5031C111.686 12.0626 111.841 12.7303 111.92 13.6999C112 14.6754 112 15.9116 112 17.6V30.4667C112 31.035 112 31.4311 111.974 31.7395C111.95 32.0421 111.904 32.216 111.837 32.3477C111.693 32.6299 111.463 32.8594 111.181 33.0032C111.049 33.0703 110.875 33.1164 110.573 33.1411C110.264 33.1663 109.868 33.1667 109.3 33.1667H65.7C65.1317 33.1667 64.7355 33.1663 64.4271 33.1411C64.1245 33.1164 63.9507 33.0703 63.819 33.0032C63.5368 32.8594 63.3073 32.6299 63.1635 32.3477C63.0964 32.216 63.0503 32.0421 63.0256 31.7395C63.0004 31.4311 63 31.035 63 30.4667V11.2C63 10.6317 63.0004 10.2355 63.0256 9.92712C63.0503 9.62454 63.0964 9.45069 63.1635 9.31901C63.3073 9.03677 63.5368 8.8073 63.819 8.66349C63.9507 8.5964 64.1245 8.55031 64.4271 8.52559C64.7355 8.50039 65.1317 8.5 65.7 8.5Z" stroke="#18ABDC" stroke-opacity="0.24"/>
<rect x="62.5" y="35.6666" width="50" height="25.6667" rx="2" fill="#18ABDC" fill-opacity="0.24"/>
<rect x="96.166" y="52.2778" width="1.66667" height="17.6667" rx="0.5" transform="rotate(90 96.166 52.2778)" fill="#18ABDC" fill-opacity="0.24" stroke="#18ABDC"/>
<rect x="89.0547" y="50.5" width="5.22223" height="5.22223" rx="0.5" transform="rotate(90 89.0547 50.5)" fill="white" stroke="#18ABDC"/>
<rect x="96.166" y="44.2778" width="1.66667" height="17.6667" rx="0.5" transform="rotate(90 96.166 44.2778)" fill="#18ABDC" fill-opacity="0.24" stroke="#18ABDC"/>
<rect x="91.7207" y="42.5" width="5.22223" height="5.22223" rx="0.5" transform="rotate(90 91.7207 42.5)" fill="white" stroke="#18ABDC"/>
<rect x="63" y="36.1666" width="49" height="24.6667" rx="1.5" stroke="#18ABDC" stroke-opacity="0.24"/>
<path d="M62.5 66.5334C62.5 65.4133 62.5 64.8532 62.718 64.4254C62.9097 64.0491 63.2157 63.7431 63.592 63.5514C64.0198 63.3334 64.5799 63.3334 65.7 63.3334H109.3C110.42 63.3334 110.98 63.3334 111.408 63.5514C111.784 63.7431 112.09 64.0491 112.282 64.4254C112.5 64.8532 112.5 65.4133 112.5 66.5334V79.4C112.5 82.7604 112.5 84.4405 111.846 85.724C111.271 86.853 110.353 87.7708 109.224 88.3461C107.94 89 106.26 89 102.9 89H65.7C64.5799 89 64.0198 89 63.592 88.7821C63.2157 88.5903 62.9097 88.2843 62.718 87.908C62.5 87.4802 62.5 86.9201 62.5 85.8V66.5334Z" fill="#18ABDC" fill-opacity="0.24"/>
<rect x="78.166" y="67.5" width="1.66667" height="17.6667" rx="0.5" fill="#18ABDC" fill-opacity="0.24" stroke="#18ABDC"/>
<rect x="76.3887" y="74.6111" width="5.22223" height="5.22223" rx="0.5" fill="white" stroke="#18ABDC"/>
<rect x="94.166" y="67.5" width="1.66667" height="17.6667" rx="0.5" fill="#18ABDC" fill-opacity="0.24" stroke="#18ABDC"/>
<rect x="92.3887" y="74.6111" width="5.22223" height="5.22223" rx="0.5" fill="white" stroke="#18ABDC"/>
<rect x="86.166" y="67.5" width="1.66667" height="17.6667" rx="0.5" fill="#18ABDC" fill-opacity="0.24" stroke="#18ABDC"/>
<rect x="84.3887" y="71.9445" width="5.22223" height="5.22223" rx="0.5" fill="white" stroke="#18ABDC"/>
<path d="M65.7 63.8334H109.3C109.868 63.8334 110.264 63.8338 110.573 63.859C110.875 63.8837 111.049 63.9298 111.181 63.9969C111.463 64.1407 111.693 64.3701 111.837 64.6524C111.904 64.7841 111.95 64.9579 111.974 65.2605C112 65.5689 112 65.9651 112 66.5334V79.4C112 81.0885 112 82.3247 111.92 83.3001C111.841 84.2697 111.686 84.9375 111.401 85.497C110.873 86.5319 110.032 87.3733 108.997 87.9006C108.437 88.1857 107.77 88.3407 106.8 88.42C105.825 88.4997 104.588 88.5 102.9 88.5H65.7C65.1317 88.5 64.7355 88.4997 64.4271 88.4745C64.1245 88.4497 63.9507 88.4036 63.819 88.3365C63.5368 88.1927 63.3073 87.9633 63.1635 87.681C63.0964 87.5493 63.0503 87.3755 63.0256 87.0729C63.0004 86.7645 63 86.3683 63 85.8V66.5334C63 65.9651 63.0004 65.5689 63.0256 65.2605C63.0503 64.9579 63.0964 64.7841 63.1635 64.6524C63.3073 64.3701 63.5368 64.1407 63.819 63.9969C63.9507 63.9298 64.1245 63.8837 64.4271 63.859C64.7355 63.8338 65.1317 63.8334 65.7 63.8334Z" stroke="#18ABDC" stroke-opacity="0.24"/>
<rect x="1" y="0.5" width="119" height="96" rx="9.5" stroke="#18ABDC"/>
</svg>
