<svg width="16" height="16" viewBox="0 0 16 16" fill="none" xmlns="http://www.w3.org/2000/svg">
  <path d="M13.7382 6.73767L15 6.0155L13.2344 2.9845L11.962 3.7125C11.3382 3.1455 10.5919 2.722 9.7656 2.463V1H6.2344V2.463C5.4081 2.722 4.66185 3.14433 4.038 3.7125L2.7656 2.9845L1 6.0155L2.26181 6.73767C2.06642 7.61033 2.06524 8.38617 2.26181 9.2635L1.00235 9.9845L2.76795 13.0155L4.038 12.2887C4.66185 12.8545 5.4081 13.278 6.2344 13.537V15H9.7656V13.537C10.5919 13.278 11.3382 12.8557 11.962 12.2887L13.232 13.0155L14.9976 9.9845L13.7382 9.2635C13.9348 8.38617 13.9336 7.61033 13.7382 6.73767Z" fill="#31F5CA" fill-opacity="0.3" stroke="#19D9BD" stroke-width="1.4" stroke-linecap="round" stroke-linejoin="round"/>
  <path d="M8 11C9.65685 11 11 9.65685 11 8C11 6.34315 9.65685 5 8 5C6.34315 5 5 6.34315 5 8C5 9.65685 6.34315 11 8 11Z" fill="white" stroke="#19D9BD" stroke-width="1.4" stroke-linecap="round" stroke-linejoin="round"/>
</svg>
