<svg width="15" height="16" viewBox="0 0 15 16" fill="none" xmlns="http://www.w3.org/2000/svg">
<path d="M10.6649 2.71847C11.1531 2.23031 11.9446 2.23031 12.4327 2.71847L12.6161 2.90185C13.1043 3.39001 13.1043 4.18147 12.6161 4.66962L4.53243 12.7533C4.42728 12.8584 4.30421 12.944 4.16901 13.0059L1.34723 14.2981C1.13568 14.395 0.918123 14.1757 1.01667 13.965L2.32705 11.1623C2.38863 11.0306 2.47271 10.9107 2.57551 10.8079L10.6649 2.71847Z" fill="#CCF7F3" stroke="#00D9C9" stroke-width="1.5" stroke-linecap="round" stroke-linejoin="round"/>
<rect x="12.2344" y="1.16149" width="2.61674" height="1.9701" rx="0.985048" transform="rotate(45 12.2344 1.16149)" fill="#CCF7F3" stroke="#00D9C9" stroke-width="1.5" stroke-linecap="round" stroke-linejoin="round"/>
<path d="M12.6167 5.13095L12.4681 5L9.71064 8.03691L7.42163 7.07276C6.49979 6.68448 5.45341 7.23795 5.25557 8.21846C5.10682 8.95564 5.49731 9.69572 6.18979 9.98905L11.1767 12.1015C12.2943 12.5749 13.5716 11.945 13.8763 10.7702C13.9161 10.617 13.9374 10.4596 13.9398 10.3013L13.9719 8.19313C13.9897 7.02334 13.4945 5.90438 12.6167 5.13095Z" fill="#CCF7F3" stroke="#00D9C9" stroke-width="1.5" stroke-linecap="round" stroke-linejoin="round"/>
<path d="M2.9853 7.95113L3.40351 9L6.91228 5.96L10 3.0736L9.21723 2.60156C7.65408 1.65893 5.65106 1.8941 4.34876 3.17316L3.89799 3.61588C2.7482 4.74515 2.38841 6.45414 2.9853 7.95113Z" fill="#CCF7F3" stroke="#00D9C9" stroke-width="1.5" stroke-linecap="round" stroke-linejoin="round"/>
</svg>
