<svg width="15" height="14" viewBox="0 0 15 14" fill="none" xmlns="http://www.w3.org/2000/svg">
<path d="M6.77863 11.7563L7.00815 12.4176L6.77863 11.7563L3.6418 12.845C3.43914 12.9154 3.2303 12.7565 3.24405 12.5424L3.4309 9.63334C3.45593 9.24358 3.346 8.85708 3.11957 8.53884L2.54921 8.94465L3.11957 8.53884L1.36045 6.06636C1.24298 5.90126 1.31959 5.66959 1.51233 5.60708L4.49324 4.64022C4.8405 4.52759 5.14228 4.30615 5.35392 4.00869L7.11113 1.5389C7.23 1.37183 7.47771 1.37058 7.59825 1.53644L9.399 4.01414C9.61533 4.31179 9.92239 4.53122 10.2741 4.63946L13.3977 5.60093C13.5993 5.66299 13.6756 5.90823 13.5448 6.0737L11.6052 8.5273C11.3679 8.82748 11.2388 9.19893 11.2388 9.58157V12.5634C11.2388 12.7724 11.0305 12.9173 10.8346 12.8448L7.92628 11.7681C7.55666 11.6312 7.15097 11.6271 6.77863 11.7563Z" fill="#31F5CA" fill-opacity="0.3" stroke="#19D9BD" stroke-width="1.4"/>
</svg>
