<svg width="47" height="46" viewBox="0 0 47 46" fill="none" xmlns="http://www.w3.org/2000/svg">
<path d="M39.3135 35.8186C43.6014 31.7629 46.0165 25.789 45.3365 19.4323C44.1885 8.70014 34.6529 0.94097 24.0381 2.10169C13.4233 3.26242 5.74902 12.9035 6.89705 23.6356C7.1245 25.7619 7.68118 27.7715 8.51025 29.6181" stroke="#0B2448" stroke-width="2.59179" stroke-linecap="round" stroke-linejoin="round" stroke-dasharray="6.48 6.48"/>
<path d="M13.7496 19.4283L13.7465 19.4269C12.6735 18.9273 11.4477 19.3111 10.8147 20.2331L10.8142 20.2339L2.47458 32.3948L2.47189 32.3988C1.98885 33.1069 1.91963 34.0264 2.30145 34.8033L2.30361 34.8077C2.68721 35.5832 3.48766 36.1251 4.41711 36.1251H8.16627L7.11356 41.0611C7.1134 41.0619 7.11324 41.0626 7.11308 41.0633C6.88943 42.1076 7.38746 43.2337 8.42213 43.7201C9.51119 44.2346 10.7408 43.8267 11.3638 42.915C11.3648 42.9135 11.3658 42.9121 11.3668 42.9106L19.6967 30.7638C19.698 30.762 19.6992 30.7602 19.7004 30.7584C20.1998 30.0336 20.2475 29.1101 19.8772 28.3523L19.8753 28.3484C19.4883 27.561 18.6827 27.0256 17.7596 27.0256H14.0099L15.0632 22.0888C15.0634 22.0879 15.0636 22.087 15.0638 22.0862C15.0638 22.0859 15.0639 22.0857 15.0639 22.0855C15.2893 21.0308 14.7783 19.9095 13.7496 19.4283ZM10.9142 41.879L10.915 41.8755L10.9142 41.879ZM16.5014 28.5493L16.496 28.5572L16.5014 28.5493L16.5014 28.5493ZM11.2625 21.2709L11.2618 21.2742L11.2625 21.2709Z" stroke="#FAFAFF" stroke-width="3.88768" stroke-linecap="round" stroke-linejoin="round"/>
<path d="M12.926 21.1891C12.745 21.1048 12.5324 21.1656 12.4173 21.3333L4.07769 33.4942C3.98762 33.6262 3.97428 33.8 4.046 33.9459C4.11688 34.0892 4.26033 34.1813 4.41711 34.1813H10.5684L9.0139 41.47C8.97054 41.6716 9.06978 41.8774 9.25075 41.9617C9.43088 42.0477 9.64604 41.9843 9.75946 41.8175L18.0991 29.6566C18.19 29.5254 18.2016 29.3508 18.1308 29.2057C18.059 29.0598 17.9156 28.9695 17.7596 28.9695H11.6075L13.1629 21.6798C13.2062 21.4783 13.1061 21.2733 12.926 21.1891Z" fill="#BEF9EF" stroke="#0B2448" stroke-width="2.59179" stroke-linecap="round" stroke-linejoin="round"/>
<ellipse cx="25.9096" cy="22.8483" rx="2.57758" ry="2.60608" fill="#0B2448" fill-opacity="0.3" stroke="#0B2448" stroke-width="2.59179" stroke-linecap="round" stroke-linejoin="round"/>
<path d="M35.9181 27.6928L28.9199 24.231" stroke="#0B2448" stroke-width="2.59179" stroke-linecap="round" stroke-linejoin="round"/>
</svg>
