<svg width="15" height="15" viewBox="0 0 15 15" fill="none" xmlns="http://www.w3.org/2000/svg">
<circle cx="7.5" cy="7.5" r="6.75" fill="#CCF7F3" stroke="#00D9C9" stroke-width="1.5"/>
<path d="M11.0857 5.46852C11.3444 5.14507 11.292 4.67311 10.9685 4.41435C10.6451 4.15559 10.1731 4.20803 9.91435 4.53148L11.0857 5.46852ZM6.5 10L5.96967 10.5303C6.12052 10.6812 6.32847 10.7606 6.54148 10.7489C6.75448 10.7371 6.95238 10.6351 7.08565 10.4685L6.5 10ZM5.03033 7.46967C4.73744 7.17678 4.26256 7.17678 3.96967 7.46967C3.67678 7.76256 3.67678 8.23744 3.96967 8.53033L5.03033 7.46967ZM9.91435 4.53148L5.91435 9.53148L7.08565 10.4685L11.0857 5.46852L9.91435 4.53148ZM7.03033 9.46967L5.03033 7.46967L3.96967 8.53033L5.96967 10.5303L7.03033 9.46967Z" fill="#00D9C9"/>
</svg>
