<svg width="5" height="8" viewBox="0 0 5 8" fill="none" xmlns="http://www.w3.org/2000/svg">
<path d="M0.588925 6.6346C0.38712 6.86163 0.407569 7.20927 0.6346 7.41108C0.86163 7.61288 1.20927 7.59243 1.41108 7.3654L0.588925 6.6346ZM3.66667 4L4.07774 4.3654C4.26297 4.15701 4.26297 3.84299 4.07774 3.6346L3.66667 4ZM1.41108 0.6346C1.20927 0.407569 0.86163 0.38712 0.6346 0.588925C0.407569 0.79073 0.38712 1.13837 0.588925 1.3654L1.41108 0.6346ZM1.41108 7.3654L4.07774 4.3654L3.25559 3.6346L0.588925 6.6346L1.41108 7.3654ZM4.07774 3.6346L1.41108 0.6346L0.588925 1.3654L3.25559 4.3654L4.07774 3.6346Z" fill="#A4AFC5"/>
</svg>
