<svg width="20" height="19" viewBox="0 0 20 19" fill="none" xmlns="http://www.w3.org/2000/svg">
<path fill-rule="evenodd" clip-rule="evenodd" d="M16.9436 13.8088C17.6771 12.5499 18.0974 11.0859 18.0974 9.52377C18.0974 4.81622 14.2811 1 9.57358 1C4.86603 1 1.0498 4.81622 1.0498 9.52377C1.0498 14.2313 4.86603 18.0475 9.57358 18.0475C10.9072 18.0475 12.1694 17.7413 13.2934 17.1952H18.9503L16.9436 13.8088Z" fill="#DE3E3E"/>
<path d="M16.9436 13.8088L16.4252 13.5067C16.3156 13.6948 16.3164 13.9275 16.4274 14.1147L16.9436 13.8088ZM13.2934 17.1952V16.5952C13.2026 16.5952 13.113 16.6158 13.0313 16.6555L13.2934 17.1952ZM18.9503 17.1952V17.7952C19.1659 17.7952 19.3649 17.6795 19.4716 17.4922C19.5784 17.3049 19.5764 17.0748 19.4665 16.8893L18.9503 17.1952ZM17.4974 9.52377C17.4974 10.9769 17.1067 12.337 16.4252 13.5067L17.462 14.1109C18.2475 12.7627 18.6974 11.1949 18.6974 9.52377H17.4974ZM9.57358 1.6C13.9498 1.6 17.4974 5.14759 17.4974 9.52377H18.6974C18.6974 4.48485 14.6125 0.4 9.57358 0.4V1.6ZM1.6498 9.52377C1.6498 5.14759 5.1974 1.6 9.57358 1.6V0.4C4.53466 0.4 0.449805 4.48485 0.449805 9.52377H1.6498ZM9.57358 17.4475C5.1974 17.4475 1.6498 13.9 1.6498 9.52377H0.449805C0.449805 14.5627 4.53466 18.6475 9.57358 18.6475V17.4475ZM13.0313 16.6555C11.9871 17.1627 10.8144 17.4475 9.57358 17.4475V18.6475C11 18.6475 12.3516 18.3198 13.5556 17.7349L13.0313 16.6555ZM18.9503 16.5952H13.2934V17.7952H18.9503V16.5952ZM16.4274 14.1147L18.4341 17.5011L19.4665 16.8893L17.4598 13.5029L16.4274 14.1147Z" fill="white" fill-opacity="0.8"/>
</svg>
