<svg width="18" height="18" viewBox="0 0 18 18" fill="none" xmlns="http://www.w3.org/2000/svg">
<path fill-rule="evenodd" clip-rule="evenodd" d="M5.44416 17.9229C2.24196 16.4922 3.29487e-08 13.1879 2.33354e-08 9.34011C1.04476e-08 4.18171 4.02944 9.78749e-09 9 2.1861e-08C13.9706 3.39345e-08 18 4.18171 18 9.34011C18 13.1881 15.7578 16.4926 12.5553 17.9232L10.5437 13.1259C11.964 12.5016 12.9605 11.0416 12.9605 9.34C12.9605 7.07031 11.1876 5.23035 9.00053 5.23035C6.81348 5.23035 5.04053 7.07031 5.04053 9.34C5.04053 11.041 6.03631 12.5006 7.45591 13.1253L5.44416 17.9229Z" fill="#57A8F1"/>
</svg>
