<svg viewBox="0 0 24 24" fill="none" xmlns="http://www.w3.org/2000/svg">
  <path
    d="M4 14.5C4 14.2239 4.22386 14 4.5 14H5.5C5.77614 14 6 14.2239 6 14.5V16.5C6 16.7761 6.22386 17 6.5 17H17.5C17.7761 17 18 16.7761 18 16.5V14.5C18 14.2239 18.2239 14 18.5 14H19.5C19.7761 14 20 14.2239 20 14.5V18.5C20 18.7761 19.7761 19 19.5 19H4.5C4.22386 19 4 18.7761 4 18.5V14.5Z"
    fill="#91A9C0"
  />
  <rect x="9.5" y="3" width="5" height="10" rx="0.5" fill="#91A9C0" />
  <path
    d="M12.3536 15.3744L17.5104 10.2175C17.8254 9.90253 17.6023 9.36396 17.1569 9.36396L6.84315 9.36396C6.39769 9.36396 6.17461 9.90253 6.48959 10.2175L11.6464 15.3744C11.8417 15.5696 12.1583 15.5696 12.3536 15.3744Z"
    fill="#91A9C0"
  />
</svg>
