<svg width="54" height="20" viewBox="0 0 54 20" fill="none" xmlns="http://www.w3.org/2000/svg">
<path d="M20.3333 20H33.6667C36.7666 20 38.3165 20 39.5882 19.6593C43.0391 18.7346 45.7346 16.0391 46.6593 12.5882C47 11.3165 47 9.76657 47 6.66667C47 5.11671 47 4.34174 47.1704 3.7059C47.6327 1.98044 48.9804 0.632707 50.7059 0.170371C51.3417 0 52.1167 0 53.6667 0H0.333333C1.88329 0 2.65826 0 3.2941 0.170371C5.01956 0.632707 6.36729 1.98044 6.82963 3.7059C7 4.34174 7 5.11671 7 6.66667C7 9.76657 7 11.3165 7.34074 12.5882C8.26541 16.0391 10.9609 18.7346 14.4118 19.6593C15.6835 20 17.2334 20 20.3333 20Z" fill="white"/>
</svg>
