<svg width="68" height="30" viewBox="0 0 68 30" fill="none" xmlns="http://www.w3.org/2000/svg">
<path d="M53 15V13.5C53 10.2446 53 8.61683 53.3754 7.2856C54.3199 3.93694 56.9369 1.31987 60.2856 0.375448C61.6168 0 63.2446 0 66.5 0H0C2.78905 0 4.18358 0 5.33445 0.276301C8.99094 1.15415 11.8459 4.00906 12.7237 7.66555C13 8.81642 13 10.2109 13 13V17.5C13 19.8233 13 20.9849 12.8079 21.9509C12.0188 25.9178 8.91781 29.0188 4.9509 29.8079C3.98491 30 2.82328 30 0.5 30H68C63.3406 30 61.0109 30 59.1732 29.2388C56.7229 28.2239 54.7761 26.2771 53.7612 23.8268C53 21.9891 53 19.6594 53 15Z" fill="#FAFAFF"/>
</svg>
