<svg width="47" height="46" viewBox="0 0 47 46" fill="none" xmlns="http://www.w3.org/2000/svg">
<path d="M39.3135 35.8186C43.6014 31.7629 46.0165 25.789 45.3365 19.4323C44.1885 8.70014 34.6529 0.94097 24.0381 2.10169C13.4233 3.26242 5.74902 12.9035 6.89705 23.6356C7.1245 25.7619 7.68118 27.7715 8.51025 29.6181" stroke="#31F5CA" stroke-width="2.59179" stroke-linecap="round" stroke-linejoin="round" stroke-dasharray="6.48 6.48"/>
<path d="M12.926 21.1891C12.745 21.1048 12.5324 21.1656 12.4173 21.3333L4.07769 33.4942C3.98762 33.6262 3.97428 33.8 4.046 33.9459C4.11688 34.0892 4.26033 34.1813 4.41711 34.1813H10.5684L9.0139 41.47C8.97054 41.6716 9.06978 41.8774 9.25075 41.9617C9.43088 42.0477 9.64604 41.9843 9.75946 41.8175L18.0991 29.6566C18.19 29.5254 18.2016 29.3508 18.1308 29.2057C18.059 29.0598 17.9156 28.9695 17.7596 28.9695H11.6075L13.1629 21.6798C13.2062 21.4783 13.1061 21.2733 12.926 21.1891Z" fill="#16636F" stroke="#31F5CA" stroke-width="2.59179" stroke-linecap="round" stroke-linejoin="round"/>
<ellipse cx="25.9096" cy="22.8483" rx="2.57758" ry="2.60608" fill="#0B2448" fill-opacity="0.3" stroke="#31F5CA" stroke-width="2.59179" stroke-linecap="round" stroke-linejoin="round"/>
<path d="M32.997 15.0301L27.8418 20.8938" stroke="#31F5CA" stroke-width="2.59179" stroke-linecap="round" stroke-linejoin="round"/>
</svg>
