<svg width="14" height="17" viewBox="0 0 14 17" fill="none" xmlns="http://www.w3.org/2000/svg">
<path d="M7 5.56522C10.3137 5.56522 13 4.54326 13 3.28261C13 2.02196 10.3137 1 7 1C3.68629 1 1 2.02196 1 3.28261C1 4.54326 3.68629 5.56522 7 5.56522Z" fill="#31F5CA" fill-opacity="0.3" stroke="#19D9BD" stroke-width="1.4"/>
<path d="M1 3.28259V4.91303C1 5.63042 1.40232 6.63281 1.89368 7.13955L6.05263 11.4348" stroke="#19D9BD" stroke-width="1.4" stroke-miterlimit="10" stroke-linecap="round" stroke-linejoin="round"/>
<path d="M12.9999 3.28259V4.91303C12.9999 5.63042 12.5982 6.63281 12.1068 7.13955L7.94727 11.4348" stroke="#19D9BD" stroke-width="1.4" stroke-miterlimit="10" stroke-linecap="round" stroke-linejoin="round"/>
<path d="M7.94747 11.4348V15.3479C7.94747 15.7066 7.66389 16 7.31589 16H6.68431C6.33694 16 6.05273 15.7066 6.05273 15.3479V11.4348" stroke="#19D9BD" stroke-width="1.4" stroke-miterlimit="10" stroke-linecap="round" stroke-linejoin="round"/>
</svg>
