<svg width="17" height="13" viewBox="0 0 17 13" fill="none" xmlns="http://www.w3.org/2000/svg">
<path d="M16.3 10.4C16.3 11.4943 15.4812 12.3 14.5714 12.3H2.42857C1.5188 12.3 0.7 11.4943 0.7 10.4V2.6C0.7 1.50566 1.5188 0.7 2.42857 0.7H14.5714C15.4812 0.7 16.3 1.50566 16.3 2.6V10.4Z" fill="#CCF7F3" stroke="#00D9C9" stroke-width="1.4"/>
<path d="M14 12L11.6404 4L8.49941 9.33523L5.35957 8.18327L3 12" fill="#CCF7F3"/>
<path d="M14 12L11.6404 4L8.49941 9.33523L5.35957 8.18327L3 12" stroke="#00D9C9" stroke-miterlimit="10" stroke-linejoin="round"/>
<path d="M5.5 6C6.32843 6 7 5.32843 7 4.5C7 3.67157 6.32843 3 5.5 3C4.67157 3 4 3.67157 4 4.5C4 5.32843 4.67157 6 5.5 6Z" fill="#CCF7F3" stroke="#00D9C9" stroke-miterlimit="10" stroke-linejoin="round"/>
</svg>
