<svg width="24" height="24" viewBox="0 0 24 24" fill="none" xmlns="http://www.w3.org/2000/svg">
<path d="M17.3997 19.6999C16.2997 19.5999 14.9997 18.6999 14.1997 18.4999C13.6997 18.3999 11.1997 18.0999 11.1997 18.0999V17.3999L10.9997 16.6999L10.4997 15.5999L9.99971 14.8999L10.0997 14.5999L10.3997 14.1999L10.8997 13.9999C11.3997 13.9999 12.0997 14.0999 12.3997 14.0999C14.8997 14.5999 15.7997 16.4999 17.5997 17.3999C18.5997 17.8999 19.8997 17.5999 20.8997 17.0999L20.9997 17.3999C20.9997 17.2999 20.9997 17.0999 20.8997 17.0999C20.2997 16.5999 19.2997 16.4999 18.5997 16.1999C17.8997 15.8999 17.1997 15.5999 16.6997 14.8999C15.6997 13.3999 13.9997 12.0999 12.9997 11.9999C12.3997 11.8999 10.1997 12.8999 9.39971 13.4999C8.39971 13.3999 7.29971 13.3999 6.29971 13.6999C5.69971 13.8999 5.09971 14.2999 4.49971 14.8999C3.69971 15.6999 2.89971 17.6999 2.99971 18.2999C3.09971 18.8999 3.49971 20.1999 3.99971 20.3999C4.39971 20.8999 5.79971 21.4999 6.59971 21.5999C7.99971 21.6999 8.69971 22.1999 9.79971 20.9999C9.99971 20.7999 10.0997 20.5999 10.2997 20.3999L10.3997 20.2999C10.3997 20.2999 10.3997 20.2999 10.2997 20.2999C11.4997 20.2999 12.8997 20.2999 13.0997 20.3999C13.5997 20.4999 13.9997 20.7999 14.4997 21.0999C15.1997 21.4999 15.8997 21.9999 16.3997 21.9999C19.0997 22.1999 20.5997 18.6999 20.9997 17.3999C20.3997 18.4999 18.4997 19.6999 17.3997 19.6999ZM5.99971 18.0999C5.49971 18.0999 5.19971 17.7999 5.19971 17.3999C5.19971 16.8999 5.59971 16.5999 5.99971 16.5999C6.39971 16.5999 6.79971 16.8999 6.79971 17.3999C6.89971 17.7999 6.49971 18.0999 5.99971 18.0999Z" fill="#DAE4ED"/>
<path d="M6.6003 9.69989C7.7003 9.59989 9.00029 8.69989 9.80029 8.49989C10.3003 8.39989 12.8003 8.09989 12.8003 8.09989V7.39989L13.0003 6.69989L13.5003 5.59989L14.0003 4.89989L13.9003 4.59989L13.6003 4.19989L13.1003 3.99989C12.6003 3.99989 11.9003 4.09989 11.6003 4.09989C9.1003 4.59989 8.20029 6.49989 6.40029 7.39989C5.40029 7.89989 4.10029 7.59989 3.10029 7.09989L3.00029 7.39989C3.00029 7.29989 3.00029 7.09989 3.10029 7.09989C3.70029 6.59989 4.70029 6.49989 5.40029 6.19989C6.10029 5.89989 6.80029 5.59989 7.30029 4.89989C8.30029 3.39989 10.0003 2.09989 11.0003 1.99989C11.6003 1.89989 13.8003 2.89989 14.6003 3.49989C15.6003 3.39989 16.7003 3.39989 17.7003 3.69989C18.3003 3.89989 18.9003 4.29989 19.5003 4.89989C20.3003 5.69989 21.1003 7.69989 21.0003 8.29989C20.9003 8.89989 20.5003 10.1999 20.0003 10.3999C19.6003 10.8999 18.2003 11.4999 17.4003 11.5999C16.0003 11.6999 15.3003 12.1999 14.2003 10.9999C14.0003 10.7999 13.9003 10.5999 13.7003 10.3999L13.6003 10.2999C13.6003 10.2999 13.6003 10.2999 13.7003 10.2999C12.5003 10.2999 11.1003 10.2999 10.9003 10.3999C10.4003 10.4999 10.0003 10.7999 9.50029 11.0999C8.80029 11.4999 8.1003 11.9999 7.6003 11.9999C4.9003 12.1999 3.40029 8.69989 3.00029 7.39989C3.60029 8.49989 5.50029 9.69989 6.6003 9.69989ZM18.0003 8.09989C18.5003 8.09989 18.8003 7.79989 18.8003 7.39989C18.8003 6.89989 18.4003 6.59989 18.0003 6.59989C17.6003 6.59989 17.2003 6.89989 17.2003 7.39989C17.1003 7.79989 17.5003 8.09989 18.0003 8.09989Z" fill="#DAE4ED"/>
</svg>
