<svg width="566" height="199" viewBox="0 0 566 199" fill="none" xmlns="http://www.w3.org/2000/svg">
<path fill-rule="evenodd" clip-rule="evenodd" d="M519.002 149C492.63 139.917 458.526 100.465 455.002 99C451.478 97.5349 444.037 84.1981 433.934 77.9863C423.891 71.7744 422.129 69.1959 412.026 65.211C401.982 61.1674 390.999 56.4206 388.826 56.8308C386.653 57.1824 374.847 63.3943 364.744 71.833C354.701 80.2132 352.293 77.8691 350.942 76.5798C350.53 76.1696 312.235 55.483 311.648 55.6002C307.947 56.1862 298.667 66.2072 298.667 66.2072C298.667 66.2072 286.039 55.483 283.866 56.2448C281.693 56.948 279.05 60.2884 276.407 59.5265C273.764 58.8233 260.666 50.7362 257.142 47.4545C253.618 44.1727 245.747 38.3125 245.747 38.3125C245.747 38.3125 203.399 8.95274 200.815 12.2345C198.172 15.5162 170.155 42.7077 164.869 51.4394C159.641 60.2298 144.723 69.3717 144.723 69.3717L114.122 79.0411C101.435 95.6842 101.083 87.7729 88.6894 103.771C88.6894 103.771 80.8189 111.097 78.1758 114.73C75.5328 118.363 44.9318 127.915 34.8293 127.915C24.7856 127.915 31.7751 163.721 31.7751 163.721L9.16211 188.393L519.002 159C500.148 129.816 544.669 157.908 519.002 149Z" fill="#E8EDF3"/>
<path fill-rule="evenodd" clip-rule="evenodd" d="M245.981 38.078C245.981 38.078 214.088 15.985 203.927 12.293C202.047 12.1172 200.99 12 200.99 12C200.99 12 223.721 33.8587 221.489 33.1554C219.257 32.4522 212.62 33.1554 212.62 34.0345C212.62 34.9135 217.142 43.7039 217.142 43.7039L211.974 46.8098L206.394 47.3372C206.394 47.3372 228.067 59.4093 231.415 64.0975C234.704 68.727 233.06 70.3093 232.472 71.7158C231.826 73.1222 230.593 72.0674 232.472 74.9975C234.352 77.9276 235.996 78.6308 236.819 80.5061C237.641 82.3814 237.23 86.0147 237.23 86.0147L234.117 87.0696C234.117 87.0696 230.182 87.7728 231.004 89.1207C231.826 90.5271 234.704 95.5083 237.817 99.7863C240.93 104.123 248.154 117.015 248.154 117.015L254.322 127.212C254.322 127.212 245.453 102.013 244.219 99.7863C242.986 97.5594 242.751 94.6293 242.751 94.6293C242.751 94.6293 265.54 107.112 263.895 105.236C262.251 103.361 258.551 98.8486 258.551 98.8486C258.551 98.8486 261.429 99.9035 261.017 99.0831C260.606 98.3212 258.962 96.3287 258.433 94.8637C257.905 93.3986 246.686 75.4663 246.686 75.4663C246.686 75.4663 252.853 78.748 252.853 78.3378C252.853 77.9276 251.209 73.9426 251.209 73.9426C251.209 73.9426 255.144 66.2658 255.673 66.5002C256.201 66.7346 260.313 68.6684 263.308 71.3055C266.304 74.0013 274.761 81.3851 275.936 82.2642C277.052 83.1432 279.989 85.8975 279.989 85.8975C279.989 85.8975 263.661 66.2071 263.661 65.5625C263.661 64.8593 273.176 68.434 273.704 68.2582C274.233 68.0824 269.886 62.0464 270.944 61.9878C272.001 61.9292 274.761 61.9878 274.761 61.9878L276.817 59.3507C274.174 58.6474 261.076 50.5603 257.552 47.2786C253.852 43.9383 245.981 38.078 245.981 38.078Z" fill="#DDE7F0"/>
<path fill-rule="evenodd" clip-rule="evenodd" d="M95.3857 96.0947C93.095 97.7942 90.2758 100.255 86.3405 104.768C86.3405 104.768 77.9414 111.683 75.0634 115.199C73.595 117.016 64.5498 120.004 54.7998 122.349L38.1777 131.549L52.6853 128.678L66.6055 121.938L63.3751 125.396L73.7125 121.528L55.0934 135.768L61.2019 134.596L59.4986 138.054L39.4112 153.877L51.3344 149.247L61.0844 143.504L67.8977 140.984L53.4489 154.521L55.3871 153.408L66.0182 148.427L73.8887 145.731L59.9097 158.33L65.1959 155.517L65.4895 157.158L55.5046 167.941L76.6492 153.466L72.0091 154.287L88.5137 137.058L90.6282 133.366L86.8691 133.717L84.7547 134.303L88.1613 127.037L83.9911 127.33L91.098 112.679L87.2803 110.745L95.3857 96.0947Z" fill="#DDE7F0"/>
<path fill-rule="evenodd" clip-rule="evenodd" d="M192.769 20.5557C183.313 30.1664 167.983 45.8133 164.224 52.0251C163.871 52.5525 163.519 53.1385 163.108 53.666C158.174 60.5224 148.307 67.2031 145.135 69.2542L138.791 75.8763L145.605 74.4698L130.51 87.4209C130.51 87.4209 142.257 81.5607 143.549 80.33C144.782 79.0994 148.894 77.7515 148.894 77.7515C148.894 77.7515 158.174 71.1881 159.407 70.6606C160.641 70.1332 156.529 83.6118 156.529 83.6118C156.529 83.6118 153.651 87.9483 152.594 89.2962C151.537 90.7026 141.846 104.298 140.201 106.056C138.556 107.756 146.838 103.302 146.838 103.302L155.12 97.9693L150.362 106.584L149.54 109.162L154.709 110.686C154.709 110.686 155.531 112.737 154.944 113.792C154.297 114.847 148.953 126.567 148.13 127.739C147.308 128.97 159.701 122.231 159.701 122.231C159.701 122.231 136.794 159.502 135.15 160.498C133.505 161.494 163.636 129.615 163.636 129.615C163.636 129.615 166.221 127.739 167.16 125.102C168.1 122.524 170.038 121.117 170.038 121.117L168.805 117.132L169.04 114.73C169.04 114.73 170.508 110.569 171.507 109.397C172.564 108.166 168.218 107.873 168.218 107.873L185.251 84.7838L178.849 85.3112C178.849 85.3112 181.139 79.0994 181.727 78.0445C182.373 76.9897 170.391 84.4322 170.391 84.4322C170.391 84.4322 190.008 51.3219 190.008 50.4428C190.008 49.5638 183.841 51.8493 183.841 51.8493L184.252 46.8681L188.188 38.9568C188.188 38.9568 180.963 43.7622 180.552 44.6412C180.082 45.5789 191.712 21.7277 192.769 20.5557Z" fill="#DDE7F0"/>
<path fill-rule="evenodd" clip-rule="evenodd" d="M509.002 138C482.63 128.858 458.661 95.4651 455.195 94C451.671 92.5349 443.742 84.1397 433.64 77.9279C423.596 71.7161 421.834 69.1375 411.731 65.1526C402.627 61.5192 392.819 57.2999 389.412 56.7725L412.671 73.0639L407.326 72.3607L413.493 78.2209L429.822 89.0623L440.57 97.1495L418.662 89.9414L426.122 96.1532L461.774 112.093L456.84 111.507L459.835 114.847L457.78 114.672L455.195 114.261L446.738 110.921L435.989 106.35L431.878 104.182L448.735 118.246L466.296 133.424L483.623 149.13L514.811 164.132L520.002 164.5H529.502L537.502 159.971L535.251 155.5C532.784 150.812 531.675 153.408 529.502 149.13L520.502 146.5C517.506 144.566 512.761 139.289 509.002 138Z" fill="#DDE7F0"/>
<path fill-rule="evenodd" clip-rule="evenodd" d="M351.175 76.5216C350.764 76.1114 313.526 56.0108 311.881 55.542H311.822C311.822 55.542 329.208 70.72 328.209 70.5442C327.152 70.3684 319.928 69.0205 321.572 70.3684C323.217 71.7748 325.684 74.998 325.684 74.998C325.684 74.998 329.619 77.5765 329.208 78.4555C328.797 79.3345 327.739 82.7921 327.739 82.7921C327.739 82.7921 327.504 83.6711 328.973 85.5464C330.441 87.4217 331.264 87.9491 333.907 90.7034C336.608 93.4577 340.955 98.9663 341.777 100.9C342.599 102.775 323.393 96.2706 323.393 96.2706C323.393 96.2706 338.077 111.273 342.188 112.152C346.3 113.031 349.002 111.273 354.816 115.434C360.572 119.594 365.095 122.29 365.095 122.29L350.47 106.643L357.694 107.522C357.694 107.522 363.274 110.277 362.628 109.222C361.982 108.167 351.468 98.6733 351.292 97.1496C351.057 95.626 346.535 90.4104 346.535 90.4104L351.057 89.3555L358.928 91.2308L352.819 83.4953C352.819 83.4953 361.101 85.7222 362.099 86.0738C363.157 86.4254 366.622 87.1286 366.622 87.1286L351.997 77.2835C351.645 77.049 351.41 76.756 351.175 76.5216Z" fill="#DDE7F0"/>
<path fill-rule="evenodd" clip-rule="evenodd" d="M112.595 99.3172L105.9 106.291L105.077 110.452L101.377 116.253L106.839 115.14C106.839 115.14 103.844 118.48 102.199 119.828C104.255 118.539 109.424 115.491 109.424 115.491C109.424 115.491 102.199 126.978 103.139 126.157C104.079 125.395 110.598 116.077 110.598 116.077C110.598 116.077 115.767 110.979 116.589 110.452C117.412 109.924 110.422 110.51 108.249 111.858C106.076 113.147 120.936 99.3758 121.699 98.6726C122.404 97.9694 123.638 95.3323 122.933 95.2151C122.228 95.1565 118.704 96.1527 118.704 96.1527L121.053 89.4134L116.531 89.6478L137.91 73.708L121.993 81.7951L114.24 79.0408C113.535 79.9199 112.948 80.7403 112.302 81.5021C112.889 81.4435 113.241 81.4435 113.3 81.4435C113.946 81.7951 109.894 87.2451 109.482 87.8312C109.071 88.4172 112.889 85.4285 113.183 85.8387C113.476 86.2489 113.065 89.7064 112.478 91.6403C111.832 93.5156 111.127 95.4495 111.127 95.4495C111.127 95.4495 113.888 95.0393 113.183 95.6839C112.478 96.3871 103.256 105.06 104.02 104.767C104.725 104.416 107.133 103.126 108.073 102.423C108.895 101.72 112.595 99.3172 112.595 99.3172Z" fill="#DDE7F0"/>
<path fill-rule="evenodd" clip-rule="evenodd" d="M565.736 199L563.504 191.909C558.982 184.115 555.34 176.673 551.934 169.758C536.134 167.062 489.087 158.564 481.275 152.939C472.23 146.434 459.543 141.453 459.543 141.453C459.543 141.453 444.155 136.471 436.049 134.186C427.474 131.783 408.268 118.832 394.7 111.507C382.718 119.594 373.203 125.571 368.445 129.029C363.688 132.486 351.706 129.967 350.59 130.963C349.474 131.9 338.373 132.486 332.029 137.878C325.686 143.211 314.644 147.254 313.058 147.43C311.472 147.606 269.653 118.539 266.951 120.414C265.013 121.762 256.907 126.45 251.21 129.849C247.627 130.728 244.162 131.666 244.044 131.9C243.751 132.428 235.293 138.347 235.293 138.347C235.293 138.347 227.775 141.277 226.776 141.804C226.189 142.097 214.501 149.657 205.162 155.634C199.758 153.114 195.823 151.532 195.647 151.474C195.353 151.298 191.594 150.419 191.065 150.009C190.537 149.598 180.199 142.273 178.437 141.746C177.674 141.511 175.618 141.042 173.503 140.515C165.222 135.475 158.35 131.607 157.293 132.369C154.062 134.538 123.109 151.005 121.347 153.349C119.526 155.634 112.301 154.521 105.958 159.092C99.6147 163.663 91.5093 169.816 91.5093 169.816C91.5093 169.816 80.2321 174.797 77.9415 175.559C75.7095 176.321 64.8435 167.531 64.8435 167.531C57.9128 167.062 40.6447 181.478 25.491 181.478C16.622 181.478 2.70181 196.422 0 199H565.736Z" fill="#F1F5F9"/>
<path fill-rule="evenodd" clip-rule="evenodd" d="M151.656 145.379L174.798 158.389L179.555 168.703C184.313 171.984 182.845 170.871 188.248 172.629C189.423 173.039 190.715 173.625 191.949 174.328C196.412 176.907 200.935 181.009 202.697 182.298C204.635 183.705 201.816 181.888 207.102 185.697C208.101 186.4 209.334 187.338 210.979 188.51C221.316 195.953 222.138 196.773 221.492 196.128C221.199 195.835 216.5 190.971 211.566 185.697C207.69 181.595 203.696 177.2 201.581 174.563C200.289 172.981 199.643 172.043 200.054 172.043C201.229 172.043 205.458 173.508 208.805 174.739C210.744 175.442 212.33 176.028 212.858 176.204C213.328 176.321 212.917 175.735 212.153 174.856C210.509 172.981 207.278 169.816 207.278 169.816L203.167 163.663C203.167 163.663 204.812 161.788 206.691 161.612C208.571 161.377 209.569 162.432 209.158 161.201C208.747 159.971 205.34 155.751 205.34 155.751C199.936 153.232 196.001 151.649 195.825 151.591C195.531 151.415 191.772 150.536 191.244 150.126C190.715 149.715 180.378 142.39 178.616 141.863C177.852 141.628 175.796 141.159 173.682 140.632C166.164 136.061 159.879 132.486 157.941 132.369L173.271 147.137L165.635 146.903L151.656 145.379Z" fill="#DDE7F0"/>
<path fill-rule="evenodd" clip-rule="evenodd" d="M265.659 142.742C271.533 146.375 276.76 150.009 281.988 153.583C288.096 157.744 294.204 161.905 301.37 165.948C301.37 165.948 306.128 170.637 307.537 171.633C314.468 176.497 321.34 181.595 328.799 185.639C331.266 186.987 333.851 188.217 336.494 189.331C338.608 190.21 344.658 195.777 337.727 188.1C337.199 187.514 336.259 186.694 335.084 185.639C330.092 181.302 320.87 173.743 321.223 169.523C326.215 169.523 342.955 175.501 347.301 178.724C348.652 179.72 367.212 189.682 355.524 181.302C351.295 178.255 339.372 168.351 336.787 167.121C331.56 164.542 319.872 156.513 313.998 154.228C313.587 154.052 313.176 153.935 312.824 153.818C312.824 151.181 316.935 154.111 312.354 147.079V147.02C306.304 143.855 269.595 118.539 267.01 120.356C266.893 120.414 266.775 120.532 266.599 120.649C267.48 122.934 265.366 122.759 263.545 122.524C263.016 122.876 262.37 123.227 261.783 123.579C262.429 124.399 263.838 125.689 266.482 127.857C269.947 130.728 269.36 131.608 274.117 135.534C289.153 147.958 278.698 142.097 266.188 139.929C262.253 139.284 255.439 136.413 265.659 142.742Z" fill="#DDE7F0"/>
<path fill-rule="evenodd" clip-rule="evenodd" d="M345.948 145.086C343.187 146.493 337.842 143.269 346.711 148.133C350.412 150.185 356.755 152.529 360.103 155.166C360.338 155.342 360.573 155.517 360.749 155.693C365.741 160.323 365.506 160.85 372.202 164.366C382.422 169.816 386.534 165.831 397.928 174.153C407.15 180.834 401.217 175.384 396.988 170.988C391.467 165.304 389.764 164.132 383.421 160.03C382.775 159.62 380.954 157.51 379.603 155.517C378.369 153.701 377.547 152.001 378.311 151.767C380.778 150.946 390.821 154.873 379.427 146.317C377.077 144.559 380.719 143.152 371.732 139.929C371.321 139.753 364.156 136.53 367.386 136.53C372.378 136.53 365.389 134.01 367.034 131.842C367.327 131.432 366.74 130.846 365.741 130.143C361.219 131.373 354.758 130.494 351.939 130.611C349.413 132.604 345.067 131.783 352.467 137.233C363.568 145.496 350.529 142.801 345.948 145.086Z" fill="#DDE7F0"/>
<path fill-rule="evenodd" clip-rule="evenodd" d="M407.268 138.288C408.678 140.515 399.926 142.39 417.37 149.54C423.831 152.177 427.767 152.587 434.286 156.631C434.345 156.689 434.404 156.689 434.462 156.748C446.268 164.073 456.488 174.973 440.864 156.865C440.864 156.806 440.806 156.806 440.806 156.748C439.044 154.755 437.34 153.407 438.574 150.712C439.396 149.012 443.919 152.294 444.917 150.067C447.619 149.657 456.194 152.411 460.717 152.939C463.419 153.29 466.767 155.166 470.173 157.334C475.224 160.498 480.276 164.249 483.33 163.956C483.389 163.37 480.628 160.557 477.339 157.51C473.169 153.642 468.118 149.364 466.473 148.485C458.896 144.207 457.545 142.332 456.958 140.632C452.259 139.108 442.098 135.885 435.989 134.186C427.532 131.783 408.619 119.067 395.051 111.683C394.288 113.558 395.345 119.828 401.688 122.993C405.388 124.868 402.98 124.458 405.917 128.15C412.378 136.296 393.641 122.993 397.812 127.271C401.806 131.373 404.155 133.365 407.268 138.288Z" fill="#DDE7F0"/>
<path d="M203 13V5.8M203 5.8V1H195L197.182 3.4L195 5.8H203Z" stroke="#DDE7F0" stroke-width="1.5"/>
</svg>
