<svg width="209" height="88" viewBox="0 0 209 88" fill="none" xmlns="http://www.w3.org/2000/svg">
<path d="M104 20.4302L138.921 30.701L104 43.3682L69.0796 30.701L104 20.4302Z" fill="#80A5C6"/>
<path d="M104 20.4302V40.6293M104 40.6293L69.0796 53.6389M104 40.6293L138.921 53.6389" stroke="#6A94B9"/>
<path d="M104 43.3261V66.6959L138.921 53.8022V30.701L104 43.3261Z" fill="#ACD2F3"/>
<path d="M116 42.8579V54.6963L126.415 50.6166V39L116 42.8579Z" fill="#E3EAF2"/>
<path d="M117.652 43.4938V51.0904L125.085 48.0851V40.6519L117.652 43.4938Z" fill="#95E0F9"/>
<path d="M121 44.8579V56.6963L131.415 52.6166V41L121 44.8579Z" fill="#E3EAF2"/>
<path d="M122.652 45.4937V53.0904L130.085 50.085V42.6518L122.652 45.4937Z" fill="#95E0F9"/>
<path d="M104 43.2326V66.6959L69.0796 53.6311V30.701L104 43.2326Z" fill="#92C1EA"/>
<path d="M91.3899 4.23849L94.5164 10.7301M104.313 2V9.16317M113.484 10.7301L116.61 4.23849" stroke="#91A9C0" stroke-width="3" stroke-linecap="round" stroke-linejoin="round"/>
<path d="M51.3548 74.456H52.2908V83H51.5228L46.3628 76.124V83H45.4388V74.456H46.1948L51.3548 81.332V74.456ZM56.7679 83.084C56.1999 83.084 55.6999 82.956 55.2679 82.7C54.8359 82.444 54.4999 82.08 54.2599 81.608C54.0279 81.136 53.9119 80.584 53.9119 79.952C53.9119 79.32 54.0279 78.768 54.2599 78.296C54.4999 77.824 54.8359 77.46 55.2679 77.204C55.6999 76.948 56.1999 76.82 56.7679 76.82C57.3359 76.82 57.8359 76.948 58.2679 77.204C58.6999 77.46 59.0319 77.824 59.2639 78.296C59.5039 78.768 59.6239 79.32 59.6239 79.952C59.6239 80.584 59.5039 81.136 59.2639 81.608C59.0319 82.08 58.6999 82.444 58.2679 82.7C57.8359 82.956 57.3359 83.084 56.7679 83.084ZM56.7679 82.28C57.3679 82.28 57.8279 82.084 58.1479 81.692C58.4679 81.292 58.6279 80.712 58.6279 79.952C58.6279 79.216 58.4639 78.648 58.1359 78.248C57.8079 77.84 57.3519 77.636 56.7679 77.636C56.1759 77.636 55.7159 77.84 55.3879 78.248C55.0599 78.648 54.8959 79.216 54.8959 79.952C54.8959 80.712 55.0559 81.292 55.3759 81.692C55.7039 82.084 56.1679 82.28 56.7679 82.28ZM69.584 76.964V83H68.624V81.908C68.448 82.284 68.18 82.576 67.82 82.784C67.468 82.984 67.056 83.084 66.584 83.084C66.048 83.084 65.576 82.956 65.168 82.7C64.768 82.444 64.456 82.084 64.232 81.62C64.016 81.148 63.908 80.6 63.908 79.976C63.908 79.352 64.02 78.804 64.244 78.332C64.468 77.852 64.78 77.48 65.18 77.216C65.588 76.952 66.056 76.82 66.584 76.82C67.056 76.82 67.468 76.924 67.82 77.132C68.172 77.34 68.44 77.632 68.624 78.008V76.964H69.584ZM66.776 82.28C67.368 82.28 67.824 82.08 68.144 81.68C68.464 81.272 68.624 80.696 68.624 79.952C68.624 79.208 68.464 78.636 68.144 78.236C67.824 77.836 67.368 77.636 66.776 77.636C66.184 77.636 65.72 77.844 65.384 78.26C65.056 78.668 64.892 79.24 64.892 79.976C64.892 80.712 65.056 81.28 65.384 81.68C65.712 82.08 66.176 82.28 66.776 82.28ZM73.5033 83.084C72.4873 83.084 71.6833 82.824 71.0913 82.304L71.4153 81.584C71.7433 81.84 72.0753 82.024 72.4113 82.136C72.7473 82.248 73.1233 82.304 73.5393 82.304C73.9953 82.304 74.3393 82.228 74.5713 82.076C74.8113 81.916 74.9313 81.688 74.9313 81.392C74.9313 81.152 74.8513 80.96 74.6913 80.816C74.5313 80.672 74.2673 80.56 73.8993 80.48L72.8793 80.24C72.3753 80.128 71.9833 79.928 71.7033 79.64C71.4313 79.352 71.2953 79.008 71.2953 78.608C71.2953 78.08 71.5073 77.652 71.9313 77.324C72.3553 76.988 72.9153 76.82 73.6113 76.82C74.0353 76.82 74.4353 76.888 74.8113 77.024C75.1873 77.16 75.5033 77.356 75.7593 77.612L75.4353 78.32C74.8673 77.848 74.2593 77.612 73.6113 77.612C73.1793 77.612 72.8433 77.696 72.6033 77.864C72.3713 78.024 72.2553 78.252 72.2553 78.548C72.2553 78.796 72.3273 78.992 72.4713 79.136C72.6233 79.28 72.8633 79.392 73.1913 79.472L74.2113 79.724C74.7713 79.852 75.1873 80.052 75.4593 80.324C75.7313 80.588 75.8673 80.936 75.8673 81.368C75.8673 81.888 75.6553 82.304 75.2313 82.616C74.8073 82.928 74.2313 83.084 73.5033 83.084ZM79.4565 83.084C78.4405 83.084 77.6365 82.824 77.0445 82.304L77.3685 81.584C77.6965 81.84 78.0285 82.024 78.3645 82.136C78.7005 82.248 79.0765 82.304 79.4925 82.304C79.9485 82.304 80.2925 82.228 80.5245 82.076C80.7645 81.916 80.8845 81.688 80.8845 81.392C80.8845 81.152 80.8045 80.96 80.6445 80.816C80.4845 80.672 80.2205 80.56 79.8525 80.48L78.8325 80.24C78.3285 80.128 77.9365 79.928 77.6565 79.64C77.3845 79.352 77.2485 79.008 77.2485 78.608C77.2485 78.08 77.4605 77.652 77.8845 77.324C78.3085 76.988 78.8685 76.82 79.5645 76.82C79.9885 76.82 80.3885 76.888 80.7645 77.024C81.1405 77.16 81.4565 77.356 81.7125 77.612L81.3885 78.32C80.8205 77.848 80.2125 77.612 79.5645 77.612C79.1325 77.612 78.7965 77.696 78.5565 77.864C78.3245 78.024 78.2085 78.252 78.2085 78.548C78.2085 78.796 78.2805 78.992 78.4245 79.136C78.5765 79.28 78.8165 79.392 79.1445 79.472L80.1645 79.724C80.7245 79.852 81.1405 80.052 81.4125 80.324C81.6845 80.588 81.8205 80.936 81.8205 81.368C81.8205 81.888 81.6085 82.304 81.1845 82.616C80.7605 82.928 80.1845 83.084 79.4565 83.084ZM83.3696 83V76.964H84.3416V83H83.3696ZM83.2736 74.408H84.4616V75.512H83.2736V74.408ZM91.605 76.964V82.952C91.605 83.848 91.373 84.524 90.909 84.98C90.453 85.444 89.777 85.676 88.881 85.676C87.961 85.676 87.169 85.468 86.505 85.052L86.673 84.26C87.057 84.476 87.417 84.632 87.753 84.728C88.097 84.824 88.473 84.872 88.881 84.872C89.465 84.872 89.905 84.716 90.201 84.404C90.497 84.1 90.645 83.644 90.645 83.036V81.608C90.461 81.992 90.189 82.292 89.829 82.508C89.477 82.716 89.057 82.82 88.569 82.82C88.041 82.82 87.569 82.696 87.153 82.448C86.745 82.2 86.429 81.848 86.205 81.392C85.981 80.936 85.869 80.412 85.869 79.82C85.869 79.228 85.981 78.704 86.205 78.248C86.429 77.792 86.745 77.44 87.153 77.192C87.569 76.944 88.041 76.82 88.569 76.82C89.049 76.82 89.465 76.924 89.817 77.132C90.177 77.34 90.449 77.632 90.633 78.008V76.964H91.605ZM88.761 82.004C89.345 82.004 89.801 81.812 90.129 81.428C90.465 81.036 90.633 80.5 90.633 79.82C90.633 79.14 90.465 78.608 90.129 78.224C89.801 77.832 89.345 77.636 88.761 77.636C88.169 77.636 87.701 77.832 87.357 78.224C87.021 78.608 86.853 79.14 86.853 79.82C86.853 80.5 87.021 81.036 87.357 81.428C87.701 81.812 88.169 82.004 88.761 82.004ZM96.4832 76.82C97.9312 76.82 98.6552 77.616 98.6552 79.208V83H97.6832V79.256C97.6832 78.696 97.5712 78.288 97.3472 78.032C97.1232 77.768 96.7712 77.636 96.2912 77.636C95.7312 77.636 95.2832 77.808 94.9472 78.152C94.6112 78.496 94.4432 78.96 94.4432 79.544V83H93.4712V78.656C93.4712 78.032 93.4392 77.468 93.3752 76.964H94.2992L94.3952 78.044C94.5792 77.652 94.8552 77.352 95.2232 77.144C95.5912 76.928 96.0112 76.82 96.4832 76.82ZM105.543 79.952H101.115C101.123 80.72 101.299 81.3 101.643 81.692C101.995 82.084 102.503 82.28 103.167 82.28C103.871 82.28 104.519 82.044 105.111 81.572L105.435 82.28C105.171 82.528 104.831 82.724 104.415 82.868C104.007 83.012 103.587 83.084 103.155 83.084C102.211 83.084 101.471 82.808 100.935 82.256C100.399 81.696 100.131 80.932 100.131 79.964C100.131 79.348 100.251 78.804 100.491 78.332C100.731 77.852 101.067 77.48 101.499 77.216C101.931 76.952 102.423 76.82 102.975 76.82C103.775 76.82 104.403 77.084 104.859 77.612C105.315 78.132 105.543 78.852 105.543 79.772V79.952ZM102.987 77.576C102.483 77.576 102.071 77.728 101.751 78.032C101.439 78.336 101.239 78.764 101.151 79.316H104.667C104.619 78.748 104.451 78.316 104.163 78.02C103.883 77.724 103.491 77.576 102.987 77.576ZM112.334 74.168V83H111.374V81.908C111.198 82.284 110.93 82.576 110.57 82.784C110.218 82.984 109.806 83.084 109.334 83.084C108.806 83.084 108.338 82.952 107.93 82.688C107.53 82.424 107.218 82.056 106.994 81.584C106.77 81.104 106.658 80.552 106.658 79.928C106.658 79.304 106.766 78.76 106.982 78.296C107.206 77.824 107.522 77.46 107.93 77.204C108.338 76.948 108.806 76.82 109.334 76.82C109.806 76.82 110.218 76.924 110.57 77.132C110.922 77.332 111.186 77.616 111.362 77.984V74.168H112.334ZM109.526 82.28C110.118 82.28 110.574 82.08 110.894 81.68C111.214 81.272 111.374 80.696 111.374 79.952C111.374 79.216 111.214 78.648 110.894 78.248C110.574 77.84 110.118 77.636 109.526 77.636C108.934 77.636 108.47 77.836 108.134 78.236C107.806 78.636 107.642 79.2 107.642 79.928C107.642 80.672 107.806 81.252 108.134 81.668C108.47 82.076 108.934 82.28 109.526 82.28ZM125.55 76.964H126.51L124.278 83H123.342L121.614 78.284L119.898 83H118.962L116.73 76.964H117.75L119.454 81.836L121.218 76.964H122.07L123.81 81.848L125.55 76.964ZM130.198 83.084C129.63 83.084 129.13 82.956 128.698 82.7C128.266 82.444 127.93 82.08 127.69 81.608C127.458 81.136 127.342 80.584 127.342 79.952C127.342 79.32 127.458 78.768 127.69 78.296C127.93 77.824 128.266 77.46 128.698 77.204C129.13 76.948 129.63 76.82 130.198 76.82C130.766 76.82 131.266 76.948 131.698 77.204C132.13 77.46 132.462 77.824 132.694 78.296C132.934 78.768 133.054 79.32 133.054 79.952C133.054 80.584 132.934 81.136 132.694 81.608C132.462 82.08 132.13 82.444 131.698 82.7C131.266 82.956 130.766 83.084 130.198 83.084ZM130.198 82.28C130.798 82.28 131.258 82.084 131.578 81.692C131.898 81.292 132.058 80.712 132.058 79.952C132.058 79.216 131.894 78.648 131.566 78.248C131.238 77.84 130.782 77.636 130.198 77.636C129.606 77.636 129.146 77.84 128.818 78.248C128.49 78.648 128.326 79.216 128.326 79.952C128.326 80.712 128.486 81.292 128.806 81.692C129.134 82.084 129.598 82.28 130.198 82.28ZM137.377 76.82C137.577 76.82 137.761 76.844 137.929 76.892L137.905 77.78C137.721 77.716 137.509 77.684 137.269 77.684C136.685 77.684 136.249 77.868 135.961 78.236C135.681 78.596 135.541 79.036 135.541 79.556V83H134.569V78.656C134.569 78.032 134.537 77.468 134.473 76.964H135.397L135.493 78.08C135.645 77.672 135.889 77.36 136.225 77.144C136.561 76.928 136.945 76.82 137.377 76.82ZM144.256 83H142.984L139.888 80.096V83H138.916V74.168H139.888V79.736L142.732 76.976H143.968L140.944 79.868L144.256 83ZM148.221 83V74.168H149.193V83H148.221ZM156.133 79.952H151.705C151.713 80.72 151.889 81.3 152.233 81.692C152.585 82.084 153.093 82.28 153.757 82.28C154.461 82.28 155.109 82.044 155.701 81.572L156.025 82.28C155.761 82.528 155.421 82.724 155.005 82.868C154.597 83.012 154.177 83.084 153.745 83.084C152.801 83.084 152.061 82.808 151.525 82.256C150.989 81.696 150.721 80.932 150.721 79.964C150.721 79.348 150.841 78.804 151.081 78.332C151.321 77.852 151.657 77.48 152.089 77.216C152.521 76.952 153.013 76.82 153.565 76.82C154.365 76.82 154.993 77.084 155.449 77.612C155.905 78.132 156.133 78.852 156.133 79.772V79.952ZM153.577 77.576C153.073 77.576 152.661 77.728 152.341 78.032C152.029 78.336 151.829 78.764 151.741 79.316H155.257C155.209 78.748 155.041 78.316 154.753 78.02C154.473 77.724 154.081 77.576 153.577 77.576ZM159.912 74.96C159.592 74.96 159.34 75.052 159.156 75.236C158.98 75.412 158.892 75.72 158.892 76.16V76.964H160.368V77.732H158.892V83H157.92V77.732H156.744V76.964H157.92V76.04C157.92 75.408 158.076 74.932 158.388 74.612C158.708 74.284 159.152 74.12 159.72 74.12C160 74.12 160.272 74.156 160.536 74.228V75.056C160.312 74.992 160.104 74.96 159.912 74.96ZM162.654 77.732V81.032C162.654 81.48 162.746 81.796 162.93 81.98C163.114 82.156 163.374 82.244 163.71 82.244C163.934 82.244 164.15 82.208 164.358 82.136V82.964C164.11 83.044 163.83 83.084 163.518 83.084C162.942 83.084 162.49 82.924 162.162 82.604C161.842 82.276 161.682 81.796 161.682 81.164V77.732H160.506V76.964H161.682V75.416L162.654 75.068V76.964H164.382V77.732H162.654Z" fill="#91A9C0"/>
</svg>
