<svg width="20" height="20" viewBox="0 0 20 20" fill="none" xmlns="http://www.w3.org/2000/svg">
<path d="M10 19.5C4.75329 19.5 0.5 15.2467 0.5 10C0.5 4.75329 4.75329 0.5 10 0.5C15.2467 0.5 19.5 4.75329 19.5 10C19.5 15.2467 15.2467 19.5 10 19.5Z" stroke="white"/>
<path d="M9.414 6.782C9.294 6.782 9.192 6.746 9.108 6.674C9.036 6.59 9 6.488 9 6.368V5.432C9 5.312 9.036 5.21 9.108 5.126C9.192 5.042 9.294 5 9.414 5H10.476C10.596 5 10.698 5.042 10.782 5.126C10.866 5.21 10.908 5.312 10.908 5.432V6.368C10.908 6.488 10.866 6.59 10.782 6.674C10.698 6.746 10.596 6.782 10.476 6.782H9.414ZM9.558 14.906C9.438 14.906 9.336 14.87 9.252 14.798C9.18 14.714 9.144 14.612 9.144 14.492V8.96C9.144 8.84 9.18 8.744 9.252 8.672C9.336 8.588 9.438 8.546 9.558 8.546H10.35C10.47 8.546 10.566 8.588 10.638 8.672C10.722 8.744 10.764 8.84 10.764 8.96V14.492C10.764 14.612 10.722 14.714 10.638 14.798C10.566 14.87 10.47 14.906 10.35 14.906H9.558Z" fill="white"/>
</svg>
