<svg width="9" height="9" viewBox="0 0 9 9" fill="none" xmlns="http://www.w3.org/2000/svg">
<path fill-rule="evenodd" clip-rule="evenodd" d="M0.146447 7.21751C-0.0488155 7.41278 -0.0488155 7.72936 0.146447 7.92462C0.341709 8.11988 0.658291 8.11988 0.853553 7.92462L1.87532 6.90286C2.46445 7.35355 3.20095 7.62131 4 7.62131C5.933 7.62131 7.5 6.05431 7.5 4.12131C7.5 3.32227 7.23224 2.58576 6.78154 1.99663L7.92462 0.853553C8.11988 0.658291 8.11988 0.341709 7.92462 0.146447C7.72936 -0.0488156 7.41278 -0.0488154 7.21751 0.146447L6.06722 1.29674C5.48798 0.872084 4.77327 0.621314 4 0.621314C2.067 0.621314 0.5 2.18832 0.5 4.12131C0.5 4.89459 0.75077 5.60929 1.17542 6.18854L0.146447 7.21751ZM2.59127 6.18691C2.99241 6.46101 3.47748 6.62131 4 6.62131C5.38071 6.62131 6.5 5.50203 6.5 4.12131C6.5 3.5988 6.3397 3.11372 6.06559 2.71258L2.59127 6.18691ZM5.34828 2.01568L1.89437 5.46959C1.64476 5.08057 1.5 4.61785 1.5 4.12131C1.5 2.7406 2.61929 1.62131 4 1.62131C4.49654 1.62131 4.95926 1.76607 5.34828 2.01568Z" fill="#A4AFC5"/>
</svg>
