<svg width="24" height="24" viewBox="0 0 24 24" fill="none" xmlns="http://www.w3.org/2000/svg">
<path d="M8.6216 20.9998L8.43236 21.4626L8.89107 21.6501L9.0827 21.1931L8.6216 20.9998ZM15.3778 21L14.9167 21.1933L15.1083 21.6503L15.567 21.4628L15.3778 21ZM13.413 16.3143L13.2332 15.8478L12.7528 16.0329L12.9519 16.5077L13.413 16.3143ZM10.5865 16.3137L11.0477 16.5071L11.2467 16.0325L10.7665 15.8472L10.5865 16.3137ZM2.5 12.5806C2.5 16.5981 4.95243 20.0396 8.43236 21.4626L8.81084 20.5369C5.69775 19.264 3.5 16.1823 3.5 12.5806L2.5 12.5806ZM12 3C6.7491 3 2.5 7.29359 2.5 12.5806L3.5 12.5806C3.5 7.83745 7.30977 4 12 4L12 3ZM21.5 12.5806C21.5 7.29359 17.2509 3 12 3L12 4C16.6902 4 20.5 7.83745 20.5 12.5806L21.5 12.5806ZM15.567 21.4628C19.0473 20.04 21.5 16.5983 21.5 12.5806L20.5 12.5806C20.5 16.1825 18.302 19.2644 15.1886 20.5372L15.567 21.4628ZM12.9519 16.5077L14.9167 21.1933L15.8389 20.8066L13.8741 16.121L12.9519 16.5077ZM13.5928 16.7809C15.2709 16.1342 16.4605 14.4965 16.4605 12.5805L15.4605 12.5805C15.4605 14.0737 14.5342 15.3465 13.2332 15.8478L13.5928 16.7809ZM16.4605 12.5805C16.4605 10.1019 14.4679 8.08503 12.0005 8.08503L12.0005 9.08503C13.9072 9.08503 15.4605 10.6458 15.4605 12.5805L16.4605 12.5805ZM12.0005 8.08503C9.53314 8.08503 7.54053 10.1019 7.54053 12.5805L8.54053 12.5805C8.54053 10.6458 10.0938 9.08503 12.0005 9.08503L12.0005 8.08503ZM7.54053 12.5805C7.54053 14.4958 8.72932 16.1331 10.4066 16.7802L10.7665 15.8472C9.46624 15.3456 8.54053 14.0732 8.54053 12.5805L7.54053 12.5805ZM9.0827 21.1931L11.0477 16.5071L10.1254 16.1204L8.1605 20.8064L9.0827 21.1931Z" fill="#91A9C0"/>
</svg>
