<svg width="9" height="9" viewBox="0 0 9 9" fill="none" xmlns="http://www.w3.org/2000/svg">
<path d="M3.99814 9C3.88662 9 3.79182 8.96067 3.71376 8.88202C3.63569 8.80337 3.59665 8.70787 3.59665 8.59551V5.30899H0.401487C0.289963 5.30899 0.195167 5.26966 0.1171 5.19101C0.039033 5.11236 0 5.01685 0 4.90449V3.99438C0 3.88202 0.039033 3.78652 0.1171 3.70787C0.195167 3.62921 0.289963 3.58989 0.401487 3.58989H3.59665V0.404494C3.59665 0.280899 3.63569 0.185394 3.71376 0.117978C3.79182 0.0393265 3.88662 0 3.99814 0H5.00186C5.12453 0 5.21933 0.0393265 5.28624 0.117978C5.36431 0.185394 5.40335 0.280899 5.40335 0.404494V3.58989H8.59851C8.71004 3.58989 8.80483 3.62921 8.8829 3.70787C8.96097 3.78652 9 3.88202 9 3.99438V4.90449C9 5.01685 8.96097 5.11236 8.8829 5.19101C8.81598 5.26966 8.72119 5.30899 8.59851 5.30899H5.40335V8.59551C5.40335 8.70787 5.36431 8.80337 5.28624 8.88202C5.21933 8.96067 5.12453 9 5.00186 9H3.99814Z" fill="#7D8CAA"/>
</svg>
