<svg width="15" height="15" viewBox="0 0 15 15" fill="none" xmlns="http://www.w3.org/2000/svg">
<rect x="0.5" y="0.5" width="14" height="14" rx="7" stroke="#91A9C0"/>
<path d="M5.31819 8.11431C5.10518 7.93858 4.79005 7.9688 4.61431 8.18181C4.43858 8.39482 4.4688 8.70995 4.68181 8.88569L5.31819 8.11431ZM6.81818 10L6.49999 10.3857C6.61053 10.4769 6.75489 10.5163 6.89643 10.4938C7.03796 10.4714 7.16308 10.3893 7.24001 10.2684L6.81818 10ZM10.4218 5.26844C10.5701 5.03547 10.5014 4.72642 10.2684 4.57817C10.0355 4.42992 9.72642 4.49859 9.57817 4.73156L10.4218 5.26844ZM4.68181 8.88569L6.49999 10.3857L7.13637 9.61431L5.31819 8.11431L4.68181 8.88569ZM7.24001 10.2684L10.4218 5.26844L9.57817 4.73156L6.39635 9.73156L7.24001 10.2684Z" fill="#91A9C0"/>
</svg>
