<svg width="40" height="40" viewBox="0 0 40 40" fill="none" xmlns="http://www.w3.org/2000/svg">
<path d="M1 13.6C1 10.9619 1.00106 9.05353 1.14287 7.56201C1.28327 6.08537 1.55455 5.12086 2.03152 4.34251C2.60871 3.40062 3.40062 2.60871 4.34251 2.03152C5.12086 1.55455 6.08537 1.28327 7.56201 1.14287C9.05353 1.00106 10.9619 1 13.6 1H26.4C29.0381 1 30.9465 1.00106 32.438 1.14287C33.9146 1.28327 34.8791 1.55455 35.6575 2.03152C36.5994 2.60871 37.3913 3.40062 37.9685 4.34251C38.4455 5.12086 38.7167 6.08537 38.8571 7.56201C38.9989 9.05353 39 10.9619 39 13.6V26.4C39 29.0381 38.9989 30.9465 38.8571 32.438C38.7167 33.9146 38.4455 34.8791 37.9685 35.6575C37.3913 36.5994 36.5994 37.3913 35.6575 37.9685C34.8791 38.4455 33.9146 38.7167 32.438 38.8571C30.9465 38.9989 29.0381 39 26.4 39H13.6C10.9619 39 9.05353 38.9989 7.56201 38.8571C6.08537 38.7167 5.12086 38.4455 4.34251 37.9685C3.40062 37.3913 2.60871 36.5994 2.03152 35.6575C1.55455 34.8791 1.28327 33.9146 1.14287 32.438C1.00106 30.9465 1 29.0381 1 26.4V13.6Z" stroke="#96A1B2" stroke-width="2"/>
<rect x="19.2998" y="13" width="2" height="14" rx="1" fill="#96A1B2"/>
<rect x="27" y="19.3" width="2" height="14" rx="1" transform="rotate(90 27 19.3)" fill="#96A1B2"/>
</svg>
