<svg width="18" height="15" viewBox="0 0 18 15" fill="none" xmlns="http://www.w3.org/2000/svg">
<path d="M1.35254 12.4558C0.938325 12.4558 0.602539 12.12 0.602539 11.7058C0.602539 11.2916 0.938325 10.9558 1.35254 10.9558V12.4558ZM16.6467 3.29405L17.177 2.76372C17.3176 2.90437 17.3967 3.09513 17.3967 3.29405C17.3967 3.49296 17.3176 3.68372 17.177 3.82438L16.6467 3.29405ZM14.8829 6.11849C14.59 6.41139 14.1151 6.41139 13.8222 6.11849C13.5293 5.8256 13.5293 5.35073 13.8222 5.05783L14.8829 6.11849ZM13.8222 1.53026C13.5293 1.23737 13.5293 0.762492 13.8222 0.469599C14.1151 0.176705 14.59 0.176705 14.8829 0.469599L13.8222 1.53026ZM1.35254 10.9558H2.98972V12.4558H1.35254V10.9558ZM4.73113 10.1306L9.81301 3.91941L10.9739 4.86926L5.89207 11.0805L4.73113 10.1306ZM12.7154 2.54405H16.6467V4.04405H12.7154V2.54405ZM17.177 3.82438L14.8829 6.11849L13.8222 5.05783L16.1163 2.76372L17.177 3.82438ZM16.1163 3.82438L13.8222 1.53026L14.8829 0.469599L17.177 2.76372L16.1163 3.82438ZM9.81301 3.91941C10.5252 3.0489 11.5906 2.54405 12.7154 2.54405V4.04405C12.0405 4.04405 11.4013 4.34696 10.9739 4.86926L9.81301 3.91941ZM2.98972 10.9558C3.66457 10.9558 4.30379 10.6529 4.73113 10.1306L5.89207 11.0805C5.17983 11.951 4.11447 12.4558 2.98972 12.4558V10.9558Z" fill="#91A9C0"/>
<path d="M1.35254 2.54419C0.938325 2.54419 0.602539 2.87998 0.602539 3.29419C0.602539 3.7084 0.938325 4.04419 1.35254 4.04419V2.54419ZM16.6467 11.706L17.177 12.2363C17.3176 12.0956 17.3967 11.9049 17.3967 11.706C17.3967 11.507 17.3176 11.3163 17.177 11.1756L16.6467 11.706ZM14.8829 8.88151C14.59 8.58861 14.1151 8.58861 13.8222 8.88151C13.5293 9.1744 13.5293 9.64927 13.8222 9.94217L14.8829 8.88151ZM13.8222 13.4697C13.5293 13.7626 13.5293 14.2375 13.8222 14.5304C14.1151 14.8233 14.59 14.8233 14.8829 14.5304L13.8222 13.4697ZM1.35254 4.04419H2.98972V2.54419H1.35254V4.04419ZM4.73113 4.8694L9.81301 11.0806L10.9739 10.1307L5.89207 3.91955L4.73113 4.8694ZM12.7154 12.456H16.6467V10.956H12.7154V12.456ZM17.177 11.1756L14.8829 8.88151L13.8222 9.94217L16.1163 12.2363L17.177 11.1756ZM16.1163 11.1756L13.8222 13.4697L14.8829 14.5304L17.177 12.2363L16.1163 11.1756ZM9.81301 11.0806C10.5252 11.9511 11.5906 12.456 12.7154 12.456V10.956C12.0405 10.956 11.4013 10.653 10.9739 10.1307L9.81301 11.0806ZM2.98972 4.04419C3.66457 4.04419 4.30379 4.3471 4.73113 4.8694L5.89207 3.91955C5.17983 3.04904 4.11447 2.54419 2.98972 2.54419V4.04419Z" fill="#91A9C0"/>
<path d="M5 8.20588L8.44118 4" stroke="#F1F5F9" stroke-width="2"/>
</svg>
