<svg width="7" height="12" viewBox="0 0 7 12" fill="none" xmlns="http://www.w3.org/2000/svg">
<path d="M4.02344 11.2183C3.90288 11.4667 3.60375 11.5704 3.35531 11.4498C3.10688 11.3293 3.00321 11.0301 3.12377 10.7817L4.02344 11.2183ZM6 6L6.44983 5.78171C6.51672 5.91955 6.51672 6.08045 6.44983 6.21829L6 6ZM3.12377 1.21829C3.00321 0.969859 3.10688 0.670729 3.35531 0.550169C3.60375 0.429609 3.90288 0.533272 4.02344 0.781706L3.12377 1.21829ZM1.44983 11.2183C1.32927 11.4667 1.03014 11.5704 0.781706 11.4498C0.533272 11.3293 0.429609 11.0301 0.550169 10.7817L1.44983 11.2183ZM3.4264 6L3.87623 5.78171C3.94312 5.91955 3.94312 6.08045 3.87623 6.21829L3.4264 6ZM0.550169 1.21829C0.429609 0.969859 0.533272 0.670729 0.781706 0.550169C1.03014 0.429609 1.32927 0.533272 1.44983 0.781706L0.550169 1.21829ZM3.12377 10.7817L5.55017 5.78171L6.44983 6.21829L4.02344 11.2183L3.12377 10.7817ZM5.55017 6.21829L3.12377 1.21829L4.02344 0.781706L6.44983 5.78171L5.55017 6.21829ZM0.550169 10.7817L2.97656 5.78171L3.87623 6.21829L1.44983 11.2183L0.550169 10.7817ZM2.97656 6.21829L0.550169 1.21829L1.44983 0.781706L3.87623 5.78171L2.97656 6.21829Z" fill="#CBD1DE"/>
</svg>
