<svg width="70" height="62" viewBox="0 0 70 62" fill="none" xmlns="http://www.w3.org/2000/svg">
<rect width="70" height="62" fill="black" fill-opacity="0"/>
<path d="M55.2757 11.9299C54.9024 11.8986 54.7158 11.883 54.5801 11.8299C54.4472 11.7779 54.36 11.7226 54.2565 11.6244C54.1507 11.5242 54.0598 11.3664 53.8779 11.0509C49.976 4.28041 42.7594 0 35 0C24.4958 0 15.6201 7.59708 13.5699 17.8073C13.4581 18.3642 13.4022 18.6427 13.2892 18.8095C13.1748 18.9782 13.0759 19.0632 12.8919 19.151C12.7101 19.2377 12.4086 19.252 11.8055 19.2807C5.28406 19.5912 -0.00282616 25.166 1.13345e-06 31.9393C1.13345e-06 42.0856 8.59783 44.8849 13.1661 44.95H28.8348C29.3948 44.95 29.6749 44.95 29.8888 44.841C30.0769 44.7451 30.2299 44.5921 30.3258 44.4039C30.4348 44.19 30.4348 43.91 30.4348 43.35V39.4796C30.4348 38.7804 29.5132 38.373 29.0987 38.936C27.3152 40.7526 24.4209 40.7526 22.6374 38.936C20.857 37.1225 20.857 34.1775 22.6404 32.3609L31.7739 23.0516C33.4779 21.316 36.5326 21.3187 38.2371 23.0628C38.2377 23.0634 38.238 23.0637 38.2382 23.0639C38.2384 23.0641 38.2384 23.0642 38.2386 23.0643C38.2388 23.0645 38.238 23.0637 38.2383 23.064C38.2594 23.0855 45.0333 29.9944 46.8905 31.8866C47.3364 32.341 47.5594 32.5682 47.5738 32.5842C47.6448 32.6631 47.5446 32.5451 47.611 32.628C47.6245 32.6448 47.68 32.7206 47.7911 32.8721C49.1258 34.6937 48.9812 37.2842 47.3596 38.936C45.5934 40.7349 42.7379 40.7524 40.9506 38.9884C40.9157 38.954 40.9256 38.9646 40.8918 38.929C40.4299 38.4427 39.5652 38.733 39.5652 39.4037V43.35C39.5652 43.91 39.5652 44.19 39.6742 44.4039C39.7701 44.5921 39.9231 44.7451 40.1112 44.841C40.3251 44.95 40.6052 44.95 41.1652 44.95H55.4725C55.5214 44.95 55.5458 44.95 55.5747 44.9483C55.5971 44.947 55.6292 44.9439 55.6514 44.9409C55.68 44.937 55.697 44.9337 55.7309 44.9271C57.1389 44.6525 70 41.7747 70 28.2317C70 19.6686 63.5077 12.6192 55.2757 11.9299Z" fill="#31F5CA" fill-opacity="0.3"/>
<path d="M26.4413 36.2523C26.1347 36.5601 25.6077 36.5619 25.2965 36.2509L25.2945 36.2489C24.966 35.9126 24.9678 35.3683 25.2932 35.0368C25.2932 35.0368 25.2932 35.0367 25.2932 35.0367L34.4266 25.7368L34.4267 25.7367C34.7342 25.4235 35.27 25.4246 35.5825 25.7429L44.7068 35.0367C45.0304 35.3663 45.0356 35.9128 44.7068 36.2476C44.3797 36.5808 43.8684 36.5676 43.5542 36.2477C43.5542 36.2477 43.5542 36.2476 43.5541 36.2476L37.0229 29.592L35.8233 28.3696V30.0823V60.4499C35.8233 60.9311 35.4429 61.2999 35.0016 61.2999C34.5624 61.2999 34.1798 60.9302 34.1798 60.4499V30.0823V28.3701L32.9803 29.5919L26.446 36.2476L26.4425 36.2512C26.4421 36.2516 26.4417 36.2519 26.4413 36.2523Z" fill="#19D9BD" stroke="#19D9BD" stroke-width="1.4"/>
</svg>
