<svg width="32" height="32" viewBox="0 0 32 32" fill="none" xmlns="http://www.w3.org/2000/svg">
<path d="M19.312 23.0001L24.95 11.8888C24.964 11.8612 24.9705 11.8306 24.9688 11.7999C24.9671 11.7693 24.9573 11.7395 24.9403 11.7135C24.9233 11.6875 24.8996 11.666 24.8716 11.6512C24.8436 11.6363 24.812 11.6286 24.78 11.6287H17.9873C17.9164 11.6287 17.847 11.6479 17.7869 11.6839C17.7268 11.7199 17.6784 11.7714 17.6473 11.8325L12.498 21.9789C12.3425 22.2841 12.1007 22.5412 11.8001 22.7211C11.4996 22.9011 11.1523 22.9964 10.798 22.9964C10.4437 22.9964 10.0964 22.9011 9.79589 22.7211C9.49534 22.5412 9.25353 22.2841 9.098 21.9789L2 8.00008H6.21L10.6267 16.7028C10.6421 16.7335 10.6662 16.7594 10.6963 16.7775C10.7263 16.7956 10.7611 16.8052 10.7967 16.8052C10.8322 16.8052 10.867 16.7956 10.8971 16.7775C10.9271 16.7594 10.9513 16.7335 10.9667 16.7028L14.8667 9.02257C15.0216 8.71655 15.2631 8.45843 15.5637 8.27764C15.8643 8.09685 16.2118 8.00068 16.5667 8.00008H28.072C28.3433 7.99769 28.6121 8.05005 28.8608 8.15377C29.1096 8.25748 29.3328 8.41023 29.516 8.60207C29.7672 8.87071 29.9293 9.20497 29.9815 9.56223C30.0337 9.9195 29.9738 10.2836 29.8093 10.6081L23.5213 23.0001H19.312Z" fill="#131416"/>
</svg>
