<svg width="46" height="29" viewBox="0 0 46 29" fill="none" xmlns="http://www.w3.org/2000/svg">
  <rect x="13" y="8.92041" width="32.8579" height="20.0798" rx="2" fill="#91A9C0"/>
  <path d="M24.8816 5.86431C24.9495 5.36908 25.3725 5 25.8724 5H33.0802C33.5801 5 34.0032 5.36909 34.071 5.86431L34.9526 12.3018H24L24.8816 5.86431Z" fill="#91A9C0"/>
  <circle cx="29.4271" cy="19.5814" r="5.1615" stroke="#DAE4ED" stroke-width="2"/>
  <rect x="8.86426" y="12.728" width="5" height="10" rx="0.5" transform="rotate(-180 8.86426 12.728)" fill="#91A9C0"/>
  <path d="M6.01071 0.353659L0.853851 5.51051C0.538868 5.82549 0.761951 6.36407 1.2074 6.36407L11.5211 6.36407C11.9666 6.36407 12.1896 5.8255 11.8747 5.51051L6.71781 0.353659C6.52255 0.158397 6.20597 0.158397 6.01071 0.353659Z" fill="#91A9C0"/>
</svg>
