<svg width="46" height="29" viewBox="0 0 46 29" fill="none" xmlns="http://www.w3.org/2000/svg">
  <path fill-rule="evenodd" clip-rule="evenodd" d="M0 2C0 0.89543 0.895432 0 2 0H28C29.1046 0 30 0.895431 30 2V24C30 25.1046 29.1046 26 28 26H2C0.89543 26 0 25.1046 0 24V2ZM13 8.5C13 10.9853 10.9853 13 8.5 13C6.01472 13 4 10.9853 4 8.5C4 6.01472 6.01472 4 8.5 4C10.9853 4 13 6.01472 13 8.5ZM21.5 22C23.9853 22 26 19.9853 26 17.5C26 15.0147 23.9853 13 21.5 13C19.0147 13 17 15.0147 17 17.5C17 19.9853 19.0147 22 21.5 22Z" fill="#91A9C0"/>
  <path d="M31.5 8.23607C31.5 7.47852 31.928 6.786 32.6056 6.44721L40.6056 2.44721C41.9354 1.78231 43.5 2.7493 43.5 4.23607V21.7639C43.5 23.2507 41.9354 24.2177 40.6056 23.5528L32.6056 19.5528C31.928 19.214 31.5 18.5215 31.5 17.7639V8.23607Z" fill="#91A9C0"/>
  <circle cx="8.5" cy="8.5" r="2.5" fill="#91A9C0"/>
  <circle cx="21.5" cy="17.5" r="2.5" fill="#91A9C0"/>
</svg>
