<svg width="15" height="15" viewBox="0 0 15 15" fill="none" xmlns="http://www.w3.org/2000/svg">
<rect width="15" height="15" rx="3" fill="#CCF7F3"/>
<path d="M3.43394 8.93944C3.44778 8.96752 3.46472 8.99384 3.48442 9.01786L7.20323 12.8783C7.23964 12.9154 7.28275 12.9446 7.33009 12.9643C7.37743 12.984 7.42805 12.9938 7.47904 12.993H7.47935C7.49115 12.9941 7.50234 13 7.51417 13C7.56667 13.0001 7.61866 12.9893 7.66715 12.9685C7.71565 12.9476 7.7597 12.917 7.79677 12.8784L11.5156 9.01795C11.5323 8.99638 11.5464 8.97284 11.5578 8.94782L12.1124 8.37239C12.6809 7.78205 13.0001 6.98146 13 6.14675C12.9999 5.31203 12.6803 4.51156 12.1117 3.92143C11.543 3.3313 10.7719 2.99985 9.96781 3C9.16377 3.00015 8.39271 3.33188 7.82427 3.92222L7.49994 4.25892L7.17473 3.92122C6.60596 3.33119 5.83471 2.99988 5.03063 3.00019C4.22656 3.0005 3.45554 3.33239 2.88719 3.92286C2.31884 4.51333 1.9997 5.31401 2 6.14875C2.0003 6.9835 2.32 7.78393 2.88877 8.37397L3.43394 8.93944Z" fill="#00D9C9"/>
<path d="M2 8.9H4.44444L5.66667 6.1L7.5 11L9.33333 4L10.5556 8.9H13" stroke="#CCF7F3" stroke-linecap="round" stroke-linejoin="round"/>
</svg>
