<svg width="15" height="15" viewBox="0 0 15 15" fill="none" xmlns="http://www.w3.org/2000/svg">
<path d="M13.25 3V12C13.25 13.2426 12.2426 14.25 11 14.25H4C2.75736 14.25 1.75 13.2426 1.75 12V5.24264C1.75 4.6459 1.98705 4.07361 2.40901 3.65165L3.53033 2.53033L4.65165 1.40901C5.07361 0.987053 5.6459 0.75 6.24264 0.75H11C12.2426 0.75 13.25 1.75736 13.25 3Z" fill="#CCF7F3" stroke="#00D9C9" stroke-width="1.5"/>
<path d="M6.25 0.75V5C6.25 5.13807 6.13807 5.25 6 5.25H1.89181C1.81349 5.25 1.75 5.18651 1.75 5.10819C1.75 4.59754 1.95286 4.1078 2.31394 3.74672L4.65165 1.40901C5.07361 0.987052 5.6459 0.75 6.24264 0.75H6.25Z" fill="#CCF7F3" stroke="#00D9C9" stroke-width="1.5"/>
<path d="M5.5 11L9.5 11" stroke="#00D9C9" stroke-width="1.5" stroke-linecap="round" stroke-linejoin="round"/>
<path d="M5.5 8L9.5 8" stroke="#00D9C9" stroke-width="1.5" stroke-linecap="round" stroke-linejoin="round"/>
</svg>
