<svg width="15" height="15" viewBox="0 0 15 15" fill="none" xmlns="http://www.w3.org/2000/svg">
<rect width="15" height="15" rx="3" fill="#CCF7F3"/>
<path d="M10.5 6.63398C11.1667 7.01888 11.1667 7.98113 10.5 8.36603L6.75 10.5311C6.08333 10.916 5.25 10.4349 5.25 9.66506L5.25 5.33493C5.25 4.56513 6.08333 4.08401 6.75 4.46891L10.5 6.63398Z" fill="#00D9C9"/>
<rect x="2" y="1" width="2.75" height="2" rx="1" fill="#00D9C9"/>
<rect x="10.25" y="1" width="2.75" height="2" rx="1" fill="#00D9C9"/>
<rect x="6.125" y="1" width="2.75" height="2" rx="1" fill="#00D9C9"/>
<rect x="2" y="12" width="2.75" height="2" rx="1" fill="#00D9C9"/>
<rect x="10.25" y="12" width="2.75" height="2" rx="1" fill="#00D9C9"/>
<rect x="6.125" y="12" width="2.75" height="2" rx="1" fill="#00D9C9"/>
</svg>
