<svg viewBox="0 0 20 20" fill="none" xmlns="http://www.w3.org/2000/svg">
<path d="M12.8 7.19956V10.6996C12.8 11.2565 13.0213 11.7907 13.4151 12.1845C13.8089 12.5783 14.343 12.7996 14.9 12.7996C15.457 12.7996 15.9911 12.5783 16.3849 12.1845C16.7788 11.7907 17 11.2565 17 10.6996V9.99956C16.9999 8.41968 16.4654 6.8863 15.4833 5.64874C14.5012 4.41117 13.1294 3.54222 11.5908 3.18317C10.0523 2.82412 8.43756 2.99609 7.00915 3.67112C5.58074 4.34615 4.42268 5.48453 3.72329 6.90117C3.02389 8.31781 2.82428 9.92938 3.15692 11.4738C3.48956 13.0183 4.33489 14.4048 5.55545 15.4079C6.776 16.4111 8.30001 16.9718 9.87965 16.999C11.4593 17.0261 13.0017 16.5181 14.256 15.5576M12.8 9.99956C12.8 11.546 11.5464 12.7996 10 12.7996C8.45361 12.7996 7.20001 11.546 7.20001 9.99956C7.20001 8.45317 8.45361 7.19956 10 7.19956C11.5464 7.19956 12.8 8.45317 12.8 9.99956Z" stroke="#5E656E" stroke-width="1.5" stroke-linecap="round" stroke-linejoin="round"/>
</svg>
