<svg width="21" height="20" viewBox="0 0 21 20" fill="none" xmlns="http://www.w3.org/2000/svg">
  <path d="M7.46967 14.4697C7.17678 14.7626 7.17678 15.2374 7.46967 15.5303C7.76256 15.8232 8.23744 15.8232 8.53033 15.5303L7.46967 14.4697ZM13 10L13.5303 10.5303C13.8232 10.2374 13.8232 9.76256 13.5303 9.46967L13 10ZM8.53033 4.46967C8.23744 4.17678 7.76256 4.17678 7.46967 4.46967C7.17678 4.76256 7.17678 5.23744 7.46967 5.53033L8.53033 4.46967ZM8.53033 15.5303L13.5303 10.5303L12.4697 9.46967L7.46967 14.4697L8.53033 15.5303ZM13.5303 9.46967L8.53033 4.46967L7.46967 5.53033L12.4697 10.5303L13.5303 9.46967Z" fill="#5E656E"/>
</svg>
