<svg width="20" height="20" viewBox="0 0 20 20" fill="none" xmlns="http://www.w3.org/2000/svg">
  <path fill-rule="evenodd" clip-rule="evenodd" d="M6.2 2.25H6.16957H6.16955C5.6354 2.24999 5.18956 2.24998 4.82533 2.27974C4.44545 2.31078 4.08879 2.37789 3.75153 2.54973C3.23408 2.81338 2.81338 3.23408 2.54973 3.75153C2.37789 4.08879 2.31078 4.44545 2.27974 4.82533C2.24998 5.18956 2.24999 5.6354 2.25 6.16955V6.16957V6.2V9.8V9.83044V9.83045C2.24999 10.3646 2.24998 10.8104 2.27974 11.1747C2.31078 11.5546 2.37789 11.9112 2.54973 12.2485C2.81338 12.7659 3.23408 13.1866 3.75153 13.4503C4.08879 13.6221 4.44545 13.6892 4.82533 13.7203C5.18955 13.75 5.63538 13.75 6.16951 13.75H6.16955H6.2H6.25V12.25H6.2C5.62757 12.25 5.24336 12.2494 4.94748 12.2252C4.66036 12.2018 4.52307 12.1599 4.43251 12.1138C4.19731 11.9939 4.00608 11.8027 3.88624 11.5675C3.8401 11.4769 3.79822 11.3396 3.77476 11.0525C3.75058 10.7566 3.75 10.3724 3.75 9.8V6.2C3.75 5.62757 3.75058 5.24336 3.77476 4.94748C3.79822 4.66036 3.8401 4.52307 3.88624 4.43251C4.00608 4.19731 4.19731 4.00608 4.43251 3.88624C4.52307 3.8401 4.66036 3.79822 4.94748 3.77476C5.24336 3.75058 5.62757 3.75 6.2 3.75H9.8C10.3724 3.75 10.7566 3.75058 11.0525 3.77476C11.3396 3.79822 11.4769 3.8401 11.5675 3.88624C11.8027 4.00608 11.9939 4.19731 12.1138 4.43251C12.1599 4.52307 12.2018 4.66036 12.2252 4.94748C12.2494 5.24336 12.25 5.62757 12.25 6.2V6.25H13.75V6.2V6.16955V6.16951C13.75 5.63538 13.75 5.18955 13.7203 4.82533C13.6892 4.44545 13.6221 4.08879 13.4503 3.75153C13.1866 3.23408 12.7659 2.81338 12.2485 2.54973C11.9112 2.37789 11.5546 2.31078 11.1747 2.27974C10.8104 2.24998 10.3646 2.24999 9.83045 2.25H9.83044H9.8H6.2Z" fill="#717A84"/>
  <path fill-rule="evenodd" clip-rule="evenodd" d="M10.1696 6.25H13.8304C14.3646 6.24999 14.8104 6.24998 15.1747 6.27974C15.5546 6.31078 15.9112 6.37789 16.2485 6.54973C16.7659 6.81338 17.1866 7.23408 17.4503 7.75153C17.6221 8.08879 17.6892 8.44545 17.7203 8.82533C17.75 9.18956 17.75 9.6354 17.75 10.1695V13.8305C17.75 14.3646 17.75 14.8104 17.7203 15.1747C17.6892 15.5546 17.6221 15.9112 17.4503 16.2485C17.1866 16.7659 16.7659 17.1866 16.2485 17.4503C15.9112 17.6221 15.5546 17.6892 15.1747 17.7203C14.8104 17.75 14.3646 17.75 13.8305 17.75H10.1695C9.6354 17.75 9.18956 17.75 8.82533 17.7203C8.44545 17.6892 8.08879 17.6221 7.75153 17.4503C7.23408 17.1866 6.81338 16.7659 6.54973 16.2485C6.37789 15.9112 6.31078 15.5546 6.27974 15.1747C6.24998 14.8104 6.24999 14.3646 6.25 13.8304V10.1696C6.24999 9.63541 6.24998 9.18956 6.27974 8.82533C6.31078 8.44545 6.37789 8.08879 6.54973 7.75153C6.81338 7.23408 7.23408 6.81338 7.75153 6.54973C8.08879 6.37789 8.44545 6.31078 8.82533 6.27974C9.18956 6.24998 9.63541 6.24999 10.1696 6.25ZM8.94748 7.77476C8.66036 7.79822 8.52307 7.8401 8.43251 7.88624C8.19731 8.00608 8.00608 8.19731 7.88624 8.43251C7.8401 8.52307 7.79822 8.66036 7.77476 8.94748C7.75058 9.24336 7.75 9.62757 7.75 10.2V13.8C7.75 14.3724 7.75058 14.7566 7.77476 15.0525C7.79822 15.3396 7.8401 15.4769 7.88624 15.5675C8.00608 15.8027 8.19731 15.9939 8.43251 16.1138C8.52307 16.1599 8.66036 16.2018 8.94748 16.2252C9.24336 16.2494 9.62757 16.25 10.2 16.25H13.8C14.3724 16.25 14.7566 16.2494 15.0525 16.2252C15.3396 16.2018 15.4769 16.1599 15.5675 16.1138C15.8027 15.9939 15.9939 15.8027 16.1138 15.5675C16.1599 15.4769 16.2018 15.3396 16.2252 15.0525C16.2494 14.7566 16.25 14.3724 16.25 13.8V10.2C16.25 9.62757 16.2494 9.24336 16.2252 8.94748C16.2018 8.66036 16.1599 8.52307 16.1138 8.43251C15.9939 8.19731 15.8027 8.00608 15.5675 7.88624C15.4769 7.8401 15.3396 7.79822 15.0525 7.77476C14.7566 7.75058 14.3724 7.75 13.8 7.75H10.2C9.62757 7.75 9.24336 7.75058 8.94748 7.77476Z" fill="#717A84"/>
</svg>
