<svg width="20" height="20" viewBox="0 0 20 20" fill="none" xmlns="http://www.w3.org/2000/svg">
<path opacity="0.12" d="M9.99999 13.3333C11.8409 13.3333 13.3333 11.8409 13.3333 9.99999C13.3333 8.15904 11.8409 6.66666 9.99999 6.66666C8.15904 6.66666 6.66666 8.15904 6.66666 9.99999C6.66666 11.8409 8.15904 13.3333 9.99999 13.3333Z" fill="#2359FB"/>
<path d="M1.66684 8.99999C1.11455 8.99999 0.66684 9.44771 0.66684 9.99999C0.66684 10.5523 1.11455 11 1.66684 11V8.99999ZM18.3333 11C18.8856 11 19.3333 10.5523 19.3333 9.99999C19.3333 9.44771 18.8856 8.99999 18.3333 8.99999V11ZM12.3333 9.99999C12.3333 11.2887 11.2887 12.3333 10 12.3333V14.3333C12.3932 14.3333 14.3333 12.3932 14.3333 9.99999H12.3333ZM10 12.3333C8.71135 12.3333 7.66668 11.2887 7.66668 9.99999H5.66668C5.66668 12.3932 7.60678 14.3333 10 14.3333V12.3333ZM7.66668 9.99999C7.66668 8.71133 8.71135 7.66666 10 7.66666V5.66666C7.60678 5.66666 5.66668 7.60676 5.66668 9.99999H7.66668ZM10 7.66666C11.2887 7.66666 12.3333 8.71133 12.3333 9.99999H14.3333C14.3333 7.60676 12.3932 5.66666 10 5.66666V7.66666ZM1.66684 11H6.66668V8.99999H1.66684V11ZM13.3333 11H18.3333V8.99999H13.3333V11Z" fill="#2359FB"/>
</svg>
