<svg width="20" height="20" viewBox="0 0 20 20" fill="none" xmlns="http://www.w3.org/2000/svg">
  <path d="M16 16.5H4" stroke="#717A84" stroke-width="1.5" stroke-linecap="round" stroke-linejoin="round"/>
  <path d="M10 12L10 3" stroke="#717A84" stroke-width="1.5" stroke-linecap="round" stroke-linejoin="round"/>
  <path d="M12.4379 8L7.56201 8C6.74474 8 6.3361 8 6.12986 8.16666C5.95057 8.31154 5.84787 8.53082 5.85134 8.7613C5.85534 9.02643 6.11694 9.34036 6.64014 9.96821L9.07803 12.8938C9.39461 13.2737 9.5529 13.4636 9.74242 13.5329C9.90868 13.5937 10.0911 13.5937 10.2574 13.5329C10.4469 13.4636 10.6052 13.2737 10.9218 12.8938L13.3598 9.96823C13.883 9.34037 14.1446 9.02644 14.1486 8.76131C14.1521 8.53083 14.0494 8.31155 13.8701 8.16666C13.6639 8 13.2552 8 12.4379 8Z" fill="#717A84"/>
</svg>
