<svg viewBox="0 0 20 20" fill="none" xmlns="http://www.w3.org/2000/svg">
<path opacity="0.12" d="M10 17C13.866 17 17 13.866 17 10C17 6.13401 13.866 3 10 3C6.13401 3 3 6.13401 3 10C3 13.866 6.13401 17 10 17Z" fill="#5E656E"/>
<path d="M7.2 11.4C7.2 11.4 8.25 12.8 10 12.8C11.75 12.8 12.8 11.4 12.8 11.4M12.1 7.9H12.107M7.9 7.9H7.907M17 10C17 13.866 13.866 17 10 17C6.13401 17 3 13.866 3 10C3 6.13401 6.13401 3 10 3C13.866 3 17 6.13401 17 10ZM12.45 7.9C12.45 8.0933 12.2933 8.25 12.1 8.25C11.9067 8.25 11.75 8.0933 11.75 7.9C11.75 7.7067 11.9067 7.55 12.1 7.55C12.2933 7.55 12.45 7.7067 12.45 7.9ZM8.25 7.9C8.25 8.0933 8.0933 8.25 7.9 8.25C7.7067 8.25 7.55 8.0933 7.55 7.9C7.55 7.7067 7.7067 7.55 7.9 7.55C8.0933 7.55 8.25 7.7067 8.25 7.9Z" stroke="#5E656E" stroke-width="1.5" stroke-linecap="round" stroke-linejoin="round"/>
</svg>
