<svg width="20" height="20" viewBox="0 0 20 20" fill="none" xmlns="http://www.w3.org/2000/svg">
  <path
    d="M3.39092 10.3918L2.6507 10.2711L3.39092 10.3918ZM3.51355 11.0748L2.82396 11.3697L3.51355 11.0748ZM3.39092 10.7137L4.13114 10.593L3.39092 10.7137ZM16.3567 10.392L15.6164 10.5127L16.3567 10.392ZM16.234 11.0751L16.9236 11.37L16.234 11.0751ZM16.3567 10.7139L15.6164 10.5932L16.3567 10.7139ZM16.9236 9.73597C15.6922 6.85657 13.0253 4.80286 9.87375 4.80286V6.30286C12.333 6.30286 14.5108 7.90884 15.5444 10.3258L16.9236 9.73597ZM9.87375 4.80286C6.72225 4.80286 4.05542 6.85644 2.82398 9.73572L4.20314 10.3256C5.2368 7.90874 7.41452 6.30286 9.87375 6.30286V4.80286ZM2.82396 11.3697C4.05535 14.2491 6.72224 16.3028 9.87383 16.3028V14.8028C7.41453 14.8028 5.23675 13.1969 4.20313 10.7799L2.82396 11.3697ZM9.87383 16.3028C13.0253 16.3028 15.6922 14.2493 16.9236 11.37L15.5444 10.7801C14.5108 13.197 12.3331 14.8028 9.87383 14.8028V16.3028ZM2.82398 9.73572C2.76031 9.8846 2.68731 10.0466 2.6507 10.2711L4.13114 10.5125C4.13303 10.5009 4.13449 10.4945 4.14049 10.4776C4.15058 10.4493 4.1658 10.4129 4.20314 10.3256L2.82398 9.73572ZM4.20313 10.7799C4.1658 10.6926 4.15057 10.6562 4.14049 10.6279C4.13449 10.611 4.13303 10.6046 4.13114 10.593L2.65069 10.8344C2.68729 11.0588 2.76029 11.2208 2.82396 11.3697L4.20313 10.7799ZM2.6507 10.2711C2.62319 10.4398 2.62319 10.6657 2.65069 10.8344L4.13114 10.593C4.13237 10.6005 4.13185 10.5996 4.13115 10.589C4.13052 10.5795 4.13007 10.5669 4.13007 10.5527C4.13007 10.5386 4.13052 10.526 4.13115 10.5165C4.13185 10.5058 4.13237 10.505 4.13114 10.5125L2.6507 10.2711ZM15.5444 10.3258C15.5818 10.4131 15.597 10.4495 15.6071 10.4779C15.6131 10.4947 15.6145 10.5011 15.6164 10.5127L17.0969 10.2713C17.0603 10.0469 16.9873 9.88486 16.9236 9.73597L15.5444 10.3258ZM16.9236 11.37C16.9873 11.2211 17.0603 11.0591 17.0969 10.8346L15.6164 10.5932C15.6145 10.6048 15.6131 10.6112 15.6071 10.6281C15.597 10.6564 15.5818 10.6928 15.5444 10.7801L16.9236 11.37ZM15.6164 10.5127C15.6152 10.5052 15.6157 10.5061 15.6164 10.5167C15.6171 10.5262 15.6175 10.5388 15.6175 10.553C15.6175 10.5671 15.6171 10.5797 15.6164 10.5892C15.6157 10.5999 15.6152 10.6007 15.6164 10.5932L17.0969 10.8346C17.1244 10.6659 17.1244 10.44 17.0969 10.2713L15.6164 10.5127Z"
    fill="#5E656E" stroke-width="0" />
  <path d="M16 4L3 16" stroke="#5E656E" stroke-width="1.5" stroke-linecap="round" stroke-linejoin="round" />
</svg>
