<svg width="20" height="20" viewBox="0 0 20 20" fill="none" xmlns="http://www.w3.org/2000/svg">
  <path fill-rule="evenodd" clip-rule="evenodd"
    d="M13.6263 9.63892L12.5269 8.53491L8.52005 12.5417L9.62755 13.6539L9.62756 13.6539C10.0539 14.0821 10.2671 14.2962 10.2813 14.4799C10.2936 14.6393 10.2289 14.795 10.1073 14.8988C9.96708 15.0184 9.66495 15.0184 9.06069 15.0184L5.80001 15.0184H5.8C5.51998 15.0184 5.37996 15.0184 5.27301 14.9639C5.17893 14.916 5.10243 14.8395 5.0545 14.7454C5 14.6385 5 14.4985 5 14.2184V10.944V10.944C5 10.3366 5 10.033 5.12 9.89263C5.22412 9.77088 5.38027 9.70639 5.53996 9.71919C5.72401 9.73395 5.9383 9.94914 6.36687 10.3795L6.36687 10.3795L7.46161 11.4789L11.4684 7.47203L10.3656 6.36453C9.9392 5.93636 9.72601 5.72227 9.71182 5.53854C9.69951 5.37911 9.76419 5.22341 9.88585 5.11963C10.026 5.00004 10.3282 5.00004 10.9324 5.00003L14.1931 5C14.4732 5 14.6132 5 14.7201 5.05449C14.8142 5.10243 14.8907 5.17892 14.9386 5.273C14.9931 5.37996 14.9931 5.51997 14.9931 5.8L14.9931 9.07442V9.07443V9.07443C14.9931 9.6818 14.9931 9.98548 14.8731 10.1258C14.769 10.2476 14.6129 10.312 14.4532 10.2992C14.2691 10.2845 14.0548 10.0693 13.6263 9.63892Z"
    fill="#5E656E" stroke-width="0" />
</svg>
