<svg width="20" height="20" viewBox="0 0 20 20" fill="none" xmlns="http://www.w3.org/2000/svg">
  <path d="M8.15 5.6C8.15 4.57827 8.97827 3.75 10 3.75V2.25C8.14984 2.25 6.65 3.74985 6.65 5.6H8.15ZM10 7.45C8.97827 7.45 8.15 6.62173 8.15 5.6H6.65C6.65 7.45015 8.14984 8.95 10 8.95V7.45ZM11.85 5.6C11.85 6.62173 11.0217 7.45 10 7.45V8.95C11.8502 8.95 13.35 7.45015 13.35 5.6H11.85ZM10 3.75C11.0217 3.75 11.85 4.57827 11.85 5.6H13.35C13.35 3.74985 11.8502 2.25 10 2.25V3.75ZM5.54997 14.6669C5.54997 13.1665 6.76627 11.9502 8.26664 11.9502V10.4502C5.93784 10.4502 4.04997 12.3381 4.04997 14.6669H5.54997ZM13.9664 15.1504H6.03326V16.6504H13.9664V15.1504ZM11.7333 11.9502C13.2337 11.9502 14.45 13.1665 14.45 14.6669H15.95C15.95 12.3381 14.0621 10.4502 11.7333 10.4502V11.9502ZM8.26664 11.9502H11.7333V10.4502H8.26664V11.9502ZM13.9664 16.6504C15.0619 16.6504 15.95 15.7623 15.95 14.6669H14.45C14.45 14.9339 14.2335 15.1504 13.9664 15.1504V16.6504ZM4.04997 14.6667C4.04976 15.7622 4.93777 16.6504 6.03326 16.6504V15.1504C5.76631 15.1504 5.54992 14.934 5.54997 14.667L4.04997 14.6667Z" fill="#717A84"/>
</svg>
