<svg viewBox="0 0 20 20" fill="none" xmlns="http://www.w3.org/2000/svg">
<path opacity="0.12" d="M4.16835 4.95998C4.03417 4.55573 3.96709 4.35361 4.01592 4.22911C4.05832 4.12098 4.14908 4.03907 4.26098 4.00794C4.38982 3.97209 4.58403 4.05948 4.97245 4.23427L17.3325 9.79628C17.7128 9.9674 17.9029 10.053 17.9617 10.1718C18.0128 10.2751 18.0128 10.3962 17.9617 10.4995C17.9029 10.6184 17.7128 10.7039 17.3325 10.8751L4.97675 16.4352C4.58716 16.6105 4.39236 16.6981 4.26339 16.6621C4.15139 16.6309 4.06063 16.5487 4.01837 16.4404C3.9697 16.3157 4.03751 16.1131 4.17314 15.708L5.89948 10.5512C5.9227 10.4818 5.93432 10.4471 5.93896 10.4116C5.94307 10.3801 5.94311 10.3482 5.93908 10.3167C5.93453 10.2812 5.92301 10.2465 5.89996 10.1771L4.16835 4.95998Z" fill="white"/>
<path d="M10.0285 10.3357H5.96207M5.89948 10.5512L4.17314 15.708C4.03751 16.1131 3.9697 16.3157 4.01837 16.4404C4.06063 16.5487 4.15139 16.6309 4.26339 16.6621C4.39236 16.6981 4.58716 16.6105 4.97675 16.4352L17.3325 10.8751C17.7128 10.7039 17.9029 10.6184 17.9617 10.4995C18.0128 10.3962 18.0128 10.2751 17.9617 10.1718C17.9029 10.053 17.7128 9.9674 17.3325 9.79627L4.97245 4.23427C4.58403 4.05948 4.38982 3.97209 4.26098 4.00794C4.14908 4.03907 4.05832 4.12098 4.01592 4.22911C3.96709 4.35361 4.03417 4.55573 4.16835 4.95998L5.89996 10.1771C5.92301 10.2465 5.93453 10.2812 5.93908 10.3167C5.94311 10.3482 5.94307 10.3801 5.93896 10.4116C5.93432 10.4471 5.9227 10.4818 5.89948 10.5512Z" stroke="white" stroke-width="1.5" stroke-linecap="round" stroke-linejoin="round"/>
</svg>
