<svg width="20" height="20" viewBox="0 0 20 20" fill="none" xmlns="http://www.w3.org/2000/svg">
  <path d="M6.43619 12.4193H12.1423C13.9147 12.4193 15.3519 10.9821 15.3519 9.20966C15.3519 7.43722 13.9147 6 12.1423 6H8.21933" stroke="#717A84" stroke-width="1.5" stroke-linecap="round" stroke-linejoin="round"/>
  <path d="M8.5759 13.9781V10.7594C8.5759 10.2584 8.5759 10.0079 8.47195 9.87305C8.38144 9.7556 8.24347 9.68438 8.0953 9.67863C7.92513 9.67202 7.72093 9.81711 7.31254 10.1073L5.16675 11.6319C4.87151 11.8417 4.72388 11.9466 4.66872 12.0784C4.62041 12.1938 4.61714 12.3232 4.65956 12.4409C4.70799 12.5753 4.85013 12.6875 5.1344 12.912L7.28019 14.606C7.69545 14.9339 7.90308 15.0978 8.07762 15.0972C8.22944 15.0966 8.3728 15.0272 8.46728 14.9083C8.5759 14.7717 8.5759 14.5072 8.5759 13.9781Z" fill="#717A84"/>
</svg>
