<svg width="20" height="20" viewBox="0 0 20 20" fill="none" xmlns="http://www.w3.org/2000/svg">
  <path fill-rule="evenodd" clip-rule="evenodd"
    d="M8 4.25C8.41421 4.25 8.75 4.58579 8.75 5V7.25H11.25V5C11.25 4.58579 11.5858 4.25 12 4.25C12.4142 4.25 12.75 4.58579 12.75 5V7.25H15C15.4142 7.25 15.75 7.58579 15.75 8C15.75 8.41421 15.4142 8.75 15 8.75H12.75V11.25H15C15.4142 11.25 15.75 11.5858 15.75 12C15.75 12.4142 15.4142 12.75 15 12.75H12.75V15C12.75 15.4142 12.4142 15.75 12 15.75C11.5858 15.75 11.25 15.4142 11.25 15V12.75H8.75V15C8.75 15.4142 8.41421 15.75 8 15.75C7.58579 15.75 7.25 15.4142 7.25 15V12.75H5C4.58579 12.75 4.25 12.4142 4.25 12C4.25 11.5858 4.58579 11.25 5 11.25H7.25V8.75H5C4.58579 8.75 4.25 8.41421 4.25 8C4.25 7.58579 4.58579 7.25 5 7.25H7.25V5C7.25 4.58579 7.58579 4.25 8 4.25ZM11.25 11.25V8.75H8.75V11.25H11.25Z"
    fill="var(--first-color)" />
</svg>
