<svg width="20" height="20" viewBox="0 0 20 20" fill="none" xmlns="http://www.w3.org/2000/svg">
  <path fill-rule="evenodd" clip-rule="evenodd"
    d="M11.5326 9.52802L12.632 10.632L12.632 10.632C13.0606 11.0624 13.2749 11.2776 13.4589 11.2923C13.6186 11.3051 13.7748 11.2407 13.8789 11.1189C13.9989 10.9786 13.9989 10.6749 13.9989 10.0675V10.0675L13.9989 6.7931C13.9989 6.51307 13.9989 6.37306 13.9444 6.2661C13.8965 6.17202 13.82 6.09553 13.7259 6.0476C13.6189 5.9931 13.4789 5.9931 13.1989 5.9931L9.9382 5.99313C9.33394 5.99314 9.03181 5.99314 8.89161 6.11274C8.76996 6.21651 8.70527 6.37221 8.71758 6.53164C8.73177 6.71537 8.94496 6.92946 9.37134 7.35763L10.4742 8.46513L5.46967 13.4697C5.17678 13.7626 5.17678 14.2374 5.46967 14.5303C5.76256 14.8232 6.23744 14.8232 6.53033 14.5303L11.5326 9.52802Z"
    fill="var(--first-color)" />
</svg>
