<svg width="20" height="20" viewBox="0 0 20 20" fill="none" xmlns="http://www.w3.org/2000/svg">
  <path fill-rule="evenodd" clip-rule="evenodd"
    d="M9.36666 8.73981L13.9336 4.17285C13.9543 4.15222 13.9818 4.14003 14.011 4.13868L15.2054 4.0833C15.8262 4.05451 16.1366 4.04012 16.3682 4.15478C16.5717 4.25547 16.7348 4.42238 16.8308 4.62808C16.9402 4.86231 16.9187 5.17228 16.8757 5.79223L16.8355 6.37187C16.8202 6.59293 16.8125 6.70346 16.7823 6.80698C16.7555 6.8988 16.7157 6.9863 16.664 7.06681C16.6058 7.15757 16.5274 7.23591 16.3707 7.39259L16.3707 7.3926L15.4961 8.26727L13.8129 8.29722L13.6743 10.089L11.9425 11.8208C11.9803 12.0416 12 12.2686 12 12.5003C12 14.7094 10.2091 16.5003 8 16.5003C5.79086 16.5003 4 14.7094 4 12.5003C4 10.2911 5.79086 8.50026 8 8.50026C8.47999 8.50026 8.94024 8.5848 9.36666 8.73981Z"
    fill="var(--second-color)" />
  <path
    d="M13.9336 4.17285L13.4033 3.64252L13.4033 3.64252L13.9336 4.17285ZM9.36666 8.73981L9.11043 9.44469L9.55928 9.60785L9.89699 9.27014L9.36666 8.73981ZM14.011 4.13868L14.0457 4.88787L14.0457 4.88787L14.011 4.13868ZM15.2054 4.0833L15.1707 3.3341L15.2054 4.0833ZM16.3682 4.15478L16.0356 4.82696V4.82696L16.3682 4.15478ZM16.8308 4.62808L17.5105 4.31087L17.5105 4.31087L16.8308 4.62808ZM16.8757 5.79223L17.6239 5.84409V5.84409L16.8757 5.79223ZM16.8355 6.37187L17.5837 6.42374L16.8355 6.37187ZM16.7823 6.80698L17.5023 7.01718L17.5023 7.01717L16.7823 6.80698ZM16.664 7.06681L16.0328 6.66174L16.0328 6.66174L16.664 7.06681ZM16.3707 7.39259L15.8404 6.86226L15.8404 6.86226L16.3707 7.39259ZM15.4961 8.26727L15.5094 9.01715L15.8122 9.01176L16.0264 8.7976L15.4961 8.26727ZM13.8129 8.29722L13.7996 7.54734L13.1177 7.55947L13.0652 8.23938L13.8129 8.29722ZM13.6743 10.089L14.2047 10.6193L14.4007 10.4233L14.4221 10.1468L13.6743 10.089ZM11.9425 11.8208L11.4122 11.2905L11.1378 11.5648L11.2033 11.9473L11.9425 11.8208ZM13.4033 3.64252L8.83633 8.20948L9.89699 9.27014L14.464 4.70318L13.4033 3.64252ZM13.9763 3.38948C13.7604 3.39949 13.5561 3.48973 13.4033 3.64252L14.4639 4.70318C14.3524 4.8147 14.2033 4.88057 14.0457 4.88787L13.9763 3.38948ZM15.1707 3.3341L13.9763 3.38948L14.0457 4.88787L15.2402 4.83249L15.1707 3.3341ZM16.7009 3.48259C16.4492 3.35803 16.193 3.32477 15.9618 3.31581C15.7382 3.30715 15.468 3.32032 15.1707 3.3341L15.2402 4.83249C15.5636 4.81749 15.759 4.80908 15.9037 4.81468C16.0408 4.82 16.0556 4.83686 16.0356 4.82696L16.7009 3.48259ZM17.5105 4.31087C17.3424 3.95089 17.057 3.6588 16.7009 3.48259L16.0356 4.82696C16.0864 4.85213 16.1272 4.89386 16.1512 4.94529L17.5105 4.31087ZM17.6239 5.84409C17.6445 5.54716 17.6638 5.27731 17.6603 5.05361C17.6566 4.82223 17.6292 4.56533 17.5105 4.31087L16.1512 4.94528C16.1418 4.92505 16.1583 4.94026 16.1605 5.0774C16.1628 5.22224 16.1499 5.41735 16.1275 5.74036L17.6239 5.84409ZM17.5837 6.42374L17.6239 5.84409L16.1275 5.74036L16.0873 6.32001L17.5837 6.42374ZM17.5023 7.01717C17.5604 6.81803 17.5706 6.61275 17.5837 6.42374L16.0873 6.32001C16.0792 6.43649 16.0746 6.50132 16.0691 6.55035C16.0644 6.59305 16.0613 6.6006 16.0624 6.59679L17.5023 7.01717ZM17.2952 7.47187C17.3856 7.33099 17.4553 7.17787 17.5023 7.01718L16.0624 6.59678C16.0557 6.61974 16.0457 6.64161 16.0328 6.66174L17.2952 7.47187ZM16.9011 7.92292C17.035 7.78895 17.1832 7.64647 17.2952 7.47187L16.0328 6.66174C16.0349 6.6584 16.0313 6.6657 16.0022 6.69733C15.9688 6.73364 15.923 6.7797 15.8404 6.86226L16.9011 7.92292ZM16.9011 7.92293L16.9011 7.92292L15.8404 6.86226L15.8404 6.86227L16.9011 7.92293ZM16.0264 8.7976L16.9011 7.92293L15.8404 6.86227L14.9657 7.73694L16.0264 8.7976ZM13.8263 9.0471L15.5094 9.01715L15.4827 7.51739L13.7996 7.54734L13.8263 9.0471ZM14.4221 10.1468L14.5607 8.35506L13.0652 8.23938L12.9266 10.0312L14.4221 10.1468ZM12.4729 12.3511L14.2047 10.6193L13.144 9.55866L11.4122 11.2905L12.4729 12.3511ZM11.2033 11.9473C11.2339 12.1265 11.25 12.3112 11.25 12.5003H12.75C12.75 12.2261 12.7267 11.9567 12.6818 11.6943L11.2033 11.9473ZM11.25 12.5003C11.25 14.2952 9.79493 15.7503 8 15.7503V17.2503C10.6234 17.2503 12.75 15.1236 12.75 12.5003H11.25ZM8 15.7503C6.20507 15.7503 4.75 14.2952 4.75 12.5003H3.25C3.25 15.1236 5.37665 17.2503 8 17.2503V15.7503ZM4.75 12.5003C4.75 10.7053 6.20507 9.25026 8 9.25026V7.75026C5.37665 7.75026 3.25 9.87691 3.25 12.5003H4.75ZM8 9.25026C8.39135 9.25026 8.76494 9.3191 9.11043 9.44469L9.62289 8.03494C9.11553 7.85051 8.56864 7.75026 8 7.75026V9.25026Z"
    fill="var(--first-color)" />
</svg>
