<svg width="17" height="17" viewBox="0 0 17 17" fill="none" xmlns="http://www.w3.org/2000/svg">
<path fill-rule="evenodd" clip-rule="evenodd" d="M4.1929 15.4801C4.74059 15.5512 5.24225 15.1649 5.31341 14.6172L5.65345 12H9.13664L8.83008 14.3595C8.75892 14.9072 9.14522 15.4089 9.6929 15.4801C10.2406 15.5512 10.7423 15.1649 10.8134 14.6172L11.1534 12H14C14.5523 12 15 11.5523 15 11C15 10.4477 14.5523 9.99997 14 9.99997H11.4133L11.7981 7.03839H14C14.5523 7.03839 15 6.59068 15 6.03839C15 5.48611 14.5523 5.03839 14 5.03839H12.0579L12.3595 2.71724C12.4306 2.16956 12.0443 1.66789 11.4967 1.59673C10.949 1.52558 10.4473 1.91188 10.3761 2.45956L10.0411 5.03839H6.55791L6.85948 2.71724C6.93063 2.16956 6.54433 1.66789 5.99665 1.59673C5.44897 1.52558 4.9473 1.91188 4.87615 2.45956L4.5411 5.03839H2C1.44772 5.03839 1 5.48611 1 6.03839C1 6.59068 1.44772 7.03839 2 7.03839H4.28126L3.89648 9.99997H2C1.44772 9.99997 1 10.4477 1 11C1 11.5523 1.44772 12 2 12H3.63664L3.33008 14.3595C3.25892 14.9072 3.64522 15.4089 4.1929 15.4801ZM9.78126 7.03839H6.29806L5.91329 9.99997H9.39648L9.78126 7.03839Z" fill="#1F1F1F"/>
</svg>
