<svg width="18" height="16" viewBox="0 0 18 16" fill="none" xmlns="http://www.w3.org/2000/svg">
<path fill-rule="evenodd" clip-rule="evenodd" d="M8.48828 5.16333C7.98145 5.16333 7.57031 5.57446 7.57031 6.08154C7.57031 6.58862 7.98145 6.99976 8.48828 6.99976H11.3867V14.5813C11.3867 15.0886 11.7979 15.4995 12.3047 15.4995C12.8115 15.4995 13.2227 15.0886 13.2227 14.5813V6.99976H16.4512C16.958 6.99976 17.3691 6.58862 17.3691 6.08154C17.3691 5.57446 16.958 5.16333 16.4512 5.16333H8.48828Z" fill="#1F1F1F"/>
<path fill-rule="evenodd" clip-rule="evenodd" d="M0.685547 1.03638C0.587891 1.18262 0.530273 1.35864 0.530273 1.5481C0.530273 2.05518 0.941406 2.46631 1.44824 2.46631H6.40918V14.4785C6.40918 14.9858 6.82031 15.3967 7.32715 15.3967C7.83398 15.3967 8.24512 14.9858 8.24512 14.4785V2.46631H12.6172C13.125 2.46631 13.5361 2.05518 13.5361 1.5481C13.5361 1.04102 13.125 0.629883 12.6172 0.629883L7.32715 0.630127L1.44824 0.629883C1.13086 0.629883 0.850586 0.79126 0.685547 1.03638Z" fill="#1F1F1F"/>
</svg>
