<svg width="171" height="121" viewBox="0 0 171 121" fill="none" xmlns="http://www.w3.org/2000/svg">
<rect x="2" y="2" width="146" height="86" rx="3" fill="#E3EAF2" stroke="#00D9C9" stroke-width="4"/>
<circle cx="132" cy="90" r="10" fill="#00D9C9"/>
<path d="M128 91.4737L130.667 94L136 86" stroke="#F1F5F9" stroke-width="2" stroke-linecap="round" stroke-linejoin="round"/>
<path d="M89.5864 22.6424L89.5879 22.6462L93.1448 31.83C93.347 32.352 93.8043 32.669 94.2485 32.8143C95.6156 33.2616 97.4918 34.8184 97.5 37.4927C97.5 37.4932 97.5 37.4936 97.5 37.494L97.5 47.0561C97.5 48.0662 96.8621 48.9252 95.9677 49.2539C95.354 49.4794 94.6605 50.0442 94.6605 50.8967V58C94.6605 58.2761 94.4366 58.5 94.1605 58.5H88.5729C88.2968 58.5 88.0729 58.2761 88.0729 58V51.7239C88.0729 50.8955 87.4013 50.2239 86.5729 50.2239H63.7546C62.9262 50.2239 62.2546 50.8955 62.2546 51.7239V58C62.2546 58.2761 62.0307 58.5 61.7546 58.5H55.8395C55.5634 58.5 55.3395 58.2761 55.3395 58V50.8967C55.3395 50.0442 54.646 49.4795 54.0328 49.2536C53.1379 48.9238 52.5 48.0625 52.5 47.0561L52.5 37.4926L52.5 37.4919C52.4962 34.8195 54.3645 33.2634 55.7209 32.815C56.1633 32.6688 56.6199 32.3521 56.8218 31.8308L60.379 22.6462L60.3793 22.6455C60.7134 21.7792 61.2295 21.0011 61.9771 20.438C62.72 19.8783 63.7231 19.5068 65.0772 19.5H70.4899H79.5763H84.8897C86.2515 19.5069 87.258 19.8787 88.0005 20.438C88.7473 21.0006 89.2595 21.7776 89.5864 22.6424Z" fill="#57A8F1" fill-opacity="0.2" stroke="#57A8F1"/>
<rect x="62" y="63" width="25" height="12" rx="3" fill="#57A8F1"/>
<g filter="url(#filter0_d)">
<path d="M72.843 68.2734C72.6405 66.5938 71.3692 65.6278 69.686 65.6278C67.7648 65.6278 66.2982 66.9844 66.2982 69.3636C66.2982 71.7358 67.74 73.0994 69.686 73.0994C71.5503 73.0994 72.676 71.8601 72.843 70.5213L71.2876 70.5142C71.142 71.2919 70.5312 71.7393 69.7108 71.7393C68.6064 71.7393 67.8572 70.919 67.8572 69.3636C67.8572 67.8509 68.5958 66.9879 69.7215 66.9879C70.5631 66.9879 71.1704 67.4744 71.2876 68.2734H72.843ZM75.4726 73.103C76.2787 73.103 76.8007 72.7514 77.067 72.2436H77.1096V73H78.5443V69.321C78.5443 68.0213 77.4434 67.4744 76.229 67.4744C74.9221 67.4744 74.0628 68.0994 73.8532 69.0938L75.2524 69.2074C75.3554 68.8452 75.6785 68.5788 76.2219 68.5788C76.7368 68.5788 77.0315 68.8381 77.0315 69.2855V69.3068C77.0315 69.6584 76.6586 69.7045 75.7105 69.7969C74.6309 69.8963 73.6615 70.2585 73.6615 71.4766C73.6615 72.5561 74.4321 73.103 75.4726 73.103ZM75.9058 72.0589C75.4406 72.0589 75.1068 71.8423 75.1068 71.4268C75.1068 71.0007 75.4584 70.7912 75.991 70.7166C76.3213 70.6705 76.8611 70.5923 77.0422 70.4716V71.0504C77.0422 71.6222 76.5699 72.0589 75.9058 72.0589ZM79.718 73H81.2307V69.9141C81.2307 69.2429 81.7208 68.7812 82.3884 68.7812C82.5979 68.7812 82.8856 68.8168 83.0276 68.8629V67.5206C82.8927 67.4886 82.7045 67.4673 82.5518 67.4673C81.941 67.4673 81.4403 67.8224 81.2414 68.4972H81.1846V67.5455H79.718V73Z" fill="white"/>
</g>
<rect x="9" y="9" width="146" height="86" rx="3" fill="#E3EAF2" stroke="#DE3E3E" stroke-width="4"/>
<circle cx="139" cy="97" r="10" fill="#00D9C9"/>
<path d="M135 98.4737L137.667 101L143 93" stroke="#F1F5F9" stroke-width="2" stroke-linecap="round" stroke-linejoin="round"/>
<path d="M96.5864 29.6424L96.5879 29.6462L100.145 38.83C100.347 39.352 100.804 39.669 101.249 39.8143C102.616 40.2616 104.492 41.8184 104.5 44.4927C104.5 44.4932 104.5 44.4936 104.5 44.494L104.5 54.0561C104.5 55.0662 103.862 55.9252 102.968 56.2539C102.354 56.4794 101.66 57.0442 101.66 57.8967V65C101.66 65.2761 101.437 65.5 101.16 65.5H95.5729C95.2968 65.5 95.0729 65.2761 95.0729 65V58.7239C95.0729 57.8955 94.4013 57.2239 93.5729 57.2239H70.7546C69.9262 57.2239 69.2546 57.8955 69.2546 58.7239V65C69.2546 65.2761 69.0307 65.5 68.7546 65.5H62.8395C62.5634 65.5 62.3395 65.2761 62.3395 65V57.8967C62.3395 57.0442 61.646 56.4795 61.0328 56.2536C60.1379 55.9238 59.5 55.0625 59.5 54.0561L59.5 44.4926L59.5 44.4919C59.4962 41.8195 61.3645 40.2634 62.7209 39.815C63.1633 39.6688 63.6199 39.3521 63.8218 38.8308L67.379 29.6462L67.3793 29.6455C67.7134 28.7792 68.2295 28.0011 68.9771 27.438C69.72 26.8783 70.7231 26.5068 72.0772 26.5H77.4899H86.5763H91.8897C93.2515 26.5069 94.258 26.8787 95.0005 27.438C95.7473 28.0006 96.2595 28.7776 96.5864 29.6424Z" fill="#57A8F1" fill-opacity="0.2" stroke="#57A8F1"/>
<rect x="69" y="70" width="25" height="12" rx="3" fill="#57A8F1"/>
<g filter="url(#filter1_d)">
<path d="M79.843 75.2734C79.6405 73.5938 78.3692 72.6278 76.686 72.6278C74.7648 72.6278 73.2982 73.9844 73.2982 76.3636C73.2982 78.7358 74.74 80.0994 76.686 80.0994C78.5503 80.0994 79.676 78.8601 79.843 77.5213L78.2876 77.5142C78.142 78.2919 77.5312 78.7393 76.7108 78.7393C75.6064 78.7393 74.8572 77.919 74.8572 76.3636C74.8572 74.8509 75.5958 73.9879 76.7215 73.9879C77.5631 73.9879 78.1704 74.4744 78.2876 75.2734H79.843ZM82.4726 80.103C83.2787 80.103 83.8007 79.7514 84.067 79.2436H84.1096V80H85.5443V76.321C85.5443 75.0213 84.4434 74.4744 83.229 74.4744C81.9221 74.4744 81.0628 75.0994 80.8532 76.0938L82.2524 76.2074C82.3554 75.8452 82.6785 75.5788 83.2219 75.5788C83.7368 75.5788 84.0315 75.8381 84.0315 76.2855V76.3068C84.0315 76.6584 83.6586 76.7045 82.7105 76.7969C81.6309 76.8963 80.6615 77.2585 80.6615 78.4766C80.6615 79.5561 81.4321 80.103 82.4726 80.103ZM82.9058 79.0589C82.4406 79.0589 82.1068 78.8423 82.1068 78.4268C82.1068 78.0007 82.4584 77.7912 82.991 77.7166C83.3213 77.6705 83.8611 77.5923 84.0422 77.4716V78.0504C84.0422 78.6222 83.5699 79.0589 82.9058 79.0589ZM86.718 80H88.2307V76.9141C88.2307 76.2429 88.7208 75.7812 89.3884 75.7812C89.5979 75.7812 89.8856 75.8168 90.0276 75.8629V74.5206C89.8927 74.4886 89.7045 74.4673 89.5518 74.4673C88.941 74.4673 88.4403 74.8224 88.2414 75.4972H88.1846V74.5455H86.718V80Z" fill="white"/>
</g>
<rect x="16" y="16" width="146" height="86" rx="3" fill="#E3EAF2" stroke="#00D9C9" stroke-width="4"/>
<circle cx="146" cy="104" r="10" fill="#00D9C9"/>
<path d="M142 105.474L144.667 108L150 100" stroke="#F1F5F9" stroke-width="2" stroke-linecap="round" stroke-linejoin="round"/>
<path d="M103.586 36.6424L103.588 36.6462L107.145 45.83C107.347 46.352 107.804 46.669 108.249 46.8143C109.616 47.2616 111.492 48.8184 111.5 51.4927C111.5 51.4932 111.5 51.4936 111.5 51.494L111.5 61.0561C111.5 62.0662 110.862 62.9252 109.968 63.2539C109.354 63.4794 108.66 64.0442 108.66 64.8967V72C108.66 72.2761 108.437 72.5 108.16 72.5H102.573C102.297 72.5 102.073 72.2761 102.073 72V65.7239C102.073 64.8955 101.401 64.2239 100.573 64.2239H77.7546C76.9262 64.2239 76.2546 64.8955 76.2546 65.7239V72C76.2546 72.2761 76.0307 72.5 75.7546 72.5H69.8395C69.5634 72.5 69.3395 72.2761 69.3395 72V64.8967C69.3395 64.0442 68.646 63.4795 68.0328 63.2536C67.1379 62.9238 66.5 62.0625 66.5 61.0561L66.5 51.4926L66.5 51.4919C66.4962 48.8195 68.3645 47.2634 69.7209 46.815C70.1633 46.6688 70.6199 46.3521 70.8218 45.8308L74.379 36.6462L74.3793 36.6455C74.7134 35.7792 75.2295 35.0011 75.9771 34.438C76.72 33.8783 77.7231 33.5068 79.0772 33.5H84.4899H93.5763H98.8897C100.252 33.5069 101.258 33.8787 102 34.438C102.747 35.0006 103.26 35.7776 103.586 36.6424Z" fill="#57A8F1" fill-opacity="0.2" stroke="#57A8F1"/>
<rect x="76" y="77" width="25" height="12" rx="3" fill="#57A8F1"/>
<g filter="url(#filter2_d)">
<path d="M86.843 82.2734C86.6405 80.5938 85.3692 79.6278 83.686 79.6278C81.7648 79.6278 80.2982 80.9844 80.2982 83.3636C80.2982 85.7358 81.74 87.0994 83.686 87.0994C85.5503 87.0994 86.676 85.8601 86.843 84.5213L85.2876 84.5142C85.142 85.2919 84.5312 85.7393 83.7108 85.7393C82.6064 85.7393 81.8572 84.919 81.8572 83.3636C81.8572 81.8509 82.5958 80.9879 83.7215 80.9879C84.5631 80.9879 85.1704 81.4744 85.2876 82.2734H86.843ZM89.4726 87.103C90.2787 87.103 90.8007 86.7514 91.067 86.2436H91.1096V87H92.5443V83.321C92.5443 82.0213 91.4434 81.4744 90.229 81.4744C88.9221 81.4744 88.0628 82.0994 87.8532 83.0938L89.2524 83.2074C89.3554 82.8452 89.6785 82.5788 90.2219 82.5788C90.7368 82.5788 91.0315 82.8381 91.0315 83.2855V83.3068C91.0315 83.6584 90.6586 83.7045 89.7105 83.7969C88.6309 83.8963 87.6615 84.2585 87.6615 85.4766C87.6615 86.5561 88.4321 87.103 89.4726 87.103ZM89.9058 86.0589C89.4406 86.0589 89.1068 85.8423 89.1068 85.4268C89.1068 85.0007 89.4584 84.7912 89.991 84.7166C90.3213 84.6705 90.8611 84.5923 91.0422 84.4716V85.0504C91.0422 85.6222 90.5699 86.0589 89.9058 86.0589ZM93.718 87H95.2307V83.9141C95.2307 83.2429 95.7208 82.7812 96.3884 82.7812C96.5979 82.7812 96.8856 82.8168 97.0276 82.8629V81.5206C96.8927 81.4886 96.7045 81.4673 96.5518 81.4673C95.941 81.4673 95.4403 81.8224 95.2414 82.4972H95.1846V81.5455H93.718V87Z" fill="white"/>
</g>
<rect x="23" y="23" width="146" height="86" rx="3" fill="#E3EAF2" stroke="#00D9C9" stroke-width="4"/>
<circle cx="153" cy="111" r="10" fill="#00D9C9"/>
<path d="M149 112.474L151.667 115L157 107" stroke="#F1F5F9" stroke-width="2" stroke-linecap="round" stroke-linejoin="round"/>
<path d="M110.586 43.6424L110.588 43.6462L114.145 52.83C114.347 53.352 114.804 53.669 115.249 53.8143C116.616 54.2616 118.492 55.8184 118.5 58.4927C118.5 58.4932 118.5 58.4936 118.5 58.494L118.5 68.0561C118.5 69.0662 117.862 69.9252 116.968 70.2539C116.354 70.4794 115.66 71.0442 115.66 71.8967V79C115.66 79.2761 115.437 79.5 115.16 79.5H109.573C109.297 79.5 109.073 79.2761 109.073 79V72.7239C109.073 71.8955 108.401 71.2239 107.573 71.2239H84.7546C83.9262 71.2239 83.2546 71.8955 83.2546 72.7239V79C83.2546 79.2761 83.0307 79.5 82.7546 79.5H76.8395C76.5634 79.5 76.3395 79.2761 76.3395 79V71.8967C76.3395 71.0442 75.646 70.4795 75.0328 70.2536C74.1379 69.9238 73.5 69.0625 73.5 68.0561L73.5 58.4926L73.5 58.4919C73.4962 55.8195 75.3645 54.2634 76.7209 53.815C77.1633 53.6688 77.6199 53.3521 77.8218 52.8308L81.379 43.6462L81.3793 43.6455C81.7134 42.7792 82.2295 42.0011 82.9771 41.438C83.72 40.8783 84.7231 40.5068 86.0772 40.5H91.4899H100.576H105.89C107.252 40.5069 108.258 40.8787 109 41.438C109.747 42.0006 110.26 42.7776 110.586 43.6424Z" fill="#57A8F1" fill-opacity="0.2" stroke="#57A8F1"/>
<rect x="83" y="84" width="25" height="12" rx="3" fill="#57A8F1"/>
<g filter="url(#filter3_d)">
<path d="M93.843 89.2734C93.6405 87.5938 92.3692 86.6278 90.686 86.6278C88.7648 86.6278 87.2982 87.9844 87.2982 90.3636C87.2982 92.7358 88.74 94.0994 90.686 94.0994C92.5503 94.0994 93.676 92.8601 93.843 91.5213L92.2876 91.5142C92.142 92.2919 91.5312 92.7393 90.7108 92.7393C89.6064 92.7393 88.8572 91.919 88.8572 90.3636C88.8572 88.8509 89.5958 87.9879 90.7215 87.9879C91.5631 87.9879 92.1704 88.4744 92.2876 89.2734H93.843ZM96.4726 94.103C97.2787 94.103 97.8007 93.7514 98.067 93.2436H98.1096V94H99.5443V90.321C99.5443 89.0213 98.4434 88.4744 97.229 88.4744C95.9221 88.4744 95.0628 89.0994 94.8532 90.0938L96.2524 90.2074C96.3554 89.8452 96.6785 89.5788 97.2219 89.5788C97.7368 89.5788 98.0315 89.8381 98.0315 90.2855V90.3068C98.0315 90.6584 97.6586 90.7045 96.7105 90.7969C95.6309 90.8963 94.6615 91.2585 94.6615 92.4766C94.6615 93.5561 95.4321 94.103 96.4726 94.103ZM96.9058 93.0589C96.4406 93.0589 96.1068 92.8423 96.1068 92.4268C96.1068 92.0007 96.4584 91.7912 96.991 91.7166C97.3213 91.6705 97.8611 91.5923 98.0422 91.4716V92.0504C98.0422 92.6222 97.5699 93.0589 96.9058 93.0589ZM100.718 94H102.231V90.9141C102.231 90.2429 102.721 89.7812 103.388 89.7812C103.598 89.7812 103.886 89.8168 104.028 89.8629V88.5206C103.893 88.4886 103.704 88.4673 103.552 88.4673C102.941 88.4673 102.44 88.8224 102.241 89.4972H102.185V88.5455H100.718V94Z" fill="white"/>
</g>
<defs>
<filter id="filter0_d" x="64.2979" y="64.6279" width="20.7294" height="11.4751" filterUnits="userSpaceOnUse" color-interpolation-filters="sRGB">
<feFlood flood-opacity="0" result="BackgroundImageFix"/>
<feColorMatrix in="SourceAlpha" type="matrix" values="0 0 0 0 0 0 0 0 0 0 0 0 0 0 0 0 0 0 127 0" result="hardAlpha"/>
<feOffset dy="1"/>
<feGaussianBlur stdDeviation="1"/>
<feColorMatrix type="matrix" values="0 0 0 0 0 0 0 0 0 0 0 0 0 0 0 0 0 0 0.25 0"/>
<feBlend mode="normal" in2="BackgroundImageFix" result="effect1_dropShadow"/>
<feBlend mode="normal" in="SourceGraphic" in2="effect1_dropShadow" result="shape"/>
</filter>
<filter id="filter1_d" x="71.2979" y="71.6279" width="20.7294" height="11.4751" filterUnits="userSpaceOnUse" color-interpolation-filters="sRGB">
<feFlood flood-opacity="0" result="BackgroundImageFix"/>
<feColorMatrix in="SourceAlpha" type="matrix" values="0 0 0 0 0 0 0 0 0 0 0 0 0 0 0 0 0 0 127 0" result="hardAlpha"/>
<feOffset dy="1"/>
<feGaussianBlur stdDeviation="1"/>
<feColorMatrix type="matrix" values="0 0 0 0 0 0 0 0 0 0 0 0 0 0 0 0 0 0 0.25 0"/>
<feBlend mode="normal" in2="BackgroundImageFix" result="effect1_dropShadow"/>
<feBlend mode="normal" in="SourceGraphic" in2="effect1_dropShadow" result="shape"/>
</filter>
<filter id="filter2_d" x="78.2979" y="78.6279" width="20.7294" height="11.4751" filterUnits="userSpaceOnUse" color-interpolation-filters="sRGB">
<feFlood flood-opacity="0" result="BackgroundImageFix"/>
<feColorMatrix in="SourceAlpha" type="matrix" values="0 0 0 0 0 0 0 0 0 0 0 0 0 0 0 0 0 0 127 0" result="hardAlpha"/>
<feOffset dy="1"/>
<feGaussianBlur stdDeviation="1"/>
<feColorMatrix type="matrix" values="0 0 0 0 0 0 0 0 0 0 0 0 0 0 0 0 0 0 0.25 0"/>
<feBlend mode="normal" in2="BackgroundImageFix" result="effect1_dropShadow"/>
<feBlend mode="normal" in="SourceGraphic" in2="effect1_dropShadow" result="shape"/>
</filter>
<filter id="filter3_d" x="85.2979" y="85.6279" width="20.7294" height="11.4751" filterUnits="userSpaceOnUse" color-interpolation-filters="sRGB">
<feFlood flood-opacity="0" result="BackgroundImageFix"/>
<feColorMatrix in="SourceAlpha" type="matrix" values="0 0 0 0 0 0 0 0 0 0 0 0 0 0 0 0 0 0 127 0" result="hardAlpha"/>
<feOffset dy="1"/>
<feGaussianBlur stdDeviation="1"/>
<feColorMatrix type="matrix" values="0 0 0 0 0 0 0 0 0 0 0 0 0 0 0 0 0 0 0.25 0"/>
<feBlend mode="normal" in2="BackgroundImageFix" result="effect1_dropShadow"/>
<feBlend mode="normal" in="SourceGraphic" in2="effect1_dropShadow" result="shape"/>
</filter>
</defs>
</svg>
