<svg width="184" height="111" viewBox="0 0 184 111" fill="none" xmlns="http://www.w3.org/2000/svg">
<mask id="path-1-inside-1" fill="white">
<path fill-rule="evenodd" clip-rule="evenodd" d="M46 4.27761C46 6.0314 45.6081 8.33111 44.5039 9.4025C44.8631 9.88684 45.215 10.5435 45.6042 11.4212C46.8179 14.1583 49.1641 19.1612 49.1641 19.1612C49.1641 19.1612 55.7816 22.4498 56.7844 22.9011C57.6972 23.3223 58.4684 24.6153 57.8571 25.6886C57.2547 26.772 55.7407 26.5611 54.5175 26.0197C53.1445 25.3978 48.6221 23.3424 47.6898 22.8306C46.8978 22.4 46.5963 22.2199 46.3061 21.7781C45.7043 20.8357 44.5315 19.1612 44.5315 19.1612L42.8374 26.4806C42.8374 26.4806 52.9343 42.9023 53.786 44.3571C54.6378 45.8118 54.8984 47.7766 53.3548 48.639C51.5204 49.662 50.3162 48.8102 48.9935 47.0948C48.0501 45.8643 42.6241 37.3842 39.354 32.27C39.08 33.0428 38.7017 34.1185 38.3357 35.159C37.7777 36.7454 37.2486 38.2497 37.1627 38.4724C36.8914 39.1346 36.5509 39.7957 35.9289 40.5876C35.5464 41.069 34.764 42.1308 33.9181 43.2788C32.702 44.9292 31.3547 46.7578 30.8757 47.2957C30.8453 47.3304 30.8142 47.3658 30.7826 47.4019C29.8985 48.4114 28.5609 49.9385 26.9054 48.6901C25.3807 47.5368 26.053 45.9523 26.945 44.6492C28.1285 42.9249 32.3998 36.7481 32.3998 36.7481L35.7297 26.3824C35.3698 25.5085 35.1743 24.5137 35.3972 23.3726C35.6382 22.1086 36.3804 18.3994 37.1119 15.0101L32.6896 18.4089C32.6896 18.4089 31.3166 26.3905 31.1359 27.2927C30.9055 28.3861 29.773 28.767 29.0207 28.6064C28.0884 28.4163 27.2663 27.7547 27.4765 26.1998L28.9307 16.4441C29.1605 15.7221 29.5414 15.2109 30.1337 14.8703L37.1119 9.5C37.378 9.35041 37.5866 9.15419 37.7944 8.95869C38.2137 8.56432 38.63 8.17285 39.5079 8.17285H39.841C38.7805 7.01629 38 5.51177 38 4.27761C38 1.91322 39.7889 0 42 0C44.2107 0 46 1.91322 46 4.27761Z"/>
</mask>
<path d="M44.5039 9.4025L43.8075 8.68482L43.179 9.29469L43.7007 9.99815L44.5039 9.4025ZM45.6042 11.4212L44.69 11.8265L44.69 11.8265L45.6042 11.4212ZM49.1641 19.1612L48.2587 19.5858L48.4068 19.9015L48.719 20.0567L49.1641 19.1612ZM56.7844 22.9011L57.2034 21.9931L57.1948 21.9892L56.7844 22.9011ZM57.8571 25.6886L56.9881 25.1937L56.9831 25.2027L57.8571 25.6886ZM54.5175 26.0197L54.1049 26.9307L54.1128 26.9342L54.5175 26.0197ZM47.6898 22.8306L48.171 21.954L48.1675 21.9521L47.6898 22.8306ZM46.3061 21.7781L45.4632 22.3163L45.4703 22.3271L46.3061 21.7781ZM44.5315 19.1612L45.3505 18.5875L44.0632 16.7495L43.5572 18.9357L44.5315 19.1612ZM42.8374 26.4806L41.8632 26.2551L41.7706 26.6548L41.9855 27.0043L42.8374 26.4806ZM53.3548 48.639L53.8418 49.5124L53.8426 49.512L53.3548 48.639ZM48.9935 47.0948L48.1999 47.7033L48.2016 47.7054L48.9935 47.0948ZM39.354 32.27L40.1965 31.7313L39.0947 30.0083L38.4114 31.9359L39.354 32.27ZM38.3357 35.159L39.2791 35.4908H39.2791L38.3357 35.159ZM37.1627 38.4724L38.0881 38.8515L38.092 38.8419L38.0957 38.8323L37.1627 38.4724ZM35.9289 40.5876L36.7119 41.2097L36.7154 41.2052L35.9289 40.5876ZM33.9181 43.2788L33.1131 42.6856H33.1131L33.9181 43.2788ZM30.8757 47.2957L30.1288 46.6308L30.1249 46.6353L30.8757 47.2957ZM30.7826 47.4019L30.0304 46.7431L30.0303 46.7431L30.7826 47.4019ZM26.9054 48.6901L26.3021 49.4876L26.3033 49.4885L26.9054 48.6901ZM26.945 44.6492L26.1206 44.0833L26.1199 44.0843L26.945 44.6492ZM32.3998 36.7481L33.2223 37.3169L33.3066 37.195L33.3519 37.054L32.3998 36.7481ZM35.7297 26.3824L36.6818 26.6882L36.7937 26.3399L36.6543 26.0016L35.7297 26.3824ZM35.3972 23.3726L36.3786 23.5643L36.3795 23.56L35.3972 23.3726ZM37.1119 15.0101L38.0894 15.2211L38.6648 12.5555L36.5026 14.2172L37.1119 15.0101ZM32.6896 18.4089L32.0802 17.616L31.7704 17.8542L31.7041 18.2394L32.6896 18.4089ZM31.1359 27.2927L32.1145 27.4989L32.1165 27.489L31.1359 27.2927ZM29.0207 28.6064L29.2294 27.6284L29.2206 27.6266L29.0207 28.6064ZM27.4765 26.1998L26.4874 26.0524L26.4855 26.0658L27.4765 26.1998ZM28.9307 16.4441L27.9778 16.1408L27.9535 16.2173L27.9416 16.2967L28.9307 16.4441ZM30.1337 14.8703L30.6322 15.7372L30.6904 15.7038L30.7436 15.6628L30.1337 14.8703ZM37.1119 9.5L36.6218 8.62837L36.5591 8.66364L36.5021 8.70751L37.1119 9.5ZM37.7944 8.95869L37.1093 8.23026L37.1093 8.23026L37.7944 8.95869ZM39.841 8.17285V9.17285H42.1149L40.5781 7.49699L39.841 8.17285ZM45.2003 10.1202C45.9468 9.39586 46.3808 8.34266 46.6352 7.3424C46.8955 6.3186 47 5.22035 47 4.27761H45C45 5.08865 44.9085 6.01715 44.6969 6.84951C44.4792 7.7054 44.1652 8.33776 43.8075 8.68482L45.2003 10.1202ZM46.5184 11.0159C46.1181 10.1132 45.7311 9.3786 45.3072 8.80686L43.7007 9.99815C43.995 10.3951 44.3119 10.9738 44.69 11.8265L46.5184 11.0159ZM49.1641 19.1612C50.0695 18.7365 50.0694 18.7365 50.0694 18.7365C50.0694 18.7365 50.0694 18.7364 50.0694 18.7363C50.0693 18.7362 50.0692 18.736 50.069 18.7357C50.0688 18.7351 50.0683 18.7342 50.0678 18.733C50.0667 18.7306 50.065 18.727 50.0628 18.7223C50.0583 18.7128 50.0517 18.6986 50.043 18.68C50.0255 18.6428 49.9998 18.5879 49.9666 18.517C49.9002 18.3751 49.8039 18.1692 49.6846 17.9137C49.446 17.4025 49.1152 16.6925 48.7465 15.8971C48.0084 14.3044 47.1215 12.3761 46.5183 11.0158L44.69 11.8265C45.3006 13.2034 46.1936 15.1451 46.932 16.7381C47.3016 17.5356 47.6332 18.2473 47.8724 18.7597C47.992 19.0159 48.0885 19.2223 48.1552 19.3647C48.1885 19.4359 48.2144 19.4911 48.2319 19.5286C48.2407 19.5473 48.2473 19.5616 48.2519 19.5712C48.2541 19.576 48.2558 19.5796 48.257 19.582C48.2575 19.5833 48.258 19.5842 48.2582 19.5848C48.2584 19.5851 48.2585 19.5853 48.2586 19.5855C48.2586 19.5856 48.2586 19.5856 48.2587 19.5857C48.2587 19.5857 48.2587 19.5858 49.1641 19.1612ZM57.1948 21.9892C56.7144 21.773 54.8321 20.8495 53.0408 19.9652C52.1517 19.5262 51.2937 19.1013 50.6579 18.7861C50.3401 18.6285 50.0778 18.4984 49.8951 18.4076C49.8037 18.3623 49.7322 18.3268 49.6835 18.3026C49.6592 18.2905 49.6406 18.2813 49.628 18.275C49.6218 18.2719 49.617 18.2696 49.6139 18.268C49.6123 18.2672 49.6111 18.2666 49.6103 18.2662C49.6099 18.266 49.6096 18.2659 49.6094 18.2658C49.6093 18.2657 49.6092 18.2657 49.6092 18.2657C49.6091 18.2656 49.6091 18.2656 49.1641 19.1612C48.719 20.0567 48.7191 20.0567 48.7191 20.0567C48.7192 20.0567 48.7193 20.0568 48.7194 20.0568C48.7196 20.0569 48.7199 20.0571 48.7203 20.0573C48.7211 20.0577 48.7223 20.0583 48.7239 20.0591C48.7271 20.0607 48.7318 20.063 48.7381 20.0662C48.7507 20.0724 48.7694 20.0817 48.7938 20.0938C48.8425 20.118 48.9142 20.1536 49.0057 20.199C49.1887 20.2899 49.4513 20.4202 49.7695 20.578C50.4059 20.8935 51.265 21.3189 52.1555 21.7586C53.9237 22.6314 55.8515 23.5779 56.374 23.813L57.1948 21.9892ZM58.7261 26.1835C59.2244 25.3084 59.1343 24.3705 58.8036 23.6385C58.481 22.9247 57.8932 22.3114 57.2033 21.9931L56.3654 23.8091C56.5884 23.912 56.8426 24.1557 56.981 24.4621C57.1112 24.7503 57.101 24.9955 56.9881 25.1937L58.7261 26.1835ZM54.1128 26.9342C54.7998 27.2382 55.6367 27.4832 56.4449 27.4632C57.2807 27.4425 58.2046 27.1214 58.7311 26.1746L56.9831 25.2027C56.9072 25.3392 56.7729 25.4544 56.3953 25.4638C55.9901 25.4738 55.4585 25.3426 54.9223 25.1053L54.1128 26.9342ZM47.2086 23.7072C48.1849 24.2432 52.7611 26.3219 54.1049 26.9306L54.9302 25.1088C53.5279 24.4736 49.0593 22.4417 48.171 21.954L47.2086 23.7072ZM45.4703 22.3271C45.9165 23.0065 46.4411 23.2899 47.2121 23.7092L48.1675 21.9521C47.758 21.7294 47.5468 21.6087 47.4002 21.5014C47.2867 21.4184 47.2217 21.3505 47.1419 21.2291L45.4703 22.3271ZM44.5315 19.1612C43.7124 19.7348 43.7124 19.7348 43.7124 19.7348C43.7124 19.7348 43.7124 19.7348 43.7124 19.7349C43.7124 19.7349 43.7125 19.735 43.7125 19.7351C43.7127 19.7352 43.7129 19.7355 43.7131 19.7359C43.7137 19.7367 43.7145 19.7378 43.7156 19.7394C43.7177 19.7424 43.721 19.7471 43.7253 19.7532C43.7339 19.7655 43.7466 19.7837 43.763 19.8073C43.7959 19.8545 43.8437 19.923 43.903 20.0083C44.0216 20.1789 44.1859 20.416 44.3688 20.6824C44.737 21.2184 45.1722 21.8605 45.4633 22.3163L47.1489 21.2399C46.8381 20.7532 46.3861 20.0869 46.0174 19.5501C45.8319 19.2799 45.6654 19.0396 45.5452 18.8668C45.4852 18.7803 45.4366 18.7107 45.403 18.6626C45.3862 18.6385 45.3732 18.6199 45.3643 18.6071C45.3599 18.6008 45.3565 18.5959 45.3541 18.5926C45.353 18.591 45.3521 18.5897 45.3515 18.5888C45.3512 18.5884 45.351 18.5881 45.3508 18.5879C45.3507 18.5877 45.3507 18.5877 45.3506 18.5876C45.3506 18.5876 45.3506 18.5875 45.3506 18.5875C45.3506 18.5875 45.3505 18.5875 44.5315 19.1612ZM43.8117 26.7061L45.5057 19.3866L43.5572 18.9357L41.8632 26.2551L43.8117 26.7061ZM54.649 43.8518C54.2162 43.1127 51.4703 38.6293 48.8446 34.3503C47.5292 32.2064 46.2403 30.1081 45.2804 28.5457C44.8004 27.7645 44.4026 27.1173 44.1248 26.6654C43.986 26.4394 43.8771 26.2623 43.8029 26.1416C43.7658 26.0813 43.7374 26.0351 43.7183 26.004C43.7087 25.9884 43.7015 25.9766 43.6966 25.9687C43.6942 25.9648 43.6923 25.9618 43.6911 25.9598C43.6905 25.9588 43.69 25.9581 43.6897 25.9576C43.6896 25.9573 43.6895 25.9571 43.6894 25.957C43.6893 25.9569 43.6893 25.9568 42.8374 26.4806C41.9855 27.0043 41.9856 27.0044 41.9857 27.0045C41.9857 27.0046 41.9858 27.0048 41.986 27.0051C41.9863 27.0056 41.9868 27.0063 41.9874 27.0073C41.9886 27.0093 41.9904 27.0123 41.9929 27.0162C41.9977 27.0241 42.005 27.0359 42.0145 27.0515C42.0336 27.0826 42.062 27.1288 42.0991 27.1891C42.1733 27.3097 42.2821 27.4868 42.421 27.7127C42.6987 28.1645 43.0964 28.8116 43.5763 29.5927C44.5361 31.1549 45.8248 33.2529 47.14 35.3963C49.7757 39.6918 52.5041 44.1467 52.9231 44.8623L54.649 43.8518ZM53.8426 49.512C54.979 48.877 55.4393 47.8103 55.4683 46.7475C55.4961 45.7295 55.1402 44.6907 54.649 43.8518L52.9231 44.8623C53.2837 45.4782 53.4839 46.1491 53.4691 46.6929C53.4554 47.1917 53.2742 47.5386 52.8671 47.766L53.8426 49.512ZM48.2016 47.7054C48.8784 48.5832 49.6412 49.4052 50.5868 49.8123C51.6246 50.2591 52.7126 50.1421 53.8418 49.5124L52.8678 47.7656C52.1626 48.1589 51.7312 48.1275 51.3776 47.9753C50.9318 47.7834 50.4313 47.3218 49.7854 46.4842L48.2016 47.7054ZM38.5115 32.8087C41.7579 37.8859 47.2221 46.4279 48.1999 47.7033L49.7871 46.4864C48.878 45.3006 43.4902 36.8825 40.1965 31.7313L38.5115 32.8087ZM39.2791 35.4908C39.6452 34.4499 40.0231 33.3755 40.2965 32.6041L38.4114 31.9359C38.137 32.7101 37.7582 33.7872 37.3924 34.8272L39.2791 35.4908ZM38.0957 38.8323C38.1888 38.591 38.7265 37.0618 39.2791 35.4908L37.3924 34.8272C36.829 36.429 36.3085 37.9083 36.2297 38.1125L38.0957 38.8323ZM36.7154 41.2052C37.4035 40.329 37.7878 39.5845 38.0881 38.8515L36.2374 38.0933C35.9951 38.6848 35.6982 39.2623 35.1424 39.97L36.7154 41.2052ZM34.7232 43.872C35.5764 42.7141 36.3439 41.6727 36.7119 41.2097L35.146 39.9655C34.7489 40.4652 33.9517 41.5475 33.1131 42.6856L34.7232 43.872ZM31.6226 47.9607C32.1418 47.3776 33.53 45.4914 34.7232 43.872L33.1131 42.6856C31.8741 44.3671 30.5676 46.138 30.1288 46.6308L31.6226 47.9607ZM31.5348 48.0608C31.5666 48.0245 31.597 47.9899 31.6266 47.9562L30.1249 46.6353C30.0936 46.6709 30.0618 46.7071 30.0304 46.7431L31.5348 48.0608ZM26.3033 49.4885C26.8529 49.903 27.4371 50.1295 28.0407 50.1564C28.6371 50.1831 29.1665 50.0111 29.6083 49.7726C30.4475 49.3196 31.1196 48.535 31.5348 48.0608L30.0303 46.7431C29.5615 47.2783 29.1227 47.762 28.6582 48.0127C28.4481 48.1261 28.2775 48.165 28.1299 48.1584C27.9895 48.1521 27.7856 48.1014 27.5074 47.8916L26.3033 49.4885ZM26.1199 44.0843C25.653 44.7663 25.1469 45.6517 25.0269 46.6003C24.9644 47.0937 25.0041 47.6205 25.2193 48.1388C25.4348 48.6579 25.8015 49.109 26.3021 49.4876L27.5086 47.8925C27.2469 47.6945 27.1259 47.5151 27.0665 47.372C27.0068 47.2282 26.9845 47.0611 27.011 46.8514C27.069 46.3937 27.345 45.8352 27.7702 45.2141L26.1199 44.0843ZM32.3998 36.7481C31.5773 36.1794 31.5773 36.1794 31.5773 36.1794C31.5772 36.1795 31.5772 36.1796 31.5771 36.1796C31.577 36.1798 31.5768 36.1801 31.5765 36.1805C31.576 36.1812 31.5752 36.1824 31.5742 36.1838C31.5721 36.1868 31.5691 36.1913 31.565 36.1971C31.5569 36.2089 31.5448 36.2263 31.529 36.2492C31.4975 36.2948 31.451 36.3621 31.3914 36.4482C31.2723 36.6205 31.1008 36.8685 30.8913 37.1716C30.4724 37.7776 29.9014 38.6037 29.2935 39.4837C28.0781 41.2429 26.7134 43.2196 26.1206 44.0833L27.7695 45.2151C28.3602 44.3545 29.7229 42.3807 30.939 40.6205C31.5468 39.7407 32.1176 38.9148 32.5365 38.3088C32.746 38.0058 32.9174 37.7579 33.0365 37.5856C33.096 37.4995 33.1425 37.4323 33.1741 37.3867C33.1899 37.3638 33.2019 37.3464 33.21 37.3346C33.2141 37.3288 33.2172 37.3243 33.2192 37.3214C33.2202 37.3199 33.221 37.3188 33.2215 37.318C33.2218 37.3176 33.222 37.3174 33.2221 37.3172C33.2222 37.3171 33.2222 37.317 33.2223 37.317C33.2223 37.3169 33.2223 37.3169 32.3998 36.7481ZM34.7776 26.0766L31.4477 36.4423L33.3519 37.054L36.6818 26.6882L34.7776 26.0766ZM34.4157 23.1809C34.1471 24.556 34.3886 25.7519 34.805 26.7632L36.6543 26.0016C36.3511 25.2651 36.2014 24.4715 36.3786 23.5643L34.4157 23.1809ZM36.1345 14.7991C35.4013 18.1959 34.6575 21.913 34.4149 23.1853L36.3795 23.56C36.619 22.3042 37.3595 18.6029 38.0894 15.2211L36.1345 14.7991ZM33.299 19.2018L37.7213 15.803L36.5026 14.2172L32.0802 17.616L33.299 19.2018ZM32.1165 27.489C32.2101 27.0214 32.6018 24.7809 32.9658 22.6835C33.1488 21.629 33.3261 20.6027 33.4577 19.8402C33.5235 19.4589 33.5778 19.1435 33.6158 18.9234C33.6347 18.8133 33.6496 18.7271 33.6597 18.6684C33.6647 18.639 33.6686 18.6165 33.6712 18.6014C33.6725 18.5938 33.6735 18.5881 33.6741 18.5842C33.6745 18.5823 33.6747 18.5809 33.6749 18.5799C33.675 18.5794 33.675 18.579 33.6751 18.5788C33.6751 18.5787 33.6751 18.5786 33.6751 18.5785C33.6751 18.5785 33.6751 18.5784 32.6896 18.4089C31.7041 18.2394 31.7041 18.2394 31.7041 18.2395C31.7041 18.2395 31.7041 18.2396 31.704 18.2397C31.704 18.24 31.7039 18.2403 31.7038 18.2408C31.7037 18.2418 31.7034 18.2432 31.7031 18.2451C31.7024 18.249 31.7015 18.2547 31.7002 18.2622C31.6976 18.2773 31.6937 18.2998 31.6886 18.3291C31.6786 18.3878 31.6637 18.4739 31.6448 18.5839C31.6069 18.8038 31.5526 19.119 31.4868 19.5001C31.3553 20.2623 31.1781 21.2878 30.9953 22.3415C30.6276 24.4604 30.2424 26.6618 30.1554 27.0963L32.1165 27.489ZM28.812 29.5844C29.4212 29.7144 30.1293 29.6232 30.7366 29.3063C31.3693 28.9762 31.9292 28.3779 32.1144 27.4988L30.1574 27.0865C30.1122 27.3009 29.9907 27.4397 29.8114 27.5332C29.6068 27.64 29.3726 27.659 29.2294 27.6285L28.812 29.5844ZM26.4855 26.0658C26.3539 27.0389 26.5311 27.8809 27.0283 28.5256C27.5137 29.155 28.1991 29.4595 28.8209 29.5863L29.2206 27.6266C28.9101 27.5633 28.7182 27.4419 28.612 27.3042C28.5177 27.1818 28.3888 26.9156 28.4675 26.3338L26.4855 26.0658ZM27.9416 16.2967L26.4875 26.0524L28.4656 26.3472L29.9198 16.5916L27.9416 16.2967ZM29.6352 14.0034C28.7919 14.4884 28.2704 15.2216 27.9778 16.1408L29.8836 16.7474C30.0507 16.2226 30.2909 15.9335 30.6322 15.7372L29.6352 14.0034ZM36.5021 8.70751L29.5238 14.0778L30.7436 15.6628L37.7218 10.2925L36.5021 8.70751ZM37.1093 8.23026C36.8904 8.43615 36.7656 8.54747 36.6218 8.62837L37.6021 10.3716C37.9903 10.1533 38.2827 9.87223 38.4796 9.68712L37.1093 8.23026ZM39.5079 7.17285C38.9055 7.17285 38.4147 7.31092 37.9954 7.5427C37.6026 7.75984 37.3071 8.04428 37.1093 8.23026L38.4796 9.68712C38.7011 9.47873 38.8234 9.37024 38.963 9.29306C39.0761 9.23052 39.2324 9.17285 39.5079 9.17285V7.17285ZM39.841 7.17285H39.5079V9.17285H39.841V7.17285ZM37 4.27761C37 5.86562 37.9606 7.60178 39.104 8.84872L40.5781 7.49699C39.6003 6.4308 39 5.15793 39 4.27761H37ZM42 -1C39.1744 -1 37 1.42524 37 4.27761H39C39 2.40121 40.4033 1 42 1V-1ZM47 4.27761C47 1.42516 44.8251 -1 42 -1V1C43.5963 1 45 2.40129 45 4.27761H47Z" fill="#00D9C9" mask="url(#path-1-inside-1)"/>
<mask id="path-3-inside-2" fill="white">
<path fill-rule="evenodd" clip-rule="evenodd" d="M44.5039 9.4025C45.6081 8.33111 46 6.0314 46 4.27761C46 1.91322 44.2107 0 42 0C39.7889 0 38 1.91322 38 4.27761C38 5.51177 38.7805 7.01629 39.841 8.17285H39.5079C38.63 8.17285 38.2137 8.56432 37.7944 8.95869C37.5866 9.15419 37.378 9.35041 37.1119 9.5L30.1337 14.8703C29.5414 15.2109 29.1605 15.7221 28.9307 16.4441L27.4765 26.1998C27.2663 27.7547 28.0884 28.4163 29.0207 28.6064C29.773 28.767 30.9055 28.3861 31.1359 27.2927C31.3166 26.3905 32.6896 18.4089 32.6896 18.4089L37.1119 15.0101C36.3804 18.3994 35.6382 22.1086 35.3972 23.3726C34.976 25.5287 36.0487 27.1623 36.9011 28.4453C37.0066 28.6044 37.1732 28.8388 37.4082 29.1694C38.1618 30.2297 39.6183 32.2789 42.0147 36C43.2804 37.9655 42.4699 40.0182 41.6051 42.2085C40.8844 44.0338 40.126 45.9545 40.5 48C40.9571 50.5 42.8374 50.5 45.6042 49C45.6042 47.3537 46.0798 46.0462 46.635 44.5197C46.7543 44.1917 46.8773 43.8537 47 43.5C47 43.5 50.2964 39.2482 47.6898 35C45.0313 30.6673 42.8374 26.4806 42.8374 26.4806L44.5 18.4089C44.5 18.4089 44.3982 17.4665 45 18.4089C45 18.4089 46.8978 17.6472 47.6898 18.0778C48.1322 18.3207 50.3927 18.2675 52.7928 18.2111C55.4501 18.1486 58.2786 18.0821 59 18.4089C60.2232 18.9503 61.7372 19.1612 62.3396 18.0778C62.9508 17.0045 62.1796 15.7114 61.2668 15.2903C60.264 14.8389 53.5 14 53.5 14C53.5 14 46.8179 14.1583 45.6042 11.4212C45.215 10.5435 44.8631 9.88684 44.5039 9.4025Z"/>
</mask>
<path d="M44.5039 9.4025L43.8075 8.68482L43.179 9.29469L43.7007 9.99815L44.5039 9.4025ZM39.841 8.17285V9.17285H42.1149L40.5781 7.49699L39.841 8.17285ZM37.7944 8.95869L37.1093 8.23026L37.1093 8.23026L37.7944 8.95869ZM37.1119 9.5L36.6218 8.62837L36.5591 8.66364L36.5021 8.70751L37.1119 9.5ZM30.1337 14.8703L30.6322 15.7372L30.6904 15.7038L30.7436 15.6628L30.1337 14.8703ZM28.9307 16.4441L27.9778 16.1408L27.9535 16.2173L27.9416 16.2967L28.9307 16.4441ZM27.4765 26.1998L26.4874 26.0524L26.4855 26.0658L27.4765 26.1998ZM29.0207 28.6064L29.2294 27.6284L29.2206 27.6266L29.0207 28.6064ZM31.1359 27.2927L32.1145 27.4989L32.1165 27.489L31.1359 27.2927ZM32.6896 18.4089L32.0802 17.616L31.7704 17.8542L31.7041 18.2394L32.6896 18.4089ZM37.1119 15.0101L38.0894 15.2211L38.6648 12.5555L36.5026 14.2172L37.1119 15.0101ZM35.3972 23.3726L36.3786 23.5643L36.3795 23.56L35.3972 23.3726ZM36.9011 28.4453L37.7344 27.8925L37.734 27.892L36.9011 28.4453ZM37.4082 29.1694L36.5931 29.7487V29.7487L37.4082 29.1694ZM42.0147 36L41.1739 36.5414H41.1739L42.0147 36ZM41.6051 42.2085L42.5352 42.5758L41.6051 42.2085ZM40.5 48L41.4837 47.8201L40.5 48ZM45.6042 49L46.0808 49.8791L46.6042 49.5954V49H45.6042ZM46.635 44.5197L47.5748 44.8615L47.5748 44.8615L46.635 44.5197ZM47 43.5L46.2097 42.8873L46.1091 43.0171L46.0552 43.1722L47 43.5ZM47.6898 35L48.5421 34.477L47.6898 35ZM42.8374 26.4806L41.858 26.2788L41.7859 26.6285L41.9516 26.9447L42.8374 26.4806ZM44.5 18.4089L45.4794 18.6106L45.511 18.4572L45.4942 18.3015L44.5 18.4089ZM45 18.4089L44.1572 18.9471L44.6033 19.6457L45.3725 19.3369L45 18.4089ZM47.6898 18.0778L48.171 17.2012L48.1675 17.1993L47.6898 18.0778ZM52.7928 18.2111L52.8163 19.2108L52.7928 18.2111ZM59 18.4089L58.5874 19.3198L58.5953 19.3233L59 18.4089ZM62.3396 18.0778L61.4706 17.5829L61.4656 17.5918L62.3396 18.0778ZM61.2668 15.2903L61.6858 14.3822L61.6773 14.3784L61.2668 15.2903ZM53.5 14L53.6231 13.0076L53.55 12.9985L53.4763 13.0003L53.5 14ZM45.6042 11.4212L44.69 11.8265L44.69 11.8265L45.6042 11.4212ZM45 4.27761C45 5.08865 44.9085 6.01715 44.6969 6.84951C44.4792 7.7054 44.1652 8.33776 43.8075 8.68482L45.2003 10.1202C45.9468 9.39586 46.3808 8.34266 46.6352 7.3424C46.8955 6.3186 47 5.22035 47 4.27761H45ZM42 1C43.5963 1 45 2.40129 45 4.27761H47C47 1.42516 44.8251 -1 42 -1V1ZM39 4.27761C39 2.40121 40.4033 1 42 1V-1C39.1744 -1 37 1.42524 37 4.27761H39ZM40.5781 7.49699C39.6003 6.4308 39 5.15793 39 4.27761H37C37 5.86562 37.9606 7.60178 39.104 8.84872L40.5781 7.49699ZM39.841 7.17285H39.5079V9.17285H39.841V7.17285ZM39.5079 7.17285C38.9055 7.17285 38.4147 7.31092 37.9954 7.5427C37.6026 7.75984 37.3071 8.04428 37.1093 8.23026L38.4796 9.68712C38.7011 9.47873 38.8234 9.37024 38.963 9.29306C39.0761 9.23052 39.2324 9.17285 39.5079 9.17285V7.17285ZM37.1093 8.23026C36.8904 8.43615 36.7656 8.54747 36.6218 8.62837L37.6021 10.3716C37.9903 10.1533 38.2827 9.87223 38.4796 9.68712L37.1093 8.23026ZM36.5021 8.70751L29.5238 14.0778L30.7436 15.6628L37.7218 10.2925L36.5021 8.70751ZM29.6352 14.0034C28.7919 14.4884 28.2704 15.2216 27.9778 16.1408L29.8836 16.7474C30.0507 16.2226 30.2909 15.9335 30.6322 15.7372L29.6352 14.0034ZM27.9416 16.2967L26.4875 26.0524L28.4656 26.3472L29.9198 16.5916L27.9416 16.2967ZM26.4855 26.0658C26.3539 27.0389 26.5311 27.8809 27.0283 28.5256C27.5137 29.155 28.1991 29.4595 28.8209 29.5863L29.2206 27.6266C28.9101 27.5633 28.7182 27.4419 28.612 27.3042C28.5177 27.1818 28.3888 26.9156 28.4675 26.3338L26.4855 26.0658ZM28.812 29.5844C29.4212 29.7144 30.1293 29.6232 30.7366 29.3063C31.3693 28.9762 31.9292 28.3779 32.1144 27.4988L30.1574 27.0865C30.1122 27.3009 29.9907 27.4397 29.8114 27.5332C29.6068 27.64 29.3726 27.659 29.2294 27.6285L28.812 29.5844ZM32.1165 27.489C32.2101 27.0214 32.6018 24.7809 32.9658 22.6835C33.1488 21.629 33.3261 20.6027 33.4577 19.8402C33.5235 19.4589 33.5778 19.1435 33.6158 18.9234C33.6347 18.8133 33.6496 18.7271 33.6597 18.6684C33.6647 18.639 33.6686 18.6165 33.6712 18.6014C33.6725 18.5938 33.6735 18.5881 33.6741 18.5842C33.6745 18.5823 33.6747 18.5809 33.6749 18.5799C33.675 18.5794 33.675 18.579 33.6751 18.5788C33.6751 18.5787 33.6751 18.5786 33.6751 18.5785C33.6751 18.5785 33.6751 18.5784 32.6896 18.4089C31.7041 18.2394 31.7041 18.2394 31.7041 18.2395C31.7041 18.2395 31.7041 18.2396 31.704 18.2397C31.704 18.24 31.7039 18.2403 31.7038 18.2408C31.7037 18.2418 31.7034 18.2432 31.7031 18.2451C31.7024 18.249 31.7015 18.2547 31.7002 18.2622C31.6976 18.2773 31.6937 18.2998 31.6886 18.3291C31.6786 18.3878 31.6637 18.4739 31.6448 18.5839C31.6069 18.8038 31.5526 19.119 31.4868 19.5001C31.3553 20.2623 31.1781 21.2878 30.9953 22.3415C30.6276 24.4604 30.2424 26.6618 30.1554 27.0963L32.1165 27.489ZM33.299 19.2018L37.7213 15.803L36.5026 14.2172L32.0802 17.616L33.299 19.2018ZM36.1345 14.7991C35.4013 18.1959 34.6575 21.913 34.4149 23.1853L36.3795 23.56C36.619 22.3042 37.3595 18.6029 38.0894 15.2211L36.1345 14.7991ZM34.4157 23.1809C33.9071 25.7849 35.2332 27.7419 36.0681 28.9987L37.734 27.892C36.8642 26.5827 36.045 25.2724 36.3786 23.5643L34.4157 23.1809ZM36.0678 28.9982C36.1845 29.1741 36.3631 29.4252 36.5931 29.7487L38.2233 28.59C37.9833 28.2525 37.8287 28.0346 37.7344 27.8925L36.0678 28.9982ZM36.5931 29.7487C37.3413 30.8014 38.7885 32.8373 41.1739 36.5414L42.8554 35.4586C40.4481 31.7205 38.9823 29.658 38.2233 28.59L36.5931 29.7487ZM41.1739 36.5414C42.1158 38.004 41.5868 39.532 40.675 41.8413L42.5352 42.5758C43.3531 40.5044 44.445 37.9269 42.8554 35.4586L41.1739 36.5414ZM40.675 41.8413C39.9738 43.6172 39.0825 45.8073 39.5163 48.1799L41.4837 47.8201C41.1695 46.1018 41.7951 44.4504 42.5352 42.5758L40.675 41.8413ZM39.5163 48.1799C39.6507 48.9148 39.9074 49.5701 40.3449 50.076C40.7991 50.6012 41.389 50.8961 42.0442 50.9899C43.2611 51.1641 44.6738 50.6419 46.0808 49.8791L45.1276 48.1209C43.7678 48.8581 42.8569 49.0859 42.3277 49.0101C42.1099 48.9789 41.971 48.8988 41.8576 48.7677C41.7276 48.6174 41.5779 48.3352 41.4837 47.8201L39.5163 48.1799ZM46.6042 49C46.6042 47.554 47.0139 46.4036 47.5748 44.8615L45.6953 44.1779C45.1457 45.6888 44.6042 47.1533 44.6042 49H46.6042ZM47.5748 44.8615C47.6937 44.5345 47.8192 44.1896 47.9448 43.8278L46.0552 43.1722C45.9354 43.5178 45.8149 43.849 45.6953 44.1779L47.5748 44.8615ZM47 43.5C47.7903 44.1127 47.7906 44.1124 47.7909 44.112C47.791 44.1119 47.7913 44.1115 47.7915 44.1112C47.7919 44.1106 47.7924 44.11 47.793 44.1092C47.7941 44.1078 47.7954 44.1061 47.7969 44.1042C47.7998 44.1003 47.8036 44.0953 47.8081 44.0893C47.8171 44.0774 47.8292 44.0612 47.8439 44.0411C47.8733 44.0008 47.9136 43.9444 47.9624 43.8729C48.06 43.73 48.1923 43.5259 48.3405 43.2691C48.6357 42.7575 49.0006 42.0252 49.2768 41.1414C49.8304 39.3707 50.0433 36.9237 48.5421 34.477L46.8374 35.523C47.9428 37.3246 47.8109 39.1275 47.3679 40.5447C47.1459 41.2549 46.8496 41.8511 46.6082 42.2695C46.4881 42.4776 46.3832 42.6389 46.3107 42.7451C46.2745 42.7982 46.2465 42.8372 46.2289 42.8613C46.2201 42.8734 46.2139 42.8816 46.2106 42.886C46.209 42.8882 46.2081 42.8894 46.2079 42.8896C46.2078 42.8897 46.2079 42.8896 46.2082 42.8892C46.2084 42.889 46.2086 42.8888 46.2088 42.8884C46.2089 42.8883 46.2092 42.888 46.2092 42.8879C46.2095 42.8876 46.2097 42.8873 47 43.5ZM48.5421 34.477C47.223 32.3272 46.0176 30.2109 45.1412 28.6305C44.7033 27.8408 44.3481 27.1861 44.1027 26.7292C43.98 26.5008 43.8848 26.3219 43.8204 26.2005C43.7882 26.1398 43.7637 26.0934 43.7474 26.0624C43.7392 26.0469 43.7331 26.0352 43.729 26.0275C43.727 26.0237 43.7255 26.0208 43.7245 26.019C43.724 26.018 43.7237 26.0174 43.7234 26.0169C43.7233 26.0167 43.7232 26.0166 43.7232 26.0165C43.7232 26.0164 43.7232 26.0164 43.7232 26.0164C43.7232 26.0164 43.7232 26.0164 42.8374 26.4806C41.9516 26.9447 41.9517 26.9448 41.9517 26.9448C41.9517 26.9449 41.9518 26.945 41.9518 26.945C41.9519 26.9452 41.952 26.9454 41.9522 26.9457C41.9525 26.9463 41.9529 26.9472 41.9535 26.9483C41.9547 26.9505 41.9564 26.9537 41.9586 26.9579C41.963 26.9663 41.9695 26.9786 41.978 26.9949C41.9951 27.0273 42.0204 27.0751 42.0534 27.1373C42.1193 27.2618 42.2163 27.4439 42.3408 27.6757C42.5898 28.1392 42.9493 28.8019 43.3921 29.6005C44.2773 31.1966 45.498 33.3401 46.8374 35.523L48.5421 34.477ZM43.8168 26.6823L45.4794 18.6106L43.5206 18.2071L41.858 26.2788L43.8168 26.6823ZM44.5 18.4089C45.4942 18.3015 45.4942 18.3017 45.4943 18.302C45.4943 18.3021 45.4943 18.3023 45.4943 18.3025C45.4944 18.3028 45.4944 18.3031 45.4944 18.3034C45.4945 18.304 45.4945 18.3045 45.4946 18.305C45.4947 18.306 45.4948 18.3068 45.4948 18.3074C45.495 18.3086 45.495 18.3092 45.495 18.3092C45.495 18.3091 45.4948 18.3069 45.4945 18.3032C45.494 18.2948 45.4935 18.2842 45.4935 18.2745C45.4935 18.2627 45.4941 18.2649 45.4925 18.2789C45.492 18.2832 45.4851 18.351 45.4455 18.4447C45.4128 18.5219 45.2837 18.7916 44.9431 18.9255C44.5701 19.072 44.2658 18.9349 44.1609 18.8732C44.0594 18.8135 44.0202 18.7583 44.0441 18.7863C44.0596 18.8045 44.0967 18.8524 44.1572 18.9471L45.8428 17.8707C45.7528 17.7298 45.6615 17.601 45.5674 17.4903C45.4816 17.3895 45.3517 17.2533 45.1751 17.1494C44.9951 17.0435 44.6314 16.8991 44.2116 17.064C43.8241 17.2163 43.6607 17.5302 43.6032 17.6663C43.4919 17.9295 43.4933 18.2007 43.4935 18.2783C43.4936 18.3422 43.4964 18.3978 43.4991 18.4373C43.5004 18.4575 43.5018 18.4747 43.503 18.4879C43.5036 18.4946 43.5042 18.5003 43.5046 18.5051C43.5049 18.5074 43.5051 18.5096 43.5053 18.5114C43.5054 18.5124 43.5055 18.5133 43.5055 18.5141C43.5056 18.5145 43.5056 18.5149 43.5057 18.5152C43.5057 18.5154 43.5057 18.5157 43.5057 18.5158C43.5058 18.516 43.5058 18.5163 44.5 18.4089ZM45 18.4089C45.3725 19.3369 45.3723 19.337 45.3722 19.337C45.3722 19.3371 45.372 19.3371 45.372 19.3371C45.3718 19.3372 45.3717 19.3373 45.3716 19.3373C45.3714 19.3374 45.3713 19.3374 45.3714 19.3374C45.3714 19.3374 45.372 19.3371 45.3729 19.3368C45.3748 19.336 45.3784 19.3346 45.3836 19.3326C45.394 19.3286 45.4108 19.3221 45.4334 19.3136C45.4786 19.2967 45.5463 19.2721 45.6307 19.2434C45.8013 19.1854 46.032 19.1136 46.2796 19.0546C46.5322 18.9945 46.7737 18.9546 46.9729 18.9471C47.1951 18.9388 47.2477 18.9757 47.2121 18.9563L48.1675 17.1993C47.7358 16.9646 47.2543 16.9352 46.8979 16.9486C46.5185 16.9628 46.137 17.0326 45.8162 17.1091C45.4904 17.1867 45.1972 17.2784 44.9871 17.3498C44.8812 17.3858 44.7944 17.4173 44.7328 17.4404C44.7019 17.4519 44.6772 17.4614 44.6595 17.4683C44.6506 17.4717 44.6434 17.4746 44.638 17.4767C44.6354 17.4777 44.6331 17.4786 44.6314 17.4793C44.6305 17.4797 44.6297 17.48 44.6291 17.4802C44.6288 17.4804 44.6285 17.4805 44.6282 17.4806C44.6281 17.4806 44.6279 17.4807 44.6278 17.4807C44.6277 17.4808 44.6275 17.4809 45 18.4089ZM47.2086 18.9544C47.4002 19.0596 47.6046 19.1089 47.7423 19.1363C47.8986 19.1674 48.0708 19.189 48.2459 19.2049C48.5968 19.2368 49.0266 19.2515 49.4963 19.2566C50.4377 19.2669 51.6222 19.2389 52.8163 19.2108L52.7693 17.2114C51.5633 17.2397 50.4175 17.2665 49.5181 17.2567C49.0673 17.2518 48.6991 17.2378 48.4267 17.2131C48.2901 17.2007 48.1943 17.187 48.133 17.1748C48.053 17.1589 48.09 17.1567 48.171 17.2012L47.2086 18.9544ZM52.8163 19.2108C54.1507 19.1794 55.5014 19.1478 56.6078 19.1639C57.1615 19.172 57.6354 19.1918 58.005 19.2269C58.1896 19.2444 58.3355 19.2646 58.4451 19.2858C58.5639 19.3088 58.6 19.3255 58.5874 19.3198L59.4126 17.498C59.0644 17.3403 58.6005 17.2744 58.194 17.2358C57.7473 17.1934 57.2127 17.1725 56.6369 17.1641C55.4845 17.1474 54.0922 17.1803 52.7693 17.2114L52.8163 19.2108ZM58.5953 19.3233C59.2822 19.6274 60.1192 19.8723 60.9273 19.8523C61.7631 19.8316 62.6871 19.5105 63.2135 18.5637L61.4656 17.5918C61.3896 17.7284 61.2554 17.8436 60.8778 17.8529C60.4725 17.863 59.9409 17.7318 59.4047 17.4945L58.5953 19.3233ZM63.2085 18.5727C63.7069 17.6976 63.6168 16.7596 63.286 16.0277C62.9635 15.3139 62.3756 14.7006 61.6858 14.3823L60.8479 16.1983C61.0708 16.3011 61.325 16.5449 61.4634 16.8513C61.5937 17.1395 61.5835 17.3847 61.4706 17.5829L63.2085 18.5727ZM61.6773 14.3784C61.4552 14.2784 61.1553 14.198 60.8744 14.1319C60.5707 14.0604 60.2061 13.9872 59.8106 13.9147C59.0181 13.7694 58.065 13.6202 57.1523 13.4864C56.2379 13.3525 55.356 13.2328 54.7033 13.1467C54.3768 13.1037 54.1072 13.0689 53.919 13.045C53.8249 13.033 53.7512 13.0237 53.7009 13.0173C53.6757 13.0142 53.6564 13.0118 53.6433 13.0101C53.6367 13.0093 53.6317 13.0087 53.6284 13.0083C53.6267 13.008 53.6254 13.0079 53.6245 13.0078C53.6241 13.0077 53.6237 13.0077 53.6235 13.0077C53.6234 13.0076 53.6233 13.0076 53.6232 13.0076C53.6231 13.0076 53.6231 13.0076 53.5 14C53.3769 14.9924 53.3769 14.9924 53.3769 14.9924C53.377 14.9924 53.377 14.9924 53.3771 14.9924C53.3773 14.9924 53.3776 14.9925 53.378 14.9925C53.3787 14.9926 53.3799 14.9928 53.3814 14.993C53.3846 14.9933 53.3893 14.9939 53.3956 14.9947C53.4082 14.9963 53.4269 14.9986 53.4516 15.0017C53.5008 15.0079 53.5733 15.0171 53.6662 15.0289C53.8519 15.0526 54.1185 15.0869 54.4418 15.1295C55.0887 15.2149 55.9605 15.3332 56.8624 15.4653C57.7661 15.5977 58.692 15.7429 59.4499 15.8819C59.8294 15.9515 60.1579 16.0179 60.416 16.0786C60.5451 16.109 60.6498 16.1364 60.7308 16.1604C60.771 16.1722 60.802 16.1823 60.825 16.1904C60.8488 16.1987 60.858 16.2029 60.8564 16.2022L61.6773 14.3784ZM53.5 14C53.4763 13.0003 53.4765 13.0003 53.4766 13.0003C53.4767 13.0003 53.4768 13.0003 53.4768 13.0003C53.4769 13.0003 53.4769 13.0003 53.4767 13.0003C53.4765 13.0003 53.4758 13.0003 53.4747 13.0003C53.4726 13.0004 53.469 13.0004 53.4638 13.0005C53.4534 13.0007 53.4369 13.0009 53.4147 13.0012C53.3703 13.0016 53.3031 13.002 53.216 13.0015C53.0417 13.0005 52.7887 12.9963 52.4802 12.9829C51.8606 12.9561 51.03 12.8932 50.171 12.7505C49.304 12.6066 48.4534 12.3886 47.771 12.0718C47.0752 11.7488 46.6812 11.3831 46.5183 11.0158L44.69 11.8265C45.134 12.8279 46.0304 13.4688 46.9288 13.8859C47.8407 14.3092 48.8882 14.5649 49.8434 14.7235C50.8066 14.8834 51.7225 14.952 52.3937 14.981C52.7307 14.9956 53.0091 15.0004 53.205 15.0014C53.303 15.002 53.3806 15.0016 53.4346 15.0011C53.4617 15.0008 53.4829 15.0005 53.4978 15.0002C53.5053 15.0001 53.5112 15 53.5156 14.9999C53.5177 14.9999 53.5195 14.9998 53.5208 14.9998C53.5215 14.9998 53.5221 14.9998 53.5226 14.9997C53.5228 14.9997 53.5231 14.9997 53.5232 14.9997C53.5235 14.9997 53.5237 14.9997 53.5 14ZM46.5184 11.0159C46.1181 10.1132 45.7311 9.3786 45.3072 8.80686L43.7007 9.99815C43.995 10.3951 44.3119 10.9738 44.69 11.8265L46.5184 11.0159Z" fill="#57A8F1" mask="url(#path-3-inside-2)"/>
<path opacity="0.6" fill-rule="evenodd" clip-rule="evenodd" d="M44.5039 9.4025C45.6081 8.33111 46 6.0314 46 4.27761C46 1.91322 44.2107 0 42 0C39.7888 0 38 1.91322 38 4.27761C38 5.51177 38.7804 7.01629 39.841 8.17285H39.5079C38.63 8.17285 38.2137 8.56432 37.7944 8.95869C37.5866 9.15419 37.378 9.35041 37.1119 9.5L30.1337 14.8703C29.5414 15.2109 29.1605 15.7221 28.9307 16.4441L27.4765 26.1998C27.2662 27.7547 28.0884 28.4163 29.0207 28.6064C29.773 28.767 30.9055 28.3861 31.1359 27.2927C31.3166 26.3905 32.6896 18.4089 32.6896 18.4089L37.1119 15.0101C36.3804 18.3994 35.6382 22.1086 35.3972 23.3726C35.1743 24.5137 35.3698 25.5085 35.7297 26.3824C36.0498 27.1597 36.4998 27.8414 36.9011 28.4453C37.0066 28.6044 37.1732 28.8388 37.4081 29.1693L37.4082 29.1694C38.1618 30.2297 39.6183 32.2789 42.0147 36C42.2874 36.4235 42.4637 36.851 42.5639 37.283C44.0828 39.6498 45.6371 42.0611 46.8524 43.9185C46.9015 43.7812 46.9508 43.6419 47 43.5C47 43.5 50.2964 39.2482 47.6898 35C45.0313 30.6673 42.8374 26.4806 42.8374 26.4806L44.5 18.4089C44.5 18.4089 44.3982 17.4665 45 18.4089C45 18.4089 46.8978 17.6472 47.6898 18.0778C47.8427 18.1618 48.2131 18.2103 48.7313 18.2356C47.9958 16.6594 46.4949 13.4301 45.6042 11.4212C45.215 10.5435 44.8631 9.88684 44.5039 9.4025Z" fill="#57A8F1"/>
<mask id="path-6-inside-3" fill="white">
<path fill-rule="evenodd" clip-rule="evenodd" d="M46 64.2776C46 66.0314 45.6081 68.3311 44.5039 69.4025C44.8631 69.8868 45.215 70.5435 45.6042 71.4212C46.8179 74.1583 49.1641 79.1612 49.1641 79.1612C49.1641 79.1612 55.7816 82.4498 56.7844 82.9011C57.6972 83.3223 58.4684 84.6153 57.8571 85.6886C57.2547 86.772 55.7407 86.5611 54.5175 86.0197C53.1445 85.3978 48.6221 83.3424 47.6898 82.8306C46.8978 82.4 46.5963 82.2199 46.3061 81.7781C45.7043 80.8357 44.5315 79.1612 44.5315 79.1612L42.8374 86.4806C42.8374 86.4806 52.9343 102.902 53.786 104.357C54.6378 105.812 54.8984 107.777 53.3548 108.639C51.5204 109.662 50.3162 108.81 48.9935 107.095C48.0501 105.864 42.6241 97.3842 39.354 92.27C39.08 93.0428 38.7017 94.1185 38.3357 95.159C37.7777 96.7454 37.2486 98.2497 37.1627 98.4724C36.8914 99.1346 36.5509 99.7957 35.9289 100.588C35.5464 101.069 34.764 102.131 33.9181 103.279C32.702 104.929 31.3547 106.758 30.8757 107.296C30.8453 107.33 30.8142 107.366 30.7826 107.402C29.8985 108.411 28.5609 109.938 26.9054 108.69C25.3807 107.537 26.053 105.952 26.945 104.649C28.1285 102.925 32.3998 96.7481 32.3998 96.7481L35.7297 86.3824C35.3698 85.5085 35.1743 84.5137 35.3972 83.3726C35.6382 82.1086 36.3804 78.3994 37.1119 75.0101L32.6896 78.4089C32.6896 78.4089 31.3166 86.3905 31.1359 87.2927C30.9055 88.3861 29.773 88.767 29.0207 88.6064C28.0884 88.4163 27.2663 87.7547 27.4765 86.1998L28.9307 76.4441C29.1605 75.7221 29.5414 75.2109 30.1337 74.8703L37.1119 69.5C37.378 69.3504 37.5866 69.1542 37.7944 68.9587C38.2137 68.5643 38.63 68.1729 39.5079 68.1729H39.841C38.7805 67.0163 38 65.5118 38 64.2776C38 61.9132 39.7889 60 42 60C44.2107 60 46 61.9132 46 64.2776Z"/>
</mask>
<path fill-rule="evenodd" clip-rule="evenodd" d="M46 64.2776C46 66.0314 45.6081 68.3311 44.5039 69.4025C44.8631 69.8868 45.215 70.5435 45.6042 71.4212C46.8179 74.1583 49.1641 79.1612 49.1641 79.1612C49.1641 79.1612 55.7816 82.4498 56.7844 82.9011C57.6972 83.3223 58.4684 84.6153 57.8571 85.6886C57.2547 86.772 55.7407 86.5611 54.5175 86.0197C53.1445 85.3978 48.6221 83.3424 47.6898 82.8306C46.8978 82.4 46.5963 82.2199 46.3061 81.7781C45.7043 80.8357 44.5315 79.1612 44.5315 79.1612L42.8374 86.4806C42.8374 86.4806 52.9343 102.902 53.786 104.357C54.6378 105.812 54.8984 107.777 53.3548 108.639C51.5204 109.662 50.3162 108.81 48.9935 107.095C48.0501 105.864 42.6241 97.3842 39.354 92.27C39.08 93.0428 38.7017 94.1185 38.3357 95.159C37.7777 96.7454 37.2486 98.2497 37.1627 98.4724C36.8914 99.1346 36.5509 99.7957 35.9289 100.588C35.5464 101.069 34.764 102.131 33.9181 103.279C32.702 104.929 31.3547 106.758 30.8757 107.296C30.8453 107.33 30.8142 107.366 30.7826 107.402C29.8985 108.411 28.5609 109.938 26.9054 108.69C25.3807 107.537 26.053 105.952 26.945 104.649C28.1285 102.925 32.3998 96.7481 32.3998 96.7481L35.7297 86.3824C35.3698 85.5085 35.1743 84.5137 35.3972 83.3726C35.6382 82.1086 36.3804 78.3994 37.1119 75.0101L32.6896 78.4089C32.6896 78.4089 31.3166 86.3905 31.1359 87.2927C30.9055 88.3861 29.773 88.767 29.0207 88.6064C28.0884 88.4163 27.2663 87.7547 27.4765 86.1998L28.9307 76.4441C29.1605 75.7221 29.5414 75.2109 30.1337 74.8703L37.1119 69.5C37.378 69.3504 37.5866 69.1542 37.7944 68.9587C38.2137 68.5643 38.63 68.1729 39.5079 68.1729H39.841C38.7805 67.0163 38 65.5118 38 64.2776C38 61.9132 39.7889 60 42 60C44.2107 60 46 61.9132 46 64.2776Z" fill="#00D9C9" fill-opacity="0.3"/>
<path d="M44.5039 69.4025L43.8075 68.6848L43.179 69.2947L43.7007 69.9981L44.5039 69.4025ZM45.6042 71.4212L44.69 71.8265L44.69 71.8265L45.6042 71.4212ZM49.1641 79.1612L48.2587 79.5858L48.4068 79.9015L48.719 80.0567L49.1641 79.1612ZM56.7844 82.9011L57.2034 81.9931L57.1948 81.9892L56.7844 82.9011ZM57.8571 85.6886L56.9881 85.1937L56.9831 85.2027L57.8571 85.6886ZM54.5175 86.0197L54.1049 86.9307L54.1128 86.9342L54.5175 86.0197ZM47.6898 82.8306L48.171 81.954L48.1675 81.9521L47.6898 82.8306ZM46.3061 81.7781L45.4632 82.3163L45.4703 82.3271L46.3061 81.7781ZM44.5315 79.1612L45.3505 78.5875L44.0632 76.7495L43.5572 78.9357L44.5315 79.1612ZM42.8374 86.4806L41.8632 86.2551L41.7706 86.6548L41.9855 87.0043L42.8374 86.4806ZM53.3548 108.639L53.8418 109.512L53.8426 109.512L53.3548 108.639ZM48.9935 107.095L48.1999 107.703L48.2016 107.705L48.9935 107.095ZM39.354 92.27L40.1965 91.7313L39.0947 90.0083L38.4114 91.9359L39.354 92.27ZM38.3357 95.159L39.2791 95.4908H39.2791L38.3357 95.159ZM37.1627 98.4724L38.0881 98.8515L38.092 98.8419L38.0957 98.8323L37.1627 98.4724ZM35.9289 100.588L36.7119 101.21L36.7154 101.205L35.9289 100.588ZM33.9181 103.279L33.1131 102.686H33.1131L33.9181 103.279ZM30.8757 107.296L30.1288 106.631L30.1249 106.635L30.8757 107.296ZM30.7826 107.402L30.0304 106.743L30.0303 106.743L30.7826 107.402ZM26.9054 108.69L26.3021 109.488L26.3033 109.489L26.9054 108.69ZM26.945 104.649L26.1206 104.083L26.1199 104.084L26.945 104.649ZM32.3998 96.7481L33.2223 97.3169L33.3066 97.195L33.3519 97.054L32.3998 96.7481ZM35.7297 86.3824L36.6818 86.6882L36.7937 86.3399L36.6543 86.0016L35.7297 86.3824ZM35.3972 83.3726L36.3786 83.5643L36.3795 83.56L35.3972 83.3726ZM37.1119 75.0101L38.0894 75.2211L38.6648 72.5555L36.5026 74.2172L37.1119 75.0101ZM32.6896 78.4089L32.0802 77.616L31.7704 77.8542L31.7041 78.2394L32.6896 78.4089ZM31.1359 87.2927L32.1145 87.4989L32.1165 87.489L31.1359 87.2927ZM29.0207 88.6064L29.2294 87.6284L29.2206 87.6266L29.0207 88.6064ZM27.4765 86.1998L26.4874 86.0524L26.4855 86.0658L27.4765 86.1998ZM28.9307 76.4441L27.9778 76.1408L27.9535 76.2173L27.9416 76.2967L28.9307 76.4441ZM30.1337 74.8703L30.6322 75.7372L30.6904 75.7038L30.7436 75.6628L30.1337 74.8703ZM37.1119 69.5L36.6218 68.6284L36.5591 68.6636L36.5021 68.7075L37.1119 69.5ZM37.7944 68.9587L37.1093 68.2303L37.1093 68.2303L37.7944 68.9587ZM39.841 68.1729V69.1729H42.1149L40.5781 67.497L39.841 68.1729ZM45.2003 70.1202C45.9468 69.3959 46.3808 68.3427 46.6352 67.3424C46.8955 66.3186 47 65.2203 47 64.2776H45C45 65.0887 44.9085 66.0172 44.6969 66.8495C44.4792 67.7054 44.1652 68.3378 43.8075 68.6848L45.2003 70.1202ZM46.5184 71.0159C46.1181 70.1132 45.7311 69.3786 45.3072 68.8069L43.7007 69.9981C43.995 70.3951 44.3119 70.9738 44.69 71.8265L46.5184 71.0159ZM49.1641 79.1612C50.0695 78.7365 50.0694 78.7365 50.0694 78.7365C50.0694 78.7365 50.0694 78.7364 50.0694 78.7363C50.0693 78.7362 50.0692 78.736 50.069 78.7357C50.0688 78.7351 50.0683 78.7342 50.0678 78.733C50.0667 78.7306 50.065 78.727 50.0628 78.7223C50.0583 78.7128 50.0517 78.6986 50.043 78.68C50.0255 78.6428 49.9998 78.5879 49.9666 78.517C49.9002 78.3751 49.8039 78.1692 49.6846 77.9137C49.446 77.4025 49.1152 76.6925 48.7465 75.8971C48.0084 74.3044 47.1215 72.3761 46.5183 71.0158L44.69 71.8265C45.3006 73.2034 46.1936 75.1451 46.932 76.7381C47.3016 77.5356 47.6332 78.2473 47.8724 78.7597C47.992 79.0159 48.0885 79.2223 48.1552 79.3647C48.1885 79.4359 48.2144 79.4911 48.2319 79.5286C48.2407 79.5473 48.2473 79.5616 48.2519 79.5712C48.2541 79.576 48.2558 79.5796 48.257 79.582C48.2575 79.5833 48.258 79.5842 48.2582 79.5848C48.2584 79.5851 48.2585 79.5853 48.2586 79.5855C48.2586 79.5856 48.2586 79.5856 48.2587 79.5857C48.2587 79.5857 48.2587 79.5858 49.1641 79.1612ZM57.1948 81.9892C56.7144 81.773 54.8321 80.8495 53.0408 79.9652C52.1517 79.5262 51.2937 79.1013 50.6579 78.7861C50.3401 78.6285 50.0778 78.4984 49.8951 78.4076C49.8037 78.3623 49.7322 78.3268 49.6835 78.3026C49.6592 78.2905 49.6406 78.2813 49.628 78.275C49.6218 78.2719 49.617 78.2696 49.6139 78.268C49.6123 78.2672 49.6111 78.2666 49.6103 78.2662C49.6099 78.266 49.6096 78.2659 49.6094 78.2658C49.6093 78.2657 49.6092 78.2657 49.6092 78.2657C49.6091 78.2656 49.6091 78.2656 49.1641 79.1612C48.719 80.0567 48.7191 80.0567 48.7191 80.0567C48.7192 80.0567 48.7193 80.0568 48.7194 80.0568C48.7196 80.0569 48.7199 80.0571 48.7203 80.0573C48.7211 80.0577 48.7223 80.0583 48.7239 80.0591C48.7271 80.0607 48.7318 80.063 48.7381 80.0662C48.7507 80.0724 48.7694 80.0817 48.7938 80.0938C48.8425 80.118 48.9142 80.1536 49.0057 80.199C49.1887 80.2899 49.4513 80.4202 49.7695 80.578C50.4059 80.8935 51.265 81.3189 52.1555 81.7586C53.9237 82.6314 55.8515 83.5779 56.374 83.813L57.1948 81.9892ZM58.7261 86.1835C59.2244 85.3084 59.1343 84.3705 58.8036 83.6385C58.481 82.9247 57.8932 82.3114 57.2033 81.9931L56.3654 83.8091C56.5884 83.912 56.8426 84.1557 56.981 84.4621C57.1112 84.7503 57.101 84.9955 56.9881 85.1937L58.7261 86.1835ZM54.1128 86.9342C54.7998 87.2382 55.6367 87.4832 56.4449 87.4632C57.2807 87.4425 58.2046 87.1214 58.7311 86.1746L56.9831 85.2027C56.9072 85.3392 56.7729 85.4544 56.3953 85.4638C55.9901 85.4738 55.4585 85.3426 54.9223 85.1053L54.1128 86.9342ZM47.2086 83.7072C48.1849 84.2432 52.7611 86.3219 54.1049 86.9306L54.9302 85.1088C53.5279 84.4736 49.0593 82.4417 48.171 81.954L47.2086 83.7072ZM45.4703 82.3271C45.9165 83.0065 46.4411 83.2899 47.2121 83.7092L48.1675 81.9521C47.758 81.7294 47.5468 81.6087 47.4002 81.5014C47.2867 81.4184 47.2217 81.3505 47.1419 81.2291L45.4703 82.3271ZM44.5315 79.1612C43.7124 79.7348 43.7124 79.7348 43.7124 79.7348C43.7124 79.7348 43.7124 79.7348 43.7124 79.7349C43.7124 79.7349 43.7125 79.735 43.7125 79.7351C43.7127 79.7352 43.7129 79.7355 43.7131 79.7359C43.7137 79.7367 43.7145 79.7378 43.7156 79.7394C43.7177 79.7424 43.721 79.7471 43.7253 79.7532C43.7339 79.7655 43.7466 79.7837 43.763 79.8073C43.7959 79.8545 43.8437 79.923 43.903 80.0083C44.0216 80.1789 44.1859 80.416 44.3688 80.6824C44.737 81.2184 45.1722 81.8605 45.4633 82.3163L47.1489 81.2399C46.8381 80.7532 46.3861 80.0869 46.0174 79.5501C45.8319 79.2799 45.6654 79.0396 45.5452 78.8668C45.4852 78.7803 45.4366 78.7107 45.403 78.6626C45.3862 78.6385 45.3732 78.6199 45.3643 78.6071C45.3599 78.6008 45.3565 78.5959 45.3541 78.5926C45.353 78.591 45.3521 78.5897 45.3515 78.5888C45.3512 78.5884 45.351 78.5881 45.3508 78.5879C45.3507 78.5877 45.3507 78.5877 45.3506 78.5876C45.3506 78.5876 45.3506 78.5875 45.3506 78.5875C45.3506 78.5875 45.3505 78.5875 44.5315 79.1612ZM43.8117 86.7061L45.5057 79.3866L43.5572 78.9357L41.8632 86.2551L43.8117 86.7061ZM54.649 103.852C54.2162 103.113 51.4703 98.6293 48.8446 94.3503C47.5292 92.2064 46.2403 90.1081 45.2804 88.5457C44.8004 87.7645 44.4026 87.1173 44.1248 86.6654C43.986 86.4394 43.8771 86.2623 43.8029 86.1416C43.7658 86.0813 43.7374 86.0351 43.7183 86.004C43.7087 85.9884 43.7015 85.9766 43.6966 85.9687C43.6942 85.9648 43.6923 85.9618 43.6911 85.9598C43.6905 85.9588 43.69 85.9581 43.6897 85.9576C43.6896 85.9573 43.6895 85.9571 43.6894 85.957C43.6893 85.9569 43.6893 85.9568 42.8374 86.4806C41.9855 87.0043 41.9856 87.0044 41.9857 87.0045C41.9857 87.0046 41.9858 87.0048 41.986 87.0051C41.9863 87.0056 41.9868 87.0063 41.9874 87.0073C41.9886 87.0093 41.9904 87.0123 41.9929 87.0162C41.9977 87.0241 42.005 87.0359 42.0145 87.0515C42.0336 87.0826 42.062 87.1288 42.0991 87.1891C42.1733 87.3097 42.2821 87.4868 42.421 87.7127C42.6987 88.1645 43.0964 88.8116 43.5763 89.5927C44.5361 91.1549 45.8248 93.2529 47.14 95.3963C49.7757 99.6918 52.5041 104.147 52.9231 104.862L54.649 103.852ZM53.8426 109.512C54.979 108.877 55.4393 107.81 55.4683 106.747C55.4961 105.73 55.1402 104.691 54.649 103.852L52.9231 104.862C53.2837 105.478 53.4839 106.149 53.4691 106.693C53.4554 107.192 53.2742 107.539 52.8671 107.766L53.8426 109.512ZM48.2016 107.705C48.8784 108.583 49.6412 109.405 50.5868 109.812C51.6246 110.259 52.7126 110.142 53.8418 109.512L52.8678 107.766C52.1626 108.159 51.7312 108.128 51.3776 107.975C50.9318 107.783 50.4313 107.322 49.7854 106.484L48.2016 107.705ZM38.5115 92.8087C41.7579 97.8859 47.2221 106.428 48.1999 107.703L49.7871 106.486C48.878 105.301 43.4902 96.8825 40.1965 91.7313L38.5115 92.8087ZM39.2791 95.4908C39.6452 94.4499 40.0231 93.3755 40.2965 92.6041L38.4114 91.9359C38.137 92.7101 37.7582 93.7872 37.3924 94.8272L39.2791 95.4908ZM38.0957 98.8323C38.1888 98.591 38.7265 97.0618 39.2791 95.4908L37.3924 94.8272C36.829 96.429 36.3085 97.9083 36.2297 98.1125L38.0957 98.8323ZM36.7154 101.205C37.4035 100.329 37.7878 99.5845 38.0881 98.8515L36.2374 98.0933C35.9951 98.6848 35.6982 99.2623 35.1424 99.97L36.7154 101.205ZM34.7232 103.872C35.5764 102.714 36.3439 101.673 36.7119 101.21L35.146 99.9655C34.7489 100.465 33.9517 101.548 33.1131 102.686L34.7232 103.872ZM31.6226 107.961C32.1418 107.378 33.53 105.491 34.7232 103.872L33.1131 102.686C31.8741 104.367 30.5676 106.138 30.1288 106.631L31.6226 107.961ZM31.5348 108.061C31.5666 108.025 31.597 107.99 31.6266 107.956L30.1249 106.635C30.0936 106.671 30.0618 106.707 30.0304 106.743L31.5348 108.061ZM26.3033 109.489C26.8529 109.903 27.4371 110.129 28.0407 110.156C28.6371 110.183 29.1665 110.011 29.6083 109.773C30.4475 109.32 31.1196 108.535 31.5348 108.061L30.0303 106.743C29.5615 107.278 29.1227 107.762 28.6582 108.013C28.4481 108.126 28.2775 108.165 28.1299 108.158C27.9895 108.152 27.7856 108.101 27.5074 107.892L26.3033 109.489ZM26.1199 104.084C25.653 104.766 25.1469 105.652 25.0269 106.6C24.9644 107.094 25.0041 107.62 25.2193 108.139C25.4348 108.658 25.8015 109.109 26.3021 109.488L27.5086 107.893C27.2469 107.695 27.1259 107.515 27.0665 107.372C27.0068 107.228 26.9845 107.061 27.011 106.851C27.069 106.394 27.345 105.835 27.7702 105.214L26.1199 104.084ZM32.3998 96.7481C31.5773 96.1794 31.5773 96.1794 31.5773 96.1794C31.5772 96.1795 31.5772 96.1796 31.5771 96.1796C31.577 96.1798 31.5768 96.1801 31.5765 96.1805C31.576 96.1812 31.5752 96.1824 31.5742 96.1838C31.5721 96.1868 31.5691 96.1913 31.565 96.1971C31.5569 96.2089 31.5448 96.2263 31.529 96.2492C31.4975 96.2948 31.451 96.3621 31.3914 96.4482C31.2723 96.6205 31.1008 96.8685 30.8913 97.1716C30.4724 97.7776 29.9014 98.6037 29.2935 99.4837C28.0781 101.243 26.7134 103.22 26.1206 104.083L27.7695 105.215C28.3602 104.355 29.7229 102.381 30.939 100.62C31.5468 99.7407 32.1176 98.9148 32.5365 98.3088C32.746 98.0058 32.9174 97.7579 33.0365 97.5856C33.096 97.4995 33.1425 97.4323 33.1741 97.3867C33.1899 97.3638 33.2019 97.3464 33.21 97.3346C33.2141 97.3288 33.2172 97.3243 33.2192 97.3214C33.2202 97.3199 33.221 97.3188 33.2215 97.318C33.2218 97.3176 33.222 97.3174 33.2221 97.3172C33.2222 97.3171 33.2222 97.317 33.2223 97.317C33.2223 97.3169 33.2223 97.3169 32.3998 96.7481ZM34.7776 86.0766L31.4477 96.4423L33.3519 97.054L36.6818 86.6882L34.7776 86.0766ZM34.4157 83.1809C34.1471 84.556 34.3886 85.7519 34.805 86.7632L36.6543 86.0016C36.3511 85.2651 36.2014 84.4715 36.3786 83.5643L34.4157 83.1809ZM36.1345 74.7991C35.4013 78.1959 34.6575 81.913 34.4149 83.1853L36.3795 83.56C36.619 82.3042 37.3595 78.6029 38.0894 75.2211L36.1345 74.7991ZM33.299 79.2018L37.7213 75.803L36.5026 74.2172L32.0802 77.616L33.299 79.2018ZM32.1165 87.489C32.2101 87.0214 32.6018 84.7809 32.9658 82.6835C33.1488 81.629 33.3261 80.6027 33.4577 79.8402C33.5235 79.4589 33.5778 79.1435 33.6158 78.9234C33.6347 78.8133 33.6496 78.7271 33.6597 78.6684C33.6647 78.639 33.6686 78.6165 33.6712 78.6014C33.6725 78.5938 33.6735 78.5881 33.6741 78.5842C33.6745 78.5823 33.6747 78.5809 33.6749 78.5799C33.675 78.5794 33.675 78.579 33.6751 78.5788C33.6751 78.5787 33.6751 78.5786 33.6751 78.5785C33.6751 78.5785 33.6751 78.5784 32.6896 78.4089C31.7041 78.2394 31.7041 78.2394 31.7041 78.2395C31.7041 78.2395 31.7041 78.2396 31.704 78.2397C31.704 78.24 31.7039 78.2403 31.7038 78.2408C31.7037 78.2418 31.7034 78.2432 31.7031 78.2451C31.7024 78.249 31.7015 78.2547 31.7002 78.2622C31.6976 78.2773 31.6937 78.2998 31.6886 78.3291C31.6786 78.3878 31.6637 78.4739 31.6448 78.5839C31.6069 78.8038 31.5526 79.119 31.4868 79.5001C31.3553 80.2623 31.1781 81.2878 30.9953 82.3415C30.6276 84.4604 30.2424 86.6618 30.1554 87.0963L32.1165 87.489ZM28.812 89.5844C29.4212 89.7144 30.1293 89.6232 30.7366 89.3063C31.3693 88.9762 31.9292 88.3779 32.1144 87.4988L30.1574 87.0865C30.1122 87.3009 29.9907 87.4397 29.8114 87.5332C29.6068 87.64 29.3726 87.659 29.2294 87.6285L28.812 89.5844ZM26.4855 86.0658C26.3539 87.0389 26.5311 87.8809 27.0283 88.5256C27.5137 89.155 28.1991 89.4595 28.8209 89.5863L29.2206 87.6266C28.9101 87.5633 28.7182 87.4419 28.612 87.3042C28.5177 87.1818 28.3888 86.9156 28.4675 86.3338L26.4855 86.0658ZM27.9416 76.2967L26.4875 86.0524L28.4656 86.3472L29.9198 76.5916L27.9416 76.2967ZM29.6352 74.0034C28.7919 74.4884 28.2704 75.2216 27.9778 76.1408L29.8836 76.7474C30.0507 76.2226 30.2909 75.9335 30.6322 75.7372L29.6352 74.0034ZM36.5021 68.7075L29.5238 74.0778L30.7436 75.6628L37.7218 70.2925L36.5021 68.7075ZM37.1093 68.2303C36.8904 68.4362 36.7656 68.5475 36.6218 68.6284L37.6021 70.3716C37.9903 70.1533 38.2827 69.8722 38.4796 69.6871L37.1093 68.2303ZM39.5079 67.1729C38.9055 67.1729 38.4147 67.3109 37.9954 67.5427C37.6026 67.7598 37.3071 68.0443 37.1093 68.2303L38.4796 69.6871C38.7011 69.4787 38.8234 69.3702 38.963 69.2931C39.0761 69.2305 39.2324 69.1729 39.5079 69.1729V67.1729ZM39.841 67.1729H39.5079V69.1729H39.841V67.1729ZM37 64.2776C37 65.8656 37.9606 67.6018 39.104 68.8487L40.5781 67.497C39.6003 66.4308 39 65.1579 39 64.2776H37ZM42 59C39.1744 59 37 61.4252 37 64.2776H39C39 62.4012 40.4033 61 42 61V59ZM47 64.2776C47 61.4252 44.8251 59 42 59V61C43.5963 61 45 62.4013 45 64.2776H47Z" fill="#00D9C9" mask="url(#path-6-inside-3)"/>
<mask id="path-8-inside-4" fill="white">
<path fill-rule="evenodd" clip-rule="evenodd" d="M44.5039 69.4025C45.6081 68.3311 46 66.0314 46 64.2776C46 61.9132 44.2107 60 42 60C39.7889 60 38 61.9132 38 64.2776C38 65.5118 38.7805 67.0163 39.841 68.1729H39.5079C38.63 68.1729 38.2137 68.5643 37.7944 68.9587C37.5866 69.1542 37.378 69.3504 37.1119 69.5L30.1337 74.8703C29.5414 75.2109 29.1605 75.7221 28.9307 76.4441L27.4765 86.1998C27.2663 87.7547 28.0884 88.4163 29.0207 88.6064C29.773 88.767 30.9055 88.3861 31.1359 87.2927C31.3166 86.3905 32.6896 78.4089 32.6896 78.4089L37.1119 75.0101C36.3804 78.3994 35.6382 82.1086 35.3972 83.3726C34.976 85.5287 36.0487 87.1623 36.9011 88.4453C37.0066 88.6044 37.1732 88.8388 37.4082 89.1694C38.1618 90.2297 39.6183 92.2789 42.0147 96C43.2804 97.9655 42.4699 100.018 41.6051 102.209C40.8844 104.034 40.126 105.955 40.5 108C40.9571 110.5 42.8374 110.5 45.6042 109C45.6042 107.354 46.0798 106.046 46.635 104.52C46.7543 104.192 46.8773 103.854 47 103.5C47 103.5 50.2964 99.2482 47.6898 95C45.0313 90.6673 42.8374 86.4806 42.8374 86.4806L44.5 78.4089C44.5 78.4089 44.3982 77.4665 45 78.4089C45 78.4089 46.8978 77.6472 47.6898 78.0778C48.1322 78.3207 50.3927 78.2675 52.7928 78.2111C55.4501 78.1486 58.2786 78.0821 59 78.4089C60.2232 78.9503 61.7372 79.1612 62.3396 78.0778C62.9508 77.0045 62.1796 75.7114 61.2668 75.2903C60.264 74.8389 53.5 74 53.5 74C53.5 74 46.8179 74.1583 45.6042 71.4212C45.215 70.5435 44.8631 69.8868 44.5039 69.4025Z"/>
</mask>
<path fill-rule="evenodd" clip-rule="evenodd" d="M44.5039 69.4025C45.6081 68.3311 46 66.0314 46 64.2776C46 61.9132 44.2107 60 42 60C39.7889 60 38 61.9132 38 64.2776C38 65.5118 38.7805 67.0163 39.841 68.1729H39.5079C38.63 68.1729 38.2137 68.5643 37.7944 68.9587C37.5866 69.1542 37.378 69.3504 37.1119 69.5L30.1337 74.8703C29.5414 75.2109 29.1605 75.7221 28.9307 76.4441L27.4765 86.1998C27.2663 87.7547 28.0884 88.4163 29.0207 88.6064C29.773 88.767 30.9055 88.3861 31.1359 87.2927C31.3166 86.3905 32.6896 78.4089 32.6896 78.4089L37.1119 75.0101C36.3804 78.3994 35.6382 82.1086 35.3972 83.3726C34.976 85.5287 36.0487 87.1623 36.9011 88.4453C37.0066 88.6044 37.1732 88.8388 37.4082 89.1694C38.1618 90.2297 39.6183 92.2789 42.0147 96C43.2804 97.9655 42.4699 100.018 41.6051 102.209C40.8844 104.034 40.126 105.955 40.5 108C40.9571 110.5 42.8374 110.5 45.6042 109C45.6042 107.354 46.0798 106.046 46.635 104.52C46.7543 104.192 46.8773 103.854 47 103.5C47 103.5 50.2964 99.2482 47.6898 95C45.0313 90.6673 42.8374 86.4806 42.8374 86.4806L44.5 78.4089C44.5 78.4089 44.3982 77.4665 45 78.4089C45 78.4089 46.8978 77.6472 47.6898 78.0778C48.1322 78.3207 50.3927 78.2675 52.7928 78.2111C55.4501 78.1486 58.2786 78.0821 59 78.4089C60.2232 78.9503 61.7372 79.1612 62.3396 78.0778C62.9508 77.0045 62.1796 75.7114 61.2668 75.2903C60.264 74.8389 53.5 74 53.5 74C53.5 74 46.8179 74.1583 45.6042 71.4212C45.215 70.5435 44.8631 69.8868 44.5039 69.4025Z" fill="#00D9C9" fill-opacity="0.3"/>
<path d="M44.5039 69.4025L43.8075 68.6848L43.179 69.2947L43.7007 69.9981L44.5039 69.4025ZM39.841 68.1729V69.1729H42.1149L40.5781 67.497L39.841 68.1729ZM37.7944 68.9587L37.1093 68.2303L37.1093 68.2303L37.7944 68.9587ZM37.1119 69.5L36.6218 68.6284L36.5591 68.6636L36.5021 68.7075L37.1119 69.5ZM30.1337 74.8703L30.6322 75.7372L30.6904 75.7038L30.7436 75.6628L30.1337 74.8703ZM28.9307 76.4441L27.9778 76.1408L27.9535 76.2173L27.9416 76.2967L28.9307 76.4441ZM27.4765 86.1998L26.4874 86.0524L26.4855 86.0658L27.4765 86.1998ZM29.0207 88.6064L29.2294 87.6284L29.2206 87.6266L29.0207 88.6064ZM31.1359 87.2927L32.1145 87.4989L32.1165 87.489L31.1359 87.2927ZM32.6896 78.4089L32.0802 77.616L31.7704 77.8542L31.7041 78.2394L32.6896 78.4089ZM37.1119 75.0101L38.0894 75.2211L38.6648 72.5555L36.5026 74.2172L37.1119 75.0101ZM35.3972 83.3726L36.3786 83.5643L36.3795 83.56L35.3972 83.3726ZM36.9011 88.4453L37.7344 87.8925L37.734 87.892L36.9011 88.4453ZM37.4082 89.1694L36.5931 89.7487V89.7487L37.4082 89.1694ZM42.0147 96L41.1739 96.5414H41.1739L42.0147 96ZM41.6051 102.209L42.5352 102.576L41.6051 102.209ZM40.5 108L41.4837 107.82L40.5 108ZM45.6042 109L46.0808 109.879L46.6042 109.595V109H45.6042ZM46.635 104.52L47.5748 104.862L47.5748 104.862L46.635 104.52ZM47 103.5L46.2097 102.887L46.1091 103.017L46.0552 103.172L47 103.5ZM47.6898 95L48.5421 94.477L47.6898 95ZM42.8374 86.4806L41.858 86.2788L41.7859 86.6285L41.9516 86.9447L42.8374 86.4806ZM44.5 78.4089L45.4794 78.6106L45.511 78.4572L45.4942 78.3015L44.5 78.4089ZM45 78.4089L44.1572 78.9471L44.6033 79.6457L45.3725 79.3369L45 78.4089ZM47.6898 78.0778L48.171 77.2012L48.1675 77.1993L47.6898 78.0778ZM52.7928 78.2111L52.8163 79.2108L52.7928 78.2111ZM59 78.4089L58.5874 79.3198L58.5953 79.3233L59 78.4089ZM62.3396 78.0778L61.4706 77.5829L61.4656 77.5918L62.3396 78.0778ZM61.2668 75.2903L61.6858 74.3822L61.6773 74.3784L61.2668 75.2903ZM53.5 74L53.6231 73.0076L53.55 72.9985L53.4763 73.0003L53.5 74ZM45.6042 71.4212L44.69 71.8265L44.69 71.8265L45.6042 71.4212ZM45 64.2776C45 65.0887 44.9085 66.0172 44.6969 66.8495C44.4792 67.7054 44.1652 68.3378 43.8075 68.6848L45.2003 70.1202C45.9468 69.3959 46.3808 68.3427 46.6352 67.3424C46.8955 66.3186 47 65.2203 47 64.2776H45ZM42 61C43.5963 61 45 62.4013 45 64.2776H47C47 61.4252 44.8251 59 42 59V61ZM39 64.2776C39 62.4012 40.4033 61 42 61V59C39.1744 59 37 61.4252 37 64.2776H39ZM40.5781 67.497C39.6003 66.4308 39 65.1579 39 64.2776H37C37 65.8656 37.9606 67.6018 39.104 68.8487L40.5781 67.497ZM39.841 67.1729H39.5079V69.1729H39.841V67.1729ZM39.5079 67.1729C38.9055 67.1729 38.4147 67.3109 37.9954 67.5427C37.6026 67.7598 37.3071 68.0443 37.1093 68.2303L38.4796 69.6871C38.7011 69.4787 38.8234 69.3702 38.963 69.2931C39.0761 69.2305 39.2324 69.1729 39.5079 69.1729V67.1729ZM37.1093 68.2303C36.8904 68.4362 36.7656 68.5475 36.6218 68.6284L37.6021 70.3716C37.9903 70.1533 38.2827 69.8722 38.4796 69.6871L37.1093 68.2303ZM36.5021 68.7075L29.5238 74.0778L30.7436 75.6628L37.7218 70.2925L36.5021 68.7075ZM29.6352 74.0034C28.7919 74.4884 28.2704 75.2216 27.9778 76.1408L29.8836 76.7474C30.0507 76.2226 30.2909 75.9335 30.6322 75.7372L29.6352 74.0034ZM27.9416 76.2967L26.4875 86.0524L28.4656 86.3472L29.9198 76.5916L27.9416 76.2967ZM26.4855 86.0658C26.3539 87.0389 26.5311 87.8809 27.0283 88.5256C27.5137 89.155 28.1991 89.4595 28.8209 89.5863L29.2206 87.6266C28.9101 87.5633 28.7182 87.4419 28.612 87.3042C28.5177 87.1818 28.3888 86.9156 28.4675 86.3338L26.4855 86.0658ZM28.812 89.5844C29.4212 89.7144 30.1293 89.6232 30.7366 89.3063C31.3693 88.9762 31.9292 88.3779 32.1144 87.4988L30.1574 87.0865C30.1122 87.3009 29.9907 87.4397 29.8114 87.5332C29.6068 87.64 29.3726 87.659 29.2294 87.6285L28.812 89.5844ZM32.1165 87.489C32.2101 87.0214 32.6018 84.7809 32.9658 82.6835C33.1488 81.629 33.3261 80.6027 33.4577 79.8402C33.5235 79.4589 33.5778 79.1435 33.6158 78.9234C33.6347 78.8133 33.6496 78.7271 33.6597 78.6684C33.6647 78.639 33.6686 78.6165 33.6712 78.6014C33.6725 78.5938 33.6735 78.5881 33.6741 78.5842C33.6745 78.5823 33.6747 78.5809 33.6749 78.5799C33.675 78.5794 33.675 78.579 33.6751 78.5788C33.6751 78.5787 33.6751 78.5786 33.6751 78.5785C33.6751 78.5785 33.6751 78.5784 32.6896 78.4089C31.7041 78.2394 31.7041 78.2394 31.7041 78.2395C31.7041 78.2395 31.7041 78.2396 31.704 78.2397C31.704 78.24 31.7039 78.2403 31.7038 78.2408C31.7037 78.2418 31.7034 78.2432 31.7031 78.2451C31.7024 78.249 31.7015 78.2547 31.7002 78.2622C31.6976 78.2773 31.6937 78.2998 31.6886 78.3291C31.6786 78.3878 31.6637 78.4739 31.6448 78.5839C31.6069 78.8038 31.5526 79.119 31.4868 79.5001C31.3553 80.2623 31.1781 81.2878 30.9953 82.3415C30.6276 84.4604 30.2424 86.6618 30.1554 87.0963L32.1165 87.489ZM33.299 79.2018L37.7213 75.803L36.5026 74.2172L32.0802 77.616L33.299 79.2018ZM36.1345 74.7991C35.4013 78.1959 34.6575 81.913 34.4149 83.1853L36.3795 83.56C36.619 82.3042 37.3595 78.6029 38.0894 75.2211L36.1345 74.7991ZM34.4157 83.1809C33.9071 85.7849 35.2332 87.7419 36.0681 88.9987L37.734 87.892C36.8642 86.5827 36.045 85.2724 36.3786 83.5643L34.4157 83.1809ZM36.0678 88.9982C36.1845 89.1741 36.3631 89.4252 36.5931 89.7487L38.2233 88.59C37.9833 88.2525 37.8287 88.0346 37.7344 87.8925L36.0678 88.9982ZM36.5931 89.7487C37.3413 90.8014 38.7885 92.8373 41.1739 96.5414L42.8554 95.4586C40.4481 91.7205 38.9823 89.658 38.2233 88.59L36.5931 89.7487ZM41.1739 96.5414C42.1158 98.004 41.5868 99.532 40.675 101.841L42.5352 102.576C43.3531 100.504 44.445 97.9269 42.8554 95.4586L41.1739 96.5414ZM40.675 101.841C39.9738 103.617 39.0825 105.807 39.5163 108.18L41.4837 107.82C41.1695 106.102 41.7951 104.45 42.5352 102.576L40.675 101.841ZM39.5163 108.18C39.6507 108.915 39.9074 109.57 40.3449 110.076C40.7991 110.601 41.389 110.896 42.0442 110.99C43.2611 111.164 44.6738 110.642 46.0808 109.879L45.1276 108.121C43.7678 108.858 42.8569 109.086 42.3277 109.01C42.1099 108.979 41.971 108.899 41.8576 108.768C41.7276 108.617 41.5779 108.335 41.4837 107.82L39.5163 108.18ZM46.6042 109C46.6042 107.554 47.0139 106.404 47.5748 104.862L45.6953 104.178C45.1457 105.689 44.6042 107.153 44.6042 109H46.6042ZM47.5748 104.862C47.6937 104.534 47.8192 104.19 47.9448 103.828L46.0552 103.172C45.9354 103.518 45.8149 103.849 45.6953 104.178L47.5748 104.862ZM47 103.5C47.7903 104.113 47.7906 104.112 47.7909 104.112C47.791 104.112 47.7913 104.111 47.7915 104.111C47.7919 104.111 47.7924 104.11 47.793 104.109C47.7941 104.108 47.7954 104.106 47.7969 104.104C47.7998 104.1 47.8036 104.095 47.8081 104.089C47.8171 104.077 47.8292 104.061 47.8439 104.041C47.8733 104.001 47.9136 103.944 47.9624 103.873C48.06 103.73 48.1923 103.526 48.3405 103.269C48.6357 102.757 49.0006 102.025 49.2768 101.141C49.8304 99.3707 50.0433 96.9237 48.5421 94.477L46.8374 95.523C47.9428 97.3246 47.8109 99.1275 47.3679 100.545C47.1459 101.255 46.8496 101.851 46.6082 102.269C46.4881 102.478 46.3832 102.639 46.3107 102.745C46.2745 102.798 46.2465 102.837 46.2289 102.861C46.2201 102.873 46.2139 102.882 46.2106 102.886C46.209 102.888 46.2081 102.889 46.2079 102.89C46.2078 102.89 46.2079 102.89 46.2082 102.889C46.2084 102.889 46.2086 102.889 46.2088 102.888C46.2089 102.888 46.2092 102.888 46.2092 102.888C46.2095 102.888 46.2097 102.887 47 103.5ZM48.5421 94.477C47.223 92.3272 46.0176 90.2109 45.1412 88.6305C44.7033 87.8408 44.3481 87.1861 44.1027 86.7292C43.98 86.5008 43.8848 86.3219 43.8204 86.2005C43.7882 86.1398 43.7637 86.0934 43.7474 86.0624C43.7392 86.0469 43.7331 86.0352 43.729 86.0275C43.727 86.0237 43.7255 86.0208 43.7245 86.019C43.724 86.018 43.7237 86.0174 43.7234 86.0169C43.7233 86.0167 43.7232 86.0166 43.7232 86.0165C43.7232 86.0164 43.7232 86.0164 43.7232 86.0164C43.7232 86.0164 43.7232 86.0164 42.8374 86.4806C41.9516 86.9447 41.9517 86.9448 41.9517 86.9448C41.9517 86.9449 41.9518 86.945 41.9518 86.945C41.9519 86.9452 41.952 86.9454 41.9522 86.9457C41.9525 86.9463 41.9529 86.9472 41.9535 86.9483C41.9547 86.9505 41.9564 86.9537 41.9586 86.9579C41.963 86.9663 41.9695 86.9786 41.978 86.9949C41.9951 87.0273 42.0204 87.0751 42.0534 87.1373C42.1193 87.2618 42.2163 87.4439 42.3408 87.6757C42.5898 88.1392 42.9493 88.8019 43.3921 89.6005C44.2773 91.1966 45.498 93.3401 46.8374 95.523L48.5421 94.477ZM43.8168 86.6823L45.4794 78.6106L43.5206 78.2071L41.858 86.2788L43.8168 86.6823ZM44.5 78.4089C45.4942 78.3015 45.4942 78.3017 45.4943 78.302C45.4943 78.3021 45.4943 78.3023 45.4943 78.3025C45.4944 78.3028 45.4944 78.3031 45.4944 78.3034C45.4945 78.304 45.4945 78.3045 45.4946 78.305C45.4947 78.306 45.4948 78.3068 45.4948 78.3074C45.495 78.3086 45.495 78.3092 45.495 78.3092C45.495 78.3091 45.4948 78.3069 45.4945 78.3032C45.494 78.2948 45.4935 78.2842 45.4935 78.2745C45.4935 78.2627 45.4941 78.2649 45.4925 78.2789C45.492 78.2832 45.4851 78.351 45.4455 78.4447C45.4128 78.5219 45.2837 78.7916 44.9431 78.9255C44.5701 79.072 44.2658 78.9349 44.1609 78.8732C44.0594 78.8135 44.0202 78.7583 44.0441 78.7863C44.0596 78.8045 44.0967 78.8524 44.1572 78.9471L45.8428 77.8707C45.7528 77.7298 45.6615 77.601 45.5674 77.4903C45.4816 77.3895 45.3517 77.2533 45.1751 77.1494C44.9951 77.0435 44.6314 76.8991 44.2116 77.064C43.8241 77.2163 43.6607 77.5302 43.6032 77.6663C43.4919 77.9295 43.4933 78.2007 43.4935 78.2783C43.4936 78.3422 43.4964 78.3978 43.4991 78.4373C43.5004 78.4575 43.5018 78.4747 43.503 78.4879C43.5036 78.4946 43.5042 78.5003 43.5046 78.5051C43.5049 78.5074 43.5051 78.5096 43.5053 78.5114C43.5054 78.5124 43.5055 78.5133 43.5055 78.5141C43.5056 78.5145 43.5056 78.5149 43.5057 78.5152C43.5057 78.5154 43.5057 78.5157 43.5057 78.5158C43.5058 78.516 43.5058 78.5163 44.5 78.4089ZM45 78.4089C45.3725 79.3369 45.3723 79.337 45.3722 79.337C45.3722 79.3371 45.372 79.3371 45.372 79.3371C45.3718 79.3372 45.3717 79.3373 45.3716 79.3373C45.3714 79.3374 45.3713 79.3374 45.3714 79.3374C45.3714 79.3374 45.372 79.3371 45.3729 79.3368C45.3748 79.336 45.3784 79.3346 45.3836 79.3326C45.394 79.3286 45.4108 79.3221 45.4334 79.3136C45.4786 79.2967 45.5463 79.2721 45.6307 79.2434C45.8013 79.1854 46.032 79.1136 46.2796 79.0546C46.5322 78.9945 46.7737 78.9546 46.9729 78.9471C47.1951 78.9388 47.2477 78.9757 47.2121 78.9563L48.1675 77.1993C47.7358 76.9646 47.2543 76.9352 46.8979 76.9486C46.5185 76.9628 46.137 77.0326 45.8162 77.1091C45.4904 77.1867 45.1972 77.2784 44.9871 77.3498C44.8812 77.3858 44.7944 77.4173 44.7328 77.4404C44.7019 77.4519 44.6772 77.4614 44.6595 77.4683C44.6506 77.4717 44.6434 77.4746 44.638 77.4767C44.6354 77.4777 44.6331 77.4786 44.6314 77.4793C44.6305 77.4797 44.6297 77.48 44.6291 77.4802C44.6288 77.4804 44.6285 77.4805 44.6282 77.4806C44.6281 77.4806 44.6279 77.4807 44.6278 77.4807C44.6277 77.4808 44.6275 77.4809 45 78.4089ZM47.2086 78.9544C47.4002 79.0596 47.6046 79.1089 47.7423 79.1363C47.8986 79.1674 48.0708 79.189 48.2459 79.2049C48.5968 79.2368 49.0266 79.2515 49.4963 79.2566C50.4377 79.2669 51.6222 79.2389 52.8163 79.2108L52.7693 77.2114C51.5633 77.2397 50.4175 77.2665 49.5181 77.2567C49.0673 77.2518 48.6991 77.2378 48.4267 77.2131C48.2901 77.2007 48.1943 77.187 48.133 77.1748C48.053 77.1589 48.09 77.1567 48.171 77.2012L47.2086 78.9544ZM52.8163 79.2108C54.1507 79.1794 55.5014 79.1478 56.6078 79.1639C57.1615 79.172 57.6354 79.1918 58.005 79.2269C58.1896 79.2444 58.3355 79.2646 58.4451 79.2858C58.5639 79.3088 58.6 79.3255 58.5874 79.3198L59.4126 77.498C59.0644 77.3403 58.6005 77.2744 58.194 77.2358C57.7473 77.1934 57.2127 77.1725 56.6369 77.1641C55.4845 77.1474 54.0922 77.1803 52.7693 77.2114L52.8163 79.2108ZM58.5953 79.3233C59.2822 79.6274 60.1192 79.8723 60.9273 79.8523C61.7631 79.8316 62.6871 79.5105 63.2135 78.5637L61.4656 77.5918C61.3896 77.7284 61.2554 77.8436 60.8778 77.8529C60.4725 77.863 59.9409 77.7318 59.4047 77.4945L58.5953 79.3233ZM63.2085 78.5727C63.7069 77.6976 63.6168 76.7596 63.286 76.0277C62.9635 75.3139 62.3756 74.7006 61.6858 74.3823L60.8479 76.1983C61.0708 76.3011 61.325 76.5449 61.4634 76.8513C61.5937 77.1395 61.5835 77.3847 61.4706 77.5829L63.2085 78.5727ZM61.6773 74.3784C61.4552 74.2784 61.1553 74.198 60.8744 74.1319C60.5707 74.0604 60.2061 73.9872 59.8106 73.9147C59.0181 73.7694 58.065 73.6202 57.1523 73.4864C56.2379 73.3525 55.356 73.2328 54.7033 73.1467C54.3768 73.1037 54.1072 73.0689 53.919 73.045C53.8249 73.033 53.7512 73.0237 53.7009 73.0173C53.6757 73.0142 53.6564 73.0118 53.6433 73.0101C53.6367 73.0093 53.6317 73.0087 53.6284 73.0083C53.6267 73.008 53.6254 73.0079 53.6245 73.0078C53.6241 73.0077 53.6237 73.0077 53.6235 73.0077C53.6234 73.0076 53.6233 73.0076 53.6232 73.0076C53.6231 73.0076 53.6231 73.0076 53.5 74C53.3769 74.9924 53.3769 74.9924 53.3769 74.9924C53.377 74.9924 53.377 74.9924 53.3771 74.9924C53.3773 74.9924 53.3776 74.9925 53.378 74.9925C53.3787 74.9926 53.3799 74.9928 53.3814 74.993C53.3846 74.9933 53.3893 74.9939 53.3956 74.9947C53.4082 74.9963 53.4269 74.9986 53.4516 75.0017C53.5008 75.0079 53.5733 75.0171 53.6662 75.0289C53.8519 75.0526 54.1185 75.0869 54.4418 75.1295C55.0887 75.2149 55.9605 75.3332 56.8624 75.4653C57.7661 75.5977 58.692 75.7429 59.4499 75.8819C59.8294 75.9515 60.1579 76.0179 60.416 76.0786C60.5451 76.109 60.6498 76.1364 60.7308 76.1604C60.771 76.1722 60.802 76.1823 60.825 76.1904C60.8488 76.1987 60.858 76.2029 60.8564 76.2022L61.6773 74.3784ZM53.5 74C53.4763 73.0003 53.4765 73.0003 53.4766 73.0003C53.4767 73.0003 53.4768 73.0003 53.4768 73.0003C53.4769 73.0003 53.4769 73.0003 53.4767 73.0003C53.4765 73.0003 53.4758 73.0003 53.4747 73.0003C53.4726 73.0004 53.469 73.0004 53.4638 73.0005C53.4534 73.0007 53.4369 73.0009 53.4147 73.0012C53.3703 73.0016 53.3031 73.002 53.216 73.0015C53.0417 73.0005 52.7887 72.9963 52.4802 72.9829C51.8606 72.9561 51.03 72.8932 50.171 72.7505C49.304 72.6066 48.4534 72.3886 47.771 72.0718C47.0752 71.7488 46.6812 71.3831 46.5183 71.0158L44.69 71.8265C45.134 72.8279 46.0304 73.4688 46.9288 73.8859C47.8407 74.3092 48.8882 74.5649 49.8434 74.7235C50.8066 74.8834 51.7225 74.952 52.3937 74.981C52.7307 74.9956 53.0091 75.0004 53.205 75.0014C53.303 75.002 53.3806 75.0016 53.4346 75.0011C53.4617 75.0008 53.4829 75.0005 53.4978 75.0002C53.5053 75.0001 53.5112 75 53.5156 74.9999C53.5177 74.9999 53.5195 74.9998 53.5208 74.9998C53.5215 74.9998 53.5221 74.9998 53.5226 74.9997C53.5228 74.9997 53.5231 74.9997 53.5232 74.9997C53.5235 74.9997 53.5237 74.9997 53.5 74ZM46.5184 71.0159C46.1181 70.1132 45.7311 69.3786 45.3072 68.8069L43.7007 69.9981C43.995 70.3951 44.3119 70.9738 44.69 71.8265L46.5184 71.0159Z" fill="#00D9C9" mask="url(#path-8-inside-4)"/>
<path d="M91.756 31.438H86.548L85.442 34H84.252L88.634 24.032H89.642L94.024 34H92.848L91.756 31.438ZM91.35 30.486L89.152 25.362L86.954 30.486H91.35ZM98.6493 26.79C98.8826 26.79 99.0973 26.818 99.2933 26.874L99.2653 27.91C99.0506 27.8353 98.8033 27.798 98.5233 27.798C97.8419 27.798 97.3333 28.0127 96.9973 28.442C96.6706 28.862 96.5073 29.3753 96.5073 29.982V34H95.3733V28.932C95.3733 28.204 95.3359 27.546 95.2613 26.958H96.3392L96.4513 28.26C96.6286 27.784 96.9133 27.42 97.3053 27.168C97.6973 26.916 98.1453 26.79 98.6493 26.79ZM106.203 30.444H101.037C101.046 31.34 101.251 32.0167 101.653 32.474C102.063 32.9313 102.656 33.16 103.431 33.16C104.252 33.16 105.008 32.8847 105.699 32.334L106.077 33.16C105.769 33.4493 105.372 33.678 104.887 33.846C104.411 34.014 103.921 34.098 103.417 34.098C102.315 34.098 101.452 33.776 100.827 33.132C100.201 32.4787 99.8888 31.5873 99.8888 30.458C99.8888 29.7393 100.029 29.1047 100.309 28.554C100.589 27.994 100.981 27.56 101.485 27.252C101.989 26.944 102.563 26.79 103.207 26.79C104.14 26.79 104.873 27.098 105.405 27.714C105.937 28.3207 106.203 29.1607 106.203 30.234V30.444ZM103.221 27.672C102.633 27.672 102.152 27.8493 101.779 28.204C101.415 28.5587 101.181 29.058 101.079 29.702H105.181C105.125 29.0393 104.929 28.5353 104.593 28.19C104.266 27.8447 103.809 27.672 103.221 27.672ZM114.126 26.958V34H113.006V32.726C112.801 33.1647 112.488 33.5053 112.068 33.748C111.657 33.9813 111.177 34.098 110.626 34.098C110.001 34.098 109.45 33.9487 108.974 33.65C108.507 33.3513 108.143 32.9313 107.882 32.39C107.63 31.8393 107.504 31.2 107.504 30.472C107.504 29.744 107.635 29.1047 107.896 28.554C108.157 27.994 108.521 27.56 108.988 27.252C109.464 26.944 110.01 26.79 110.626 26.79C111.177 26.79 111.657 26.9113 112.068 27.154C112.479 27.3967 112.791 27.7373 113.006 28.176V26.958H114.126ZM110.85 33.16C111.541 33.16 112.073 32.9267 112.446 32.46C112.819 31.984 113.006 31.312 113.006 30.444C113.006 29.576 112.819 28.9087 112.446 28.442C112.073 27.9753 111.541 27.742 110.85 27.742C110.159 27.742 109.618 27.9847 109.226 28.47C108.843 28.946 108.652 29.6133 108.652 30.472C108.652 31.3307 108.843 31.9933 109.226 32.46C109.609 32.9267 110.15 33.16 110.85 33.16ZM122.881 34.098C122.218 34.098 121.635 33.9487 121.131 33.65C120.627 33.3513 120.235 32.9267 119.955 32.376C119.684 31.8253 119.549 31.1813 119.549 30.444C119.549 29.7067 119.684 29.0627 119.955 28.512C120.235 27.9613 120.627 27.5367 121.131 27.238C121.635 26.9393 122.218 26.79 122.881 26.79C123.544 26.79 124.127 26.9393 124.631 27.238C125.135 27.5367 125.522 27.9613 125.793 28.512C126.073 29.0627 126.213 29.7067 126.213 30.444C126.213 31.1813 126.073 31.8253 125.793 32.376C125.522 32.9267 125.135 33.3513 124.631 33.65C124.127 33.9487 123.544 34.098 122.881 34.098ZM122.881 33.16C123.581 33.16 124.118 32.9313 124.491 32.474C124.864 32.0073 125.051 31.3307 125.051 30.444C125.051 29.5853 124.86 28.9227 124.477 28.456C124.094 27.98 123.562 27.742 122.881 27.742C122.19 27.742 121.654 27.98 121.271 28.456C120.888 28.9227 120.697 29.5853 120.697 30.444C120.697 31.3307 120.884 32.0073 121.257 32.474C121.64 32.9313 122.181 33.16 122.881 33.16ZM130.669 24.62C130.296 24.62 130.002 24.7273 129.787 24.942C129.582 25.1473 129.479 25.5067 129.479 26.02V26.958H131.201V27.854H129.479V34H128.345V27.854H126.973V26.958H128.345V25.88C128.345 25.1427 128.527 24.5873 128.891 24.214C129.264 23.8313 129.782 23.64 130.445 23.64C130.772 23.64 131.089 23.682 131.397 23.766V24.732C131.136 24.6573 130.893 24.62 130.669 24.62ZM139.246 34.098C138.584 34.098 138 33.9487 137.496 33.65C136.992 33.3513 136.6 32.9267 136.32 32.376C136.05 31.8253 135.914 31.1813 135.914 30.444C135.914 29.7067 136.05 29.0627 136.32 28.512C136.6 27.9613 136.992 27.5367 137.496 27.238C138 26.9393 138.584 26.79 139.246 26.79C139.909 26.79 140.492 26.9393 140.996 27.238C141.5 27.5367 141.888 27.9613 142.158 28.512C142.438 29.0627 142.578 29.7067 142.578 30.444C142.578 31.1813 142.438 31.8253 142.158 32.376C141.888 32.9267 141.5 33.3513 140.996 33.65C140.492 33.9487 139.909 34.098 139.246 34.098ZM139.246 33.16C139.946 33.16 140.483 32.9313 140.856 32.474C141.23 32.0073 141.416 31.3307 141.416 30.444C141.416 29.5853 141.225 28.9227 140.842 28.456C140.46 27.98 139.928 27.742 139.246 27.742C138.556 27.742 138.019 27.98 137.636 28.456C137.254 28.9227 137.062 29.5853 137.062 30.444C137.062 31.3307 137.249 32.0073 137.622 32.474C138.005 32.9313 138.546 33.16 139.246 33.16ZM150.452 26.972L147.414 34H146.336L143.34 26.972H144.53L146.91 32.768L149.318 26.972H150.452ZM157.513 30.444H152.347C152.357 31.34 152.562 32.0167 152.963 32.474C153.374 32.9313 153.967 33.16 154.741 33.16C155.563 33.16 156.319 32.8847 157.009 32.334L157.387 33.16C157.079 33.4493 156.683 33.678 156.197 33.846C155.721 34.014 155.231 34.098 154.727 34.098C153.626 34.098 152.763 33.776 152.137 33.132C151.512 32.4787 151.199 31.5873 151.199 30.458C151.199 29.7393 151.339 29.1047 151.619 28.554C151.899 27.994 152.291 27.56 152.795 27.252C153.299 26.944 153.873 26.79 154.517 26.79C155.451 26.79 156.183 27.098 156.715 27.714C157.247 28.3207 157.513 29.1607 157.513 30.234V30.444ZM154.531 27.672C153.943 27.672 153.463 27.8493 153.089 28.204C152.725 28.5587 152.492 29.058 152.389 29.702H156.491C156.435 29.0393 156.239 28.5353 155.903 28.19C155.577 27.8447 155.119 27.672 154.531 27.672ZM162.511 26.79C162.744 26.79 162.959 26.818 163.155 26.874L163.127 27.91C162.912 27.8353 162.665 27.798 162.385 27.798C161.703 27.798 161.195 28.0127 160.859 28.442C160.532 28.862 160.369 29.3753 160.369 29.982V34H159.235V28.932C159.235 28.204 159.197 27.546 159.123 26.958H160.201L160.313 28.26C160.49 27.784 160.775 27.42 161.167 27.168C161.559 26.916 162.007 26.79 162.511 26.79ZM164.307 23.696H165.441V34H164.307V23.696ZM173.845 26.958V34H172.725V32.726C172.519 33.1647 172.207 33.5053 171.787 33.748C171.376 33.9813 170.895 34.098 170.345 34.098C169.719 34.098 169.169 33.9487 168.693 33.65C168.226 33.3513 167.862 32.9313 167.601 32.39C167.349 31.8393 167.223 31.2 167.223 30.472C167.223 29.744 167.353 29.1047 167.615 28.554C167.876 27.994 168.24 27.56 168.707 27.252C169.183 26.944 169.729 26.79 170.345 26.79C170.895 26.79 171.376 26.9113 171.787 27.154C172.197 27.3967 172.51 27.7373 172.725 28.176V26.958H173.845ZM170.569 33.16C171.259 33.16 171.791 32.9267 172.165 32.46C172.538 31.984 172.725 31.312 172.725 30.444C172.725 29.576 172.538 28.9087 172.165 28.442C171.791 27.9753 171.259 27.742 170.569 27.742C169.878 27.742 169.337 27.9847 168.945 28.47C168.562 28.946 168.371 29.6133 168.371 30.472C168.371 31.3307 168.562 31.9933 168.945 32.46C169.327 32.9267 169.869 33.16 170.569 33.16ZM179.551 26.79C180.167 26.79 180.713 26.944 181.189 27.252C181.665 27.56 182.034 27.994 182.295 28.554C182.557 29.1047 182.687 29.744 182.687 30.472C182.687 31.2 182.557 31.8393 182.295 32.39C182.034 32.9313 181.665 33.3513 181.189 33.65C180.723 33.9487 180.177 34.098 179.551 34.098C179.001 34.098 178.52 33.9767 178.109 33.734C177.699 33.4913 177.386 33.146 177.171 32.698V37.024H176.037V28.932C176.037 28.204 176 27.546 175.925 26.958H177.003L177.115 28.316C177.311 27.8307 177.619 27.4573 178.039 27.196C178.469 26.9253 178.973 26.79 179.551 26.79ZM179.341 33.16C180.032 33.16 180.564 32.9267 180.937 32.46C181.32 31.9933 181.511 31.3307 181.511 30.472C181.511 29.6133 181.32 28.946 180.937 28.47C180.555 27.9847 180.023 27.742 179.341 27.742C178.641 27.742 178.105 27.9753 177.731 28.442C177.358 28.9087 177.171 29.576 177.171 30.444C177.171 31.312 177.358 31.984 177.731 32.46C178.105 32.9267 178.641 33.16 179.341 33.16Z" fill="black"/>
<path d="M91.756 82.438H86.548L85.442 85H84.252L88.634 75.032H89.642L94.024 85H92.848L91.756 82.438ZM91.35 81.486L89.152 76.362L86.954 81.486H91.35ZM98.6493 77.79C98.8826 77.79 99.0973 77.818 99.2933 77.874L99.2653 78.91C99.0506 78.8353 98.8033 78.798 98.5233 78.798C97.8419 78.798 97.3333 79.0127 96.9973 79.442C96.6706 79.862 96.5073 80.3753 96.5073 80.982V85H95.3733V79.932C95.3733 79.204 95.3359 78.546 95.2613 77.958H96.3392L96.4513 79.26C96.6286 78.784 96.9133 78.42 97.3053 78.168C97.6973 77.916 98.1453 77.79 98.6493 77.79ZM106.203 81.444H101.037C101.046 82.34 101.251 83.0167 101.653 83.474C102.063 83.9313 102.656 84.16 103.431 84.16C104.252 84.16 105.008 83.8847 105.699 83.334L106.077 84.16C105.769 84.4493 105.372 84.678 104.887 84.846C104.411 85.014 103.921 85.098 103.417 85.098C102.315 85.098 101.452 84.776 100.827 84.132C100.201 83.4787 99.8888 82.5873 99.8888 81.458C99.8888 80.7393 100.029 80.1047 100.309 79.554C100.589 78.994 100.981 78.56 101.485 78.252C101.989 77.944 102.563 77.79 103.207 77.79C104.14 77.79 104.873 78.098 105.405 78.714C105.937 79.3207 106.203 80.1607 106.203 81.234V81.444ZM103.221 78.672C102.633 78.672 102.152 78.8493 101.779 79.204C101.415 79.5587 101.181 80.058 101.079 80.702H105.181C105.125 80.0393 104.929 79.5353 104.593 79.19C104.266 78.8447 103.809 78.672 103.221 78.672ZM114.126 77.958V85H113.006V83.726C112.801 84.1647 112.488 84.5053 112.068 84.748C111.657 84.9813 111.177 85.098 110.626 85.098C110.001 85.098 109.45 84.9487 108.974 84.65C108.507 84.3513 108.143 83.9313 107.882 83.39C107.63 82.8393 107.504 82.2 107.504 81.472C107.504 80.744 107.635 80.1047 107.896 79.554C108.157 78.994 108.521 78.56 108.988 78.252C109.464 77.944 110.01 77.79 110.626 77.79C111.177 77.79 111.657 77.9113 112.068 78.154C112.479 78.3967 112.791 78.7373 113.006 79.176V77.958H114.126ZM110.85 84.16C111.541 84.16 112.073 83.9267 112.446 83.46C112.819 82.984 113.006 82.312 113.006 81.444C113.006 80.576 112.819 79.9087 112.446 79.442C112.073 78.9753 111.541 78.742 110.85 78.742C110.159 78.742 109.618 78.9847 109.226 79.47C108.843 79.946 108.652 80.6133 108.652 81.472C108.652 82.3307 108.843 82.9933 109.226 83.46C109.609 83.9267 110.15 84.16 110.85 84.16ZM122.881 85.098C122.218 85.098 121.635 84.9487 121.131 84.65C120.627 84.3513 120.235 83.9267 119.955 83.376C119.684 82.8253 119.549 82.1813 119.549 81.444C119.549 80.7067 119.684 80.0627 119.955 79.512C120.235 78.9613 120.627 78.5367 121.131 78.238C121.635 77.9393 122.218 77.79 122.881 77.79C123.544 77.79 124.127 77.9393 124.631 78.238C125.135 78.5367 125.522 78.9613 125.793 79.512C126.073 80.0627 126.213 80.7067 126.213 81.444C126.213 82.1813 126.073 82.8253 125.793 83.376C125.522 83.9267 125.135 84.3513 124.631 84.65C124.127 84.9487 123.544 85.098 122.881 85.098ZM122.881 84.16C123.581 84.16 124.118 83.9313 124.491 83.474C124.864 83.0073 125.051 82.3307 125.051 81.444C125.051 80.5853 124.86 79.9227 124.477 79.456C124.094 78.98 123.562 78.742 122.881 78.742C122.19 78.742 121.654 78.98 121.271 79.456C120.888 79.9227 120.697 80.5853 120.697 81.444C120.697 82.3307 120.884 83.0073 121.257 83.474C121.64 83.9313 122.181 84.16 122.881 84.16ZM130.669 75.62C130.296 75.62 130.002 75.7273 129.787 75.942C129.582 76.1473 129.479 76.5067 129.479 77.02V77.958H131.201V78.854H129.479V85H128.345V78.854H126.973V77.958H128.345V76.88C128.345 76.1427 128.527 75.5873 128.891 75.214C129.264 74.8313 129.782 74.64 130.445 74.64C130.772 74.64 131.089 74.682 131.397 74.766V75.732C131.136 75.6573 130.893 75.62 130.669 75.62ZM142.228 77.958V85H141.122V83.782C140.898 84.2113 140.586 84.538 140.184 84.762C139.783 84.986 139.33 85.098 138.826 85.098C137.996 85.098 137.366 84.8647 136.936 84.398C136.507 83.9313 136.292 83.2407 136.292 82.326V77.958H137.426V82.298C137.426 82.9327 137.557 83.3993 137.818 83.698C138.08 83.9967 138.476 84.146 139.008 84.146C139.634 84.146 140.138 83.9453 140.52 83.544C140.903 83.1333 141.094 82.5967 141.094 81.934V77.958H142.228ZM147.928 77.79C149.618 77.79 150.462 78.7187 150.462 80.576V85H149.328V80.632C149.328 79.9787 149.198 79.5027 148.936 79.204C148.675 78.896 148.264 78.742 147.704 78.742C147.051 78.742 146.528 78.9427 146.136 79.344C145.744 79.7453 145.548 80.2867 145.548 80.968V85H144.414V79.932C144.414 79.204 144.377 78.546 144.302 77.958H145.38L145.492 79.218C145.707 78.7607 146.029 78.4107 146.458 78.168C146.888 77.916 147.378 77.79 147.928 77.79ZM152.604 77.958H153.738V85H152.604V77.958ZM153.878 74.976V76.264H152.492V74.976H153.878ZM158.852 85.098C158.189 85.098 157.606 84.9487 157.102 84.65C156.598 84.3513 156.206 83.9267 155.926 83.376C155.655 82.8253 155.52 82.1813 155.52 81.444C155.52 80.7067 155.655 80.0627 155.926 79.512C156.206 78.9613 156.598 78.5367 157.102 78.238C157.606 77.9393 158.189 77.79 158.852 77.79C159.514 77.79 160.098 77.9393 160.602 78.238C161.106 78.5367 161.493 78.9613 161.764 79.512C162.044 80.0627 162.184 80.7067 162.184 81.444C162.184 82.1813 162.044 82.8253 161.764 83.376C161.493 83.9267 161.106 84.3513 160.602 84.65C160.098 84.9487 159.514 85.098 158.852 85.098ZM158.852 84.16C159.552 84.16 160.088 83.9313 160.462 83.474C160.835 83.0073 161.022 82.3307 161.022 81.444C161.022 80.5853 160.83 79.9227 160.448 79.456C160.065 78.98 159.533 78.742 158.852 78.742C158.161 78.742 157.624 78.98 157.242 79.456C156.859 79.9227 156.668 80.5853 156.668 81.444C156.668 82.3307 156.854 83.0073 157.228 83.474C157.61 83.9313 158.152 84.16 158.852 84.16ZM167.465 77.79C169.155 77.79 169.999 78.7187 169.999 80.576V85H168.865V80.632C168.865 79.9787 168.735 79.5027 168.473 79.204C168.212 78.896 167.801 78.742 167.241 78.742C166.588 78.742 166.065 78.9427 165.673 79.344C165.281 79.7453 165.085 80.2867 165.085 80.968V85H163.951V79.932C163.951 79.204 163.914 78.546 163.839 77.958H164.917L165.029 79.218C165.244 78.7607 165.566 78.4107 165.995 78.168C166.425 77.916 166.915 77.79 167.465 77.79Z" fill="black"/>
<path d="M0 58H172" stroke="black"/>
</svg>
