<svg width="143" height="124" viewBox="0 0 143 124" fill="none" xmlns="http://www.w3.org/2000/svg">
<path d="M17 111H143" stroke="black"/>
<path d="M17 111L17 -1.43051e-06" stroke="black"/>
<path d="M71.6622 123H70.3022L69.3922 120.63C69.3122 120.41 69.1889 120.257 69.0222 120.17C68.8556 120.083 68.6389 120.04 68.3722 120.04H67.0822V123H65.8022V115.88H68.8522C69.6589 115.88 70.2722 116.057 70.6922 116.41C71.1122 116.763 71.3222 117.27 71.3222 117.93C71.3222 118.403 71.1956 118.807 70.9422 119.14C70.6956 119.467 70.3422 119.7 69.8822 119.84C70.3022 119.927 70.6056 120.22 70.7922 120.72L71.6622 123ZM68.6722 119.04C69.1589 119.04 69.5189 118.95 69.7522 118.77C69.9856 118.59 70.1022 118.317 70.1022 117.95C70.1022 117.59 69.9856 117.323 69.7522 117.15C69.5256 116.97 69.1656 116.88 68.6722 116.88H67.0622V119.04H68.6722ZM77.1537 120.54H73.6737C73.7004 121.08 73.8337 121.48 74.0737 121.74C74.3204 121.993 74.6837 122.12 75.1637 122.12C75.717 122.12 76.2304 121.94 76.7037 121.58L77.0637 122.44C76.8237 122.633 76.527 122.79 76.1737 122.91C75.827 123.023 75.4737 123.08 75.1137 123.08C74.287 123.08 73.637 122.847 73.1637 122.38C72.6904 121.913 72.4537 121.273 72.4537 120.46C72.4537 119.947 72.557 119.49 72.7637 119.09C72.9704 118.69 73.2604 118.38 73.6337 118.16C74.007 117.933 74.4304 117.82 74.9037 117.82C75.597 117.82 76.1437 118.047 76.5437 118.5C76.9504 118.947 77.1537 119.563 77.1537 120.35V120.54ZM74.9337 118.72C74.6004 118.72 74.327 118.82 74.1137 119.02C73.907 119.213 73.7737 119.497 73.7137 119.87H76.0637C76.0237 119.49 75.907 119.203 75.7137 119.01C75.527 118.817 75.267 118.72 74.9337 118.72ZM80.5022 123.08C79.9756 123.08 79.5189 122.973 79.1322 122.76C78.7456 122.547 78.4489 122.247 78.2422 121.86C78.0356 121.467 77.9322 121.007 77.9322 120.48C77.9322 119.953 78.0389 119.49 78.2522 119.09C78.4722 118.69 78.7789 118.38 79.1722 118.16C79.5722 117.933 80.0322 117.82 80.5522 117.82C80.9122 117.82 81.2589 117.877 81.5922 117.99C81.9322 118.103 82.2022 118.26 82.4022 118.46L82.0522 119.34C81.8389 119.167 81.6122 119.037 81.3722 118.95C81.1322 118.857 80.8956 118.81 80.6622 118.81C80.2089 118.81 79.8556 118.953 79.6022 119.24C79.3489 119.52 79.2222 119.927 79.2222 120.46C79.2222 120.993 79.3456 121.4 79.5922 121.68C79.8456 121.96 80.2022 122.1 80.6622 122.1C80.8956 122.1 81.1322 122.053 81.3722 121.96C81.6122 121.867 81.8389 121.733 82.0522 121.56L82.4022 122.44C82.1889 122.64 81.9122 122.797 81.5722 122.91C81.2322 123.023 80.8756 123.08 80.5022 123.08ZM88.0715 117.95V123H86.8415V122.19C86.6882 122.47 86.4682 122.69 86.1815 122.85C85.8949 123.003 85.5682 123.08 85.2015 123.08C84.7615 123.08 84.3715 122.973 84.0315 122.76C83.6915 122.547 83.4282 122.243 83.2415 121.85C83.0549 121.457 82.9615 121 82.9615 120.48C82.9615 119.96 83.0549 119.5 83.2415 119.1C83.4349 118.693 83.7015 118.38 84.0415 118.16C84.3815 117.933 84.7682 117.82 85.2015 117.82C85.5682 117.82 85.8949 117.9 86.1815 118.06C86.4682 118.213 86.6882 118.43 86.8415 118.71V117.95H88.0715ZM85.5415 122.1C85.9549 122.1 86.2749 121.957 86.5015 121.67C86.7282 121.383 86.8415 120.98 86.8415 120.46C86.8415 119.927 86.7282 119.517 86.5015 119.23C86.2749 118.943 85.9515 118.8 85.5315 118.8C85.1182 118.8 84.7949 118.95 84.5615 119.25C84.3349 119.543 84.2215 119.953 84.2215 120.48C84.2215 121 84.3349 121.4 84.5615 121.68C84.7949 121.96 85.1215 122.1 85.5415 122.1ZM89.4329 115.64H90.6729V123H89.4329V115.64ZM92.0404 115.64H93.2804V123H92.0404V115.64Z" fill="#91A9C0"/>
<path d="M1.88 77.2583L1.88 74.1683C1.88 73.4017 2.06667 72.805 2.44 72.3783C2.80667 71.9517 3.31 71.7383 3.95 71.7383C4.59 71.7383 5.09667 71.955 5.47 72.3883C5.84333 72.815 6.03 73.4083 6.03 74.1683L6.03 75.9683L9 75.9683L9 77.2583L1.88 77.2583ZM5.03 74.3183C5.03 73.8717 4.94 73.535 4.76 73.3083C4.57333 73.075 4.30667 72.9583 3.96 72.9583C3.60667 72.9583 3.34 73.0717 3.16 73.2983C2.97333 73.525 2.88 73.865 2.88 74.3183L2.88 75.9683L5.03 75.9683L5.03 74.3183ZM3.83 68.0658C3.83 67.8725 3.85667 67.7058 3.91 67.5658L5.05 67.5758C4.96333 67.7892 4.92 68.0092 4.92 68.2358C4.92 68.6625 5.04333 68.9892 5.29 69.2158C5.53667 69.4358 5.86333 69.5458 6.27 69.5458L9 69.5458L9 70.7858L5.38 70.7858C4.84667 70.7858 4.37 70.8125 3.95 70.8658L3.95 69.6958L4.84 69.5958C4.51333 69.4692 4.26333 69.2692 4.09 68.9958C3.91667 68.7225 3.83 68.4125 3.83 68.0658ZM6.54 62.5475L6.54 66.0275C7.08 66.0008 7.48 65.8675 7.74 65.6275C7.99333 65.3808 8.12 65.0175 8.12 64.5375C8.12 63.9841 7.94 63.4708 7.58 62.9975L8.44 62.6375C8.63333 62.8775 8.79 63.1741 8.91 63.5275C9.02333 63.8741 9.08 64.2275 9.08 64.5875C9.08 65.4141 8.84667 66.0641 8.38 66.5375C7.91333 67.0108 7.27333 67.2475 6.46 67.2475C5.94667 67.2475 5.49 67.1441 5.09 66.9375C4.69 66.7308 4.38 66.4408 4.16 66.0675C3.93333 65.6941 3.82 65.2708 3.82 64.7975C3.82 64.1041 4.04667 63.5575 4.5 63.1575C4.94667 62.7508 5.56333 62.5475 6.35 62.5475L6.54 62.5475ZM4.72 64.7675C4.72 65.1008 4.82 65.3741 5.02 65.5875C5.21333 65.7941 5.49667 65.9275 5.87 65.9875L5.87 63.6375C5.49 63.6775 5.20333 63.7941 5.01 63.9875C4.81666 64.1741 4.72 64.4341 4.72 64.7675ZM9.08 59.1989C9.08 59.7256 8.97333 60.1823 8.76 60.5689C8.54667 60.9556 8.24667 61.2523 7.86 61.4589C7.46667 61.6656 7.00667 61.7689 6.48 61.7689C5.95333 61.7689 5.49 61.6623 5.09 61.4489C4.69 61.2289 4.38 60.9223 4.16 60.5289C3.93333 60.1289 3.82 59.6689 3.82 59.1489C3.82 58.7889 3.87666 58.4423 3.99 58.1089C4.10333 57.7689 4.26 57.4989 4.46 57.2989L5.34 57.6489C5.16666 57.8623 5.03666 58.0889 4.95 58.3289C4.85666 58.5689 4.81 58.8056 4.81 59.0389C4.81 59.4923 4.95333 59.8456 5.24 60.0989C5.52 60.3523 5.92666 60.4789 6.46 60.4789C6.99333 60.4789 7.4 60.3556 7.68 60.1089C7.96 59.8556 8.1 59.4989 8.1 59.0389C8.1 58.8056 8.05333 58.5689 7.96 58.3289C7.86666 58.0889 7.73333 57.8623 7.56 57.6489L8.44 57.2989C8.64 57.5123 8.79666 57.7889 8.91 58.1289C9.02333 58.4689 9.08 58.8256 9.08 59.1989ZM3.95 56.4596L3.95 55.2196L9 55.2196L9 56.4596L3.95 56.4596ZM1.66 55.1496L2.89 55.1496L2.89 56.5396L1.66 56.5396L1.66 55.1496ZM9.08 52.0022C9.08 52.9156 8.86666 53.6422 8.44 54.1822L7.56 53.8322C7.96 53.2922 8.16 52.6756 8.16 51.9822C8.16 51.6822 8.11 51.4522 8.01 51.2922C7.91 51.1256 7.77 51.0422 7.59 51.0422C7.43666 51.0422 7.31666 51.0989 7.23 51.2122C7.13666 51.3256 7.05666 51.5189 6.99 51.7922L6.8 52.6322C6.6 53.5522 6.13 54.0122 5.39 54.0122C5.08333 54.0122 4.81333 53.9256 4.58 53.7522C4.34 53.5789 4.15333 53.3356 4.02 53.0222C3.88666 52.7089 3.82 52.3456 3.82 51.9322C3.82 51.5722 3.87666 51.2256 3.99 50.8922C4.09666 50.5589 4.25333 50.2656 4.46 50.0122L5.31 50.3822C4.93666 50.8889 4.75 51.4089 4.75 51.9422C4.75 52.2289 4.80333 52.4522 4.91 52.6122C5.01666 52.7722 5.16333 52.8522 5.35 52.8522C5.49666 52.8522 5.61333 52.8056 5.7 52.7122C5.78666 52.6122 5.86 52.4456 5.92 52.2122L6.11 51.3522C6.22333 50.8522 6.4 50.4889 6.64 50.2622C6.87333 50.0289 7.18 49.9122 7.56 49.9122C8.02666 49.9122 8.39666 50.0989 8.67 50.4722C8.94333 50.8456 9.08 51.3556 9.08 52.0022ZM3.95 48.8425L3.95 47.6025L9 47.6025L9 48.8425L3.95 48.8425ZM1.66 47.5325L2.89 47.5325L2.89 48.9225L1.66 48.9225L1.66 47.5325ZM9.08 43.945C9.08 44.4584 8.97333 44.9117 8.76 45.305C8.54666 45.6917 8.24333 45.9917 7.85 46.205C7.45 46.4117 6.98333 46.515 6.45 46.515C5.91666 46.515 5.45333 46.4117 5.06 46.205C4.66 45.9917 4.35333 45.6917 4.14 45.305C3.92666 44.9117 3.82 44.4584 3.82 43.945C3.82 43.4384 3.92666 42.9917 4.14 42.605C4.35333 42.2184 4.66 41.9217 5.06 41.715C5.45333 41.5017 5.91666 41.395 6.45 41.395C6.98333 41.395 7.45 41.5017 7.85 41.715C8.24333 41.9217 8.54666 42.2184 8.76 42.605C8.97333 42.9917 9.08 43.4384 9.08 43.945ZM8.1 43.955C8.1 43.5284 7.96333 43.205 7.69 42.985C7.41 42.7584 6.99666 42.645 6.45 42.645C5.91 42.645 5.5 42.7584 5.22 42.985C4.93333 43.2117 4.79 43.5317 4.79 43.945C4.79 44.365 4.93333 44.6884 5.22 44.915C5.5 45.1417 5.91 45.255 6.45 45.255C6.99666 45.255 7.41 45.145 7.69 44.925C7.96333 44.6984 8.1 44.375 8.1 43.955ZM3.82 37.4271C3.82 36.2204 4.51333 35.6171 5.9 35.6171L9 35.6171L9 36.8671L5.96 36.8671C5.56 36.8671 5.27 36.9437 5.09 37.0971C4.90333 37.2504 4.81 37.4871 4.81 37.8071C4.81 38.1871 4.93333 38.4937 5.18 38.7271C5.42 38.9604 5.74 39.0771 6.14 39.0771L9 39.0771L9 40.3171L5.38 40.3171C4.84666 40.3171 4.37 40.3437 3.95 40.3971L3.95 39.2271L4.78 39.1371C4.47333 38.9637 4.23666 38.7304 4.07 38.4371C3.90333 38.1371 3.82 37.8004 3.82 37.4271Z" fill="#91A9C0"/>
<path d="M17.5 14.5V110.5H122.5C122.5 52.6989 67.7174 14.5 17.5 14.5Z" fill="#00D9C9" fill-opacity="0.2"/>
<path d="M17.5 14.5C67.7174 14.5 122.5 52.6989 122.5 110.5" stroke="#00D9C9" stroke-width="2"/>
</svg>
