<svg width="184" height="109" viewBox="0 0 184 109" fill="none" xmlns="http://www.w3.org/2000/svg">
<path d="M72 77L64 85" stroke="#EB5353" stroke-width="1.5" stroke-linecap="round" stroke-linejoin="round"/>
<path d="M72 85L64 77" stroke="#EB5353" stroke-width="1.5" stroke-linecap="round" stroke-linejoin="round"/>
<path d="M87.64 29.012H84.168V28.032H92.274V29.012H88.802V38H87.64V29.012ZM95.7235 30.79C95.9568 30.79 96.1715 30.818 96.3675 30.874L96.3395 31.91C96.1248 31.8353 95.8775 31.798 95.5975 31.798C94.9161 31.798 94.4075 32.0127 94.0715 32.442C93.7448 32.862 93.5815 33.3753 93.5815 33.982V38H92.4475V32.932C92.4475 32.204 92.4101 31.546 92.3355 30.958H93.4135L93.5255 32.26C93.7028 31.784 93.9875 31.42 94.3795 31.168C94.7715 30.916 95.2195 30.79 95.7235 30.79ZM103.414 30.958V38H102.308V36.782C102.084 37.2113 101.771 37.538 101.37 37.762C100.968 37.986 100.516 38.098 100.012 38.098C99.1811 38.098 98.5511 37.8647 98.1217 37.398C97.6924 36.9313 97.4777 36.2407 97.4777 35.326V30.958H98.6117V35.298C98.6117 35.9327 98.7424 36.3993 99.0037 36.698C99.2651 36.9967 99.6617 37.146 100.194 37.146C100.819 37.146 101.323 36.9453 101.706 36.544C102.088 36.1333 102.28 35.5967 102.28 34.934V30.958H103.414ZM111.494 34.444H106.328C106.337 35.34 106.542 36.0167 106.944 36.474C107.354 36.9313 107.947 37.16 108.722 37.16C109.543 37.16 110.299 36.8847 110.99 36.334L111.368 37.16C111.06 37.4493 110.663 37.678 110.178 37.846C109.702 38.014 109.212 38.098 108.708 38.098C107.606 38.098 106.743 37.776 106.118 37.132C105.492 36.4787 105.18 35.5873 105.18 34.458C105.18 33.7393 105.32 33.1047 105.6 32.554C105.88 31.994 106.272 31.56 106.776 31.252C107.28 30.944 107.854 30.79 108.498 30.79C109.431 30.79 110.164 31.098 110.696 31.714C111.228 32.3207 111.494 33.1607 111.494 34.234V34.444ZM108.512 31.672C107.924 31.672 107.443 31.8493 107.07 32.204C106.706 32.5587 106.472 33.058 106.37 33.702H110.472C110.416 33.0393 110.22 32.5353 109.884 32.19C109.557 31.8447 109.1 31.672 108.512 31.672ZM117.005 28.032H120.981C122.008 28.032 122.806 28.2793 123.375 28.774C123.954 29.2687 124.243 29.95 124.243 30.818C124.243 31.686 123.954 32.372 123.375 32.876C122.797 33.3707 121.999 33.618 120.981 33.618H118.153V38H117.005V28.032ZM120.883 32.666C121.621 32.666 122.176 32.5073 122.549 32.19C122.923 31.8727 123.109 31.4153 123.109 30.818C123.109 30.2207 122.923 29.768 122.549 29.46C122.176 29.1427 121.621 28.984 120.883 28.984H118.153V32.666H120.883ZM128.678 38.098C128.015 38.098 127.432 37.9487 126.928 37.65C126.424 37.3513 126.032 36.9267 125.752 36.376C125.481 35.8253 125.346 35.1813 125.346 34.444C125.346 33.7067 125.481 33.0627 125.752 32.512C126.032 31.9613 126.424 31.5367 126.928 31.238C127.432 30.9393 128.015 30.79 128.678 30.79C129.34 30.79 129.924 30.9393 130.428 31.238C130.932 31.5367 131.319 31.9613 131.59 32.512C131.87 33.0627 132.01 33.7067 132.01 34.444C132.01 35.1813 131.87 35.8253 131.59 36.376C131.319 36.9267 130.932 37.3513 130.428 37.65C129.924 37.9487 129.34 38.098 128.678 38.098ZM128.678 37.16C129.378 37.16 129.914 36.9313 130.288 36.474C130.661 36.0073 130.848 35.3307 130.848 34.444C130.848 33.5853 130.656 32.9227 130.274 32.456C129.891 31.98 129.359 31.742 128.678 31.742C127.987 31.742 127.45 31.98 127.068 32.456C126.685 32.9227 126.494 33.5853 126.494 34.444C126.494 35.3307 126.68 36.0073 127.054 36.474C127.436 36.9313 127.978 37.16 128.678 37.16ZM136.158 38.098C134.972 38.098 134.034 37.7947 133.344 37.188L133.722 36.348C134.104 36.6467 134.492 36.8613 134.884 36.992C135.276 37.1227 135.714 37.188 136.2 37.188C136.732 37.188 137.133 37.0993 137.404 36.922C137.684 36.7353 137.824 36.4693 137.824 36.124C137.824 35.844 137.73 35.62 137.544 35.452C137.357 35.284 137.049 35.1533 136.62 35.06L135.43 34.78C134.842 34.6493 134.384 34.416 134.058 34.08C133.74 33.744 133.582 33.3427 133.582 32.876C133.582 32.26 133.829 31.7607 134.324 31.378C134.818 30.986 135.472 30.79 136.284 30.79C136.778 30.79 137.245 30.8693 137.684 31.028C138.122 31.1867 138.491 31.4153 138.79 31.714L138.412 32.54C137.749 31.9893 137.04 31.714 136.284 31.714C135.78 31.714 135.388 31.812 135.108 32.008C134.837 32.1947 134.702 32.4607 134.702 32.806C134.702 33.0953 134.786 33.324 134.954 33.492C135.131 33.66 135.411 33.7907 135.794 33.884L136.984 34.178C137.637 34.3273 138.122 34.5607 138.44 34.878C138.757 35.186 138.916 35.592 138.916 36.096C138.916 36.7027 138.668 37.188 138.174 37.552C137.679 37.916 137.007 38.098 136.158 38.098ZM140.723 30.958H141.857V38H140.723V30.958ZM141.997 27.976V29.264H140.611V27.976H141.997ZM145.571 31.854V35.704C145.571 36.2267 145.678 36.5953 145.893 36.81C146.107 37.0153 146.411 37.118 146.803 37.118C147.064 37.118 147.316 37.076 147.559 36.992V37.958C147.269 38.0513 146.943 38.098 146.579 38.098C145.907 38.098 145.379 37.9113 144.997 37.538C144.623 37.1553 144.437 36.5953 144.437 35.858V31.854H143.065V30.958H144.437V29.152L145.571 28.746V30.958H147.587V31.854H145.571ZM148.953 30.958H150.087V38H148.953V30.958ZM150.227 27.976V29.264H148.841V27.976H150.227ZM158.477 30.972L155.439 38H154.361L151.365 30.972H152.555L154.935 36.768L157.343 30.972H158.477ZM165.539 34.444H160.373C160.382 35.34 160.587 36.0167 160.989 36.474C161.399 36.9313 161.992 37.16 162.767 37.16C163.588 37.16 164.344 36.8847 165.035 36.334L165.413 37.16C165.105 37.4493 164.708 37.678 164.223 37.846C163.747 38.014 163.257 38.098 162.753 38.098C161.651 38.098 160.788 37.776 160.163 37.132C159.537 36.4787 159.225 35.5873 159.225 34.458C159.225 33.7393 159.365 33.1047 159.645 32.554C159.925 31.994 160.317 31.56 160.821 31.252C161.325 30.944 161.899 30.79 162.543 30.79C163.476 30.79 164.209 31.098 164.741 31.714C165.273 32.3207 165.539 33.1607 165.539 34.234V34.444ZM162.557 31.672C161.969 31.672 161.488 31.8493 161.115 32.204C160.751 32.5587 160.517 33.058 160.415 33.702H164.517C164.461 33.0393 164.265 32.5353 163.929 32.19C163.602 31.8447 163.145 31.672 162.557 31.672ZM169.64 38.098C168.455 38.098 167.517 37.7947 166.826 37.188L167.204 36.348C167.587 36.6467 167.974 36.8613 168.366 36.992C168.758 37.1227 169.197 37.188 169.682 37.188C170.214 37.188 170.615 37.0993 170.886 36.922C171.166 36.7353 171.306 36.4693 171.306 36.124C171.306 35.844 171.213 35.62 171.026 35.452C170.839 35.284 170.531 35.1533 170.102 35.06L168.912 34.78C168.324 34.6493 167.867 34.416 167.54 34.08C167.223 33.744 167.064 33.3427 167.064 32.876C167.064 32.26 167.311 31.7607 167.806 31.378C168.301 30.986 168.954 30.79 169.766 30.79C170.261 30.79 170.727 30.8693 171.166 31.028C171.605 31.1867 171.973 31.4153 172.272 31.714L171.894 32.54C171.231 31.9893 170.522 31.714 169.766 31.714C169.262 31.714 168.87 31.812 168.59 32.008C168.319 32.1947 168.184 32.4607 168.184 32.806C168.184 33.0953 168.268 33.324 168.436 33.492C168.613 33.66 168.893 33.7907 169.276 33.884L170.466 34.178C171.119 34.3273 171.605 34.5607 171.922 34.878C172.239 35.186 172.398 35.592 172.398 36.096C172.398 36.7027 172.151 37.188 171.656 37.552C171.161 37.916 170.489 38.098 169.64 38.098Z" fill="#24C7BB"/>
<path d="M86.7582 69.012H83.2862V68.032H91.3922V69.012H87.9202V78H86.7582V69.012ZM94.8416 70.79C95.075 70.79 95.2896 70.818 95.4856 70.874L95.4576 71.91C95.243 71.8353 94.9956 71.798 94.7156 71.798C94.0343 71.798 93.5256 72.0127 93.1896 72.442C92.863 72.862 92.6996 73.3753 92.6996 73.982V78H91.5656V72.932C91.5656 72.204 91.5283 71.546 91.4536 70.958H92.5316L92.6436 72.26C92.821 71.784 93.1056 71.42 93.4976 71.168C93.8896 70.916 94.3376 70.79 94.8416 70.79ZM102.532 70.958V78H101.426V76.782C101.202 77.2113 100.889 77.538 100.488 77.762C100.087 77.986 99.6339 78.098 99.1299 78.098C98.2992 78.098 97.6692 77.8647 97.2399 77.398C96.8106 76.9313 96.5959 76.2407 96.5959 75.326V70.958H97.7299V75.298C97.7299 75.9327 97.8606 76.3993 98.1219 76.698C98.3832 76.9967 98.7799 77.146 99.3119 77.146C99.9372 77.146 100.441 76.9453 100.824 76.544C101.207 76.1333 101.398 75.5967 101.398 74.934V70.958H102.532ZM110.612 74.444H105.446C105.455 75.34 105.661 76.0167 106.062 76.474C106.473 76.9313 107.065 77.16 107.84 77.16C108.661 77.16 109.417 76.8847 110.108 76.334L110.486 77.16C110.178 77.4493 109.781 77.678 109.296 77.846C108.82 78.014 108.33 78.098 107.826 78.098C106.725 78.098 105.861 77.776 105.236 77.132C104.611 76.4787 104.298 75.5873 104.298 74.458C104.298 73.7393 104.438 73.1047 104.718 72.554C104.998 71.994 105.39 71.56 105.894 71.252C106.398 70.944 106.972 70.79 107.616 70.79C108.549 70.79 109.282 71.098 109.814 71.714C110.346 72.3207 110.612 73.1607 110.612 74.234V74.444ZM107.63 71.672C107.042 71.672 106.561 71.8493 106.188 72.204C105.824 72.5587 105.591 73.058 105.488 73.702H109.59C109.534 73.0393 109.338 72.5353 109.002 72.19C108.675 71.8447 108.218 71.672 107.63 71.672ZM116.124 68.032H120.1C121.126 68.032 121.924 68.2793 122.494 68.774C123.072 69.2687 123.362 69.95 123.362 70.818C123.362 71.686 123.072 72.372 122.494 72.876C121.915 73.3707 121.117 73.618 120.1 73.618H117.272V78H116.124V68.032ZM120.002 72.666C120.739 72.666 121.294 72.5073 121.668 72.19C122.041 71.8727 122.228 71.4153 122.228 70.818C122.228 70.2207 122.041 69.768 121.668 69.46C121.294 69.1427 120.739 68.984 120.002 68.984H117.272V72.666H120.002ZM127.796 78.098C127.133 78.098 126.55 77.9487 126.046 77.65C125.542 77.3513 125.15 76.9267 124.87 76.376C124.599 75.8253 124.464 75.1813 124.464 74.444C124.464 73.7067 124.599 73.0627 124.87 72.512C125.15 71.9613 125.542 71.5367 126.046 71.238C126.55 70.9393 127.133 70.79 127.796 70.79C128.459 70.79 129.042 70.9393 129.546 71.238C130.05 71.5367 130.437 71.9613 130.708 72.512C130.988 73.0627 131.128 73.7067 131.128 74.444C131.128 75.1813 130.988 75.8253 130.708 76.376C130.437 76.9267 130.05 77.3513 129.546 77.65C129.042 77.9487 128.459 78.098 127.796 78.098ZM127.796 77.16C128.496 77.16 129.033 76.9313 129.406 76.474C129.779 76.0073 129.966 75.3307 129.966 74.444C129.966 73.5853 129.775 72.9227 129.392 72.456C129.009 71.98 128.477 71.742 127.796 71.742C127.105 71.742 126.569 71.98 126.186 72.456C125.803 72.9227 125.612 73.5853 125.612 74.444C125.612 75.3307 125.799 76.0073 126.172 76.474C126.555 76.9313 127.096 77.16 127.796 77.16ZM135.276 78.098C134.09 78.098 133.152 77.7947 132.462 77.188L132.84 76.348C133.222 76.6467 133.61 76.8613 134.002 76.992C134.394 77.1227 134.832 77.188 135.318 77.188C135.85 77.188 136.251 77.0993 136.522 76.922C136.802 76.7353 136.942 76.4693 136.942 76.124C136.942 75.844 136.848 75.62 136.662 75.452C136.475 75.284 136.167 75.1533 135.738 75.06L134.548 74.78C133.96 74.6493 133.502 74.416 133.176 74.08C132.858 73.744 132.7 73.3427 132.7 72.876C132.7 72.26 132.947 71.7607 133.442 71.378C133.936 70.986 134.59 70.79 135.402 70.79C135.896 70.79 136.363 70.8693 136.802 71.028C137.24 71.1867 137.609 71.4153 137.908 71.714L137.53 72.54C136.867 71.9893 136.158 71.714 135.402 71.714C134.898 71.714 134.506 71.812 134.226 72.008C133.955 72.1947 133.82 72.4607 133.82 72.806C133.82 73.0953 133.904 73.324 134.072 73.492C134.249 73.66 134.529 73.7907 134.912 73.884L136.102 74.178C136.755 74.3273 137.24 74.5607 137.558 74.878C137.875 75.186 138.034 75.592 138.034 76.096C138.034 76.7027 137.786 77.188 137.292 77.552C136.797 77.916 136.125 78.098 135.276 78.098ZM139.841 70.958H140.975V78H139.841V70.958ZM141.115 67.976V69.264H139.729V67.976H141.115ZM144.689 71.854V75.704C144.689 76.2267 144.796 76.5953 145.011 76.81C145.226 77.0153 145.529 77.118 145.921 77.118C146.182 77.118 146.434 77.076 146.677 76.992V77.958C146.388 78.0513 146.061 78.098 145.697 78.098C145.025 78.098 144.498 77.9113 144.115 77.538C143.742 77.1553 143.555 76.5953 143.555 75.858V71.854H142.183V70.958H143.555V69.152L144.689 68.746V70.958H146.705V71.854H144.689ZM148.071 70.958H149.205V78H148.071V70.958ZM149.345 67.976V69.264H147.959V67.976H149.345ZM157.595 70.972L154.557 78H153.479L150.483 70.972H151.673L154.053 76.768L156.461 70.972H157.595ZM164.657 74.444H159.491C159.5 75.34 159.706 76.0167 160.107 76.474C160.518 76.9313 161.11 77.16 161.885 77.16C162.706 77.16 163.462 76.8847 164.153 76.334L164.531 77.16C164.223 77.4493 163.826 77.678 163.341 77.846C162.865 78.014 162.375 78.098 161.871 78.098C160.77 78.098 159.906 77.776 159.281 77.132C158.656 76.4787 158.343 75.5873 158.343 74.458C158.343 73.7393 158.483 73.1047 158.763 72.554C159.043 71.994 159.435 71.56 159.939 71.252C160.443 70.944 161.017 70.79 161.661 70.79C162.594 70.79 163.327 71.098 163.859 71.714C164.391 72.3207 164.657 73.1607 164.657 74.234V74.444ZM161.675 71.672C161.087 71.672 160.606 71.8493 160.233 72.204C159.869 72.5587 159.636 73.058 159.533 73.702H163.635C163.579 73.0393 163.383 72.5353 163.047 72.19C162.72 71.8447 162.263 71.672 161.675 71.672ZM168.758 78.098C167.573 78.098 166.635 77.7947 165.944 77.188L166.322 76.348C166.705 76.6467 167.092 76.8613 167.484 76.992C167.876 77.1227 168.315 77.188 168.8 77.188C169.332 77.188 169.733 77.0993 170.004 76.922C170.284 76.7353 170.424 76.4693 170.424 76.124C170.424 75.844 170.331 75.62 170.144 75.452C169.957 75.284 169.649 75.1533 169.22 75.06L168.03 74.78C167.442 74.6493 166.985 74.416 166.658 74.08C166.341 73.744 166.182 73.3427 166.182 72.876C166.182 72.26 166.429 71.7607 166.924 71.378C167.419 70.986 168.072 70.79 168.884 70.79C169.379 70.79 169.845 70.8693 170.284 71.028C170.723 71.1867 171.091 71.4153 171.39 71.714L171.012 72.54C170.349 71.9893 169.64 71.714 168.884 71.714C168.38 71.714 167.988 71.812 167.708 72.008C167.437 72.1947 167.302 72.4607 167.302 72.806C167.302 73.0953 167.386 73.324 167.554 73.492C167.731 73.66 168.011 73.7907 168.394 73.884L169.584 74.178C170.237 74.3273 170.723 74.5607 171.04 74.878C171.357 75.186 171.516 75.592 171.516 76.096C171.516 76.7027 171.269 77.188 170.774 77.552C170.279 77.916 169.607 78.098 168.758 78.098Z" fill="#24C7BB"/>
<path d="M131.122 89.416H128.112V92.426H127.244V89.416H124.234V88.534H127.244V85.524H128.112V88.534H131.122V89.416Z" fill="black"/>
<path d="M83.2154 98.032H89.3754V98.998H84.3494V102.456H89.0954V103.422H84.3494V108H83.2154V98.032ZM97.0294 100.958V108H95.9094V106.726C95.704 107.165 95.3914 107.505 94.9714 107.748C94.5607 107.981 94.08 108.098 93.5294 108.098C92.904 108.098 92.3534 107.949 91.8774 107.65C91.4107 107.351 91.0467 106.931 90.7854 106.39C90.5334 105.839 90.4074 105.2 90.4074 104.472C90.4074 103.744 90.538 103.105 90.7994 102.554C91.0607 101.994 91.4247 101.56 91.8914 101.252C92.3674 100.944 92.9134 100.79 93.5294 100.79C94.08 100.79 94.5607 100.911 94.9714 101.154C95.382 101.397 95.6947 101.737 95.9094 102.176V100.958H97.0294ZM93.7534 107.16C94.444 107.16 94.976 106.927 95.3494 106.46C95.7227 105.984 95.9094 105.312 95.9094 104.444C95.9094 103.576 95.7227 102.909 95.3494 102.442C94.976 101.975 94.444 101.742 93.7534 101.742C93.0627 101.742 92.5214 101.985 92.1294 102.47C91.7467 102.946 91.5554 103.613 91.5554 104.472C91.5554 105.331 91.7467 105.993 92.1294 106.46C92.512 106.927 93.0534 107.16 93.7534 107.16ZM99.2219 97.696H100.356V108H99.2219V97.696ZM104.938 108.098C103.752 108.098 102.814 107.795 102.124 107.188L102.502 106.348C102.884 106.647 103.272 106.861 103.664 106.992C104.056 107.123 104.494 107.188 104.98 107.188C105.512 107.188 105.913 107.099 106.184 106.922C106.464 106.735 106.604 106.469 106.604 106.124C106.604 105.844 106.51 105.62 106.324 105.452C106.137 105.284 105.829 105.153 105.4 105.06L104.21 104.78C103.622 104.649 103.164 104.416 102.838 104.08C102.52 103.744 102.362 103.343 102.362 102.876C102.362 102.26 102.609 101.761 103.104 101.378C103.598 100.986 104.252 100.79 105.064 100.79C105.558 100.79 106.025 100.869 106.464 101.028C106.902 101.187 107.271 101.415 107.57 101.714L107.192 102.54C106.529 101.989 105.82 101.714 105.064 101.714C104.56 101.714 104.168 101.812 103.888 102.008C103.617 102.195 103.482 102.461 103.482 102.806C103.482 103.095 103.566 103.324 103.734 103.492C103.911 103.66 104.191 103.791 104.574 103.884L105.764 104.178C106.417 104.327 106.902 104.561 107.22 104.878C107.537 105.186 107.696 105.592 107.696 106.096C107.696 106.703 107.448 107.188 106.954 107.552C106.459 107.916 105.787 108.098 104.938 108.098ZM115.397 104.444H110.231C110.24 105.34 110.446 106.017 110.847 106.474C111.258 106.931 111.85 107.16 112.625 107.16C113.446 107.16 114.202 106.885 114.893 106.334L115.271 107.16C114.963 107.449 114.566 107.678 114.081 107.846C113.605 108.014 113.115 108.098 112.611 108.098C111.51 108.098 110.646 107.776 110.021 107.132C109.396 106.479 109.083 105.587 109.083 104.458C109.083 103.739 109.223 103.105 109.503 102.554C109.783 101.994 110.175 101.56 110.679 101.252C111.183 100.944 111.757 100.79 112.401 100.79C113.334 100.79 114.067 101.098 114.599 101.714C115.131 102.321 115.397 103.161 115.397 104.234V104.444ZM112.415 101.672C111.827 101.672 111.346 101.849 110.973 102.204C110.609 102.559 110.376 103.058 110.273 103.702H114.375C114.319 103.039 114.123 102.535 113.787 102.19C113.46 101.845 113.003 101.672 112.415 101.672ZM120.909 98.032H124.885C125.911 98.032 126.709 98.2793 127.279 98.774C127.857 99.2687 128.147 99.95 128.147 100.818C128.147 101.686 127.857 102.372 127.279 102.876C126.7 103.371 125.902 103.618 124.885 103.618H122.057V108H120.909V98.032ZM124.787 102.666C125.524 102.666 126.079 102.507 126.453 102.19C126.826 101.873 127.013 101.415 127.013 100.818C127.013 100.221 126.826 99.768 126.453 99.46C126.079 99.1427 125.524 98.984 124.787 98.984H122.057V102.666H124.787ZM132.581 108.098C131.918 108.098 131.335 107.949 130.831 107.65C130.327 107.351 129.935 106.927 129.655 106.376C129.384 105.825 129.249 105.181 129.249 104.444C129.249 103.707 129.384 103.063 129.655 102.512C129.935 101.961 130.327 101.537 130.831 101.238C131.335 100.939 131.918 100.79 132.581 100.79C133.244 100.79 133.827 100.939 134.331 101.238C134.835 101.537 135.222 101.961 135.493 102.512C135.773 103.063 135.913 103.707 135.913 104.444C135.913 105.181 135.773 105.825 135.493 106.376C135.222 106.927 134.835 107.351 134.331 107.65C133.827 107.949 133.244 108.098 132.581 108.098ZM132.581 107.16C133.281 107.16 133.818 106.931 134.191 106.474C134.564 106.007 134.751 105.331 134.751 104.444C134.751 103.585 134.56 102.923 134.177 102.456C133.794 101.98 133.262 101.742 132.581 101.742C131.89 101.742 131.354 101.98 130.971 102.456C130.588 102.923 130.397 103.585 130.397 104.444C130.397 105.331 130.584 106.007 130.957 106.474C131.34 106.931 131.881 107.16 132.581 107.16ZM140.061 108.098C138.876 108.098 137.938 107.795 137.247 107.188L137.625 106.348C138.008 106.647 138.395 106.861 138.787 106.992C139.179 107.123 139.618 107.188 140.103 107.188C140.635 107.188 141.036 107.099 141.307 106.922C141.587 106.735 141.727 106.469 141.727 106.124C141.727 105.844 141.634 105.62 141.447 105.452C141.26 105.284 140.952 105.153 140.523 105.06L139.333 104.78C138.745 104.649 138.288 104.416 137.961 104.08C137.644 103.744 137.485 103.343 137.485 102.876C137.485 102.26 137.732 101.761 138.227 101.378C138.722 100.986 139.375 100.79 140.187 100.79C140.682 100.79 141.148 100.869 141.587 101.028C142.026 101.187 142.394 101.415 142.693 101.714L142.315 102.54C141.652 101.989 140.943 101.714 140.187 101.714C139.683 101.714 139.291 101.812 139.011 102.008C138.74 102.195 138.605 102.461 138.605 102.806C138.605 103.095 138.689 103.324 138.857 103.492C139.034 103.66 139.314 103.791 139.697 103.884L140.887 104.178C141.54 104.327 142.026 104.561 142.343 104.878C142.66 105.186 142.819 105.592 142.819 106.096C142.819 106.703 142.572 107.188 142.077 107.552C141.582 107.916 140.91 108.098 140.061 108.098ZM144.626 100.958H145.76V108H144.626V100.958ZM145.9 97.976V99.264H144.514V97.976H145.9ZM149.474 101.854V105.704C149.474 106.227 149.581 106.595 149.796 106.81C150.011 107.015 150.314 107.118 150.706 107.118C150.967 107.118 151.219 107.076 151.462 106.992V107.958C151.173 108.051 150.846 108.098 150.482 108.098C149.81 108.098 149.283 107.911 148.9 107.538C148.527 107.155 148.34 106.595 148.34 105.858V101.854H146.968V100.958H148.34V99.152L149.474 98.746V100.958H151.49V101.854H149.474ZM152.857 100.958H153.991V108H152.857V100.958ZM154.131 97.976V99.264H152.745V97.976H154.131ZM162.381 100.972L159.343 108H158.265L155.269 100.972H156.459L158.839 106.768L161.247 100.972H162.381ZM169.442 104.444H164.276C164.285 105.34 164.491 106.017 164.892 106.474C165.303 106.931 165.895 107.16 166.67 107.16C167.491 107.16 168.247 106.885 168.938 106.334L169.316 107.16C169.008 107.449 168.611 107.678 168.126 107.846C167.65 108.014 167.16 108.098 166.656 108.098C165.555 108.098 164.691 107.776 164.066 107.132C163.441 106.479 163.128 105.587 163.128 104.458C163.128 103.739 163.268 103.105 163.548 102.554C163.828 101.994 164.22 101.56 164.724 101.252C165.228 100.944 165.802 100.79 166.446 100.79C167.379 100.79 168.112 101.098 168.644 101.714C169.176 102.321 169.442 103.161 169.442 104.234V104.444ZM166.46 101.672C165.872 101.672 165.391 101.849 165.018 102.204C164.654 102.559 164.421 103.058 164.318 103.702H168.42C168.364 103.039 168.168 102.535 167.832 102.19C167.505 101.845 167.048 101.672 166.46 101.672ZM173.543 108.098C172.358 108.098 171.42 107.795 170.729 107.188L171.107 106.348C171.49 106.647 171.877 106.861 172.269 106.992C172.661 107.123 173.1 107.188 173.585 107.188C174.117 107.188 174.519 107.099 174.789 106.922C175.069 106.735 175.209 106.469 175.209 106.124C175.209 105.844 175.116 105.62 174.929 105.452C174.743 105.284 174.435 105.153 174.005 105.06L172.815 104.78C172.227 104.649 171.77 104.416 171.443 104.08C171.126 103.744 170.967 103.343 170.967 102.876C170.967 102.26 171.215 101.761 171.709 101.378C172.204 100.986 172.857 100.79 173.669 100.79C174.164 100.79 174.631 100.869 175.069 101.028C175.508 101.187 175.877 101.415 176.175 101.714L175.797 102.54C175.135 101.989 174.425 101.714 173.669 101.714C173.165 101.714 172.773 101.812 172.493 102.008C172.223 102.195 172.087 102.461 172.087 102.806C172.087 103.095 172.171 103.324 172.339 103.492C172.517 103.66 172.797 103.791 173.179 103.884L174.369 104.178C175.023 104.327 175.508 104.561 175.825 104.878C176.143 105.186 176.301 105.592 176.301 106.096C176.301 106.703 176.054 107.188 175.559 107.552C175.065 107.916 174.393 108.098 173.543 108.098Z" fill="#DE3E3E"/>
<path d="M0 61H172" stroke="black"/>
<rect x="67" width="10" height="10" rx="3" fill="#00D9C9"/>
<path d="M53 66L45 74" stroke="#EB5353" stroke-width="1.5" stroke-linecap="round" stroke-linejoin="round"/>
<path d="M53 74L45 66" stroke="#EB5353" stroke-width="1.5" stroke-linecap="round" stroke-linejoin="round"/>
<rect width="10" height="10" rx="3" fill="#57A8F1"/>
<path d="M86.71 5.15V8.57C86.3833 8.73 85.99 8.85667 85.53 8.95C85.07 9.04333 84.6 9.09 84.12 9.09C83.3867 9.09 82.75 8.94333 82.21 8.65C81.67 8.35667 81.2567 7.93667 80.97 7.39C80.6833 6.84333 80.54 6.19 80.54 5.43C80.54 4.68333 80.6833 4.03667 80.97 3.49C81.2567 2.94333 81.6633 2.52333 82.19 2.23C82.7233 1.93667 83.3467 1.79 84.06 1.79C84.56 1.79 85.0267 1.86333 85.46 2.01C85.9 2.15667 86.2667 2.36333 86.56 2.63L86.12 3.57C85.7867 3.31 85.46 3.12333 85.14 3.01C84.82 2.89667 84.47 2.84 84.09 2.84C83.3567 2.84 82.8 3.06 82.42 3.5C82.0467 3.94 81.86 4.58333 81.86 5.43C81.86 6.30333 82.0533 6.96333 82.44 7.41C82.8267 7.85 83.4033 8.07 84.17 8.07C84.6367 8.07 85.0967 8.00667 85.55 7.88V6.08H84.01V5.15H86.71ZM90.7926 3.83C90.9859 3.83 91.1526 3.85667 91.2926 3.91L91.2826 5.05C91.0692 4.96333 90.8492 4.92 90.6226 4.92C90.1959 4.92 89.8692 5.04333 89.6426 5.29C89.4226 5.53667 89.3126 5.86333 89.3126 6.27V9H88.0726V5.38C88.0726 4.84667 88.0459 4.37 87.9926 3.95H89.1626L89.2626 4.84C89.3892 4.51333 89.5892 4.26333 89.8626 4.09C90.1359 3.91667 90.4459 3.83 90.7926 3.83ZM94.1809 9.08C93.6676 9.08 93.2143 8.97333 92.8209 8.76C92.4343 8.54667 92.1343 8.24333 91.9209 7.85C91.7143 7.45 91.6109 6.98333 91.6109 6.45C91.6109 5.91667 91.7143 5.45333 91.9209 5.06C92.1343 4.66 92.4343 4.35333 92.8209 4.14C93.2143 3.92667 93.6676 3.82 94.1809 3.82C94.6876 3.82 95.1343 3.92667 95.5209 4.14C95.9076 4.35333 96.2043 4.66 96.4109 5.06C96.6243 5.45333 96.7309 5.91667 96.7309 6.45C96.7309 6.98333 96.6243 7.45 96.4109 7.85C96.2043 8.24333 95.9076 8.54667 95.5209 8.76C95.1343 8.97333 94.6876 9.08 94.1809 9.08ZM94.1709 8.1C94.5976 8.1 94.9209 7.96333 95.1409 7.69C95.3676 7.41 95.4809 6.99667 95.4809 6.45C95.4809 5.91 95.3676 5.5 95.1409 5.22C94.9143 4.93333 94.5943 4.79 94.1809 4.79C93.7609 4.79 93.4376 4.93333 93.2109 5.22C92.9843 5.5 92.8709 5.91 92.8709 6.45C92.8709 6.99667 92.9809 7.41 93.2009 7.69C93.4276 7.96333 93.7509 8.1 94.1709 8.1ZM102.409 3.95V9H101.189V8.22C101.029 8.5 100.816 8.71333 100.549 8.86C100.282 9.00667 99.9756 9.08 99.6289 9.08C98.3956 9.08 97.7789 8.38667 97.7789 7V3.95H99.0189V7.01C99.0189 7.37667 99.0922 7.64667 99.2389 7.82C99.3922 7.99333 99.6256 8.08 99.9389 8.08C100.306 8.08 100.599 7.96 100.819 7.72C101.039 7.48 101.149 7.16 101.149 6.76V3.95H102.409ZM106.656 3.82C107.863 3.82 108.466 4.51333 108.466 5.9V9H107.216V5.96C107.216 5.56 107.139 5.27 106.986 5.09C106.833 4.90333 106.596 4.81 106.276 4.81C105.896 4.81 105.589 4.93333 105.356 5.18C105.123 5.42 105.006 5.74 105.006 6.14V9H103.766V5.38C103.766 4.84667 103.739 4.37 103.686 3.95H104.856L104.946 4.78C105.119 4.47333 105.353 4.23667 105.646 4.07C105.946 3.90333 106.283 3.82 106.656 3.82ZM114.621 1.64V9H113.391V8.19C113.238 8.47 113.018 8.69 112.731 8.85C112.445 9.00333 112.118 9.08 111.751 9.08C111.318 9.08 110.931 8.97 110.591 8.75C110.251 8.53 109.985 8.22 109.791 7.82C109.605 7.41333 109.511 6.95 109.511 6.43C109.511 5.91 109.605 5.45333 109.791 5.06C109.978 4.66667 110.241 4.36333 110.581 4.15C110.921 3.93 111.311 3.82 111.751 3.82C112.111 3.82 112.431 3.89667 112.711 4.05C112.998 4.19667 113.218 4.40667 113.371 4.68V1.64H114.621ZM112.081 8.1C112.495 8.1 112.815 7.95667 113.041 7.67C113.275 7.38333 113.391 6.97667 113.391 6.45C113.391 5.92333 113.278 5.51667 113.051 5.23C112.825 4.94333 112.505 4.8 112.091 4.8C111.671 4.8 111.345 4.94333 111.111 5.23C110.885 5.51 110.771 5.91 110.771 6.43C110.771 6.95667 110.885 7.36667 111.111 7.66C111.345 7.95333 111.668 8.1 112.081 8.1ZM120.317 4.89V7.15C120.317 7.74333 120.594 8.04 121.147 8.04C121.3 8.04 121.467 8.01333 121.647 7.96V8.95C121.427 9.03 121.16 9.07 120.847 9.07C120.274 9.07 119.834 8.91 119.527 8.59C119.22 8.27 119.067 7.81 119.067 7.21V4.89H118.097V3.95H119.067V2.72L120.317 2.3V3.95H121.657V4.89H120.317ZM125.236 3.83C125.429 3.83 125.596 3.85667 125.736 3.91L125.726 5.05C125.513 4.96333 125.293 4.92 125.066 4.92C124.639 4.92 124.313 5.04333 124.086 5.29C123.866 5.53667 123.756 5.86333 123.756 6.27V9H122.516V5.38C122.516 4.84667 122.489 4.37 122.436 3.95H123.606L123.706 4.84C123.833 4.51333 124.033 4.26333 124.306 4.09C124.579 3.91667 124.889 3.83 125.236 3.83ZM131.032 3.95V9H129.812V8.22C129.652 8.5 129.439 8.71333 129.172 8.86C128.905 9.00667 128.599 9.08 128.252 9.08C127.019 9.08 126.402 8.38667 126.402 7V3.95H127.642V7.01C127.642 7.37667 127.715 7.64667 127.862 7.82C128.015 7.99333 128.249 8.08 128.562 8.08C128.929 8.08 129.222 7.96 129.442 7.72C129.662 7.48 129.772 7.16 129.772 6.76V3.95H131.032ZM133.979 4.89V7.15C133.979 7.74333 134.256 8.04 134.809 8.04C134.962 8.04 135.129 8.01333 135.309 7.96V8.95C135.089 9.03 134.822 9.07 134.509 9.07C133.936 9.07 133.496 8.91 133.189 8.59C132.882 8.27 132.729 7.81 132.729 7.21V4.89H131.759V3.95H132.729V2.72L133.979 2.3V3.95H135.319V4.89H133.979ZM139.068 3.82C140.275 3.82 140.878 4.51333 140.878 5.9V9H139.628V5.96C139.628 5.56 139.551 5.27 139.398 5.09C139.245 4.90333 139.008 4.81 138.688 4.81C138.308 4.81 138.001 4.93333 137.768 5.18C137.535 5.42 137.418 5.74 137.418 6.14V9H136.178V1.64H137.418V4.68C137.591 4.40667 137.821 4.19667 138.108 4.05C138.395 3.89667 138.715 3.82 139.068 3.82Z" fill="#91A9C0"/>
<path d="M13.77 1.88H16.86C17.6267 1.88 18.2233 2.06667 18.65 2.44C19.0767 2.80667 19.29 3.31 19.29 3.95C19.29 4.59 19.0733 5.09667 18.64 5.47C18.2133 5.84333 17.62 6.03 16.86 6.03H15.06V9H13.77V1.88ZM16.71 5.03C17.1567 5.03 17.4933 4.94 17.72 4.76C17.9533 4.57333 18.07 4.30667 18.07 3.96C18.07 3.60667 17.9567 3.34 17.73 3.16C17.5033 2.97333 17.1633 2.88 16.71 2.88H15.06V5.03H16.71ZM22.9625 3.83C23.1558 3.83 23.3225 3.85667 23.4625 3.91L23.4525 5.05C23.2392 4.96333 23.0192 4.92 22.7925 4.92C22.3658 4.92 22.0392 5.04333 21.8125 5.29C21.5925 5.53667 21.4825 5.86333 21.4825 6.27V9H20.2425V5.38C20.2425 4.84667 20.2158 4.37 20.1625 3.95H21.3325L21.4325 4.84C21.5592 4.51333 21.7592 4.26333 22.0325 4.09C22.3058 3.91667 22.6158 3.83 22.9625 3.83ZM28.4809 6.54H25.0009C25.0275 7.08 25.1609 7.48 25.4009 7.74C25.6475 7.99333 26.0109 8.12 26.4909 8.12C27.0442 8.12 27.5575 7.94 28.0309 7.58L28.3909 8.44C28.1509 8.63333 27.8542 8.79 27.5009 8.91C27.1542 9.02333 26.8009 9.08 26.4409 9.08C25.6142 9.08 24.9642 8.84667 24.4909 8.38C24.0175 7.91333 23.7809 7.27333 23.7809 6.46C23.7809 5.94667 23.8842 5.49 24.0909 5.09C24.2975 4.69 24.5875 4.38 24.9609 4.16C25.3342 3.93333 25.7575 3.82 26.2309 3.82C26.9242 3.82 27.4709 4.04667 27.8709 4.5C28.2775 4.94667 28.4809 5.56333 28.4809 6.35V6.54ZM26.2609 4.72C25.9275 4.72 25.6542 4.82 25.4409 5.02C25.2342 5.21333 25.1009 5.49667 25.0409 5.87H27.3909C27.3509 5.49 27.2342 5.20333 27.0409 5.01C26.8542 4.81667 26.5942 4.72 26.2609 4.72ZM34.3694 1.64V9H33.1394V8.19C32.986 8.47 32.766 8.69 32.4794 8.85C32.1927 9.00333 31.866 9.08 31.4994 9.08C31.066 9.08 30.6794 8.97 30.3394 8.75C29.9994 8.53 29.7327 8.22 29.5394 7.82C29.3527 7.41333 29.2594 6.95 29.2594 6.43C29.2594 5.91 29.3527 5.45333 29.5394 5.06C29.726 4.66667 29.9894 4.36333 30.3294 4.15C30.6694 3.93 31.0594 3.82 31.4994 3.82C31.8594 3.82 32.1794 3.89667 32.4594 4.05C32.746 4.19667 32.966 4.40667 33.1194 4.68V1.64H34.3694ZM31.8294 8.1C32.2427 8.1 32.5627 7.95667 32.7894 7.67C33.0227 7.38333 33.1394 6.97667 33.1394 6.45C33.1394 5.92333 33.026 5.51667 32.7994 5.23C32.5727 4.94333 32.2527 4.8 31.8394 4.8C31.4194 4.8 31.0927 4.94333 30.8594 5.23C30.6327 5.51 30.5194 5.91 30.5194 6.43C30.5194 6.95667 30.6327 7.36667 30.8594 7.66C31.0927 7.95333 31.416 8.1 31.8294 8.1ZM35.7308 3.95H36.9708V9H35.7308V3.95ZM37.0408 1.66V2.89H35.6508V1.66H37.0408ZM40.6282 9.08C40.1015 9.08 39.6449 8.97333 39.2582 8.76C38.8715 8.54667 38.5749 8.24667 38.3682 7.86C38.1615 7.46667 38.0582 7.00667 38.0582 6.48C38.0582 5.95333 38.1649 5.49 38.3782 5.09C38.5982 4.69 38.9049 4.38 39.2982 4.16C39.6982 3.93333 40.1582 3.82 40.6782 3.82C41.0382 3.82 41.3849 3.87667 41.7182 3.99C42.0582 4.10333 42.3282 4.26 42.5282 4.46L42.1782 5.34C41.9649 5.16667 41.7382 5.03667 41.4982 4.95C41.2582 4.85667 41.0215 4.81 40.7882 4.81C40.3349 4.81 39.9815 4.95333 39.7282 5.24C39.4749 5.52 39.3482 5.92667 39.3482 6.46C39.3482 6.99333 39.4715 7.4 39.7182 7.68C39.9715 7.96 40.3282 8.1 40.7882 8.1C41.0215 8.1 41.2582 8.05333 41.4982 7.96C41.7382 7.86667 41.9649 7.73333 42.1782 7.56L42.5282 8.44C42.3149 8.64 42.0382 8.79667 41.6982 8.91C41.3582 9.02333 41.0015 9.08 40.6282 9.08ZM44.9868 4.89V7.15C44.9868 7.74333 45.2635 8.04 45.8168 8.04C45.9701 8.04 46.1368 8.01333 46.3168 7.96V8.95C46.0968 9.03 45.8301 9.07 45.5168 9.07C44.9435 9.07 44.5035 8.91 44.1968 8.59C43.8901 8.27 43.7368 7.81 43.7368 7.21V4.89H42.7668V3.95H43.7368V2.72L44.9868 2.3V3.95H46.3268V4.89H44.9868ZM51.6059 6.54H48.1259C48.1525 7.08 48.2859 7.48 48.5259 7.74C48.7725 7.99333 49.1359 8.12 49.6159 8.12C50.1692 8.12 50.6825 7.94 51.1559 7.58L51.5159 8.44C51.2759 8.63333 50.9792 8.79 50.6259 8.91C50.2792 9.02333 49.9259 9.08 49.5659 9.08C48.7392 9.08 48.0892 8.84667 47.6159 8.38C47.1425 7.91333 46.9059 7.27333 46.9059 6.46C46.9059 5.94667 47.0092 5.49 47.2159 5.09C47.4225 4.69 47.7125 4.38 48.0859 4.16C48.4592 3.93333 48.8825 3.82 49.3559 3.82C50.0492 3.82 50.5959 4.04667 50.9959 4.5C51.4025 4.94667 51.6059 5.56333 51.6059 6.35V6.54ZM49.3859 4.72C49.0525 4.72 48.7792 4.82 48.5659 5.02C48.3592 5.21333 48.2259 5.49667 48.1659 5.87H50.5159C50.4759 5.49 50.3592 5.20333 50.1659 5.01C49.9792 4.81667 49.7192 4.72 49.3859 4.72ZM57.4944 1.64V9H56.2644V8.19C56.111 8.47 55.891 8.69 55.6044 8.85C55.3177 9.00333 54.991 9.08 54.6244 9.08C54.191 9.08 53.8044 8.97 53.4644 8.75C53.1244 8.53 52.8577 8.22 52.6644 7.82C52.4777 7.41333 52.3844 6.95 52.3844 6.43C52.3844 5.91 52.4777 5.45333 52.6644 5.06C52.851 4.66667 53.1144 4.36333 53.4544 4.15C53.7944 3.93 54.1844 3.82 54.6244 3.82C54.9844 3.82 55.3044 3.89667 55.5844 4.05C55.871 4.19667 56.091 4.40667 56.2444 4.68V1.64H57.4944ZM54.9544 8.1C55.3677 8.1 55.6877 7.95667 55.9144 7.67C56.1477 7.38333 56.2644 6.97667 56.2644 6.45C56.2644 5.92333 56.151 5.51667 55.9244 5.23C55.6977 4.94333 55.3777 4.8 54.9644 4.8C54.5444 4.8 54.2177 4.94333 53.9844 5.23C53.7577 5.51 53.6444 5.91 53.6444 6.43C53.6444 6.95667 53.7577 7.36667 53.9844 7.66C54.2177 7.95333 54.541 8.1 54.9544 8.1Z" fill="#91A9C0"/>
<path d="M23 71.4737L25.6667 74L31 66" stroke="#00D9C9" stroke-width="1.5" stroke-linecap="round" stroke-linejoin="round"/>
<path d="M54 25.4737L56.6667 28L62 20" stroke="#00D9C9" stroke-width="1.5" stroke-linecap="round" stroke-linejoin="round"/>
<path fill-rule="evenodd" clip-rule="evenodd" d="M15.676 72.0986C14.8874 70.8845 13.1101 70.8845 12.3215 72.0986L8.21116 78.4269C7.3837 79.7008 8.22391 81.3674 9.68951 81.5069L8.0844 83.3659C7.99812 83.4658 7.92195 83.574 7.857 83.6889L5.68511 87.5321C5.10397 88.5604 5.54407 89.7776 6.47844 90.2806C6.47244 90.2925 6.46655 90.3044 6.46078 90.3164L4.37768 94.6496C3.73937 95.9773 4.70698 97.5161 6.1802 97.5161H11.9885C11.987 97.5478 11.9862 97.5797 11.9862 97.6118V101.978C11.9862 103.033 12.8412 103.888 13.8959 103.888C14.9506 103.888 15.8056 103.033 15.8056 101.978V97.6118C15.8056 97.5797 15.8048 97.5478 15.8033 97.5161H21.819C23.2923 97.5161 24.2599 95.9773 23.6216 94.6496L21.5385 90.3164C21.5326 90.3042 21.5266 90.292 21.5204 90.2799C22.4539 89.7765 22.8933 88.5599 22.3124 87.5321L20.1405 83.6889C20.0756 83.574 19.9994 83.4658 19.9131 83.3659L18.308 81.5069C19.7736 81.3674 20.6138 79.7008 19.7864 78.4269L15.676 72.0986Z" fill="#DAE4ED"/>
<mask id="path-15-inside-1" fill="white">
<path fill-rule="evenodd" clip-rule="evenodd" d="M18.6279 68.5138C17.8575 67.1836 15.9369 67.1836 15.1665 68.5138L8.38139 80.2292C7.80866 81.2181 8.18995 82.3917 9.0538 82.932L5.89991 88.422C5.33567 89.4042 5.70935 90.5652 6.55996 91.1086C6.50304 91.1818 6.45117 91.2591 6.40479 91.3398L3.26877 96.7987C2.5028 98.132 3.46528 99.795 5.00297 99.795H14.7039V103.888C14.7039 104.992 15.5994 105.888 16.7039 105.888H17.0895C18.1941 105.888 19.0895 104.992 19.0895 103.888V99.795H28.791C30.3287 99.795 31.2912 98.132 30.5252 96.7987L27.3892 91.3398C27.3428 91.259 27.2909 91.1817 27.2339 91.1084C28.0843 90.565 28.4579 89.4041 27.8937 88.422L24.74 82.9324C25.6043 82.3922 25.9859 81.2183 25.413 80.2292L18.6279 68.5138Z"/>
</mask>
<path fill-rule="evenodd" clip-rule="evenodd" d="M18.6279 68.5138C17.8575 67.1836 15.9369 67.1836 15.1665 68.5138L8.38139 80.2292C7.80866 81.2181 8.18995 82.3917 9.0538 82.932L5.89991 88.422C5.33567 89.4042 5.70935 90.5652 6.55996 91.1086C6.50304 91.1818 6.45117 91.2591 6.40479 91.3398L3.26877 96.7987C2.5028 98.132 3.46528 99.795 5.00297 99.795H14.7039V103.888C14.7039 104.992 15.5994 105.888 16.7039 105.888H17.0895C18.1941 105.888 19.0895 104.992 19.0895 103.888V99.795H28.791C30.3287 99.795 31.2912 98.132 30.5252 96.7987L27.3892 91.3398C27.3428 91.259 27.2909 91.1817 27.2339 91.1084C28.0843 90.565 28.4579 89.4041 27.8937 88.422L24.74 82.9324C25.6043 82.3922 25.9859 81.2183 25.413 80.2292L18.6279 68.5138Z" fill="#5EB8EB" fill-opacity="0.2"/>
<path d="M15.1665 68.5138L16.0319 69.0149V69.0149L15.1665 68.5138ZM18.6279 68.5138L19.4932 68.0126L19.4932 68.0126L18.6279 68.5138ZM8.38139 80.2292L7.51605 79.728H7.51605L8.38139 80.2292ZM9.0538 82.932L9.9209 83.4301L10.4007 82.5949L9.58409 82.0842L9.0538 82.932ZM5.89991 88.422L5.03281 87.9238L5.89991 88.422ZM6.55996 91.1086L7.34948 91.7223L8.02262 90.8564L7.09834 90.2659L6.55996 91.1086ZM6.40479 91.3398L7.2719 91.8379L7.2719 91.8379L6.40479 91.3398ZM3.26877 96.7987L4.13587 97.2968H4.13587L3.26877 96.7987ZM14.7039 99.795H15.7039V98.795H14.7039V99.795ZM19.0895 99.795V98.795H18.0895V99.795H19.0895ZM30.5252 96.7987L29.6581 97.2968L30.5252 96.7987ZM27.3892 91.3398L28.2563 90.8417H28.2563L27.3892 91.3398ZM27.2339 91.1084L26.6954 90.2658L25.7712 90.8564L26.4445 91.7223L27.2339 91.1084ZM27.8937 88.422L27.0266 88.9201L27.8937 88.422ZM24.74 82.9324L24.21 82.0844L23.3929 82.595L23.8729 83.4305L24.74 82.9324ZM25.413 80.2292L24.5477 80.7304L24.5477 80.7304L25.413 80.2292ZM16.0319 69.0149C16.4171 68.3498 17.3774 68.3498 17.7626 69.0149L19.4932 68.0126C18.3376 66.0173 15.4568 66.0173 14.3012 68.0126L16.0319 69.0149ZM9.24674 80.7304L16.0319 69.0149L14.3012 68.0126L7.51605 79.728L9.24674 80.7304ZM9.58409 82.0842C9.14234 81.8079 8.96434 81.218 9.24674 80.7304L7.51605 79.728C6.65297 81.2182 7.23756 82.9755 8.52351 83.7798L9.58409 82.0842ZM6.76702 88.9201L9.9209 83.4301L8.1867 82.4339L5.03281 87.9238L6.76702 88.9201ZM7.09834 90.2659C6.6631 89.9879 6.48877 89.4044 6.76702 88.9201L5.03281 87.9238C4.18257 89.4039 4.7556 91.1425 6.02159 91.9513L7.09834 90.2659ZM7.2719 91.8379C7.29507 91.7976 7.321 91.759 7.34948 91.7223L5.77044 90.4949C5.68507 90.6047 5.60727 90.7206 5.53769 90.8417L7.2719 91.8379ZM4.13587 97.2968L7.2719 91.8379L5.53769 90.8417L2.40167 96.3006L4.13587 97.2968ZM5.00297 98.795C4.23413 98.795 3.75288 97.9635 4.13587 97.2968L2.40167 96.3006C1.25271 98.3006 2.69644 100.795 5.00297 100.795V98.795ZM14.7039 98.795H5.00297V100.795H14.7039V98.795ZM15.7039 103.888V99.795H13.7039V103.888H15.7039ZM16.7039 104.888C16.1516 104.888 15.7039 104.44 15.7039 103.888H13.7039C13.7039 105.545 15.0471 106.888 16.7039 106.888V104.888ZM17.0895 104.888H16.7039V106.888H17.0895V104.888ZM18.0895 103.888C18.0895 104.44 17.6418 104.888 17.0895 104.888V106.888C18.7464 106.888 20.0895 105.545 20.0895 103.888H18.0895ZM18.0895 99.795V103.888H20.0895V99.795H18.0895ZM28.791 98.795H19.0895V100.795H28.791V98.795ZM29.6581 97.2968C30.0411 97.9635 29.5599 98.795 28.791 98.795V100.795C31.0976 100.795 32.5413 98.3006 31.3923 96.3006L29.6581 97.2968ZM26.5221 91.8379L29.6581 97.2968L31.3923 96.3006L28.2563 90.8417L26.5221 91.8379ZM26.4445 91.7223C26.4729 91.7589 26.4989 91.7976 26.5221 91.8379L28.2563 90.8417C28.1867 90.7205 28.1088 90.6045 28.0234 90.4946L26.4445 91.7223ZM27.0266 88.9201C27.3048 89.4044 27.1305 89.9877 26.6954 90.2658L27.7724 91.9511C29.0381 91.1422 29.6109 89.4037 28.7608 87.9238L27.0266 88.9201ZM23.8729 83.4305L27.0266 88.9201L28.7608 87.9238L25.6071 82.4342L23.8729 83.4305ZM24.5477 80.7304C24.8301 81.2181 24.652 81.8082 24.21 82.0844L25.27 83.7804C26.5566 82.9763 27.1417 81.2186 26.2784 79.728L24.5477 80.7304ZM17.7626 69.0149L24.5477 80.7304L26.2784 79.728L19.4932 68.0126L17.7626 69.0149Z" fill="#57A8F1" mask="url(#path-15-inside-1)"/>
<mask id="path-17-inside-2" fill="white">
<path fill-rule="evenodd" clip-rule="evenodd" d="M65.3229 81.525C64.5525 80.1948 62.6319 80.1948 61.8615 81.525L57.952 88.2753C57.4735 89.1014 57.6609 90.0565 58.2392 90.6635L58.1926 90.7166C58.105 90.8163 58.0276 90.9245 57.9615 91.0396L56.1619 94.1723C55.6736 95.0222 55.8877 96.0062 56.5055 96.6078L56.4339 96.6686C56.2579 96.818 56.109 96.9969 55.9939 97.1971L54.2688 100.2C53.5028 101.533 54.4653 103.196 56.003 103.196H62.0144V106.003C62.0144 106.874 62.7209 107.581 63.5923 107.581C64.4638 107.581 65.1702 106.874 65.1702 106.003V103.196H71.1824C72.7201 103.196 73.6826 101.533 72.9166 100.2L71.1914 97.1971C71.0764 96.9969 70.9275 96.818 70.7514 96.6686L70.6795 96.6075C71.297 96.0058 71.511 95.0221 71.0228 94.1723L69.2232 91.0396C69.157 90.9245 69.0796 90.8163 68.9921 90.7166L68.9454 90.6633C69.5236 90.0563 69.7109 89.1014 69.2324 88.2753L65.3229 81.525Z"/>
</mask>
<path fill-rule="evenodd" clip-rule="evenodd" d="M65.3229 81.525C64.5525 80.1948 62.6319 80.1948 61.8615 81.525L57.952 88.2753C57.4735 89.1014 57.6609 90.0565 58.2392 90.6635L58.1926 90.7166C58.105 90.8163 58.0276 90.9245 57.9615 91.0396L56.1619 94.1723C55.6736 95.0222 55.8877 96.0062 56.5055 96.6078L56.4339 96.6686C56.2579 96.818 56.109 96.9969 55.9939 97.1971L54.2688 100.2C53.5028 101.533 54.4653 103.196 56.003 103.196H62.0144V106.003C62.0144 106.874 62.7209 107.581 63.5923 107.581C64.4638 107.581 65.1702 106.874 65.1702 106.003V103.196H71.1824C72.7201 103.196 73.6826 101.533 72.9166 100.2L71.1914 97.1971C71.0764 96.9969 70.9275 96.818 70.7514 96.6686L70.6795 96.6075C71.297 96.0058 71.511 95.0221 71.0228 94.1723L69.2232 91.0396C69.157 90.9245 69.0796 90.8163 68.9921 90.7166L68.9454 90.6633C69.5236 90.0563 69.7109 89.1014 69.2324 88.2753L65.3229 81.525Z" fill="#5EB8EB" fill-opacity="0.2"/>
<path d="M61.8615 81.525L62.7269 82.0262V82.0262L61.8615 81.525ZM65.3229 81.525L64.4576 82.0262V82.0262L65.3229 81.525ZM57.952 88.2753L58.8174 88.7765L57.952 88.2753ZM58.2392 90.6635L58.9908 91.3231L59.594 90.6358L58.9632 89.9737L58.2392 90.6635ZM58.1926 90.7166L58.9442 91.3762L58.9442 91.3762L58.1926 90.7166ZM57.9615 91.0396L57.0944 90.5415L57.0944 90.5415L57.9615 91.0396ZM56.1619 94.1723L57.029 94.6704V94.6704L56.1619 94.1723ZM56.5055 96.6078L57.1526 97.3702L57.991 96.6587L57.2032 95.8915L56.5055 96.6078ZM56.4339 96.6686L57.081 97.431H57.081L56.4339 96.6686ZM55.9939 97.1971L56.861 97.6953L56.861 97.6953L55.9939 97.1971ZM54.2688 100.2L55.1359 100.698H55.1359L54.2688 100.2ZM62.0144 103.196H63.0144V102.196H62.0144V103.196ZM65.1702 103.196V102.196H64.1702V103.196H65.1702ZM72.9166 100.2L72.0495 100.698L72.9166 100.2ZM71.1914 97.1971L70.3243 97.6953L70.3243 97.6953L71.1914 97.1971ZM70.7514 96.6686L71.3985 95.9062L71.3985 95.9062L70.7514 96.6686ZM70.6795 96.6075L69.9816 95.8913L69.1942 96.6585L70.0324 97.3699L70.6795 96.6075ZM71.0228 94.1723L70.1557 94.6704V94.6704L71.0228 94.1723ZM69.2232 91.0396L68.356 91.5378V91.5378L69.2232 91.0396ZM68.9921 90.7166L69.7436 90.0569L69.7436 90.0569L68.9921 90.7166ZM68.9454 90.6633L68.2213 89.9736L67.5906 90.6358L68.1938 91.323L68.9454 90.6633ZM69.2324 88.2753L68.3671 88.7765L69.2324 88.2753ZM62.7269 82.0262C63.1121 81.3611 64.0724 81.3611 64.4576 82.0262L66.1883 81.0238C65.0327 79.0285 62.1518 79.0285 60.9962 81.0238L62.7269 82.0262ZM58.8174 88.7765L62.7269 82.0262L60.9962 81.0238L57.0867 87.7741L58.8174 88.7765ZM58.9632 89.9737C58.6646 89.6602 58.5803 89.1858 58.8174 88.7765L57.0867 87.7741C56.3668 89.0171 56.6572 90.4527 57.5152 91.3532L58.9632 89.9737ZM58.9442 91.3762L58.9908 91.3231L57.4876 90.0038L57.441 90.0569L58.9442 91.3762ZM58.8286 91.5378C58.8617 91.4802 58.9004 91.4261 58.9442 91.3762L57.441 90.0569C57.3097 90.2065 57.1936 90.3689 57.0944 90.5415L58.8286 91.5378ZM57.029 94.6704L58.8286 91.5378L57.0944 90.5415L55.2948 93.6741L57.029 94.6704ZM57.2032 95.8915C56.8843 95.5808 56.7873 95.091 57.029 94.6704L55.2948 93.6741C54.5598 94.9534 54.8912 96.4315 55.8078 97.3242L57.2032 95.8915ZM57.081 97.431L57.1526 97.3702L55.8584 95.8454L55.7868 95.9062L57.081 97.431ZM56.861 97.6953C56.9186 97.5951 56.993 97.5057 57.081 97.431L55.7868 95.9062C55.5227 96.1304 55.2994 96.3986 55.1268 96.699L56.861 97.6953ZM55.1359 100.698L56.861 97.6953L55.1268 96.699L53.4017 99.702L55.1359 100.698ZM56.003 102.196C55.2341 102.196 54.7529 101.365 55.1359 100.698L53.4017 99.702C52.2527 101.702 53.6964 104.196 56.003 104.196V102.196ZM62.0144 102.196H56.003V104.196H62.0144V102.196ZM63.0144 106.003V103.196H61.0144V106.003H63.0144ZM63.5923 106.581C63.2732 106.581 63.0144 106.322 63.0144 106.003H61.0144C61.0144 107.426 62.1686 108.581 63.5923 108.581V106.581ZM64.1702 106.003C64.1702 106.322 63.9115 106.581 63.5923 106.581V108.581C65.0161 108.581 66.1702 107.426 66.1702 106.003H64.1702ZM64.1702 103.196V106.003H66.1702V103.196H64.1702ZM71.1824 102.196H65.1702V104.196H71.1824V102.196ZM72.0495 100.698C72.4325 101.365 71.9512 102.196 71.1824 102.196V104.196C73.4889 104.196 74.9327 101.702 73.7837 99.702L72.0495 100.698ZM70.3243 97.6953L72.0495 100.698L73.7837 99.702L72.0585 96.699L70.3243 97.6953ZM70.1043 97.431C70.1924 97.5057 70.2668 97.5951 70.3243 97.6953L72.0585 96.699C71.8859 96.3986 71.6626 96.1304 71.3985 95.9062L70.1043 97.431ZM70.0324 97.3699L70.1043 97.431L71.3985 95.9062L71.3266 95.8451L70.0324 97.3699ZM70.1557 94.6704C70.3973 95.091 70.3004 95.5807 69.9816 95.8913L71.3774 97.3238C72.2936 96.431 72.6247 94.9532 71.8899 93.6741L70.1557 94.6704ZM68.356 91.5378L70.1557 94.6704L71.8899 93.6741L70.0903 90.5415L68.356 91.5378ZM68.2405 91.3762C68.2843 91.4261 68.323 91.4802 68.356 91.5378L70.0903 90.5415C69.9911 90.3689 69.875 90.2065 69.7436 90.0569L68.2405 91.3762ZM68.1938 91.323L68.2405 91.3762L69.7436 90.0569L69.6969 90.0037L68.1938 91.323ZM68.3671 88.7765C68.6041 89.1858 68.5199 89.6601 68.2213 89.9736L69.6694 91.3531C70.5272 90.4525 70.8176 89.017 70.0978 87.7741L68.3671 88.7765ZM64.4576 82.0262L68.3671 88.7765L70.0978 87.7741L66.1883 81.0238L64.4576 82.0262Z" fill="#57A8F1" mask="url(#path-17-inside-2)"/>
<path fill-rule="evenodd" clip-rule="evenodd" d="M40.9131 71.1573C40.6282 69.2342 38.0444 68.8071 37.1558 70.5363L35.2025 74.3376C34.6092 75.4923 35.2561 76.8975 36.5192 77.1975L38.8299 77.7464L37.422 79.2664C37.3304 79.3653 37.249 79.4733 37.1791 79.5886L35.9091 81.6834C35.3595 82.5901 35.6276 83.6538 36.3294 84.2514L36.1258 84.6195L34.468 87.8341C33.7974 89.1344 34.7042 90.6911 36.166 90.7493L40.5607 90.924C40.6232 90.9265 40.6852 90.9261 40.7465 90.9229V94.0862C40.7465 94.9921 41.4808 95.7264 42.3867 95.7264C43.2926 95.7264 44.027 94.9921 44.027 94.0862V90.8124C44.027 89.9867 43.4168 89.3035 42.6228 89.1891C42.6272 89.1559 42.6307 89.1226 42.6335 89.0889L42.9853 84.795C42.9949 84.6782 42.9942 84.5608 42.9832 84.4442L42.6068 80.447C42.5792 80.154 42.4974 79.8927 42.3752 79.6659C42.4415 79.4643 42.4755 79.2532 42.4755 79.0404V78.913C42.4755 78.0035 41.9177 77.3301 41.2054 77.0509C41.5008 76.6483 41.65 76.1315 41.568 75.5781L40.9131 71.1573Z" fill="#DAE4ED"/>
<mask id="path-20-inside-3" fill="white">
<path fill-rule="evenodd" clip-rule="evenodd" d="M15.6279 68.5138C14.8575 67.1836 12.9369 67.1836 12.1665 68.5138L5.38139 80.2292C4.80866 81.2181 5.18995 82.3917 6.0538 82.932L2.89991 88.422C2.33567 89.4042 2.70935 90.5652 3.55996 91.1086C3.50304 91.1818 3.45117 91.2591 3.40479 91.3398L0.268768 96.7987C-0.497203 98.132 0.465285 99.795 2.00297 99.795H11.7039V103.888C11.7039 104.992 12.5994 105.888 13.7039 105.888H14.0895C15.1941 105.888 16.0895 104.992 16.0895 103.888V99.795H25.791C27.3287 99.795 28.2912 98.132 27.5252 96.7987L24.3892 91.3398C24.3428 91.259 24.2909 91.1817 24.2339 91.1084C25.0843 90.565 25.4579 89.4041 24.8937 88.422L21.74 82.9324C22.6043 82.3922 22.9859 81.2183 22.413 80.2292L15.6279 68.5138Z"/>
</mask>
<path fill-rule="evenodd" clip-rule="evenodd" d="M15.6279 68.5138C14.8575 67.1836 12.9369 67.1836 12.1665 68.5138L5.38139 80.2292C4.80866 81.2181 5.18995 82.3917 6.0538 82.932L2.89991 88.422C2.33567 89.4042 2.70935 90.5652 3.55996 91.1086C3.50304 91.1818 3.45117 91.2591 3.40479 91.3398L0.268768 96.7987C-0.497203 98.132 0.465285 99.795 2.00297 99.795H11.7039V103.888C11.7039 104.992 12.5994 105.888 13.7039 105.888H14.0895C15.1941 105.888 16.0895 104.992 16.0895 103.888V99.795H25.791C27.3287 99.795 28.2912 98.132 27.5252 96.7987L24.3892 91.3398C24.3428 91.259 24.2909 91.1817 24.2339 91.1084C25.0843 90.565 25.4579 89.4041 24.8937 88.422L21.74 82.9324C22.6043 82.3922 22.9859 81.2183 22.413 80.2292L15.6279 68.5138Z" fill="#5EEBDC" fill-opacity="0.2"/>
<path d="M12.1665 68.5138L13.0319 69.0149V69.0149L12.1665 68.5138ZM15.6279 68.5138L16.4932 68.0126L16.4932 68.0126L15.6279 68.5138ZM5.38139 80.2292L4.51605 79.728H4.51605L5.38139 80.2292ZM6.0538 82.932L6.9209 83.4301L7.40069 82.5949L6.58409 82.0842L6.0538 82.932ZM2.89991 88.422L2.03281 87.9238L2.89991 88.422ZM3.55996 91.1086L4.34948 91.7223L5.02262 90.8564L4.09834 90.2659L3.55996 91.1086ZM3.40479 91.3398L4.2719 91.8379L4.2719 91.8379L3.40479 91.3398ZM0.268768 96.7987L1.13587 97.2968H1.13587L0.268768 96.7987ZM11.7039 99.795H12.7039V98.795H11.7039V99.795ZM16.0895 99.795V98.795H15.0895V99.795H16.0895ZM27.5252 96.7987L26.6581 97.2968L27.5252 96.7987ZM24.3892 91.3398L25.2563 90.8417H25.2563L24.3892 91.3398ZM24.2339 91.1084L23.6954 90.2658L22.7712 90.8564L23.4445 91.7223L24.2339 91.1084ZM24.8937 88.422L24.0266 88.9201L24.8937 88.422ZM21.74 82.9324L21.21 82.0844L20.3929 82.595L20.8729 83.4305L21.74 82.9324ZM22.413 80.2292L21.5477 80.7304L21.5477 80.7304L22.413 80.2292ZM13.0319 69.0149C13.4171 68.3498 14.3774 68.3498 14.7626 69.0149L16.4932 68.0126C15.3376 66.0173 12.4568 66.0173 11.3012 68.0126L13.0319 69.0149ZM6.24674 80.7304L13.0319 69.0149L11.3012 68.0126L4.51605 79.728L6.24674 80.7304ZM6.58409 82.0842C6.14234 81.8079 5.96434 81.218 6.24674 80.7304L4.51605 79.728C3.65297 81.2182 4.23756 82.9755 5.52351 83.7798L6.58409 82.0842ZM3.76702 88.9201L6.9209 83.4301L5.1867 82.4339L2.03281 87.9238L3.76702 88.9201ZM4.09834 90.2659C3.6631 89.9879 3.48877 89.4044 3.76702 88.9201L2.03281 87.9238C1.18257 89.4039 1.7556 91.1425 3.02159 91.9513L4.09834 90.2659ZM4.2719 91.8379C4.29507 91.7976 4.321 91.759 4.34948 91.7223L2.77044 90.4949C2.68507 90.6047 2.60727 90.7206 2.53769 90.8417L4.2719 91.8379ZM1.13587 97.2968L4.2719 91.8379L2.53769 90.8417L-0.598334 96.3006L1.13587 97.2968ZM2.00297 98.795C1.23413 98.795 0.752883 97.9635 1.13587 97.2968L-0.598334 96.3006C-1.74729 98.3006 -0.303558 100.795 2.00297 100.795V98.795ZM11.7039 98.795H2.00297V100.795H11.7039V98.795ZM12.7039 103.888V99.795H10.7039V103.888H12.7039ZM13.7039 104.888C13.1516 104.888 12.7039 104.44 12.7039 103.888H10.7039C10.7039 105.545 12.0471 106.888 13.7039 106.888V104.888ZM14.0895 104.888H13.7039V106.888H14.0895V104.888ZM15.0895 103.888C15.0895 104.44 14.6418 104.888 14.0895 104.888V106.888C15.7464 106.888 17.0895 105.545 17.0895 103.888H15.0895ZM15.0895 99.795V103.888H17.0895V99.795H15.0895ZM25.791 98.795H16.0895V100.795H25.791V98.795ZM26.6581 97.2968C27.0411 97.9635 26.5599 98.795 25.791 98.795V100.795C28.0976 100.795 29.5413 98.3006 28.3923 96.3006L26.6581 97.2968ZM23.5221 91.8379L26.6581 97.2968L28.3923 96.3006L25.2563 90.8417L23.5221 91.8379ZM23.4445 91.7223C23.4729 91.7589 23.4989 91.7976 23.5221 91.8379L25.2563 90.8417C25.1867 90.7205 25.1088 90.6045 25.0234 90.4946L23.4445 91.7223ZM24.0266 88.9201C24.3048 89.4044 24.1305 89.9877 23.6954 90.2658L24.7724 91.9511C26.0381 91.1422 26.6109 89.4037 25.7608 87.9238L24.0266 88.9201ZM20.8729 83.4305L24.0266 88.9201L25.7608 87.9238L22.6071 82.4342L20.8729 83.4305ZM21.5477 80.7304C21.8301 81.2181 21.652 81.8082 21.21 82.0844L22.27 83.7804C23.5566 82.9763 24.1417 81.2186 23.2784 79.728L21.5477 80.7304ZM14.7626 69.0149L21.5477 80.7304L23.2784 79.728L16.4932 68.0126L14.7626 69.0149Z" fill="#00D9C9" mask="url(#path-20-inside-3)"/>
<mask id="path-22-inside-4" fill="white">
<path fill-rule="evenodd" clip-rule="evenodd" d="M40.1493 71.0862C40.0083 68.9008 36.9627 68.4988 36.2594 70.5728L34.8711 74.6674C34.4921 75.7851 35.1484 76.8904 36.1492 77.2157L35.9068 77.4919C35.8565 77.5492 35.812 77.6114 35.774 77.6775L33.4263 81.7641C32.9135 82.6569 33.1755 83.6975 33.8663 84.2876C33.722 84.4229 33.5984 84.5789 33.4997 84.7507L31.2688 88.6341C30.5028 89.9675 31.4653 91.6304 33.003 91.6304H40.337V94.8287C40.337 95.8219 41.1421 96.627 42.1353 96.627C43.1285 96.627 43.9336 95.8219 43.9336 94.8287V90.9307C43.9336 90.6677 43.8771 90.4178 43.7756 90.1926C43.8403 89.9717 43.8677 89.7355 43.8507 89.4915L43.4996 84.4481L42.7764 80.6398C42.623 79.8317 42.0324 79.2736 41.3374 79.0831L40.3011 75.5447C40.3742 75.314 40.4062 75.0668 40.3898 74.8129L40.1493 71.0862Z"/>
</mask>
<path fill-rule="evenodd" clip-rule="evenodd" d="M40.1493 71.0862C40.0083 68.9008 36.9627 68.4988 36.2594 70.5728L34.8711 74.6674C34.4921 75.7851 35.1484 76.8904 36.1492 77.2157L35.9068 77.4919C35.8565 77.5492 35.812 77.6114 35.774 77.6775L33.4263 81.7641C32.9135 82.6569 33.1755 83.6975 33.8663 84.2876C33.722 84.4229 33.5984 84.5789 33.4997 84.7507L31.2688 88.6341C30.5028 89.9675 31.4653 91.6304 33.003 91.6304H40.337V94.8287C40.337 95.8219 41.1421 96.627 42.1353 96.627C43.1285 96.627 43.9336 95.8219 43.9336 94.8287V90.9307C43.9336 90.6677 43.8771 90.4178 43.7756 90.1926C43.8403 89.9717 43.8677 89.7355 43.8507 89.4915L43.4996 84.4481L42.7764 80.6398C42.623 79.8317 42.0324 79.2736 41.3374 79.0831L40.3011 75.5447C40.3742 75.314 40.4062 75.0668 40.3898 74.8129L40.1493 71.0862Z" fill="#00D9C9" fill-opacity="0.2"/>
<path d="M36.2594 70.5728L37.2065 70.8939V70.8939L36.2594 70.5728ZM40.1493 71.0862L39.1514 71.1506V71.1506L40.1493 71.0862ZM34.8711 74.6674L33.924 74.3462L34.8711 74.6674ZM36.1492 77.2157L36.9008 77.8754L37.9024 76.7342L36.4583 76.2647L36.1492 77.2157ZM35.9068 77.4919L35.1553 76.8322L35.1553 76.8322L35.9068 77.4919ZM35.774 77.6775L34.9069 77.1794L34.9069 77.1794L35.774 77.6775ZM33.4263 81.7641L32.5592 81.266L33.4263 81.7641ZM33.8663 84.2876L34.5501 85.0173L35.3655 84.2532L34.5159 83.5273L33.8663 84.2876ZM33.4997 84.7507L34.3668 85.2489L34.3668 85.2488L33.4997 84.7507ZM31.2688 88.6341L32.1359 89.1323H32.1359L31.2688 88.6341ZM40.337 91.6304H41.337V90.6304H40.337V91.6304ZM43.7756 90.1926L42.8159 89.9116L42.712 90.2664L42.864 90.6035L43.7756 90.1926ZM43.8507 89.4915L44.8483 89.4221L44.8483 89.4221L43.8507 89.4915ZM43.4996 84.4481L44.4972 84.3786L44.4931 84.3196L44.4821 84.2615L43.4996 84.4481ZM42.7764 80.6398L43.7589 80.4532V80.4532L42.7764 80.6398ZM41.3374 79.0831L40.3777 79.3642L40.5346 79.9L41.0731 80.0476L41.3374 79.0831ZM40.3011 75.5447L39.3478 75.2429L39.2558 75.5334L39.3414 75.8257L40.3011 75.5447ZM40.3898 74.8129L39.3918 74.8773L39.3918 74.8773L40.3898 74.8129ZM37.2065 70.8939C37.5581 69.8569 39.0809 70.0579 39.1514 71.1506L41.1473 71.0219C40.9358 67.7437 36.3672 67.1406 35.3124 70.2517L37.2065 70.8939ZM35.8181 74.9885L37.2065 70.8939L35.3124 70.2517L33.924 74.3462L35.8181 74.9885ZM36.4583 76.2647C35.9471 76.0985 35.6314 75.5392 35.8181 74.9885L33.924 74.3462C33.3527 76.0311 34.3498 77.6823 35.84 78.1667L36.4583 76.2647ZM36.6584 78.1515L36.9008 77.8754L35.3976 76.5561L35.1553 76.8322L36.6584 78.1515ZM36.6411 78.1757C36.6461 78.1671 36.6519 78.159 36.6584 78.1515L35.1553 76.8322C35.0612 76.9394 34.978 77.0557 34.9069 77.1794L36.6411 78.1757ZM34.2935 82.2623L36.6411 78.1757L34.9069 77.1794L32.5592 81.266L34.2935 82.2623ZM34.5159 83.5273C34.1598 83.2231 34.0401 82.7033 34.2935 82.2623L32.5592 81.266C31.7869 82.6105 32.1913 84.1719 33.2168 85.048L34.5159 83.5273ZM34.3668 85.2488C34.4162 85.163 34.478 85.0849 34.5501 85.0173L33.1825 83.558C32.9661 83.7608 32.7807 83.9949 32.6326 84.2526L34.3668 85.2488ZM32.1359 89.1323L34.3668 85.2489L32.6326 84.2526L30.4017 88.136L32.1359 89.1323ZM33.003 90.6304C32.2341 90.6304 31.7529 89.7989 32.1359 89.1323L30.4017 88.136C29.2527 90.136 30.6964 92.6304 33.003 92.6304V90.6304ZM40.337 90.6304H33.003V92.6304H40.337V90.6304ZM41.337 94.8287V91.6304H39.337V94.8287H41.337ZM42.1353 95.627C41.6944 95.627 41.337 95.2696 41.337 94.8287H39.337C39.337 96.3742 40.5898 97.627 42.1353 97.627V95.627ZM42.9336 94.8287C42.9336 95.2696 42.5762 95.627 42.1353 95.627V97.627C43.6808 97.627 44.9336 96.3742 44.9336 94.8287H42.9336ZM42.9336 90.9307V94.8287H44.9336V90.9307H42.9336ZM42.864 90.6035C42.9084 90.7021 42.9336 90.8121 42.9336 90.9307H44.9336C44.9336 90.5232 44.8459 90.1335 44.6873 89.7817L42.864 90.6035ZM42.8531 89.5609C42.8618 89.6851 42.8478 89.8028 42.8159 89.9116L44.7354 90.4736C44.8328 90.1406 44.8736 89.7858 44.8483 89.4221L42.8531 89.5609ZM42.502 84.5175L42.8531 89.5609L44.8483 89.4221L44.4972 84.3786L42.502 84.5175ZM41.794 80.8263L42.5172 84.6346L44.4821 84.2615L43.7589 80.4532L41.794 80.8263ZM41.0731 80.0476C41.4297 80.1453 41.7174 80.4228 41.794 80.8263L43.7589 80.4532C43.5286 79.2405 42.6351 78.4019 41.6017 78.1187L41.0731 80.0476ZM39.3414 75.8257L40.3777 79.3642L42.2971 78.8021L41.2608 75.2636L39.3414 75.8257ZM39.3918 74.8773C39.4001 75.0053 39.384 75.1284 39.3478 75.2429L41.2545 75.8465C41.3643 75.4995 41.4122 75.1282 41.3877 74.7486L39.3918 74.8773ZM39.1514 71.1506L39.3918 74.8773L41.3877 74.7486L41.1473 71.0219L39.1514 71.1506Z" fill="#00D9C9" mask="url(#path-22-inside-4)"/>
<mask id="path-24-inside-5" fill="white">
<path fill-rule="evenodd" clip-rule="evenodd" d="M46.0851 66.9445C45.3026 65.6852 43.4698 65.6851 42.6874 66.9445L37.4768 75.3314C36.929 76.2131 37.1634 77.2661 37.8393 77.8774C37.7802 77.9488 37.7262 78.0242 37.6775 78.1032L35.3423 81.8926C34.7896 82.7894 35.0431 83.8602 35.7451 84.4646C35.5863 84.6 35.4495 84.7595 35.3398 84.9375L33.0827 88.6C32.2616 89.9325 33.2202 91.6493 34.7854 91.6493H42.5044V94.6439C42.5044 95.6841 43.3476 96.5273 44.3878 96.5273C45.4279 96.5273 46.2711 95.6841 46.2711 94.6439V91.6493H53.9892C55.5544 91.6493 56.513 89.9325 55.6919 88.6L53.4348 84.9375C53.325 84.7593 53.188 84.5997 53.029 84.4642C53.7306 83.8597 53.9838 82.7892 53.4313 81.8926L51.096 78.1032C51.0472 78.024 50.993 77.9484 50.9338 77.8769C51.6092 77.2655 51.8433 76.2129 51.2957 75.3314L46.0851 66.9445Z"/>
</mask>
<path fill-rule="evenodd" clip-rule="evenodd" d="M46.0851 66.9445C45.3026 65.6852 43.4698 65.6851 42.6874 66.9445L37.4768 75.3314C36.929 76.2131 37.1634 77.2661 37.8393 77.8774C37.7802 77.9488 37.7262 78.0242 37.6775 78.1032L35.3423 81.8926C34.7896 82.7894 35.0431 83.8602 35.7451 84.4646C35.5863 84.6 35.4495 84.7595 35.3398 84.9375L33.0827 88.6C32.2616 89.9325 33.2202 91.6493 34.7854 91.6493H42.5044V94.6439C42.5044 95.6841 43.3476 96.5273 44.3878 96.5273C45.4279 96.5273 46.2711 95.6841 46.2711 94.6439V91.6493H53.9892C55.5544 91.6493 56.513 89.9325 55.6919 88.6L53.4348 84.9375C53.325 84.7593 53.188 84.5997 53.029 84.4642C53.7306 83.8597 53.9838 82.7892 53.4313 81.8926L51.096 78.1032C51.0472 78.024 50.993 77.9484 50.9338 77.8769C51.6092 77.2655 51.8433 76.2129 51.2957 75.3314L46.0851 66.9445Z" fill="#008BD9" fill-opacity="0.2"/>
<path d="M42.6874 66.9445L41.838 66.4168V66.4168L42.6874 66.9445ZM46.0851 66.9445L46.9345 66.4168V66.4168L46.0851 66.9445ZM37.4768 75.3314L38.3262 75.8591L37.4768 75.3314ZM37.8393 77.8774L38.6097 78.5149L39.2198 77.7777L38.5101 77.1358L37.8393 77.8774ZM37.6775 78.1032L36.8262 77.5785L36.8262 77.5785L37.6775 78.1032ZM35.3423 81.8926L34.4909 81.3679L34.4909 81.3679L35.3423 81.8926ZM35.7451 84.4646L36.3938 85.2257L37.2822 84.4685L36.3976 83.7068L35.7451 84.4646ZM35.3398 84.9375L34.4885 84.4128L34.4885 84.4128L35.3398 84.9375ZM33.0827 88.6L32.2314 88.0754H32.2314L33.0827 88.6ZM42.5044 91.6493H43.5044V90.6493H42.5044V91.6493ZM46.2711 91.6493V90.6493H45.2711V91.6493H46.2711ZM55.6919 88.6L56.5432 88.0754V88.0754L55.6919 88.6ZM53.4348 84.9375L54.2861 84.4128L54.2861 84.4128L53.4348 84.9375ZM53.029 84.4642L52.3762 83.7066L51.4919 84.4685L52.3805 85.2255L53.029 84.4642ZM53.4313 81.8926L54.2826 81.3679V81.3679L53.4313 81.8926ZM51.096 78.1032L51.9473 77.5785L51.9473 77.5785L51.096 78.1032ZM50.9338 77.8769L50.2627 77.1355L49.5533 77.7777L50.1636 78.5147L50.9338 77.8769ZM51.2957 75.3314L50.4462 75.8591V75.8591L51.2957 75.3314ZM43.5368 67.4723C43.928 66.8426 44.8444 66.8426 45.2356 67.4723L46.9345 66.4168C45.7608 64.5277 43.0116 64.5277 41.838 66.4168L43.5368 67.4723ZM38.3262 75.8591L43.5368 67.4723L41.838 66.4168L36.6274 74.8037L38.3262 75.8591ZM38.5101 77.1358C38.1606 76.8198 38.0557 76.2945 38.3262 75.8591L36.6274 74.8037C35.8022 76.1318 36.1661 77.7125 37.1685 78.6191L38.5101 77.1358ZM38.5289 78.6278C38.5532 78.5883 38.5802 78.5506 38.6097 78.5149L37.0688 77.2399C36.9803 77.347 36.8992 77.4601 36.8262 77.5785L38.5289 78.6278ZM36.1936 82.4172L38.5289 78.6278L36.8262 77.5785L34.4909 81.3679L36.1936 82.4172ZM36.3976 83.7068C36.035 83.3947 35.9208 82.8598 36.1936 82.4172L34.4909 81.3679C33.6584 82.7189 34.0512 84.3258 35.0926 85.2225L36.3976 83.7068ZM36.1912 85.4621C36.246 85.3732 36.3144 85.2934 36.3938 85.2257L35.0964 83.7036C34.8582 83.9067 34.653 84.1459 34.4885 84.4128L36.1912 85.4621ZM33.9341 89.1247L36.1912 85.4621L34.4885 84.4128L32.2314 88.0754L33.9341 89.1247ZM34.7854 90.6493C34.0028 90.6493 33.5235 89.7909 33.9341 89.1247L32.2314 88.0754C30.9997 90.0741 32.4376 92.6493 34.7854 92.6493V90.6493ZM42.5044 90.6493H34.7854V92.6493H42.5044V90.6493ZM43.5044 94.6439V91.6493H41.5044V94.6439H43.5044ZM44.3878 95.5273C43.8999 95.5273 43.5044 95.1318 43.5044 94.6439H41.5044C41.5044 96.2364 42.7953 97.5273 44.3878 97.5273V95.5273ZM45.2711 94.6439C45.2711 95.1318 44.8756 95.5273 44.3878 95.5273V97.5273C45.9802 97.5273 47.2711 96.2364 47.2711 94.6439H45.2711ZM45.2711 91.6493V94.6439H47.2711V91.6493H45.2711ZM53.9892 90.6493H46.2711V92.6493H53.9892V90.6493ZM54.8405 89.1247C55.2511 89.7909 54.7718 90.6493 53.9892 90.6493V92.6493C56.337 92.6493 57.7749 90.0741 56.5432 88.0754L54.8405 89.1247ZM52.5834 85.4621L54.8405 89.1247L56.5432 88.0754L54.2861 84.4128L52.5834 85.4621ZM52.3805 85.2255C52.4601 85.2932 52.5286 85.3731 52.5834 85.4621L54.2861 84.4128C54.1214 84.1456 53.916 83.9061 53.6774 83.7029L52.3805 85.2255ZM52.5799 82.4172C52.8526 82.8597 52.7386 83.3944 52.3762 83.7066L53.6817 85.2218C54.7225 84.325 55.1149 82.7186 54.2826 81.3679L52.5799 82.4172ZM50.2447 78.6278L52.5799 82.4172L54.2826 81.3679L51.9473 77.5785L50.2447 78.6278ZM50.1636 78.5147C50.1932 78.5504 50.2203 78.5882 50.2447 78.6278L51.9473 77.5785C51.8741 77.4598 51.7928 77.3464 51.704 77.2391L50.1636 78.5147ZM50.4462 75.8591C50.7167 76.2944 50.6119 76.8194 50.2627 77.1355L51.6049 78.6183C52.6065 77.7115 52.97 76.1314 52.1451 74.8037L50.4462 75.8591ZM45.2356 67.4723L50.4462 75.8591L52.1451 74.8037L46.9345 66.4168L45.2356 67.4723Z" fill="#57A8F1" mask="url(#path-24-inside-5)"/>
<mask id="path-26-inside-6" fill="white">
<path fill-rule="evenodd" clip-rule="evenodd" d="M18.6279 68.525C17.8575 67.1948 15.9369 67.1948 15.1665 68.525L8.38139 80.2404C7.80866 81.2293 8.18995 82.4029 9.0538 82.9432L5.89991 88.4332C5.33567 89.4154 5.70935 90.5764 6.55996 91.1198C6.50304 91.1931 6.45117 91.2703 6.40479 91.351L3.26877 96.8099C2.5028 98.1433 3.46528 99.8062 5.00297 99.8062H14.7039V103.899C14.7039 105.004 15.5994 105.899 16.7039 105.899H17.0895C18.1941 105.899 19.0895 105.004 19.0895 103.899V99.8062H28.791C30.3287 99.8062 31.2912 98.1433 30.5252 96.8099L27.3892 91.351C27.3428 91.2703 27.2909 91.193 27.2339 91.1197C28.0843 90.5762 28.4579 89.4153 27.8937 88.4332L24.74 82.9436C25.6043 82.4035 25.9859 81.2296 25.413 80.2404L18.6279 68.525Z"/>
</mask>
<path fill-rule="evenodd" clip-rule="evenodd" d="M18.6279 68.525C17.8575 67.1948 15.9369 67.1948 15.1665 68.525L8.38139 80.2404C7.80866 81.2293 8.18995 82.4029 9.0538 82.9432L5.89991 88.4332C5.33567 89.4154 5.70935 90.5764 6.55996 91.1198C6.50304 91.1931 6.45117 91.2703 6.40479 91.351L3.26877 96.8099C2.5028 98.1433 3.46528 99.8062 5.00297 99.8062H14.7039V103.899C14.7039 105.004 15.5994 105.899 16.7039 105.899H17.0895C18.1941 105.899 19.0895 105.004 19.0895 103.899V99.8062H28.791C30.3287 99.8062 31.2912 98.1433 30.5252 96.8099L27.3892 91.351C27.3428 91.2703 27.2909 91.193 27.2339 91.1197C28.0843 90.5762 28.4579 89.4153 27.8937 88.4332L24.74 82.9436C25.6043 82.4035 25.9859 81.2296 25.413 80.2404L18.6279 68.525Z" fill="#5EB8EB" fill-opacity="0.2"/>
<path d="M15.1665 68.525L16.0319 69.0262V69.0262L15.1665 68.525ZM18.6279 68.525L19.4932 68.0238L19.4932 68.0238L18.6279 68.525ZM8.38139 80.2404L7.51605 79.7393H7.51605L8.38139 80.2404ZM9.0538 82.9432L9.9209 83.4414L10.4007 82.6062L9.58409 82.0954L9.0538 82.9432ZM5.89991 88.4332L5.03281 87.9351L5.89991 88.4332ZM6.55996 91.1198L7.34948 91.7336L8.02262 90.8676L7.09834 90.2771L6.55996 91.1198ZM6.40479 91.351L7.2719 91.8492L7.2719 91.8492L6.40479 91.351ZM3.26877 96.8099L4.13587 97.3081H4.13587L3.26877 96.8099ZM14.7039 99.8062H15.7039V98.8062H14.7039V99.8062ZM19.0895 99.8062V98.8062H18.0895V99.8062H19.0895ZM30.5252 96.8099L29.6581 97.3081L30.5252 96.8099ZM27.3892 91.351L28.2563 90.8529H28.2563L27.3892 91.351ZM27.2339 91.1197L26.6954 90.2771L25.7712 90.8677L26.4445 91.7335L27.2339 91.1197ZM27.8937 88.4332L27.0266 88.9313L27.8937 88.4332ZM24.74 82.9436L24.21 82.0956L23.3929 82.6062L23.8729 83.4417L24.74 82.9436ZM25.413 80.2404L24.5477 80.7416L24.5477 80.7416L25.413 80.2404ZM16.0319 69.0262C16.4171 68.3611 17.3774 68.3611 17.7626 69.0262L19.4932 68.0238C18.3376 66.0285 15.4568 66.0285 14.3012 68.0238L16.0319 69.0262ZM9.24674 80.7416L16.0319 69.0262L14.3012 68.0238L7.51605 79.7393L9.24674 80.7416ZM9.58409 82.0954C9.14234 81.8191 8.96434 81.2292 9.24674 80.7416L7.51605 79.7393C6.65297 81.2295 7.23756 82.9867 8.52351 83.791L9.58409 82.0954ZM6.76702 88.9313L9.9209 83.4414L8.1867 82.4451L5.03281 87.9351L6.76702 88.9313ZM7.09834 90.2771C6.6631 89.9991 6.48877 89.4157 6.76702 88.9313L5.03281 87.9351C4.18257 89.4151 4.7556 91.1538 6.02159 91.9626L7.09834 90.2771ZM7.2719 91.8492C7.29507 91.8088 7.321 91.7702 7.34948 91.7336L5.77044 90.5061C5.68507 90.6159 5.60727 90.7318 5.53769 90.8529L7.2719 91.8492ZM4.13587 97.3081L7.2719 91.8492L5.53769 90.8529L2.40167 96.3118L4.13587 97.3081ZM5.00297 98.8062C4.23413 98.8062 3.75288 97.9747 4.13587 97.3081L2.40167 96.3118C1.25271 98.3118 2.69644 100.806 5.00297 100.806V98.8062ZM14.7039 98.8062H5.00297V100.806H14.7039V98.8062ZM15.7039 103.899V99.8062H13.7039V103.899H15.7039ZM16.7039 104.899C16.1516 104.899 15.7039 104.451 15.7039 103.899H13.7039C13.7039 105.556 15.0471 106.899 16.7039 106.899V104.899ZM17.0895 104.899H16.7039V106.899H17.0895V104.899ZM18.0895 103.899C18.0895 104.451 17.6418 104.899 17.0895 104.899V106.899C18.7464 106.899 20.0895 105.556 20.0895 103.899H18.0895ZM18.0895 99.8062V103.899H20.0895V99.8062H18.0895ZM28.791 98.8062H19.0895V100.806H28.791V98.8062ZM29.6581 97.3081C30.0411 97.9747 29.5599 98.8062 28.791 98.8062V100.806C31.0976 100.806 32.5413 98.3118 31.3923 96.3118L29.6581 97.3081ZM26.5221 91.8492L29.6581 97.3081L31.3923 96.3118L28.2563 90.8529L26.5221 91.8492ZM26.4445 91.7335C26.4729 91.7701 26.4989 91.8088 26.5221 91.8492L28.2563 90.8529C28.1867 90.7317 28.1088 90.6158 28.0234 90.5059L26.4445 91.7335ZM27.0266 88.9313C27.3048 89.4156 27.1305 89.999 26.6954 90.2771L27.7724 91.9623C29.0381 91.1534 29.6109 89.4149 28.7608 87.9351L27.0266 88.9313ZM23.8729 83.4417L27.0266 88.9313L28.7608 87.9351L25.6071 82.4455L23.8729 83.4417ZM24.5477 80.7416C24.8301 81.2293 24.652 81.8194 24.21 82.0956L25.27 83.7916C26.5566 82.9875 27.1417 81.2298 26.2784 79.7393L24.5477 80.7416ZM17.7626 69.0262L24.5477 80.7416L26.2784 79.7393L19.4932 68.0238L17.7626 69.0262Z" fill="#57A8F1" mask="url(#path-26-inside-6)"/>
<path fill-rule="evenodd" clip-rule="evenodd" d="M43.676 24.5825C42.8874 23.3683 41.1101 23.3683 40.3215 24.5825L36.2112 30.9108C35.3837 32.1847 36.2239 33.8513 37.6895 33.9908L36.0844 35.8497C35.9981 35.9497 35.922 36.0579 35.857 36.1728L33.6851 40.016C33.104 41.0443 33.5441 42.2615 34.4784 42.7645C34.4724 42.7764 34.4665 42.7883 34.4608 42.8003L32.3777 47.1335C31.7394 48.4612 32.707 50 34.1802 50H39.9885C39.987 50.0317 39.9862 50.0636 39.9862 50.0956V54.4622C39.9862 55.5169 40.8412 56.3719 41.8959 56.3719C42.9506 56.3719 43.8056 55.5169 43.8056 54.4622V50.0956C43.8056 50.0636 43.8048 50.0317 43.8033 50H49.819C51.2923 50 52.2599 48.4612 51.6216 47.1335L49.5385 42.8003C49.5326 42.7881 49.5266 42.7759 49.5204 42.7638C50.4539 42.2603 50.8933 41.0438 50.3124 40.016L48.1405 36.1728C48.0756 36.0579 47.9994 35.9497 47.9131 35.8497L46.308 33.9908C47.7736 33.8513 48.6138 32.1847 47.7864 30.9107L43.676 24.5825Z" fill="#DAE4ED"/>
<mask id="path-29-inside-7" fill="white">
<path fill-rule="evenodd" clip-rule="evenodd" d="M43.6279 20.9977C42.8575 19.6674 40.9369 19.6674 40.1665 20.9977L33.3814 32.7131C32.8087 33.702 33.19 34.8756 34.0538 35.4159L30.8999 40.9059C30.3357 41.888 30.7094 43.0491 31.56 43.5925C31.503 43.6657 31.4512 43.743 31.4048 43.8237L28.2688 49.2826C27.5028 50.6159 28.4653 52.2789 30.003 52.2789H39.7039V56.3717C39.7039 57.4762 40.5994 58.3717 41.7039 58.3717H42.0895C43.1941 58.3717 44.0895 57.4762 44.0895 56.3717V52.2789H53.791C55.3287 52.2789 56.2912 50.6159 55.5252 49.2826L52.3892 43.8237C52.3428 43.7429 52.2909 43.6656 52.2339 43.5923C53.0843 43.0488 53.4579 41.8879 52.8937 40.9059L49.74 35.4163C50.6043 34.8761 50.9859 33.7022 50.413 32.7131L43.6279 20.9977Z"/>
</mask>
<path fill-rule="evenodd" clip-rule="evenodd" d="M43.6279 20.9977C42.8575 19.6674 40.9369 19.6674 40.1665 20.9977L33.3814 32.7131C32.8087 33.702 33.19 34.8756 34.0538 35.4159L30.8999 40.9059C30.3357 41.888 30.7094 43.0491 31.56 43.5925C31.503 43.6657 31.4512 43.743 31.4048 43.8237L28.2688 49.2826C27.5028 50.6159 28.4653 52.2789 30.003 52.2789H39.7039V56.3717C39.7039 57.4762 40.5994 58.3717 41.7039 58.3717H42.0895C43.1941 58.3717 44.0895 57.4762 44.0895 56.3717V52.2789H53.791C55.3287 52.2789 56.2912 50.6159 55.5252 49.2826L52.3892 43.8237C52.3428 43.7429 52.2909 43.6656 52.2339 43.5923C53.0843 43.0488 53.4579 41.8879 52.8937 40.9059L49.74 35.4163C50.6043 34.8761 50.9859 33.7022 50.413 32.7131L43.6279 20.9977Z" fill="#5EEBDC" fill-opacity="0.2"/>
<path d="M40.1665 20.9977L41.0319 21.4988V21.4988L40.1665 20.9977ZM43.6279 20.9977L44.4932 20.4965L44.4932 20.4965L43.6279 20.9977ZM33.3814 32.7131L32.516 32.2119H32.516L33.3814 32.7131ZM34.0538 35.4159L34.9209 35.914L35.4007 35.0788L34.5841 34.5681L34.0538 35.4159ZM30.8999 40.9059L30.0328 40.4077L30.8999 40.9059ZM31.56 43.5925L32.3495 44.2062L33.0226 43.3403L32.0983 42.7498L31.56 43.5925ZM31.4048 43.8237L32.2719 44.3218L32.2719 44.3218L31.4048 43.8237ZM28.2688 49.2826L29.1359 49.7807H29.1359L28.2688 49.2826ZM39.7039 52.2789H40.7039V51.2789H39.7039V52.2789ZM44.0895 52.2789V51.2789H43.0895V52.2789H44.0895ZM55.5252 49.2826L54.6581 49.7807L55.5252 49.2826ZM52.3892 43.8237L53.2563 43.3256H53.2563L52.3892 43.8237ZM52.2339 43.5923L51.6954 42.7497L50.7712 43.3403L51.4445 44.2061L52.2339 43.5923ZM52.8937 40.9059L52.0266 41.404L52.8937 40.9059ZM49.74 35.4163L49.21 34.5682L48.3929 35.0789L48.8729 35.9144L49.74 35.4163ZM50.413 32.7131L49.5477 33.2143L49.5477 33.2143L50.413 32.7131ZM41.0319 21.4988C41.4171 20.8337 42.3774 20.8337 42.7626 21.4988L44.4932 20.4965C43.3376 18.5012 40.4568 18.5012 39.3012 20.4965L41.0319 21.4988ZM34.2467 33.2143L41.0319 21.4988L39.3012 20.4965L32.516 32.2119L34.2467 33.2143ZM34.5841 34.5681C34.1423 34.2918 33.9643 33.7019 34.2467 33.2143L32.516 32.2119C31.653 33.7021 32.2376 35.4594 33.5235 36.2637L34.5841 34.5681ZM31.767 41.404L34.9209 35.914L33.1867 34.9177L30.0328 40.4077L31.767 41.404ZM32.0983 42.7498C31.6631 42.4717 31.4888 41.8883 31.767 41.404L30.0328 40.4077C29.1826 41.8877 29.7556 43.6264 31.0216 44.4352L32.0983 42.7498ZM32.2719 44.3218C32.2951 44.2815 32.321 44.2429 32.3495 44.2062L30.7704 42.9788C30.6851 43.0886 30.6073 43.2044 30.5377 43.3256L32.2719 44.3218ZM29.1359 49.7807L32.2719 44.3218L30.5377 43.3256L27.4017 48.7845L29.1359 49.7807ZM30.003 51.2789C29.2341 51.2789 28.7529 50.4474 29.1359 49.7807L27.4017 48.7845C26.2527 50.7844 27.6964 53.2789 30.003 53.2789V51.2789ZM39.7039 51.2789H30.003V53.2789H39.7039V51.2789ZM40.7039 56.3717V52.2789H38.7039V56.3717H40.7039ZM41.7039 57.3717C41.1516 57.3717 40.7039 56.924 40.7039 56.3717H38.7039C38.7039 58.0285 40.0471 59.3717 41.7039 59.3717V57.3717ZM42.0895 57.3717H41.7039V59.3717H42.0895V57.3717ZM43.0895 56.3717C43.0895 56.924 42.6418 57.3717 42.0895 57.3717V59.3717C43.7464 59.3717 45.0895 58.0285 45.0895 56.3717H43.0895ZM43.0895 52.2789V56.3717H45.0895V52.2789H43.0895ZM53.791 51.2789H44.0895V53.2789H53.791V51.2789ZM54.6581 49.7807C55.0411 50.4474 54.5599 51.2789 53.791 51.2789V53.2789C56.0976 53.2789 57.5413 50.7844 56.3923 48.7845L54.6581 49.7807ZM51.5221 44.3218L54.6581 49.7807L56.3923 48.7845L53.2563 43.3256L51.5221 44.3218ZM51.4445 44.2061C51.4729 44.2428 51.4989 44.2814 51.5221 44.3218L53.2563 43.3256C53.1867 43.2044 53.1088 43.0884 53.0234 42.9785L51.4445 44.2061ZM52.0266 41.404C52.3048 41.8883 52.1305 42.4716 51.6954 42.7497L52.7724 44.435C54.0381 43.6261 54.6109 41.8876 53.7608 40.4077L52.0266 41.404ZM48.8729 35.9144L52.0266 41.404L53.7608 40.4077L50.6071 34.9181L48.8729 35.9144ZM49.5477 33.2143C49.8301 33.702 49.652 34.292 49.21 34.5682L50.27 36.2643C51.5566 35.4602 52.1417 33.7025 51.2784 32.2119L49.5477 33.2143ZM42.7626 21.4988L49.5477 33.2143L51.2784 32.2119L44.4932 20.4965L42.7626 21.4988Z" fill="#00D9C9" mask="url(#path-29-inside-7)"/>
<mask id="path-31-inside-8" fill="white">
<path fill-rule="evenodd" clip-rule="evenodd" d="M46.6279 20.9977C45.8575 19.6674 43.9369 19.6674 43.1665 20.9977L36.3814 32.7131C35.8087 33.702 36.19 34.8756 37.0538 35.4159L33.8999 40.9059C33.3357 41.888 33.7094 43.0491 34.56 43.5925C34.503 43.6657 34.4512 43.743 34.4048 43.8237L31.2688 49.2826C30.5028 50.6159 31.4653 52.2789 33.003 52.2789H42.7039V56.3717C42.7039 57.4762 43.5994 58.3717 44.7039 58.3717H45.0895C46.1941 58.3717 47.0895 57.4762 47.0895 56.3717V52.2789H56.791C58.3287 52.2789 59.2912 50.6159 58.5252 49.2826L55.3892 43.8237C55.3428 43.7429 55.2909 43.6656 55.2339 43.5923C56.0843 43.0488 56.4579 41.8879 55.8937 40.9059L52.74 35.4163C53.6043 34.8761 53.9859 33.7022 53.413 32.7131L46.6279 20.9977Z"/>
</mask>
<path fill-rule="evenodd" clip-rule="evenodd" d="M46.6279 20.9977C45.8575 19.6674 43.9369 19.6674 43.1665 20.9977L36.3814 32.7131C35.8087 33.702 36.19 34.8756 37.0538 35.4159L33.8999 40.9059C33.3357 41.888 33.7094 43.0491 34.56 43.5925C34.503 43.6657 34.4512 43.743 34.4048 43.8237L31.2688 49.2826C30.5028 50.6159 31.4653 52.2789 33.003 52.2789H42.7039V56.3717C42.7039 57.4762 43.5994 58.3717 44.7039 58.3717H45.0895C46.1941 58.3717 47.0895 57.4762 47.0895 56.3717V52.2789H56.791C58.3287 52.2789 59.2912 50.6159 58.5252 49.2826L55.3892 43.8237C55.3428 43.7429 55.2909 43.6656 55.2339 43.5923C56.0843 43.0488 56.4579 41.8879 55.8937 40.9059L52.74 35.4163C53.6043 34.8761 53.9859 33.7022 53.413 32.7131L46.6279 20.9977Z" fill="#5EB8EB" fill-opacity="0.2"/>
<path d="M43.1665 20.9977L44.0319 21.4988V21.4988L43.1665 20.9977ZM46.6279 20.9977L47.4932 20.4965L47.4932 20.4965L46.6279 20.9977ZM36.3814 32.7131L35.516 32.2119H35.516L36.3814 32.7131ZM37.0538 35.4159L37.9209 35.914L38.4007 35.0788L37.5841 34.5681L37.0538 35.4159ZM33.8999 40.9059L33.0328 40.4077L33.8999 40.9059ZM34.56 43.5925L35.3495 44.2062L36.0226 43.3403L35.0983 42.7498L34.56 43.5925ZM34.4048 43.8237L35.2719 44.3218L35.2719 44.3218L34.4048 43.8237ZM31.2688 49.2826L32.1359 49.7807H32.1359L31.2688 49.2826ZM42.7039 52.2789H43.7039V51.2789H42.7039V52.2789ZM47.0895 52.2789V51.2789H46.0895V52.2789H47.0895ZM58.5252 49.2826L57.6581 49.7807L58.5252 49.2826ZM55.3892 43.8237L56.2563 43.3256H56.2563L55.3892 43.8237ZM55.2339 43.5923L54.6954 42.7497L53.7712 43.3403L54.4445 44.2061L55.2339 43.5923ZM55.8937 40.9059L55.0266 41.404L55.8937 40.9059ZM52.74 35.4163L52.21 34.5682L51.3929 35.0789L51.8729 35.9144L52.74 35.4163ZM53.413 32.7131L52.5477 33.2143L52.5477 33.2143L53.413 32.7131ZM44.0319 21.4988C44.4171 20.8337 45.3774 20.8337 45.7626 21.4988L47.4932 20.4965C46.3376 18.5012 43.4568 18.5012 42.3012 20.4965L44.0319 21.4988ZM37.2467 33.2143L44.0319 21.4988L42.3012 20.4965L35.516 32.2119L37.2467 33.2143ZM37.5841 34.5681C37.1423 34.2918 36.9643 33.7019 37.2467 33.2143L35.516 32.2119C34.653 33.7021 35.2376 35.4594 36.5235 36.2637L37.5841 34.5681ZM34.767 41.404L37.9209 35.914L36.1867 34.9177L33.0328 40.4077L34.767 41.404ZM35.0983 42.7498C34.6631 42.4717 34.4888 41.8883 34.767 41.404L33.0328 40.4077C32.1826 41.8877 32.7556 43.6264 34.0216 44.4352L35.0983 42.7498ZM35.2719 44.3218C35.2951 44.2815 35.321 44.2429 35.3495 44.2062L33.7704 42.9788C33.6851 43.0886 33.6073 43.2044 33.5377 43.3256L35.2719 44.3218ZM32.1359 49.7807L35.2719 44.3218L33.5377 43.3256L30.4017 48.7845L32.1359 49.7807ZM33.003 51.2789C32.2341 51.2789 31.7529 50.4474 32.1359 49.7807L30.4017 48.7845C29.2527 50.7844 30.6964 53.2789 33.003 53.2789V51.2789ZM42.7039 51.2789H33.003V53.2789H42.7039V51.2789ZM43.7039 56.3717V52.2789H41.7039V56.3717H43.7039ZM44.7039 57.3717C44.1516 57.3717 43.7039 56.924 43.7039 56.3717H41.7039C41.7039 58.0285 43.0471 59.3717 44.7039 59.3717V57.3717ZM45.0895 57.3717H44.7039V59.3717H45.0895V57.3717ZM46.0895 56.3717C46.0895 56.924 45.6418 57.3717 45.0895 57.3717V59.3717C46.7464 59.3717 48.0895 58.0285 48.0895 56.3717H46.0895ZM46.0895 52.2789V56.3717H48.0895V52.2789H46.0895ZM56.791 51.2789H47.0895V53.2789H56.791V51.2789ZM57.6581 49.7807C58.0411 50.4474 57.5599 51.2789 56.791 51.2789V53.2789C59.0976 53.2789 60.5413 50.7844 59.3923 48.7845L57.6581 49.7807ZM54.5221 44.3218L57.6581 49.7807L59.3923 48.7845L56.2563 43.3256L54.5221 44.3218ZM54.4445 44.2061C54.4729 44.2428 54.4989 44.2814 54.5221 44.3218L56.2563 43.3256C56.1867 43.2044 56.1088 43.0884 56.0234 42.9785L54.4445 44.2061ZM55.0266 41.404C55.3048 41.8883 55.1305 42.4716 54.6954 42.7497L55.7724 44.435C57.0381 43.6261 57.6109 41.8876 56.7608 40.4077L55.0266 41.404ZM51.8729 35.9144L55.0266 41.404L56.7608 40.4077L53.6071 34.9181L51.8729 35.9144ZM52.5477 33.2143C52.8301 33.702 52.652 34.292 52.21 34.5682L53.27 36.2643C54.5566 35.4602 55.1417 33.7025 54.2784 32.2119L52.5477 33.2143ZM45.7626 21.4988L52.5477 33.2143L54.2784 32.2119L47.4932 20.4965L45.7626 21.4988Z" fill="#57A8F1" mask="url(#path-31-inside-8)"/>
</svg>
