<svg width="186" height="112" viewBox="0 0 186 112" fill="none" xmlns="http://www.w3.org/2000/svg">
<path d="M89.64 29.012H86.168V28.032H94.274V29.012H90.802V38H89.64V29.012ZM97.7235 30.79C97.9568 30.79 98.1715 30.818 98.3675 30.874L98.3395 31.91C98.1248 31.8353 97.8775 31.798 97.5975 31.798C96.9161 31.798 96.4075 32.0127 96.0715 32.442C95.7448 32.862 95.5815 33.3753 95.5815 33.982V38H94.4475V32.932C94.4475 32.204 94.4101 31.546 94.3355 30.958H95.4135L95.5255 32.26C95.7028 31.784 95.9875 31.42 96.3795 31.168C96.7715 30.916 97.2195 30.79 97.7235 30.79ZM105.414 30.958V38H104.308V36.782C104.084 37.2113 103.771 37.538 103.37 37.762C102.968 37.986 102.516 38.098 102.012 38.098C101.181 38.098 100.551 37.8647 100.122 37.398C99.6924 36.9313 99.4777 36.2407 99.4777 35.326V30.958H100.612V35.298C100.612 35.9327 100.742 36.3993 101.004 36.698C101.265 36.9967 101.662 37.146 102.194 37.146C102.819 37.146 103.323 36.9453 103.706 36.544C104.088 36.1333 104.28 35.5967 104.28 34.934V30.958H105.414ZM113.494 34.444H108.328C108.337 35.34 108.542 36.0167 108.944 36.474C109.354 36.9313 109.947 37.16 110.722 37.16C111.543 37.16 112.299 36.8847 112.99 36.334L113.368 37.16C113.06 37.4493 112.663 37.678 112.178 37.846C111.702 38.014 111.212 38.098 110.708 38.098C109.606 38.098 108.743 37.776 108.118 37.132C107.492 36.4787 107.18 35.5873 107.18 34.458C107.18 33.7393 107.32 33.1047 107.6 32.554C107.88 31.994 108.272 31.56 108.776 31.252C109.28 30.944 109.854 30.79 110.498 30.79C111.431 30.79 112.164 31.098 112.696 31.714C113.228 32.3207 113.494 33.1607 113.494 34.234V34.444ZM110.512 31.672C109.924 31.672 109.443 31.8493 109.07 32.204C108.706 32.5587 108.472 33.058 108.37 33.702H112.472C112.416 33.0393 112.22 32.5353 111.884 32.19C111.557 31.8447 111.1 31.672 110.512 31.672ZM119.005 28.032H122.981C124.008 28.032 124.806 28.2793 125.375 28.774C125.954 29.2687 126.243 29.95 126.243 30.818C126.243 31.686 125.954 32.372 125.375 32.876C124.797 33.3707 123.999 33.618 122.981 33.618H120.153V38H119.005V28.032ZM122.883 32.666C123.621 32.666 124.176 32.5073 124.549 32.19C124.923 31.8727 125.109 31.4153 125.109 30.818C125.109 30.2207 124.923 29.768 124.549 29.46C124.176 29.1427 123.621 28.984 122.883 28.984H120.153V32.666H122.883ZM130.678 38.098C130.015 38.098 129.432 37.9487 128.928 37.65C128.424 37.3513 128.032 36.9267 127.752 36.376C127.481 35.8253 127.346 35.1813 127.346 34.444C127.346 33.7067 127.481 33.0627 127.752 32.512C128.032 31.9613 128.424 31.5367 128.928 31.238C129.432 30.9393 130.015 30.79 130.678 30.79C131.34 30.79 131.924 30.9393 132.428 31.238C132.932 31.5367 133.319 31.9613 133.59 32.512C133.87 33.0627 134.01 33.7067 134.01 34.444C134.01 35.1813 133.87 35.8253 133.59 36.376C133.319 36.9267 132.932 37.3513 132.428 37.65C131.924 37.9487 131.34 38.098 130.678 38.098ZM130.678 37.16C131.378 37.16 131.914 36.9313 132.288 36.474C132.661 36.0073 132.848 35.3307 132.848 34.444C132.848 33.5853 132.656 32.9227 132.274 32.456C131.891 31.98 131.359 31.742 130.678 31.742C129.987 31.742 129.45 31.98 129.068 32.456C128.685 32.9227 128.494 33.5853 128.494 34.444C128.494 35.3307 128.68 36.0073 129.054 36.474C129.436 36.9313 129.978 37.16 130.678 37.16ZM138.158 38.098C136.972 38.098 136.034 37.7947 135.344 37.188L135.722 36.348C136.104 36.6467 136.492 36.8613 136.884 36.992C137.276 37.1227 137.714 37.188 138.2 37.188C138.732 37.188 139.133 37.0993 139.404 36.922C139.684 36.7353 139.824 36.4693 139.824 36.124C139.824 35.844 139.73 35.62 139.544 35.452C139.357 35.284 139.049 35.1533 138.62 35.06L137.43 34.78C136.842 34.6493 136.384 34.416 136.058 34.08C135.74 33.744 135.582 33.3427 135.582 32.876C135.582 32.26 135.829 31.7607 136.324 31.378C136.818 30.986 137.472 30.79 138.284 30.79C138.778 30.79 139.245 30.8693 139.684 31.028C140.122 31.1867 140.491 31.4153 140.79 31.714L140.412 32.54C139.749 31.9893 139.04 31.714 138.284 31.714C137.78 31.714 137.388 31.812 137.108 32.008C136.837 32.1947 136.702 32.4607 136.702 32.806C136.702 33.0953 136.786 33.324 136.954 33.492C137.131 33.66 137.411 33.7907 137.794 33.884L138.984 34.178C139.637 34.3273 140.122 34.5607 140.44 34.878C140.757 35.186 140.916 35.592 140.916 36.096C140.916 36.7027 140.668 37.188 140.174 37.552C139.679 37.916 139.007 38.098 138.158 38.098ZM142.723 30.958H143.857V38H142.723V30.958ZM143.997 27.976V29.264H142.611V27.976H143.997ZM147.571 31.854V35.704C147.571 36.2267 147.678 36.5953 147.893 36.81C148.107 37.0153 148.411 37.118 148.803 37.118C149.064 37.118 149.316 37.076 149.559 36.992V37.958C149.269 38.0513 148.943 38.098 148.579 38.098C147.907 38.098 147.379 37.9113 146.997 37.538C146.623 37.1553 146.437 36.5953 146.437 35.858V31.854H145.065V30.958H146.437V29.152L147.571 28.746V30.958H149.587V31.854H147.571ZM150.953 30.958H152.087V38H150.953V30.958ZM152.227 27.976V29.264H150.841V27.976H152.227ZM160.477 30.972L157.439 38H156.361L153.365 30.972H154.555L156.935 36.768L159.343 30.972H160.477ZM167.539 34.444H162.373C162.382 35.34 162.587 36.0167 162.989 36.474C163.399 36.9313 163.992 37.16 164.767 37.16C165.588 37.16 166.344 36.8847 167.035 36.334L167.413 37.16C167.105 37.4493 166.708 37.678 166.223 37.846C165.747 38.014 165.257 38.098 164.753 38.098C163.651 38.098 162.788 37.776 162.163 37.132C161.537 36.4787 161.225 35.5873 161.225 34.458C161.225 33.7393 161.365 33.1047 161.645 32.554C161.925 31.994 162.317 31.56 162.821 31.252C163.325 30.944 163.899 30.79 164.543 30.79C165.476 30.79 166.209 31.098 166.741 31.714C167.273 32.3207 167.539 33.1607 167.539 34.234V34.444ZM164.557 31.672C163.969 31.672 163.488 31.8493 163.115 32.204C162.751 32.5587 162.517 33.058 162.415 33.702H166.517C166.461 33.0393 166.265 32.5353 165.929 32.19C165.602 31.8447 165.145 31.672 164.557 31.672ZM171.64 38.098C170.455 38.098 169.517 37.7947 168.826 37.188L169.204 36.348C169.587 36.6467 169.974 36.8613 170.366 36.992C170.758 37.1227 171.197 37.188 171.682 37.188C172.214 37.188 172.615 37.0993 172.886 36.922C173.166 36.7353 173.306 36.4693 173.306 36.124C173.306 35.844 173.213 35.62 173.026 35.452C172.839 35.284 172.531 35.1533 172.102 35.06L170.912 34.78C170.324 34.6493 169.867 34.416 169.54 34.08C169.223 33.744 169.064 33.3427 169.064 32.876C169.064 32.26 169.311 31.7607 169.806 31.378C170.301 30.986 170.954 30.79 171.766 30.79C172.261 30.79 172.727 30.8693 173.166 31.028C173.605 31.1867 173.973 31.4153 174.272 31.714L173.894 32.54C173.231 31.9893 172.522 31.714 171.766 31.714C171.262 31.714 170.87 31.812 170.59 32.008C170.319 32.1947 170.184 32.4607 170.184 32.806C170.184 33.0953 170.268 33.324 170.436 33.492C170.613 33.66 170.893 33.7907 171.276 33.884L172.466 34.178C173.119 34.3273 173.605 34.5607 173.922 34.878C174.239 35.186 174.398 35.592 174.398 36.096C174.398 36.7027 174.151 37.188 173.656 37.552C173.161 37.916 172.489 38.098 171.64 38.098Z" fill="#24C7BB"/>
<path d="M88.7582 69.012H85.2862V68.032H93.3922V69.012H89.9202V78H88.7582V69.012ZM96.8416 70.79C97.075 70.79 97.2896 70.818 97.4856 70.874L97.4576 71.91C97.243 71.8353 96.9956 71.798 96.7156 71.798C96.0343 71.798 95.5256 72.0127 95.1896 72.442C94.863 72.862 94.6996 73.3753 94.6996 73.982V78H93.5656V72.932C93.5656 72.204 93.5283 71.546 93.4536 70.958H94.5316L94.6436 72.26C94.821 71.784 95.1056 71.42 95.4976 71.168C95.8896 70.916 96.3376 70.79 96.8416 70.79ZM104.532 70.958V78H103.426V76.782C103.202 77.2113 102.889 77.538 102.488 77.762C102.087 77.986 101.634 78.098 101.13 78.098C100.299 78.098 99.6692 77.8647 99.2399 77.398C98.8106 76.9313 98.5959 76.2407 98.5959 75.326V70.958H99.7299V75.298C99.7299 75.9327 99.8606 76.3993 100.122 76.698C100.383 76.9967 100.78 77.146 101.312 77.146C101.937 77.146 102.441 76.9453 102.824 76.544C103.207 76.1333 103.398 75.5967 103.398 74.934V70.958H104.532ZM112.612 74.444H107.446C107.455 75.34 107.661 76.0167 108.062 76.474C108.473 76.9313 109.065 77.16 109.84 77.16C110.661 77.16 111.417 76.8847 112.108 76.334L112.486 77.16C112.178 77.4493 111.781 77.678 111.296 77.846C110.82 78.014 110.33 78.098 109.826 78.098C108.725 78.098 107.861 77.776 107.236 77.132C106.611 76.4787 106.298 75.5873 106.298 74.458C106.298 73.7393 106.438 73.1047 106.718 72.554C106.998 71.994 107.39 71.56 107.894 71.252C108.398 70.944 108.972 70.79 109.616 70.79C110.549 70.79 111.282 71.098 111.814 71.714C112.346 72.3207 112.612 73.1607 112.612 74.234V74.444ZM109.63 71.672C109.042 71.672 108.561 71.8493 108.188 72.204C107.824 72.5587 107.591 73.058 107.488 73.702H111.59C111.534 73.0393 111.338 72.5353 111.002 72.19C110.675 71.8447 110.218 71.672 109.63 71.672ZM118.124 68.032H122.1C123.126 68.032 123.924 68.2793 124.494 68.774C125.072 69.2687 125.362 69.95 125.362 70.818C125.362 71.686 125.072 72.372 124.494 72.876C123.915 73.3707 123.117 73.618 122.1 73.618H119.272V78H118.124V68.032ZM122.002 72.666C122.739 72.666 123.294 72.5073 123.668 72.19C124.041 71.8727 124.228 71.4153 124.228 70.818C124.228 70.2207 124.041 69.768 123.668 69.46C123.294 69.1427 122.739 68.984 122.002 68.984H119.272V72.666H122.002ZM129.796 78.098C129.133 78.098 128.55 77.9487 128.046 77.65C127.542 77.3513 127.15 76.9267 126.87 76.376C126.599 75.8253 126.464 75.1813 126.464 74.444C126.464 73.7067 126.599 73.0627 126.87 72.512C127.15 71.9613 127.542 71.5367 128.046 71.238C128.55 70.9393 129.133 70.79 129.796 70.79C130.459 70.79 131.042 70.9393 131.546 71.238C132.05 71.5367 132.437 71.9613 132.708 72.512C132.988 73.0627 133.128 73.7067 133.128 74.444C133.128 75.1813 132.988 75.8253 132.708 76.376C132.437 76.9267 132.05 77.3513 131.546 77.65C131.042 77.9487 130.459 78.098 129.796 78.098ZM129.796 77.16C130.496 77.16 131.033 76.9313 131.406 76.474C131.779 76.0073 131.966 75.3307 131.966 74.444C131.966 73.5853 131.775 72.9227 131.392 72.456C131.009 71.98 130.477 71.742 129.796 71.742C129.105 71.742 128.569 71.98 128.186 72.456C127.803 72.9227 127.612 73.5853 127.612 74.444C127.612 75.3307 127.799 76.0073 128.172 76.474C128.555 76.9313 129.096 77.16 129.796 77.16ZM137.276 78.098C136.09 78.098 135.152 77.7947 134.462 77.188L134.84 76.348C135.222 76.6467 135.61 76.8613 136.002 76.992C136.394 77.1227 136.832 77.188 137.318 77.188C137.85 77.188 138.251 77.0993 138.522 76.922C138.802 76.7353 138.942 76.4693 138.942 76.124C138.942 75.844 138.848 75.62 138.662 75.452C138.475 75.284 138.167 75.1533 137.738 75.06L136.548 74.78C135.96 74.6493 135.502 74.416 135.176 74.08C134.858 73.744 134.7 73.3427 134.7 72.876C134.7 72.26 134.947 71.7607 135.442 71.378C135.936 70.986 136.59 70.79 137.402 70.79C137.896 70.79 138.363 70.8693 138.802 71.028C139.24 71.1867 139.609 71.4153 139.908 71.714L139.53 72.54C138.867 71.9893 138.158 71.714 137.402 71.714C136.898 71.714 136.506 71.812 136.226 72.008C135.955 72.1947 135.82 72.4607 135.82 72.806C135.82 73.0953 135.904 73.324 136.072 73.492C136.249 73.66 136.529 73.7907 136.912 73.884L138.102 74.178C138.755 74.3273 139.24 74.5607 139.558 74.878C139.875 75.186 140.034 75.592 140.034 76.096C140.034 76.7027 139.786 77.188 139.292 77.552C138.797 77.916 138.125 78.098 137.276 78.098ZM141.841 70.958H142.975V78H141.841V70.958ZM143.115 67.976V69.264H141.729V67.976H143.115ZM146.689 71.854V75.704C146.689 76.2267 146.796 76.5953 147.011 76.81C147.226 77.0153 147.529 77.118 147.921 77.118C148.182 77.118 148.434 77.076 148.677 76.992V77.958C148.388 78.0513 148.061 78.098 147.697 78.098C147.025 78.098 146.498 77.9113 146.115 77.538C145.742 77.1553 145.555 76.5953 145.555 75.858V71.854H144.183V70.958H145.555V69.152L146.689 68.746V70.958H148.705V71.854H146.689ZM150.071 70.958H151.205V78H150.071V70.958ZM151.345 67.976V69.264H149.959V67.976H151.345ZM159.595 70.972L156.557 78H155.479L152.483 70.972H153.673L156.053 76.768L158.461 70.972H159.595ZM166.657 74.444H161.491C161.5 75.34 161.706 76.0167 162.107 76.474C162.518 76.9313 163.11 77.16 163.885 77.16C164.706 77.16 165.462 76.8847 166.153 76.334L166.531 77.16C166.223 77.4493 165.826 77.678 165.341 77.846C164.865 78.014 164.375 78.098 163.871 78.098C162.77 78.098 161.906 77.776 161.281 77.132C160.656 76.4787 160.343 75.5873 160.343 74.458C160.343 73.7393 160.483 73.1047 160.763 72.554C161.043 71.994 161.435 71.56 161.939 71.252C162.443 70.944 163.017 70.79 163.661 70.79C164.594 70.79 165.327 71.098 165.859 71.714C166.391 72.3207 166.657 73.1607 166.657 74.234V74.444ZM163.675 71.672C163.087 71.672 162.606 71.8493 162.233 72.204C161.869 72.5587 161.636 73.058 161.533 73.702H165.635C165.579 73.0393 165.383 72.5353 165.047 72.19C164.72 71.8447 164.263 71.672 163.675 71.672ZM170.758 78.098C169.573 78.098 168.635 77.7947 167.944 77.188L168.322 76.348C168.705 76.6467 169.092 76.8613 169.484 76.992C169.876 77.1227 170.315 77.188 170.8 77.188C171.332 77.188 171.733 77.0993 172.004 76.922C172.284 76.7353 172.424 76.4693 172.424 76.124C172.424 75.844 172.331 75.62 172.144 75.452C171.957 75.284 171.649 75.1533 171.22 75.06L170.03 74.78C169.442 74.6493 168.985 74.416 168.658 74.08C168.341 73.744 168.182 73.3427 168.182 72.876C168.182 72.26 168.429 71.7607 168.924 71.378C169.419 70.986 170.072 70.79 170.884 70.79C171.379 70.79 171.845 70.8693 172.284 71.028C172.723 71.1867 173.091 71.4153 173.39 71.714L173.012 72.54C172.349 71.9893 171.64 71.714 170.884 71.714C170.38 71.714 169.988 71.812 169.708 72.008C169.437 72.1947 169.302 72.4607 169.302 72.806C169.302 73.0953 169.386 73.324 169.554 73.492C169.731 73.66 170.011 73.7907 170.394 73.884L171.584 74.178C172.237 74.3273 172.723 74.5607 173.04 74.878C173.357 75.186 173.516 75.592 173.516 76.096C173.516 76.7027 173.269 77.188 172.774 77.552C172.279 77.916 171.607 78.098 170.758 78.098Z" fill="#24C7BB"/>
<path d="M133.122 89.416H130.112V92.426H129.244V89.416H126.234V88.534H129.244V85.524H130.112V88.534H133.122V89.416Z" fill="black"/>
<path d="M81.3599 98.032H87.5199V98.998H82.4939V102.456H87.2399V103.422H82.4939V108H81.3599V98.032ZM95.1739 100.958V108H94.0539V106.726C93.8485 107.165 93.5359 107.505 93.1159 107.748C92.7052 107.981 92.2245 108.098 91.6739 108.098C91.0485 108.098 90.4979 107.949 90.0219 107.65C89.5552 107.351 89.1912 106.931 88.9299 106.39C88.6779 105.839 88.5519 105.2 88.5519 104.472C88.5519 103.744 88.6825 103.105 88.9439 102.554C89.2052 101.994 89.5692 101.56 90.0359 101.252C90.5119 100.944 91.0579 100.79 91.6739 100.79C92.2245 100.79 92.7052 100.911 93.1159 101.154C93.5265 101.397 93.8392 101.737 94.0539 102.176V100.958H95.1739ZM91.8979 107.16C92.5885 107.16 93.1205 106.927 93.4939 106.46C93.8672 105.984 94.0539 105.312 94.0539 104.444C94.0539 103.576 93.8672 102.909 93.4939 102.442C93.1205 101.975 92.5885 101.742 91.8979 101.742C91.2072 101.742 90.6659 101.985 90.2739 102.47C89.8912 102.946 89.6999 103.613 89.6999 104.472C89.6999 105.331 89.8912 105.993 90.2739 106.46C90.6565 106.927 91.1979 107.16 91.8979 107.16ZM97.3664 97.696H98.5004V108H97.3664V97.696ZM103.082 108.098C101.897 108.098 100.959 107.795 100.268 107.188L100.646 106.348C101.029 106.647 101.416 106.861 101.808 106.992C102.2 107.123 102.639 107.188 103.124 107.188C103.656 107.188 104.058 107.099 104.328 106.922C104.608 106.735 104.748 106.469 104.748 106.124C104.748 105.844 104.655 105.62 104.468 105.452C104.282 105.284 103.974 105.153 103.544 105.06L102.354 104.78C101.766 104.649 101.309 104.416 100.982 104.08C100.665 103.744 100.506 103.343 100.506 102.876C100.506 102.26 100.754 101.761 101.248 101.378C101.743 100.986 102.396 100.79 103.208 100.79C103.703 100.79 104.17 100.869 104.608 101.028C105.047 101.187 105.416 101.415 105.714 101.714L105.336 102.54C104.674 101.989 103.964 101.714 103.208 101.714C102.704 101.714 102.312 101.812 102.032 102.008C101.762 102.195 101.626 102.461 101.626 102.806C101.626 103.095 101.71 103.324 101.878 103.492C102.056 103.66 102.336 103.791 102.718 103.884L103.908 104.178C104.562 104.327 105.047 104.561 105.364 104.878C105.682 105.186 105.84 105.592 105.84 106.096C105.84 106.703 105.593 107.188 105.098 107.552C104.604 107.916 103.932 108.098 103.082 108.098ZM113.542 104.444H108.376C108.385 105.34 108.59 106.017 108.992 106.474C109.402 106.931 109.995 107.16 110.77 107.16C111.591 107.16 112.347 106.885 113.038 106.334L113.416 107.16C113.108 107.449 112.711 107.678 112.226 107.846C111.75 108.014 111.26 108.098 110.756 108.098C109.654 108.098 108.791 107.776 108.166 107.132C107.54 106.479 107.228 105.587 107.228 104.458C107.228 103.739 107.368 103.105 107.648 102.554C107.928 101.994 108.32 101.56 108.824 101.252C109.328 100.944 109.902 100.79 110.546 100.79C111.479 100.79 112.212 101.098 112.744 101.714C113.276 102.321 113.542 103.161 113.542 104.234V104.444ZM110.56 101.672C109.972 101.672 109.491 101.849 109.118 102.204C108.754 102.559 108.52 103.058 108.418 103.702H112.52C112.464 103.039 112.268 102.535 111.932 102.19C111.605 101.845 111.148 101.672 110.56 101.672ZM127.047 98.032V108H126.151L120.131 99.978V108H119.053V98.032H119.935L125.955 106.054V98.032H127.047ZM135.253 104.444H130.087C130.096 105.34 130.301 106.017 130.703 106.474C131.113 106.931 131.706 107.16 132.481 107.16C133.302 107.16 134.058 106.885 134.749 106.334L135.127 107.16C134.819 107.449 134.422 107.678 133.937 107.846C133.461 108.014 132.971 108.098 132.467 108.098C131.365 108.098 130.502 107.776 129.877 107.132C129.251 106.479 128.939 105.587 128.939 104.458C128.939 103.739 129.079 103.105 129.359 102.554C129.639 101.994 130.031 101.56 130.535 101.252C131.039 100.944 131.613 100.79 132.257 100.79C133.19 100.79 133.923 101.098 134.455 101.714C134.987 102.321 135.253 103.161 135.253 104.234V104.444ZM132.271 101.672C131.683 101.672 131.202 101.849 130.829 102.204C130.465 102.559 130.231 103.058 130.129 103.702H134.231C134.175 103.039 133.979 102.535 133.643 102.19C133.316 101.845 132.859 101.672 132.271 101.672ZM143.246 100.958V107.944C143.246 108.989 142.975 109.778 142.434 110.31C141.902 110.851 141.113 111.122 140.068 111.122C138.995 111.122 138.071 110.879 137.296 110.394L137.492 109.47C137.94 109.722 138.36 109.904 138.752 110.016C139.153 110.128 139.592 110.184 140.068 110.184C140.749 110.184 141.263 110.002 141.608 109.638C141.953 109.283 142.126 108.751 142.126 108.042V106.376C141.911 106.824 141.594 107.174 141.174 107.426C140.763 107.669 140.273 107.79 139.704 107.79C139.088 107.79 138.537 107.645 138.052 107.356C137.576 107.067 137.207 106.656 136.946 106.124C136.685 105.592 136.554 104.981 136.554 104.29C136.554 103.599 136.685 102.988 136.946 102.456C137.207 101.924 137.576 101.513 138.052 101.224C138.537 100.935 139.088 100.79 139.704 100.79C140.264 100.79 140.749 100.911 141.16 101.154C141.58 101.397 141.897 101.737 142.112 102.176V100.958H143.246ZM139.928 106.838C140.609 106.838 141.141 106.614 141.524 106.166C141.916 105.709 142.112 105.083 142.112 104.29C142.112 103.497 141.916 102.876 141.524 102.428C141.141 101.971 140.609 101.742 139.928 101.742C139.237 101.742 138.691 101.971 138.29 102.428C137.898 102.876 137.702 103.497 137.702 104.29C137.702 105.083 137.898 105.709 138.29 106.166C138.691 106.614 139.237 106.838 139.928 106.838ZM151.625 100.958V108H150.505V106.726C150.3 107.165 149.987 107.505 149.567 107.748C149.156 107.981 148.676 108.098 148.125 108.098C147.5 108.098 146.949 107.949 146.473 107.65C146.006 107.351 145.642 106.931 145.381 106.39C145.129 105.839 145.003 105.2 145.003 104.472C145.003 103.744 145.134 103.105 145.395 102.554C145.656 101.994 146.02 101.56 146.487 101.252C146.963 100.944 147.509 100.79 148.125 100.79C148.676 100.79 149.156 100.911 149.567 101.154C149.978 101.397 150.29 101.737 150.505 102.176V100.958H151.625ZM148.349 107.16C149.04 107.16 149.572 106.927 149.945 106.46C150.318 105.984 150.505 105.312 150.505 104.444C150.505 103.576 150.318 102.909 149.945 102.442C149.572 101.975 149.04 101.742 148.349 101.742C147.658 101.742 147.117 101.985 146.725 102.47C146.342 102.946 146.151 103.613 146.151 104.472C146.151 105.331 146.342 105.993 146.725 106.46C147.108 106.927 147.649 107.16 148.349 107.16ZM155.33 101.854V105.704C155.33 106.227 155.437 106.595 155.652 106.81C155.866 107.015 156.17 107.118 156.562 107.118C156.823 107.118 157.075 107.076 157.318 106.992V107.958C157.028 108.051 156.702 108.098 156.338 108.098C155.666 108.098 155.138 107.911 154.756 107.538C154.382 107.155 154.196 106.595 154.196 105.858V101.854H152.824V100.958H154.196V99.152L155.33 98.746V100.958H157.346V101.854H155.33ZM158.712 100.958H159.846V108H158.712V100.958ZM159.986 97.976V99.264H158.6V97.976H159.986ZM168.236 100.972L165.198 108H164.12L161.124 100.972H162.314L164.694 106.768L167.102 100.972H168.236ZM175.298 104.444H170.132C170.141 105.34 170.346 106.017 170.748 106.474C171.158 106.931 171.751 107.16 172.526 107.16C173.347 107.16 174.103 106.885 174.794 106.334L175.172 107.16C174.864 107.449 174.467 107.678 173.982 107.846C173.506 108.014 173.016 108.098 172.512 108.098C171.41 108.098 170.547 107.776 169.922 107.132C169.296 106.479 168.984 105.587 168.984 104.458C168.984 103.739 169.124 103.105 169.404 102.554C169.684 101.994 170.076 101.56 170.58 101.252C171.084 100.944 171.658 100.79 172.302 100.79C173.235 100.79 173.968 101.098 174.5 101.714C175.032 102.321 175.298 103.161 175.298 104.234V104.444ZM172.316 101.672C171.728 101.672 171.247 101.849 170.874 102.204C170.51 102.559 170.276 103.058 170.174 103.702H174.276C174.22 103.039 174.024 102.535 173.688 102.19C173.361 101.845 172.904 101.672 172.316 101.672ZM179.399 108.098C178.213 108.098 177.275 107.795 176.585 107.188L176.963 106.348C177.345 106.647 177.733 106.861 178.125 106.992C178.517 107.123 178.955 107.188 179.441 107.188C179.973 107.188 180.374 107.099 180.645 106.922C180.925 106.735 181.065 106.469 181.065 106.124C181.065 105.844 180.971 105.62 180.785 105.452C180.598 105.284 180.29 105.153 179.861 105.06L178.671 104.78C178.083 104.649 177.625 104.416 177.299 104.08C176.981 103.744 176.823 103.343 176.823 102.876C176.823 102.26 177.07 101.761 177.565 101.378C178.059 100.986 178.713 100.79 179.525 100.79C180.019 100.79 180.486 100.869 180.925 101.028C181.363 101.187 181.732 101.415 182.031 101.714L181.653 102.54C180.99 101.989 180.281 101.714 179.525 101.714C179.021 101.714 178.629 101.812 178.349 102.008C178.078 102.195 177.943 102.461 177.943 102.806C177.943 103.095 178.027 103.324 178.195 103.492C178.372 103.66 178.652 103.791 179.035 103.884L180.225 104.178C180.878 104.327 181.363 104.561 181.681 104.878C181.998 105.186 182.157 105.592 182.157 106.096C182.157 106.703 181.909 107.188 181.415 107.552C180.92 107.916 180.248 108.098 179.399 108.098Z" fill="#DE3E3E"/>
<rect x="2" width="10" height="10" rx="3" fill="#57A8F1"/>
<rect x="69" width="10" height="10" rx="3" fill="#00D9C9"/>
<path d="M88.71 5.15V8.57C88.3833 8.73 87.99 8.85667 87.53 8.95C87.07 9.04333 86.6 9.09 86.12 9.09C85.3867 9.09 84.75 8.94333 84.21 8.65C83.67 8.35667 83.2567 7.93667 82.97 7.39C82.6833 6.84333 82.54 6.19 82.54 5.43C82.54 4.68333 82.6833 4.03667 82.97 3.49C83.2567 2.94333 83.6633 2.52333 84.19 2.23C84.7233 1.93667 85.3467 1.79 86.06 1.79C86.56 1.79 87.0267 1.86333 87.46 2.01C87.9 2.15667 88.2667 2.36333 88.56 2.63L88.12 3.57C87.7867 3.31 87.46 3.12333 87.14 3.01C86.82 2.89667 86.47 2.84 86.09 2.84C85.3567 2.84 84.8 3.06 84.42 3.5C84.0467 3.94 83.86 4.58333 83.86 5.43C83.86 6.30333 84.0533 6.96333 84.44 7.41C84.8267 7.85 85.4033 8.07 86.17 8.07C86.6367 8.07 87.0967 8.00667 87.55 7.88V6.08H86.01V5.15H88.71ZM92.7926 3.83C92.9859 3.83 93.1526 3.85667 93.2926 3.91L93.2826 5.05C93.0692 4.96333 92.8492 4.92 92.6226 4.92C92.1959 4.92 91.8692 5.04333 91.6426 5.29C91.4226 5.53667 91.3126 5.86333 91.3126 6.27V9H90.0726V5.38C90.0726 4.84667 90.0459 4.37 89.9926 3.95H91.1626L91.2626 4.84C91.3892 4.51333 91.5892 4.26333 91.8626 4.09C92.1359 3.91667 92.4459 3.83 92.7926 3.83ZM96.1809 9.08C95.6676 9.08 95.2143 8.97333 94.8209 8.76C94.4343 8.54667 94.1343 8.24333 93.9209 7.85C93.7143 7.45 93.6109 6.98333 93.6109 6.45C93.6109 5.91667 93.7143 5.45333 93.9209 5.06C94.1343 4.66 94.4343 4.35333 94.8209 4.14C95.2143 3.92667 95.6676 3.82 96.1809 3.82C96.6876 3.82 97.1343 3.92667 97.5209 4.14C97.9076 4.35333 98.2043 4.66 98.4109 5.06C98.6243 5.45333 98.7309 5.91667 98.7309 6.45C98.7309 6.98333 98.6243 7.45 98.4109 7.85C98.2043 8.24333 97.9076 8.54667 97.5209 8.76C97.1343 8.97333 96.6876 9.08 96.1809 9.08ZM96.1709 8.1C96.5976 8.1 96.9209 7.96333 97.1409 7.69C97.3676 7.41 97.4809 6.99667 97.4809 6.45C97.4809 5.91 97.3676 5.5 97.1409 5.22C96.9143 4.93333 96.5943 4.79 96.1809 4.79C95.7609 4.79 95.4376 4.93333 95.2109 5.22C94.9843 5.5 94.8709 5.91 94.8709 6.45C94.8709 6.99667 94.9809 7.41 95.2009 7.69C95.4276 7.96333 95.7509 8.1 96.1709 8.1ZM104.409 3.95V9H103.189V8.22C103.029 8.5 102.816 8.71333 102.549 8.86C102.282 9.00667 101.976 9.08 101.629 9.08C100.396 9.08 99.7789 8.38667 99.7789 7V3.95H101.019V7.01C101.019 7.37667 101.092 7.64667 101.239 7.82C101.392 7.99333 101.626 8.08 101.939 8.08C102.306 8.08 102.599 7.96 102.819 7.72C103.039 7.48 103.149 7.16 103.149 6.76V3.95H104.409ZM108.656 3.82C109.863 3.82 110.466 4.51333 110.466 5.9V9H109.216V5.96C109.216 5.56 109.139 5.27 108.986 5.09C108.833 4.90333 108.596 4.81 108.276 4.81C107.896 4.81 107.589 4.93333 107.356 5.18C107.123 5.42 107.006 5.74 107.006 6.14V9H105.766V5.38C105.766 4.84667 105.739 4.37 105.686 3.95H106.856L106.946 4.78C107.119 4.47333 107.353 4.23667 107.646 4.07C107.946 3.90333 108.283 3.82 108.656 3.82ZM116.621 1.64V9H115.391V8.19C115.238 8.47 115.018 8.69 114.731 8.85C114.445 9.00333 114.118 9.08 113.751 9.08C113.318 9.08 112.931 8.97 112.591 8.75C112.251 8.53 111.985 8.22 111.791 7.82C111.605 7.41333 111.511 6.95 111.511 6.43C111.511 5.91 111.605 5.45333 111.791 5.06C111.978 4.66667 112.241 4.36333 112.581 4.15C112.921 3.93 113.311 3.82 113.751 3.82C114.111 3.82 114.431 3.89667 114.711 4.05C114.998 4.19667 115.218 4.40667 115.371 4.68V1.64H116.621ZM114.081 8.1C114.495 8.1 114.815 7.95667 115.041 7.67C115.275 7.38333 115.391 6.97667 115.391 6.45C115.391 5.92333 115.278 5.51667 115.051 5.23C114.825 4.94333 114.505 4.8 114.091 4.8C113.671 4.8 113.345 4.94333 113.111 5.23C112.885 5.51 112.771 5.91 112.771 6.43C112.771 6.95667 112.885 7.36667 113.111 7.66C113.345 7.95333 113.668 8.1 114.081 8.1ZM122.317 4.89V7.15C122.317 7.74333 122.594 8.04 123.147 8.04C123.3 8.04 123.467 8.01333 123.647 7.96V8.95C123.427 9.03 123.16 9.07 122.847 9.07C122.274 9.07 121.834 8.91 121.527 8.59C121.22 8.27 121.067 7.81 121.067 7.21V4.89H120.097V3.95H121.067V2.72L122.317 2.3V3.95H123.657V4.89H122.317ZM127.236 3.83C127.429 3.83 127.596 3.85667 127.736 3.91L127.726 5.05C127.513 4.96333 127.293 4.92 127.066 4.92C126.639 4.92 126.313 5.04333 126.086 5.29C125.866 5.53667 125.756 5.86333 125.756 6.27V9H124.516V5.38C124.516 4.84667 124.489 4.37 124.436 3.95H125.606L125.706 4.84C125.833 4.51333 126.033 4.26333 126.306 4.09C126.579 3.91667 126.889 3.83 127.236 3.83ZM133.032 3.95V9H131.812V8.22C131.652 8.5 131.439 8.71333 131.172 8.86C130.905 9.00667 130.599 9.08 130.252 9.08C129.019 9.08 128.402 8.38667 128.402 7V3.95H129.642V7.01C129.642 7.37667 129.715 7.64667 129.862 7.82C130.015 7.99333 130.249 8.08 130.562 8.08C130.929 8.08 131.222 7.96 131.442 7.72C131.662 7.48 131.772 7.16 131.772 6.76V3.95H133.032ZM135.979 4.89V7.15C135.979 7.74333 136.256 8.04 136.809 8.04C136.962 8.04 137.129 8.01333 137.309 7.96V8.95C137.089 9.03 136.822 9.07 136.509 9.07C135.936 9.07 135.496 8.91 135.189 8.59C134.882 8.27 134.729 7.81 134.729 7.21V4.89H133.759V3.95H134.729V2.72L135.979 2.3V3.95H137.319V4.89H135.979ZM141.068 3.82C142.275 3.82 142.878 4.51333 142.878 5.9V9H141.628V5.96C141.628 5.56 141.551 5.27 141.398 5.09C141.245 4.90333 141.008 4.81 140.688 4.81C140.308 4.81 140.001 4.93333 139.768 5.18C139.535 5.42 139.418 5.74 139.418 6.14V9H138.178V1.64H139.418V4.68C139.591 4.40667 139.821 4.19667 140.108 4.05C140.395 3.89667 140.715 3.82 141.068 3.82Z" fill="#91A9C0"/>
<path d="M15.77 1.88H18.86C19.6267 1.88 20.2233 2.06667 20.65 2.44C21.0767 2.80667 21.29 3.31 21.29 3.95C21.29 4.59 21.0733 5.09667 20.64 5.47C20.2133 5.84333 19.62 6.03 18.86 6.03H17.06V9H15.77V1.88ZM18.71 5.03C19.1567 5.03 19.4933 4.94 19.72 4.76C19.9533 4.57333 20.07 4.30667 20.07 3.96C20.07 3.60667 19.9567 3.34 19.73 3.16C19.5033 2.97333 19.1633 2.88 18.71 2.88H17.06V5.03H18.71ZM24.9625 3.83C25.1558 3.83 25.3225 3.85667 25.4625 3.91L25.4525 5.05C25.2392 4.96333 25.0192 4.92 24.7925 4.92C24.3658 4.92 24.0392 5.04333 23.8125 5.29C23.5925 5.53667 23.4825 5.86333 23.4825 6.27V9H22.2425V5.38C22.2425 4.84667 22.2158 4.37 22.1625 3.95H23.3325L23.4325 4.84C23.5592 4.51333 23.7592 4.26333 24.0325 4.09C24.3058 3.91667 24.6158 3.83 24.9625 3.83ZM30.4809 6.54H27.0009C27.0275 7.08 27.1609 7.48 27.4009 7.74C27.6475 7.99333 28.0109 8.12 28.4909 8.12C29.0442 8.12 29.5575 7.94 30.0309 7.58L30.3909 8.44C30.1509 8.63333 29.8542 8.79 29.5009 8.91C29.1542 9.02333 28.8009 9.08 28.4409 9.08C27.6142 9.08 26.9642 8.84667 26.4909 8.38C26.0175 7.91333 25.7809 7.27333 25.7809 6.46C25.7809 5.94667 25.8842 5.49 26.0909 5.09C26.2975 4.69 26.5875 4.38 26.9609 4.16C27.3342 3.93333 27.7575 3.82 28.2309 3.82C28.9242 3.82 29.4709 4.04667 29.8709 4.5C30.2775 4.94667 30.4809 5.56333 30.4809 6.35V6.54ZM28.2609 4.72C27.9275 4.72 27.6542 4.82 27.4409 5.02C27.2342 5.21333 27.1009 5.49667 27.0409 5.87H29.3909C29.3509 5.49 29.2342 5.20333 29.0409 5.01C28.8542 4.81667 28.5942 4.72 28.2609 4.72ZM36.3694 1.64V9H35.1394V8.19C34.986 8.47 34.766 8.69 34.4794 8.85C34.1927 9.00333 33.866 9.08 33.4994 9.08C33.066 9.08 32.6794 8.97 32.3394 8.75C31.9994 8.53 31.7327 8.22 31.5394 7.82C31.3527 7.41333 31.2594 6.95 31.2594 6.43C31.2594 5.91 31.3527 5.45333 31.5394 5.06C31.726 4.66667 31.9894 4.36333 32.3294 4.15C32.6694 3.93 33.0594 3.82 33.4994 3.82C33.8594 3.82 34.1794 3.89667 34.4594 4.05C34.746 4.19667 34.966 4.40667 35.1194 4.68V1.64H36.3694ZM33.8294 8.1C34.2427 8.1 34.5627 7.95667 34.7894 7.67C35.0227 7.38333 35.1394 6.97667 35.1394 6.45C35.1394 5.92333 35.026 5.51667 34.7994 5.23C34.5727 4.94333 34.2527 4.8 33.8394 4.8C33.4194 4.8 33.0927 4.94333 32.8594 5.23C32.6327 5.51 32.5194 5.91 32.5194 6.43C32.5194 6.95667 32.6327 7.36667 32.8594 7.66C33.0927 7.95333 33.416 8.1 33.8294 8.1ZM37.7308 3.95H38.9708V9H37.7308V3.95ZM39.0408 1.66V2.89H37.6508V1.66H39.0408ZM42.6282 9.08C42.1015 9.08 41.6449 8.97333 41.2582 8.76C40.8715 8.54667 40.5749 8.24667 40.3682 7.86C40.1615 7.46667 40.0582 7.00667 40.0582 6.48C40.0582 5.95333 40.1649 5.49 40.3782 5.09C40.5982 4.69 40.9049 4.38 41.2982 4.16C41.6982 3.93333 42.1582 3.82 42.6782 3.82C43.0382 3.82 43.3849 3.87667 43.7182 3.99C44.0582 4.10333 44.3282 4.26 44.5282 4.46L44.1782 5.34C43.9649 5.16667 43.7382 5.03667 43.4982 4.95C43.2582 4.85667 43.0215 4.81 42.7882 4.81C42.3349 4.81 41.9815 4.95333 41.7282 5.24C41.4749 5.52 41.3482 5.92667 41.3482 6.46C41.3482 6.99333 41.4715 7.4 41.7182 7.68C41.9715 7.96 42.3282 8.1 42.7882 8.1C43.0215 8.1 43.2582 8.05333 43.4982 7.96C43.7382 7.86667 43.9649 7.73333 44.1782 7.56L44.5282 8.44C44.3149 8.64 44.0382 8.79667 43.6982 8.91C43.3582 9.02333 43.0015 9.08 42.6282 9.08ZM46.9868 4.89V7.15C46.9868 7.74333 47.2635 8.04 47.8168 8.04C47.9701 8.04 48.1368 8.01333 48.3168 7.96V8.95C48.0968 9.03 47.8301 9.07 47.5168 9.07C46.9435 9.07 46.5035 8.91 46.1968 8.59C45.8901 8.27 45.7368 7.81 45.7368 7.21V4.89H44.7668V3.95H45.7368V2.72L46.9868 2.3V3.95H48.3268V4.89H46.9868ZM53.6059 6.54H50.1259C50.1525 7.08 50.2859 7.48 50.5259 7.74C50.7725 7.99333 51.1359 8.12 51.6159 8.12C52.1692 8.12 52.6825 7.94 53.1559 7.58L53.5159 8.44C53.2759 8.63333 52.9792 8.79 52.6259 8.91C52.2792 9.02333 51.9259 9.08 51.5659 9.08C50.7392 9.08 50.0892 8.84667 49.6159 8.38C49.1425 7.91333 48.9059 7.27333 48.9059 6.46C48.9059 5.94667 49.0092 5.49 49.2159 5.09C49.4225 4.69 49.7125 4.38 50.0859 4.16C50.4592 3.93333 50.8825 3.82 51.3559 3.82C52.0492 3.82 52.5959 4.04667 52.9959 4.5C53.4025 4.94667 53.6059 5.56333 53.6059 6.35V6.54ZM51.3859 4.72C51.0525 4.72 50.7792 4.82 50.5659 5.02C50.3592 5.21333 50.2259 5.49667 50.1659 5.87H52.5159C52.4759 5.49 52.3592 5.20333 52.1659 5.01C51.9792 4.81667 51.7192 4.72 51.3859 4.72ZM59.4944 1.64V9H58.2644V8.19C58.111 8.47 57.891 8.69 57.6044 8.85C57.3177 9.00333 56.991 9.08 56.6244 9.08C56.191 9.08 55.8044 8.97 55.4644 8.75C55.1244 8.53 54.8577 8.22 54.6644 7.82C54.4777 7.41333 54.3844 6.95 54.3844 6.43C54.3844 5.91 54.4777 5.45333 54.6644 5.06C54.851 4.66667 55.1144 4.36333 55.4544 4.15C55.7944 3.93 56.1844 3.82 56.6244 3.82C56.9844 3.82 57.3044 3.89667 57.5844 4.05C57.871 4.19667 58.091 4.40667 58.2444 4.68V1.64H59.4944ZM56.9544 8.1C57.3677 8.1 57.6877 7.95667 57.9144 7.67C58.1477 7.38333 58.2644 6.97667 58.2644 6.45C58.2644 5.92333 58.151 5.51667 57.9244 5.23C57.6977 4.94333 57.3777 4.8 56.9644 4.8C56.5444 4.8 56.2177 4.94333 55.9844 5.23C55.7577 5.51 55.6444 5.91 55.6444 6.43C55.6444 6.95667 55.7577 7.36667 55.9844 7.66C56.2177 7.95333 56.541 8.1 56.9544 8.1Z" fill="#91A9C0"/>
<path d="M21 78.4737L23.6667 81L29 73" stroke="#00D9C9" stroke-width="1.5" stroke-linecap="round" stroke-linejoin="round"/>
<path d="M56 25.4737L58.6667 28L64 20" stroke="#00D9C9" stroke-width="1.5" stroke-linecap="round" stroke-linejoin="round"/>
<path d="M2 61H174" stroke="black"/>
<path d="M57.5762 53.1202V51.4727H53.3916V53.1202C53.403 56.0348 57.5762 56.0692 57.5762 53.1202Z" fill="#F1F5F9"/>
<path d="M38.3891 53.1202V51.4727H34.2217V53.1202C34.216 56.0692 38.3891 56.0348 38.3891 53.1202Z" fill="#F1F5F9"/>
<path d="M59.8021 48.0399V42.2622C59.7963 40.2485 58.1917 39.1845 57.2793 39.0672L54.9996 33.1836C54.5735 32.0566 53.641 31.0984 51.879 31.0898H48.6669H43.1752H39.903C38.1496 31.0984 37.2172 32.0566 36.7824 33.1836L34.5028 39.0672C33.5989 39.1845 31.9971 40.2485 32 42.2622V48.0399C32 48.9867 32.7694 49.7561 33.7162 49.7561H58.0859C59.0326 49.7561 59.8021 48.9896 59.8021 48.0399ZM36.6623 45.52C36.6594 45.52 36.6594 45.52 36.6566 45.52C36.6537 45.52 36.6537 45.52 36.6508 45.52C35.5868 45.52 34.7287 44.6333 34.7316 43.5407C34.7259 42.4452 35.5811 41.5585 36.6394 41.5585C36.6451 41.5585 36.6508 41.5585 36.6566 41.5585C36.6623 41.5585 36.668 41.5585 36.6737 41.5585C37.7292 41.5585 38.5844 42.4452 38.5815 43.5407C38.5844 44.6333 37.7235 45.52 36.6623 45.52ZM45.901 39.0129H45.881H38.7474C38.1182 39.0129 37.692 38.3722 37.938 37.7915L39.1393 34.9512C39.3195 34.5022 39.6685 33.8214 40.4293 33.81H51.347C52.0964 33.8214 52.2852 34.2419 52.637 34.9512L53.8383 37.7915C54.0843 38.3722 53.6581 39.0129 53.0289 39.0129H45.901ZM55.0053 45.663C55.0025 45.663 55.0025 45.663 54.9996 45.663C54.9968 45.663 54.9968 45.663 54.9939 45.663C53.9242 45.663 53.0632 44.7763 53.0575 43.6837C53.0632 42.5882 53.9185 41.7015 54.9853 41.7015C54.991 41.7015 54.9968 41.7015 55.0025 41.7015C55.0083 41.7015 55.0139 41.7015 55.0197 41.7015C56.0666 41.7015 56.9218 42.5882 56.9275 43.6837C56.9189 44.7763 56.0579 45.663 55.0053 45.663Z" fill="#DAE4ED"/>
<path d="M27.5762 105.12V103.473H23.3916V105.12C23.403 108.035 27.5762 108.069 27.5762 105.12Z" fill="#F1F5F9"/>
<path d="M8.38913 105.12V103.473H4.22169V105.12C4.21596 108.069 8.38913 108.035 8.38913 105.12Z" fill="#F1F5F9"/>
<path d="M29.8021 100.04V94.2622C29.7963 92.2485 28.1917 91.1845 27.2793 91.0672L24.9996 85.1836C24.5735 84.0566 23.641 83.0984 21.879 83.0898H18.6669H13.1752H9.90299C8.14963 83.0984 7.21718 84.0566 6.78241 85.1836L4.50276 91.0672C3.59891 91.1845 1.99714 92.2485 2 94.2622V100.04C2 100.987 2.76942 101.756 3.71618 101.756H28.0859C29.0326 101.756 29.8021 100.99 29.8021 100.04ZM6.66228 97.52C6.65942 97.52 6.65942 97.52 6.65656 97.52C6.6537 97.52 6.6537 97.52 6.65084 97.52C5.58681 97.52 4.72872 96.6333 4.73158 95.5407C4.72586 94.4452 5.58109 93.5585 6.6394 93.5585C6.64512 93.5585 6.65084 93.5585 6.65656 93.5585C6.66228 93.5585 6.668 93.5585 6.67372 93.5585C7.72917 93.5585 8.5844 94.4452 8.58154 95.5407C8.5844 96.6333 7.72345 97.52 6.66228 97.52ZM15.901 91.0129H15.881H8.74744C8.11817 91.0129 7.69199 90.3722 7.93797 89.7915L9.1393 86.9512C9.3195 86.5022 9.66845 85.8214 10.4293 85.81H21.347C22.0964 85.8214 22.2852 86.2419 22.637 86.9512L23.8383 89.7915C24.0843 90.3722 23.6581 91.0129 23.0289 91.0129H15.901ZM25.0053 97.663C25.0025 97.663 25.0025 97.663 24.9996 97.663C24.9968 97.663 24.9968 97.663 24.9939 97.663C23.9242 97.663 23.0632 96.7763 23.0575 95.6837C23.0632 94.5882 23.9185 93.7015 24.9853 93.7015C24.991 93.7015 24.9968 93.7015 25.0025 93.7015C25.0083 93.7015 25.0139 93.7015 25.0197 93.7015C26.0666 93.7015 26.9218 94.5882 26.9275 95.6837C26.9189 96.7763 26.0579 97.663 25.0053 97.663Z" fill="#DAE4ED"/>
<path d="M72.0782 105.421V103.999H68.4658V105.421C68.4757 107.937 72.0782 107.966 72.0782 105.421Z" fill="#F1F5F9"/>
<path d="M55.5155 105.421V103.999H51.918V105.421C51.913 107.966 55.5155 107.937 55.5155 105.421Z" fill="#F1F5F9"/>
<path d="M74 101.035V96.0478C73.9951 94.3095 72.6099 93.391 71.8222 93.2897L69.8543 88.2107C69.4864 87.2379 68.6815 86.4107 67.1605 86.4033H64.3877H59.6469H56.8222C55.3086 86.4107 54.5037 87.2379 54.1284 88.2107L52.1605 93.2897C51.3803 93.391 49.9975 94.3095 50 96.0478V101.035C50 101.853 50.6642 102.517 51.4815 102.517H72.5185C73.3358 102.517 74 101.855 74 101.035ZM54.0247 98.8601C54.0222 98.8601 54.0222 98.8601 54.0198 98.8601C54.0173 98.8601 54.0173 98.8601 54.0148 98.8601C53.0963 98.8601 52.3556 98.0947 52.358 97.1515C52.3531 96.2058 53.0914 95.4404 54.0049 95.4404C54.0099 95.4404 54.0148 95.4404 54.0198 95.4404C54.0247 95.4404 54.0296 95.4404 54.0346 95.4404C54.9457 95.4404 55.684 96.2058 55.6815 97.1515C55.684 98.0947 54.9407 98.8601 54.0247 98.8601ZM62 93.2428H61.9827H55.8247C55.2815 93.2428 54.9136 92.6897 55.1259 92.1885L56.163 89.7367C56.3185 89.349 56.6198 88.7613 57.2765 88.7515H66.7012C67.3481 88.7613 67.5111 89.1243 67.8148 89.7367L68.8519 92.1885C69.0642 92.6897 68.6963 93.2428 68.1531 93.2428H62ZM69.8593 98.9836C69.8568 98.9836 69.8568 98.9836 69.8543 98.9836C69.8519 98.9836 69.8519 98.9836 69.8494 98.9836C68.926 98.9836 68.1827 98.2181 68.1778 97.2749C68.1827 96.3292 68.921 95.5638 69.842 95.5638C69.8469 95.5638 69.8519 95.5638 69.8568 95.5638C69.8618 95.5638 69.8667 95.5638 69.8716 95.5638C70.7754 95.5638 71.5136 96.3292 71.5185 97.2749C71.5111 98.2181 70.7679 98.9836 69.8593 98.9836Z" fill="#DAE4ED"/>
<rect x="51.7266" y="101.001" width="4.31623" height="6.04272" rx="2" fill="#DAE4ED"/>
<rect x="69" y="101" width="4" height="6" rx="2" fill="#DAE4ED"/>
<path d="M48.7796 83.7601V82.6792H46.0342V83.7601C46.0417 85.6723 48.7796 85.6948 48.7796 83.7601Z" fill="#F1F5F9"/>
<path d="M36.1921 83.7601V82.6792H33.458V83.7601C33.4543 85.6948 36.1921 85.6723 36.1921 83.7601Z" fill="#F1F5F9"/>
<path d="M50.24 80.427V76.6364C50.2362 75.3153 49.1835 74.6173 48.5849 74.5403L47.0893 70.6803C46.8097 69.9409 46.1979 69.3123 45.042 69.3066H42.9346H39.3317H37.1849C36.0346 69.3123 35.4228 69.9409 35.1376 70.6803L33.642 74.5403C33.049 74.6173 31.9981 75.3153 32 76.6364V80.427C32 81.0482 32.5048 81.553 33.1259 81.553H49.1141C49.7352 81.553 50.24 81.0501 50.24 80.427ZM35.0588 78.7738C35.0569 78.7738 35.0569 78.7738 35.055 78.7738C35.0531 78.7738 35.0531 78.7738 35.0513 78.7738C34.3532 78.7738 33.7902 78.1921 33.7921 77.4753C33.7883 76.7565 34.3494 76.1748 35.0438 76.1748C35.0475 76.1748 35.0513 76.1748 35.055 76.1748C35.0588 76.1748 35.0625 76.1748 35.0663 76.1748C35.7587 76.1748 36.3198 76.7565 36.3179 77.4753C36.3198 78.1921 35.755 78.7738 35.0588 78.7738ZM41.12 74.5047H41.1069H36.4268C36.0139 74.5047 35.7343 74.0843 35.8957 73.7034L36.6839 71.84C36.8021 71.5454 37.031 71.0987 37.5302 71.0912H44.6929C45.1846 71.0987 45.3084 71.3746 45.5393 71.84L46.3274 73.7034C46.4888 74.0843 46.2092 74.5047 45.7963 74.5047H41.12ZM47.093 78.8676C47.0912 78.8676 47.0912 78.8676 47.0893 78.8676C47.0874 78.8676 47.0874 78.8676 47.0855 78.8676C46.3837 78.8676 45.8189 78.2859 45.8151 77.5691C45.8189 76.8503 46.38 76.2686 47.0799 76.2686C47.0837 76.2686 47.0874 76.2686 47.0912 76.2686C47.095 76.2686 47.0987 76.2686 47.1024 76.2686C47.7893 76.2686 48.3503 76.8503 48.3541 77.5691C48.3484 78.2859 47.7836 78.8676 47.093 78.8676Z" fill="#DAE4ED"/>
<rect x="33.3125" y="80.4009" width="3.28033" height="4.59247" rx="1.64017" fill="#DAE4ED"/>
<rect x="46.4404" y="80.3999" width="3.04" height="4.56" rx="1.52" fill="#DAE4ED"/>
<path d="M54.6965 33.2584L54.6965 33.2584L54.698 33.2622L56.7771 38.5536C56.981 39.0725 57.438 39.3775 57.8326 39.5448C58.5908 39.866 59.4957 40.7156 59.5 42.0964C59.5 42.0966 59.5 42.0968 59.5 42.097L59.5 47.8337C59.5 48.2526 59.2827 48.6231 58.9467 48.8402C58.6955 49.0025 58.4122 49.2155 58.1878 49.4831C57.9614 49.753 57.7716 50.1074 57.7716 50.538V54C57.7716 54.2761 57.5477 54.5 57.2716 54.5H54.6531C54.3769 54.5 54.1531 54.2761 54.1531 54V51.0343C54.1531 50.2059 53.4815 49.5343 52.6531 49.5343H39.5463C38.7179 49.5343 38.0463 50.2059 38.0463 51.0343V54C38.0463 54.2761 37.8224 54.5 37.5463 54.5H34.7284C34.4523 54.5 34.2284 54.2761 34.2284 54V50.538C34.2284 50.1074 34.0386 49.753 33.8123 49.483C33.588 49.2154 33.3048 49.0023 33.0538 48.8398L32.7822 49.2596L33.0538 48.8398C32.7172 48.622 32.5 48.2506 32.5 47.8337L32.5 42.0956L32.5 42.0948C32.498 40.7159 33.3977 39.8672 34.15 39.5454C34.5427 39.3774 34.9989 39.0725 35.2025 38.5543L37.2818 33.2622L37.2821 33.2615C37.4747 32.7691 37.7687 32.3359 38.1879 32.0246C38.603 31.7164 39.1724 31.504 39.9605 31.5H43.2547H48.7856H52.0193C52.8124 31.504 53.3838 31.7167 53.7984 32.0246C54.2169 32.3354 54.5083 32.7676 54.6965 33.2584Z" fill="#00D9C9" fill-opacity="0.2" stroke="#00D9C9"/>
<path d="M24.6965 85.2584L24.6965 85.2584L24.698 85.2622L26.7771 90.5536C26.981 91.0725 27.438 91.3775 27.8326 91.5448C28.5908 91.866 29.4957 92.7156 29.5 94.0964C29.5 94.0966 29.5 94.0968 29.5 94.097L29.5 99.8337C29.5 100.253 29.2827 100.623 28.9467 100.84C28.6955 101.003 28.4122 101.216 28.1878 101.483C27.9614 101.753 27.7716 102.107 27.7716 102.538V106C27.7716 106.276 27.5477 106.5 27.2716 106.5H24.6531C24.3769 106.5 24.1531 106.276 24.1531 106V103.034C24.1531 102.206 23.4815 101.534 22.6531 101.534H9.54628C8.71785 101.534 8.04628 102.206 8.04628 103.034V106C8.04628 106.276 7.82242 106.5 7.54628 106.5H4.7284C4.45226 106.5 4.2284 106.276 4.2284 106V102.538C4.2284 102.107 4.03861 101.753 3.81232 101.483C3.588 101.215 3.30483 101.002 3.05382 100.84L2.78215 101.26L3.05382 100.84C2.71724 100.622 2.5 100.251 2.5 99.8337L2.5 94.0956L2.5 94.0948C2.49802 92.7159 3.39773 91.8672 4.15 91.5454C4.54267 91.3774 4.99886 91.0725 5.20247 90.5543L7.28183 85.2622L7.2821 85.2615C7.47473 84.7691 7.76869 84.3359 8.18795 84.0246C8.60303 83.7164 9.17237 83.504 9.9605 83.5H13.2547H18.7856H22.0193C22.8124 83.504 23.3838 83.7167 23.7984 84.0246C24.2169 84.3354 24.5083 84.7676 24.6965 85.2584Z" fill="#00D9C9" fill-opacity="0.2" stroke="#00D9C9"/>
<path d="M70.216 88.0016L70.2159 88.0016L70.2175 88.0055L72.0479 92.5708C72.2542 93.0855 72.7103 93.3855 73.0925 93.555C73.7498 93.8464 74.4964 94.5653 74.5 95.7095C74.5 95.7097 74.5 95.7099 74.5 95.7101L74.5 100.729C74.5 101.045 74.3457 101.329 74.0952 101.514C73.866 101.682 73.5908 101.9 73.3717 102.166C73.1505 102.435 72.9568 102.788 72.9568 103.221V106C72.9568 106.276 72.7329 106.5 72.4568 106.5H70.3331C70.057 106.5 69.8331 106.276 69.8331 106V103.655C69.8331 102.827 69.1615 102.155 68.3331 102.155H56.8449C56.0165 102.155 55.3449 102.827 55.3449 103.655V106C55.3449 106.276 55.121 106.5 54.8449 106.5H52.5432C52.2671 106.5 52.0432 106.276 52.0432 106V103.221C52.0432 102.788 51.8496 102.435 51.6285 102.166C51.4094 101.9 51.1343 101.682 50.9052 101.513C50.6541 101.328 50.5 101.043 50.5 100.729L50.5 95.7086L50.5 95.7079C50.4983 94.5654 51.2402 93.8475 51.8923 93.5556C52.2726 93.3854 52.7278 93.0854 52.9338 92.5715L54.7645 88.0055L54.7648 88.0048C54.9329 87.5836 55.1888 87.2146 55.553 86.9496C55.9136 86.6871 56.4119 86.5035 57.1077 86.5H60.0489H64.9871H67.8743C68.5746 86.5035 69.0746 86.6875 69.4348 86.9496C69.7983 87.2141 70.0518 87.582 70.216 88.0016Z" fill="#00D9C9" fill-opacity="0.2" stroke="#00D9C9"/>
<path d="M22.4437 85.27L22.4437 85.27L22.4452 85.2738L24.5017 90.6019C24.7031 91.1238 25.1609 91.4316 25.553 91.6021C26.2975 91.9259 27.1915 92.7799 27.1957 94.1731C27.1957 94.1733 27.1957 94.1735 27.1957 94.1737L27.1957 99.9501C27.1957 100.375 26.9803 100.747 26.6528 100.965C26.4061 101.129 26.1247 101.344 25.9015 101.611C25.6764 101.881 25.4861 102.235 25.4861 102.666V106.166C25.4861 106.442 25.2622 106.666 24.9861 106.666H22.4177C22.1416 106.666 21.9177 106.442 21.9177 106.166V103.166C21.9177 102.338 21.2462 101.666 20.4177 101.666H7.47513C6.6467 101.666 5.97513 102.338 5.97513 103.166V106.166C5.97513 106.442 5.75127 106.666 5.47513 106.666H2.70961C2.43347 106.666 2.20961 106.442 2.20961 106.166V102.666C2.20961 102.235 2.01925 101.881 1.79426 101.611C1.57117 101.344 1.28994 101.129 1.04341 100.965C0.71527 100.746 0.500004 100.373 0.500004 99.9501L0.500004 94.1723L0.500003 94.1716C0.498034 92.7802 1.38688 91.9271 2.12567 91.6027C2.51576 91.4314 2.97261 91.1238 3.17376 90.6027L5.23058 85.2738L5.23083 85.2731C5.42196 84.7758 5.71327 84.3393 6.12735 84.0263C6.53675 83.7169 7.09753 83.504 7.87402 83.5H11.1324H16.6032H19.8017C20.5831 83.504 21.1459 83.7172 21.5548 84.0263C21.9682 84.3388 22.2569 84.7742 22.4437 85.27Z" fill="#57A8F1" fill-opacity="0.2" stroke="#57A8F1"/>
<path d="M47.2522 70.568L47.2522 70.568L47.2538 70.5719L48.5925 73.9193C48.7974 74.4316 49.2554 74.7306 49.5979 74.9119C50.0423 75.1472 50.4975 75.641 50.5 76.3979C50.5 76.3981 50.5 76.3983 50.5 76.3985L50.5 80.2224C50.5 80.3776 50.442 80.5202 50.3417 80.6324C50.2979 80.6815 50.2408 80.7417 50.1774 80.8087C50.0372 80.9567 49.8657 81.1375 49.7373 81.3038C49.5344 81.5665 49.3272 81.92 49.3272 82.3587V84C49.3272 84.2761 49.1033 84.5 48.8272 84.5H47.6932C47.417 84.5 47.1932 84.2761 47.1932 84V82.6896C47.1932 81.8611 46.5216 81.1896 45.6932 81.1896H37.4421C36.6137 81.1896 35.9421 81.8611 35.9421 82.6896V84C35.9421 84.2761 35.7183 84.5 35.4421 84.5H34.1728C33.8967 84.5 33.6728 84.2761 33.6728 84V82.3587C33.6728 81.9202 33.4657 81.5665 33.2629 81.3038C33.1343 81.1371 32.9629 80.9561 32.8225 80.808C32.7593 80.7412 32.7024 80.6811 32.6585 80.632C32.5579 80.5192 32.5 80.3765 32.5 80.2224L32.5 76.397L32.5 76.3963C32.4989 75.6407 32.9507 75.1479 33.3914 74.9124C33.7318 74.7306 34.189 74.4315 34.3935 73.92L35.7326 70.5719L35.7328 70.5712C35.8542 70.2664 36.0364 70.0054 36.2914 69.8194C36.5426 69.6361 36.8958 69.5026 37.4022 69.5H39.6371H43.3902H45.5842C46.0941 69.5026 46.4486 69.6364 46.6994 69.8194C46.9536 70.0048 47.1339 70.2648 47.2522 70.568Z" fill="#00D9C9" fill-opacity="0.2" stroke="#00D9C9"/>
<path d="M52.4437 33.27L52.4437 33.27L52.4452 33.2738L54.5017 38.6019C54.7031 39.1238 55.1609 39.4316 55.553 39.6021C56.2975 39.9259 57.1915 40.7799 57.1957 42.1731C57.1957 42.1733 57.1957 42.1735 57.1957 42.1737L57.1957 47.9501C57.1957 48.3749 56.9803 48.7473 56.6528 48.9652C56.4061 49.1294 56.1247 49.3437 55.9015 49.6112C55.6764 49.8811 55.4861 50.2354 55.4861 50.6663V54.166C55.4861 54.4422 55.2622 54.666 54.9861 54.666H52.4177C52.1416 54.666 51.9177 54.4422 51.9177 54.166V51.166C51.9177 50.3376 51.2462 49.666 50.4177 49.666H37.4751C36.6467 49.666 35.9751 50.3376 35.9751 51.166V54.166C35.9751 54.4422 35.7513 54.666 35.4751 54.666H32.7096C32.4335 54.666 32.2096 54.4422 32.2096 54.166V50.6663C32.2096 50.2354 32.0193 49.8811 31.7943 49.6112C31.5712 49.3436 31.2899 49.1291 31.0434 48.9648C30.7153 48.7462 30.5 48.3729 30.5 47.9501L30.5 42.1723L30.5 42.1716C30.498 40.7802 31.3869 39.9271 32.1257 39.6027C32.5158 39.4314 32.9726 39.1238 33.1738 38.6027L35.2306 33.2738L35.2308 33.2731C35.422 32.7758 35.7133 32.3393 36.1274 32.0263C36.5368 31.7169 37.0975 31.504 37.874 31.5H41.1324H46.6032H49.8017C50.5831 31.504 51.1459 31.7172 51.5548 32.0263C51.9682 32.3388 52.2569 32.7742 52.4437 33.27Z" fill="#57A8F1" fill-opacity="0.2" stroke="#57A8F1"/>
<path d="M75 82L67 90" stroke="#EB5353" stroke-width="1.5" stroke-linecap="round" stroke-linejoin="round"/>
<path d="M75 90L67 82" stroke="#EB5353" stroke-width="1.5" stroke-linecap="round" stroke-linejoin="round"/>
</svg>
