<svg width="23" height="18" viewBox="0 0 23 18" fill="none" xmlns="http://www.w3.org/2000/svg">
<path d="M17.4559 5L22 9L17.4559 13" stroke="#F1F5F9" stroke-width="2" stroke-linecap="round" stroke-linejoin="round"/>
<path d="M21.4629 9H12.7051H7" stroke="#F1F5F9" stroke-width="2" stroke-linecap="round" stroke-linejoin="round"/>
<path d="M12 5C12 5.55228 12.4477 6 13 6C13.5523 6 14 5.55228 14 5H12ZM13 1H14C14 0.447715 13.5523 0 13 0V1ZM1 1V0C0.447715 0 0 0.447715 0 1L1 1ZM1 17H0C0 17.5523 0.447715 18 1 18L1 17ZM13 17V18C13.5523 18 14 17.5523 14 17H13ZM14 13C14 12.4477 13.5523 12 13 12C12.4477 12 12 12.4477 12 13H14ZM14 5V1H12V5H14ZM13 0H1V2H13V0ZM0 1V17H2V1H0ZM1 18H13V16H1V18ZM14 17V13H12V17H14Z" fill="#F1F5F9"/>
</svg>
