<svg width="12" height="12" viewBox="0 0 12 12" fill="none" xmlns="http://www.w3.org/2000/svg">
<path fill-rule="evenodd" clip-rule="evenodd" d="M6.00002 0.166748C2.78002 0.166748 0.166687 2.78008 0.166687 6.00008C0.166687 9.22008 2.78002 11.8334 6.00002 11.8334C9.22002 11.8334 11.8334 9.22008 11.8334 6.00008C11.8334 2.78008 9.22002 0.166748 6.00002 0.166748ZM6.00002 6.58342C5.67919 6.58342 5.41669 6.32091 5.41669 6.00008V3.66675C5.41669 3.34591 5.67919 3.08341 6.00002 3.08341C6.32085 3.08341 6.58335 3.34591 6.58335 3.66675V6.00008C6.58335 6.32091 6.32085 6.58342 6.00002 6.58342ZM6.00002 8.91675C6.32219 8.91675 6.58335 8.65558 6.58335 8.33341C6.58335 8.01125 6.32219 7.75008 6.00002 7.75008C5.67785 7.75008 5.41669 8.01125 5.41669 8.33341C5.41669 8.65558 5.67785 8.91675 6.00002 8.91675Z" fill="#DE3E3E"/>
</svg>
