<svg width="24" height="24" viewBox="0 0 24 24" fill="none" xmlns="http://www.w3.org/2000/svg">
<mask id="path-1-outside-1" maskUnits="userSpaceOnUse" x="5.5" y="6.05151" width="12" height="12" fill="black">
<rect fill="white" x="5.5" y="6.05151" width="12" height="12"/>
<path fill-rule="evenodd" clip-rule="evenodd" d="M15.0851 7.05151L11.25 9.36358L7.79363 7.27983C7.50995 7.739 7.04573 8.07483 6.5 8.18826V15.0902C7.10956 15.2169 7.61743 15.621 7.8856 16.1646L11.25 14.1363L15.0146 16.4059C15.1826 15.9102 15.5397 15.5017 16 15.2664V8.01201C15.5964 7.80566 15.2721 7.46619 15.0851 7.05151Z"/>
</mask>
<path d="M15.0851 7.05151L15.9967 6.64039C15.8791 6.3798 15.6557 6.18196 15.3828 6.09686C15.1099 6.01175 14.8136 6.04751 14.5688 6.19511L15.0851 7.05151ZM11.25 9.36358L10.7337 10.22C11.0513 10.4114 11.4487 10.4114 11.7663 10.22L11.25 9.36358ZM7.79363 7.27983L8.30993 6.42342C7.84058 6.14047 7.23093 6.288 6.94289 6.75425L7.79363 7.27983ZM6.5 8.18826L6.2965 7.20918C5.83256 7.30561 5.5 7.71441 5.5 8.18826H6.5ZM6.5 15.0902H5.5C5.5 15.564 5.83256 15.9728 6.2965 16.0692L6.5 15.0902ZM7.8856 16.1646L6.98879 16.607C7.11259 16.858 7.33589 17.0456 7.60445 17.1243C7.87301 17.2029 8.16224 17.1655 8.4019 17.021L7.8856 16.1646ZM11.25 14.1363L11.7663 13.2799C11.4487 13.0884 11.0513 13.0884 10.7337 13.2799L11.25 14.1363ZM15.0146 16.4059L14.4983 17.2623C14.7576 17.4186 15.0738 17.449 15.3582 17.345C15.6425 17.241 15.8645 17.0137 15.9617 16.7269L15.0146 16.4059ZM16 15.2664L16.4552 16.1568C16.7896 15.9858 17 15.6419 17 15.2664H16ZM16 8.01201H17C17 7.63647 16.7896 7.29258 16.4552 7.12163L16 8.01201ZM14.5688 6.19511L10.7337 8.50717L11.7663 10.22L15.6014 7.90792L14.5688 6.19511ZM11.7663 8.50717L8.30993 6.42342L7.27732 8.13624L10.7337 10.22L11.7663 8.50717ZM6.94289 6.75425C6.79986 6.98575 6.56659 7.15304 6.2965 7.20918L6.7035 9.16733C7.52487 8.99661 8.22004 8.49226 8.64437 7.80542L6.94289 6.75425ZM5.5 8.18826V15.0902H7.5V8.18826H5.5ZM6.2965 16.0692C6.59851 16.132 6.85399 16.3338 6.98879 16.607L8.78241 15.7222C8.38086 14.9082 7.62061 14.3017 6.7035 14.1111L6.2965 16.0692ZM8.4019 17.021L11.7663 14.9927L10.7337 13.2799L7.36929 15.3082L8.4019 17.021ZM10.7337 14.9927L14.4983 17.2623L15.5309 15.5495L11.7663 13.2799L10.7337 14.9927ZM15.9617 16.7269C16.0452 16.4804 16.2242 16.2749 16.4552 16.1568L15.5448 14.376C14.8552 14.7286 14.32 15.3399 14.0675 16.0848L15.9617 16.7269ZM17 15.2664V8.01201H15V15.2664H17ZM16.4552 7.12163C16.253 7.01826 16.0901 6.84747 15.9967 6.64039L14.1735 7.46264C14.4542 8.08491 14.9397 8.59305 15.5448 8.90239L16.4552 7.12163Z" fill="#1F1F1F" mask="url(#path-1-outside-1)"/>
<rect x="4.5" y="4.63928" width="3.09091" height="3.09091" rx="1.5" stroke="#1F1F1F" stroke-linecap="round" stroke-linejoin="round"/>
<rect x="4.5" y="15.5483" width="3.09091" height="3.09091" rx="1.5" stroke="#1F1F1F" stroke-linecap="round" stroke-linejoin="round"/>
<rect x="15.4092" y="15.5483" width="3.09091" height="3.09091" rx="1.5" stroke="#1F1F1F" stroke-linecap="round" stroke-linejoin="round"/>
<rect x="15.4092" y="4.63928" width="3.09091" height="3.09091" rx="1.5" stroke="#1F1F1F" stroke-linecap="round" stroke-linejoin="round"/>
</svg>
