<svg width="24" height="24" viewBox="0 0 24 24" fill="none" xmlns="http://www.w3.org/2000/svg">
<g clip-path="url(#clip0)">
<circle cx="12" cy="12" r="7" stroke="#1F1F1F"/>
<path d="M11.5 12.5H11C11 12.7761 11.2239 13 11.5 13V12.5ZM12 7.5C12 7.22386 11.7761 7 11.5 7C11.2239 7 11 7.22386 11 7.5H12ZM14.5 13C14.7761 13 15 12.7761 15 12.5C15 12.2239 14.7761 12 14.5 12V13ZM12 12.5V7.5H11V12.5H12ZM11.5 13H14.5V12H11.5V13Z" fill="#1F1F1F"/>
</g>
<defs>
<clipPath id="clip0">
<rect width="15" height="15" fill="white" transform="translate(4.5 4.5)"/>
</clipPath>
</defs>
</svg>
