<svg width="143" height="24" viewBox="0 0 143 24" fill="none" xmlns="http://www.w3.org/2000/svg">
<path d="M15.5497 18.2714L20.3398 8.44286C20.3969 8.34286 20.3112 8.21429 20.1968 8.21429H14.4344C14.3058 8.21429 14.2057 8.28572 14.1485 8.4L9.77312 17.3714C9.50144 17.9286 8.9438 18.2714 8.32896 18.2714C7.71412 18.2714 7.15648 17.9143 6.88481 17.3714L0.865112 5H4.43975L8.18598 12.7C8.24317 12.8143 8.41475 12.8143 8.47195 12.7L11.7749 5.9C12.0466 5.34286 12.6042 5 13.2191 5H22.985C23.4425 5 23.9001 5.18572 24.2147 5.52857C24.6579 6.02857 24.7437 6.72857 24.4577 7.3L19.1244 18.2714H15.5497Z" fill="currentColor"/>
<path d="M43.8895 0.871582C48.2077 0.871582 51.5106 1.7573 53.6697 3.81444C55.3855 5.42873 56.6581 7.90016 56.6581 11.1573C56.6581 15.3002 55.0138 18.3287 52.3971 20.3144C49.852 22.2716 46.3203 23.1573 42.0736 23.1573H33.4944V22.0573C36.3113 21.8144 36.6115 21.6144 36.6115 18.7002V5.3573C36.6115 2.41444 36.297 2.20015 33.7947 2.00015V0.871582H43.8895ZM40.6294 18.4573C40.6294 20.9573 41.3872 21.743 43.7894 21.743C49.037 21.743 52.1684 17.6287 52.1684 11.7716C52.1684 8.37158 51.0388 5.62873 49.0513 4.0573C47.5785 2.78587 45.7197 2.17158 43.389 2.17158C42.045 2.17158 41.3015 2.41444 41.0155 2.6573C40.7438 2.92873 40.6437 3.44301 40.6437 4.57158V18.4573H40.6294Z" fill="currentColor"/>
<path d="M70.7994 23.5715C70.013 23.5715 69.3267 23.2572 68.8834 22.8858C68.4402 22.4429 68.1971 22.0001 68.0255 21.5144C66.6814 22.4001 65.08 23.5715 64.2793 23.5715C61.5339 23.5715 59.8181 21.3715 59.8181 19.2572C59.8181 17.5144 60.676 16.5858 62.4919 15.9286C64.5223 15.2144 67.1247 14.3572 67.9111 13.6715V12.8144C67.9111 10.5572 66.9531 9.28579 65.5089 9.28579C64.9942 9.28579 64.5509 9.48579 64.2364 9.90008C63.8217 10.3858 63.5214 11.1715 63.2355 12.2286C63.0353 13.0144 62.5777 13.2572 61.9343 13.2572C61.1479 13.2572 60.0469 12.5001 60.0469 11.6144C60.0469 11.0715 60.4616 10.6144 61.2194 10.1001C62.3919 9.24294 64.7511 8.04294 66.71 7.67151C67.9826 7.67151 69.0121 7.98579 69.87 8.62865C71.2427 9.68579 71.5858 11.1715 71.5858 13.0144V18.9429C71.5858 20.5144 72.1292 20.9715 72.7154 20.9715C73.1301 20.9715 73.5447 20.8286 73.8879 20.6572L74.2597 21.6858L70.7994 23.5715ZM67.9111 14.9286C67.2248 15.3001 66.2954 15.7858 65.5804 16.1572C64.408 16.7001 63.7931 17.3572 63.7931 18.5572C63.7931 20.4144 65.0943 21.1572 65.9951 21.1572C66.6099 21.1572 67.2963 20.8429 67.9111 20.3715V14.9286Z" fill="currentColor"/>
<path d="M81.6091 11.3001C82.7816 9.27152 84.1828 7.67152 85.5841 7.67152C86.8853 7.67152 87.7861 8.60009 87.7861 9.65724C87.7861 10.6572 87.1283 11.543 86.3133 11.8572C85.8701 12.0287 85.5269 11.9572 85.3124 11.7572C84.7262 11.2715 84.3115 11.043 83.7682 11.043C83.0104 11.043 82.1953 11.7001 81.5376 13.2715V19.6144C81.5376 21.7715 81.7092 21.943 84.3544 22.1572V23.1858H75.5036V22.1572C77.4625 21.9572 77.7628 21.7858 77.7628 19.6144V12.243C77.7628 10.3287 77.5626 10.1858 75.8039 9.84295V8.95724C77.7199 8.68581 79.5787 8.27152 81.5376 7.61438V11.3144H81.6091V11.3001Z" fill="currentColor"/>
<path d="M113.323 9.07142C111.636 9.3857 111.364 9.6857 110.678 11.5C109.477 14.5143 108.004 18.7714 106.36 23.5286H105.187C103.843 20.1286 102.442 16.8714 101.098 13.5857C99.7969 16.8428 98.5243 20.0714 97.2232 23.5286H96.0221C94.678 19.3428 93.2767 15.2 91.9327 11.2857C91.3464 9.57142 91.0748 9.25713 89.5305 9.05713V8.05713H97.5234V9.05713C95.493 9.39999 95.3214 9.67142 95.7361 10.9714C96.451 13.3 97.2089 15.7714 97.9381 18.1H98.0096C99.2392 15.0143 100.412 11.7286 101.713 8.1857H102.914C104.144 11.5143 105.488 14.8 106.86 18.2H106.932C107.547 16.3143 108.576 13.0571 109.019 11.1714C109.363 9.69999 109.191 9.3857 107.032 9.04285V8.04285H113.309V9.07142H113.323Z" fill="currentColor"/>
<path d="M114.51 23.1572V22.1286C116.569 21.8858 116.769 21.7572 116.769 19.3572V12.4715C116.769 10.2715 116.569 10.1429 114.782 9.87147V8.91433C116.741 8.67147 118.8 8.22861 120.544 7.6429V19.3715C120.544 21.7 120.716 21.9143 122.846 22.1429V23.1715H114.51V23.1572ZM116.226 3.02861C116.226 1.80004 117.255 0.828613 118.428 0.828613C119.658 0.828613 120.63 1.78576 120.63 3.02861C120.63 4.20004 119.672 5.18576 118.399 5.18576C117.255 5.18576 116.226 4.20004 116.226 3.02861Z" fill="currentColor"/>
<path d="M134.457 23.1571V22.1286C136.101 21.9286 136.315 21.7571 136.315 19.3143V13.5571C136.315 11.1286 135.257 10.1 133.67 10.1C132.612 10.1 131.611 10.6428 130.682 11.4V19.6C130.682 21.8 130.882 21.9286 132.498 22.1428V23.1714H124.533V22.1428C126.735 21.8714 126.907 21.7714 126.907 19.5V12.4C126.907 10.2714 126.735 10.1714 124.991 9.82856V8.89999C126.807 8.65713 128.837 8.1857 130.682 7.55713V10.1571C131.368 9.67141 132.054 9.15713 132.884 8.64284C133.885 7.9857 134.628 7.64284 135.629 7.64284C138.374 7.64284 140.062 9.62856 140.062 13.0286V19.5428C140.062 21.7714 140.262 21.8714 142.149 22.1143V23.1428H134.457V23.1571Z" fill="currentColor"/>
</svg>
