<svg width="26" height="15" viewBox="0 0 26 15" fill="none" xmlns="http://www.w3.org/2000/svg">
<path d="M15.8888 14.2219L21.0797 3.68636C21.0926 3.66045 21.0987 3.63166 21.0971 3.60277C21.0956 3.57388 21.0866 3.54587 21.0709 3.52145C21.0553 3.49702 21.0335 3.47701 21.0078 3.46334C20.982 3.44967 20.9531 3.44281 20.9239 3.44341H14.676C14.6107 3.44381 14.5467 3.46186 14.491 3.49562C14.4353 3.52937 14.3899 3.57756 14.3598 3.63497L9.63614 13.2502C9.49374 13.5403 9.27174 13.785 8.99553 13.9562C8.71931 14.1273 8.40003 14.2181 8.07416 14.2181C7.7483 14.2181 7.42902 14.1273 7.1528 13.9562C6.87659 13.785 6.65459 13.5403 6.51218 13.2502L0 7.55889e-05H3.86484L7.91844 8.251C7.93165 8.28101 7.95343 8.30655 7.98109 8.32449C8.00875 8.34243 8.0411 8.35198 8.07416 8.35198C8.10723 8.35198 8.13958 8.34243 8.16724 8.32449C8.1949 8.30655 8.21667 8.28101 8.22989 8.251L11.8069 0.9672C11.9512 0.674647 12.1763 0.428552 12.4561 0.257397C12.7359 0.0862426 13.0589 -0.00297287 13.3877 7.55889e-05H23.9299C24.1789 -0.00208943 24.4256 0.0475264 24.654 0.145713C24.8825 0.2439 25.0875 0.388472 25.2559 0.570072C25.4862 0.824899 25.6347 1.14175 25.6826 1.48034C25.7305 1.81893 25.6756 2.16398 25.5249 2.47162L19.7536 14.2219H15.8888Z" fill="currentColor"/>
</svg>
