<svg width="36" height="36" viewBox="0 0 36 36" fill="none" xmlns="http://www.w3.org/2000/svg">
<circle cx="18" cy="18" r="18" fill="#9A69EB"/>
<circle cx="18" cy="18" r="18" stroke="#E3EAF2"/>
<g clip-path="url(#clip0)">
<path d="M9.70315 8.90841L9.96815 9.33241L9.70315 8.90841C10.0245 8.70757 10.322 8.47091 10.5899 8.20296L12.456 6.33693C13.3177 5.47515 14.6568 5.31379 15.6986 5.94619C16.4885 6.42564 16.9711 7.28185 16.9711 8.2063L16.9711 21C16.9711 21.736 16.9796 22.4336 16.9873 23.0741C16.995 23.7054 17.0019 24.2812 16.9995 24.7837C16.9945 25.8154 16.9522 26.681 16.783 27.3693C16.6097 28.0747 16.2903 28.6449 15.7013 29.0166C15.1359 29.3734 14.3937 29.5 13.4798 29.5C10.6984 29.5 8.82393 27.4054 7.6754 25.1657C6.52035 22.9132 6 20.3355 6 19L6 17L6 15.4129C6 12.8064 7.34279 10.3836 9.55318 9.00214L9.70315 8.90841Z" fill="#F1F5F9" stroke="#9A69EB"/>
<path d="M22.5202 29.5C25.3016 29.5 27.1761 27.4054 28.3246 25.1657C29.4797 22.9132 30 20.3355 30 19L30 17L30 15.4129C30 12.8064 28.6572 10.3836 26.4468 9.00214L26.2969 8.90841C25.9755 8.70757 25.678 8.47091 25.4101 8.20296L23.544 6.33692C22.6823 5.47515 21.3432 5.31379 20.3014 5.94619C19.5115 6.42564 19.0289 7.28185 19.0289 8.20629L19.0289 21C19.0289 21.736 19.0204 22.4336 19.0127 23.0741C19.005 23.7054 18.9981 24.2812 19.0005 24.7837C19.0055 25.8154 19.0478 26.681 19.217 27.3693C19.3903 28.0747 19.7097 28.6449 20.2987 29.0166C20.8641 29.3734 21.6063 29.5 22.5202 29.5Z" fill="#F1F5F9" stroke="#9A69EB"/>
<path d="M16.1194 11.5C16.3955 11.5 16.6194 11.2761 16.6194 11C16.6194 10.7239 16.3955 10.5 16.1194 10.5V11.5ZM12.5 10.5C12.2239 10.5 12 10.7239 12 11C12 11.2761 12.2239 11.5 12.5 11.5V10.5ZM10.6194 14L10.9729 13.6464C10.8791 13.5527 10.752 13.5 10.6194 13.5V14ZM7 13.5C6.72386 13.5 6.5 13.7239 6.5 14C6.5 14.2761 6.72386 14.5 7 14.5V13.5ZM9.61936 21.3806V21.8806C9.75197 21.8806 9.87914 21.828 9.97291 21.7342L9.61936 21.3806ZM7 20.8806C6.72386 20.8806 6.5 21.1045 6.5 21.3806C6.5 21.6568 6.72386 21.8806 7 21.8806V20.8806ZM12.5 26.5C12.7761 26.5 13 26.2761 13 26C13 25.7239 12.7761 25.5 12.5 25.5V26.5ZM8.88064 25.5C8.6045 25.5 8.38064 25.7239 8.38064 26C8.38064 26.2761 8.6045 26.5 8.88064 26.5V25.5ZM11.5 19.5V19C11.3674 19 11.2402 19.0527 11.1464 19.1464L11.5 19.5ZM13.5 20C13.7761 20 14 19.7761 14 19.5C14 19.2239 13.7761 19 13.5 19V20ZM11.7658 15.8536C11.9611 16.0488 12.2777 16.0488 12.4729 15.8536C12.6682 15.6583 12.6682 15.3417 12.4729 15.1464L11.7658 15.8536ZM23.1194 24.5C23.3955 24.5 23.6194 24.2761 23.6194 24C23.6194 23.7239 23.3955 23.5 23.1194 23.5V24.5ZM20 23.5C19.7239 23.5 19.5 23.7239 19.5 24C19.5 24.2761 19.7239 24.5 20 24.5V23.5ZM29 21.5C29.2761 21.5 29.5 21.2761 29.5 21C29.5 20.7239 29.2761 20.5 29 20.5V21.5ZM26 21L25.6464 21.3536C25.7402 21.4473 25.8674 21.5 26 21.5V21ZM24.5 19.5L24.8536 19.1464C24.7598 19.0527 24.6326 19 24.5 19V19.5ZM22.5 19C22.2239 19 22 19.2239 22 19.5C22 19.7761 22.2239 20 22.5 20V19ZM20 16C19.7239 16 19.5 16.2239 19.5 16.5C19.5 16.7761 19.7239 17 20 17V16ZM22.5 16.5V17C22.6326 17 22.7598 16.9473 22.8536 16.8536L22.5 16.5ZM24.5 14.5V14C24.3674 14 24.2402 14.0527 24.1464 14.1464L24.5 14.5ZM26.5 15C26.7761 15 27 14.7761 27 14.5C27 14.2239 26.7761 14 26.5 14V15ZM25.8536 9.35355C26.0488 9.15829 26.0488 8.84171 25.8536 8.64645C25.6583 8.45118 25.3417 8.45118 25.1464 8.64645L25.8536 9.35355ZM23.5 11V11.5C23.6326 11.5 23.7598 11.4473 23.8536 11.3536L23.5 11ZM21.5 10.5C21.2239 10.5 21 10.7239 21 11C21 11.2761 21.2239 11.5 21.5 11.5V10.5ZM16.1194 10.5H12.5V11.5H16.1194V10.5ZM10.6194 13.5H7V14.5H10.6194V13.5ZM9.61936 20.8806H7V21.8806H9.61936V20.8806ZM12.5 25.5H8.88064V26.5H12.5V25.5ZM9.97291 21.7342L11.8536 19.8536L11.1464 19.1464L9.26581 21.0271L9.97291 21.7342ZM11.5 20H13.5V19H11.5V20ZM10.2658 14.3536L11.7658 15.8536L12.4729 15.1464L10.9729 13.6464L10.2658 14.3536ZM23.1194 23.5H20V24.5H23.1194V23.5ZM29 20.5H26V21.5H29V20.5ZM26.3536 20.6464L24.8536 19.1464L24.1464 19.8536L25.6464 21.3536L26.3536 20.6464ZM24.5 19H22.5V20H24.5V19ZM20 17H22.5V16H20V17ZM22.8536 16.8536L24.8536 14.8536L24.1464 14.1464L22.1464 16.1464L22.8536 16.8536ZM24.5 15H26.5V14H24.5V15ZM25.1464 8.64645L23.1464 10.6464L23.8536 11.3536L25.8536 9.35355L25.1464 8.64645ZM23.5 10.5H21.5V11.5H23.5V10.5Z" fill="#9A69EB"/>
</g>
<defs>
<clipPath id="clip0">
<rect width="25" height="25" fill="white" transform="translate(5.5 5)"/>
</clipPath>
</defs>
</svg>
