<svg width="20" height="20" viewBox="0 0 20 20" fill="none" xmlns="http://www.w3.org/2000/svg">
  <path d="M3.91809 15.5941L3.19048 15.4122C3.12659 15.6677 3.20148 15.9381 3.38776 16.1244C3.57405 16.3107 3.84441 16.3856 4.09999 16.3217L3.91809 15.5941ZM10.8055 6.41089L11.3358 5.88056C11.0429 5.58767 10.568 5.58767 10.2751 5.88056L10.8055 6.41089ZM7.29252 14.5154L7.82285 15.0458L7.29252 14.5154ZM7.05159 14.7378L7.48937 15.3468L7.05159 14.7378ZM6.54921 14.9363L6.73111 15.6639L6.54921 14.9363ZM6.86385 14.8441L6.56689 14.1554L6.86385 14.8441ZM12.6381 8.39767L13.3514 8.1659L12.6381 8.39767ZM11.9699 9.83805L11.4396 9.30772L11.9699 9.83805ZM12.6381 9.0157L11.9248 8.78394L12.6381 9.0157ZM4.66805 12.6483L5.35675 12.9453L4.66805 12.6483ZM4.99673 12.2196L4.4664 11.6893L4.99673 12.2196ZM4.77435 12.4606L5.38333 12.8983L4.77435 12.4606ZM4.6457 15.776L5.30348 13.1448L3.84826 12.781L3.19048 15.4122L4.6457 15.776ZM5.52706 12.75L11.3358 6.94122L10.2751 5.88056L4.4664 11.6893L5.52706 12.75ZM10.2751 6.94122L11.4396 8.10564L12.5002 7.04498L11.3358 5.88056L10.2751 6.94122ZM11.4396 9.30772L6.76219 13.9851L7.82285 15.0458L12.5002 10.3684L11.4396 9.30772ZM6.36731 14.2087L3.73619 14.8665L4.09999 16.3217L6.73111 15.6639L6.36731 14.2087ZM6.76219 13.9851C6.70068 14.0466 6.66662 14.0805 6.63995 14.1056C6.61686 14.1272 6.61163 14.1304 6.61382 14.1288L7.48937 15.3468C7.61616 15.2556 7.72287 15.1457 7.82285 15.0458L6.76219 13.9851ZM6.73111 15.6639C6.86828 15.6296 7.01743 15.5946 7.16082 15.5328L6.56689 14.1554C6.56937 14.1543 6.56394 14.1572 6.5335 14.1658C6.49832 14.1758 6.4517 14.1876 6.36731 14.2087L6.73111 15.6639ZM6.61382 14.1288C6.59918 14.1394 6.58345 14.1483 6.56689 14.1554L7.16082 15.5328C7.27672 15.4828 7.38688 15.4205 7.48937 15.3468L6.61382 14.1288ZM11.4396 8.10564C11.6463 8.3124 11.7691 8.43599 11.8529 8.53475C11.9311 8.62682 11.9305 8.64693 11.9248 8.62943L13.3514 8.1659C13.2715 7.92007 13.1348 7.72701 12.9964 7.56399C12.8637 7.40766 12.6895 7.23424 12.5002 7.04498L11.4396 8.10564ZM12.5002 10.3684C12.6895 10.1791 12.8637 10.0057 12.9964 9.84938C13.1348 9.68636 13.2715 9.49329 13.3514 9.24746L11.9248 8.78394C11.9305 8.76644 11.9311 8.78654 11.8529 8.87861C11.7691 8.97738 11.6463 9.10096 11.4396 9.30772L12.5002 10.3684ZM11.9248 8.62943C11.9411 8.67964 11.9411 8.73373 11.9248 8.78394L13.3514 9.24746C13.4656 8.89599 13.4656 8.51738 13.3514 8.1659L11.9248 8.62943ZM5.30348 13.1448C5.32458 13.0605 5.33632 13.0138 5.34632 12.9787C5.35497 12.9482 5.35782 12.9428 5.35675 12.9453L3.97934 12.3513C3.91752 12.4947 3.88255 12.6439 3.84826 12.781L5.30348 13.1448ZM4.4664 11.6893C4.36642 11.7893 4.25651 11.896 4.16537 12.0228L5.38333 12.8983C5.38175 12.9005 5.38494 12.8953 5.40659 12.8722C5.43161 12.8455 5.46554 12.8115 5.52706 12.75L4.4664 11.6893ZM5.35675 12.9453C5.36389 12.9287 5.3728 12.913 5.38333 12.8983L4.16537 12.0228C4.09169 12.1253 4.02932 12.2354 3.97934 12.3513L5.35675 12.9453Z" fill="white"/>
  <path d="M11.9534 7.55872L13.5005 9.10577C13.8965 9.50179 14.0945 9.6998 14.1687 9.92812C14.234 10.129 14.234 10.3453 14.1687 10.5462C14.0945 10.7745 13.8965 10.9725 13.5005 11.3685L11.5708 13.2982" stroke="white" stroke-width="1.5" stroke-linecap="round" stroke-linejoin="round"/>
  <path d="M12.5738 4.87932C13.1706 4.28251 14.1382 4.28251 14.735 4.87932V4.87932C15.3318 5.47612 15.3318 6.44374 14.735 7.04054L14.7228 7.05276L12.5616 4.89153L12.5738 4.87932Z" fill="white" stroke="white" stroke-width="1.5" stroke-linecap="round"/>
</svg>
