<svg xmlns="http://www.w3.org/2000/svg" width="20" height="20" fill="none" viewBox="0 0 20 20">
  <path fill="#F5B800" d="M10.0001 14.9704C10.8982 14.3383 11.8112 13.5722 12.6919 12.6915C13.5725 11.8109 14.3386 10.898 14.9706 10.0001C14.3385 9.1021 13.5725 8.18916 12.6918 7.3085C11.8111 6.4278 10.8981 5.66171 10.0001 5.02966C9.1022 5.66168 8.18932 6.42771 7.3087 7.30833C6.42797 8.18905 5.66185 9.10204 5.02979 10.0001C5.66183 10.898 6.42792 11.811 7.30859 12.6917C8.18925 13.5723 9.10217 14.3384 10.0001 14.9704Z" opacity="0.12"/>
  <path stroke="#F5B800" stroke-linecap="round" stroke-linejoin="round" stroke-width="1.5" d="M10 10.0001H10.0076M12.6916 12.6916C9.12394 16.2593 5.02671 17.9464 3.54018 16.4599C2.05365 14.9733 3.74075 10.8761 7.30842 7.30849C10.8761 3.74085 14.9733 2.05376 16.4599 3.54028C17.9464 5.0268 16.2593 9.124 12.6916 12.6916ZM12.6916 7.30835C16.2593 10.876 17.9464 14.9732 16.4598 16.4597C14.9733 17.9462 10.8761 16.2592 7.30839 12.6915C3.74071 9.12387 2.05362 5.02666 3.54015 3.54014C5.02668 2.05362 9.12391 3.74071 12.6916 7.30835ZM10.3807 10.0001C10.3807 10.2103 10.2102 10.3807 10 10.3807C9.78979 10.3807 9.61937 10.2103 9.61937 10.0001C9.61937 9.78984 9.78979 9.61942 10 9.61942C10.2102 9.61942 10.3807 9.78984 10.3807 10.0001Z"/>
</svg>
