<svg xmlns="http://www.w3.org/2000/svg" width="20" height="20" fill="none" viewBox="0 0 20 20">
  <path stroke="white" stroke-linecap="round" stroke-linejoin="round" stroke-width="1.5" d="M10 10.0001H10.0076M12.6916 12.6916C9.12394 16.2593 5.02671 17.9464 3.54018 16.4599C2.05365 14.9733 3.74075 10.8761 7.30842 7.30849C10.8761 3.74085 14.9733 2.05376 16.4599 3.54028C17.9464 5.0268 16.2593 9.124 12.6916 12.6916ZM12.6916 7.30835C16.2593 10.876 17.9464 14.9732 16.4598 16.4597C14.9733 17.9462 10.8761 16.2592 7.30839 12.6915C3.74071 9.12387 2.05362 5.02666 3.54015 3.54014C5.02668 2.05362 9.12391 3.74071 12.6916 7.30835ZM10.3807 10.0001C10.3807 10.2103 10.2102 10.3807 10 10.3807C9.78979 10.3807 9.61937 10.2103 9.61937 10.0001C9.61937 9.78984 9.78979 9.61942 10 9.61942C10.2102 9.61942 10.3807 9.78984 10.3807 10.0001Z"/>
</svg>
