<svg width="20" height="20" viewBox="0 0 20 20" fill="none" xmlns="http://www.w3.org/2000/svg">
  <rect x="11.75" y="11.2954" width="5.5" height="4.95455" rx="1.25" fill="#BF36BF" fill-opacity="0.24" stroke="#BF36BF" stroke-width="1.5"/>
  <rect x="11.75" y="3.75" width="5.5" height="4.95455" rx="1.25" fill="#BF36BF" fill-opacity="0.24" stroke="#BF36BF" stroke-width="1.5"/>
  <path d="M5.16437 9.65193C4.97218 9.28501 4.51892 9.14337 4.15199 9.33557C3.78507 9.52776 3.64343 9.98102 3.83563 10.3479L5.16437 9.65193ZM6.05079 12.9605L5.38641 13.3085L6.05079 12.9605ZM9 14.5681H9.75V13.0681H9V14.5681ZM6.41485 13.5417L5.89718 14.0844L5.89718 14.0844L6.41485 13.5417ZM6.78436 13.7653L6.54382 14.4757L6.54382 14.4757L6.78436 13.7653ZM3.83563 10.3479L5.38641 13.3085L6.71516 12.6125L5.16437 9.65193L3.83563 10.3479ZM7.46812 14.5681H9V13.0681H7.46812V14.5681ZM5.38641 13.3085C5.525 13.5731 5.66731 13.8651 5.89718 14.0844L6.93252 12.999C6.93832 13.0046 6.92764 12.9977 6.89112 12.9373C6.85007 12.8694 6.80093 12.7763 6.71516 12.6125L5.38641 13.3085ZM7.46812 13.0681C7.28327 13.0681 7.17799 13.0678 7.0988 13.0629C7.02837 13.0586 7.0173 13.0523 7.02489 13.0549L6.54382 14.4757C6.84472 14.5776 7.16945 14.5681 7.46812 14.5681V13.0681ZM5.89718 14.0844C6.08166 14.2604 6.30235 14.3939 6.54382 14.4757L7.02489 13.0549C6.9904 13.0432 6.95887 13.0242 6.93252 12.999L5.89718 14.0844Z" fill="#BF36BF"/>
  <path d="M2 10H3.53188C3.88372 10 4.05963 10 4.21564 9.94718C4.35363 9.90046 4.47974 9.82415 4.58515 9.7236C4.70433 9.60992 4.78596 9.45408 4.94921 9.14242L6.05079 7.03941C6.21404 6.72775 6.29567 6.57191 6.41485 6.45823C6.52026 6.35768 6.64637 6.28137 6.78436 6.23465C6.94037 6.18182 7.11628 6.18182 7.46812 6.18182H9" stroke="#BF36BF" stroke-width="1.5" stroke-linecap="square" stroke-linejoin="round"/>
</svg>
