<svg width="20" height="20" viewBox="0 0 20 20" fill="none" xmlns="http://www.w3.org/2000/svg">
  <path d="M8 3L6 4.5H4.5L3 6.5L4 9L3 11L3.5 13.5L4.5 16.5L7 17L10 15.5L13.5 17L16 16V13.5L17 12.5L16.5 9.5L17 6.5L16 5L13.5 4.5L13 3.5L11.5 3L10 4L8 3Z" fill="#7A18DC" fill-opacity="0.24"/>
  <path d="M6.18212 10.6357C5.33817 10.6357 4.52878 10.3005 3.93202 9.70371C3.33526 9.10695 3 8.29757 3 7.45362C3 6.60966 3.33526 5.80028 3.93202 5.20352C4.52878 4.60675 5.33817 4.2715 6.18212 4.2715C6.22094 4.2715 6.25722 4.28168 6.2954 4.28295C6.44258 3.85686 6.7361 3.49677 7.12377 3.26672C7.51144 3.03666 7.96815 2.95156 8.41266 3.02654C8.85718 3.10151 9.26069 3.33171 9.55146 3.6762C9.84223 4.02068 10.0014 4.45713 10.0007 4.90792V5.54434C10.0007 6.05071 9.79951 6.53634 9.44145 6.8944C9.08339 7.25246 8.59776 7.45362 8.09139 7.45362H7.45497" stroke="#7A18DC" stroke-width="1.5" stroke-linecap="round" stroke-linejoin="round"/>
  <path d="M16.2644 13.0619C16.3284 13.3089 16.3622 13.5628 16.365 13.818C16.365 14.6619 16.0297 15.4713 15.4329 16.0681C14.8362 16.6648 14.0268 17.0001 13.1828 17.0001C12.3389 17.0001 11.5295 16.6648 10.9327 16.0681C10.336 15.4713 10.0007 14.6619 10.0007 13.818C10.0007 14.6619 9.66546 15.4713 9.06869 16.0681C8.47193 16.6648 7.66254 17.0001 6.81859 17.0001C5.97464 17.0001 5.16526 16.6648 4.5685 16.0681C3.97173 15.4713 3.63647 14.6619 3.63647 13.818C3.63923 13.5628 3.67299 13.3089 3.73703 13.0619" stroke="#7A18DC" stroke-width="1.5" stroke-linecap="round" stroke-linejoin="round"/>
  <path d="M3.74856 9.48132C3.51142 9.7154 3.32315 9.99425 3.19467 10.3017C3.06619 10.6091 3.00006 10.939 3.00012 11.2722C3.00012 11.9474 3.26833 12.5949 3.74574 13.0723C4.22315 13.5497 4.87066 13.8179 5.54582 13.8179H6.18224" stroke="#7A18DC" stroke-width="1.5" stroke-linecap="round" stroke-linejoin="round"/>
  <path d="M6.81867 8.09011C7.17016 8.09011 7.4551 7.80517 7.4551 7.45368C7.4551 7.1022 7.17016 6.81726 6.81867 6.81726C6.46719 6.81726 6.18225 7.1022 6.18225 7.45368C6.18225 7.80517 6.46719 8.09011 6.81867 8.09011Z" fill="#7A18DC" stroke="#7A18DC" stroke-width="1.5" stroke-linecap="round" stroke-linejoin="round"/>
  <path d="M6.81867 14.4544C7.17016 14.4544 7.4551 14.1694 7.4551 13.8179C7.4551 13.4665 7.17016 13.1815 6.81867 13.1815C6.46719 13.1815 6.18225 13.4665 6.18225 13.8179C6.18225 14.1694 6.46719 14.4544 6.81867 14.4544Z" fill="#7A18DC" stroke="#7A18DC" stroke-width="1.5" stroke-linecap="round" stroke-linejoin="round"/>
  <path d="M16.253 9.48132C16.4902 9.7154 16.6784 9.99425 16.8069 10.3017C16.9354 10.6091 17.0015 10.939 17.0015 11.2722C17.0015 11.9474 16.7332 12.5949 16.2558 13.0723C15.7784 13.5497 15.1309 13.8179 14.4558 13.8179H13.8193" stroke="#7A18DC" stroke-width="1.5" stroke-linecap="round" stroke-linejoin="round"/>
  <path d="M10.0007 13.8179V11.2722" stroke="#7A18DC" stroke-width="1.5" stroke-linecap="round" stroke-linejoin="round"/>
  <path d="M13.1829 14.4544C13.5344 14.4544 13.8194 14.1694 13.8194 13.8179C13.8194 13.4665 13.5344 13.1815 13.1829 13.1815C12.8314 13.1815 12.5465 13.4665 12.5465 13.8179C12.5465 14.1694 12.8314 14.4544 13.1829 14.4544Z" fill="#7A18DC" stroke="#7A18DC" stroke-width="1.5" stroke-linecap="round" stroke-linejoin="round"/>
  <path d="M13.8193 10.6357C14.6632 10.6357 15.4726 10.3005 16.0694 9.70371C16.6661 9.10695 17.0014 8.29757 17.0014 7.45362C17.0014 6.60966 16.6661 5.80028 16.0694 5.20352C15.4726 4.60675 14.6632 4.2715 13.8193 4.2715C13.7805 4.2715 13.7442 4.28168 13.706 4.28295C13.5588 3.85686 13.2653 3.49677 12.8776 3.26672C12.49 3.03666 12.0333 2.95156 11.5887 3.02654C11.1442 3.10151 10.7407 3.33171 10.4499 3.6762C10.1592 4.02068 10 4.45713 10.0007 4.90792V5.54434C10.0007 6.05071 10.2019 6.53634 10.5599 6.8944C10.918 7.25246 11.4036 7.45362 11.91 7.45362H12.5464" stroke="#7A18DC" stroke-width="1.5" stroke-linecap="round" stroke-linejoin="round"/>
  <path d="M13.1829 8.09011C13.5344 8.09011 13.8194 7.80517 13.8194 7.45368C13.8194 7.1022 13.5344 6.81726 13.1829 6.81726C12.8314 6.81726 12.5465 7.1022 12.5465 7.45368C12.5465 7.80517 12.8314 8.09011 13.1829 8.09011Z" fill="#7A18DC" stroke="#7A18DC" stroke-width="1.5" stroke-linecap="round" stroke-linejoin="round"/>
  <path d="M10.0008 11.2722C10.3523 11.2722 10.6372 10.9873 10.6372 10.6358C10.6372 10.2843 10.3523 9.99939 10.0008 9.99939C9.64932 9.99939 9.36438 10.2843 9.36438 10.6358C9.36438 10.9873 9.64932 11.2722 10.0008 11.2722Z" fill="#7A18DC" stroke="#7A18DC" stroke-width="1.5" stroke-linecap="round" stroke-linejoin="round"/>
</svg>
