<svg xmlns="http://www.w3.org/2000/svg" width="20" height="20" fill="none" viewBox="0 0 20 20">
  <path fill="white" d="M9.99901 3C8.07157 3 6.49852 4.57305 6.49852 6.50049C6.49852 7.54779 7.01587 8.43694 7.7487 9.07898L6.70167 11.0168C6.63396 11.0072 6.56867 11.0011 6.49852 11.0011C5.6759 11.0011 4.99831 11.6787 4.99831 12.5013C4.99831 13.324 5.6759 14.0015 6.49852 14.0015C7.32114 14.0015 7.99873 13.324 7.99873 12.5013C7.99873 12.1021 7.83509 11.74 7.5768 11.4699L8.78009 9.23525L8.99887 8.82895L8.62382 8.57891C7.94998 8.13135 7.49866 7.37386 7.49866 6.50049C7.49866 5.11346 8.61198 4.00014 9.99901 4.00014C11.386 4.00014 12.4994 5.11346 12.4994 6.50049C12.4994 6.79397 12.4508 7.06948 12.3587 7.32873L13.2964 7.67253C13.4263 7.3067 13.4995 6.90811 13.4995 6.50049C13.4995 4.57305 11.9265 3 9.99901 3ZM9.99901 5.00028C9.17639 5.00028 8.4988 5.67787 8.4988 6.50049C8.4988 7.32311 9.17639 8.0007 9.99901 8.0007C10.0692 8.0007 10.1345 7.9946 10.2022 7.98508L11.5774 10.1729L11.8274 10.5792L12.2493 10.3292C12.6173 10.1162 13.042 10.001 13.4995 10.001C14.8865 10.001 15.9999 11.1143 15.9999 12.5013C15.9999 13.8884 14.8865 15.0017 13.4995 15.0017C12.7557 15.0017 12.0979 14.6853 11.6399 14.1734L10.8898 14.8298C11.5299 15.5452 12.466 16.0018 13.4995 16.0018C15.4269 16.0018 17 14.4288 17 12.5013C17 10.5739 15.4269 9.00085 13.4995 9.00085C13.0394 9.00085 12.6378 9.18216 12.2337 9.34464L11.0929 7.51626C11.3423 7.2479 11.4992 6.89184 11.4992 6.50049C11.4992 5.67787 10.8216 5.00028 9.99901 5.00028ZM9.99901 6.00042C10.2811 6.00042 10.4991 6.21839 10.4991 6.50049C10.4991 6.7826 10.2811 7.00056 9.99901 7.00056C9.71691 7.00056 9.49894 6.7826 9.49894 6.50049C9.49894 6.21839 9.71691 6.00042 9.99901 6.00042ZM5.92031 9.04773C5.51972 9.11547 5.11884 9.25558 4.74827 9.46966C3.07931 10.433 2.50364 12.5828 3.46684 14.2516C4.4301 15.9204 6.57958 16.4967 8.24877 15.533C9.20469 14.9809 9.71942 14.0178 9.874 13.0014H12.0931C12.3022 13.5794 12.8534 14.0015 13.4995 14.0015C14.3221 14.0015 14.9997 13.324 14.9997 12.5013C14.9997 11.6787 14.3221 11.0011 13.4995 11.0011C12.8534 11.0011 12.3022 11.4233 12.0931 12.0013H9.49894H8.99887V12.5013C8.99802 13.3641 8.55297 14.209 7.7487 14.6735C6.54748 15.367 5.01931 14.9521 4.32634 13.7515C3.63331 12.5509 4.0479 11.0221 5.24834 10.3292C5.51487 10.1752 5.79108 10.0805 6.07659 10.0322L5.92031 9.04773ZM6.49852 12.0013C6.78062 12.0013 6.99859 12.2192 6.99859 12.5013C6.99859 12.7834 6.78062 13.0014 6.49852 13.0014C6.21642 13.0014 5.99845 12.7834 5.99845 12.5013C5.99845 12.2192 6.21642 12.0013 6.49852 12.0013ZM13.4995 12.0013C13.7816 12.0013 13.9996 12.2192 13.9996 12.5013C13.9996 12.7834 13.7816 13.0014 13.4995 13.0014C13.2174 13.0014 12.9994 12.7834 12.9994 12.5013C12.9994 12.2192 13.2174 12.0013 13.4995 12.0013Z"/>
</svg>
