<svg width="20" height="20" viewBox="0 0 20 20" fill="none" xmlns="http://www.w3.org/2000/svg">
<circle cx="10" cy="10" r="10" fill="#EB5353"/>
<path d="M6.53033 5.46967C6.23744 5.17678 5.76256 5.17678 5.46967 5.46967C5.17678 5.76256 5.17678 6.23744 5.46967 6.53033L6.53033 5.46967ZM13.9697 15.0303C14.2626 15.3232 14.7374 15.3232 15.0303 15.0303C15.3232 14.7374 15.3232 14.2626 15.0303 13.9697L13.9697 15.0303ZM6.53033 5.46967C6.23744 5.17678 5.76256 5.17678 5.46967 5.46967C5.17678 5.76256 5.17678 6.23744 5.46967 6.53033L6.53033 5.46967ZM13.9697 15.0303C14.2626 15.3232 14.7374 15.3232 15.0303 15.0303C15.3232 14.7374 15.3232 14.2626 15.0303 13.9697L13.9697 15.0303ZM5.46967 6.53033L13.9697 15.0303L15.0303 13.9697L6.53033 5.46967L5.46967 6.53033ZM5.46967 6.53033L13.9697 15.0303L15.0303 13.9697L6.53033 5.46967L5.46967 6.53033Z" fill="#F1F5F9"/>
<path d="M15.0303 6.53033C15.3232 6.23744 15.3232 5.76256 15.0303 5.46967C14.7374 5.17678 14.2626 5.17678 13.9697 5.46967L15.0303 6.53033ZM5.46967 13.9697C5.17678 14.2626 5.17678 14.7374 5.46967 15.0303C5.76256 15.3232 6.23744 15.3232 6.53033 15.0303L5.46967 13.9697ZM15.0303 6.53033C15.3232 6.23744 15.3232 5.76256 15.0303 5.46967C14.7374 5.17678 14.2626 5.17678 13.9697 5.46967L15.0303 6.53033ZM5.46967 13.9697C5.17678 14.2626 5.17678 14.7374 5.46967 15.0303C5.76256 15.3232 6.23744 15.3232 6.53033 15.0303L5.46967 13.9697ZM13.9697 5.46967L5.46967 13.9697L6.53033 15.0303L15.0303 6.53033L13.9697 5.46967ZM13.9697 5.46967L5.46967 13.9697L6.53033 15.0303L15.0303 6.53033L13.9697 5.46967Z" fill="#F1F5F9"/>
</svg>
