<svg width="24" height="24" viewBox="0 0 24 24" fill="none" xmlns="http://www.w3.org/2000/svg">
<rect x="4" y="3" width="16" height="18" rx="1" stroke="#91A9C0"/>
<path d="M13 5.5C12.7239 5.5 12.5 5.72386 12.5 6C12.5 6.27614 12.7239 6.5 13 6.5V5.5ZM17 6.5C17.2761 6.5 17.5 6.27614 17.5 6C17.5 5.72386 17.2761 5.5 17 5.5V6.5ZM13 6.5H15V5.5H13V6.5ZM15 6.5H17V5.5H15V6.5Z" fill="#91A9C0"/>
<path d="M13 9.5C12.7239 9.5 12.5 9.72386 12.5 10C12.5 10.2761 12.7239 10.5 13 10.5V9.5ZM15 10.5C15.2761 10.5 15.5 10.2761 15.5 10C15.5 9.72386 15.2761 9.5 15 9.5V10.5ZM13 10.5H14.6667V9.5H13V10.5ZM14.6667 10.5H15V9.5H14.6667V10.5Z" fill="#91A9C0"/>
<path d="M13 13.5C12.7239 13.5 12.5 13.7239 12.5 14C12.5 14.2761 12.7239 14.5 13 14.5V13.5ZM17 14.5C17.2761 14.5 17.5 14.2761 17.5 14C17.5 13.7239 17.2761 13.5 17 13.5V14.5ZM13 14.5H15V13.5H13V14.5ZM15 14.5H17V13.5H15V14.5Z" fill="#91A9C0"/>
<path d="M10 3V21" stroke="#91A9C0"/>
<path d="M6 5.5C5.72386 5.5 5.5 5.72386 5.5 6C5.5 6.27614 5.72386 6.5 6 6.5V5.5ZM8 6.5C8.27614 6.5 8.5 6.27614 8.5 6C8.5 5.72386 8.27614 5.5 8 5.5V6.5ZM6 9.5C5.72386 9.5 5.5 9.72386 5.5 10C5.5 10.2761 5.72386 10.5 6 10.5V9.5ZM8 10.5C8.27614 10.5 8.5 10.2761 8.5 10C8.5 9.72386 8.27614 9.5 8 9.5V10.5ZM6 6.5H8V5.5H6V6.5ZM6 10.5H8V9.5H6V10.5Z" fill="#91A9C0"/>
</svg>
