<svg width="24" height="24" viewBox="0 0 24 24" fill="none" xmlns="http://www.w3.org/2000/svg">
<path d="M18.878 10.5005L18.6316 10.0654C18.4399 10.174 18.3419 10.3953 18.3902 10.6103L18.878 10.5005ZM21 9.29862L21.2464 9.73368C21.363 9.66763 21.4482 9.55753 21.4829 9.42808C21.5176 9.29864 21.4989 9.16067 21.431 9.04515L21 9.29862ZM18.878 13.4982L18.3905 13.3873C18.3415 13.6026 18.4396 13.8244 18.6316 13.9332L18.878 13.4982ZM21 14.7L21.431 14.9535C21.4989 14.8379 21.5176 14.7 21.4829 14.5705C21.4482 14.4411 21.363 14.331 21.2464 14.2649L21 14.7ZM18.8837 18.2986L18.6373 18.7337C18.8748 18.8682 19.1763 18.7874 19.3147 18.5521L18.8837 18.2986ZM16.749 17.0898L16.9954 16.6548C16.8084 16.5489 16.5748 16.5743 16.4149 16.7178L16.749 17.0898ZM14.1163 18.5714L13.9675 18.094C13.7586 18.1592 13.6163 18.3526 13.6163 18.5714H14.1163ZM14.1163 21V21.5C14.3925 21.5 14.6163 21.2761 14.6163 21H14.1163ZM9.88368 21H9.38368C9.38368 21.2761 9.60754 21.5 9.88368 21.5V21ZM9.88368 18.5714H10.3837C10.3837 18.3523 10.2411 18.1588 10.0319 18.0939L9.88368 18.5714ZM7.25098 17.0898L7.58506 16.7178C7.42522 16.5743 7.19155 16.5489 7.00461 16.6548L7.25098 17.0898ZM5.11632 18.2986L4.68533 18.5521C4.82369 18.7874 5.12518 18.8682 5.36269 18.7337L5.11632 18.2986ZM3 14.7L2.75359 14.2649C2.63697 14.331 2.55176 14.4411 2.51705 14.5705C2.48235 14.7 2.50107 14.8379 2.56901 14.9535L3 14.7ZM5.12196 13.4982L5.36838 13.9332C5.56045 13.8244 5.65846 13.6026 5.60952 13.3873L5.12196 13.4982ZM5.12196 10.5005L5.60976 10.6103C5.65814 10.3953 5.5601 10.174 5.36838 10.0654L5.12196 10.5005ZM3 9.29862L2.56901 9.04515C2.50107 9.16067 2.48235 9.29864 2.51705 9.42808C2.55176 9.55753 2.63697 9.66763 2.75359 9.73368L3 9.29862ZM5.11632 5.7L5.36278 5.26496C5.12526 5.1304 4.82371 5.21122 4.68533 5.44654L5.11632 5.7ZM7.25239 6.91015L7.00593 7.34519C7.19304 7.45119 7.42696 7.42568 7.58682 7.28185L7.25239 6.91015ZM9.88368 5.42862L10.0325 5.90596C10.2414 5.84083 10.3837 5.64743 10.3837 5.42862H9.88368ZM9.88368 3V2.5C9.60754 2.5 9.38368 2.72386 9.38368 3H9.88368ZM14.1163 3H14.6163C14.6163 2.72386 14.3925 2.5 14.1163 2.5V3ZM14.1163 5.42862H13.6163C13.6163 5.64743 13.7586 5.84083 13.9675 5.90596L14.1163 5.42862ZM16.7476 6.91015L16.4132 7.28185C16.573 7.42568 16.807 7.45119 16.9941 7.34519L16.7476 6.91015ZM18.8837 5.7L19.3147 5.44654C19.1763 5.21122 18.8747 5.1304 18.6372 5.26496L18.8837 5.7ZM19.1245 10.9355L21.2464 9.73368L20.7536 8.86355L18.6316 10.0654L19.1245 10.9355ZM19.3656 13.609C19.6195 12.4923 19.6147 11.4962 19.3658 10.3907L18.3902 10.6103C18.607 11.5734 18.6107 12.4187 18.3905 13.3873L19.3656 13.609ZM21.2464 14.2649L19.1245 13.0631L18.6316 13.9332L20.7536 15.1351L21.2464 14.2649ZM19.3147 18.5521L21.431 14.9535L20.569 14.4465L18.4527 18.0452L19.3147 18.5521ZM16.5026 17.5249L18.6373 18.7337L19.1301 17.8635L16.9954 16.6548L16.5026 17.5249ZM14.2651 19.0487C15.321 18.7196 16.2794 18.1836 17.0831 17.4619L16.4149 16.7178C15.7231 17.3392 14.8925 17.8057 13.9675 18.094L14.2651 19.0487ZM14.6163 21V18.5714H13.6163V21H14.6163ZM9.88368 21.5H14.1163V20.5H9.88368V21.5ZM9.38368 18.5714V21H10.3837V18.5714H9.38368ZM6.9169 17.4619C7.72027 18.1833 8.67878 18.721 9.73548 19.0489L10.0319 18.0939C9.10771 17.807 8.27723 17.3394 7.58506 16.7178L6.9169 17.4619ZM5.36269 18.7337L7.49735 17.5249L7.00461 16.6548L4.86995 17.8635L5.36269 18.7337ZM2.56901 14.9535L4.68533 18.5521L5.54731 18.0452L3.43099 14.4465L2.56901 14.9535ZM4.87555 13.0631L2.75359 14.2649L3.24641 15.1351L5.36838 13.9332L4.87555 13.0631ZM4.63417 10.3907C4.38535 11.4962 4.38054 12.4923 4.6344 13.609L5.60952 13.3873C5.38933 12.4187 5.39299 11.5734 5.60976 10.6103L4.63417 10.3907ZM2.75359 9.73368L4.87555 10.9355L5.36838 10.0654L3.24641 8.86355L2.75359 9.73368ZM4.68533 5.44654L2.56901 9.04515L3.43099 9.55208L5.54731 5.95346L4.68533 5.44654ZM7.49885 6.47512L5.36278 5.26496L4.86986 6.13504L7.00593 7.34519L7.49885 6.47512ZM9.73487 4.95127C8.67907 5.28042 7.72044 5.81642 6.91796 6.53846L7.58682 7.28185C8.27705 6.66081 9.10742 6.19435 10.0325 5.90596L9.73487 4.95127ZM9.38368 3V5.42862H10.3837V3H9.38368ZM14.1163 2.5H9.88368V3.5H14.1163V2.5ZM14.6163 5.42862V3H13.6163V5.42862H14.6163ZM17.082 6.53846C16.2796 5.81642 15.3209 5.28042 14.2651 4.95127L13.9675 5.90596C14.8926 6.19435 15.7229 6.66081 16.4132 7.28185L17.082 6.53846ZM18.6372 5.26496L16.5011 6.47512L16.9941 7.34519L19.1301 6.13504L18.6372 5.26496ZM21.431 9.04515L19.3147 5.44654L18.4527 5.95346L20.569 9.55208L21.431 9.04515ZM12 15.2695C13.8257 15.2695 15.3218 13.8146 15.3218 12.0002H14.3218C14.3218 13.2447 13.2912 14.2695 12 14.2695V15.2695ZM8.67827 12.0002C8.67827 13.8146 10.1744 15.2695 12 15.2695V14.2695C10.7089 14.2695 9.67827 13.2447 9.67827 12.0002H8.67827ZM12 8.73101C10.1744 8.73101 8.67827 10.1859 8.67827 12.0002H9.67827C9.67827 10.7558 10.7089 9.73101 12 9.73101V8.73101ZM15.3218 12.0002C15.3218 10.1859 13.8257 8.73101 12 8.73101V9.73101C13.2912 9.73101 14.3218 10.7558 14.3218 12.0002H15.3218Z" fill="#91A9C0"/>
</svg>
