<svg viewBox="0 0 6 5" fill="none" xmlns="http://www.w3.org/2000/svg">
<path d="M2.36608 0.823492C2.5818 0.543258 2.68966 0.403141 2.82111 0.352778C2.93629 0.308647 3.06371 0.308647 3.17889 0.352778C3.31034 0.403141 3.4182 0.543258 3.63392 0.823492L5.4726 3.212C5.79104 3.62567 5.95026 3.8325 5.94818 4.006C5.94636 4.15695 5.87645 4.299 5.75794 4.39251C5.62173 4.5 5.36071 4.5 4.83868 4.5L1.16132 4.5C0.639289 4.5 0.378273 4.5 0.242058 4.39251C0.12355 4.299 0.0536363 4.15695 0.0518246 4.006C0.0497422 3.8325 0.208961 3.62567 0.527398 3.212L2.36608 0.823492Z" fill="#CACCCE"/>
</svg>
