<svg viewBox="0 0 6 5" fill="none" xmlns="http://www.w3.org/2000/svg">
<path d="M3.63392 4.17651C3.4182 4.45674 3.31034 4.59686 3.17889 4.64722C3.06371 4.69135 2.93629 4.69135 2.82111 4.64722C2.68966 4.59686 2.5818 4.45674 2.36608 4.17651L0.527397 1.788C0.20896 1.37433 0.0497416 1.1675 0.051824 0.993999C0.0536355 0.84305 0.12355 0.701 0.242058 0.607486C0.378272 0.5 0.639289 0.5 1.16132 0.5L4.83868 0.5C5.36071 0.5 5.62173 0.5 5.75794 0.607486C5.87645 0.701 5.94636 0.84305 5.94818 0.994C5.95026 1.1675 5.79104 1.37433 5.4726 1.788L3.63392 4.17651Z" fill="#CACCCE"/>
</svg>
