<svg viewBox="0 0 21 18" fill="none" xmlns="http://www.w3.org/2000/svg">
  <path d="M5.00026 2.50011C3.39503 3.70464 2.27447 5.54645 2.0433 7.6993C1.60109 11.8178 4.58127 15.5149 8.69973 15.9571C11.4244 16.2497 13.9646 15.0444 15.5 13.0025" stroke="#91A9C0" stroke-width="1.5" stroke-linecap="round" stroke-linejoin="round" stroke-dasharray="2.6 2.6"/>
  <path d="M16.2537 9.42537C16.2125 9.83753 16.5132 10.2051 16.9254 10.2463C17.3375 10.2875 17.7051 9.98679 17.7463 9.57463L16.2537 9.42537ZM9.49975 1.75C13.2318 1.75 16.7063 4.89972 16.2537 9.42537L17.7463 9.57463C18.2937 4.10028 14.0519 0.25 9.49975 0.25V1.75ZM5.44953 3.09962C6.57771 2.25199 7.97903 1.75 9.49975 1.75V0.25C7.64301 0.25 5.92756 0.864275 4.54852 1.90038L5.44953 3.09962Z" fill="currentColor"/>
  <path d="M10.25 5C10.25 4.58579 9.91421 4.25 9.5 4.25C9.08579 4.25 8.75 4.58579 8.75 5H10.25ZM9.5 9L10.0303 9.53033C10.171 9.38968 10.25 9.19891 10.25 9H9.5ZM6.96967 10.4697C6.67678 10.7626 6.67678 11.2374 6.96967 11.5303C7.26256 11.8232 7.73744 11.8232 8.03033 11.5303L6.96967 10.4697ZM8.75 5V9H10.25V5H8.75ZM8.96967 8.46967L6.96967 10.4697L8.03033 11.5303L10.0303 9.53033L8.96967 8.46967Z" fill="currentColor"/>
  <path d="M14.5996 7.88196L16.4815 10.8329L19.4325 8.95101" stroke="currentColor" stroke-width="1.5" stroke-linecap="round" stroke-linejoin="round"/>
</svg>
