<svg width="26" height="25" viewBox="0 0 26 25" fill="none" xmlns="http://www.w3.org/2000/svg">
  <g mask="url(#mask)">
    <path
      d="M4.70315 3.90841L4.96815 4.33241L4.70315 3.90841C5.02449 3.70757 5.32198 3.47091 5.58993 3.20296L7.45597 1.33693C8.31775 0.475148 9.65682 0.313792 10.6986 0.946187C11.4885 1.42564 11.9711 2.28185 11.9711 3.2063L11.9711 16C11.9711 16.736 11.9796 17.4336 11.9873 18.0741C11.995 18.7054 12.0019 19.2812 11.9995 19.7837C11.9945 20.8154 11.9522 21.681 11.783 22.3693C11.6097 23.0747 11.2903 23.6449 10.7013 24.0166C10.1359 24.3734 9.39371 24.5 8.4798 24.5C5.69842 24.5 3.82393 22.4054 2.6754 20.1657C1.52035 17.9132 1 15.3355 1 14L1 12L1 10.4129C1 7.80636 2.34279 5.38363 4.55318 4.00214L4.70315 3.90841Z"
      fill="currentColor" stroke="transparent" />
    <path
      d="M17.5202 24.5C20.3016 24.5 22.1761 22.4054 23.3246 20.1657C24.4797 17.9132 25 15.3355 25 14L25 12L25 10.4129C25 7.80636 23.6572 5.38363 21.4468 4.00214L21.2969 3.90841C20.9755 3.70757 20.678 3.47091 20.4101 3.20296L18.544 1.33692C17.6823 0.475147 16.3432 0.313791 15.3014 0.946185C14.5115 1.42564 14.0289 2.28185 14.0289 3.20629L14.0289 16C14.0289 16.736 14.0204 17.4336 14.0127 18.0741C14.005 18.7054 13.9981 19.2812 14.0005 19.7837C14.0055 20.8154 14.0478 21.681 14.217 22.3693C14.3903 23.0747 14.7097 23.6449 15.2987 24.0166C15.8641 24.3734 16.6063 24.5 17.5202 24.5Z"
      fill="currentColor" stroke="transparent" />

  </g>
  <defs>
    <mask id="mask">
      <rect width="100%" height="100%" fill="white" />
      <path
        d="M11.1194 6.5C11.3955 6.5 11.6194 6.27614 11.6194 6C11.6194 5.72386 11.3955 5.5 11.1194 5.5V6.5ZM7.5 5.5C7.22386 5.5 7 5.72386 7 6C7 6.27614 7.22386 6.5 7.5 6.5V5.5ZM5.61936 9L5.97291 8.64645C5.87914 8.55268 5.75197 8.5 5.61936 8.5V9ZM2 8.5C1.72386 8.5 1.5 8.72386 1.5 9C1.5 9.27614 1.72386 9.5 2 9.5V8.5ZM4.61936 16.3806V16.8806C4.75197 16.8806 4.87914 16.828 4.97291 16.7342L4.61936 16.3806ZM2 15.8806C1.72386 15.8806 1.5 16.1045 1.5 16.3806C1.5 16.6568 1.72386 16.8806 2 16.8806V15.8806ZM7.5 21.5C7.77615 21.5 8 21.2761 8 21C8 20.7239 7.77615 20.5 7.5 20.5V21.5ZM3.88064 20.5C3.6045 20.5 3.38064 20.7239 3.38064 21C3.38064 21.2761 3.6045 21.5 3.88064 21.5V20.5ZM6.5 14.5V14C6.36739 14 6.24021 14.0527 6.14645 14.1464L6.5 14.5ZM8.5 15C8.77614 15 9 14.7761 9 14.5C9 14.2239 8.77614 14 8.5 14V15ZM6.76581 10.8536C6.96107 11.0488 7.27765 11.0488 7.47291 10.8536C7.66818 10.6583 7.66818 10.3417 7.47291 10.1464L6.76581 10.8536ZM18.1194 19.5C18.3955 19.5 18.6194 19.2761 18.6194 19C18.6194 18.7239 18.3955 18.5 18.1194 18.5V19.5ZM15 18.5C14.7239 18.5 14.5 18.7239 14.5 19C14.5 19.2761 14.7239 19.5 15 19.5V18.5ZM24 16.5C24.2761 16.5 24.5 16.2761 24.5 16C24.5 15.7239 24.2761 15.5 24 15.5V16.5ZM21 16L20.6464 16.3536C20.7402 16.4473 20.8674 16.5 21 16.5V16ZM19.5 14.5L19.8536 14.1464C19.7598 14.0527 19.6326 14 19.5 14V14.5ZM17.5 14C17.2239 14 17 14.2239 17 14.5C17 14.7761 17.2239 15 17.5 15V14ZM15 11C14.7239 11 14.5 11.2239 14.5 11.5C14.5 11.7761 14.7239 12 15 12V11ZM17.5 11.5V12C17.6326 12 17.7598 11.9473 17.8536 11.8536L17.5 11.5ZM19.5 9.5V9C19.3674 9 19.2402 9.05268 19.1464 9.14645L19.5 9.5ZM21.5 10C21.7761 10 22 9.77614 22 9.5C22 9.22386 21.7761 9 21.5 9V10ZM20.8536 4.35355C21.0488 4.15829 21.0488 3.84171 20.8536 3.64645C20.6583 3.45118 20.3417 3.45118 20.1464 3.64645L20.8536 4.35355ZM18.5 6V6.5C18.6326 6.5 18.7598 6.44732 18.8536 6.35355L18.5 6ZM16.5 5.5C16.2239 5.5 16 5.72386 16 6C16 6.27614 16.2239 6.5 16.5 6.5V5.5ZM11.1194 5.5H7.5V6.5H11.1194V5.5ZM5.61936 8.5H2V9.5H5.61936V8.5ZM4.61936 15.8806H2V16.8806H4.61936V15.8806ZM7.5 20.5H3.88064V21.5H7.5V20.5ZM4.97291 16.7342L6.85355 14.8536L6.14645 14.1464L4.26581 16.0271L4.97291 16.7342ZM6.5 15H8.5V14H6.5V15ZM5.26581 9.35355L6.76581 10.8536L7.47291 10.1464L5.97291 8.64645L5.26581 9.35355ZM18.1194 18.5H15V19.5H18.1194V18.5ZM24 15.5H21V16.5H24V15.5ZM21.3536 15.6464L19.8536 14.1464L19.1464 14.8536L20.6464 16.3536L21.3536 15.6464ZM19.5 14H17.5V15H19.5V14ZM15 12H17.5V11H15V12ZM17.8536 11.8536L19.8536 9.85355L19.1464 9.14645L17.1464 11.1464L17.8536 11.8536ZM19.5 10H21.5V9H19.5V10ZM20.1464 3.64645L18.1464 5.64645L18.8536 6.35355L20.8536 4.35355L20.1464 3.64645ZM18.5 5.5H16.5V6.5H18.5V5.5Z"
        fill="black" />
    </mask>
  </defs>
</svg>
