<svg width="22" height="25" viewBox="0 0 22 25" fill="none" xmlns="http://www.w3.org/2000/svg">
<path d="M21.5 3.4C21.5 2.73563 21.4995 2.27247 21.4654 1.91417C21.432 1.5633 21.3701 1.36496 21.279 1.21625C21.1553 1.01442 20.9856 0.844723 20.7837 0.72104C20.635 0.629914 20.4367 0.567955 20.0858 0.534595C19.7275 0.500528 19.2644 0.5 18.6 0.5H3.4C2.73563 0.5 2.27247 0.500528 1.91417 0.534595C1.5633 0.567955 1.36496 0.629914 1.21625 0.72104C1.01442 0.844724 0.844723 1.01442 0.721041 1.21625L0.29472 0.955003L0.721039 1.21625C0.629913 1.36496 0.567955 1.5633 0.534595 1.91417C0.500528 2.27247 0.5 2.73563 0.5 3.4V18.6C0.5 19.2644 0.500528 19.7275 0.534595 20.0858C0.567955 20.4367 0.629913 20.635 0.721039 20.7837C0.844723 20.9856 1.01442 21.1553 1.21625 21.279C1.36496 21.3701 1.5633 21.432 1.91417 21.4654C2.27247 21.4995 2.73563 21.5 3.4 21.5H18.6C19.2644 21.5 19.7275 21.4995 20.0858 21.4654C20.4367 21.432 20.635 21.3701 20.7837 21.279L21.045 21.7053L20.7837 21.279C20.9856 21.1553 21.1553 20.9856 21.279 20.7837C21.3701 20.635 21.432 20.4367 21.4654 20.0858C21.4995 19.7275 21.5 19.2644 21.5 18.6V3.4Z" fill="#DEFFFC" stroke="#24C7BB"/>
<g filter="url(#filter0_d)">
<mask id="path-2-inside-1" fill="white">
<path fill-rule="evenodd" clip-rule="evenodd" d="M11.4384 3.5H16.5484C17.653 3.5 18.5484 4.39543 18.5484 5.5V10.61C18.5484 11.1404 18.3377 11.6491 17.9626 12.0242L12.0242 17.9626C11.2432 18.7437 9.97683 18.7437 9.19579 17.9626L4.08579 12.8526C3.30474 12.0716 3.30474 10.8053 4.08579 10.0242L10.0242 4.08579C10.3993 3.71071 10.908 3.5 11.4384 3.5ZM13.9213 7.2046C13.3367 7.2046 12.8628 7.67849 12.8628 8.26306C12.8628 8.84763 13.3367 9.32151 13.9213 9.32151C14.5059 9.32151 14.9798 8.84763 14.9798 8.26306C14.9798 7.67849 14.5059 7.2046 13.9213 7.2046Z"/>
</mask>
<path fill-rule="evenodd" clip-rule="evenodd" d="M11.4384 3.5H16.5484C17.653 3.5 18.5484 4.39543 18.5484 5.5V10.61C18.5484 11.1404 18.3377 11.6491 17.9626 12.0242L12.0242 17.9626C11.2432 18.7437 9.97683 18.7437 9.19579 17.9626L4.08579 12.8526C3.30474 12.0716 3.30474 10.8053 4.08579 10.0242L10.0242 4.08579C10.3993 3.71071 10.908 3.5 11.4384 3.5ZM13.9213 7.2046C13.3367 7.2046 12.8628 7.67849 12.8628 8.26306C12.8628 8.84763 13.3367 9.32151 13.9213 9.32151C14.5059 9.32151 14.9798 8.84763 14.9798 8.26306C14.9798 7.67849 14.5059 7.2046 13.9213 7.2046Z" fill="#DEFFFC"/>
<path d="M12.0242 17.9626L12.8727 18.8112L12.8727 18.8112L12.0242 17.9626ZM9.19579 17.9626L10.0443 17.1141L10.0443 17.1141L9.19579 17.9626ZM4.08579 12.8526L4.93432 12.0041L4.93431 12.0041L4.08579 12.8526ZM4.08579 10.0242L4.93431 10.8727L4.93431 10.8727L4.08579 10.0242ZM10.0242 4.08579L10.8727 4.93432L10.8727 4.93431L10.0242 4.08579ZM16.5484 2.3H11.4384V4.7H16.5484V2.3ZM19.7484 5.5C19.7484 3.73269 18.3157 2.3 16.5484 2.3V4.7C16.9903 4.7 17.3484 5.05817 17.3484 5.5H19.7484ZM19.7484 10.61V5.5H17.3484V10.61H19.7484ZM18.8112 12.8727C19.4113 12.2726 19.7484 11.4587 19.7484 10.61H17.3484C17.3484 10.8222 17.2641 11.0257 17.1141 11.1757L18.8112 12.8727ZM12.8727 18.8112L18.8112 12.8727L17.1141 11.1757L11.1757 17.1141L12.8727 18.8112ZM8.34726 18.8112C9.59694 20.0608 11.6231 20.0608 12.8727 18.8112L11.1757 17.1141C10.8633 17.4265 10.3567 17.4265 10.0443 17.1141L8.34726 18.8112ZM3.23726 13.7012L8.34726 18.8112L10.0443 17.1141L4.93432 12.0041L3.23726 13.7012ZM3.23726 9.17569C1.98758 10.4254 1.98758 12.4515 3.23726 13.7012L4.93431 12.0041C4.6219 11.6917 4.6219 11.1852 4.93431 10.8727L3.23726 9.17569ZM9.17568 3.23726L3.23726 9.17569L4.93431 10.8727L10.8727 4.93432L9.17568 3.23726ZM11.4384 2.3C10.5897 2.3 9.7758 2.63714 9.17568 3.23726L10.8727 4.93431C11.0228 4.78429 11.2263 4.7 11.4384 4.7V2.3ZM14.0628 8.26306C14.0628 8.34123 13.9995 8.4046 13.9213 8.4046V6.0046C12.674 6.0046 11.6628 7.01574 11.6628 8.26306H14.0628ZM13.9213 8.12151C13.9995 8.12151 14.0628 8.18488 14.0628 8.26306H11.6628C11.6628 9.51037 12.674 10.5215 13.9213 10.5215V8.12151ZM13.7798 8.26306C13.7798 8.18488 13.8431 8.12151 13.9213 8.12151V10.5215C15.1686 10.5215 16.1798 9.51037 16.1798 8.26306H13.7798ZM13.9213 8.4046C13.8431 8.4046 13.7798 8.34123 13.7798 8.26306H16.1798C16.1798 7.01575 15.1686 6.0046 13.9213 6.0046V8.4046Z" fill="#00D9C9" mask="url(#path-2-inside-1)"/>
</g>
<defs>
<filter id="filter0_d" x="0.5" y="3.5" width="21.0484" height="21.0484" filterUnits="userSpaceOnUse" color-interpolation-filters="sRGB">
<feFlood flood-opacity="0" result="BackgroundImageFix"/>
<feColorMatrix in="SourceAlpha" type="matrix" values="0 0 0 0 0 0 0 0 0 0 0 0 0 0 0 0 0 0 127 0" result="hardAlpha"/>
<feOffset dy="3"/>
<feGaussianBlur stdDeviation="1.5"/>
<feColorMatrix type="matrix" values="0 0 0 0 0 0 0 0 0 0.662745 0 0 0 0 0.611765 0 0 0 0.5 0"/>
<feBlend mode="normal" in2="BackgroundImageFix" result="effect1_dropShadow"/>
<feBlend mode="normal" in="SourceGraphic" in2="effect1_dropShadow" result="shape"/>
</filter>
</defs>
</svg>
