<svg width="30" height="25" viewBox="0 0 30 25" fill="none" xmlns="http://www.w3.org/2000/svg">
  <path
    d="M5.49886 10.9626C5.93877 10.41 6.15873 9.72371 6.15873 8.90374V4.89305C6.15873 4.14438 6.34203 3.56506 6.70861 3.15508C7.07521 2.7451 7.53344 2.54011 8.08333 2.54011H9.23809V0H7.53345C6.03043 0 4.85733 0.365423 4.01417 1.09626C3.18934 1.82709 2.77692 2.8877 2.77692 4.27808V8.15508C2.77692 9.02852 2.64863 9.66131 2.392 10.0535C2.13539 10.4278 1.67715 10.7041 1.01729 10.8824L0 11.1765V12.7273L1.01729 13.0214C1.67715 13.1997 2.13539 13.4848 2.392 13.877C2.64863 14.2513 2.77692 14.8752 2.77692 15.7487V19.6257C2.77692 21.016 3.18018 22.0767 3.98667 22.8075C4.8115 23.5383 5.99376 23.9037 7.53345 23.9037H9.23809V21.3636H8.08333C7.53344 21.3636 7.07521 21.1586 6.70861 20.7487C6.34203 20.3387 6.15873 19.7594 6.15873 19.0107V15C6.15873 14.18 5.93877 13.5027 5.49886 12.9679C5.07729 12.4153 4.56406 12.0767 3.95918 11.9519C4.56406 11.8271 5.07729 11.4973 5.49886 10.9626Z"
    fill="currentColor" />
  <path
    d="M30 12.7273V11.1765L28.9827 10.8824C28.3228 10.7041 27.8646 10.4278 27.608 10.0535C27.3514 9.66131 27.2231 9.02852 27.2231 8.15508V4.27808C27.2231 2.8877 26.8015 1.82709 25.9583 1.09626C25.1335 0.365423 23.9696 0 22.4665 0H20.7619V2.54011H21.9442C22.4757 2.54011 22.9248 2.7451 23.2914 3.15508C23.6579 3.56506 23.8413 4.14438 23.8413 4.89305V8.90374C23.8413 9.72371 24.0521 10.41 24.4736 10.9626C24.9135 11.4973 25.4359 11.8271 26.0408 11.9519C25.4359 12.0767 24.9135 12.4153 24.4736 12.9679C24.0521 13.5027 23.8413 14.18 23.8413 15V19.0107C23.8413 19.7594 23.6579 20.3387 23.2914 20.7487C22.9248 21.1586 22.4757 21.3636 21.9442 21.3636H20.7619V23.9037H22.4665C24.0062 23.9037 25.1794 23.5383 25.9858 22.8075C26.8107 22.0767 27.2231 21.016 27.2231 19.6257V15.7487C27.2231 14.8752 27.3514 14.2513 27.608 13.877C27.8646 13.4848 28.3228 13.1997 28.9827 13.0214L30 12.7273Z"
    fill="currentColor" />
  <path d="M16.1189 3.31543L9.75 19.4919H13.082L19.5 3.31543H16.1189Z" fill="currentColor" />
</svg>
