<svg width="20" height="20" viewBox="0 0 20 20" fill="none" xmlns="http://www.w3.org/2000/svg">
<circle cx="10" cy="10" r="10" fill="#F2994A"/>
<path d="M5.56614 9.82353C5.77143 9.58039 5.87407 9.27843 5.87407 8.91765V7.15294C5.87407 6.82353 5.95961 6.56863 6.13069 6.38824C6.30177 6.20784 6.51561 6.11765 6.77222 6.11765H7.31111V5H6.51561C5.8142 5 5.26676 5.16079 4.87328 5.48235C4.48836 5.80392 4.2959 6.27059 4.2959 6.88235V8.58824C4.2959 8.97255 4.23603 9.25098 4.11627 9.42353C3.99652 9.58823 3.78267 9.70979 3.47474 9.78824L3 9.91765V10.6L3.47474 10.7294C3.78267 10.8079 3.99652 10.9333 4.11627 11.1059C4.23603 11.2706 4.2959 11.5451 4.2959 11.9294V13.6353C4.2959 14.2471 4.48408 14.7137 4.86045 15.0353C5.24537 15.3568 5.79709 15.5176 6.51561 15.5176H7.31111V14.4H6.77222C6.51561 14.4 6.30177 14.3098 6.13069 14.1294C5.95961 13.949 5.87407 13.6941 5.87407 13.3647V11.6C5.87407 11.2392 5.77143 10.9412 5.56614 10.7059C5.3694 10.4627 5.12989 10.3137 4.84762 10.2588C5.12989 10.2039 5.3694 10.0588 5.56614 9.82353Z" fill="#F1F5F9"/>
<path d="M17 10.6V9.91765L16.5253 9.78824C16.2173 9.70979 16.0035 9.58823 15.8837 9.42353C15.764 9.25098 15.7041 8.97255 15.7041 8.58824V6.88235C15.7041 6.27059 15.5074 5.80392 15.1139 5.48235C14.729 5.16079 14.1858 5 13.4844 5H12.6889V6.11765H13.2406C13.4886 6.11765 13.6983 6.20784 13.8693 6.38824C14.0404 6.56863 14.1259 6.82353 14.1259 7.15294V8.91765C14.1259 9.27843 14.2243 9.58039 14.421 9.82353C14.6263 10.0588 14.8701 10.2039 15.1524 10.2588C14.8701 10.3137 14.6263 10.4627 14.421 10.7059C14.2243 10.9412 14.1259 11.2392 14.1259 11.6V13.3647C14.1259 13.6941 14.0404 13.949 13.8693 14.1294C13.6983 14.3098 13.4886 14.4 13.2406 14.4H12.6889V15.5176H13.4844C14.2029 15.5176 14.7504 15.3568 15.1267 15.0353C15.5116 14.7137 15.7041 14.2471 15.7041 13.6353V11.9294C15.7041 11.5451 15.764 11.2706 15.8837 11.1059C16.0035 10.9333 16.2173 10.8079 16.5253 10.7294L17 10.6Z" fill="#F1F5F9"/>
<path d="M10.5224 6.45898L7.55029 13.5766H9.10522L12.1003 6.45898H10.5224Z" fill="#F1F5F9"/>
</svg>
