<svg width="26" height="24" viewBox="0 0 26 24" fill="none" xmlns="http://www.w3.org/2000/svg">
  <path fill-rule="evenodd" clip-rule="evenodd"
    d="M25.8525 11.4607L20.9821 22.1124C20.8468 22.5169 20.4409 22.7865 19.8998 22.9213L8.26486 24C7.72371 24 7.31784 23.7303 7.04726 23.3258L0.282778 13.8876C0.012199 13.4831 -0.123091 12.9438 0.147489 12.5393L5.01791 1.88764C5.1532 1.48315 5.55907 1.21348 6.10023 1.07865L17.7351 0C18.2763 0 18.6822 0.269663 18.9527 0.674157L25.7172 10.1124C25.9878 10.5169 26.1231 11.0562 25.8525 11.4607ZM13.947 12.1348L19.8998 20.3596L24.0937 10.9213L18.2763 2.69663L13.947 12.1348ZM18.2763 21.1685L12.5941 13.2135L2.5827 14.0225L8.26486 22.1124L18.2763 21.1685ZM2.17683 12.2697L12.3236 11.3258L16.6528 1.88764L6.5061 2.83146L2.17683 12.2697Z"
    fill="currentColor" />
  <path
    d="M19.0668 12.9037C18.356 12.5987 17.7432 13.1748 17.6981 14.1905C17.653 15.2061 18.1927 16.2767 18.9034 16.5816C19.6142 16.8866 20.227 16.3104 20.2721 15.2948C20.3172 14.2792 19.7776 13.2086 19.0668 12.9037Z"
    fill="currentColor" />
  <path
    d="M19.1312 5.70245C18.4512 5.40676 17.8397 5.96541 17.7655 6.95023C17.6912 7.93505 18.1823 8.97311 18.8624 9.2688C19.5425 9.56449 20.1539 9.00584 20.2282 8.02102C20.3024 7.0362 19.8113 5.99814 19.1312 5.70245Z"
    fill="currentColor" />
  <path
    d="M10.5772 16.0147C11.3013 16.4746 12.2909 16.5239 12.7875 16.1247C13.2841 15.7255 13.0997 15.029 12.3756 14.5691C11.6515 14.1092 10.6619 14.0599 10.1653 14.4591C9.66864 14.8583 9.85307 15.5547 10.5772 16.0147Z"
    fill="currentColor" />
  <path
    d="M5.47757 16.5645C6.20168 17.0244 7.19127 17.0737 7.68788 16.6745C8.1845 16.2753 8.00007 15.5788 7.27596 15.1189C6.55185 14.659 5.56226 14.6097 5.06565 15.0089C4.56904 15.4081 4.75346 16.1046 5.47757 16.5645Z"
    fill="currentColor" />
  <path
    d="M13.4004 20.0547C14.1245 20.5147 15.1141 20.5639 15.6107 20.1647C16.1073 19.7655 15.9229 19.0691 15.1988 18.6091C14.4747 18.1492 13.4851 18.1 12.9885 18.4992C12.4919 18.8983 12.6763 19.5948 13.4004 20.0547Z"
    fill="currentColor" />
  <path
    d="M8.30081 20.604C9.02492 21.064 10.0145 21.1132 10.5111 20.714C11.0077 20.3148 10.8233 19.6184 10.0992 19.1585C9.37509 18.6985 8.3855 18.6493 7.88889 19.0485C7.39228 19.4477 7.5767 20.1441 8.30081 20.604Z"
    fill="currentColor" />
  <path
    d="M9.47003 8.4062C8.65795 8.65175 8.07746 8.18784 8.17347 7.37001C8.26947 6.55219 9.00562 5.69016 9.81769 5.44461C10.6298 5.19906 11.2103 5.66298 11.1143 6.4808C11.0182 7.29862 10.2821 8.16065 9.47003 8.4062Z"
    fill="currentColor" />
</svg>
