<svg width="2" height="10" viewBox="0 0 2 10" fill="none" xmlns="http://www.w3.org/2000/svg">
<path d="M0.414 1.782C0.294 1.782 0.192 1.746 0.108 1.674C0.036 1.59 0 1.488 0 1.368V0.432C0 0.312 0.036 0.21 0.108 0.125999C0.192 0.0419998 0.294 0 0.414 0H1.476C1.596 0 1.698 0.0419998 1.782 0.125999C1.866 0.21 1.908 0.312 1.908 0.432V1.368C1.908 1.488 1.866 1.59 1.782 1.674C1.698 1.746 1.596 1.782 1.476 1.782H0.414ZM0.558 9.906C0.438 9.906 0.336 9.87 0.252 9.798C0.18 9.714 0.144 9.612 0.144 9.492V3.96C0.144 3.84 0.18 3.744 0.252 3.672C0.336 3.588 0.438 3.546 0.558 3.546H1.35C1.47 3.546 1.566 3.588 1.638 3.672C1.722 3.744 1.764 3.84 1.764 3.96V9.492C1.764 9.612 1.722 9.714 1.638 9.798C1.566 9.87 1.47 9.906 1.35 9.906H0.558Z" fill="currentColor"/>
</svg>
