<svg width="20" height="20" viewBox="0 0 20 20" fill="none" xmlns="http://www.w3.org/2000/svg">
    <path d="M7.30823 6.1872C8.20408 4.79366 8.652 4.09688 9.22156 3.85622C9.71922 3.64595 10.2808 3.64595 10.7784 3.85622C11.348 4.09688 11.7959 4.79366 12.6918 6.1872L15.8304 11.0696C16.8628 12.6755 17.379 13.4785 17.3316 14.1425C17.2903 14.7211 16.9997 15.2534 16.5353 15.601C16.0024 16 15.0478 16 13.1387 16H6.86133C4.95219 16 3.99762 16 3.46471 15.601C3.0003 15.2534 2.70974 14.7211 2.66841 14.1425C2.62099 13.4785 3.13718 12.6755 4.16956 11.0696L7.30823 6.1872Z" fill="#F9DCDC" stroke="#DD4141" stroke-width="1.5"/>
    <path d="M10 6.5V11" stroke="#DD4141" stroke-width="1.5"/>
    <path d="M10 12.5V14.5" stroke="#DD4141" stroke-width="1.5"/>
</svg>
