<svg width="20" height="20" viewBox="0 0 20 20" fill="none" xmlns="http://www.w3.org/2000/svg">
  <path d="M12 11L8 11C6.89543 11 6 10.1046 6 9L6 6" stroke="#98CAD7" stroke-width="1.5" stroke-linecap="round"
    stroke-linejoin="round" />
  <path
    d="M11.1953 8.66452V13.3355C11.1953 13.8684 11.1953 14.1348 11.3045 14.2716C11.3995 14.3906 11.5436 14.4599 11.6958 14.4597C11.8709 14.4595 12.079 14.2931 12.4951 13.9602L12.4951 13.9602L15.4144 11.6248C15.6814 11.4112 15.8148 11.3045 15.8631 11.1755C15.9055 11.0624 15.9055 10.9378 15.8631 10.8247C15.8148 10.6957 15.6814 10.5889 15.4145 10.3754L12.4951 8.03983C12.079 7.70696 11.8709 7.54052 11.6959 7.54033C11.5436 7.54016 11.3995 7.60939 11.3045 7.7284C11.1953 7.86524 11.1953 8.13167 11.1953 8.66452Z"
    fill="#98CAD7" />
</svg>
