<svg width="22" height="23" viewBox="0 0 22 23" fill="none" xmlns="http://www.w3.org/2000/svg">
<path d="M18.6 0.5H3.4C2.73563 0.5 2.27247 0.500528 1.91417 0.534595C1.5633 0.567955 1.36496 0.629914 1.21625 0.72104C1.01442 0.844723 0.844723 1.01442 0.721039 1.21625C0.629913 1.36496 0.567955 1.5633 0.534595 1.91417C0.500528 2.27247 0.5 2.73563 0.5 3.4V18.6C0.5 19.2644 0.500528 19.7275 0.534595 20.0858C0.567955 20.4367 0.629913 20.635 0.721039 20.7837C0.844723 20.9856 1.01442 21.1553 1.21625 21.279C1.36496 21.3701 1.5633 21.432 1.91417 21.4654C2.27247 21.4995 2.73563 21.5 3.4 21.5H18.6C19.2644 21.5 19.7275 21.4995 20.0858 21.4654C20.4367 21.432 20.635 21.3701 20.7837 21.279C20.9856 21.1553 21.1553 20.9856 21.279 20.7837C21.3701 20.635 21.432 20.4367 21.4654 20.0858C21.4995 19.7275 21.5 19.2644 21.5 18.6V3.4C21.5 2.73563 21.4995 2.27247 21.4654 1.91417C21.432 1.5633 21.3701 1.36496 21.279 1.21625C21.1553 1.01442 20.9856 0.844723 20.7837 0.72104C20.635 0.629914 20.4367 0.567955 20.0858 0.534595C19.7275 0.500528 19.2644 0.5 18.6 0.5Z" fill="#DEFFFC" stroke="#24C7BB"/>
<g filter="url(#filter0_d)">
<rect x="5.5" y="5.5" width="11" height="11" fill="#DEFFFC"/>
<rect x="6.25" y="6.25" width="9.5" height="9.5" fill="#DEFFFC" stroke="#00D9C9" stroke-width="1.5"/>
</g>
<circle cx="15.75" cy="6.5" r="2" fill="#DEFFFC" stroke="#00D9C9" stroke-width="1.5"/>
<circle cx="6.25" cy="6.5" r="2" fill="#DEFFFC" stroke="#00D9C9" stroke-width="1.5"/>
<circle cx="15.75" cy="15.5" r="2" fill="#DEFFFC" stroke="#00D9C9" stroke-width="1.5"/>
<circle cx="6.25" cy="15.5" r="2" fill="#DEFFFC" stroke="#00D9C9" stroke-width="1.5"/>
<defs>
<filter id="filter0_d" x="2.5" y="5.5" width="17" height="17" filterUnits="userSpaceOnUse" color-interpolation-filters="sRGB">
<feFlood flood-opacity="0" result="BackgroundImageFix"/>
<feColorMatrix in="SourceAlpha" type="matrix" values="0 0 0 0 0 0 0 0 0 0 0 0 0 0 0 0 0 0 127 0" result="hardAlpha"/>
<feOffset dy="3"/>
<feGaussianBlur stdDeviation="1.5"/>
<feColorMatrix type="matrix" values="0 0 0 0 0 0 0 0 0 0.662745 0 0 0 0 0.611765 0 0 0 0.5 0"/>
<feBlend mode="normal" in2="BackgroundImageFix" result="effect1_dropShadow"/>
<feBlend mode="normal" in="SourceGraphic" in2="effect1_dropShadow" result="shape"/>
</filter>
</defs>
</svg>
