<svg width="16" height="17" viewBox="0 0 16 17" fill="none" xmlns="http://www.w3.org/2000/svg">
  <path d="M7.99995 8.5H8.00195C8.55395 8.5 9.00195 8.054 9.00195 7.502L9.01595 1.002C9.01595 0.449 8.56995 0.001 8.01695 0C7.47095 0.019 7.01595 0.445 7.01595 0.998L7.00195 7.498C7.00195 8.05 7.44795 8.499 7.99995 8.5Z" fill="#697990"/>
  <path d="M8 16.4999C3.864 16.4999 0.5 13.1359 0.5 8.99994C0.5 6.35594 1.851 3.95794 4.114 2.58494C4.587 2.29894 5.201 2.44794 5.487 2.92094C5.774 3.39294 5.624 4.00794 5.151 4.29394C3.491 5.30194 2.5 7.06194 2.5 8.99994C2.5 12.0319 4.968 14.4999 8 14.4999C11.032 14.4999 13.5 12.0319 13.5 8.99994C13.5 7.06194 12.509 5.30194 10.849 4.29394C10.376 4.00794 10.226 3.39294 10.513 2.92094C10.799 2.44794 11.413 2.29894 11.886 2.58494C14.149 3.95794 15.5 6.35594 15.5 8.99994C15.5 13.1359 12.136 16.4999 8 16.4999Z" fill="#697990"/>
</svg>
