<svg width="14" height="17" viewBox="0 0 14 17" fill="none" xmlns="http://www.w3.org/2000/svg">
<path fill-rule="evenodd" clip-rule="evenodd" d="M6.125 2.6V1.46313C6.125 0.56542 5.03378 0.122397 4.40801 0.766052L2.42771 2.80292C2.05037 3.19104 2.05037 3.80896 2.42772 4.19708L4.40801 6.23395C5.03378 6.8776 6.125 6.43458 6.125 5.53687V4.4H7C9.89538 4.4 12.25 6.8219 12.25 9.8C12.25 12.7781 9.89538 15.2 7 15.2C4.10462 15.2 1.75 12.7781 1.75 9.8V9.775C1.75 9.29175 1.35825 8.9 0.875 8.9C0.391751 8.9 0 9.29175 0 9.775V9.8C0 13.7699 3.14038 17 7 17C10.8596 17 14 13.7699 14 9.8C14 5.8301 10.8596 2.6 7 2.6H6.125Z" fill="currentColor"/>
</svg>
