<svg width="20" height="20" viewBox="0 0 20 20" fill="none" xmlns="http://www.w3.org/2000/svg">
<circle cx="10" cy="10" r="10" fill="#FFD747"/>
<path d="M5 4.6C5 4.26863 5.26863 4 5.6 4H14.4C14.7314 4 15 4.26863 15 4.6V15C15 15.5523 14.5523 16 14 16H6C5.44772 16 5 15.5523 5 15V4.6Z" fill="#F1F5F9"/>
<path d="M8 11L9.5 12.5L12 8" stroke="#FFD747" stroke-width="1.5" stroke-linecap="round" stroke-linejoin="round"/>
<path fill-rule="evenodd" clip-rule="evenodd" d="M9.5 2C8.94772 2 8.5 2.44772 8.5 3H7.5C6.94772 3 6.5 3.44772 6.5 4C6.5 4.55228 6.94772 5 7.5 5H12.5C13.0523 5 13.5 4.55228 13.5 4C13.5 3.44772 13.0523 3 12.5 3H11.5C11.5 2.44772 11.0523 2 10.5 2H9.5Z" fill="#F1F5F9"/>
<path d="M8.5 3V3.5H9V3H8.5ZM11.5 3H11V3.5H11.5V3ZM9 3C9 2.72386 9.22386 2.5 9.5 2.5V1.5C8.67157 1.5 8 2.17157 8 3H9ZM7.5 3.5H8.5V2.5H7.5V3.5ZM7 4C7 3.72386 7.22386 3.5 7.5 3.5V2.5C6.67157 2.5 6 3.17157 6 4H7ZM7.5 4.5C7.22386 4.5 7 4.27614 7 4H6C6 4.82843 6.67157 5.5 7.5 5.5V4.5ZM12.5 4.5H7.5V5.5H12.5V4.5ZM13 4C13 4.27614 12.7761 4.5 12.5 4.5V5.5C13.3284 5.5 14 4.82843 14 4H13ZM12.5 3.5C12.7761 3.5 13 3.72386 13 4H14C14 3.17157 13.3284 2.5 12.5 2.5V3.5ZM11.5 3.5H12.5V2.5H11.5V3.5ZM10.5 2.5C10.7761 2.5 11 2.72386 11 3H12C12 2.17157 11.3284 1.5 10.5 1.5V2.5ZM9.5 2.5H10.5V1.5H9.5V2.5Z" fill="#FFD747"/>
</svg>
