<svg width="27" height="10" viewBox="0 0 27 10" fill="none" xmlns="http://www.w3.org/2000/svg">
<circle cx="21.6665" cy="5" r="4.5" stroke="black"/>
<path d="M12.916 2.22265C12.7628 1.99289 12.4524 1.9308 12.2226 2.08397C11.9929 2.23715 11.9308 2.54759 12.084 2.77735L12.916 2.22265ZM14.1667 5L14.5827 5.27735C14.6947 5.1094 14.6947 4.8906 14.5827 4.72265L14.1667 5ZM12.084 7.22265C11.9308 7.45241 11.9929 7.76285 12.2226 7.91603C12.4524 8.0692 12.7628 8.00711 12.916 7.77735L12.084 7.22265ZM12.084 2.77735L13.7506 5.27735L14.5827 4.72265L12.916 2.22265L12.084 2.77735ZM13.7506 4.72265L12.084 7.22265L12.916 7.77735L14.5827 5.27735L13.7506 4.72265Z" fill="black"/>
<circle cx="5" cy="5" r="4.5" stroke="black"/>
</svg>
