<svg width="15" height="15" viewBox="0 0 15 15" fill="none" xmlns="http://www.w3.org/2000/svg">
<mask id="path-1-inside-1" fill="white">
<path fill-rule="evenodd" clip-rule="evenodd" d="M7.5 0H12.1716C13.2761 0 14.1716 0.895431 14.1716 2V6.67157C14.1716 7.20201 13.9609 7.71071 13.5858 8.08579L8.08579 13.5858C7.30474 14.3668 6.03841 14.3668 5.25736 13.5858L0.585787 8.91421C-0.195262 8.13317 -0.195262 6.86684 0.585786 6.08579L6.08579 0.585787C6.46086 0.210714 6.96957 0 7.5 0ZM10.1716 3C9.61929 3 9.17157 3.44772 9.17157 4C9.17157 4.55228 9.61929 5 10.1716 5C10.7239 5 11.1716 4.55228 11.1716 4C11.1716 3.44772 10.7239 3 10.1716 3Z"/>
</mask>
<path fill-rule="evenodd" clip-rule="evenodd" d="M7.5 0H12.1716C13.2761 0 14.1716 0.895431 14.1716 2V6.67157C14.1716 7.20201 13.9609 7.71071 13.5858 8.08579L8.08579 13.5858C7.30474 14.3668 6.03841 14.3668 5.25736 13.5858L0.585787 8.91421C-0.195262 8.13317 -0.195262 6.86684 0.585786 6.08579L6.08579 0.585787C6.46086 0.210714 6.96957 0 7.5 0ZM10.1716 3C9.61929 3 9.17157 3.44772 9.17157 4C9.17157 4.55228 9.61929 5 10.1716 5C10.7239 5 11.1716 4.55228 11.1716 4C11.1716 3.44772 10.7239 3 10.1716 3Z" fill="#CCF7F3"/>
<path d="M13.5858 8.08579L12.8787 7.37868V7.37868L13.5858 8.08579ZM5.25736 13.5858L4.55025 14.2929L4.55025 14.2929L5.25736 13.5858ZM0.585787 8.91421L-0.12132 9.62132H-0.12132L0.585787 8.91421ZM0.585786 6.08579L-0.12132 5.37868H-0.121321L0.585786 6.08579ZM6.08579 0.585787L5.37868 -0.12132V-0.12132L6.08579 0.585787ZM12.1716 -1H7.5V1H12.1716V-1ZM15.1716 2C15.1716 0.343146 13.8284 -1 12.1716 -1V1C12.7239 1 13.1716 1.44772 13.1716 2H15.1716ZM15.1716 6.67157V2H13.1716V6.67157H15.1716ZM14.2929 8.79289C14.8555 8.23028 15.1716 7.46722 15.1716 6.67157H13.1716C13.1716 6.93679 13.0662 7.19114 12.8787 7.37868L14.2929 8.79289ZM8.79289 14.2929L14.2929 8.79289L12.8787 7.37868L7.37868 12.8787L8.79289 14.2929ZM4.55025 14.2929C5.72183 15.4645 7.62132 15.4645 8.79289 14.2929L7.37868 12.8787C6.98816 13.2692 6.35499 13.2692 5.96447 12.8787L4.55025 14.2929ZM-0.12132 9.62132L4.55025 14.2929L5.96447 12.8787L1.29289 8.20711L-0.12132 9.62132ZM-0.121321 5.37868C-1.29289 6.55025 -1.29289 8.44975 -0.12132 9.62132L1.29289 8.20711C0.902369 7.81658 0.902369 7.18342 1.29289 6.79289L-0.121321 5.37868ZM5.37868 -0.12132L-0.12132 5.37868L1.29289 6.79289L6.79289 1.29289L5.37868 -0.12132ZM7.5 -1C6.70435 -1 5.94129 -0.683929 5.37868 -0.12132L6.79289 1.29289C6.98043 1.10536 7.23478 1 7.5 1V-1ZM10.1716 4V2C9.067 2 8.17157 2.89543 8.17157 4H10.1716ZM10.1716 4H8.17157C8.17157 5.10457 9.067 6 10.1716 6V4ZM10.1716 4V6C11.2761 6 12.1716 5.10457 12.1716 4H10.1716ZM10.1716 4H12.1716C12.1716 2.89543 11.2761 2 10.1716 2V4Z" fill="#00D9C9" mask="url(#path-1-inside-1)"/>
</svg>
