<svg width="22" height="23" viewBox="0 0 22 23" fill="none" xmlns="http://www.w3.org/2000/svg">
<path d="M18.6 0.5H3.4C2.73563 0.5 2.27247 0.500528 1.91417 0.534595C1.5633 0.567955 1.36496 0.629914 1.21625 0.72104C1.01442 0.844723 0.844723 1.01442 0.721039 1.21625C0.629913 1.36496 0.567955 1.5633 0.534595 1.91417C0.500528 2.27247 0.5 2.73563 0.5 3.4V18.6C0.5 19.2644 0.500528 19.7275 0.534595 20.0858C0.567955 20.4367 0.629913 20.635 0.721039 20.7837C0.844723 20.9856 1.01442 21.1553 1.21625 21.279C1.36496 21.3701 1.5633 21.432 1.91417 21.4654C2.27247 21.4995 2.73563 21.5 3.4 21.5H18.6C19.2644 21.5 19.7275 21.4995 20.0858 21.4654C20.4367 21.432 20.635 21.3701 20.7837 21.279C20.9856 21.1553 21.1553 20.9856 21.279 20.7837C21.3701 20.635 21.432 20.4367 21.4654 20.0858C21.4995 19.7275 21.5 19.2644 21.5 18.6V3.4C21.5 2.73563 21.4995 2.27247 21.4654 1.91417C21.432 1.5633 21.3701 1.36496 21.279 1.21625C21.1553 1.01442 20.9856 0.844723 20.7837 0.72104C20.635 0.629914 20.4367 0.567955 20.0858 0.534595C19.7275 0.500528 19.2644 0.5 18.6 0.5Z" fill="#DEFFFC" stroke="#24C7BB"/>
<g filter="url(#filter0_d)">
<mask id="path-2-inside-1" fill="white">
<ellipse cx="13.0002" cy="15.4001" rx="0.800012" ry="0.8"/>
</mask>
<ellipse cx="13.0002" cy="15.4001" rx="0.800012" ry="0.8" fill="#00D9C9"/>
<path d="M12.8002 15.4001C12.8002 15.2896 12.8898 15.2001 13.0002 15.2001V17.2001C13.9943 17.2001 14.8002 16.3942 14.8002 15.4001H12.8002ZM13.0002 15.2001C13.1106 15.2001 13.2002 15.2896 13.2002 15.4001H11.2002C11.2002 16.3942 12.0061 17.2001 13.0002 17.2001V15.2001ZM13.2002 15.4001C13.2002 15.5106 13.1106 15.6001 13.0002 15.6001V13.6001C12.0061 13.6001 11.2002 14.406 11.2002 15.4001H13.2002ZM13.0002 15.6001C12.8898 15.6001 12.8002 15.5106 12.8002 15.4001H14.8002C14.8002 14.406 13.9943 13.6001 13.0002 13.6001V15.6001Z" fill="#00D9C9" mask="url(#path-2-inside-1)"/>
<mask id="path-4-inside-2" fill="white">
<ellipse cx="16.2004" cy="15.4001" rx="0.800012" ry="0.8"/>
</mask>
<ellipse cx="16.2004" cy="15.4001" rx="0.800012" ry="0.8" fill="#00D9C9"/>
<path d="M16.0004 15.4001C16.0004 15.2896 16.09 15.2001 16.2004 15.2001V17.2001C17.1945 17.2001 18.0004 16.3942 18.0004 15.4001H16.0004ZM16.2004 15.2001C16.3108 15.2001 16.4004 15.2896 16.4004 15.4001H14.4004C14.4004 16.3942 15.2063 17.2001 16.2004 17.2001V15.2001ZM16.4004 15.4001C16.4004 15.5106 16.3108 15.6001 16.2004 15.6001V13.6001C15.2063 13.6001 14.4004 14.406 14.4004 15.4001H16.4004ZM16.2004 15.6001C16.09 15.6001 16.0004 15.5106 16.0004 15.4001H18.0004C18.0004 14.406 17.1945 13.6001 16.2004 13.6001V15.6001Z" fill="#00D9C9" mask="url(#path-4-inside-2)"/>
<path d="M5.7998 5.6001C5.24752 5.6001 4.7998 6.04781 4.7998 6.6001C4.7998 7.15238 5.24752 7.6001 5.7998 7.6001V5.6001ZM16.2 7.6001C16.7523 7.6001 17.2 7.15238 17.2 6.6001C17.2 6.04781 16.7523 5.6001 16.2 5.6001V7.6001ZM5.7998 7.6001H16.2V5.6001H5.7998V7.6001Z" fill="#00D9C9"/>
<path d="M5.7998 10C5.24752 10 4.7998 10.4477 4.7998 11C4.7998 11.5523 5.24752 12 5.7998 12V10ZM16.2 12C16.7523 12 17.2 11.5523 17.2 11C17.2 10.4477 16.7523 10 16.2 10V12ZM5.7998 12H16.2V10H5.7998V12Z" fill="#00D9C9"/>
<path d="M5.7998 14.3999C5.24752 14.3999 4.7998 14.8476 4.7998 15.3999C4.7998 15.9522 5.24752 16.3999 5.7998 16.3999V14.3999ZM9.79987 16.3999C10.3522 16.3999 10.7999 15.9522 10.7999 15.3999C10.7999 14.8476 10.3522 14.3999 9.79987 14.3999V16.3999ZM5.7998 16.3999H9.79987V14.3999H5.7998V16.3999Z" fill="#00D9C9"/>
</g>
<defs>
<filter id="filter0_d" x="1.7998" y="5" width="18.4002" height="18" filterUnits="userSpaceOnUse" color-interpolation-filters="sRGB">
<feFlood flood-opacity="0" result="BackgroundImageFix"/>
<feColorMatrix in="SourceAlpha" type="matrix" values="0 0 0 0 0 0 0 0 0 0 0 0 0 0 0 0 0 0 127 0" result="hardAlpha"/>
<feOffset dy="3"/>
<feGaussianBlur stdDeviation="1.5"/>
<feColorMatrix type="matrix" values="0 0 0 0 0 0 0 0 0 0.662745 0 0 0 0 0.611765 0 0 0 0.5 0"/>
<feBlend mode="normal" in2="BackgroundImageFix" result="effect1_dropShadow"/>
<feBlend mode="normal" in="SourceGraphic" in2="effect1_dropShadow" result="shape"/>
</filter>
</defs>
</svg>
