<svg width="15" height="13" viewBox="0 0 15 13" fill="none" xmlns="http://www.w3.org/2000/svg">
<path fill-rule="evenodd" clip-rule="evenodd" d="M1 0H5.43709C5.8197 0 6.16877 0.218309 6.33623 0.562322L6.72627 1.3636C6.89373 1.70762 7.2428 1.92593 7.62541 1.92593H14C14.5523 1.92593 15 2.37364 15 2.92593V12C15 12.5523 14.5523 13 14 13H9V8.41421L10.2929 9.70711C10.6834 10.0976 11.3166 10.0976 11.7071 9.70711C12.0976 9.31658 12.0976 8.68342 11.7071 8.29289L8.70711 5.29289C8.31658 4.90237 7.68342 4.90237 7.29289 5.29289L4.29289 8.29289C3.90237 8.68342 3.90237 9.31658 4.29289 9.70711C4.68342 10.0976 5.31658 10.0976 5.70711 9.70711L7 8.41421V13H1C0.447715 13 0 12.5523 0 12V1C0 0.447715 0.447715 0 1 0Z" fill="#91A9C0"/>
</svg>
