<svg width="20" height="20" viewBox="0 0 20 20" fill="none" xmlns="http://www.w3.org/2000/svg">
<circle cx="10" cy="10" r="10" fill="#91A9C0"/>
<path fill-rule="evenodd" clip-rule="evenodd" d="M10.7999 3.06663C10.3999 2.53329 9.59986 2.53329 9.19986 3.06663L5.19986 8.39996C4.70544 9.0592 5.17582 9.99996 5.99986 9.99996H8V12C8 12.5523 8.44772 13 9 13H11C11.5523 13 12 12.5523 12 12V9.99996H13.9999C14.8239 9.99996 15.2943 9.0592 14.7999 8.39996L10.7999 3.06663ZM6 16C6 15.4477 6.44772 15 7 15H13C13.5523 15 14 15.4477 14 16C14 16.5523 13.5523 17 13 17H7C6.44772 17 6 16.5523 6 16Z" fill="#F1F5F9"/>
</svg>
