<svg width="19" height="17" viewBox="0 0 19 17" fill="none" xmlns="http://www.w3.org/2000/svg">
  <path
    d="M7.8862 7.28735C7.69372 6.64574 8.17417 6 8.84403 6H10.156C10.8258 6 11.3063 6.64574 11.1138 7.28735L10.5299 9.23374C10.3934 9.68854 9.97483 10 9.5 10C9.02517 10 8.60656 9.68854 8.47012 9.23374L7.8862 7.28735Z"
    fill="currentColor" />
  <rect x="7.9541" y="11" width="3.09091" height="3.09091" rx="1.54545" fill="currentColor" />
  <path
    d="M1.78049 14.5308L8.61688 1.66234C8.9929 0.954543 10.0071 0.954542 10.3831 1.66233L17.2195 14.5308C17.5734 15.1969 17.0906 16 16.3364 16H2.6636C1.9094 16 1.42665 15.1969 1.78049 14.5308Z"
    stroke="currentColor" stroke-width="2" />
</svg>
