<svg width="20" height="17" viewBox="0 0 20 17" fill="none" xmlns="http://www.w3.org/2000/svg">
<path d="M1.43066 13.9988C1.01645 13.9988 0.680664 13.663 0.680664 13.2488C0.680664 12.8346 1.01645 12.4988 1.43066 12.4988V13.9988ZM18.6982 3.75162L19.2285 3.22129C19.5214 3.51419 19.5214 3.98906 19.2285 4.28195L18.6982 3.75162ZM16.6384 6.87209C16.3455 7.16498 15.8706 7.16498 15.5778 6.87209C15.2849 6.57919 15.2849 6.10432 15.5778 5.81143L16.6384 6.87209ZM15.5778 1.69182C15.2849 1.39893 15.2849 0.924055 15.5778 0.631161C15.8706 0.338268 16.3455 0.338268 16.6384 0.631162L15.5778 1.69182ZM11.7543 4.85191L11.1739 4.37698L11.7543 4.85191ZM5.78441 12.1485L5.20394 11.6736L5.78441 12.1485ZM1.43066 12.4988H3.46253V13.9988H1.43066V12.4988ZM5.20394 11.6736L11.1739 4.37698L12.3348 5.32684L6.36488 12.6234L5.20394 11.6736ZM14.0762 3.00162H18.6982V4.50162H14.0762V3.00162ZM19.2285 4.28195L16.6384 6.87209L15.5778 5.81143L18.1679 3.22129L19.2285 4.28195ZM18.1679 4.28195L15.5778 1.69182L16.6384 0.631162L19.2285 3.22129L18.1679 4.28195ZM11.1739 4.37698C11.8861 3.50647 12.9515 3.00162 14.0762 3.00162V4.50162C13.4014 4.50162 12.7621 4.80453 12.3348 5.32684L11.1739 4.37698ZM3.46253 12.4988C4.13738 12.4988 4.7766 12.1959 5.20394 11.6736L6.36488 12.6234C5.65264 13.4939 4.58728 13.9988 3.46253 13.9988V12.4988Z" fill="#91A9C0"/>
<path d="M1.43066 3.00146C1.01645 3.00146 0.680664 3.33725 0.680664 3.75146C0.680664 4.16568 1.01645 4.50146 1.43066 4.50146V3.00146ZM18.6982 13.2486L19.2285 13.7789C19.5214 13.4861 19.5214 13.0112 19.2285 12.7183L18.6982 13.2486ZM16.6384 10.1282C16.3455 9.83526 15.8706 9.83526 15.5778 10.1282C15.2849 10.421 15.2849 10.8959 15.5778 11.1888L16.6384 10.1282ZM15.5778 15.3084C15.2849 15.6013 15.2849 16.0762 15.5778 16.3691C15.8706 16.662 16.3455 16.662 16.6384 16.3691L15.5778 15.3084ZM11.7543 12.1483L12.3348 11.6734L11.7543 12.1483ZM1.43066 4.50146H3.46253V3.00146H1.43066V4.50146ZM5.20394 5.32668L11.1739 12.6233L12.3348 11.6734L6.36488 4.37682L5.20394 5.32668ZM14.0762 13.9986H18.6982V12.4986H14.0762V13.9986ZM19.2285 12.7183L16.6384 10.1282L15.5778 11.1888L18.1679 13.7789L19.2285 12.7183ZM18.1679 12.7183L15.5778 15.3084L16.6384 16.3691L19.2285 13.7789L18.1679 12.7183ZM11.1739 12.6233C11.8861 13.4938 12.9515 13.9986 14.0762 13.9986V12.4986C13.4014 12.4986 12.7621 12.1957 12.3348 11.6734L11.1739 12.6233ZM3.46253 4.50146C4.13738 4.50146 4.7766 4.80438 5.20394 5.32668L6.36488 4.37682C5.65264 3.50632 4.58728 3.00146 3.46253 3.00146V4.50146Z" fill="#91A9C0"/>
<path d="M5.54883 9.29716L9.43403 4.54858" stroke="#E3EAF2" stroke-width="2.5"/>
</svg>
