<svg width="44" height="44" viewBox="0 0 44 44" fill="none" xmlns="http://www.w3.org/2000/svg">
  <path fill-rule="evenodd" clip-rule="evenodd" d="M4.39999 21.4C4.39999 14.8532 4.39999 11.5797 5.87359 9.17504C6.69815 7.82948 7.82945 6.69818 9.17501 5.87362C11.5797 4.40002 14.8531 4.40002 21.4 4.40002H22.6C29.1469 4.40002 32.4203 4.40002 34.825 5.87362C36.1705 6.69818 37.3018 7.82948 38.1264 9.17504C39.6 11.5797 39.6 14.8532 39.6 21.4V22.6C39.6 29.1469 39.6 32.4203 38.1264 34.825C37.3018 36.1706 36.1705 37.3019 34.825 38.1264C32.4203 39.6 29.1469 39.6 22.6 39.6H21.4C14.8531 39.6 11.5797 39.6 9.17501 38.1264C7.82945 37.3019 6.69815 36.1706 5.87359 34.825C4.39999 32.4203 4.39999 29.1469 4.39999 22.6V21.4Z" stroke="#31F5CA" stroke-width="2"/>
  <path d="M19.4781 18.932H28.6014C28.8449 18.932 28.9811 18.9326 29.0798 18.9407C29.1039 18.9427 29.1207 18.9448 29.1316 18.9465C29.1321 18.9469 29.1325 18.9474 29.133 18.9478C29.1346 18.9587 29.1368 18.9756 29.1387 18.9997C29.1468 19.0983 29.1474 19.2345 29.1474 19.478V28.6014C29.1474 28.8449 29.1468 28.9811 29.1387 29.0797C29.1368 29.1038 29.1346 29.1207 29.133 29.1316C29.1325 29.1321 29.1321 29.1325 29.1316 29.1329C29.1207 29.1346 29.1039 29.1367 29.0798 29.1387C28.9811 29.1468 28.8449 29.1474 28.6014 29.1474H19.4781C19.2345 29.1474 19.0983 29.1468 18.9997 29.1387C18.9756 29.1367 18.9588 29.1346 18.9478 29.1329C18.9474 29.1325 18.9469 29.1321 18.9465 29.1316C18.9448 29.1207 18.9427 29.1038 18.9407 29.0797C18.9327 28.9811 18.9321 28.8449 18.9321 28.6014V19.478C18.9321 19.2345 18.9327 19.0983 18.9407 18.9997C18.9427 18.9756 18.9448 18.9587 18.9465 18.9478C18.9469 18.9474 18.9474 18.9469 18.9478 18.9465C18.9588 18.9448 18.9756 18.9427 18.9997 18.9407C19.0983 18.9326 19.2345 18.932 19.4781 18.932Z" fill="#31F5CA" fill-opacity="0.5" stroke="#31F5CA" stroke-width="1.54524"/>
  <g opacity="0.5">
    <mask id="path-3-inside-1" fill="white">
      <path fill-rule="evenodd" clip-rule="evenodd" d="M14.1698 14.5299C14.08 14.7062 14.08 14.937 14.08 15.3986V24.5219C14.08 24.9835 14.08 25.2142 14.1698 25.3905C14.2488 25.5456 14.3749 25.6717 14.53 25.7507C14.7063 25.8405 14.9371 25.8405 15.3986 25.8405H16.7996V18.1182C16.7996 17.6566 16.7996 17.4259 16.8895 17.2496C16.9685 17.0945 17.0945 16.9684 17.2496 16.8894C17.4259 16.7996 17.6567 16.7996 18.1182 16.7996H25.8406V15.3986C25.8406 14.937 25.8406 14.7062 25.7507 14.5299C25.6717 14.3749 25.5456 14.2488 25.3906 14.1698C25.2143 14.08 24.9835 14.08 24.522 14.08H15.3986C14.9371 14.08 14.7063 14.08 14.53 14.1698C14.3749 14.2488 14.2488 14.3749 14.1698 14.5299Z"/>
    </mask>
    <path fill-rule="evenodd" clip-rule="evenodd" d="M14.1698 14.5299C14.08 14.7062 14.08 14.937 14.08 15.3986V24.5219C14.08 24.9835 14.08 25.2142 14.1698 25.3905C14.2488 25.5456 14.3749 25.6717 14.53 25.7507C14.7063 25.8405 14.9371 25.8405 15.3986 25.8405H16.7996V18.1182C16.7996 17.6566 16.7996 17.4259 16.8895 17.2496C16.9685 17.0945 17.0945 16.9684 17.2496 16.8894C17.4259 16.7996 17.6567 16.7996 18.1182 16.7996H25.8406V15.3986C25.8406 14.937 25.8406 14.7062 25.7507 14.5299C25.6717 14.3749 25.5456 14.2488 25.3906 14.1698C25.2143 14.08 24.9835 14.08 24.522 14.08H15.3986C14.9371 14.08 14.7063 14.08 14.53 14.1698C14.3749 14.2488 14.2488 14.3749 14.1698 14.5299Z" fill="#00FFC3"/>
    <path d="M14.1698 14.5299L15.5466 15.2315L15.5466 15.2315L14.1698 14.5299ZM14.1698 25.3905L15.5466 24.689L15.5466 24.689L14.1698 25.3905ZM14.53 25.7507L15.2315 24.3739L15.2315 24.3739L14.53 25.7507ZM16.7996 25.8405V27.3858H18.3449V25.8405H16.7996ZM16.8895 17.2496L18.2663 17.9511L18.2663 17.9511L16.8895 17.2496ZM17.2496 16.8894L17.9511 18.2662L17.9511 18.2662L17.2496 16.8894ZM25.8406 16.7996V18.3448H27.3858V16.7996H25.8406ZM25.7507 14.5299L24.3739 15.2315L24.3739 15.2315L25.7507 14.5299ZM25.3906 14.1698L24.689 15.5466L24.6891 15.5466L25.3906 14.1698ZM14.53 14.1698L15.2315 15.5466L15.2315 15.5466L14.53 14.1698ZM15.6252 15.3986C15.6252 15.2796 15.6253 15.1919 15.6265 15.1172C15.6276 15.0425 15.6297 15.0031 15.6313 14.9831C15.6348 14.9412 15.6312 15.0655 15.5466 15.2315L12.793 13.8284C12.6186 14.1707 12.5702 14.4985 12.5511 14.7314C12.5336 14.9464 12.5348 15.1933 12.5348 15.3986H15.6252ZM15.6252 24.5219V15.3986H12.5348V24.5219H15.6252ZM15.5466 24.689C15.6312 24.855 15.6348 24.9792 15.6313 24.9374C15.6297 24.9174 15.6276 24.878 15.6265 24.8033C15.6253 24.7286 15.6252 24.6408 15.6252 24.5219H12.5348C12.5348 24.7272 12.5336 24.9741 12.5511 25.189C12.5702 25.422 12.6186 25.7498 12.793 26.0921L15.5466 24.689ZM15.2315 24.3739C15.3672 24.443 15.4775 24.5533 15.5466 24.689L12.793 26.0921C13.0202 26.5379 13.3826 26.9004 13.8285 27.1275L15.2315 24.3739ZM15.3986 24.2953C15.2797 24.2953 15.1919 24.2952 15.1172 24.2941C15.0425 24.2929 15.0032 24.2908 14.9832 24.2892C14.9413 24.2858 15.0655 24.2893 15.2315 24.3739L13.8285 27.1275C14.1707 27.3019 14.4985 27.3504 14.7315 27.3694C14.9464 27.387 15.1933 27.3858 15.3986 27.3858V24.2953ZM16.7996 24.2953H15.3986V27.3858H16.7996V24.2953ZM18.3449 25.8405V18.1182H15.2544V25.8405H18.3449ZM18.3449 18.1182C18.3449 17.9993 18.3449 17.9115 18.3461 17.8368C18.3473 17.7621 18.3493 17.7227 18.351 17.7027C18.3544 17.6609 18.3509 17.7851 18.2663 17.9511L15.5126 16.548C15.3382 16.8903 15.2898 17.2181 15.2707 17.4511C15.2532 17.666 15.2544 17.9129 15.2544 18.1182H18.3449ZM18.2663 17.9511C18.1971 18.0868 18.0868 18.1971 17.9511 18.2662L16.5481 15.5126C16.1023 15.7397 15.7398 16.1022 15.5126 16.548L18.2663 17.9511ZM17.9511 18.2662C17.7851 18.3508 17.6609 18.3543 17.7028 18.3509C17.7228 18.3493 17.7622 18.3472 17.8369 18.346C17.9115 18.3449 17.9993 18.3448 18.1182 18.3448V15.2543C17.913 15.2543 17.6661 15.2531 17.4511 15.2707C17.2181 15.2897 16.8904 15.3382 16.5481 15.5126L17.9511 18.2662ZM18.1182 18.3448H25.8406V15.2543H18.1182V18.3448ZM24.2953 15.3986V16.7996H27.3858V15.3986H24.2953ZM24.3739 15.2315C24.2893 15.0655 24.2858 14.9412 24.2892 14.9831C24.2909 15.0031 24.2929 15.0425 24.2941 15.1172C24.2953 15.1919 24.2953 15.2796 24.2953 15.3986H27.3858C27.3858 15.1933 27.387 14.9464 27.3694 14.7314C27.3504 14.4985 27.302 14.1707 27.1276 13.8284L24.3739 15.2315ZM24.6891 15.5466C24.5534 15.4775 24.443 15.3672 24.3739 15.2315L27.1276 13.8284C26.9004 13.3826 26.5379 13.0201 26.0921 12.793L24.6891 15.5466ZM24.522 15.6252C24.6409 15.6252 24.7286 15.6252 24.8033 15.6264C24.878 15.6276 24.9174 15.6297 24.9374 15.6313C24.9793 15.6347 24.855 15.6312 24.689 15.5466L26.0921 12.793C25.7498 12.6186 25.4221 12.5701 25.1891 12.5511C24.9741 12.5335 24.7272 12.5347 24.522 12.5347V15.6252ZM15.3986 15.6252H24.522V12.5347H15.3986V15.6252ZM15.2315 15.5466C15.0655 15.6312 14.9413 15.6347 14.9832 15.6313C15.0032 15.6297 15.0425 15.6276 15.1172 15.6264C15.1919 15.6252 15.2797 15.6252 15.3986 15.6252V12.5347C15.1933 12.5347 14.9464 12.5335 14.7315 12.5511C14.4985 12.5701 14.1707 12.6186 13.8285 12.793L15.2315 15.5466ZM15.5466 15.2315C15.4775 15.3672 15.3672 15.4775 15.2315 15.5466L13.8285 12.793C13.3826 13.0201 13.0202 13.3826 12.793 13.8284L15.5466 15.2315Z" fill="#00FFC3" mask="url(#path-3-inside-1)"/>
  </g>
</svg>
