<svg width="44" height="44" viewBox="0 0 44 44" fill="none" xmlns="http://www.w3.org/2000/svg">
  <path fill-rule="evenodd" clip-rule="evenodd" d="M4.39999 21.4C4.39999 14.8532 4.39999 11.5797 5.87359 9.17504C6.69815 7.82948 7.82945 6.69818 9.17501 5.87362C11.5797 4.40002 14.8531 4.40002 21.4 4.40002H22.6C29.1469 4.40002 32.4203 4.40002 34.825 5.87362C36.1705 6.69818 37.3018 7.82948 38.1264 9.17504C39.6 11.5797 39.6 14.8532 39.6 21.4V22.6C39.6 29.1469 39.6 32.4203 38.1264 34.825C37.3018 36.1706 36.1705 37.3019 34.825 38.1264C32.4203 39.6 29.1469 39.6 22.6 39.6H21.4C14.8531 39.6 11.5797 39.6 9.17501 38.1264C7.82945 37.3019 6.69815 36.1706 5.87359 34.825C4.39999 32.4203 4.39999 29.1469 4.39999 22.6V21.4Z" stroke="#31F5CA" stroke-width="2"/>
  <path opacity="0.5" d="M25.9448 24.1319L25.6123 23.33L24.64 25.52L23.0172 26.6995L20.2423 25.8976L20.5747 26.6995L21.9099 29.92L27.2799 27.3524L25.9448 24.1319Z" fill="#31F5CA" stroke="#31F5CA" stroke-width="1.4" stroke-linecap="round" stroke-linejoin="round"/>
  <path fill-rule="evenodd" clip-rule="evenodd" d="M25.3493 20.1091C26.241 22.2598 25.361 24.77 23.3839 25.7153C21.4068 26.6606 19.0809 25.6832 18.1893 23.5325C17.2976 21.3818 18.54 14.0317 18.54 14.0317C18.54 14.0317 24.4576 17.9583 25.3493 20.1091Z" stroke="#31F5CA" stroke-width="1.4" stroke-linecap="round" stroke-linejoin="round"/>
  <path d="M18.5402 14.0319L21.1639 20.3604" stroke="#31F5CA" stroke-width="1.4" stroke-linecap="round" stroke-linejoin="round"/>
</svg>
