<svg width="44" height="44" viewBox="0 0 44 44" fill="none" xmlns="http://www.w3.org/2000/svg">
  <path fill-rule="evenodd" clip-rule="evenodd" d="M4.39999 21.4C4.39999 14.8532 4.39999 11.5797 5.87359 9.17504C6.69815 7.82948 7.82945 6.69818 9.17501 5.87362C11.5797 4.40002 14.8531 4.40002 21.4 4.40002H22.6C29.1469 4.40002 32.4203 4.40002 34.825 5.87362C36.1705 6.69818 37.3018 7.82948 38.1264 9.17504C39.6 11.5797 39.6 14.8532 39.6 21.4V22.6C39.6 29.1469 39.6 32.4203 38.1264 34.825C37.3018 36.1706 36.1705 37.3019 34.825 38.1264C32.4203 39.6 29.1469 39.6 22.6 39.6H21.4C14.8531 39.6 11.5797 39.6 9.17501 38.1264C7.82945 37.3019 6.69815 36.1706 5.87359 34.825C4.39999 32.4203 4.39999 29.1469 4.39999 22.6V21.4Z" stroke="#31F5CA" stroke-width="2"/>
</svg>
