<svg width="44" height="44" viewBox="0 0 44 44" fill="none" xmlns="http://www.w3.org/2000/svg">
  <path fill-rule="evenodd" clip-rule="evenodd" d="M4.39999 21.4C4.39999 14.8532 4.39999 11.5797 5.87359 9.17504C6.69815 7.82948 7.82945 6.69818 9.17501 5.87362C11.5797 4.40002 14.8531 4.40002 21.4 4.40002H22.6C29.1469 4.40002 32.4203 4.40002 34.825 5.87362C36.1705 6.69818 37.3018 7.82948 38.1264 9.17504C39.6 11.5797 39.6 14.8532 39.6 21.4V22.6C39.6 29.1469 39.6 32.4203 38.1264 34.825C37.3018 36.1706 36.1705 37.3019 34.825 38.1264C32.4203 39.6 29.1469 39.6 22.6 39.6H21.4C14.8531 39.6 11.5797 39.6 9.17501 38.1264C7.82945 37.3019 6.69815 36.1706 5.87359 34.825C4.39999 32.4203 4.39999 29.1469 4.39999 22.6V21.4Z" stroke="#31F5CA" stroke-width="2"/>
  <path opacity="0.5" fill-rule="evenodd" clip-rule="evenodd" d="M17.4576 22.61C16.6903 22.684 16.2175 23.523 16.6722 24.1456C19.5811 28.1282 23.0167 28.6178 25.8512 27.3048C24.8631 29.9982 22.276 31.92 19.24 31.92C15.3519 31.92 12.2 28.7681 12.2 24.88C12.2 20.9919 15.3519 17.84 19.24 17.84C19.8893 17.84 20.518 17.9279 21.115 18.0924C21.0756 18.1556 21.0373 18.2182 21 18.28C20.5024 19.106 20.3435 19.8328 20.2096 20.4456C19.9512 21.628 19.7857 22.3855 17.4576 22.61Z" fill="#31F5CA"/>
  <path fill-rule="evenodd" clip-rule="evenodd" d="M19.24 24.1016C22.3957 24.2552 21.6601 21.1209 22.5801 19.8991C23.555 18.6055 25.4457 18.3324 26.7529 19.2987C30.9889 22.4262 23.7956 28.7683 19.24 24.1016Z" fill="#31F5CA" fill-opacity="0.5" stroke="#31F5CA" stroke-width="1.4" stroke-linecap="round" stroke-linejoin="round"/>
  <path d="M28.0399 20.7569L32.4399 14.986" stroke="#31F5CA" stroke-width="1.4" stroke-linecap="round" stroke-linejoin="round"/>
  <path d="M29.3777 11.68L26.28 18.9095" stroke="#31F5CA" stroke-width="1.4" stroke-linecap="round" stroke-linejoin="round"/>
</svg>
