<svg width="44" height="44" viewBox="0 0 44 44" fill="none" xmlns="http://www.w3.org/2000/svg">
  <path fill-rule="evenodd" clip-rule="evenodd" d="M4.39999 21.4C4.39999 14.8532 4.39999 11.5797 5.87359 9.17504C6.69815 7.82948 7.82945 6.69818 9.17501 5.87362C11.5797 4.40002 14.8531 4.40002 21.4 4.40002H22.6C29.1469 4.40002 32.4203 4.40002 34.825 5.87362C36.1705 6.69818 37.3018 7.82948 38.1264 9.17504C39.6 11.5797 39.6 14.8532 39.6 21.4V22.6C39.6 29.1469 39.6 32.4203 38.1264 34.825C37.3018 36.1706 36.1705 37.3019 34.825 38.1264C32.4203 39.6 29.1469 39.6 22.6 39.6H21.4C14.8531 39.6 11.5797 39.6 9.17501 38.1264C7.82945 37.3019 6.69815 36.1706 5.87359 34.825C4.39999 32.4203 4.39999 29.1469 4.39999 22.6V21.4Z" stroke="#31F5CA" stroke-width="2"/>
  <path fill-rule="evenodd" clip-rule="evenodd" d="M14.448 14.6299C13.9409 14.6299 13.5298 15.041 13.5298 15.5481C13.5298 16.0552 13.9409 16.4663 14.448 16.4663H19.4084V28.4786C19.4084 28.9857 19.8195 29.3968 20.3266 29.3968C20.8337 29.3968 21.2448 28.9857 21.2448 28.4786V16.4663H25.6173C26.1244 16.4663 26.5355 16.0552 26.5355 15.5481C26.5355 15.041 26.1244 14.6299 25.6173 14.6299H14.448Z" fill="#31F5CA"/>
  <path fill-rule="evenodd" clip-rule="evenodd" d="M21.488 19.1633C20.9809 19.1633 20.5698 19.5744 20.5698 20.0815C20.5698 20.5886 20.9809 20.9997 21.488 20.9997H24.3855V28.5814C24.3855 29.0885 24.7966 29.4996 25.3037 29.4996C25.8108 29.4996 26.2219 29.0885 26.2219 28.5814V20.9997H29.4508C29.9579 20.9997 30.369 20.5886 30.369 20.0815C30.369 19.5744 29.9579 19.1633 29.4508 19.1633H21.488Z" fill="#31F5CA" fill-opacity="0.5"/>
</svg>
