<svg width="21" height="21" viewBox="0 0 21 21" fill="none" xmlns="http://www.w3.org/2000/svg">
<rect x="5" y="5.5" width="11" height="1.5" rx="0.75" fill="#F1F5F9"/>
<rect x="5" y="9.5" width="11" height="1.5" rx="0.75" fill="#F1F5F9"/>
<rect x="5" y="13.5" width="11" height="1.5" rx="0.75" fill="#F1F5F9"/>
<path d="M5.75 8.5C6.99264 8.5 8 7.49264 8 6.25C8 5.00736 6.99264 4 5.75 4C4.50736 4 3.5 5.00736 3.5 6.25C3.5 7.49264 4.50736 8.5 5.75 8.5Z" fill="#F1F5F9" stroke="#24C7BB"/>
<path d="M10.75 12.5C11.9926 12.5 13 11.4926 13 10.25C13 9.00736 11.9926 8 10.75 8C9.50736 8 8.5 9.00736 8.5 10.25C8.5 11.4926 9.50736 12.5 10.75 12.5Z" fill="#F1F5F9" stroke="#24C7BB"/>
<path d="M15.75 16.5C16.9926 16.5 18 15.4926 18 14.25C18 13.0074 16.9926 12 15.75 12C14.5074 12 13.5 13.0074 13.5 14.25C13.5 15.4926 14.5074 16.5 15.75 16.5Z" fill="#F1F5F9" stroke="#24C7BB"/>
</svg>
