<svg width="15" height="15" viewBox="0 0 15 15" fill="none" xmlns="http://www.w3.org/2000/svg">
<path d="M11.958 8.11589L14.5 10.2342V14C14.5 14.2761 14.2761 14.5 14 14.5H1C0.723858 14.5 0.5 14.2761 0.5 14V10.2342L3.04196 8.11589C3.13182 8.04101 3.24508 8 3.36205 8H11.6379C11.7549 8 11.8682 8.04101 11.958 8.11589Z" stroke="#FF2875" stroke-linejoin="round"/>
<path d="M8 2C8 1.72386 7.77614 1.5 7.5 1.5C7.22386 1.5 7 1.72386 7 2H8ZM7 4.5C7 4.77614 7.22386 5 7.5 5C7.77614 5 8 4.77614 8 4.5H7ZM11.9642 2.1857C12.0668 1.9293 11.9421 1.63832 11.6857 1.53576C11.4293 1.4332 11.1383 1.55791 11.0358 1.8143L11.9642 2.1857ZM10.0358 4.3143C9.93321 4.5707 10.0579 4.86168 10.3143 4.96424C10.5707 5.0668 10.8617 4.94209 10.9642 4.6857L10.0358 4.3143ZM3.96424 1.8143C3.86168 1.55791 3.5707 1.4332 3.3143 1.53576C3.05791 1.63832 2.9332 1.9293 3.03576 2.1857L3.96424 1.8143ZM4.03576 4.6857C4.13832 4.94209 4.4293 5.0668 4.6857 4.96424C4.94209 4.86168 5.06679 4.5707 4.96424 4.3143L4.03576 4.6857ZM7 2V4.5H8V2H7ZM11.0358 1.8143L10.0358 4.3143L10.9642 4.6857L11.9642 2.1857L11.0358 1.8143ZM3.03576 2.1857L4.03576 4.6857L4.96424 4.3143L3.96424 1.8143L3.03576 2.1857Z" fill="#FF2875"/>
</svg>
