<svg width="16" height="15" viewBox="0 0 16 15" fill="none" xmlns="http://www.w3.org/2000/svg">
<path d="M8.5 1C12.0899 1 15 3.91015 15 7.5C15 11.0899 12.0899 14 8.5 14C4.91015 14 2 11.0899 2 7.5C2 5.69113 2.73889 4.05483 3.93131 2.87646" stroke="#FFD600" stroke-linecap="round"/>
<circle cx="8.5" cy="7.5" r="2" fill="#FFD600"/>
<path d="M4 5.5L4.5 2L1 3.5L4 5.5Z" fill="#FFD600"/>
<path d="M4.5 2L4.99497 2.07071C5.02053 1.89182 4.94757 1.71306 4.80414 1.60314C4.66071 1.49322 4.46914 1.46924 4.30304 1.54043L4.5 2ZM4 5.5L3.72265 5.91603C3.86554 6.01128 4.04731 6.02655 4.20408 5.95645C4.36086 5.88636 4.47069 5.74071 4.49497 5.57071L4 5.5ZM1 3.5L0.80304 3.04043C0.634385 3.11271 0.51887 3.27156 0.502094 3.45429C0.485318 3.63701 0.569975 3.81424 0.72265 3.91603L1 3.5ZM4.00503 1.92929L3.50503 5.42929L4.49497 5.57071L4.99497 2.07071L4.00503 1.92929ZM4.30304 1.54043L0.80304 3.04043L1.19696 3.95957L4.69696 2.45957L4.30304 1.54043ZM0.72265 3.91603L3.72265 5.91603L4.27735 5.08397L1.27735 3.08397L0.72265 3.91603Z" fill="#FFD600"/>
</svg>
