<svg width="17" height="16" viewBox="0 0 17 16" fill="none" xmlns="http://www.w3.org/2000/svg">
<path d="M14.3188 11.6392L13.8868 11.3874C13.7955 11.5441 13.7962 11.738 13.8887 11.8941L14.3188 11.6392ZM11.2604 14.4763V13.9763C11.1847 13.9763 11.11 13.9935 11.0419 14.0266L11.2604 14.4763ZM16.0001 14.4763V14.9763C16.1797 14.9763 16.3456 14.8799 16.4345 14.7239C16.5235 14.5678 16.5218 14.376 16.4302 14.2214L16.0001 14.4763ZM14.7861 8.04758C14.7861 9.26611 14.4585 10.4066 13.8868 11.3874L14.7508 11.8909C15.4091 10.7614 15.7861 9.44776 15.7861 8.04758H14.7861ZM8.14304 1.40454C11.8119 1.40454 14.7861 4.37873 14.7861 8.04758H15.7861C15.7861 3.82645 12.3642 0.404541 8.14304 0.404541V1.40454ZM1.5 8.04758C1.5 4.37873 4.47419 1.40454 8.14304 1.40454V0.404541C3.92191 0.404541 0.5 3.82645 0.5 8.04758H1.5ZM8.14304 14.6906C4.47419 14.6906 1.5 11.7164 1.5 8.04758H0.5C0.5 12.2687 3.92191 15.6906 8.14304 15.6906V14.6906ZM11.0419 14.0266C10.1665 14.4518 9.18335 14.6906 8.14304 14.6906V15.6906C9.338 15.6906 10.4702 15.416 11.4788 14.9261L11.0419 14.0266ZM16.0001 13.9763H11.2604V14.9763H16.0001V13.9763ZM13.8887 11.8941L15.5699 14.7312L16.4302 14.2214L14.749 11.3843L13.8887 11.8941Z" fill="#91A9C0"/>
</svg>
