<svg width="20" height="20" viewBox="0 0 20 20" fill="none" xmlns="http://www.w3.org/2000/svg">
<path d="M3.91806 15.5941L4.57584 12.963C4.61585 12.803 4.63585 12.723 4.66802 12.6484C4.69658 12.5821 4.73222 12.5192 4.77432 12.4606C4.82174 12.3947 4.88006 12.3363 4.9967 12.2197L10.8054 6.41095L11.9699 7.57537C12.3659 7.97139 12.5639 8.1694 12.6381 8.39773C12.7033 8.59857 12.7033 8.81492 12.6381 9.01576C12.5639 9.24409 12.3659 9.4421 11.9699 9.83811L7.29249 14.5155C7.17585 14.6321 7.11753 14.6904 7.05156 14.7379C6.993 14.78 6.93005 14.8156 6.86382 14.8442C6.78922 14.8763 6.70921 14.8963 6.54918 14.9363L3.91806 15.5941Z" fill="black" fill-opacity="0.08"/>
<path d="M3.91806 15.5941L3.19045 15.4122C3.12656 15.6678 3.20144 15.9382 3.38773 16.1245C3.57402 16.3107 3.84438 16.3856 4.09996 16.3217L3.91806 15.5941ZM10.8054 6.41095L11.3358 5.88062C11.0429 5.58773 10.568 5.58773 10.2751 5.88062L10.8054 6.41095ZM7.29249 14.5155L7.82282 15.0458L7.29249 14.5155ZM7.05156 14.7379L7.48934 15.3468L7.05156 14.7379ZM6.54918 14.9363L6.73108 15.664L6.54918 14.9363ZM6.86382 14.8442L6.56686 14.1555L6.86382 14.8442ZM12.6381 8.39773L13.3514 8.16596L12.6381 8.39773ZM11.9699 9.83811L11.4395 9.30778L11.9699 9.83811ZM12.6381 9.01576L11.9248 8.784L12.6381 9.01576ZM4.66802 12.6484L5.35672 12.9453L4.66802 12.6484ZM4.9967 12.2197L4.46637 11.6894L4.9967 12.2197ZM4.77432 12.4606L5.3833 12.8984L4.77432 12.4606ZM4.64567 15.776L5.30345 13.1449L3.84823 12.7811L3.19045 15.4122L4.64567 15.776ZM5.52703 12.75L11.3358 6.94128L10.2751 5.88062L4.46637 11.6894L5.52703 12.75ZM10.2751 6.94128L11.4395 8.1057L12.5002 7.04504L11.3358 5.88062L10.2751 6.94128ZM11.4395 9.30778L6.76216 13.9852L7.82282 15.0458L12.5002 10.3684L11.4395 9.30778ZM6.36727 14.2087L3.73616 14.8665L4.09996 16.3217L6.73108 15.664L6.36727 14.2087ZM6.76216 13.9852C6.70064 14.0467 6.66659 14.0806 6.63992 14.1056C6.61683 14.1273 6.6116 14.1305 6.61379 14.1289L7.48934 15.3468C7.61613 15.2557 7.72284 15.1458 7.82282 15.0458L6.76216 13.9852ZM6.73108 15.664C6.86825 15.6297 7.0174 15.5947 7.16079 15.5329L6.56686 14.1555C6.56933 14.1544 6.56391 14.1572 6.53347 14.1659C6.49829 14.1759 6.45167 14.1876 6.36727 14.2087L6.73108 15.664ZM6.61379 14.1289C6.59915 14.1394 6.58342 14.1483 6.56686 14.1555L7.16079 15.5329C7.27669 15.4829 7.38685 15.4205 7.48934 15.3468L6.61379 14.1289ZM11.4395 8.1057C11.6463 8.31246 11.7691 8.43605 11.8529 8.53482C11.9311 8.62689 11.9305 8.64699 11.9248 8.62949L13.3514 8.16596C13.2715 7.92014 13.1348 7.72707 12.9964 7.56405C12.8637 7.40773 12.6895 7.2343 12.5002 7.04504L11.4395 8.1057ZM12.5002 10.3684C12.6895 10.1792 12.8637 10.0058 12.9964 9.84944C13.1348 9.68642 13.2715 9.49335 13.3514 9.24752L11.9248 8.784C11.9305 8.7665 11.9311 8.7866 11.8529 8.87867C11.7691 8.97744 11.6463 9.10102 11.4395 9.30778L12.5002 10.3684ZM11.9248 8.62949C11.9411 8.6797 11.9411 8.73379 11.9248 8.784L13.3514 9.24752C13.4656 8.89605 13.4656 8.51744 13.3514 8.16596L11.9248 8.62949ZM5.30345 13.1449C5.32455 13.0605 5.33629 13.0139 5.34629 12.9787C5.35494 12.9483 5.35779 12.9429 5.35672 12.9453L3.97931 12.3514C3.91749 12.4948 3.88252 12.6439 3.84823 12.7811L5.30345 13.1449ZM4.46637 11.6894C4.36639 11.7893 4.25648 11.8961 4.16534 12.0228L5.3833 12.8984C5.38172 12.9006 5.3849 12.8954 5.40656 12.8723C5.43158 12.8456 5.46551 12.8115 5.52703 12.75L4.46637 11.6894ZM5.35672 12.9453C5.36386 12.9288 5.37277 12.913 5.3833 12.8984L4.16534 12.0228C4.09166 12.1253 4.02929 12.2355 3.97931 12.3514L5.35672 12.9453Z" fill="#5E656E"/>
<path d="M11.9534 7.55884L13.5004 9.10589C13.8964 9.50191 14.0945 9.69992 14.1686 9.92825C14.2339 10.1291 14.2339 10.3454 14.1686 10.5463C14.0945 10.7746 13.8964 10.9726 13.5004 11.3686L11.5707 13.2983" stroke="#5E656E" stroke-width="1.5" stroke-linecap="round" stroke-linejoin="round"/>
<path d="M12.5737 4.87935C13.1706 4.28254 14.1382 4.28254 14.735 4.87935C15.3318 5.47616 15.3318 6.44377 14.735 7.04058L14.7228 7.05279L12.5615 4.89156L12.5737 4.87935Z" fill="#5E656E" stroke="#5E656E" stroke-width="1.5" stroke-linecap="round"/>
</svg>
