<svg width="20" height="20" viewBox="0 0 20 20" fill="none" xmlns="http://www.w3.org/2000/svg">
<path d="M8 3L6 4.5L4.5 5L3 6.5L3.5 9L3 11L3.5 13.5L4.5 16.5L7 17L10 15.5L13.5 17L16 16V13.5L17 12.5L16.5 9.5L17 6.5L16 5L13.5 4.5L13 3.5L11.5 3L10 4L8 3Z" fill="black" fill-opacity="0.08"/>
<path d="M6.18212 10.6357C5.33817 10.6357 4.52878 10.3005 3.93202 9.70371C3.33526 9.10695 3 8.29757 3 7.45362C3 6.60966 3.33526 5.80028 3.93202 5.20352C4.52878 4.60675 5.33817 4.2715 6.18212 4.2715C6.22094 4.2715 6.25722 4.28168 6.2954 4.28295C6.44258 3.85686 6.7361 3.49677 7.12377 3.26672C7.51144 3.03666 7.96815 2.95156 8.41266 3.02654C8.85718 3.10151 9.26069 3.33171 9.55146 3.6762C9.84223 4.02068 10.0014 4.45713 10.0007 4.90792V5.54434C10.0007 6.05071 9.79951 6.53634 9.44145 6.8944C9.08339 7.25246 8.59776 7.45362 8.09139 7.45362H7.45497" stroke="#5E656E" stroke-width="1.5" stroke-linecap="round" stroke-linejoin="round"/>
<path d="M16.2645 13.0619C16.3285 13.3089 16.3623 13.5628 16.365 13.8179C16.365 14.6619 16.0298 15.4713 15.433 16.068C14.8362 16.6648 14.0268 17 13.1829 17C12.3389 17 11.5296 16.6648 10.9328 16.068C10.336 15.4713 10.0008 14.6619 10.0008 13.8179C10.0008 14.6619 9.66552 15.4713 9.06875 16.068C8.47199 16.6648 7.66261 17 6.81866 17C5.9747 17 5.16532 16.6648 4.56856 16.068C3.97179 15.4713 3.63654 14.6619 3.63654 13.8179C3.63929 13.5628 3.67306 13.3089 3.73709 13.0619" stroke="#5E656E" stroke-width="1.5" stroke-linecap="round" stroke-linejoin="round"/>
<path d="M3.74856 9.48132C3.51142 9.7154 3.32315 9.99425 3.19467 10.3017C3.06619 10.6091 3.00006 10.939 3.00012 11.2722C3.00012 11.9474 3.26833 12.5949 3.74574 13.0723C4.22315 13.5497 4.87066 13.8179 5.54582 13.8179H6.18224" stroke="#5E656E" stroke-width="1.5" stroke-linecap="round" stroke-linejoin="round"/>
<path d="M6.81867 8.09008C7.17016 8.09008 7.4551 7.80514 7.4551 7.45365C7.4551 7.10217 7.17016 6.81723 6.81867 6.81723C6.46719 6.81723 6.18225 7.10217 6.18225 7.45365C6.18225 7.80514 6.46719 8.09008 6.81867 8.09008Z" fill="#5E656E" stroke="#5E656E" stroke-width="1.5" stroke-linecap="round" stroke-linejoin="round"/>
<path d="M6.81867 14.4543C7.17016 14.4543 7.4551 14.1694 7.4551 13.8179C7.4551 13.4664 7.17016 13.1815 6.81867 13.1815C6.46719 13.1815 6.18225 13.4664 6.18225 13.8179C6.18225 14.1694 6.46719 14.4543 6.81867 14.4543Z" fill="#5E656E" stroke="#5E656E" stroke-width="1.5" stroke-linecap="round" stroke-linejoin="round"/>
<path d="M16.253 9.48132C16.4901 9.7154 16.6784 9.99425 16.8068 10.3017C16.9353 10.6091 17.0015 10.939 17.0014 11.2722C17.0014 11.9474 16.7332 12.5949 16.2558 13.0723C15.7784 13.5497 15.1309 13.8179 14.4557 13.8179H13.8193" stroke="#5E656E" stroke-width="1.5" stroke-linecap="round" stroke-linejoin="round"/>
<path d="M10.0008 13.8179V11.2722" stroke="#5E656E" stroke-width="1.5" stroke-linecap="round" stroke-linejoin="round"/>
<path d="M13.1829 14.4543C13.5344 14.4543 13.8194 14.1694 13.8194 13.8179C13.8194 13.4664 13.5344 13.1815 13.1829 13.1815C12.8314 13.1815 12.5465 13.4664 12.5465 13.8179C12.5465 14.1694 12.8314 14.4543 13.1829 14.4543Z" fill="#5E656E" stroke="#5E656E" stroke-width="1.5" stroke-linecap="round" stroke-linejoin="round"/>
<path d="M13.8193 10.6357C14.6633 10.6357 15.4727 10.3005 16.0694 9.70371C16.6662 9.10695 17.0015 8.29757 17.0015 7.45362C17.0015 6.60966 16.6662 5.80028 16.0694 5.20352C15.4727 4.60675 14.6633 4.2715 13.8193 4.2715C13.7805 4.2715 13.7442 4.28168 13.7061 4.28295C13.5589 3.85686 13.2654 3.49677 12.8777 3.26672C12.49 3.03666 12.0333 2.95156 11.5888 3.02654C11.1443 3.10151 10.7408 3.33171 10.45 3.6762C10.1592 4.02068 10.0001 4.45713 10.0008 4.90792V5.54434C10.0008 6.05071 10.202 6.53634 10.56 6.8944C10.9181 7.25246 11.4037 7.45362 11.9101 7.45362H12.5465" stroke="#5E656E" stroke-width="1.5" stroke-linecap="round" stroke-linejoin="round"/>
<path d="M13.1829 8.09008C13.5344 8.09008 13.8194 7.80514 13.8194 7.45365C13.8194 7.10217 13.5344 6.81723 13.1829 6.81723C12.8314 6.81723 12.5465 7.10217 12.5465 7.45365C12.5465 7.80514 12.8314 8.09008 13.1829 8.09008Z" fill="#5E656E" stroke="#5E656E" stroke-width="1.5" stroke-linecap="round" stroke-linejoin="round"/>
<path d="M10.0008 11.2722C10.3523 11.2722 10.6372 10.9873 10.6372 10.6358C10.6372 10.2843 10.3523 9.99936 10.0008 9.99936C9.64932 9.99936 9.36438 10.2843 9.36438 10.6358C9.36438 10.9873 9.64932 11.2722 10.0008 11.2722Z" fill="#5E656E" stroke="#5E656E" stroke-width="1.5" stroke-linecap="round" stroke-linejoin="round"/>
</svg>
