<svg width="100" height="66" viewBox="0 0 100 66" fill="none" xmlns="http://www.w3.org/2000/svg">
<path d="M58.5952 62H1.65932C-7.83 33.4157 26.179 33.4043 32.9741 31.7978C39.9407 30.1507 77.5739 30.1798 79.4717 24.2472C80.99 19.5011 77.8468 16.9382 75 15.5L75.676 14C81.3696 16.1573 93.5159 22.4135 96.5525 30.1798C100.348 39.8876 79.4717 35.573 53.8506 42.0449C33.3536 47.2225 48.4733 57.5056 58.5952 62Z" fill="#DAE4ED"/>
<path d="M80.7132 3.55334C81.4517 2.08468 83.5483 2.08468 84.2868 3.55334L92.7338 20.3515C93.4026 21.6816 92.4358 23.25 90.947 23.25H74.053C72.5642 23.25 71.5974 21.6816 72.2662 20.3515L80.7132 3.55334Z" fill="#DAE4ED"/>
<path d="M80.9093 13.0874C81.7097 12.037 83.2903 12.037 84.0907 13.0873L91.1493 22.3496C91.2256 22.4497 91.2922 22.5566 91.3483 22.6692L95.5572 31.1073C96.2204 32.437 95.2534 34 93.7674 34H71.2326C69.7466 34 68.7796 32.437 69.4428 31.1073L73.6517 22.6692C73.7078 22.5566 73.7744 22.4497 73.8507 22.3496L80.9093 13.0874Z" fill="#DAE4ED"/>
<path d="M81.1019 23.3667C81.8791 22.6069 83.1209 22.6069 83.8981 23.3667L94.0228 33.2643C94.1824 33.4203 94.3148 33.602 94.4144 33.8018L98.5572 42.1073C99.2204 43.437 98.2534 45 96.7674 45H68.2326C66.7466 45 65.7796 43.437 66.4428 42.1073L70.5856 33.8018C70.6852 33.602 70.8176 33.4203 70.9772 33.2643L81.1019 23.3667Z" fill="#DAE4ED"/>
<rect x="80" y="41" width="5" height="12" rx="2" fill="#DAE4ED"/>
<path d="M66.7132 8.55334C67.4517 7.08468 69.5483 7.08468 70.2868 8.55334L78.7338 25.3515C79.4026 26.6816 78.4358 28.25 76.947 28.25H60.053C58.5642 28.25 57.5974 26.6816 58.2662 25.3515L66.7132 8.55334Z" fill="#E3EAF2"/>
<path d="M66.9093 18.0874C67.7097 17.037 69.2903 17.037 70.0907 18.0873L77.1493 27.3496C77.2256 27.4497 77.2922 27.5566 77.3483 27.6692L81.5572 36.1073C82.2204 37.437 81.2534 39 79.7674 39H57.2326C55.7466 39 54.7796 37.437 55.4428 36.1073L59.6517 27.6692C59.7078 27.5566 59.7744 27.4497 59.8507 27.3496L66.9093 18.0874Z" fill="#E3EAF2"/>
<path d="M67.1019 28.3667C67.8791 27.6069 69.1209 27.6069 69.8981 28.3667L80.0228 38.2643C80.1824 38.4203 80.3148 38.602 80.4144 38.8018L84.5572 47.1073C85.2204 48.437 84.2534 50 82.7674 50H54.2326C52.7466 50 51.7796 48.437 52.4428 47.1073L56.5856 38.8018C56.6852 38.602 56.8176 38.4203 56.9772 38.2643L67.1019 28.3667Z" fill="#E3EAF2"/>
<rect x="66" y="46" width="5" height="12" rx="2" fill="#E3EAF2"/>
<path d="M33.5762 57.8013V56.1538H29.3916V57.8013C29.403 60.716 33.5762 60.7503 33.5762 57.8013Z" fill="#F1F5F9"/>
<path d="M14.3891 57.8013V56.1538H10.2217V57.8013C10.216 60.7503 14.3891 60.716 14.3891 57.8013Z" fill="#F1F5F9"/>
<path d="M35.8021 52.7211V46.9433C35.7963 44.9297 34.1917 43.8656 33.2793 43.7484L30.9996 37.8647C30.5735 36.7378 29.641 35.7796 27.879 35.771H24.6669H19.1752H15.903C14.1496 35.7796 13.2172 36.7378 12.7824 37.8647L10.5028 43.7484C9.59891 43.8656 7.99714 44.9297 8 46.9433V52.7211C8 53.6679 8.76942 54.4373 9.71618 54.4373H34.0859C35.0326 54.4373 35.8021 53.6707 35.8021 52.7211ZM12.6623 50.2012C12.6594 50.2012 12.6594 50.2012 12.6566 50.2012C12.6537 50.2012 12.6537 50.2012 12.6508 50.2012C11.5868 50.2012 10.7287 49.3145 10.7316 48.2219C10.7259 47.1264 11.5811 46.2397 12.6394 46.2397C12.6451 46.2397 12.6508 46.2397 12.6566 46.2397C12.6623 46.2397 12.668 46.2397 12.6737 46.2397C13.7292 46.2397 14.5844 47.1264 14.5815 48.2219C14.5844 49.3145 13.7235 50.2012 12.6623 50.2012ZM21.901 43.694H21.881H14.7474C14.1182 43.694 13.692 43.0533 13.938 42.4727L15.1393 39.6324C15.3195 39.1833 15.6685 38.5026 16.4293 38.4911H27.347C28.0964 38.5026 28.2852 38.923 28.637 39.6324L29.8383 42.4727C30.0843 43.0533 29.6581 43.694 29.0289 43.694H21.901ZM31.0053 50.3442C31.0025 50.3442 31.0025 50.3442 30.9996 50.3442C30.9968 50.3442 30.9968 50.3442 30.9939 50.3442C29.9242 50.3442 29.0632 49.4575 29.0575 48.3649C29.0632 47.2694 29.9185 46.3827 30.9853 46.3827C30.991 46.3827 30.9968 46.3827 31.0025 46.3827C31.0083 46.3827 31.0139 46.3827 31.0197 46.3827C32.0666 46.3827 32.9218 47.2694 32.9275 48.3649C32.9189 49.4575 32.0579 50.3442 31.0053 50.3442Z" fill="#F1F5F9"/>
<rect x="55" y="30.9897" width="28" height="12" rx="3" fill="#00D9C9"/>
<g filter="url(#filter0_d)">
<path d="M61.44 34.9297H59.12V33.8697H65.07V34.9297H62.74V40.9897H61.44V34.9297ZM67.8004 35.8197C67.9937 35.8197 68.1604 35.8464 68.3004 35.8997L68.2904 37.0397C68.0771 36.9531 67.8571 36.9097 67.6304 36.9097C67.2037 36.9097 66.8771 37.0331 66.6504 37.2797C66.4304 37.5264 66.3204 37.8531 66.3204 38.2597V40.9897H65.0804V37.3697C65.0804 36.8364 65.0537 36.3597 65.0004 35.9397H66.1704L66.2704 36.8297C66.3971 36.5031 66.5971 36.2531 66.8704 36.0797C67.1437 35.9064 67.4537 35.8197 67.8004 35.8197ZM73.3188 38.5297H69.8388C69.8654 39.0697 69.9988 39.4697 70.2388 39.7297C70.4854 39.9831 70.8488 40.1097 71.3288 40.1097C71.8821 40.1097 72.3954 39.9297 72.8688 39.5697L73.2288 40.4297C72.9888 40.6231 72.6921 40.7797 72.3388 40.8997C71.9921 41.0131 71.6388 41.0697 71.2788 41.0697C70.4521 41.0697 69.8021 40.8364 69.3288 40.3697C68.8554 39.9031 68.6188 39.2631 68.6188 38.4497C68.6188 37.9364 68.7221 37.4797 68.9288 37.0797C69.1354 36.6797 69.4254 36.3697 69.7988 36.1497C70.1721 35.9231 70.5954 35.8097 71.0688 35.8097C71.7621 35.8097 72.3088 36.0364 72.7088 36.4897C73.1154 36.9364 73.3188 37.5531 73.3188 38.3397V38.5297ZM71.0988 36.7097C70.7654 36.7097 70.4921 36.8097 70.2788 37.0097C70.0721 37.2031 69.9388 37.4864 69.8788 37.8597H72.2288C72.1888 37.4797 72.0721 37.1931 71.8788 36.9997C71.6921 36.8064 71.4321 36.7097 71.0988 36.7097ZM78.7973 38.5297H75.3173C75.3439 39.0697 75.4773 39.4697 75.7173 39.7297C75.9639 39.9831 76.3273 40.1097 76.8073 40.1097C77.3606 40.1097 77.8739 39.9297 78.3473 39.5697L78.7073 40.4297C78.4673 40.6231 78.1706 40.7797 77.8173 40.8997C77.4706 41.0131 77.1173 41.0697 76.7573 41.0697C75.9306 41.0697 75.2806 40.8364 74.8073 40.3697C74.3339 39.9031 74.0973 39.2631 74.0973 38.4497C74.0973 37.9364 74.2006 37.4797 74.4073 37.0797C74.6139 36.6797 74.9039 36.3697 75.2773 36.1497C75.6506 35.9231 76.0739 35.8097 76.5473 35.8097C77.2406 35.8097 77.7873 36.0364 78.1873 36.4897C78.5939 36.9364 78.7973 37.5531 78.7973 38.3397V38.5297ZM76.5773 36.7097C76.2439 36.7097 75.9706 36.8097 75.7573 37.0097C75.5506 37.2031 75.4173 37.4864 75.3573 37.8597H77.7073C77.6673 37.4797 77.5506 37.1931 77.3573 36.9997C77.1706 36.8064 76.9106 36.7097 76.5773 36.7097Z" fill="white"/>
</g>
<mask id="path-15-inside-1" fill="white">
<path fill-rule="evenodd" clip-rule="evenodd" d="M70.5735 9.04508C69.8019 7.7213 67.8893 7.7213 67.1177 9.04508L57.0671 26.288C56.3763 27.473 57.0592 28.9271 58.3032 29.2358L53.7981 37.0277C53.1232 38.1951 53.7768 39.6189 54.9836 39.9552L50.3262 48.0105C49.5553 49.3438 50.5175 51.0116 52.0577 51.0116H65.9515V56.9999C65.9515 58.1044 66.8469 58.9999 67.9515 58.9999H69.7384C70.843 58.9999 71.7384 58.1044 71.7384 56.9999V51.0116H85.6329C87.1731 51.0116 88.1353 49.3438 87.3644 48.0105L82.7069 39.955C83.9135 39.6185 84.5668 38.195 83.892 37.0277L79.387 29.2361C80.6316 28.9278 81.315 27.4733 80.6241 26.288L70.5735 9.04508Z"/>
</mask>
<path fill-rule="evenodd" clip-rule="evenodd" d="M70.5735 9.04508C69.8019 7.7213 67.8893 7.7213 67.1177 9.04508L57.0671 26.288C56.3763 27.473 57.0592 28.9271 58.3032 29.2358L53.7981 37.0277C53.1232 38.1951 53.7768 39.6189 54.9836 39.9552L50.3262 48.0105C49.5553 49.3438 50.5175 51.0116 52.0577 51.0116H65.9515V56.9999C65.9515 58.1044 66.8469 58.9999 67.9515 58.9999H69.7384C70.843 58.9999 71.7384 58.1044 71.7384 56.9999V51.0116H85.6329C87.1731 51.0116 88.1353 49.3438 87.3644 48.0105L82.7069 39.955C83.9135 39.6185 84.5668 38.195 83.892 37.0277L79.387 29.2361C80.6316 28.9278 81.315 27.4733 80.6241 26.288L70.5735 9.04508Z" fill="#5EEBDC" fill-opacity="0.2"/>
<path d="M67.1177 9.04508L66.2537 8.5415L66.2537 8.5415L67.1177 9.04508ZM70.5735 9.04508L71.4374 8.5415L71.4374 8.5415L70.5735 9.04508ZM57.0671 26.288L57.931 26.7916L57.931 26.7916L57.0671 26.288ZM58.3032 29.2358L59.1689 29.7364L59.8343 28.5855L58.5441 28.2653L58.3032 29.2358ZM53.7981 37.0277L54.6638 37.5283L54.6638 37.5283L53.7981 37.0277ZM54.9836 39.9552L55.8493 40.4557L56.4954 39.3383L55.252 38.9919L54.9836 39.9552ZM50.3262 48.0105L51.192 48.511L51.192 48.511L50.3262 48.0105ZM65.9515 51.0116H66.9515V50.0116H65.9515V51.0116ZM71.7384 51.0116V50.0116H70.7384V51.0116H71.7384ZM87.3644 48.0105L88.2301 47.51L88.2301 47.51L87.3644 48.0105ZM82.7069 39.955L82.4383 38.9918L81.1953 39.3385L81.8412 40.4556L82.7069 39.955ZM83.892 37.0277L83.0262 37.5283L83.0262 37.5283L83.892 37.0277ZM79.387 29.2361L79.1466 28.2654L77.8556 28.5852L78.5213 29.7366L79.387 29.2361ZM80.6241 26.288L81.4881 25.7844L81.4881 25.7844L80.6241 26.288ZM67.9816 9.54867C68.3674 8.88677 69.3237 8.88677 69.7095 9.54866L71.4374 8.5415C70.28 6.55583 67.4112 6.55583 66.2537 8.5415L67.9816 9.54867ZM57.931 26.7916L67.9816 9.54867L66.2537 8.5415L56.2031 25.7844L57.931 26.7916ZM58.5441 28.2653C57.9231 28.1111 57.5887 27.3789 57.931 26.7916L56.2031 25.7844C55.164 27.5672 56.1954 29.743 58.0623 30.2064L58.5441 28.2653ZM54.6638 37.5283L59.1689 29.7364L57.4375 28.7353L52.9324 36.5272L54.6638 37.5283ZM55.252 38.9919C54.6486 38.8237 54.3296 38.1064 54.6638 37.5283L52.9324 36.5272C51.9167 38.2839 52.905 40.414 54.7152 40.9185L55.252 38.9919ZM51.192 48.511L55.8493 40.4557L54.1179 39.4546L49.4605 47.51L51.192 48.511ZM52.0577 50.0116C51.2876 50.0116 50.8065 49.1777 51.192 48.511L49.4605 47.51C48.3042 49.51 49.7474 52.0116 52.0577 52.0116V50.0116ZM65.9515 50.0116H52.0577V52.0116H65.9515V50.0116ZM66.9515 56.9999V51.0116H64.9515V56.9999H66.9515ZM67.9515 57.9999C67.3992 57.9999 66.9515 57.5522 66.9515 56.9999H64.9515C64.9515 58.6567 66.2946 59.9999 67.9515 59.9999V57.9999ZM69.7384 57.9999H67.9515V59.9999H69.7384V57.9999ZM70.7384 56.9999C70.7384 57.5522 70.2907 57.9999 69.7384 57.9999V59.9999C71.3952 59.9999 72.7384 58.6567 72.7384 56.9999H70.7384ZM70.7384 51.0116V56.9999H72.7384V51.0116H70.7384ZM85.6329 50.0116H71.7384V52.0116H85.6329V50.0116ZM86.4986 48.511C86.8841 49.1777 86.403 50.0116 85.6329 50.0116V52.0116C87.9432 52.0116 89.3864 49.51 88.2301 47.51L86.4986 48.511ZM81.8412 40.4556L86.4986 48.511L88.2301 47.51L83.5726 39.4545L81.8412 40.4556ZM83.0262 37.5283C83.3604 38.1063 83.0416 38.8235 82.4383 38.9918L82.9756 40.9183C84.7854 40.4135 85.7732 38.2837 84.7577 36.5272L83.0262 37.5283ZM78.5213 29.7366L83.0262 37.5283L84.7577 36.5272L80.2528 28.7355L78.5213 29.7366ZM79.7602 26.7916C80.1026 27.3791 79.7679 28.1115 79.1466 28.2654L79.6275 30.2067C81.4953 29.7441 82.5274 27.5676 81.4881 25.7844L79.7602 26.7916ZM69.7095 9.54866L79.7602 26.7916L81.4881 25.7844L71.4374 8.5415L69.7095 9.54866Z" fill="#00D9C9" mask="url(#path-15-inside-1)"/>
<rect x="44.5" y="4.5" width="47" height="61" stroke="#91A9C0" stroke-miterlimit="16" stroke-dasharray="5 5"/>
<defs>
<filter id="filter0_d" x="57.1201" y="32.8696" width="23.6773" height="11.2" filterUnits="userSpaceOnUse" color-interpolation-filters="sRGB">
<feFlood flood-opacity="0" result="BackgroundImageFix"/>
<feColorMatrix in="SourceAlpha" type="matrix" values="0 0 0 0 0 0 0 0 0 0 0 0 0 0 0 0 0 0 127 0"/>
<feOffset dy="1"/>
<feGaussianBlur stdDeviation="1"/>
<feColorMatrix type="matrix" values="0 0 0 0 0 0 0 0 0 0 0 0 0 0 0 0 0 0 0.25 0"/>
<feBlend mode="normal" in2="BackgroundImageFix" result="effect1_dropShadow"/>
<feBlend mode="normal" in="SourceGraphic" in2="effect1_dropShadow" result="shape"/>
</filter>
</defs>
</svg>
