<svg width="101" height="67" viewBox="0 0 101 67" fill="none" xmlns="http://www.w3.org/2000/svg">
<path d="M59.5952 67H2.65932C-6.83 38.4157 27.179 38.4043 33.9741 36.7978C40.9407 35.1507 78.5739 35.1798 80.4717 29.2472C81.99 24.5011 78.8468 21.9382 76 20.5L76.676 19C82.3696 21.1573 94.5159 27.4135 97.5525 35.1798C101.348 44.8876 80.4717 40.573 54.8506 47.0449C34.3536 52.2225 49.4733 62.5056 59.5952 67Z" fill="#DAE4ED"/>
<path d="M81.7132 8.55334C82.4517 7.08468 84.5483 7.08468 85.2868 8.55334L93.7338 25.3515C94.4026 26.6816 93.4358 28.25 91.947 28.25H75.053C73.5642 28.25 72.5974 26.6816 73.2662 25.3515L81.7132 8.55334Z" fill="#DAE4ED"/>
<path d="M81.9093 18.0874C82.7097 17.037 84.2903 17.037 85.0907 18.0873L92.1493 27.3496C92.2256 27.4497 92.2922 27.5566 92.3483 27.6692L96.5572 36.1073C97.2204 37.437 96.2534 39 94.7674 39H72.2326C70.7466 39 69.7796 37.437 70.4428 36.1073L74.6517 27.6692C74.7078 27.5566 74.7744 27.4497 74.8507 27.3496L81.9093 18.0874Z" fill="#DAE4ED"/>
<path d="M82.1019 28.3667C82.8791 27.6069 84.1209 27.6069 84.8981 28.3667L95.0228 38.2643C95.1824 38.4203 95.3148 38.602 95.4144 38.8018L99.5572 47.1073C100.22 48.437 99.2534 50 97.7674 50H69.2326C67.7466 50 66.7796 48.437 67.4428 47.1073L71.5856 38.8018C71.6852 38.602 71.8176 38.4203 71.9772 38.2643L82.1019 28.3667Z" fill="#DAE4ED"/>
<rect x="81" y="46" width="5" height="12" rx="2" fill="#DAE4ED"/>
<path d="M67.7132 13.5533C68.4517 12.0847 70.5483 12.0847 71.2868 13.5533L79.7338 30.3515C80.4026 31.6816 79.4358 33.25 77.947 33.25H61.053C59.5642 33.25 58.5974 31.6816 59.2662 30.3515L67.7132 13.5533Z" fill="#E3EAF2"/>
<path d="M67.9093 23.0874C68.7097 22.037 70.2903 22.037 71.0907 23.0873L78.1493 32.3496C78.2256 32.4497 78.2922 32.5566 78.3483 32.6692L82.5572 41.1073C83.2204 42.437 82.2534 44 80.7674 44H58.2326C56.7466 44 55.7796 42.437 56.4428 41.1073L60.6517 32.6692C60.7078 32.5566 60.7744 32.4497 60.8507 32.3496L67.9093 23.0874Z" fill="#E3EAF2"/>
<path d="M68.1019 33.3667C68.8791 32.6069 70.1209 32.6069 70.8981 33.3667L81.0228 43.2643C81.1824 43.4203 81.3148 43.602 81.4144 43.8018L85.5572 52.1073C86.2204 53.437 85.2534 55 83.7674 55H55.2326C53.7466 55 52.7796 53.437 53.4428 52.1073L57.5856 43.8018C57.6852 43.602 57.8176 43.4203 57.9772 43.2643L68.1019 33.3667Z" fill="#E3EAF2"/>
<rect x="67" y="51" width="5" height="12" rx="2" fill="#E3EAF2"/>
<path d="M34.5762 62.8013V61.1538H30.3916V62.8013C30.403 65.716 34.5762 65.7503 34.5762 62.8013Z" fill="#F1F5F9"/>
<path d="M15.3891 62.8013V61.1538H11.2217V62.8013C11.216 65.7503 15.3891 65.716 15.3891 62.8013Z" fill="#F1F5F9"/>
<path d="M36.8021 57.7211V51.9433C36.7963 49.9297 35.1917 48.8656 34.2793 48.7484L31.9996 42.8647C31.5735 41.7378 30.641 40.7796 28.879 40.771H25.6669H20.1752H16.903C15.1496 40.7796 14.2172 41.7378 13.7824 42.8647L11.5028 48.7484C10.5989 48.8656 8.99714 49.9297 9 51.9433V57.7211C9 58.6679 9.76942 59.4373 10.7162 59.4373H35.0859C36.0326 59.4373 36.8021 58.6707 36.8021 57.7211ZM13.6623 55.2012C13.6594 55.2012 13.6594 55.2012 13.6566 55.2012C13.6537 55.2012 13.6537 55.2012 13.6508 55.2012C12.5868 55.2012 11.7287 54.3145 11.7316 53.2219C11.7259 52.1264 12.5811 51.2397 13.6394 51.2397C13.6451 51.2397 13.6508 51.2397 13.6566 51.2397C13.6623 51.2397 13.668 51.2397 13.6737 51.2397C14.7292 51.2397 15.5844 52.1264 15.5815 53.2219C15.5844 54.3145 14.7235 55.2012 13.6623 55.2012ZM22.901 48.694H22.881H15.7474C15.1182 48.694 14.692 48.0533 14.938 47.4727L16.1393 44.6324C16.3195 44.1833 16.6685 43.5026 17.4293 43.4911H28.347C29.0964 43.5026 29.2852 43.923 29.637 44.6324L30.8383 47.4727C31.0843 48.0533 30.6581 48.694 30.0289 48.694H22.901ZM32.0053 55.3442C32.0025 55.3442 32.0025 55.3442 31.9996 55.3442C31.9968 55.3442 31.9968 55.3442 31.9939 55.3442C30.9242 55.3442 30.0632 54.4575 30.0575 53.3649C30.0632 52.2694 30.9185 51.3827 31.9853 51.3827C31.991 51.3827 31.9968 51.3827 32.0025 51.3827C32.0083 51.3827 32.0139 51.3827 32.0197 51.3827C33.0666 51.3827 33.9218 52.2694 33.9275 53.3649C33.9189 54.4575 33.0579 55.3442 32.0053 55.3442Z" fill="#F1F5F9"/>
<path d="M26.776 4.304L24.76 10H23.92L22.488 5.904L21.04 10H20.2L18.192 4.304H19.24L20.664 8.552L22.144 4.304H22.88L24.328 8.584L25.784 4.304H26.776ZM28.8682 10.064C28.4575 10.064 28.0949 9.97867 27.7802 9.808C27.4709 9.63733 27.2309 9.39467 27.0602 9.08C26.8949 8.76 26.8122 8.38667 26.8122 7.96C26.8122 7.53333 26.8949 7.16267 27.0602 6.848C27.2309 6.528 27.4709 6.28267 27.7802 6.112C28.0949 5.94133 28.4575 5.856 28.8682 5.856C29.2735 5.856 29.6309 5.94133 29.9402 6.112C30.2495 6.28267 30.4869 6.528 30.6522 6.848C30.8229 7.16267 30.9082 7.53333 30.9082 7.96C30.9082 8.38667 30.8229 8.76 30.6522 9.08C30.4869 9.39467 30.2495 9.63733 29.9402 9.808C29.6309 9.97867 29.2735 10.064 28.8682 10.064ZM28.8602 9.28C29.2015 9.28 29.4602 9.17067 29.6362 8.952C29.8175 8.728 29.9082 8.39733 29.9082 7.96C29.9082 7.528 29.8175 7.2 29.6362 6.976C29.4549 6.74667 29.1989 6.632 28.8682 6.632C28.5322 6.632 28.2735 6.74667 28.0922 6.976C27.9109 7.2 27.8202 7.528 27.8202 7.96C27.8202 8.39733 27.9082 8.728 28.0842 8.952C28.2655 9.17067 28.5242 9.28 28.8602 9.28ZM33.6026 10.064C33.1919 10.064 32.8292 9.97867 32.5146 9.808C32.2052 9.63733 31.9652 9.39467 31.7946 9.08C31.6292 8.76 31.5466 8.38667 31.5466 7.96C31.5466 7.53333 31.6292 7.16267 31.7946 6.848C31.9652 6.528 32.2052 6.28267 32.5146 6.112C32.8292 5.94133 33.1919 5.856 33.6026 5.856C34.0079 5.856 34.3652 5.94133 34.6746 6.112C34.9839 6.28267 35.2212 6.528 35.3866 6.848C35.5572 7.16267 35.6426 7.53333 35.6426 7.96C35.6426 8.38667 35.5572 8.76 35.3866 9.08C35.2212 9.39467 34.9839 9.63733 34.6746 9.808C34.3652 9.97867 34.0079 10.064 33.6026 10.064ZM33.5946 9.28C33.9359 9.28 34.1946 9.17067 34.3706 8.952C34.5519 8.728 34.6426 8.39733 34.6426 7.96C34.6426 7.528 34.5519 7.2 34.3706 6.976C34.1892 6.74667 33.9332 6.632 33.6026 6.632C33.2666 6.632 33.0079 6.74667 32.8266 6.976C32.6452 7.2 32.5546 7.528 32.5546 7.96C32.5546 8.39733 32.6426 8.728 32.8186 8.952C32.9999 9.17067 33.2586 9.28 33.5946 9.28ZM40.3689 4.112V10H39.3849V9.352C39.2623 9.576 39.0863 9.752 38.8569 9.88C38.6276 10.0027 38.3663 10.064 38.0729 10.064C37.7263 10.064 37.4169 9.976 37.1449 9.8C36.8729 9.624 36.6596 9.376 36.5049 9.056C36.3556 8.73067 36.2809 8.36 36.2809 7.944C36.2809 7.528 36.3556 7.16267 36.5049 6.848C36.6543 6.53333 36.8649 6.29067 37.1369 6.12C37.4089 5.944 37.7209 5.856 38.0729 5.856C38.3609 5.856 38.6169 5.91733 38.8409 6.04C39.0703 6.15733 39.2463 6.32533 39.3689 6.544V4.112H40.3689ZM38.3369 9.28C38.6676 9.28 38.9236 9.16533 39.1049 8.936C39.2916 8.70667 39.3849 8.38133 39.3849 7.96C39.3849 7.53867 39.2943 7.21333 39.1129 6.984C38.9316 6.75467 38.6756 6.64 38.3449 6.64C38.0089 6.64 37.7476 6.75467 37.5609 6.984C37.3796 7.208 37.2889 7.528 37.2889 7.944C37.2889 8.36533 37.3796 8.69333 37.5609 8.928C37.7476 9.16267 38.0063 9.28 38.3369 9.28ZM41.4581 4.112H42.4501V10H41.4581V4.112ZM47.408 5.96V10H46.424V9.352C46.3013 9.576 46.1253 9.752 45.896 9.88C45.6667 10.0027 45.4053 10.064 45.112 10.064C44.76 10.064 44.448 9.97867 44.176 9.808C43.904 9.63733 43.6933 9.39467 43.544 9.08C43.3947 8.76533 43.32 8.4 43.32 7.984C43.32 7.568 43.3947 7.2 43.544 6.88C43.6987 6.55467 43.912 6.304 44.184 6.128C44.456 5.94667 44.7653 5.856 45.112 5.856C45.4053 5.856 45.6667 5.92 45.896 6.048C46.1253 6.17067 46.3013 6.344 46.424 6.568V5.96H47.408ZM45.384 9.28C45.7147 9.28 45.9707 9.16533 46.152 8.936C46.3333 8.70667 46.424 8.384 46.424 7.968C46.424 7.54133 46.3333 7.21333 46.152 6.984C45.9707 6.75467 45.712 6.64 45.376 6.64C45.0453 6.64 44.7867 6.76 44.6 7C44.4187 7.23467 44.328 7.56267 44.328 7.984C44.328 8.4 44.4187 8.72 44.6 8.944C44.7867 9.168 45.048 9.28 45.384 9.28ZM50.8091 5.856C51.7745 5.856 52.2571 6.41067 52.2571 7.52V10H51.2571V7.568C51.2571 7.248 51.1958 7.016 51.0731 6.872C50.9505 6.72267 50.7611 6.648 50.5051 6.648C50.2011 6.648 49.9558 6.74667 49.7691 6.944C49.5825 7.136 49.4891 7.392 49.4891 7.712V10H48.4971V7.104C48.4971 6.67733 48.4758 6.296 48.4331 5.96H49.3691L49.4411 6.624C49.5798 6.37867 49.7665 6.18933 50.0011 6.056C50.2411 5.92267 50.5105 5.856 50.8091 5.856ZM57.1814 4.112V10H56.1974V9.352C56.0748 9.576 55.8988 9.752 55.6694 9.88C55.4401 10.0027 55.1788 10.064 54.8854 10.064C54.5388 10.064 54.2294 9.976 53.9574 9.8C53.6854 9.624 53.4721 9.376 53.3174 9.056C53.1681 8.73067 53.0934 8.36 53.0934 7.944C53.0934 7.528 53.1681 7.16267 53.3174 6.848C53.4668 6.53333 53.6774 6.29067 53.9494 6.12C54.2214 5.944 54.5334 5.856 54.8854 5.856C55.1734 5.856 55.4294 5.91733 55.6534 6.04C55.8828 6.15733 56.0588 6.32533 56.1814 6.544V4.112H57.1814ZM55.1494 9.28C55.4801 9.28 55.7361 9.16533 55.9174 8.936C56.1041 8.70667 56.1974 8.38133 56.1974 7.96C56.1974 7.53867 56.1068 7.21333 55.9254 6.984C55.7441 6.75467 55.4881 6.64 55.1574 6.64C54.8214 6.64 54.5601 6.75467 54.3734 6.984C54.1921 7.208 54.1014 7.528 54.1014 7.944C54.1014 8.36533 54.1921 8.69333 54.3734 8.928C54.5601 9.16267 54.8188 9.28 55.1494 9.28Z" fill="#91A9C0"/>
<g clip-path="url(#clip0)">
<mask id="path-14-inside-1" fill="white">
<path fill-rule="evenodd" clip-rule="evenodd" d="M7.8896 0H12.9996C14.1042 0 14.9996 0.895431 14.9996 2V7.11C14.9996 7.64043 14.7889 8.14914 14.4138 8.52421L8.47539 14.4626C7.69434 15.2437 6.42801 15.2437 5.64696 14.4626L0.536959 9.35264C-0.24409 8.57159 -0.244091 7.30526 0.536958 6.52421L6.47538 0.585787C6.85046 0.210714 7.35917 0 7.8896 0ZM10.3725 3.7046C9.7879 3.7046 9.31401 4.17849 9.31401 4.76306C9.31401 5.34763 9.7879 5.82151 10.3725 5.82151C10.957 5.82151 11.4309 5.34763 11.4309 4.76306C11.4309 4.17849 10.957 3.7046 10.3725 3.7046Z"/>
</mask>
<path fill-rule="evenodd" clip-rule="evenodd" d="M7.8896 0H12.9996C14.1042 0 14.9996 0.895431 14.9996 2V7.11C14.9996 7.64043 14.7889 8.14914 14.4138 8.52421L8.47539 14.4626C7.69434 15.2437 6.42801 15.2437 5.64696 14.4626L0.536959 9.35264C-0.24409 8.57159 -0.244091 7.30526 0.536958 6.52421L6.47538 0.585787C6.85046 0.210714 7.35917 0 7.8896 0ZM10.3725 3.7046C9.7879 3.7046 9.31401 4.17849 9.31401 4.76306C9.31401 5.34763 9.7879 5.82151 10.3725 5.82151C10.957 5.82151 11.4309 5.34763 11.4309 4.76306C11.4309 4.17849 10.957 3.7046 10.3725 3.7046Z" fill="#CCF7F3"/>
<path d="M8.47539 14.4626L9.53605 15.5233H9.53605L8.47539 14.4626ZM5.64696 14.4626L6.70762 13.402V13.402L5.64696 14.4626ZM0.536959 9.35264L1.59762 8.29198H1.59762L0.536959 9.35264ZM0.536958 6.52421L1.59762 7.58487H1.59762L0.536958 6.52421ZM6.47538 0.585787L7.53605 1.64645V1.64645L6.47538 0.585787ZM12.9996 -1.5H7.8896V1.5H12.9996V-1.5ZM16.4996 2C16.4996 0.0670043 14.9326 -1.5 12.9996 -1.5V1.5C13.2757 1.5 13.4996 1.72386 13.4996 2H16.4996ZM16.4996 7.11V2H13.4996V7.11H16.4996ZM15.4745 9.58487C16.1309 8.9285 16.4996 8.03826 16.4996 7.11H13.4996C13.4996 7.24261 13.4469 7.36979 13.3532 7.46355L15.4745 9.58487ZM9.53605 15.5233L15.4745 9.58487L13.3532 7.46355L7.41473 13.402L9.53605 15.5233ZM4.5863 15.5233C5.95313 16.8901 8.16921 16.8901 9.53605 15.5233L7.41473 13.402C7.21946 13.5972 6.90288 13.5972 6.70762 13.402L4.5863 15.5233ZM-0.523701 10.4133L4.5863 15.5233L6.70762 13.402L1.59762 8.29198L-0.523701 10.4133ZM-0.523702 5.46355C-1.89054 6.83039 -1.89054 9.04647 -0.523701 10.4133L1.59762 8.29198C1.40236 8.09672 1.40236 7.78014 1.59762 7.58487L-0.523702 5.46355ZM5.41472 -0.474873L-0.523703 5.46355L1.59762 7.58487L7.53605 1.64645L5.41472 -0.474873ZM7.8896 -1.5C6.96134 -1.5 6.0711 -1.13125 5.41472 -0.474873L7.53605 1.64645C7.62981 1.55268 7.75699 1.5 7.8896 1.5V-1.5ZM10.814 4.76306C10.814 5.00691 10.6163 5.2046 10.3725 5.2046V2.2046C8.95947 2.2046 7.81401 3.35006 7.81401 4.76306H10.814ZM10.3725 4.32151C10.6163 4.32151 10.814 4.5192 10.814 4.76306H7.81401C7.81401 6.17605 8.95947 7.32151 10.3725 7.32151V4.32151ZM9.93092 4.76306C9.93092 4.5192 10.1286 4.32151 10.3725 4.32151V7.32151C11.7855 7.32151 12.9309 6.17605 12.9309 4.76306H9.93092ZM10.3725 5.2046C10.1286 5.2046 9.93092 5.00691 9.93092 4.76306H12.9309C12.9309 3.35006 11.7855 2.2046 10.3725 2.2046V5.2046Z" fill="#00D9C9" mask="url(#path-14-inside-1)"/>
</g>
<defs>
<clipPath id="clip0">
<rect width="15" height="15" fill="white"/>
</clipPath>
</defs>
</svg>
