<svg width="100" height="69" viewBox="0 0 100 69" fill="none" xmlns="http://www.w3.org/2000/svg">
<path d="M58.5952 69H1.65932C-7.83 40.4157 26.179 40.4043 32.9741 38.7978C39.9407 37.1507 77.5739 37.1798 79.4717 31.2472C80.99 26.5011 77.8468 23.9382 75 22.5L75.676 21C81.3696 23.1573 93.5159 29.4135 96.5525 37.1798C100.348 46.8876 79.4717 42.573 53.8506 49.0449C33.3536 54.2225 48.4733 64.5056 58.5952 69Z" fill="#DAE4ED"/>
<path d="M80.7132 10.5533C81.4517 9.08468 83.5483 9.08468 84.2868 10.5533L92.7338 27.3515C93.4026 28.6816 92.4358 30.25 90.947 30.25H74.053C72.5642 30.25 71.5974 28.6816 72.2662 27.3515L80.7132 10.5533Z" fill="#DAE4ED"/>
<path d="M80.9093 20.0874C81.7097 19.037 83.2903 19.037 84.0907 20.0873L91.1493 29.3496C91.2256 29.4497 91.2922 29.5566 91.3483 29.6692L95.5572 38.1073C96.2204 39.437 95.2534 41 93.7674 41H71.2326C69.7466 41 68.7796 39.437 69.4428 38.1073L73.6517 29.6692C73.7078 29.5566 73.7744 29.4497 73.8507 29.3496L80.9093 20.0874Z" fill="#DAE4ED"/>
<path d="M81.1019 30.3667C81.8791 29.6069 83.1209 29.6069 83.8981 30.3667L94.0228 40.2643C94.1824 40.4203 94.3148 40.602 94.4144 40.8018L98.5572 49.1073C99.2204 50.437 98.2534 52 96.7674 52H68.2326C66.7466 52 65.7796 50.437 66.4428 49.1073L70.5856 40.8018C70.6852 40.602 70.8176 40.4203 70.9772 40.2643L81.1019 30.3667Z" fill="#DAE4ED"/>
<rect x="80" y="48" width="5" height="12" rx="2" fill="#DAE4ED"/>
<path d="M66.7132 15.5533C67.4517 14.0847 69.5483 14.0847 70.2868 15.5533L78.7338 32.3515C79.4026 33.6816 78.4358 35.25 76.947 35.25H60.053C58.5642 35.25 57.5974 33.6816 58.2662 32.3515L66.7132 15.5533Z" fill="#E3EAF2"/>
<path d="M66.9093 25.0874C67.7097 24.037 69.2903 24.037 70.0907 25.0873L77.1493 34.3496C77.2256 34.4497 77.2922 34.5566 77.3483 34.6692L81.5572 43.1073C82.2204 44.437 81.2534 46 79.7674 46H57.2326C55.7466 46 54.7796 44.437 55.4428 43.1073L59.6517 34.6692C59.7078 34.5566 59.7744 34.4497 59.8507 34.3496L66.9093 25.0874Z" fill="#E3EAF2"/>
<path d="M67.1019 35.3667C67.8791 34.6069 69.1209 34.6069 69.8981 35.3667L80.0228 45.2643C80.1824 45.4203 80.3148 45.602 80.4144 45.8018L84.5572 54.1073C85.2204 55.437 84.2534 57 82.7674 57H54.2326C52.7466 57 51.7796 55.437 52.4428 54.1073L56.5856 45.8018C56.6852 45.602 56.8176 45.4203 56.9772 45.2643L67.1019 35.3667Z" fill="#E3EAF2"/>
<rect x="66" y="53" width="5" height="12" rx="2" fill="#E3EAF2"/>
<path d="M33.5762 64.8013V63.1538H29.3916V64.8013C29.403 67.716 33.5762 67.7503 33.5762 64.8013Z" fill="#F1F5F9"/>
<path d="M14.3891 64.8013V63.1538H10.2217V64.8013C10.216 67.7503 14.3891 67.716 14.3891 64.8013Z" fill="#F1F5F9"/>
<path d="M35.8021 59.7211V53.9433C35.7963 51.9297 34.1917 50.8656 33.2793 50.7484L30.9996 44.8647C30.5735 43.7378 29.641 42.7796 27.879 42.771H24.6669H19.1752H15.903C14.1496 42.7796 13.2172 43.7378 12.7824 44.8647L10.5028 50.7484C9.59891 50.8656 7.99714 51.9297 8 53.9433V59.7211C8 60.6679 8.76942 61.4373 9.71618 61.4373H34.0859C35.0326 61.4373 35.8021 60.6707 35.8021 59.7211ZM12.6623 57.2012C12.6594 57.2012 12.6594 57.2012 12.6566 57.2012C12.6537 57.2012 12.6537 57.2012 12.6508 57.2012C11.5868 57.2012 10.7287 56.3145 10.7316 55.2219C10.7259 54.1264 11.5811 53.2397 12.6394 53.2397C12.6451 53.2397 12.6508 53.2397 12.6566 53.2397C12.6623 53.2397 12.668 53.2397 12.6737 53.2397C13.7292 53.2397 14.5844 54.1264 14.5815 55.2219C14.5844 56.3145 13.7235 57.2012 12.6623 57.2012ZM21.901 50.694H21.881H14.7474C14.1182 50.694 13.692 50.0533 13.938 49.4727L15.1393 46.6324C15.3195 46.1833 15.6685 45.5026 16.4293 45.4911H27.347C28.0964 45.5026 28.2852 45.923 28.637 46.6324L29.8383 49.4727C30.0843 50.0533 29.6581 50.694 29.0289 50.694H21.901ZM31.0053 57.3442C31.0025 57.3442 31.0025 57.3442 30.9996 57.3442C30.9968 57.3442 30.9968 57.3442 30.9939 57.3442C29.9242 57.3442 29.0632 56.4575 29.0575 55.3649C29.0632 54.2694 29.9185 53.3827 30.9853 53.3827C30.991 53.3827 30.9968 53.3827 31.0025 53.3827C31.0083 53.3827 31.0139 53.3827 31.0197 53.3827C32.0666 53.3827 32.9218 54.2694 32.9275 55.3649C32.9189 56.4575 32.0579 57.3442 31.0053 57.3442Z" fill="#F1F5F9"/>
<rect x="52.75" y="13.75" width="31.5" height="50.5" rx="1.25" stroke="#00D9C9" stroke-width="1.5"/>
<rect x="75.75" y="10.75" width="23.5" height="48.5" rx="1.25" stroke="#00D9C9" stroke-width="1.5"/>
<rect x="70" width="28" height="12" rx="3" fill="#00D9C9"/>
<g filter="url(#filter0_d)">
<path d="M76.44 3.94H74.12V2.88H80.07V3.94H77.74V10H76.44V3.94ZM82.8004 4.83C82.9937 4.83 83.1604 4.85667 83.3004 4.91L83.2904 6.05C83.0771 5.96333 82.8571 5.92 82.6304 5.92C82.2037 5.92 81.8771 6.04333 81.6504 6.29C81.4304 6.53667 81.3204 6.86333 81.3204 7.27V10H80.0804V6.38C80.0804 5.84667 80.0537 5.37 80.0004 4.95H81.1704L81.2704 5.84C81.3971 5.51333 81.5971 5.26333 81.8704 5.09C82.1437 4.91667 82.4537 4.83 82.8004 4.83ZM88.3188 7.54H84.8388C84.8654 8.08 84.9988 8.48 85.2388 8.74C85.4854 8.99333 85.8488 9.12 86.3288 9.12C86.8821 9.12 87.3954 8.94 87.8688 8.58L88.2288 9.44C87.9888 9.63333 87.6921 9.79 87.3388 9.91C86.9921 10.0233 86.6388 10.08 86.2788 10.08C85.4521 10.08 84.8021 9.84667 84.3288 9.38C83.8554 8.91333 83.6188 8.27333 83.6188 7.46C83.6188 6.94667 83.7221 6.49 83.9288 6.09C84.1354 5.69 84.4254 5.38 84.7988 5.16C85.1721 4.93333 85.5954 4.82 86.0688 4.82C86.7621 4.82 87.3088 5.04667 87.7088 5.5C88.1154 5.94667 88.3188 6.56333 88.3188 7.35V7.54ZM86.0988 5.72C85.7654 5.72 85.4921 5.82 85.2788 6.02C85.0721 6.21333 84.9388 6.49667 84.8788 6.87H87.2288C87.1888 6.49 87.0721 6.20333 86.8788 6.01C86.6921 5.81667 86.4321 5.72 86.0988 5.72ZM93.7973 7.54H90.3173C90.3439 8.08 90.4773 8.48 90.7173 8.74C90.9639 8.99333 91.3273 9.12 91.8073 9.12C92.3606 9.12 92.8739 8.94 93.3473 8.58L93.7073 9.44C93.4673 9.63333 93.1706 9.79 92.8173 9.91C92.4706 10.0233 92.1173 10.08 91.7573 10.08C90.9306 10.08 90.2806 9.84667 89.8073 9.38C89.3339 8.91333 89.0973 8.27333 89.0973 7.46C89.0973 6.94667 89.2006 6.49 89.4073 6.09C89.6139 5.69 89.9039 5.38 90.2773 5.16C90.6506 4.93333 91.0739 4.82 91.5473 4.82C92.2406 4.82 92.7873 5.04667 93.1873 5.5C93.5939 5.94667 93.7973 6.56333 93.7973 7.35V7.54ZM91.5773 5.72C91.2439 5.72 90.9706 5.82 90.7573 6.02C90.5506 6.21333 90.4173 6.49667 90.3573 6.87H92.7073C92.6673 6.49 92.5506 6.20333 92.3573 6.01C92.1706 5.81667 91.9106 5.72 91.5773 5.72Z" fill="white"/>
</g>
<rect x="50" y="2" width="28" height="12" rx="3" fill="#00D9C9"/>
<g filter="url(#filter1_d)">
<path d="M56.44 5.94H54.12V4.88H60.07V5.94H57.74V12H56.44V5.94ZM62.8004 6.83C62.9937 6.83 63.1604 6.85667 63.3004 6.91L63.2904 8.05C63.0771 7.96333 62.8571 7.92 62.6304 7.92C62.2037 7.92 61.8771 8.04333 61.6504 8.29C61.4304 8.53667 61.3204 8.86333 61.3204 9.27V12H60.0804V8.38C60.0804 7.84667 60.0537 7.37 60.0004 6.95H61.1704L61.2704 7.84C61.3971 7.51333 61.5971 7.26333 61.8704 7.09C62.1437 6.91667 62.4537 6.83 62.8004 6.83ZM68.3188 9.54H64.8388C64.8654 10.08 64.9988 10.48 65.2388 10.74C65.4854 10.9933 65.8488 11.12 66.3288 11.12C66.8821 11.12 67.3954 10.94 67.8688 10.58L68.2288 11.44C67.9888 11.6333 67.6921 11.79 67.3388 11.91C66.9921 12.0233 66.6388 12.08 66.2788 12.08C65.4521 12.08 64.8021 11.8467 64.3288 11.38C63.8554 10.9133 63.6188 10.2733 63.6188 9.46C63.6188 8.94667 63.7221 8.49 63.9288 8.09C64.1354 7.69 64.4254 7.38 64.7988 7.16C65.1721 6.93333 65.5954 6.82 66.0688 6.82C66.7621 6.82 67.3088 7.04667 67.7088 7.5C68.1154 7.94667 68.3188 8.56333 68.3188 9.35V9.54ZM66.0988 7.72C65.7654 7.72 65.4921 7.82 65.2788 8.02C65.0721 8.21333 64.9388 8.49667 64.8788 8.87H67.2288C67.1888 8.49 67.0721 8.20333 66.8788 8.01C66.6921 7.81667 66.4321 7.72 66.0988 7.72ZM73.7973 9.54H70.3173C70.3439 10.08 70.4773 10.48 70.7173 10.74C70.9639 10.9933 71.3273 11.12 71.8073 11.12C72.3606 11.12 72.8739 10.94 73.3473 10.58L73.7073 11.44C73.4673 11.6333 73.1706 11.79 72.8173 11.91C72.4706 12.0233 72.1173 12.08 71.7573 12.08C70.9306 12.08 70.2806 11.8467 69.8073 11.38C69.3339 10.9133 69.0973 10.2733 69.0973 9.46C69.0973 8.94667 69.2006 8.49 69.4073 8.09C69.6139 7.69 69.9039 7.38 70.2773 7.16C70.6506 6.93333 71.0739 6.82 71.5473 6.82C72.2406 6.82 72.7873 7.04667 73.1873 7.5C73.5939 7.94667 73.7973 8.56333 73.7973 9.35V9.54ZM71.5773 7.72C71.2439 7.72 70.9706 7.82 70.7573 8.02C70.5506 8.21333 70.4173 8.49667 70.3573 8.87H72.7073C72.6673 8.49 72.5506 8.20333 72.3573 8.01C72.1706 7.81667 71.9106 7.72 71.5773 7.72Z" fill="white"/>
</g>
<rect x="6" y="29" width="25" height="12" rx="3" fill="#57A8F1"/>
<g filter="url(#filter2_d)">
<path d="M14 39.09C13.3 39.09 12.6867 38.94 12.16 38.64C11.64 38.34 11.24 37.9167 10.96 37.37C10.68 36.8167 10.54 36.17 10.54 35.43C10.54 34.6967 10.68 34.0567 10.96 33.51C11.24 32.9567 11.64 32.5333 12.16 32.24C12.6867 31.94 13.3 31.79 14 31.79C14.48 31.79 14.93 31.8667 15.35 32.02C15.7767 32.1667 16.13 32.3733 16.41 32.64L15.99 33.58C15.67 33.32 15.35 33.1333 15.03 33.02C14.7167 32.9 14.38 32.84 14.02 32.84C13.3333 32.84 12.8 33.0633 12.42 33.51C12.0467 33.9567 11.86 34.5967 11.86 35.43C11.86 36.27 12.0467 36.9167 12.42 37.37C12.7933 37.8167 13.3267 38.04 14.02 38.04C14.38 38.04 14.7167 37.9833 15.03 37.87C15.35 37.75 15.67 37.56 15.99 37.3L16.41 38.24C16.13 38.5067 15.7767 38.7167 15.35 38.87C14.93 39.0167 14.48 39.09 14 39.09ZM22.258 33.95V39H21.028V38.19C20.8747 38.47 20.6547 38.69 20.368 38.85C20.0814 39.0033 19.7547 39.08 19.388 39.08C18.948 39.08 18.558 38.9733 18.218 38.76C17.878 38.5467 17.6147 38.2433 17.428 37.85C17.2414 37.4567 17.148 37 17.148 36.48C17.148 35.96 17.2414 35.5 17.428 35.1C17.6214 34.6933 17.888 34.38 18.228 34.16C18.568 33.9333 18.9547 33.82 19.388 33.82C19.7547 33.82 20.0814 33.9 20.368 34.06C20.6547 34.2133 20.8747 34.43 21.028 34.71V33.95H22.258ZM19.728 38.1C20.1414 38.1 20.4614 37.9567 20.688 37.67C20.9147 37.3833 21.028 36.98 21.028 36.46C21.028 35.9267 20.9147 35.5167 20.688 35.23C20.4614 34.9433 20.138 34.8 19.718 34.8C19.3047 34.8 18.9814 34.95 18.748 35.25C18.5214 35.5433 18.408 35.9533 18.408 36.48C18.408 37 18.5214 37.4 18.748 37.68C18.9814 37.96 19.308 38.1 19.728 38.1ZM26.3395 33.83C26.5328 33.83 26.6995 33.8567 26.8395 33.91L26.8295 35.05C26.6161 34.9633 26.3961 34.92 26.1695 34.92C25.7428 34.92 25.4161 35.0433 25.1895 35.29C24.9695 35.5367 24.8595 35.8633 24.8595 36.27V39H23.6195V35.38C23.6195 34.8467 23.5928 34.37 23.5395 33.95H24.7095L24.8095 34.84C24.9361 34.5133 25.1361 34.2633 25.4095 34.09C25.6828 33.9167 25.9928 33.83 26.3395 33.83Z" fill="white"/>
</g>
<defs>
<filter id="filter0_d" x="72.1201" y="1.87988" width="23.6773" height="11.2" filterUnits="userSpaceOnUse" color-interpolation-filters="sRGB">
<feFlood flood-opacity="0" result="BackgroundImageFix"/>
<feColorMatrix in="SourceAlpha" type="matrix" values="0 0 0 0 0 0 0 0 0 0 0 0 0 0 0 0 0 0 127 0"/>
<feOffset dy="1"/>
<feGaussianBlur stdDeviation="1"/>
<feColorMatrix type="matrix" values="0 0 0 0 0 0 0 0 0 0 0 0 0 0 0 0 0 0 0.25 0"/>
<feBlend mode="normal" in2="BackgroundImageFix" result="effect1_dropShadow"/>
<feBlend mode="normal" in="SourceGraphic" in2="effect1_dropShadow" result="shape"/>
</filter>
<filter id="filter1_d" x="52.1201" y="3.87988" width="23.6773" height="11.2" filterUnits="userSpaceOnUse" color-interpolation-filters="sRGB">
<feFlood flood-opacity="0" result="BackgroundImageFix"/>
<feColorMatrix in="SourceAlpha" type="matrix" values="0 0 0 0 0 0 0 0 0 0 0 0 0 0 0 0 0 0 127 0"/>
<feOffset dy="1"/>
<feGaussianBlur stdDeviation="1"/>
<feColorMatrix type="matrix" values="0 0 0 0 0 0 0 0 0 0 0 0 0 0 0 0 0 0 0.25 0"/>
<feBlend mode="normal" in2="BackgroundImageFix" result="effect1_dropShadow"/>
<feBlend mode="normal" in="SourceGraphic" in2="effect1_dropShadow" result="shape"/>
</filter>
<filter id="filter2_d" x="8.54004" y="30.79" width="20.2995" height="11.3" filterUnits="userSpaceOnUse" color-interpolation-filters="sRGB">
<feFlood flood-opacity="0" result="BackgroundImageFix"/>
<feColorMatrix in="SourceAlpha" type="matrix" values="0 0 0 0 0 0 0 0 0 0 0 0 0 0 0 0 0 0 127 0"/>
<feOffset dy="1"/>
<feGaussianBlur stdDeviation="1"/>
<feColorMatrix type="matrix" values="0 0 0 0 0 0 0 0 0 0 0 0 0 0 0 0 0 0 0.25 0"/>
<feBlend mode="normal" in2="BackgroundImageFix" result="effect1_dropShadow"/>
<feBlend mode="normal" in="SourceGraphic" in2="effect1_dropShadow" result="shape"/>
</filter>
</defs>
</svg>
