<svg width="101" height="61" viewBox="0 0 101 61" fill="none" xmlns="http://www.w3.org/2000/svg">
<g opacity="0.3">
<mask id="path-1-outside-1" maskUnits="userSpaceOnUse" x="1" y="25.7539" width="61" height="35" fill="black">
<rect fill="white" x="1" y="25.7539" width="61" height="35"/>
<path fill-rule="evenodd" clip-rule="evenodd" d="M59.712 26.7539C55.8451 27.094 51.9075 27.3636 48.3098 27.61C42.237 28.0257 37.133 28.3752 34.9741 28.8856C34.0749 29.0982 32.6993 29.2828 31.011 29.5095L31.0109 29.5095C19.9402 30.9955 -4.57434 34.286 3.65932 59.0879H60.5952C50.5301 54.6187 35.5233 44.4257 55.5085 39.2205L57.059 36.5116C55.8162 36.2082 55.1281 34.7624 55.8074 33.5756L59.712 26.7539ZM37.6957 49.7313V43.9535C37.691 42.318 36.6356 41.3089 35.7524 40.9248C35.4159 40.7785 35.1003 40.5454 34.9681 40.2031L32.9116 34.875C32.4871 33.748 31.5582 32.7898 29.803 32.7812H26.6032H21.1324H17.8728C16.1261 32.7898 15.1972 33.748 14.7641 34.875L12.7073 40.2038C12.5753 40.5457 12.2602 40.7788 11.9247 40.9261C11.0476 41.3112 9.99769 42.3198 10 43.9535V49.7313C10 50.3282 10.3046 50.8546 10.7661 51.1621C11.2257 51.4684 11.7096 51.8952 11.7096 52.4475V55.9472C11.7096 56.4995 12.1573 56.9472 12.7096 56.9472H15.4751C16.0274 56.9472 16.4751 56.4995 16.4751 55.9472V52.9472C16.4751 52.395 16.9228 51.9472 17.4751 51.9472H30.4177C30.97 51.9472 31.4177 52.395 31.4177 52.9472V55.9472C31.4177 56.4995 31.8654 56.9472 32.4177 56.9472H34.9861C35.5383 56.9472 35.9861 56.4995 35.9861 55.9472V52.4475C35.9861 51.8952 36.47 51.4687 36.9298 51.1627C37.3911 50.8558 37.6957 50.3299 37.6957 49.7313Z"/>
</mask>
<path fill-rule="evenodd" clip-rule="evenodd" d="M59.712 26.7539C55.8451 27.094 51.9075 27.3636 48.3098 27.61C42.237 28.0257 37.133 28.3752 34.9741 28.8856C34.0749 29.0982 32.6993 29.2828 31.011 29.5095L31.0109 29.5095C19.9402 30.9955 -4.57434 34.286 3.65932 59.0879H60.5952C50.5301 54.6187 35.5233 44.4257 55.5085 39.2205L57.059 36.5116C55.8162 36.2082 55.1281 34.7624 55.8074 33.5756L59.712 26.7539ZM37.6957 49.7313V43.9535C37.691 42.318 36.6356 41.3089 35.7524 40.9248C35.4159 40.7785 35.1003 40.5454 34.9681 40.2031L32.9116 34.875C32.4871 33.748 31.5582 32.7898 29.803 32.7812H26.6032H21.1324H17.8728C16.1261 32.7898 15.1972 33.748 14.7641 34.875L12.7073 40.2038C12.5753 40.5457 12.2602 40.7788 11.9247 40.9261C11.0476 41.3112 9.99769 42.3198 10 43.9535V49.7313C10 50.3282 10.3046 50.8546 10.7661 51.1621C11.2257 51.4684 11.7096 51.8952 11.7096 52.4475V55.9472C11.7096 56.4995 12.1573 56.9472 12.7096 56.9472H15.4751C16.0274 56.9472 16.4751 56.4995 16.4751 55.9472V52.9472C16.4751 52.395 16.9228 51.9472 17.4751 51.9472H30.4177C30.97 51.9472 31.4177 52.395 31.4177 52.9472V55.9472C31.4177 56.4995 31.8654 56.9472 32.4177 56.9472H34.9861C35.5383 56.9472 35.9861 56.4995 35.9861 55.9472V52.4475C35.9861 51.8952 36.47 51.4687 36.9298 51.1627C37.3911 50.8558 37.6957 50.3299 37.6957 49.7313Z" fill="#FFD747" fill-opacity="0.2"/>
<path d="M13.6488 45.8776H13.6431V46.8776H13.6488V45.8776ZM13.6431 45.8776H13.6374V46.8776H13.6431V45.8776ZM13.626 42.916H13.6431V41.916H13.626V42.916ZM13.6431 42.916H13.6602V41.916H13.6431V42.916ZM22.8522 39.3704H22.8323V40.3704H22.8522V39.3704ZM31.9217 46.0206H31.916V47.0206H31.9217V46.0206ZM31.916 46.0206H31.9103V47.0206H31.916V46.0206ZM31.9017 43.0591H31.9189V42.0591H31.9017V43.0591ZM31.9189 43.0591H31.936V42.0591H31.9189V43.0591ZM59.712 26.7539L60.5799 27.2507C60.7648 26.9275 60.755 26.5284 60.5543 26.2148C60.3535 25.9012 59.9953 25.7251 59.6244 25.7578L59.712 26.7539ZM48.3098 27.61L48.3781 28.6076L48.3098 27.61ZM34.9741 28.8856L34.744 27.9124V27.9124L34.9741 28.8856ZM31.011 29.5095L31.135 30.5018L31.144 30.5006L31.011 29.5095ZM31.0109 29.5095L30.8869 28.5171L30.8779 28.5184L31.0109 29.5095ZM3.65932 59.0879L2.71025 59.4029C2.846 59.8119 3.22844 60.0879 3.65932 60.0879V59.0879ZM60.5952 59.0879V60.0879C61.0676 60.0879 61.4755 59.7574 61.5735 59.2953C61.6715 58.8332 61.4328 58.3656 61.001 58.1739L60.5952 59.0879ZM55.5085 39.2205L55.7606 40.1883C56.0208 40.1205 56.2428 39.9507 56.3764 39.7173L55.5085 39.2205ZM57.059 36.5116L57.9269 37.0084C58.083 36.7357 58.1019 36.4056 57.9779 36.1169C57.8539 35.8283 57.6014 35.6147 57.2962 35.5402L57.059 36.5116ZM55.8074 33.5756L56.6753 34.0724V34.0724L55.8074 33.5756ZM37.6957 43.9535H38.6957L38.6957 43.9507L37.6957 43.9535ZM35.7524 40.9248L35.3536 41.8418V41.8418L35.7524 40.9248ZM34.9681 40.2031L35.9011 39.843L35.9011 39.843L34.9681 40.2031ZM32.9116 34.875L31.9758 35.2275L31.9787 35.235L32.9116 34.875ZM29.803 32.7812L29.8079 31.7812H29.803V32.7812ZM17.8728 32.7812V31.7812L17.8678 31.7812L17.8728 32.7812ZM14.7641 34.875L15.697 35.235L15.6976 35.2337L14.7641 34.875ZM12.7073 40.2038L11.7744 39.8438V39.8438L12.7073 40.2038ZM11.9247 40.9261L11.5227 40.0105H11.5227L11.9247 40.9261ZM10 43.9535H11L11 43.9521L10 43.9535ZM10.7661 51.1621L11.3207 50.33V50.33L10.7661 51.1621ZM36.9298 51.1627L37.4837 51.9953L36.9298 51.1627ZM59.6244 25.7578C55.7687 26.0969 51.8407 26.3659 48.2415 26.6123L48.3781 28.6076C51.9743 28.3614 55.9215 28.0912 59.7996 27.7501L59.6244 25.7578ZM48.2415 26.6123C45.2083 26.82 42.4032 27.012 40.0864 27.2162C37.7896 27.4186 35.9041 27.6382 34.744 27.9124L35.2041 29.8588C36.2029 29.6227 37.9489 29.4123 40.262 29.2084C42.5552 29.0063 45.3385 28.8157 48.3781 28.6076L48.2415 26.6123ZM34.744 27.9124C33.9052 28.1107 32.5907 28.2884 30.8779 28.5183L31.144 30.5006C32.8078 30.2772 34.2446 30.0856 35.2041 29.8588L34.744 27.9124ZM30.8869 28.5172L30.8869 28.5172L31.135 30.5017L31.135 30.5017L30.8869 28.5172ZM30.8779 28.5184C25.3871 29.2554 16.2612 30.4643 9.56071 34.7105C6.17955 36.8533 3.36205 39.8005 1.95696 43.8867C0.553407 47.9685 0.603677 53.0574 2.71025 59.4029L4.60838 58.7728C2.59813 52.7174 2.6251 48.0943 3.84827 44.5371C5.06991 40.9844 7.52916 38.3658 10.6313 36.3999C16.8973 32.4289 25.5641 31.2496 31.144 30.5006L30.8779 28.5184ZM3.65932 60.0879H60.5952V58.0879H3.65932V60.0879ZM61.001 58.1739C58.5243 57.0742 55.7505 55.625 53.2967 53.9969C50.8238 52.3561 48.76 50.5883 47.6144 48.8745C47.0466 48.025 46.7393 47.2403 46.6778 46.5296C46.6184 45.8423 46.7822 45.1619 47.2724 44.4707C48.3019 43.0189 50.8058 41.4787 55.7606 40.1883L55.2565 38.2528C50.2186 39.5649 47.1039 41.2508 45.641 43.3138C44.8849 44.38 44.5839 45.5291 44.6853 46.7018C44.7846 47.8511 45.2636 48.9566 45.9517 49.9859C47.3178 52.0297 49.6438 53.9734 52.1909 55.6634C54.7572 57.3661 57.6336 58.867 60.1894 60.0018L61.001 58.1739ZM56.3764 39.7173L57.9269 37.0084L56.1912 36.0149L54.6407 38.7238L56.3764 39.7173ZM57.2962 35.5402C56.6758 35.3887 56.3386 34.6607 56.6753 34.0724L54.9395 33.0789C53.9177 34.8641 54.9565 37.0277 56.8219 37.4831L57.2962 35.5402ZM56.6753 34.0724L60.5799 27.2507L58.8441 26.2571L54.9395 33.0789L56.6753 34.0724ZM36.6957 43.9535V49.7313H38.6957V43.9535H36.6957ZM35.3536 41.8418C35.9597 42.1054 36.6924 42.8048 36.6957 43.9564L38.6957 43.9507C38.6897 41.8312 37.3116 40.5124 36.1512 40.0078L35.3536 41.8418ZM34.0352 40.5632C34.306 41.2647 34.9059 41.6472 35.3536 41.8418L36.1512 40.0078C36.052 39.9646 35.9821 39.9196 35.9392 39.8823C35.8984 39.8469 35.8968 39.832 35.9011 39.843L34.0352 40.5632ZM31.9787 35.235L34.0352 40.5632L35.9011 39.843L33.8445 34.5149L31.9787 35.235ZM29.7981 33.7812C30.4846 33.7846 30.9397 33.9694 31.2533 34.2064C31.5754 34.4499 31.8145 34.7994 31.9758 35.2275L33.8474 34.5224C33.5842 33.8236 33.1466 33.1305 32.4593 32.611C31.7635 32.085 30.8766 31.7865 29.8079 31.7812L29.7981 33.7812ZM26.6032 33.7812H29.803V31.7812H26.6032V33.7812ZM21.1324 33.7812H26.6032V31.7812H21.1324V33.7812ZM17.8728 33.7812H21.1324V31.7812H17.8728V33.7812ZM15.6976 35.2337C15.8633 34.8025 16.1054 34.4509 16.4289 34.2064C16.7434 33.9687 17.1968 33.7846 17.8777 33.7812L17.8678 31.7812C16.8021 31.7865 15.9177 32.0857 15.2228 32.611C14.5369 33.1294 14.0981 33.8204 13.8307 34.5162L15.6976 35.2337ZM13.6402 40.5639L15.697 35.235L13.8312 34.5149L11.7744 39.8438L13.6402 40.5639ZM12.3267 41.8417C12.7713 41.6465 13.3699 41.2643 13.6402 40.5639L11.7744 39.8438C11.7786 39.8328 11.7769 39.8478 11.7359 39.8836C11.6926 39.9212 11.6224 39.9667 11.5227 40.0105L12.3267 41.8417ZM11 43.9521C10.9984 42.803 11.7262 42.1054 12.3267 41.8417L11.5227 40.0105C10.3689 40.517 8.99701 41.8367 9 43.9549L11 43.9521ZM11 49.7313V43.9535H9V49.7313H11ZM11.3207 50.33C11.1259 50.2002 11 49.9801 11 49.7313H9C9 50.6763 9.48338 51.509 10.2116 51.9943L11.3207 50.33ZM12.7096 52.4475C12.7096 51.8619 12.4499 51.398 12.1783 51.0722C11.9106 50.7511 11.584 50.5054 11.3207 50.33L10.2116 51.9943C10.4079 52.1251 10.553 52.246 10.6421 52.3529C10.7274 52.4552 10.7096 52.4808 10.7096 52.4475H12.7096ZM12.7096 55.9472V52.4475H10.7096V55.9472H12.7096ZM12.7096 55.9472H10.7096C10.7096 57.0518 11.605 57.9472 12.7096 57.9472V55.9472ZM15.4751 55.9472H12.7096V57.9472H15.4751V55.9472ZM15.4751 55.9472V57.9472C16.5797 57.9472 17.4751 57.0518 17.4751 55.9472H15.4751ZM15.4751 52.9472V55.9472H17.4751V52.9472H15.4751ZM17.4751 50.9472C16.3706 50.9472 15.4751 51.8427 15.4751 52.9472H17.4751V50.9472ZM30.4177 50.9472H17.4751V52.9472H30.4177V50.9472ZM32.4177 52.9472C32.4177 51.8427 31.5223 50.9472 30.4177 50.9472V52.9472H32.4177ZM32.4177 55.9472V52.9472H30.4177V55.9472H32.4177ZM32.4177 55.9472H30.4177C30.4177 57.0518 31.3132 57.9472 32.4177 57.9472V55.9472ZM34.9861 55.9472H32.4177V57.9472H34.9861V55.9472ZM34.9861 55.9472V57.9472C36.0906 57.9472 36.9861 57.0518 36.9861 55.9472H34.9861ZM34.9861 52.4475V55.9472H36.9861V52.4475H34.9861ZM36.3758 50.3302C36.1123 50.5055 35.7855 50.751 35.5176 51.0721C35.2458 51.3979 34.9861 51.8618 34.9861 52.4475H36.9861C36.9861 52.4809 36.9682 52.4554 37.0534 52.3533C37.1424 52.2466 37.2874 52.1259 37.4837 51.9953L36.3758 50.3302ZM36.6957 49.7313C36.6957 49.9823 36.5695 50.2013 36.3758 50.3302L37.4837 51.9953C38.2128 51.5102 38.6957 50.6775 38.6957 49.7313H36.6957Z" fill="#FFD747" mask="url(#path-1-outside-1)"/>
<path d="M32.4437 35.0512L32.4437 35.0512L32.4452 35.055L34.5017 40.3831C34.7031 40.9051 35.1609 41.2128 35.553 41.3833C36.2975 41.7071 37.1915 42.5611 37.1957 43.9543C37.1957 43.9545 37.1957 43.9548 37.1957 43.955L37.1957 49.7313C37.1957 50.1561 36.9803 50.5286 36.6528 50.7465C36.4061 50.9106 36.1247 51.1249 35.9015 51.3925C35.6764 51.6623 35.4861 52.0166 35.4861 52.4475V55.9473C35.4861 56.2234 35.2622 56.4473 34.9861 56.4473H32.4177C32.1416 56.4473 31.9177 56.2234 31.9177 55.9473V52.9473C31.9177 52.1188 31.2462 51.4473 30.4177 51.4473H17.4751C16.6467 51.4473 15.9751 52.1188 15.9751 52.9473V55.9473C15.9751 56.2234 15.7513 56.4473 15.4751 56.4473H12.7096C12.4335 56.4473 12.2096 56.2234 12.2096 55.9473V52.4475C12.2096 52.0167 12.0193 51.6623 11.7943 51.3924C11.5712 51.1248 11.2899 50.9104 11.0434 50.7461C10.7153 50.5274 10.5 50.1542 10.5 49.7313L10.5 43.9536L10.5 43.9528C10.498 42.5614 11.3869 41.7083 12.1257 41.3839C12.5158 41.2127 12.9726 40.9051 13.1738 40.3839L15.2306 35.055L15.2308 35.0544C15.422 34.557 15.7133 34.1206 16.1274 33.8076C16.5368 33.4981 17.0975 33.2853 17.874 33.2812H21.1324H26.6032H29.8017C30.5831 33.2853 31.1459 33.4985 31.5548 33.8076C31.9682 34.1201 32.2569 34.5555 32.4437 35.0512Z" fill="#57A8F1" fill-opacity="0.2" stroke="#57A8F1"/>
<mask id="path-4-inside-2" fill="white">
<path fill-rule="evenodd" clip-rule="evenodd" d="M82.0508 1.14482C82.7393 -0.310664 84.7777 -0.397429 85.5874 0.994286L94.9605 17.1048C95.5739 18.1592 95.1017 19.4547 94.0717 19.9277L97.8206 27.5005C98.3663 28.6027 97.7946 29.8621 96.7379 30.2603L100.773 38.4113C101.431 39.7406 100.464 41.2986 98.9807 41.2986H88.0574L90.1044 44.8751C90.8675 46.2084 89.9049 47.8686 88.3686 47.8686H87.3338C87.0687 48.6624 86.3194 49.2346 85.4364 49.2346H84.5138C83.6308 49.2346 82.8815 48.6624 82.6164 47.8686H74.1362V54.0878C74.1362 55.1924 73.2408 56.0878 72.1362 56.0878H70.242C69.1375 56.0878 68.242 55.1924 68.242 54.0878V47.8686H54.0078C52.4716 47.8686 51.5089 46.2084 52.2721 44.8751L57.059 36.5117C55.8162 36.2082 55.1281 34.7625 55.8074 33.5757L60.4407 25.4809C59.1616 25.2058 58.4445 23.7305 59.1392 22.5265L69.4582 4.64385C70.2279 3.30997 72.1531 3.30998 72.9228 4.64385L77.0292 11.7603L82.0508 1.14482Z"/>
</mask>
<path fill-rule="evenodd" clip-rule="evenodd" d="M82.0508 1.14482C82.7393 -0.310664 84.7777 -0.397429 85.5874 0.994286L94.9605 17.1048C95.5739 18.1592 95.1017 19.4547 94.0717 19.9277L97.8206 27.5005C98.3663 28.6027 97.7946 29.8621 96.7379 30.2603L100.773 38.4113C101.431 39.7406 100.464 41.2986 98.9807 41.2986H88.0574L90.1044 44.8751C90.8675 46.2084 89.9049 47.8686 88.3686 47.8686H87.3338C87.0687 48.6624 86.3194 49.2346 85.4364 49.2346H84.5138C83.6308 49.2346 82.8815 48.6624 82.6164 47.8686H74.1362V54.0878C74.1362 55.1924 73.2408 56.0878 72.1362 56.0878H70.242C69.1375 56.0878 68.242 55.1924 68.242 54.0878V47.8686H54.0078C52.4716 47.8686 51.5089 46.2084 52.2721 44.8751L57.059 36.5117C55.8162 36.2082 55.1281 34.7625 55.8074 33.5757L60.4407 25.4809C59.1616 25.2058 58.4445 23.7305 59.1392 22.5265L69.4582 4.64385C70.2279 3.30997 72.1531 3.30998 72.9228 4.64385L77.0292 11.7603L82.0508 1.14482Z" fill="#5EEBDC" fill-opacity="0.2"/>
<path d="M85.5874 0.994286L84.7231 1.49716L85.5874 0.994286ZM82.0508 1.14482L81.1468 0.717205V0.717205L82.0508 1.14482ZM94.9605 17.1048L95.8248 16.602V16.602L94.9605 17.1048ZM94.0717 19.9277L93.6543 19.019L92.7187 19.4487L93.1755 20.3714L94.0717 19.9277ZM97.8206 27.5005L98.7168 27.0568L97.8206 27.5005ZM96.7379 30.2603L96.3853 29.3245L95.3516 29.714L95.8417 30.7039L96.7379 30.2603ZM100.773 38.4113L99.8769 38.855L100.773 38.4113ZM88.0574 41.2986V40.2986H86.3328L87.1895 41.7954L88.0574 41.2986ZM90.1044 44.8751L90.9723 44.3783V44.3783L90.1044 44.8751ZM87.3338 47.8686V46.8686H86.6135L86.3853 47.5518L87.3338 47.8686ZM82.6164 47.8686L83.5649 47.5518L83.3367 46.8686H82.6164V47.8686ZM74.1362 47.8686V46.8686H73.1362V47.8686H74.1362ZM68.242 47.8686H69.242V46.8686H68.242V47.8686ZM52.2721 44.8751L51.4042 44.3783H51.4042L52.2721 44.8751ZM57.059 36.5117L57.9269 37.0084L58.5869 35.8553L57.2962 35.5402L57.059 36.5117ZM55.8074 33.5757L54.9395 33.0789H54.9395L55.8074 33.5757ZM60.4407 25.4809L61.3086 25.9776L61.9879 24.7907L60.6509 24.5032L60.4407 25.4809ZM59.1392 22.5265L58.2731 22.0267V22.0267L59.1392 22.5265ZM69.4582 4.64385L68.592 4.14405V4.14405L69.4582 4.64385ZM72.9228 4.64385L72.0566 5.14365V5.14365L72.9228 4.64385ZM77.0292 11.7603L76.1631 12.2601L77.117 13.9132L77.9332 12.1879L77.0292 11.7603ZM86.4518 0.491407C85.2372 -1.59617 82.1796 -1.46602 81.1468 0.717205L82.9547 1.57243C83.299 0.844688 84.3182 0.801309 84.7231 1.49716L86.4518 0.491407ZM95.8248 16.602L86.4518 0.491407L84.7231 1.49716L94.0961 17.6077L95.8248 16.602ZM94.489 20.8365C96.0328 20.1275 96.7475 18.1878 95.8248 16.602L94.0961 17.6077C94.4003 18.1305 94.1705 18.7819 93.6543 19.019L94.489 20.8365ZM98.7168 27.0568L94.9679 19.4841L93.1755 20.3714L96.9244 27.9442L98.7168 27.0568ZM97.0905 31.196C98.6724 30.5999 99.5381 28.7158 98.7168 27.0568L96.9244 27.9442C97.1944 28.4895 96.9168 29.1242 96.3853 29.3245L97.0905 31.196ZM101.669 37.9676L97.6341 29.8166L95.8417 30.7039L99.8769 38.855L101.669 37.9676ZM98.9807 42.2986C101.206 42.2986 102.656 39.9616 101.669 37.9676L99.8769 38.855C100.206 39.5196 99.7224 40.2986 98.9807 40.2986V42.2986ZM88.0574 42.2986H98.9807V40.2986H88.0574V42.2986ZM87.1895 41.7954L89.2365 45.3718L90.9723 44.3783L88.9252 40.8019L87.1895 41.7954ZM89.2365 45.3718C89.6181 46.0385 89.1367 46.8686 88.3686 46.8686V48.8686C90.673 48.8686 92.117 46.3783 90.9723 44.3783L89.2365 45.3718ZM88.3686 46.8686H87.3338V48.8686H88.3686V46.8686ZM85.4364 50.2346C86.7624 50.2346 87.8851 49.375 88.2823 48.1853L86.3853 47.5518C86.2524 47.9499 85.8763 48.2346 85.4364 48.2346V50.2346ZM84.5138 50.2346H85.4364V48.2346H84.5138V50.2346ZM81.6679 48.1853C82.0651 49.375 83.1878 50.2346 84.5138 50.2346V48.2346C84.0739 48.2346 83.6978 47.9499 83.5649 47.5518L81.6679 48.1853ZM82.6164 46.8686H74.1362V48.8686H82.6164V46.8686ZM73.1362 47.8686V54.0878H75.1362V47.8686H73.1362ZM73.1362 54.0878C73.1362 54.6401 72.6885 55.0878 72.1362 55.0878V57.0878C73.793 57.0878 75.1362 55.7447 75.1362 54.0878H73.1362ZM72.1362 55.0878H70.242V57.0878H72.1362V55.0878ZM70.242 55.0878C69.6897 55.0878 69.242 54.6401 69.242 54.0878H67.242C67.242 55.7447 68.5852 57.0878 70.242 57.0878V55.0878ZM69.242 54.0878V47.8686H67.242V54.0878H69.242ZM68.242 46.8686H54.0078V48.8686H68.242V46.8686ZM54.0078 46.8686C53.2397 46.8686 52.7584 46.0385 53.14 45.3718L51.4042 44.3783C50.2594 46.3783 51.7034 48.8686 54.0078 48.8686V46.8686ZM53.14 45.3718L57.9269 37.0084L56.1912 36.0149L51.4042 44.3783L53.14 45.3718ZM57.2962 35.5402C56.6759 35.3887 56.3386 34.6608 56.6753 34.0724L54.9395 33.0789C53.9177 34.8641 54.9565 37.0277 56.8219 37.4831L57.2962 35.5402ZM56.6753 34.0724L61.3086 25.9776L59.5728 24.9841L54.9395 33.0789L56.6753 34.0724ZM60.6509 24.5032C60.0133 24.3661 59.6606 23.6237 60.0053 23.0263L58.2731 22.0267C57.2283 23.8372 58.31 26.0456 60.2304 26.4585L60.6509 24.5032ZM60.0053 23.0263L70.3243 5.14365L68.592 4.14405L58.2731 22.0267L60.0053 23.0263ZM70.3243 5.14365C70.7092 4.47671 71.6718 4.47671 72.0566 5.14365L73.7889 4.14406C72.6344 2.14324 69.7466 2.14324 68.592 4.14405L70.3243 5.14365ZM72.0566 5.14365L76.1631 12.2601L77.8953 11.2605L73.7889 4.14405L72.0566 5.14365ZM81.1468 0.717205L76.1252 11.3327L77.9332 12.1879L82.9547 1.57243L81.1468 0.717205Z" fill="#00D9C9" mask="url(#path-4-inside-2)"/>
<rect y="0.0878906" width="8" height="8" rx="2" fill="#57A8F1"/>
<rect y="11.0879" width="8" height="8" rx="2" fill="#00D9C9"/>
<rect y="22.0879" width="8" height="8" rx="2" fill="#FFD747"/>
<path d="M14.2 7.15989C13.64 7.15989 13.1493 7.03989 12.728 6.79989C12.312 6.55989 11.992 6.22122 11.768 5.78389C11.544 5.34122 11.432 4.82389 11.432 4.23189C11.432 3.64522 11.544 3.13322 11.768 2.69589C11.992 2.25322 12.312 1.91456 12.728 1.67989C13.1493 1.43989 13.64 1.31989 14.2 1.31989C14.584 1.31989 14.944 1.38122 15.28 1.50389C15.6213 1.62122 15.904 1.78656 16.128 1.99989L15.792 2.75189C15.536 2.54389 15.28 2.39456 15.024 2.30389C14.7733 2.20789 14.504 2.15989 14.216 2.15989C13.6667 2.15989 13.24 2.33856 12.936 2.69589C12.6373 3.05322 12.488 3.56522 12.488 4.23189C12.488 4.90389 12.6373 5.42122 12.936 5.78389C13.2347 6.14122 13.6613 6.31989 14.216 6.31989C14.504 6.31989 14.7733 6.27456 15.024 6.18389C15.28 6.08789 15.536 5.93589 15.792 5.72789L16.128 6.47989C15.904 6.69322 15.6213 6.86122 15.28 6.98389C14.944 7.10122 14.584 7.15989 14.2 7.15989ZM20.8064 3.04789V7.08789H19.8224V6.43989C19.6998 6.66389 19.5238 6.83989 19.2944 6.96789C19.0651 7.09056 18.8038 7.15189 18.5104 7.15189C18.1584 7.15189 17.8464 7.06656 17.5744 6.89589C17.3024 6.72522 17.0918 6.48256 16.9424 6.16789C16.7931 5.85322 16.7184 5.48789 16.7184 5.07189C16.7184 4.65589 16.7931 4.28789 16.9424 3.96789C17.0971 3.64256 17.3104 3.39189 17.5824 3.21589C17.8544 3.03456 18.1638 2.94389 18.5104 2.94389C18.8038 2.94389 19.0651 3.00789 19.2944 3.13589C19.5238 3.25856 19.6998 3.43189 19.8224 3.65589V3.04789H20.8064ZM18.7824 6.36789C19.1131 6.36789 19.3691 6.25322 19.5504 6.02389C19.7318 5.79456 19.8224 5.47189 19.8224 5.05589C19.8224 4.62922 19.7318 4.30122 19.5504 4.07189C19.3691 3.84256 19.1104 3.72789 18.7744 3.72789C18.4438 3.72789 18.1851 3.84789 17.9984 4.08789C17.8171 4.32256 17.7264 4.65056 17.7264 5.07189C17.7264 5.48789 17.8171 5.80789 17.9984 6.03189C18.1851 6.25589 18.4464 6.36789 18.7824 6.36789ZM24.0716 2.95189C24.2262 2.95189 24.3596 2.97322 24.4716 3.01589L24.4636 3.92789C24.2929 3.85856 24.1169 3.82389 23.9356 3.82389C23.5942 3.82389 23.3329 3.92256 23.1516 4.11989C22.9756 4.31722 22.8876 4.57856 22.8876 4.90389V7.08789H21.8956V4.19189C21.8956 3.76522 21.8742 3.38389 21.8316 3.04789H22.7676L22.8476 3.75989C22.9489 3.49856 23.1089 3.29856 23.3276 3.15989C23.5462 3.02122 23.7942 2.95189 24.0716 2.95189Z" fill="#91A9C0"/>
<path d="M12.952 13.2399H11.096V12.3919H15.856V13.2399H13.992V18.0879H12.952V13.2399ZM18.0403 13.9519C18.195 13.9519 18.3283 13.9732 18.4403 14.0159L18.4323 14.9279C18.2616 14.8586 18.0856 14.8239 17.9043 14.8239C17.563 14.8239 17.3016 14.9226 17.1203 15.1199C16.9443 15.3172 16.8563 15.5786 16.8563 15.9039V18.0879H15.8643V15.1919C15.8643 14.7652 15.843 14.3839 15.8003 14.0479H16.7363L16.8163 14.7599C16.9176 14.4986 17.0776 14.2986 17.2963 14.1599C17.515 14.0212 17.763 13.9519 18.0403 13.9519ZM22.455 16.1199H19.671C19.6923 16.5519 19.799 16.8719 19.991 17.0799C20.1883 17.2826 20.479 17.3839 20.863 17.3839C21.3057 17.3839 21.7163 17.2399 22.095 16.9519L22.383 17.6399C22.191 17.7946 21.9537 17.9199 21.671 18.0159C21.3937 18.1066 21.111 18.1519 20.823 18.1519C20.1617 18.1519 19.6417 17.9652 19.263 17.5919C18.8843 17.2186 18.695 16.7066 18.695 16.0559C18.695 15.6452 18.7777 15.2799 18.943 14.9599C19.1083 14.6399 19.3403 14.3919 19.639 14.2159C19.9377 14.0346 20.2763 13.9439 20.655 13.9439C21.2097 13.9439 21.647 14.1252 21.967 14.4879C22.2923 14.8452 22.455 15.3386 22.455 15.9679V16.1199ZM20.679 14.6639C20.4123 14.6639 20.1937 14.7439 20.023 14.9039C19.8577 15.0586 19.751 15.2852 19.703 15.5839H21.583C21.551 15.2799 21.4577 15.0506 21.303 14.8959C21.1537 14.7412 20.9457 14.6639 20.679 14.6639ZM26.8378 16.1199H24.0538C24.0751 16.5519 24.1818 16.8719 24.3738 17.0799C24.5711 17.2826 24.8618 17.3839 25.2458 17.3839C25.6885 17.3839 26.0991 17.2399 26.4778 16.9519L26.7658 17.6399C26.5738 17.7946 26.3365 17.9199 26.0538 18.0159C25.7765 18.1066 25.4938 18.1519 25.2058 18.1519C24.5445 18.1519 24.0245 17.9652 23.6458 17.5919C23.2671 17.2186 23.0778 16.7066 23.0778 16.0559C23.0778 15.6452 23.1605 15.2799 23.3258 14.9599C23.4911 14.6399 23.7231 14.3919 24.0218 14.2159C24.3205 14.0346 24.6591 13.9439 25.0378 13.9439C25.5925 13.9439 26.0298 14.1252 26.3498 14.4879C26.6751 14.8452 26.8378 15.3386 26.8378 15.9679V16.1199ZM25.0618 14.6639C24.7951 14.6639 24.5765 14.7439 24.4058 14.9039C24.2405 15.0586 24.1338 15.2852 24.0858 15.5839H25.9658C25.9338 15.2799 25.8405 15.0506 25.6858 14.8959C25.5365 14.7412 25.3285 14.6639 25.0618 14.6639Z" fill="#91A9C0"/>
<path d="M16.304 29.0879H15.216L14.488 27.1919C14.424 27.0159 14.3253 26.8932 14.192 26.8239C14.0587 26.7546 13.8853 26.7199 13.672 26.7199H12.64V29.0879H11.616V23.3919H14.056C14.7013 23.3919 15.192 23.5332 15.528 23.8159C15.864 24.0986 16.032 24.5039 16.032 25.0319C16.032 25.4106 15.9307 25.7332 15.728 25.9999C15.5307 26.2612 15.248 26.4479 14.88 26.5599C15.216 26.6292 15.4587 26.8639 15.608 27.2639L16.304 29.0879ZM13.912 25.9199C14.3013 25.9199 14.5893 25.8479 14.776 25.7039C14.9627 25.5599 15.056 25.3412 15.056 25.0479C15.056 24.7599 14.9627 24.5466 14.776 24.4079C14.5947 24.2639 14.3067 24.1919 13.912 24.1919H12.624V25.9199H13.912ZM18.9932 29.1519C18.5825 29.1519 18.2199 29.0666 17.9052 28.8959C17.5959 28.7252 17.3559 28.4826 17.1852 28.1679C17.0199 27.8479 16.9372 27.4746 16.9372 27.0479C16.9372 26.6212 17.0199 26.2506 17.1852 25.9359C17.3559 25.6159 17.5959 25.3706 17.9052 25.1999C18.2199 25.0292 18.5825 24.9439 18.9932 24.9439C19.3985 24.9439 19.7559 25.0292 20.0652 25.1999C20.3745 25.3706 20.6119 25.6159 20.7772 25.9359C20.9479 26.2506 21.0332 26.6212 21.0332 27.0479C21.0332 27.4746 20.9479 27.8479 20.7772 28.1679C20.6119 28.4826 20.3745 28.7252 20.0652 28.8959C19.7559 29.0666 19.3985 29.1519 18.9932 29.1519ZM18.9852 28.3679C19.3265 28.3679 19.5852 28.2586 19.7612 28.0399C19.9425 27.8159 20.0332 27.4852 20.0332 27.0479C20.0332 26.6159 19.9425 26.2879 19.7612 26.0639C19.5799 25.8346 19.3239 25.7199 18.9932 25.7199C18.6572 25.7199 18.3985 25.8346 18.2172 26.0639C18.0359 26.2879 17.9452 26.6159 17.9452 27.0479C17.9452 27.4852 18.0332 27.8159 18.2092 28.0399C18.3905 28.2586 18.6492 28.3679 18.9852 28.3679ZM25.7596 25.0479V29.0879H24.7756V28.4399C24.6529 28.6639 24.4769 28.8399 24.2476 28.9679C24.0182 29.0906 23.7569 29.1519 23.4636 29.1519C23.1116 29.1519 22.7996 29.0666 22.5276 28.8959C22.2556 28.7252 22.0449 28.4826 21.8956 28.1679C21.7462 27.8532 21.6716 27.4879 21.6716 27.0719C21.6716 26.6559 21.7462 26.2879 21.8956 25.9679C22.0502 25.6426 22.2636 25.3919 22.5356 25.2159C22.8076 25.0346 23.1169 24.9439 23.4636 24.9439C23.7569 24.9439 24.0182 25.0079 24.2476 25.1359C24.4769 25.2586 24.6529 25.4319 24.7756 25.6559V25.0479H25.7596ZM23.7356 28.3679C24.0662 28.3679 24.3222 28.2532 24.5036 28.0239C24.6849 27.7946 24.7756 27.4719 24.7756 27.0559C24.7756 26.6292 24.6849 26.3012 24.5036 26.0719C24.3222 25.8426 24.0636 25.7279 23.7276 25.7279C23.3969 25.7279 23.1382 25.8479 22.9516 26.0879C22.7702 26.3226 22.6796 26.6506 22.6796 27.0719C22.6796 27.4879 22.7702 27.8079 22.9516 28.0319C23.1382 28.2559 23.3996 28.3679 23.7356 28.3679ZM30.7127 23.1999V29.0879H29.7287V28.4399C29.606 28.6639 29.43 28.8399 29.2007 28.9679C28.9714 29.0906 28.71 29.1519 28.4167 29.1519C28.07 29.1519 27.7607 29.0639 27.4887 28.8879C27.2167 28.7119 27.0034 28.4639 26.8487 28.1439C26.6994 27.8186 26.6247 27.4479 26.6247 27.0319C26.6247 26.6159 26.6994 26.2506 26.8487 25.9359C26.998 25.6212 27.2087 25.3786 27.4807 25.2079C27.7527 25.0319 28.0647 24.9439 28.4167 24.9439C28.7047 24.9439 28.9607 25.0052 29.1847 25.1279C29.414 25.2452 29.59 25.4132 29.7127 25.6319V23.1999H30.7127ZM28.6807 28.3679C29.0114 28.3679 29.2674 28.2532 29.4487 28.0239C29.6354 27.7946 29.7287 27.4692 29.7287 27.0479C29.7287 26.6266 29.638 26.3012 29.4567 26.0719C29.2754 25.8426 29.0194 25.7279 28.6887 25.7279C28.3527 25.7279 28.0914 25.8426 27.9047 26.0719C27.7234 26.2959 27.6327 26.6159 27.6327 27.0319C27.6327 27.4532 27.7234 27.7812 27.9047 28.0159C28.0914 28.2506 28.35 28.3679 28.6807 28.3679Z" fill="#91A9C0"/>
</g>
</svg>
