<svg width="15" height="19" viewBox="0 0 15 19" fill="none" xmlns="http://www.w3.org/2000/svg">
<path d="M14.25 7.5C14.25 9.45577 13.4192 11.2163 12.089 12.4501C11.375 13.1124 10.0653 14.6572 8.96878 15.9887C8.41241 16.6643 7.89838 17.3005 7.52356 17.7677C7.51564 17.7776 7.50779 17.7874 7.5 17.7971C7.49221 17.7874 7.48436 17.7776 7.47644 17.7677C7.10162 17.3005 6.58759 16.6643 6.03122 15.9887C4.93471 14.6572 3.62502 13.1124 2.91096 12.4501C1.58081 11.2163 0.75 9.45577 0.75 7.5C0.75 3.77208 3.77208 0.75 7.5 0.75C11.2279 0.75 14.25 3.77208 14.25 7.5Z" fill="#EB5353" stroke="white" stroke-width="1.5"/>
</svg>
